%TF.GenerationSoftware,KiCad,Pcbnew,(6.0.6)*%
%TF.CreationDate,2022-07-10T21:40:21+02:00*%
%TF.ProjectId,GCode_Buttons_Cherry_MX,47436f64-655f-4427-9574-746f6e735f43,rev?*%
%TF.SameCoordinates,Original*%
%TF.FileFunction,Copper,L1,Top*%
%TF.FilePolarity,Positive*%
%FSLAX46Y46*%
G04 Gerber Fmt 4.6, Leading zero omitted, Abs format (unit mm)*
G04 Created by KiCad (PCBNEW (6.0.6)) date 2022-07-10 21:40:21*
%MOMM*%
%LPD*%
G01*
G04 APERTURE LIST*
G04 Aperture macros list*
%AMRoundRect*
0 Rectangle with rounded corners*
0 $1 Rounding radius*
0 $2 $3 $4 $5 $6 $7 $8 $9 X,Y pos of 4 corners*
0 Add a 4 corners polygon primitive as box body*
4,1,4,$2,$3,$4,$5,$6,$7,$8,$9,$2,$3,0*
0 Add four circle primitives for the rounded corners*
1,1,$1+$1,$2,$3*
1,1,$1+$1,$4,$5*
1,1,$1+$1,$6,$7*
1,1,$1+$1,$8,$9*
0 Add four rect primitives between the rounded corners*
20,1,$1+$1,$2,$3,$4,$5,0*
20,1,$1+$1,$4,$5,$6,$7,0*
20,1,$1+$1,$6,$7,$8,$9,0*
20,1,$1+$1,$8,$9,$2,$3,0*%
%AMRotRect*
0 Rectangle, with rotation*
0 The origin of the aperture is its center*
0 $1 length*
0 $2 width*
0 $3 Rotation angle, in degrees counterclockwise*
0 Add horizontal line*
21,1,$1,$2,0,0,$3*%
%AMFreePoly0*
4,1,15,-0.149998,0.780000,0.350000,0.780000,0.353536,0.778536,0.355000,0.775000,0.355000,-0.795000,0.353536,-0.798536,0.350000,-0.800000,-0.450000,-0.800000,-0.453536,-0.798536,-0.455000,-0.795000,-0.455001,0.475000,-0.453536,0.478536,-0.153536,0.778536,-0.150000,0.780001,-0.149998,0.780000,-0.149998,0.780000,$1*%
G04 Aperture macros list end*
%TA.AperFunction,SMDPad,CuDef*%
%ADD10RoundRect,0.082000X0.328000X0.718000X-0.328000X0.718000X-0.328000X-0.718000X0.328000X-0.718000X0*%
%TD*%
%TA.AperFunction,SMDPad,CuDef*%
%ADD11FreePoly0,0.000000*%
%TD*%
%TA.AperFunction,SMDPad,CuDef*%
%ADD12RoundRect,0.082000X-0.328000X-0.718000X0.328000X-0.718000X0.328000X0.718000X-0.328000X0.718000X0*%
%TD*%
%TA.AperFunction,SMDPad,CuDef*%
%ADD13RotRect,1.000000X1.500000X60.000000*%
%TD*%
%TA.AperFunction,SMDPad,CuDef*%
%ADD14RoundRect,0.135000X0.135000X0.185000X-0.135000X0.185000X-0.135000X-0.185000X0.135000X-0.185000X0*%
%TD*%
%TA.AperFunction,SMDPad,CuDef*%
%ADD15R,1.000000X1.500000*%
%TD*%
%TA.AperFunction,SMDPad,CuDef*%
%ADD16RoundRect,0.140000X-0.140000X-0.170000X0.140000X-0.170000X0.140000X0.170000X-0.140000X0.170000X0*%
%TD*%
%TA.AperFunction,SMDPad,CuDef*%
%ADD17RotRect,1.000000X1.500000X30.000000*%
%TD*%
%TA.AperFunction,SMDPad,CuDef*%
%ADD18RotRect,0.400000X1.350000X30.000000*%
%TD*%
%TA.AperFunction,SMDPad,CuDef*%
%ADD19RotRect,2.400000X2.400000X210.000000*%
%TD*%
%TA.AperFunction,ComponentPad*%
%ADD20C,2.200000*%
%TD*%
%TA.AperFunction,ViaPad*%
%ADD21C,0.450000*%
%TD*%
%TA.AperFunction,Conductor*%
%ADD22C,0.300000*%
%TD*%
%TA.AperFunction,Conductor*%
%ADD23C,0.250000*%
%TD*%
G04 APERTURE END LIST*
D10*
%TO.P,D1,1,VDD*%
%TO.N,Net-(C1-Pad1)*%
X105850000Y-102850000D03*
%TO.P,D1,2,DOUT*%
%TO.N,Dout*%
X104350000Y-102850000D03*
D11*
%TO.P,D1,3,VSS*%
%TO.N,GND*%
X104350000Y-97150000D03*
D12*
%TO.P,D1,4,DIN*%
%TO.N,Din*%
X105850000Y-97150000D03*
%TD*%
D13*
%TO.P,JP5,1,A*%
%TO.N,Net-(JP1-Pad1)*%
X95575000Y-108162917D03*
%TO.P,JP5,2,B*%
%TO.N,Net-(J1-Pad5)*%
X96225000Y-107037083D03*
%TD*%
D14*
%TO.P,R1,1*%
%TO.N,+5V*%
X91810000Y-97800000D03*
%TO.P,R1,2*%
%TO.N,Net-(JP1-Pad1)*%
X90790000Y-97800000D03*
%TD*%
D15*
%TO.P,JP2,1,A*%
%TO.N,Net-(JP1-Pad1)*%
X90650000Y-101550000D03*
%TO.P,JP2,2,B*%
%TO.N,Net-(J1-Pad2)*%
X91950000Y-101550000D03*
%TD*%
%TO.P,JP1,1,A*%
%TO.N,Net-(JP1-Pad1)*%
X90650000Y-99400000D03*
%TO.P,JP1,2,B*%
%TO.N,Net-(J1-Pad1)*%
X91950000Y-99400000D03*
%TD*%
D14*
%TO.P,R2,1*%
%TO.N,+5V*%
X108610000Y-100600000D03*
%TO.P,R2,2*%
%TO.N,Net-(C1-Pad1)*%
X107590000Y-100600000D03*
%TD*%
D16*
%TO.P,C1,1*%
%TO.N,Net-(C1-Pad1)*%
X107620000Y-101650000D03*
%TO.P,C1,2*%
%TO.N,GND*%
X108580000Y-101650000D03*
%TD*%
D17*
%TO.P,JP3,1,A*%
%TO.N,Net-(JP1-Pad1)*%
X91387083Y-104725000D03*
%TO.P,JP3,2,B*%
%TO.N,Net-(J1-Pad3)*%
X92512917Y-104075000D03*
%TD*%
D18*
%TO.P,J1,1,Pin_1*%
%TO.N,Net-(J1-Pad1)*%
X94834456Y-94627628D03*
%TO.P,J1,2,Pin_2*%
%TO.N,Net-(J1-Pad2)*%
X94167468Y-92472372D03*
%TO.P,J1,3,Pin_3*%
%TO.N,Net-(J1-Pad3)*%
X95700481Y-94127628D03*
%TO.P,J1,4,Pin_4*%
%TO.N,Net-(J1-Pad4)*%
X95033494Y-91972372D03*
%TO.P,J1,5,Pin_5*%
%TO.N,Net-(J1-Pad5)*%
X96566506Y-93627628D03*
%TO.P,J1,6,Pin_6*%
%TO.N,+5V*%
X95899519Y-91472372D03*
%TO.P,J1,7,Pin_7*%
%TO.N,Din*%
X97432532Y-93127628D03*
%TO.P,J1,8,Pin_8*%
%TO.N,GND*%
X96765544Y-90972372D03*
D19*
%TO.P,J1,MP*%
%TO.N,N/C*%
X98831089Y-91050000D03*
X92768911Y-94550000D03*
%TD*%
D18*
%TO.P,J2,1,Pin_1*%
%TO.N,Net-(J1-Pad1)*%
X103134456Y-108927628D03*
%TO.P,J2,2,Pin_2*%
%TO.N,Net-(J1-Pad2)*%
X102467468Y-106772372D03*
%TO.P,J2,3,Pin_3*%
%TO.N,Net-(J1-Pad3)*%
X104000481Y-108427628D03*
%TO.P,J2,4,Pin_4*%
%TO.N,Net-(J1-Pad4)*%
X103333494Y-106272372D03*
%TO.P,J2,5,Pin_5*%
%TO.N,Net-(J1-Pad5)*%
X104866506Y-107927628D03*
%TO.P,J2,6,Pin_6*%
%TO.N,+5V*%
X104199519Y-105772372D03*
%TO.P,J2,7,Pin_7*%
%TO.N,Dout*%
X105732532Y-107427628D03*
%TO.P,J2,8,Pin_8*%
%TO.N,GND*%
X105065544Y-105272372D03*
D19*
%TO.P,J2,MP*%
%TO.N,N/C*%
X101068911Y-108850000D03*
X107131089Y-105350000D03*
%TD*%
D13*
%TO.P,JP4,1,A*%
%TO.N,Net-(JP1-Pad1)*%
X93675000Y-107062917D03*
%TO.P,JP4,2,B*%
%TO.N,Net-(J1-Pad4)*%
X94325000Y-105937083D03*
%TD*%
D20*
%TO.P,SW1,1,1*%
%TO.N,Net-(JP1-Pad1)*%
X94920000Y-102540000D03*
%TO.P,SW1,2,2*%
%TO.N,GND*%
X97460000Y-96190000D03*
%TD*%
D21*
%TO.N,+5V*%
X103650000Y-104800000D03*
X92550000Y-97800000D03*
X96500000Y-92450000D03*
X109350000Y-100600000D03*
%TO.N,GND*%
X90650000Y-94350000D03*
X109450000Y-94350000D03*
X100000000Y-110850000D03*
X109450000Y-105300000D03*
X97400000Y-91950000D03*
X100000000Y-89000000D03*
X90500000Y-105300000D03*
%TO.N,Net-(J1-Pad4)*%
X95600000Y-92950000D03*
X102750000Y-105300000D03*
X94850000Y-104950000D03*
%TO.N,Net-(J1-Pad1)*%
X102550000Y-107950000D03*
X93050000Y-99400000D03*
X95400000Y-95600000D03*
%TO.N,Net-(J1-Pad2)*%
X93050000Y-101550000D03*
X94750000Y-93450000D03*
X101900000Y-105800000D03*
%TO.N,Net-(J1-Pad3)*%
X93450000Y-103500000D03*
X103450000Y-107450000D03*
X96250000Y-95100000D03*
%TO.N,Net-(J1-Pad5)*%
X104300000Y-106950000D03*
X96800000Y-106050000D03*
X97150000Y-94600000D03*
%TO.N,Dout*%
X105150000Y-106400000D03*
X104350000Y-104100000D03*
%TD*%
D22*
%TO.N,Net-(C1-Pad1)*%
X107620000Y-101650000D02*
X107620000Y-100630000D01*
X107620000Y-100630000D02*
X107590000Y-100600000D01*
X106420000Y-102850000D02*
X107620000Y-101650000D01*
X105850000Y-102850000D02*
X106420000Y-102850000D01*
%TO.N,+5V*%
X108610000Y-100600000D02*
X109350000Y-100600000D01*
D23*
X92550000Y-97800000D02*
X91810000Y-97800000D01*
X96500000Y-92450000D02*
X96500000Y-92082004D01*
X103650000Y-104800000D02*
X103650000Y-105232004D01*
X103650000Y-105232004D02*
X104212019Y-105794023D01*
X96500000Y-92082004D02*
X95912019Y-91494023D01*
%TO.N,Din*%
X97420032Y-93105977D02*
X97964055Y-93650000D01*
X105850000Y-95950000D02*
X105850000Y-97150000D01*
X103550000Y-93650000D02*
X105850000Y-95950000D01*
X97964055Y-93650000D02*
X103550000Y-93650000D01*
%TO.N,Net-(J1-Pad4)*%
X94850000Y-104950000D02*
X94850000Y-105412083D01*
X102750000Y-105300000D02*
X102750000Y-105698029D01*
X95600000Y-92548029D02*
X95045994Y-91994023D01*
X102750000Y-105698029D02*
X103345994Y-106294023D01*
X95600000Y-92950000D02*
X95600000Y-92548029D01*
X94850000Y-105412083D02*
X94325000Y-105937083D01*
%TO.N,Net-(J1-Pad1)*%
X102550000Y-107950000D02*
X102550000Y-108334021D01*
X102550000Y-108334021D02*
X103121956Y-108905977D01*
X95400000Y-95600000D02*
X95400000Y-95184021D01*
X95400000Y-95184021D02*
X94821956Y-94605977D01*
X91950000Y-99400000D02*
X93050000Y-99400000D01*
%TO.N,Net-(J1-Pad2)*%
X94750000Y-93064055D02*
X94179968Y-92494023D01*
X101900000Y-105800000D02*
X101900000Y-106214055D01*
X91950000Y-101550000D02*
X93050000Y-101550000D01*
X101900000Y-106214055D02*
X102479968Y-106794023D01*
X94750000Y-93450000D02*
X94750000Y-93064055D01*
%TO.N,Net-(J1-Pad3)*%
X103450000Y-107450000D02*
X103450000Y-107867996D01*
X96250000Y-94667996D02*
X95687981Y-94105977D01*
X103450000Y-107867996D02*
X103987981Y-108405977D01*
X96250000Y-95100000D02*
X96250000Y-94667996D01*
X93450000Y-103500000D02*
X93087917Y-103500000D01*
X93087917Y-103500000D02*
X92512917Y-104075000D01*
%TO.N,Net-(J1-Pad5)*%
X96800000Y-106050000D02*
X96800000Y-106462083D01*
X96800000Y-106462083D02*
X96225000Y-107037083D01*
X104300000Y-107351971D02*
X104854006Y-107905977D01*
X97150000Y-94600000D02*
X97150000Y-94201971D01*
X104300000Y-106950000D02*
X104300000Y-107351971D01*
X97150000Y-94201971D02*
X96554006Y-93605977D01*
%TO.N,Dout*%
X104350000Y-102750000D02*
X104350000Y-104100000D01*
X105150000Y-106400000D02*
X105150000Y-106835945D01*
X105150000Y-106835945D02*
X105720032Y-107405977D01*
%TO.N,Net-(JP1-Pad1)*%
X94775000Y-108162917D02*
X93675000Y-107062917D01*
X90650000Y-101550000D02*
X90650000Y-102700000D01*
X90650000Y-102700000D02*
X90650000Y-103987917D01*
X90650000Y-99400000D02*
X90650000Y-97940000D01*
X91387083Y-104775000D02*
X91387083Y-104725000D01*
X94760000Y-102700000D02*
X90650000Y-102700000D01*
X90650000Y-97940000D02*
X90790000Y-97800000D01*
X94920000Y-102540000D02*
X94760000Y-102700000D01*
X90650000Y-99400000D02*
X90650000Y-101550000D01*
X95575000Y-108162917D02*
X94775000Y-108162917D01*
X90650000Y-103987917D02*
X91387083Y-104725000D01*
X93675000Y-107062917D02*
X91387083Y-104775000D01*
%TD*%
%TA.AperFunction,Conductor*%
%TO.N,GND*%
G36*
X93484030Y-92099315D02*
G01*
X93503522Y-92123386D01*
X94165564Y-93270076D01*
X94165572Y-93270087D01*
X94167999Y-93274291D01*
X94171200Y-93277941D01*
X94171202Y-93277944D01*
X94186602Y-93295504D01*
X94207315Y-93319123D01*
X94216056Y-93323434D01*
X94216058Y-93323435D01*
X94265201Y-93347669D01*
X94309029Y-93390364D01*
X94320415Y-93436460D01*
X94320415Y-93442303D01*
X94319196Y-93450000D01*
X94340281Y-93583126D01*
X94343817Y-93590065D01*
X94343817Y-93590066D01*
X94359190Y-93620236D01*
X94401472Y-93703220D01*
X94413866Y-93715614D01*
X94441643Y-93770131D01*
X94432072Y-93830563D01*
X94393365Y-93871352D01*
X94206399Y-93979297D01*
X94202741Y-93982504D01*
X94202738Y-93982507D01*
X94197629Y-93986987D01*
X94141412Y-94011139D01*
X94081736Y-93997635D01*
X94046618Y-93962054D01*
X94046446Y-93961755D01*
X93371906Y-92793417D01*
X93355133Y-92774291D01*
X93339020Y-92755917D01*
X93339017Y-92755915D01*
X93332590Y-92748586D01*
X93261051Y-92713308D01*
X93251320Y-92712670D01*
X93238318Y-92711818D01*
X93181458Y-92708090D01*
X93172226Y-92711224D01*
X93172225Y-92711224D01*
X93129598Y-92725694D01*
X93124994Y-92727257D01*
X93120786Y-92729687D01*
X93120785Y-92729687D01*
X92878935Y-92869319D01*
X91012328Y-93947005D01*
X91008670Y-93950213D01*
X90974828Y-93979891D01*
X90974826Y-93979894D01*
X90967497Y-93986321D01*
X90963184Y-93995067D01*
X90955102Y-94011457D01*
X90932219Y-94057860D01*
X90927001Y-94137453D01*
X90930135Y-94146685D01*
X90930135Y-94146686D01*
X90936284Y-94164799D01*
X90946168Y-94193917D01*
X92165916Y-96306583D01*
X92169124Y-96310241D01*
X92198802Y-96344083D01*
X92198805Y-96344085D01*
X92205232Y-96351414D01*
X92276771Y-96386692D01*
X92286502Y-96387330D01*
X92299504Y-96388182D01*
X92356364Y-96391910D01*
X92365596Y-96388776D01*
X92365597Y-96388776D01*
X92408224Y-96374306D01*
X92408225Y-96374305D01*
X92412828Y-96372743D01*
X92424707Y-96365885D01*
X93093112Y-95979981D01*
X94525494Y-95152995D01*
X94529148Y-95149791D01*
X94529153Y-95149787D01*
X94534259Y-95145308D01*
X94590474Y-95121153D01*
X94650151Y-95134654D01*
X94685273Y-95170237D01*
X94832552Y-95425332D01*
X94832560Y-95425343D01*
X94834987Y-95429547D01*
X94838188Y-95433197D01*
X94838190Y-95433200D01*
X94858269Y-95456095D01*
X94874303Y-95474379D01*
X94883043Y-95478689D01*
X94883047Y-95478692D01*
X94915373Y-95494632D01*
X94959201Y-95537325D01*
X94966984Y-95584513D01*
X94970415Y-95584513D01*
X94970415Y-95592304D01*
X94969196Y-95600000D01*
X94990281Y-95733126D01*
X94993817Y-95740065D01*
X94993817Y-95740066D01*
X95047531Y-95845485D01*
X95051472Y-95853220D01*
X95146780Y-95948528D01*
X95153717Y-95952063D01*
X95153719Y-95952064D01*
X95210282Y-95980884D01*
X95266874Y-96009719D01*
X95274568Y-96010938D01*
X95274569Y-96010938D01*
X95392304Y-96029585D01*
X95400000Y-96030804D01*
X95407696Y-96029585D01*
X95525431Y-96010938D01*
X95525432Y-96010938D01*
X95533126Y-96009719D01*
X95589718Y-95980884D01*
X95646281Y-95952064D01*
X95646283Y-95952063D01*
X95653220Y-95948528D01*
X95748528Y-95853220D01*
X95752470Y-95845485D01*
X95806183Y-95740066D01*
X95806183Y-95740065D01*
X95809719Y-95733126D01*
X95830804Y-95600000D01*
X95818727Y-95523750D01*
X95828298Y-95463319D01*
X95871563Y-95420055D01*
X95931995Y-95410483D01*
X95986512Y-95438260D01*
X95996780Y-95448528D01*
X96003717Y-95452063D01*
X96003719Y-95452064D01*
X96055980Y-95478692D01*
X96116874Y-95509719D01*
X96197529Y-95522493D01*
X96252045Y-95550270D01*
X96279823Y-95604786D01*
X96271766Y-95662113D01*
X96235561Y-95739755D01*
X96232615Y-95747848D01*
X96175978Y-95959218D01*
X96174482Y-95967706D01*
X96155411Y-96185691D01*
X96155411Y-96194309D01*
X96174482Y-96412294D01*
X96175978Y-96420782D01*
X96232615Y-96632152D01*
X96235561Y-96640245D01*
X96328036Y-96838558D01*
X96332348Y-96846028D01*
X96457859Y-97025275D01*
X96460209Y-97028076D01*
X96470847Y-97033496D01*
X96475878Y-97032700D01*
X97317782Y-96190797D01*
X97606453Y-96190797D01*
X97607249Y-96195828D01*
X98438864Y-97027442D01*
X98450747Y-97033496D01*
X98455778Y-97032700D01*
X98456608Y-97031870D01*
X98462141Y-97025275D01*
X98587652Y-96846028D01*
X98591964Y-96838558D01*
X98684439Y-96640245D01*
X98687385Y-96632152D01*
X98744022Y-96420782D01*
X98745518Y-96412294D01*
X98764589Y-96194309D01*
X98764589Y-96185691D01*
X98745518Y-95967706D01*
X98744022Y-95959218D01*
X98687385Y-95747848D01*
X98684439Y-95739755D01*
X98591964Y-95541442D01*
X98587652Y-95533972D01*
X98462141Y-95354725D01*
X98459791Y-95351924D01*
X98449153Y-95346504D01*
X98444122Y-95347300D01*
X97612507Y-96178914D01*
X97606453Y-96190797D01*
X97317782Y-96190797D01*
X97460000Y-96048579D01*
X98297442Y-95211136D01*
X98303496Y-95199253D01*
X98302700Y-95194222D01*
X98301870Y-95193392D01*
X98295275Y-95187859D01*
X98116028Y-95062348D01*
X98108558Y-95058036D01*
X97910245Y-94965561D01*
X97902152Y-94962615D01*
X97690782Y-94905978D01*
X97682295Y-94904482D01*
X97627580Y-94899695D01*
X97571259Y-94875788D01*
X97539746Y-94823342D01*
X97545079Y-94762390D01*
X97548000Y-94756126D01*
X97556182Y-94740068D01*
X97556182Y-94740067D01*
X97559719Y-94733126D01*
X97572917Y-94649800D01*
X97579585Y-94607696D01*
X97580804Y-94600000D01*
X97559719Y-94466874D01*
X97498528Y-94346780D01*
X97494155Y-94342407D01*
X97475500Y-94284990D01*
X97475500Y-94220505D01*
X97475877Y-94211876D01*
X97477123Y-94197640D01*
X97479264Y-94173164D01*
X97469270Y-94135869D01*
X97472471Y-94074769D01*
X97510974Y-94027218D01*
X97571370Y-94011457D01*
X97603894Y-94013588D01*
X97623510Y-94014874D01*
X97632742Y-94011740D01*
X97632744Y-94011740D01*
X97674295Y-93997635D01*
X97679975Y-93995707D01*
X97745673Y-93957776D01*
X97805521Y-93945055D01*
X97824208Y-93950238D01*
X97824390Y-93949559D01*
X97825848Y-93949950D01*
X97831273Y-93952197D01*
X97835357Y-93953330D01*
X97835370Y-93953295D01*
X97835811Y-93953455D01*
X97837010Y-93953788D01*
X97838026Y-93954262D01*
X97843511Y-93956258D01*
X97851010Y-93960588D01*
X97859536Y-93962091D01*
X97859538Y-93962092D01*
X97889271Y-93967334D01*
X97897705Y-93969204D01*
X97935248Y-93979264D01*
X97973963Y-93975877D01*
X97982592Y-93975500D01*
X99145527Y-93975500D01*
X99203718Y-93994407D01*
X99239682Y-94043907D01*
X99239682Y-94105093D01*
X99220301Y-94139384D01*
X99099990Y-94278029D01*
X98994834Y-94459799D01*
X98993290Y-94464244D01*
X98993290Y-94464245D01*
X98932540Y-94639189D01*
X98925947Y-94658174D01*
X98925271Y-94662836D01*
X98901999Y-94823342D01*
X98895814Y-94865996D01*
X98896032Y-94870707D01*
X98896032Y-94870708D01*
X98897665Y-94905978D01*
X98905523Y-95075767D01*
X98906628Y-95080351D01*
X98932538Y-95187859D01*
X98954724Y-95279918D01*
X99041640Y-95471081D01*
X99163137Y-95642360D01*
X99236484Y-95712574D01*
X99311427Y-95784317D01*
X99311431Y-95784320D01*
X99314831Y-95787575D01*
X99491246Y-95901485D01*
X99495623Y-95903249D01*
X99657596Y-95968526D01*
X99686019Y-95979981D01*
X99690643Y-95980884D01*
X99888627Y-96019548D01*
X99888634Y-96019549D01*
X99892122Y-96020230D01*
X99897643Y-96020500D01*
X100052469Y-96020500D01*
X100165466Y-96009719D01*
X100204353Y-96006009D01*
X100204355Y-96006009D01*
X100209046Y-96005561D01*
X100410549Y-95946447D01*
X100597239Y-95850295D01*
X100737963Y-95739755D01*
X100758672Y-95723488D01*
X100758673Y-95723487D01*
X100762379Y-95720576D01*
X100900010Y-95561971D01*
X101005166Y-95380201D01*
X101039990Y-95279918D01*
X101072509Y-95186273D01*
X101072510Y-95186271D01*
X101074053Y-95181826D01*
X101078677Y-95149937D01*
X101103509Y-94978674D01*
X101103509Y-94978673D01*
X101104186Y-94974004D01*
X101102128Y-94929547D01*
X101094695Y-94768941D01*
X101094695Y-94768940D01*
X101094477Y-94764233D01*
X101070040Y-94662836D01*
X101046381Y-94564665D01*
X101046379Y-94564660D01*
X101045276Y-94560082D01*
X101014750Y-94492942D01*
X100968028Y-94390182D01*
X100958360Y-94368919D01*
X100836863Y-94197640D01*
X100790542Y-94153297D01*
X100782934Y-94146014D01*
X100753974Y-94092116D01*
X100762225Y-94031490D01*
X100804536Y-93987292D01*
X100851394Y-93975500D01*
X103374166Y-93975500D01*
X103432357Y-93994407D01*
X103444170Y-94004496D01*
X105448106Y-96008433D01*
X105475883Y-96062950D01*
X105466312Y-96123382D01*
X105418291Y-96168913D01*
X105359219Y-96195152D01*
X105284868Y-96269632D01*
X105281172Y-96277992D01*
X105248713Y-96351414D01*
X105242315Y-96365885D01*
X105239500Y-96390031D01*
X105239501Y-97909968D01*
X105242431Y-97934603D01*
X105246136Y-97942943D01*
X105253851Y-97960313D01*
X105260194Y-98021169D01*
X105229555Y-98074130D01*
X105173638Y-98098968D01*
X105163375Y-98099501D01*
X104999235Y-98099501D01*
X104941044Y-98080594D01*
X104905080Y-98031094D01*
X104902137Y-97981187D01*
X104907429Y-97954583D01*
X104907430Y-97942943D01*
X104908918Y-97938365D01*
X104908918Y-97265680D01*
X104904796Y-97252995D01*
X104900675Y-97250000D01*
X103706762Y-97250000D01*
X103694077Y-97254122D01*
X103691082Y-97258243D01*
X103691082Y-97933502D01*
X103692572Y-97942913D01*
X103692571Y-97954539D01*
X103695629Y-97969924D01*
X103688430Y-98030684D01*
X103646595Y-98075774D01*
X103558084Y-98124929D01*
X103445770Y-98223299D01*
X103420024Y-98257942D01*
X103373533Y-98320500D01*
X103356713Y-98343132D01*
X103294914Y-98479043D01*
X103263149Y-98624927D01*
X103262846Y-98774228D01*
X103294018Y-98920240D01*
X103296175Y-98925035D01*
X103347973Y-99040190D01*
X103351957Y-99050715D01*
X103352127Y-99051101D01*
X103353783Y-99056435D01*
X103354144Y-99057056D01*
X103357987Y-99061155D01*
X103361335Y-99065653D01*
X103360577Y-99066218D01*
X103372215Y-99083344D01*
X103377334Y-99094200D01*
X103383350Y-99110555D01*
X103392558Y-99144575D01*
X103395610Y-99161720D01*
X103396653Y-99173533D01*
X103395987Y-99183154D01*
X103396865Y-99183156D01*
X103396845Y-99194303D01*
X103394345Y-99205169D01*
X103397062Y-99217181D01*
X103399501Y-99239022D01*
X103399501Y-100760446D01*
X103396985Y-100782623D01*
X103394344Y-100794113D01*
X103396806Y-100804988D01*
X103396787Y-100816134D01*
X103396047Y-100816133D01*
X103396713Y-100826038D01*
X103395633Y-100838279D01*
X103392577Y-100855443D01*
X103383374Y-100889444D01*
X103377363Y-100905791D01*
X103372481Y-100916143D01*
X103360882Y-100933132D01*
X103361720Y-100933761D01*
X103358355Y-100938249D01*
X103354506Y-100942325D01*
X103354143Y-100942944D01*
X103352463Y-100948288D01*
X103352403Y-100948423D01*
X103348353Y-100959063D01*
X103296215Y-101074975D01*
X103296213Y-101074980D01*
X103294057Y-101079774D01*
X103262887Y-101225776D01*
X103263190Y-101375069D01*
X103294953Y-101520944D01*
X103297127Y-101525725D01*
X103297128Y-101525728D01*
X103308165Y-101550000D01*
X103356749Y-101656847D01*
X103445801Y-101776673D01*
X103449758Y-101780139D01*
X103449761Y-101780142D01*
X103537056Y-101856599D01*
X103558108Y-101875037D01*
X103562705Y-101877590D01*
X103681530Y-101943581D01*
X103688563Y-101947487D01*
X103688564Y-101947488D01*
X103688624Y-101947521D01*
X103688617Y-101947534D01*
X103733424Y-101986429D01*
X103747229Y-102046037D01*
X103744623Y-102060665D01*
X103742315Y-102065885D01*
X103739500Y-102090031D01*
X103739501Y-103609968D01*
X103739848Y-103612883D01*
X103739848Y-103612888D01*
X103741553Y-103627223D01*
X103742431Y-103634603D01*
X103785152Y-103730781D01*
X103859632Y-103805132D01*
X103867992Y-103808828D01*
X103897049Y-103821674D01*
X103942626Y-103862496D01*
X103955503Y-103922311D01*
X103945230Y-103957160D01*
X103940281Y-103966874D01*
X103919196Y-104100000D01*
X103920415Y-104107696D01*
X103937012Y-104212484D01*
X103940281Y-104233126D01*
X103943817Y-104240065D01*
X103943817Y-104240066D01*
X103965213Y-104282058D01*
X103974784Y-104342490D01*
X103947006Y-104397007D01*
X103892490Y-104424784D01*
X103832058Y-104415213D01*
X103790066Y-104393817D01*
X103790065Y-104393817D01*
X103783126Y-104390281D01*
X103775432Y-104389062D01*
X103775431Y-104389062D01*
X103657696Y-104370415D01*
X103650000Y-104369196D01*
X103642304Y-104370415D01*
X103524569Y-104389062D01*
X103524568Y-104389062D01*
X103516874Y-104390281D01*
X103509935Y-104393817D01*
X103509934Y-104393817D01*
X103403719Y-104447936D01*
X103403717Y-104447937D01*
X103396780Y-104451472D01*
X103301472Y-104546780D01*
X103297937Y-104553717D01*
X103297936Y-104553719D01*
X103256483Y-104635075D01*
X103240281Y-104666874D01*
X103219196Y-104800000D01*
X103233302Y-104889062D01*
X103240281Y-104933126D01*
X103237680Y-104933538D01*
X103237683Y-104982357D01*
X103201722Y-105031859D01*
X103143532Y-105050770D01*
X103085341Y-105031866D01*
X103073522Y-105021774D01*
X103003220Y-104951472D01*
X102996283Y-104947937D01*
X102996281Y-104947936D01*
X102890066Y-104893817D01*
X102890065Y-104893817D01*
X102883126Y-104890281D01*
X102875432Y-104889062D01*
X102875431Y-104889062D01*
X102757696Y-104870415D01*
X102750000Y-104869196D01*
X102742304Y-104870415D01*
X102624569Y-104889062D01*
X102624568Y-104889062D01*
X102616874Y-104890281D01*
X102609935Y-104893817D01*
X102609934Y-104893817D01*
X102503719Y-104947936D01*
X102503717Y-104947937D01*
X102496780Y-104951472D01*
X102401472Y-105046780D01*
X102397937Y-105053717D01*
X102397936Y-105053719D01*
X102346025Y-105155601D01*
X102340281Y-105166874D01*
X102339062Y-105174568D01*
X102339062Y-105174569D01*
X102332604Y-105215345D01*
X102319196Y-105300000D01*
X102330551Y-105371688D01*
X102331273Y-105376249D01*
X102321702Y-105436681D01*
X102278437Y-105479945D01*
X102218005Y-105489517D01*
X102163488Y-105461740D01*
X102153220Y-105451472D01*
X102146283Y-105447937D01*
X102146281Y-105447936D01*
X102040066Y-105393817D01*
X102040065Y-105393817D01*
X102033126Y-105390281D01*
X102025432Y-105389062D01*
X102025431Y-105389062D01*
X101907696Y-105370415D01*
X101900000Y-105369196D01*
X101892304Y-105370415D01*
X101774569Y-105389062D01*
X101774568Y-105389062D01*
X101766874Y-105390281D01*
X101759935Y-105393817D01*
X101759934Y-105393817D01*
X101653719Y-105447936D01*
X101653717Y-105447937D01*
X101646780Y-105451472D01*
X101551472Y-105546780D01*
X101547937Y-105553717D01*
X101547936Y-105553719D01*
X101536457Y-105576248D01*
X101490281Y-105666874D01*
X101489062Y-105674568D01*
X101489062Y-105674569D01*
X101480991Y-105725531D01*
X101469196Y-105800000D01*
X101473403Y-105826560D01*
X101488926Y-105924569D01*
X101490281Y-105933126D01*
X101493817Y-105940065D01*
X101493817Y-105940066D01*
X101511023Y-105973835D01*
X101551472Y-106053220D01*
X101555845Y-106057593D01*
X101574500Y-106115010D01*
X101574500Y-106195521D01*
X101574123Y-106204150D01*
X101570736Y-106242862D01*
X101572978Y-106251229D01*
X101580796Y-106280404D01*
X101582666Y-106288839D01*
X101585202Y-106303220D01*
X101589412Y-106327100D01*
X101593742Y-106334599D01*
X101595738Y-106340084D01*
X101598204Y-106345371D01*
X101600446Y-106353739D01*
X101621013Y-106383111D01*
X101622732Y-106385566D01*
X101627371Y-106392847D01*
X101646806Y-106426510D01*
X101668367Y-106444602D01*
X101676571Y-106451486D01*
X101682939Y-106457320D01*
X102005386Y-106779767D01*
X102021114Y-106800265D01*
X102389044Y-107437536D01*
X102401765Y-107497384D01*
X102376878Y-107553280D01*
X102348253Y-107575245D01*
X102337200Y-107580877D01*
X102303719Y-107597936D01*
X102303717Y-107597937D01*
X102296780Y-107601472D01*
X102201472Y-107696780D01*
X102197936Y-107703719D01*
X102193355Y-107710025D01*
X102191597Y-107708748D01*
X102156035Y-107744310D01*
X102095604Y-107753884D01*
X102041086Y-107726107D01*
X102025351Y-107705602D01*
X101744697Y-107219495D01*
X101671906Y-107093417D01*
X101664536Y-107085013D01*
X101639020Y-107055917D01*
X101639017Y-107055915D01*
X101632590Y-107048586D01*
X101621342Y-107043039D01*
X101569797Y-107017621D01*
X101561051Y-107013308D01*
X101551320Y-107012670D01*
X101532923Y-107011464D01*
X101481458Y-107008090D01*
X101472226Y-107011224D01*
X101472225Y-107011224D01*
X101429598Y-107025694D01*
X101424994Y-107027257D01*
X101420786Y-107029687D01*
X101420785Y-107029687D01*
X101332121Y-107080877D01*
X99312328Y-108247005D01*
X99308670Y-108250213D01*
X99274828Y-108279891D01*
X99274826Y-108279894D01*
X99267497Y-108286321D01*
X99232219Y-108357860D01*
X99227001Y-108437453D01*
X99246168Y-108493917D01*
X100465916Y-110606583D01*
X100469124Y-110610241D01*
X100498802Y-110644083D01*
X100498805Y-110644085D01*
X100505232Y-110651414D01*
X100576771Y-110686692D01*
X100586502Y-110687330D01*
X100599504Y-110688182D01*
X100656364Y-110691910D01*
X100665596Y-110688776D01*
X100665597Y-110688776D01*
X100708224Y-110674306D01*
X100708225Y-110674305D01*
X100712828Y-110672743D01*
X102825494Y-109452995D01*
X102829148Y-109449791D01*
X102829153Y-109449787D01*
X102834259Y-109445308D01*
X102890474Y-109421153D01*
X102950151Y-109434654D01*
X102985273Y-109470237D01*
X103103928Y-109675752D01*
X103116650Y-109735600D01*
X103091764Y-109791496D01*
X103067692Y-109810989D01*
X101179205Y-110901308D01*
X101158731Y-110910220D01*
X101158140Y-110910401D01*
X101158138Y-110910402D01*
X101147479Y-110913671D01*
X101139291Y-110921240D01*
X101129917Y-110926631D01*
X101121282Y-110932612D01*
X100915933Y-111035747D01*
X100905361Y-111040307D01*
X100664922Y-111127824D01*
X100653893Y-111131126D01*
X100404920Y-111190136D01*
X100393582Y-111192136D01*
X100139428Y-111221843D01*
X100127935Y-111222512D01*
X99872065Y-111222512D01*
X99860572Y-111221843D01*
X99606418Y-111192136D01*
X99595080Y-111190136D01*
X99346108Y-111131126D01*
X99335079Y-111127824D01*
X99094640Y-111040307D01*
X99084068Y-111035747D01*
X98879180Y-110932844D01*
X98870991Y-110927150D01*
X98870950Y-110927220D01*
X98861304Y-110921628D01*
X98853143Y-110914031D01*
X98841453Y-110910401D01*
X98841398Y-110910384D01*
X98821254Y-110901574D01*
X98820794Y-110901308D01*
X96312242Y-109452995D01*
X96075578Y-109316357D01*
X96034637Y-109270887D01*
X96028241Y-109210037D01*
X96058834Y-109157049D01*
X96081293Y-109141829D01*
X96090223Y-109137426D01*
X96090227Y-109137423D01*
X96098967Y-109133113D01*
X96138283Y-109088282D01*
X96605008Y-108279891D01*
X96655601Y-108192261D01*
X96655601Y-108192260D01*
X96658031Y-108188052D01*
X96677198Y-108131588D01*
X96675879Y-108111464D01*
X96690940Y-108052161D01*
X96730881Y-108016199D01*
X96740220Y-108011593D01*
X96740222Y-108011592D01*
X96748967Y-108007279D01*
X96788283Y-107962448D01*
X97238656Y-107182379D01*
X97305601Y-107066427D01*
X97305601Y-107066426D01*
X97308031Y-107062218D01*
X97312054Y-107050366D01*
X97324064Y-107014987D01*
X97324064Y-107014986D01*
X97327198Y-107005754D01*
X97321981Y-106926161D01*
X97317069Y-106916199D01*
X97291016Y-106863368D01*
X97286703Y-106854622D01*
X97268696Y-106838831D01*
X97245526Y-106818511D01*
X97245524Y-106818510D01*
X97241871Y-106815306D01*
X97127609Y-106749337D01*
X97086671Y-106703870D01*
X97080275Y-106643020D01*
X97091582Y-106617018D01*
X97090925Y-106616712D01*
X97094585Y-106608863D01*
X97099554Y-106601767D01*
X97101796Y-106593400D01*
X97104262Y-106588112D01*
X97106258Y-106582627D01*
X97110588Y-106575128D01*
X97113195Y-106560346D01*
X97117334Y-106536867D01*
X97119204Y-106528432D01*
X97127022Y-106499257D01*
X97129264Y-106490890D01*
X97125877Y-106452174D01*
X97125500Y-106443546D01*
X97125500Y-106365010D01*
X97144155Y-106307593D01*
X97148528Y-106303220D01*
X97201202Y-106199841D01*
X97206183Y-106190066D01*
X97206183Y-106190065D01*
X97209719Y-106183126D01*
X97216410Y-106140884D01*
X97229585Y-106057696D01*
X97230804Y-106050000D01*
X97221570Y-105991698D01*
X97210938Y-105924569D01*
X97210938Y-105924568D01*
X97209719Y-105916874D01*
X97206183Y-105909934D01*
X97152064Y-105803719D01*
X97152063Y-105803717D01*
X97148528Y-105796780D01*
X97053220Y-105701472D01*
X97046283Y-105697937D01*
X97046281Y-105697936D01*
X96940066Y-105643817D01*
X96940065Y-105643817D01*
X96933126Y-105640281D01*
X96925432Y-105639062D01*
X96925431Y-105639062D01*
X96807696Y-105620415D01*
X96800000Y-105619196D01*
X96792304Y-105620415D01*
X96674569Y-105639062D01*
X96674568Y-105639062D01*
X96666874Y-105640281D01*
X96659935Y-105643817D01*
X96659934Y-105643817D01*
X96553719Y-105697936D01*
X96553717Y-105697937D01*
X96546780Y-105701472D01*
X96451472Y-105796780D01*
X96447937Y-105803717D01*
X96447936Y-105803719D01*
X96393817Y-105909934D01*
X96390281Y-105916874D01*
X96389062Y-105924568D01*
X96389062Y-105924569D01*
X96378430Y-105991698D01*
X96369196Y-106050000D01*
X96376508Y-106096163D01*
X96382307Y-106132779D01*
X96372736Y-106193211D01*
X96329471Y-106236476D01*
X96269039Y-106246047D01*
X96235026Y-106234003D01*
X95912840Y-106047989D01*
X95912838Y-106047988D01*
X95908629Y-106045558D01*
X95899043Y-106042304D01*
X95861398Y-106029525D01*
X95861396Y-106029525D01*
X95852164Y-106026391D01*
X95800456Y-106029781D01*
X95782302Y-106030971D01*
X95772571Y-106031609D01*
X95701033Y-106066887D01*
X95661717Y-106111718D01*
X95141969Y-107011948D01*
X95140407Y-107016551D01*
X95140406Y-107016552D01*
X95131637Y-107042386D01*
X95122802Y-107068412D01*
X95123788Y-107083448D01*
X95124121Y-107088536D01*
X95109060Y-107147839D01*
X95069119Y-107183801D01*
X95059780Y-107188407D01*
X95059778Y-107188408D01*
X95051033Y-107192721D01*
X95044605Y-107200051D01*
X95014925Y-107233893D01*
X95014921Y-107233898D01*
X95011717Y-107237552D01*
X95009285Y-107241764D01*
X95009283Y-107241767D01*
X94917288Y-107401107D01*
X94833866Y-107545599D01*
X94819366Y-107570713D01*
X94773897Y-107611654D01*
X94713047Y-107618050D01*
X94663626Y-107591217D01*
X94593020Y-107520611D01*
X94565243Y-107466094D01*
X94577288Y-107401107D01*
X94758031Y-107088052D01*
X94761395Y-107078142D01*
X94774064Y-107040821D01*
X94774064Y-107040820D01*
X94777198Y-107031588D01*
X94775879Y-107011464D01*
X94790940Y-106952161D01*
X94830881Y-106916199D01*
X94840220Y-106911593D01*
X94840222Y-106911592D01*
X94848967Y-106907279D01*
X94888283Y-106862448D01*
X95304878Y-106140884D01*
X95405601Y-105966427D01*
X95405601Y-105966426D01*
X95408031Y-105962218D01*
X95416420Y-105937504D01*
X95424064Y-105914987D01*
X95424064Y-105914986D01*
X95427198Y-105905754D01*
X95421981Y-105826161D01*
X95414542Y-105811074D01*
X95391016Y-105763368D01*
X95386703Y-105754622D01*
X95353531Y-105725531D01*
X95345524Y-105718509D01*
X95345521Y-105718507D01*
X95341871Y-105715306D01*
X95205487Y-105636565D01*
X95164546Y-105591095D01*
X95158150Y-105530245D01*
X95158660Y-105528468D01*
X95160588Y-105525128D01*
X95167337Y-105486854D01*
X95169206Y-105478427D01*
X95177022Y-105449256D01*
X95177022Y-105449253D01*
X95179263Y-105440890D01*
X95175877Y-105402186D01*
X95175500Y-105393558D01*
X95175500Y-105265010D01*
X95194155Y-105207593D01*
X95198528Y-105203220D01*
X95243848Y-105114274D01*
X95256183Y-105090066D01*
X95256183Y-105090065D01*
X95259719Y-105083126D01*
X95268768Y-105025996D01*
X98895814Y-105025996D01*
X98896032Y-105030707D01*
X98896032Y-105030708D01*
X98904333Y-105210046D01*
X98905523Y-105235767D01*
X98911172Y-105259206D01*
X98952879Y-105432262D01*
X98954724Y-105439918D01*
X98956674Y-105444206D01*
X98956674Y-105444207D01*
X98958970Y-105449256D01*
X99041640Y-105631081D01*
X99163137Y-105802360D01*
X99204692Y-105842140D01*
X99311427Y-105944317D01*
X99311431Y-105944320D01*
X99314831Y-105947575D01*
X99491246Y-106061485D01*
X99495623Y-106063249D01*
X99671233Y-106134022D01*
X99686019Y-106139981D01*
X99690643Y-106140884D01*
X99888627Y-106179548D01*
X99888634Y-106179549D01*
X99892122Y-106180230D01*
X99897643Y-106180500D01*
X100052469Y-106180500D01*
X100148540Y-106171334D01*
X100204353Y-106166009D01*
X100204355Y-106166009D01*
X100209046Y-106165561D01*
X100410549Y-106106447D01*
X100597239Y-106010295D01*
X100735204Y-105901922D01*
X100758672Y-105883488D01*
X100758673Y-105883487D01*
X100762379Y-105880576D01*
X100886393Y-105737663D01*
X100896921Y-105725531D01*
X100896922Y-105725530D01*
X100900010Y-105721971D01*
X101005166Y-105540201D01*
X101026090Y-105479945D01*
X101072509Y-105346273D01*
X101072510Y-105346271D01*
X101074053Y-105341826D01*
X101098378Y-105174064D01*
X101103509Y-105138674D01*
X101103509Y-105138673D01*
X101104186Y-105134004D01*
X101096811Y-104974661D01*
X101094695Y-104928941D01*
X101094695Y-104928940D01*
X101094477Y-104924233D01*
X101070458Y-104824569D01*
X101046381Y-104724665D01*
X101046379Y-104724660D01*
X101045276Y-104720082D01*
X100958360Y-104528919D01*
X100836863Y-104357640D01*
X100729025Y-104254408D01*
X100688573Y-104215683D01*
X100688569Y-104215680D01*
X100685169Y-104212425D01*
X100508754Y-104098515D01*
X100493343Y-104092304D01*
X100318356Y-104021782D01*
X100318354Y-104021781D01*
X100313981Y-104020019D01*
X100297108Y-104016724D01*
X100111373Y-103980452D01*
X100111366Y-103980451D01*
X100107878Y-103979770D01*
X100102357Y-103979500D01*
X99947531Y-103979500D01*
X99851460Y-103988666D01*
X99795647Y-103993991D01*
X99795645Y-103993991D01*
X99790954Y-103994439D01*
X99589451Y-104053553D01*
X99402761Y-104149705D01*
X99237621Y-104279424D01*
X99158663Y-104370415D01*
X99104730Y-104432567D01*
X99099990Y-104438029D01*
X98994834Y-104619799D01*
X98993290Y-104624244D01*
X98993290Y-104624245D01*
X98929586Y-104807696D01*
X98925947Y-104818174D01*
X98925271Y-104822836D01*
X98898415Y-105008060D01*
X98895814Y-105025996D01*
X95268768Y-105025996D01*
X95279585Y-104957696D01*
X95279585Y-104957695D01*
X95280804Y-104950000D01*
X95271355Y-104890343D01*
X95260938Y-104824569D01*
X95260938Y-104824568D01*
X95259719Y-104816874D01*
X95247200Y-104792304D01*
X95202064Y-104703719D01*
X95202063Y-104703717D01*
X95198528Y-104696780D01*
X95103220Y-104601472D01*
X95096283Y-104597937D01*
X95096281Y-104597936D01*
X94990066Y-104543817D01*
X94990065Y-104543817D01*
X94983126Y-104540281D01*
X94975432Y-104539062D01*
X94975431Y-104539062D01*
X94857696Y-104520415D01*
X94850000Y-104519196D01*
X94842304Y-104520415D01*
X94724569Y-104539062D01*
X94724568Y-104539062D01*
X94716874Y-104540281D01*
X94709935Y-104543817D01*
X94709934Y-104543817D01*
X94603719Y-104597936D01*
X94603717Y-104597937D01*
X94596780Y-104601472D01*
X94501472Y-104696780D01*
X94497937Y-104703717D01*
X94497936Y-104703719D01*
X94452800Y-104792304D01*
X94440281Y-104816874D01*
X94439062Y-104824568D01*
X94439062Y-104824569D01*
X94428645Y-104890343D01*
X94419196Y-104950000D01*
X94427275Y-105001007D01*
X94417704Y-105061437D01*
X94374440Y-105104702D01*
X94314008Y-105114274D01*
X94279994Y-105102230D01*
X94012840Y-104947989D01*
X94012838Y-104947988D01*
X94008629Y-104945558D01*
X93999043Y-104942304D01*
X93961398Y-104929525D01*
X93961396Y-104929525D01*
X93952164Y-104926391D01*
X93900456Y-104929781D01*
X93882302Y-104930971D01*
X93872571Y-104931609D01*
X93801033Y-104966887D01*
X93761717Y-105011718D01*
X93395751Y-105645590D01*
X93247758Y-105901922D01*
X93241969Y-105911948D01*
X93240407Y-105916551D01*
X93240406Y-105916552D01*
X93227858Y-105953517D01*
X93191249Y-106002542D01*
X93132816Y-106020686D01*
X93074877Y-106001018D01*
X93064108Y-105991698D01*
X92416853Y-105344444D01*
X92389076Y-105289927D01*
X92398647Y-105229495D01*
X92441912Y-105186230D01*
X92472846Y-105176625D01*
X92481588Y-105177198D01*
X92490820Y-105174064D01*
X92490821Y-105174064D01*
X92533448Y-105159594D01*
X92533449Y-105159593D01*
X92538052Y-105158031D01*
X92587830Y-105129292D01*
X92886286Y-104956978D01*
X93438282Y-104638283D01*
X93483113Y-104598967D01*
X93518391Y-104527429D01*
X93523609Y-104447836D01*
X93518212Y-104431935D01*
X93506006Y-104395978D01*
X93506005Y-104395977D01*
X93504442Y-104391371D01*
X93501497Y-104386269D01*
X93321029Y-104073690D01*
X93308308Y-104013842D01*
X93333195Y-103957946D01*
X93386183Y-103927353D01*
X93422251Y-103926409D01*
X93450000Y-103930804D01*
X93457696Y-103929585D01*
X93575431Y-103910938D01*
X93575432Y-103910938D01*
X93583126Y-103909719D01*
X93608650Y-103896714D01*
X93696281Y-103852064D01*
X93696283Y-103852063D01*
X93703220Y-103848528D01*
X93798528Y-103753220D01*
X93806671Y-103737240D01*
X93856183Y-103640066D01*
X93856183Y-103640065D01*
X93859719Y-103633126D01*
X93862925Y-103612888D01*
X93872287Y-103553775D01*
X93900064Y-103499258D01*
X93954581Y-103471481D01*
X94015013Y-103481052D01*
X94040072Y-103499258D01*
X94080861Y-103540047D01*
X94084399Y-103542524D01*
X94084401Y-103542526D01*
X94263721Y-103668086D01*
X94267266Y-103670568D01*
X94473504Y-103766739D01*
X94562563Y-103790602D01*
X94689131Y-103824516D01*
X94689133Y-103824516D01*
X94693308Y-103825635D01*
X94920000Y-103845468D01*
X95146692Y-103825635D01*
X95150867Y-103824516D01*
X95150869Y-103824516D01*
X95277437Y-103790602D01*
X95366496Y-103766739D01*
X95572734Y-103670568D01*
X95576279Y-103668086D01*
X95755599Y-103542526D01*
X95755601Y-103542524D01*
X95759139Y-103540047D01*
X95920047Y-103379139D01*
X96038313Y-103210237D01*
X96048086Y-103196279D01*
X96048087Y-103196277D01*
X96050568Y-103192734D01*
X96146739Y-102986496D01*
X96205635Y-102766692D01*
X96225468Y-102540000D01*
X96205635Y-102313308D01*
X96195505Y-102275500D01*
X96147857Y-102097677D01*
X96146739Y-102093504D01*
X96050568Y-101887266D01*
X96043793Y-101877590D01*
X95922526Y-101704401D01*
X95922524Y-101704399D01*
X95920047Y-101700861D01*
X95759139Y-101539953D01*
X95743103Y-101528724D01*
X95576279Y-101411914D01*
X95576277Y-101411913D01*
X95572734Y-101409432D01*
X95366496Y-101313261D01*
X95268548Y-101287016D01*
X95150869Y-101255484D01*
X95150867Y-101255484D01*
X95146692Y-101254365D01*
X94920000Y-101234532D01*
X94693308Y-101254365D01*
X94689133Y-101255484D01*
X94689131Y-101255484D01*
X94571452Y-101287016D01*
X94473504Y-101313261D01*
X94267266Y-101409432D01*
X94263723Y-101411913D01*
X94263721Y-101411914D01*
X94096898Y-101528724D01*
X94080861Y-101539953D01*
X93919953Y-101700861D01*
X93917476Y-101704399D01*
X93917474Y-101704401D01*
X93796207Y-101877590D01*
X93789432Y-101887266D01*
X93693261Y-102093504D01*
X93651208Y-102250450D01*
X93637630Y-102301123D01*
X93604306Y-102352437D01*
X93542003Y-102374500D01*
X92749500Y-102374500D01*
X92691309Y-102355593D01*
X92655345Y-102306093D01*
X92650500Y-102275500D01*
X92650500Y-101985042D01*
X92669407Y-101926851D01*
X92718907Y-101890887D01*
X92780093Y-101890887D01*
X92796432Y-101899211D01*
X92796780Y-101898528D01*
X92892960Y-101947534D01*
X92916874Y-101959719D01*
X92924568Y-101960938D01*
X92924569Y-101960938D01*
X93042304Y-101979585D01*
X93050000Y-101980804D01*
X93057696Y-101979585D01*
X93175431Y-101960938D01*
X93175432Y-101960938D01*
X93183126Y-101959719D01*
X93190066Y-101956183D01*
X93296281Y-101902064D01*
X93296283Y-101902063D01*
X93303220Y-101898528D01*
X93398528Y-101803220D01*
X93410750Y-101779234D01*
X93456183Y-101690066D01*
X93456183Y-101690065D01*
X93459719Y-101683126D01*
X93480804Y-101550000D01*
X93471989Y-101494343D01*
X93460938Y-101424569D01*
X93460938Y-101424568D01*
X93459719Y-101416874D01*
X93450182Y-101398157D01*
X93402064Y-101303719D01*
X93402063Y-101303717D01*
X93398528Y-101296780D01*
X93303220Y-101201472D01*
X93296283Y-101197937D01*
X93296281Y-101197936D01*
X93190066Y-101143817D01*
X93190065Y-101143817D01*
X93183126Y-101140281D01*
X93175432Y-101139062D01*
X93175431Y-101139062D01*
X93057696Y-101120415D01*
X93050000Y-101119196D01*
X93042304Y-101120415D01*
X92924569Y-101139062D01*
X92924568Y-101139062D01*
X92916874Y-101140281D01*
X92909935Y-101143817D01*
X92909934Y-101143817D01*
X92877386Y-101160401D01*
X92796780Y-101201472D01*
X92795524Y-101199006D01*
X92749487Y-101213958D01*
X92691299Y-101195043D01*
X92655341Y-101145538D01*
X92650500Y-101114958D01*
X92650500Y-100780252D01*
X92638867Y-100721769D01*
X92594552Y-100655448D01*
X92528231Y-100611133D01*
X92518668Y-100609231D01*
X92518666Y-100609230D01*
X92495995Y-100604721D01*
X92469748Y-100599500D01*
X91430252Y-100599500D01*
X91404005Y-100604721D01*
X91381334Y-100609230D01*
X91381332Y-100609231D01*
X91371769Y-100611133D01*
X91355002Y-100622337D01*
X91296116Y-100638946D01*
X91244998Y-100622337D01*
X91228231Y-100611133D01*
X91218668Y-100609231D01*
X91218666Y-100609230D01*
X91195995Y-100604721D01*
X91169748Y-100599500D01*
X91074500Y-100599500D01*
X91016309Y-100580593D01*
X90980345Y-100531093D01*
X90975500Y-100500500D01*
X90975500Y-100449500D01*
X90994407Y-100391309D01*
X91043907Y-100355345D01*
X91074500Y-100350500D01*
X91169748Y-100350500D01*
X91197072Y-100345065D01*
X91218666Y-100340770D01*
X91218668Y-100340769D01*
X91228231Y-100338867D01*
X91244998Y-100327663D01*
X91303884Y-100311054D01*
X91355002Y-100327663D01*
X91371769Y-100338867D01*
X91381332Y-100340769D01*
X91381334Y-100340770D01*
X91402928Y-100345065D01*
X91430252Y-100350500D01*
X92469748Y-100350500D01*
X92497072Y-100345065D01*
X92518666Y-100340770D01*
X92518668Y-100340769D01*
X92528231Y-100338867D01*
X92594552Y-100294552D01*
X92638867Y-100228231D01*
X92650500Y-100169748D01*
X92650500Y-100047236D01*
X97744958Y-100047236D01*
X97745244Y-100050504D01*
X97745244Y-100050508D01*
X97752398Y-100132274D01*
X97771014Y-100345065D01*
X97798242Y-100466874D01*
X97830488Y-100611133D01*
X97836232Y-100636832D01*
X97837367Y-100639916D01*
X97837367Y-100639917D01*
X97843081Y-100655448D01*
X97939464Y-100917410D01*
X97944537Y-100927031D01*
X98071560Y-101167952D01*
X98078898Y-101181870D01*
X98080800Y-101184546D01*
X98080801Y-101184548D01*
X98153622Y-101287016D01*
X98252084Y-101425565D01*
X98455979Y-101644216D01*
X98458515Y-101646299D01*
X98458516Y-101646300D01*
X98684461Y-101831894D01*
X98684466Y-101831898D01*
X98687000Y-101833979D01*
X98779274Y-101891191D01*
X98905787Y-101969632D01*
X98941090Y-101991521D01*
X98944087Y-101992868D01*
X98944091Y-101992870D01*
X99048264Y-102039687D01*
X99213783Y-102114074D01*
X99500289Y-102199485D01*
X99503530Y-102199998D01*
X99503533Y-102199999D01*
X99591913Y-102213997D01*
X99795575Y-102246254D01*
X99866545Y-102249477D01*
X99887974Y-102250450D01*
X99887980Y-102250450D01*
X99889078Y-102250500D01*
X100075834Y-102250500D01*
X100298309Y-102235723D01*
X100482681Y-102198547D01*
X100588150Y-102177281D01*
X100588155Y-102177280D01*
X100591377Y-102176630D01*
X100651645Y-102155878D01*
X100870944Y-102080368D01*
X100870950Y-102080365D01*
X100874056Y-102079296D01*
X100887075Y-102072777D01*
X101025591Y-102003413D01*
X101141378Y-101945431D01*
X101388647Y-101777387D01*
X101548103Y-101634818D01*
X101609062Y-101580315D01*
X101609064Y-101580313D01*
X101611520Y-101578117D01*
X101613661Y-101575619D01*
X101613665Y-101575615D01*
X101803942Y-101353614D01*
X101803946Y-101353608D01*
X101806079Y-101351120D01*
X101968908Y-101100386D01*
X102057252Y-100914333D01*
X102095738Y-100833283D01*
X102095740Y-100833278D01*
X102097145Y-100830319D01*
X102188538Y-100545664D01*
X102227762Y-100327664D01*
X102240897Y-100254663D01*
X102240897Y-100254661D01*
X102241480Y-100251422D01*
X102255042Y-99952764D01*
X102228986Y-99654935D01*
X102184147Y-99454336D01*
X102164485Y-99366375D01*
X102164484Y-99366373D01*
X102163768Y-99363168D01*
X102060536Y-99082590D01*
X101998516Y-98964958D01*
X101922632Y-98821031D01*
X101922629Y-98821026D01*
X101921102Y-98818130D01*
X101893555Y-98779367D01*
X101749822Y-98577117D01*
X101747916Y-98574435D01*
X101544021Y-98355784D01*
X101432361Y-98264065D01*
X101315539Y-98168106D01*
X101315534Y-98168102D01*
X101313000Y-98166021D01*
X101131070Y-98053220D01*
X101061707Y-98010213D01*
X101061705Y-98010212D01*
X101058910Y-98008479D01*
X101055913Y-98007132D01*
X101055909Y-98007130D01*
X100878107Y-97927223D01*
X100786217Y-97885926D01*
X100499711Y-97800515D01*
X100496470Y-97800002D01*
X100496467Y-97800001D01*
X100408087Y-97786003D01*
X100204425Y-97753746D01*
X100133455Y-97750523D01*
X100112026Y-97749550D01*
X100112020Y-97749550D01*
X100110922Y-97749500D01*
X99924166Y-97749500D01*
X99701691Y-97764277D01*
X99562693Y-97792304D01*
X99411850Y-97822719D01*
X99411845Y-97822720D01*
X99408623Y-97823370D01*
X99405506Y-97824443D01*
X99405507Y-97824443D01*
X99129056Y-97919632D01*
X99129050Y-97919635D01*
X99125944Y-97920704D01*
X99123005Y-97922176D01*
X99123002Y-97922177D01*
X99059537Y-97953958D01*
X98858622Y-98054569D01*
X98611353Y-98222613D01*
X98471206Y-98347918D01*
X98403235Y-98408691D01*
X98388480Y-98421883D01*
X98386339Y-98424381D01*
X98386335Y-98424385D01*
X98196058Y-98646386D01*
X98196054Y-98646392D01*
X98193921Y-98648880D01*
X98031092Y-98899614D01*
X97988619Y-98989062D01*
X97910773Y-99153006D01*
X97902855Y-99169681D01*
X97811462Y-99454336D01*
X97758520Y-99748578D01*
X97744958Y-100047236D01*
X92650500Y-100047236D01*
X92650500Y-99835042D01*
X92669407Y-99776851D01*
X92718907Y-99740887D01*
X92780093Y-99740887D01*
X92796432Y-99749211D01*
X92796780Y-99748528D01*
X92916874Y-99809719D01*
X92924568Y-99810938D01*
X92924569Y-99810938D01*
X93042304Y-99829585D01*
X93050000Y-99830804D01*
X93057696Y-99829585D01*
X93175431Y-99810938D01*
X93175432Y-99810938D01*
X93183126Y-99809719D01*
X93190066Y-99806183D01*
X93296281Y-99752064D01*
X93296283Y-99752063D01*
X93303220Y-99748528D01*
X93398528Y-99653220D01*
X93459719Y-99533126D01*
X93480804Y-99400000D01*
X93459719Y-99266874D01*
X93439994Y-99228161D01*
X93402064Y-99153719D01*
X93402063Y-99153717D01*
X93398528Y-99146780D01*
X93303220Y-99051472D01*
X93296283Y-99047937D01*
X93296281Y-99047936D01*
X93190066Y-98993817D01*
X93190065Y-98993817D01*
X93183126Y-98990281D01*
X93175432Y-98989062D01*
X93175431Y-98989062D01*
X93057696Y-98970415D01*
X93050000Y-98969196D01*
X93042304Y-98970415D01*
X92924569Y-98989062D01*
X92924568Y-98989062D01*
X92916874Y-98990281D01*
X92909935Y-98993817D01*
X92909934Y-98993817D01*
X92818922Y-99040190D01*
X92796780Y-99051472D01*
X92795524Y-99049006D01*
X92749487Y-99063958D01*
X92691299Y-99045043D01*
X92655341Y-98995538D01*
X92650500Y-98964958D01*
X92650500Y-98630252D01*
X92638867Y-98571769D01*
X92594552Y-98505448D01*
X92528231Y-98461133D01*
X92518668Y-98459231D01*
X92518666Y-98459230D01*
X92495995Y-98454721D01*
X92469748Y-98449500D01*
X92186940Y-98449500D01*
X92128749Y-98430593D01*
X92092785Y-98381093D01*
X92092785Y-98319907D01*
X92130159Y-98269402D01*
X92132552Y-98267726D01*
X92140404Y-98264065D01*
X92218865Y-98185604D01*
X92273382Y-98157827D01*
X92333814Y-98167398D01*
X92371357Y-98186527D01*
X92416874Y-98209719D01*
X92424568Y-98210938D01*
X92424569Y-98210938D01*
X92542304Y-98229585D01*
X92550000Y-98230804D01*
X92557696Y-98229585D01*
X92675431Y-98210938D01*
X92675432Y-98210938D01*
X92683126Y-98209719D01*
X92728643Y-98186527D01*
X92796281Y-98152064D01*
X92796283Y-98152063D01*
X92803220Y-98148528D01*
X92898528Y-98053220D01*
X92909962Y-98030781D01*
X92956183Y-97940066D01*
X92956183Y-97940065D01*
X92959719Y-97933126D01*
X92961687Y-97920704D01*
X92979585Y-97807696D01*
X92980804Y-97800000D01*
X92959719Y-97666874D01*
X92914907Y-97578925D01*
X92902064Y-97553719D01*
X92902063Y-97553717D01*
X92898528Y-97546780D01*
X92803220Y-97451472D01*
X92796283Y-97447937D01*
X92796281Y-97447936D01*
X92690066Y-97393817D01*
X92690065Y-97393817D01*
X92683126Y-97390281D01*
X92675432Y-97389062D01*
X92675431Y-97389062D01*
X92557696Y-97370415D01*
X92550000Y-97369196D01*
X92542304Y-97370415D01*
X92424569Y-97389062D01*
X92424568Y-97389062D01*
X92416874Y-97390281D01*
X92409935Y-97393817D01*
X92409934Y-97393817D01*
X92333814Y-97432602D01*
X92273382Y-97442173D01*
X92218865Y-97414396D01*
X92140404Y-97335935D01*
X92132556Y-97332275D01*
X92132554Y-97332274D01*
X92040042Y-97289135D01*
X92040041Y-97289135D01*
X92033173Y-97285932D01*
X91984316Y-97279500D01*
X91635684Y-97279500D01*
X91586827Y-97285932D01*
X91579959Y-97289135D01*
X91579958Y-97289135D01*
X91487446Y-97332274D01*
X91487444Y-97332275D01*
X91479596Y-97335935D01*
X91395935Y-97419596D01*
X91389723Y-97432919D01*
X91347995Y-97477664D01*
X91287933Y-97489338D01*
X91232481Y-97463479D01*
X91210278Y-97432920D01*
X91204065Y-97419596D01*
X91120404Y-97335935D01*
X91112556Y-97332275D01*
X91112554Y-97332274D01*
X91020042Y-97289135D01*
X91020041Y-97289135D01*
X91013173Y-97285932D01*
X90964316Y-97279500D01*
X90615684Y-97279500D01*
X90566827Y-97285932D01*
X90559959Y-97289135D01*
X90559958Y-97289135D01*
X90467446Y-97332274D01*
X90467444Y-97332275D01*
X90459596Y-97335935D01*
X90375935Y-97419596D01*
X90372276Y-97427443D01*
X90372274Y-97427446D01*
X90340965Y-97494589D01*
X90325932Y-97526827D01*
X90319500Y-97575684D01*
X90319500Y-98024316D01*
X90323208Y-98052478D01*
X90323653Y-98055862D01*
X90324500Y-98068784D01*
X90324500Y-98350500D01*
X90305593Y-98408691D01*
X90256093Y-98444655D01*
X90225500Y-98449500D01*
X90130252Y-98449500D01*
X90104005Y-98454721D01*
X90081334Y-98459230D01*
X90081332Y-98459231D01*
X90071769Y-98461133D01*
X90063661Y-98466550D01*
X90063660Y-98466551D01*
X90054500Y-98472672D01*
X89995612Y-98489280D01*
X89938208Y-98468102D01*
X89904216Y-98417228D01*
X89900499Y-98390356D01*
X89900499Y-97180747D01*
X96616504Y-97180747D01*
X96617300Y-97185778D01*
X96618130Y-97186608D01*
X96624725Y-97192141D01*
X96803972Y-97317652D01*
X96811442Y-97321964D01*
X97009755Y-97414439D01*
X97017848Y-97417385D01*
X97229218Y-97474022D01*
X97237706Y-97475518D01*
X97455691Y-97494589D01*
X97464309Y-97494589D01*
X97682294Y-97475518D01*
X97690782Y-97474022D01*
X97902152Y-97417385D01*
X97910245Y-97414439D01*
X98108558Y-97321964D01*
X98116028Y-97317652D01*
X98295275Y-97192141D01*
X98298076Y-97189791D01*
X98303496Y-97179153D01*
X98302700Y-97174122D01*
X98162898Y-97034320D01*
X103691082Y-97034320D01*
X103695204Y-97047005D01*
X103699325Y-97050000D01*
X104234320Y-97050000D01*
X104247005Y-97045878D01*
X104250000Y-97041757D01*
X104250000Y-97034320D01*
X104450000Y-97034320D01*
X104454122Y-97047005D01*
X104458243Y-97050000D01*
X104893238Y-97050000D01*
X104905923Y-97045878D01*
X104908918Y-97041757D01*
X104908918Y-96386483D01*
X104907429Y-96377081D01*
X104907429Y-96365450D01*
X104894759Y-96301737D01*
X104892766Y-96295167D01*
X104889522Y-96289097D01*
X104853437Y-96235091D01*
X104839905Y-96221559D01*
X104785907Y-96185480D01*
X104779828Y-96182230D01*
X104773251Y-96180236D01*
X104709582Y-96167571D01*
X104697943Y-96167570D01*
X104693365Y-96166082D01*
X104465680Y-96166082D01*
X104452995Y-96170204D01*
X104450000Y-96174325D01*
X104450000Y-97034320D01*
X104250000Y-97034320D01*
X104250000Y-96181762D01*
X104245878Y-96169077D01*
X104241757Y-96166082D01*
X104211498Y-96166082D01*
X104202087Y-96167572D01*
X104190462Y-96167571D01*
X104126763Y-96180234D01*
X104120168Y-96182233D01*
X104114090Y-96185482D01*
X104060073Y-96221580D01*
X104051852Y-96229802D01*
X104047551Y-96231994D01*
X103760379Y-96519166D01*
X103754777Y-96526877D01*
X103746547Y-96535108D01*
X103710464Y-96589124D01*
X103707236Y-96595163D01*
X103705242Y-96601737D01*
X103692572Y-96665415D01*
X103692571Y-96677057D01*
X103691082Y-96681638D01*
X103691082Y-97034320D01*
X98162898Y-97034320D01*
X97471086Y-96342507D01*
X97459203Y-96336453D01*
X97454172Y-96337249D01*
X96622558Y-97168864D01*
X96616504Y-97180747D01*
X89900499Y-97180747D01*
X89900499Y-95450912D01*
X89903017Y-95428726D01*
X89903062Y-95428531D01*
X89905655Y-95417254D01*
X89903194Y-95406378D01*
X89903213Y-95395560D01*
X89902351Y-95385093D01*
X89902383Y-95384555D01*
X89913517Y-95193392D01*
X89915713Y-95155700D01*
X89917049Y-95144266D01*
X89959065Y-94905978D01*
X89961483Y-94892266D01*
X89964136Y-94881071D01*
X89964138Y-94881067D01*
X89999116Y-94764233D01*
X90037525Y-94635940D01*
X90041463Y-94625122D01*
X90142807Y-94390182D01*
X90147973Y-94379894D01*
X90244978Y-94211876D01*
X90275919Y-94158285D01*
X90282242Y-94148672D01*
X90286166Y-94143402D01*
X90394957Y-93997271D01*
X90435040Y-93943431D01*
X90442440Y-93934612D01*
X90618035Y-93748493D01*
X90626399Y-93740601D01*
X90822430Y-93576112D01*
X90831656Y-93569245D01*
X91023222Y-93443251D01*
X91032236Y-93439010D01*
X91032195Y-93438938D01*
X91041860Y-93433380D01*
X91052518Y-93430112D01*
X91061549Y-93421764D01*
X91079249Y-93408726D01*
X93368286Y-92087149D01*
X93428134Y-92074428D01*
X93484030Y-92099315D01*
G37*
%TD.AperFunction*%
%TA.AperFunction,Conductor*%
G36*
X100139427Y-88618618D02*
G01*
X100393584Y-88648326D01*
X100404913Y-88650324D01*
X100653898Y-88709334D01*
X100664915Y-88712632D01*
X100905375Y-88800152D01*
X100915946Y-88804713D01*
X101120817Y-88907604D01*
X101129014Y-88913302D01*
X101129054Y-88913233D01*
X101138701Y-88918825D01*
X101146860Y-88926420D01*
X101157505Y-88929725D01*
X101157508Y-88929727D01*
X101158606Y-88930068D01*
X101178750Y-88938878D01*
X108920292Y-93408461D01*
X108938241Y-93421730D01*
X108946860Y-93429753D01*
X108957505Y-93433058D01*
X108966872Y-93438488D01*
X108976363Y-93442972D01*
X109168341Y-93569238D01*
X109177573Y-93576110D01*
X109329058Y-93703220D01*
X109373598Y-93740593D01*
X109381969Y-93748491D01*
X109452777Y-93823543D01*
X109557563Y-93934609D01*
X109564963Y-93943428D01*
X109717764Y-94148675D01*
X109724090Y-94158294D01*
X109852026Y-94379885D01*
X109857193Y-94390173D01*
X109958540Y-94625119D01*
X109962478Y-94635937D01*
X110035866Y-94881067D01*
X110038521Y-94892269D01*
X110045094Y-94929547D01*
X110082956Y-95144266D01*
X110084290Y-95155675D01*
X110097622Y-95384559D01*
X110096784Y-95394521D01*
X110096861Y-95394521D01*
X110096841Y-95405669D01*
X110094343Y-95416534D01*
X110096965Y-95428119D01*
X110097058Y-95428531D01*
X110099499Y-95450381D01*
X110099501Y-102160075D01*
X110099501Y-104389534D01*
X110096983Y-104411722D01*
X110094345Y-104423193D01*
X110096806Y-104434069D01*
X110096787Y-104444886D01*
X110097648Y-104455354D01*
X110092940Y-104536174D01*
X110085301Y-104667297D01*
X110084284Y-104684750D01*
X110082949Y-104696178D01*
X110061910Y-104815487D01*
X110038511Y-104948181D01*
X110035856Y-104959383D01*
X110025517Y-104993917D01*
X109962466Y-105204520D01*
X109958535Y-105215321D01*
X109861236Y-105440890D01*
X109857182Y-105450289D01*
X109852015Y-105460576D01*
X109724087Y-105682163D01*
X109717762Y-105691781D01*
X109564957Y-105897046D01*
X109557565Y-105905856D01*
X109414322Y-106057696D01*
X109381973Y-106091986D01*
X109373613Y-106099875D01*
X109177584Y-106264378D01*
X109168364Y-106271242D01*
X108976953Y-106397149D01*
X108967768Y-106401470D01*
X108967795Y-106401518D01*
X108958131Y-106407076D01*
X108947473Y-106410345D01*
X108938881Y-106418289D01*
X108938450Y-106418687D01*
X108920743Y-106431731D01*
X106530928Y-107811490D01*
X106471080Y-107824211D01*
X106415184Y-107799324D01*
X106395691Y-107775253D01*
X106293317Y-107597936D01*
X105732001Y-106625709D01*
X105728800Y-106622059D01*
X105728798Y-106622056D01*
X105699112Y-106588206D01*
X105692685Y-106580877D01*
X105683944Y-106576566D01*
X105683942Y-106576565D01*
X105627740Y-106548850D01*
X105583912Y-106506155D01*
X105573745Y-106444573D01*
X105579585Y-106407698D01*
X105579585Y-106407696D01*
X105580804Y-106400000D01*
X105565009Y-106300271D01*
X105560938Y-106274569D01*
X105560938Y-106274568D01*
X105559719Y-106266874D01*
X105554482Y-106256596D01*
X105502064Y-106153719D01*
X105502063Y-106153717D01*
X105498528Y-106146780D01*
X105493022Y-106141274D01*
X105488439Y-106134966D01*
X105489738Y-106134022D01*
X105466082Y-106087594D01*
X105467036Y-106081571D01*
X105439751Y-106078703D01*
X105410014Y-106058266D01*
X105404550Y-106052802D01*
X105388817Y-106032298D01*
X105036782Y-105422555D01*
X105026869Y-105413629D01*
X105021803Y-105413097D01*
X104782714Y-105551135D01*
X104773788Y-105561048D01*
X104773256Y-105566114D01*
X104965697Y-105899431D01*
X104978419Y-105959279D01*
X104953532Y-106015175D01*
X104924893Y-106037147D01*
X104923554Y-106037829D01*
X104863120Y-106047392D01*
X104808608Y-106019606D01*
X104792885Y-105999113D01*
X104787786Y-105990281D01*
X104198988Y-104970453D01*
X104195787Y-104966803D01*
X104195785Y-104966800D01*
X104170048Y-104937453D01*
X104159672Y-104925621D01*
X104133466Y-104912698D01*
X104089638Y-104870005D01*
X104080638Y-104815487D01*
X104079585Y-104815487D01*
X104079585Y-104809106D01*
X104079471Y-104808415D01*
X104079585Y-104807695D01*
X104080804Y-104800000D01*
X104059719Y-104666874D01*
X104043517Y-104635075D01*
X104034787Y-104617942D01*
X104025216Y-104557510D01*
X104052994Y-104502993D01*
X104107510Y-104475216D01*
X104167942Y-104484787D01*
X104216874Y-104509719D01*
X104224568Y-104510938D01*
X104224569Y-104510938D01*
X104263327Y-104517076D01*
X104317967Y-104525730D01*
X104372482Y-104553507D01*
X104400260Y-104608024D01*
X104391270Y-104667297D01*
X104362181Y-104726285D01*
X104357231Y-104744755D01*
X104353303Y-104804692D01*
X104355799Y-104823655D01*
X104370222Y-104866141D01*
X104374218Y-104874959D01*
X104661294Y-105372190D01*
X104671206Y-105381114D01*
X104676273Y-105381647D01*
X104928941Y-105235769D01*
X105016410Y-105185269D01*
X105076258Y-105172547D01*
X105132154Y-105197434D01*
X105151647Y-105221505D01*
X105565755Y-105938762D01*
X105573210Y-105973835D01*
X105574213Y-105973649D01*
X105596787Y-105976022D01*
X105689093Y-105922729D01*
X105696961Y-105917090D01*
X105702112Y-105912573D01*
X105758328Y-105888420D01*
X105818005Y-105901922D01*
X105853126Y-105937504D01*
X105925336Y-106062576D01*
X106528094Y-107106583D01*
X106531302Y-107110241D01*
X106560980Y-107144083D01*
X106560983Y-107144085D01*
X106567410Y-107151414D01*
X106638949Y-107186692D01*
X106648680Y-107187330D01*
X106661682Y-107188182D01*
X106718542Y-107191910D01*
X106727774Y-107188776D01*
X106727775Y-107188776D01*
X106770402Y-107174306D01*
X106770403Y-107174305D01*
X106775006Y-107172743D01*
X106814066Y-107150192D01*
X107634961Y-106676248D01*
X108887672Y-105952995D01*
X108905336Y-105937504D01*
X108925172Y-105920109D01*
X108925174Y-105920106D01*
X108932503Y-105913679D01*
X108938428Y-105901665D01*
X108963468Y-105850886D01*
X108967781Y-105842140D01*
X108972999Y-105762547D01*
X108968809Y-105750202D01*
X108955395Y-105710687D01*
X108955394Y-105710686D01*
X108953832Y-105706083D01*
X108848398Y-105523465D01*
X108638513Y-105159934D01*
X107734084Y-103593417D01*
X107730876Y-103589759D01*
X107701198Y-103555917D01*
X107701195Y-103555915D01*
X107694768Y-103548586D01*
X107623229Y-103513308D01*
X107613498Y-103512670D01*
X107598961Y-103511717D01*
X107543636Y-103508090D01*
X107534404Y-103511224D01*
X107534403Y-103511224D01*
X107491776Y-103525694D01*
X107487172Y-103527257D01*
X107482964Y-103529687D01*
X107482963Y-103529687D01*
X107086256Y-103758726D01*
X105374506Y-104747005D01*
X105370848Y-104750213D01*
X105365354Y-104755031D01*
X105309137Y-104779184D01*
X105249461Y-104765680D01*
X105214342Y-104730099D01*
X105067036Y-104474957D01*
X105061397Y-104467088D01*
X105031818Y-104433359D01*
X105016640Y-104421712D01*
X104962771Y-104395147D01*
X104944299Y-104390197D01*
X104884362Y-104386269D01*
X104855731Y-104390038D01*
X104855284Y-104386639D01*
X104811148Y-104387225D01*
X104761176Y-104351921D01*
X104741498Y-104293987D01*
X104752279Y-104247728D01*
X104756183Y-104240067D01*
X104756184Y-104240064D01*
X104759719Y-104233126D01*
X104762989Y-104212484D01*
X104779585Y-104107696D01*
X104780804Y-104100000D01*
X104767993Y-104019116D01*
X104760938Y-103974569D01*
X104760938Y-103974568D01*
X104759719Y-103966874D01*
X104756184Y-103959936D01*
X104756182Y-103959930D01*
X104754763Y-103957146D01*
X104754274Y-103954059D01*
X104753774Y-103952520D01*
X104754018Y-103952441D01*
X104745192Y-103896714D01*
X104772970Y-103842198D01*
X104802783Y-103821727D01*
X104832425Y-103808560D01*
X104832427Y-103808559D01*
X104840781Y-103804848D01*
X104915132Y-103730368D01*
X104957685Y-103634115D01*
X104960500Y-103609969D01*
X104960499Y-102090032D01*
X104958507Y-102073279D01*
X104958447Y-102072777D01*
X104958447Y-102072775D01*
X104957569Y-102065397D01*
X104946149Y-102039687D01*
X104939806Y-101978831D01*
X104970445Y-101925870D01*
X105026362Y-101901032D01*
X105036625Y-101900499D01*
X105163421Y-101900499D01*
X105221612Y-101919406D01*
X105257576Y-101968906D01*
X105257576Y-102030092D01*
X105253968Y-102039527D01*
X105242315Y-102065885D01*
X105239500Y-102090031D01*
X105239501Y-103609968D01*
X105239848Y-103612883D01*
X105239848Y-103612888D01*
X105241553Y-103627223D01*
X105242431Y-103634603D01*
X105285152Y-103730781D01*
X105359632Y-103805132D01*
X105367992Y-103808828D01*
X105449076Y-103844675D01*
X105449077Y-103844675D01*
X105455885Y-103847685D01*
X105480031Y-103850500D01*
X105845412Y-103850500D01*
X106219968Y-103850499D01*
X106222883Y-103850152D01*
X106222888Y-103850152D01*
X106237223Y-103848447D01*
X106237225Y-103848447D01*
X106244603Y-103847569D01*
X106340781Y-103804848D01*
X106415132Y-103730368D01*
X106457685Y-103634115D01*
X106460500Y-103609969D01*
X106460500Y-103281204D01*
X106479407Y-103223013D01*
X106520529Y-103194113D01*
X106519146Y-103191232D01*
X106521154Y-103190268D01*
X106528386Y-103187306D01*
X106535103Y-103186188D01*
X106577160Y-103163495D01*
X106581283Y-103161395D01*
X106618717Y-103143420D01*
X106618721Y-103143418D01*
X106624326Y-103140726D01*
X106628274Y-103137408D01*
X106629782Y-103135900D01*
X106631071Y-103134718D01*
X106632097Y-103133852D01*
X106637794Y-103130778D01*
X106643345Y-103124773D01*
X106643350Y-103124769D01*
X106671809Y-103093982D01*
X106674503Y-103091179D01*
X107576186Y-102189496D01*
X107630703Y-102161719D01*
X107646189Y-102160500D01*
X107785629Y-102160499D01*
X107799900Y-102160499D01*
X107835007Y-102155878D01*
X107841975Y-102154961D01*
X107841976Y-102154961D01*
X107849487Y-102153972D01*
X107933035Y-102115013D01*
X107950466Y-102106885D01*
X107950468Y-102106884D01*
X107958316Y-102103224D01*
X108030350Y-102031190D01*
X108084867Y-102003413D01*
X108145299Y-102012984D01*
X108170358Y-102031190D01*
X108235853Y-102096685D01*
X108249826Y-102106469D01*
X108343775Y-102150278D01*
X108358157Y-102154470D01*
X108396947Y-102159577D01*
X108403401Y-102160000D01*
X108464320Y-102160000D01*
X108477005Y-102155878D01*
X108480000Y-102151757D01*
X108480000Y-102144320D01*
X108680000Y-102144320D01*
X108684122Y-102157005D01*
X108688243Y-102160000D01*
X108756599Y-102160000D01*
X108763053Y-102159577D01*
X108801843Y-102154470D01*
X108816225Y-102150278D01*
X108910174Y-102106469D01*
X108924147Y-102096685D01*
X108996685Y-102024147D01*
X109006469Y-102010174D01*
X109050278Y-101916225D01*
X109054470Y-101901843D01*
X109059577Y-101863053D01*
X109060000Y-101856599D01*
X109060000Y-101765680D01*
X109055878Y-101752995D01*
X109051757Y-101750000D01*
X108695680Y-101750000D01*
X108682995Y-101754122D01*
X108680000Y-101758243D01*
X108680000Y-102144320D01*
X108480000Y-102144320D01*
X108480000Y-101649000D01*
X108498907Y-101590809D01*
X108548407Y-101554845D01*
X108579000Y-101550000D01*
X109044320Y-101550000D01*
X109057005Y-101545878D01*
X109060000Y-101541757D01*
X109060000Y-101443401D01*
X109059577Y-101436947D01*
X109054470Y-101398157D01*
X109050278Y-101383775D01*
X109006469Y-101289826D01*
X108996685Y-101275853D01*
X108931288Y-101210456D01*
X108903511Y-101155939D01*
X108913082Y-101095507D01*
X108940410Y-101064071D01*
X108940404Y-101064065D01*
X109018865Y-100985604D01*
X109073382Y-100957827D01*
X109133814Y-100967398D01*
X109209934Y-101006183D01*
X109216874Y-101009719D01*
X109224568Y-101010938D01*
X109224569Y-101010938D01*
X109342304Y-101029585D01*
X109350000Y-101030804D01*
X109357696Y-101029585D01*
X109475431Y-101010938D01*
X109475432Y-101010938D01*
X109483126Y-101009719D01*
X109490066Y-101006183D01*
X109596281Y-100952064D01*
X109596283Y-100952063D01*
X109603220Y-100948528D01*
X109698528Y-100853220D01*
X109708687Y-100833283D01*
X109756183Y-100740066D01*
X109756183Y-100740065D01*
X109759719Y-100733126D01*
X109770738Y-100663558D01*
X109779585Y-100607696D01*
X109780804Y-100600000D01*
X109759719Y-100466874D01*
X109756183Y-100459934D01*
X109702064Y-100353719D01*
X109702063Y-100353717D01*
X109698528Y-100346780D01*
X109603220Y-100251472D01*
X109596283Y-100247937D01*
X109596281Y-100247936D01*
X109490066Y-100193817D01*
X109490065Y-100193817D01*
X109483126Y-100190281D01*
X109475432Y-100189062D01*
X109475431Y-100189062D01*
X109357696Y-100170415D01*
X109350000Y-100169196D01*
X109342304Y-100170415D01*
X109224569Y-100189062D01*
X109224568Y-100189062D01*
X109216874Y-100190281D01*
X109209935Y-100193817D01*
X109209934Y-100193817D01*
X109133814Y-100232602D01*
X109073382Y-100242173D01*
X109018865Y-100214396D01*
X108940404Y-100135935D01*
X108932556Y-100132275D01*
X108932554Y-100132274D01*
X108840042Y-100089135D01*
X108840041Y-100089135D01*
X108833173Y-100085932D01*
X108784316Y-100079500D01*
X108435684Y-100079500D01*
X108386827Y-100085932D01*
X108379959Y-100089135D01*
X108379958Y-100089135D01*
X108287446Y-100132274D01*
X108287444Y-100132275D01*
X108279596Y-100135935D01*
X108195935Y-100219596D01*
X108189723Y-100232919D01*
X108147995Y-100277664D01*
X108087933Y-100289338D01*
X108032481Y-100263479D01*
X108010278Y-100232920D01*
X108004065Y-100219596D01*
X107920404Y-100135935D01*
X107912556Y-100132275D01*
X107912554Y-100132274D01*
X107820042Y-100089135D01*
X107820041Y-100089135D01*
X107813173Y-100085932D01*
X107764316Y-100079500D01*
X107415684Y-100079500D01*
X107366827Y-100085932D01*
X107359959Y-100089135D01*
X107359958Y-100089135D01*
X107267446Y-100132274D01*
X107267444Y-100132275D01*
X107259596Y-100135935D01*
X107175935Y-100219596D01*
X107172276Y-100227443D01*
X107172274Y-100227446D01*
X107140982Y-100294552D01*
X107125932Y-100326827D01*
X107119500Y-100375684D01*
X107119500Y-100824316D01*
X107125932Y-100873173D01*
X107129135Y-100880041D01*
X107129135Y-100880042D01*
X107163767Y-100954309D01*
X107175935Y-100980404D01*
X107240504Y-101044973D01*
X107268281Y-101099490D01*
X107269500Y-101114977D01*
X107269500Y-101167952D01*
X107250593Y-101226143D01*
X107240504Y-101237956D01*
X107196776Y-101281684D01*
X107193116Y-101289532D01*
X107193115Y-101289534D01*
X107182051Y-101313261D01*
X107146028Y-101390513D01*
X107139500Y-101440099D01*
X107139500Y-101593810D01*
X107120593Y-101652001D01*
X107110504Y-101663814D01*
X106999017Y-101775301D01*
X106944500Y-101803078D01*
X106884068Y-101793507D01*
X106840803Y-101750242D01*
X106831232Y-101689810D01*
X106842868Y-101657432D01*
X106843287Y-101656868D01*
X106905086Y-101520956D01*
X106936851Y-101375073D01*
X106937154Y-101225771D01*
X106905982Y-101079760D01*
X106874477Y-101009719D01*
X106852025Y-100959804D01*
X106848052Y-100949310D01*
X106847896Y-100948955D01*
X106847887Y-100948943D01*
X106846216Y-100943564D01*
X106846039Y-100943260D01*
X106846035Y-100943247D01*
X106846026Y-100943237D01*
X106845855Y-100942944D01*
X106842048Y-100938883D01*
X106840924Y-100937376D01*
X106840360Y-100936512D01*
X106840121Y-100936300D01*
X106838714Y-100934413D01*
X106838900Y-100934275D01*
X106834171Y-100927031D01*
X106833503Y-100925853D01*
X106833882Y-100925638D01*
X106827777Y-100916656D01*
X106826682Y-100914333D01*
X106822638Y-100905761D01*
X106816620Y-100889410D01*
X106812222Y-100873173D01*
X106807407Y-100855396D01*
X106804350Y-100838242D01*
X106803319Y-100826589D01*
X106803994Y-100816805D01*
X106803140Y-100816804D01*
X106803159Y-100805654D01*
X106805656Y-100794790D01*
X106803195Y-100783919D01*
X106803195Y-100783917D01*
X106802943Y-100782806D01*
X106800500Y-100760947D01*
X106800500Y-99239550D01*
X106803016Y-99217374D01*
X106803158Y-99216754D01*
X106805656Y-99205887D01*
X106803194Y-99195012D01*
X106803213Y-99183866D01*
X106803954Y-99183867D01*
X106803287Y-99173964D01*
X106804367Y-99161722D01*
X106807423Y-99144557D01*
X106816626Y-99110556D01*
X106822637Y-99094209D01*
X106827519Y-99083857D01*
X106839118Y-99066868D01*
X106838280Y-99066239D01*
X106841645Y-99061751D01*
X106845494Y-99057675D01*
X106845857Y-99057056D01*
X106847534Y-99051723D01*
X106847595Y-99051585D01*
X106851646Y-99040940D01*
X106851984Y-99040190D01*
X106905944Y-98920227D01*
X106920972Y-98849834D01*
X106936016Y-98779367D01*
X106936016Y-98779365D01*
X106937114Y-98774223D01*
X106936811Y-98624930D01*
X106905048Y-98479055D01*
X106899363Y-98466551D01*
X106880189Y-98424385D01*
X106843252Y-98343152D01*
X106754200Y-98223326D01*
X106750217Y-98219837D01*
X106645853Y-98128431D01*
X106645852Y-98128430D01*
X106641892Y-98124962D01*
X106511375Y-98052478D01*
X106511382Y-98052466D01*
X106466574Y-98013566D01*
X106452771Y-97953958D01*
X106455378Y-97939334D01*
X106457685Y-97934115D01*
X106458698Y-97925431D01*
X106460168Y-97912817D01*
X106460500Y-97909969D01*
X106460499Y-96390032D01*
X106458507Y-96373279D01*
X106458447Y-96372777D01*
X106458447Y-96372775D01*
X106457569Y-96365397D01*
X106414848Y-96269219D01*
X106340368Y-96194868D01*
X106246502Y-96153370D01*
X106246500Y-96153369D01*
X106244115Y-96152315D01*
X106244290Y-96151920D01*
X106197289Y-96121102D01*
X106175500Y-96059139D01*
X106175500Y-95968526D01*
X106175877Y-95959898D01*
X106178508Y-95929820D01*
X106179263Y-95921193D01*
X106177022Y-95912830D01*
X106177022Y-95912827D01*
X106169206Y-95883656D01*
X106167337Y-95875228D01*
X106162427Y-95847382D01*
X106160588Y-95836955D01*
X106156257Y-95829454D01*
X106154258Y-95823960D01*
X106151795Y-95818678D01*
X106149554Y-95810316D01*
X106127259Y-95778475D01*
X106122636Y-95771219D01*
X106103194Y-95737545D01*
X106073434Y-95712574D01*
X106067065Y-95706739D01*
X103793269Y-93432943D01*
X103787434Y-93426575D01*
X103762455Y-93396806D01*
X103728792Y-93377371D01*
X103721511Y-93372732D01*
X103719056Y-93371013D01*
X103689684Y-93350446D01*
X103681316Y-93348204D01*
X103676029Y-93345738D01*
X103670544Y-93343742D01*
X103663045Y-93339412D01*
X103654519Y-93337909D01*
X103654517Y-93337908D01*
X103624784Y-93332666D01*
X103616349Y-93330796D01*
X103587174Y-93322978D01*
X103578807Y-93320736D01*
X103570178Y-93321491D01*
X103540095Y-93324123D01*
X103531466Y-93324500D01*
X98139889Y-93324500D01*
X98081698Y-93305593D01*
X98069885Y-93295504D01*
X97894614Y-93120233D01*
X97878882Y-93099729D01*
X97864077Y-93074085D01*
X97432001Y-92325709D01*
X97426226Y-92319123D01*
X97399112Y-92288206D01*
X97392685Y-92280877D01*
X97321147Y-92245599D01*
X97311418Y-92244961D01*
X97311417Y-92244961D01*
X97281351Y-92242991D01*
X97241554Y-92240382D01*
X97232322Y-92243516D01*
X97232320Y-92243516D01*
X97213482Y-92249911D01*
X97185089Y-92259549D01*
X97040090Y-92343264D01*
X96980243Y-92355986D01*
X96924347Y-92331099D01*
X96902381Y-92302473D01*
X96891378Y-92280877D01*
X96848528Y-92196780D01*
X96844155Y-92192407D01*
X96825500Y-92134990D01*
X96825500Y-92100538D01*
X96825877Y-92091909D01*
X96828509Y-92061826D01*
X96829264Y-92053197D01*
X96819204Y-92015654D01*
X96817334Y-92007220D01*
X96811192Y-91972384D01*
X96819708Y-91911794D01*
X96862212Y-91867782D01*
X96915164Y-91856406D01*
X96946727Y-91858475D01*
X96965689Y-91855979D01*
X97008175Y-91841556D01*
X97016993Y-91837560D01*
X97102861Y-91787984D01*
X97111786Y-91778072D01*
X97112319Y-91773005D01*
X96736782Y-91122555D01*
X96726869Y-91113629D01*
X96721803Y-91113097D01*
X96482714Y-91251135D01*
X96473788Y-91261048D01*
X96473256Y-91266114D01*
X96546442Y-91392876D01*
X96559164Y-91452724D01*
X96534277Y-91508620D01*
X96481289Y-91539213D01*
X96420439Y-91532817D01*
X96390702Y-91512380D01*
X96386602Y-91508280D01*
X96370870Y-91487776D01*
X96326363Y-91410687D01*
X95929260Y-90722885D01*
X95916538Y-90663038D01*
X95941425Y-90607142D01*
X95965474Y-90587662D01*
X95966774Y-90586911D01*
X96026619Y-90574175D01*
X96082521Y-90599047D01*
X96102033Y-90623135D01*
X96361296Y-91072191D01*
X96371206Y-91081114D01*
X96376273Y-91081647D01*
X96628941Y-90935769D01*
X96716410Y-90885269D01*
X96776258Y-90872547D01*
X96832154Y-90897434D01*
X96851647Y-90921505D01*
X97281807Y-91666564D01*
X97291720Y-91675490D01*
X97296786Y-91676022D01*
X97389093Y-91622729D01*
X97396961Y-91617090D01*
X97402112Y-91612573D01*
X97458328Y-91588420D01*
X97518005Y-91601922D01*
X97553126Y-91637504D01*
X97569904Y-91666564D01*
X98228094Y-92806583D01*
X98231302Y-92810241D01*
X98260980Y-92844083D01*
X98260983Y-92844085D01*
X98267410Y-92851414D01*
X98276156Y-92855727D01*
X98284251Y-92859719D01*
X98338949Y-92886692D01*
X98348680Y-92887330D01*
X98361682Y-92888182D01*
X98418542Y-92891910D01*
X98427774Y-92888776D01*
X98427775Y-92888776D01*
X98470402Y-92874306D01*
X98470403Y-92874305D01*
X98475006Y-92872743D01*
X98633032Y-92781507D01*
X99204866Y-92451358D01*
X100587672Y-91652995D01*
X100591330Y-91649787D01*
X100625172Y-91620109D01*
X100625174Y-91620106D01*
X100632503Y-91613679D01*
X100667781Y-91542140D01*
X100672999Y-91462547D01*
X100653832Y-91406083D01*
X100484677Y-91113097D01*
X100187890Y-90599047D01*
X99434084Y-89293417D01*
X99430876Y-89289759D01*
X99401198Y-89255917D01*
X99401195Y-89255915D01*
X99394768Y-89248586D01*
X99323229Y-89213308D01*
X99313498Y-89212670D01*
X99300496Y-89211818D01*
X99243636Y-89208090D01*
X99234404Y-89211224D01*
X99234403Y-89211224D01*
X99191776Y-89225694D01*
X99187172Y-89227257D01*
X97074506Y-90447005D01*
X97070848Y-90450213D01*
X97065354Y-90455031D01*
X97009137Y-90479184D01*
X96949461Y-90465680D01*
X96914342Y-90430099D01*
X96794852Y-90223135D01*
X96782131Y-90163286D01*
X96807018Y-90107391D01*
X96831089Y-90087898D01*
X98820792Y-88939142D01*
X98841263Y-88930231D01*
X98841859Y-88930048D01*
X98852517Y-88926779D01*
X98860701Y-88919214D01*
X98870077Y-88913823D01*
X98878716Y-88907838D01*
X99084062Y-88804709D01*
X99094633Y-88800149D01*
X99335084Y-88712632D01*
X99346113Y-88709331D01*
X99470596Y-88679828D01*
X99595083Y-88650324D01*
X99606412Y-88648326D01*
X99860573Y-88618618D01*
X99872065Y-88617949D01*
X100127933Y-88617949D01*
X100139427Y-88618618D01*
G37*
%TD.AperFunction*%
%TA.AperFunction,Conductor*%
G36*
X90054500Y-102477328D02*
G01*
X90063660Y-102483449D01*
X90063661Y-102483450D01*
X90071769Y-102488867D01*
X90081332Y-102490769D01*
X90081334Y-102490770D01*
X90104005Y-102495279D01*
X90130252Y-102500500D01*
X90225500Y-102500500D01*
X90283691Y-102519407D01*
X90319655Y-102568907D01*
X90324500Y-102599500D01*
X90324500Y-103969383D01*
X90324123Y-103978012D01*
X90320736Y-104016724D01*
X90322978Y-104025091D01*
X90330796Y-104054266D01*
X90332666Y-104062700D01*
X90339412Y-104100962D01*
X90343742Y-104108461D01*
X90345738Y-104113946D01*
X90348204Y-104119233D01*
X90350446Y-104127601D01*
X90365924Y-104149705D01*
X90372732Y-104159428D01*
X90377369Y-104166706D01*
X90381351Y-104173602D01*
X90394076Y-104233450D01*
X90388048Y-104254302D01*
X90388445Y-104254408D01*
X90385922Y-104263826D01*
X90381609Y-104272571D01*
X90380971Y-104282302D01*
X90380205Y-104293987D01*
X90376391Y-104352164D01*
X90379525Y-104361396D01*
X90379525Y-104361398D01*
X90392891Y-104400773D01*
X90395558Y-104408629D01*
X90397988Y-104412838D01*
X90397989Y-104412840D01*
X90590920Y-104747005D01*
X91165306Y-105741871D01*
X91168507Y-105745521D01*
X91168509Y-105745524D01*
X91170851Y-105748194D01*
X91204622Y-105786703D01*
X91213368Y-105791016D01*
X91267414Y-105817668D01*
X91267416Y-105817668D01*
X91276161Y-105821981D01*
X91285891Y-105822619D01*
X91285892Y-105822619D01*
X91307940Y-105824064D01*
X91355754Y-105827198D01*
X91364986Y-105824064D01*
X91364987Y-105824064D01*
X91407614Y-105809594D01*
X91407615Y-105809593D01*
X91412218Y-105808031D01*
X91419687Y-105803719D01*
X91693575Y-105645590D01*
X91753423Y-105632869D01*
X91813079Y-105661323D01*
X92756980Y-106605223D01*
X92784757Y-106659740D01*
X92772712Y-106724726D01*
X92591969Y-107037782D01*
X92590407Y-107042385D01*
X92590406Y-107042386D01*
X92578269Y-107078142D01*
X92572802Y-107094246D01*
X92573851Y-107110241D01*
X92574298Y-107117065D01*
X92559238Y-107176368D01*
X92512196Y-107215493D01*
X92451142Y-107219495D01*
X92426010Y-107209278D01*
X91079701Y-106431986D01*
X91061752Y-106418717D01*
X91061292Y-106418289D01*
X91053131Y-106410693D01*
X91042483Y-106407387D01*
X91033126Y-106401964D01*
X91023631Y-106397478D01*
X90831639Y-106271212D01*
X90822404Y-106264337D01*
X90626390Y-106099870D01*
X90618015Y-106091969D01*
X90605499Y-106078703D01*
X90442413Y-105905847D01*
X90435026Y-105897045D01*
X90282221Y-105691791D01*
X90275895Y-105682173D01*
X90263858Y-105661323D01*
X90214740Y-105576248D01*
X90147960Y-105460579D01*
X90142793Y-105450290D01*
X90041453Y-105215345D01*
X90037515Y-105204526D01*
X89964136Y-104959396D01*
X89961481Y-104948192D01*
X89917059Y-104696203D01*
X89915723Y-104684767D01*
X89902399Y-104455803D01*
X89903229Y-104445943D01*
X89903136Y-104445943D01*
X89903156Y-104434794D01*
X89905655Y-104423929D01*
X89902939Y-104411922D01*
X89900499Y-104390079D01*
X89900499Y-102559644D01*
X89919406Y-102501453D01*
X89968906Y-102465489D01*
X90030092Y-102465489D01*
X90054500Y-102477328D01*
G37*
%TD.AperFunction*%
%TD*%
M02*
