%TF.GenerationSoftware,KiCad,Pcbnew,(6.0.6)*%
%TF.CreationDate,2022-07-10T21:40:21+02:00*%
%TF.ProjectId,GCode_Buttons_Cherry_MX,47436f64-655f-4427-9574-746f6e735f43,rev?*%
%TF.SameCoordinates,Original*%
%TF.FileFunction,Copper,L3,Inr*%
%TF.FilePolarity,Positive*%
%FSLAX46Y46*%
G04 Gerber Fmt 4.6, Leading zero omitted, Abs format (unit mm)*
G04 Created by KiCad (PCBNEW (6.0.6)) date 2022-07-10 21:40:21*
%MOMM*%
%LPD*%
G01*
G04 APERTURE LIST*
%TA.AperFunction,ComponentPad*%
%ADD10C,2.200000*%
%TD*%
%TA.AperFunction,ViaPad*%
%ADD11C,0.450000*%
%TD*%
G04 APERTURE END LIST*
D10*
%TO.N,Net-(JP1-Pad1)*%
%TO.C,SW1*%
X94920000Y-102540000D03*
%TO.N,GND*%
X97460000Y-96190000D03*
%TD*%
D11*
%TO.N,+5V*%
X103650000Y-104800000D03*
X92550000Y-97800000D03*
X96500000Y-92450000D03*
X109350000Y-100600000D03*
%TO.N,GND*%
X90650000Y-94350000D03*
X109450000Y-94350000D03*
X100000000Y-110850000D03*
X109450000Y-105300000D03*
X97400000Y-91950000D03*
X100000000Y-89000000D03*
X90500000Y-105300000D03*
%TO.N,Net-(J1-Pad4)*%
X95600000Y-92950000D03*
X102750000Y-105300000D03*
X94850000Y-104950000D03*
%TO.N,Net-(J1-Pad1)*%
X102550000Y-107950000D03*
X93050000Y-99400000D03*
X95400000Y-95600000D03*
%TO.N,Net-(J1-Pad2)*%
X93050000Y-101550000D03*
X94750000Y-93450000D03*
X101900000Y-105800000D03*
%TO.N,Net-(J1-Pad3)*%
X93450000Y-103500000D03*
X103450000Y-107450000D03*
X96250000Y-95100000D03*
%TO.N,Net-(J1-Pad5)*%
X104300000Y-106950000D03*
X96800000Y-106050000D03*
X97150000Y-94600000D03*
%TO.N,Dout*%
X105150000Y-106400000D03*
X104350000Y-104100000D03*
%TD*%
%TA.AperFunction,Conductor*%
%TO.N,GND*%
G36*
X100109229Y-88929218D02*
G01*
X100251700Y-88938557D01*
X100268040Y-88940708D01*
X100387689Y-88964507D01*
X100507342Y-88988308D01*
X100523256Y-88992572D01*
X100638775Y-89031786D01*
X100754291Y-89070998D01*
X100769518Y-89077305D01*
X100958213Y-89170359D01*
X100977745Y-89182825D01*
X100980725Y-89184595D01*
X100987718Y-89190227D01*
X101017122Y-89202437D01*
X101031789Y-89209678D01*
X108753005Y-93667526D01*
X108769036Y-93678513D01*
X108787719Y-93693561D01*
X108796007Y-93697002D01*
X108796011Y-93697005D01*
X108802892Y-93699862D01*
X108824564Y-93711458D01*
X109005489Y-93832347D01*
X109018552Y-93842370D01*
X109130266Y-93940340D01*
X109201991Y-94003241D01*
X109213646Y-94014896D01*
X109374521Y-94198340D01*
X109384554Y-94211415D01*
X109520101Y-94414274D01*
X109528342Y-94428547D01*
X109636257Y-94647374D01*
X109642564Y-94662601D01*
X109720991Y-94893636D01*
X109725256Y-94909553D01*
X109772856Y-95148853D01*
X109775007Y-95165194D01*
X109788766Y-95375105D01*
X109787731Y-95398357D01*
X109787690Y-95401745D01*
X109786308Y-95410618D01*
X109787472Y-95419520D01*
X109787472Y-95419523D01*
X109790435Y-95442179D01*
X109791499Y-95458516D01*
X109791500Y-97729799D01*
X109791500Y-99799936D01*
X109771498Y-99868057D01*
X109717842Y-99914550D01*
X109647568Y-99924654D01*
X109623233Y-99918635D01*
X109525190Y-99883723D01*
X109525185Y-99883722D01*
X109518555Y-99881361D01*
X109511569Y-99880528D01*
X109511565Y-99880527D01*
X109397071Y-99866875D01*
X109355153Y-99861877D01*
X109348150Y-99862613D01*
X109348149Y-99862613D01*
X109304935Y-99867155D01*
X109191495Y-99879078D01*
X109184827Y-99881348D01*
X109042382Y-99929840D01*
X109042379Y-99929841D01*
X109035715Y-99932110D01*
X108895555Y-100018337D01*
X108844221Y-100068607D01*
X108794654Y-100117147D01*
X108777982Y-100133473D01*
X108688838Y-100271797D01*
X108686427Y-100278420D01*
X108686426Y-100278423D01*
X108634966Y-100419809D01*
X108634965Y-100419814D01*
X108632556Y-100426432D01*
X108611931Y-100589694D01*
X108627989Y-100753468D01*
X108679932Y-100909615D01*
X108683581Y-100915640D01*
X108739147Y-101007389D01*
X108765179Y-101050373D01*
X108770070Y-101055438D01*
X108770071Y-101055439D01*
X108836561Y-101124291D01*
X108879491Y-101168747D01*
X109017189Y-101258854D01*
X109171428Y-101316215D01*
X109178409Y-101317146D01*
X109178411Y-101317147D01*
X109327561Y-101337048D01*
X109327565Y-101337048D01*
X109334542Y-101337979D01*
X109341553Y-101337341D01*
X109341557Y-101337341D01*
X109491403Y-101323704D01*
X109491404Y-101323704D01*
X109498424Y-101323065D01*
X109626566Y-101281429D01*
X109697531Y-101279401D01*
X109758329Y-101316063D01*
X109789654Y-101379776D01*
X109791500Y-101401262D01*
X109791501Y-104374186D01*
X109790000Y-104393574D01*
X109786310Y-104417269D01*
X109787957Y-104429863D01*
X109788440Y-104433560D01*
X109789233Y-104458135D01*
X109783482Y-104545852D01*
X109774998Y-104675252D01*
X109772847Y-104691591D01*
X109725244Y-104930899D01*
X109720978Y-104946818D01*
X109685979Y-105049922D01*
X109654291Y-105143275D01*
X109642553Y-105177853D01*
X109636248Y-105193077D01*
X109612701Y-105240827D01*
X109528334Y-105411913D01*
X109520094Y-105426186D01*
X109384541Y-105629064D01*
X109374509Y-105642138D01*
X109309852Y-105715870D01*
X109217693Y-105820965D01*
X109213644Y-105825582D01*
X109201992Y-105837235D01*
X109018551Y-105998123D01*
X109005485Y-106008150D01*
X108900326Y-106078423D01*
X108830734Y-106124928D01*
X108809273Y-106136078D01*
X108806935Y-106137390D01*
X108798564Y-106140629D01*
X108791440Y-106146086D01*
X108773307Y-106159976D01*
X108759686Y-106169069D01*
X101038499Y-110626898D01*
X101020961Y-110635291D01*
X101006957Y-110640709D01*
X100998580Y-110643950D01*
X100991452Y-110649410D01*
X100985542Y-110653937D01*
X100964654Y-110666914D01*
X100877557Y-110709868D01*
X100769511Y-110763153D01*
X100754293Y-110769457D01*
X100523250Y-110847889D01*
X100507338Y-110852153D01*
X100386745Y-110876141D01*
X100268038Y-110899754D01*
X100251697Y-110901905D01*
X100083931Y-110912902D01*
X100008239Y-110917863D01*
X99991761Y-110917863D01*
X99916069Y-110912902D01*
X99748303Y-110901905D01*
X99731962Y-110899754D01*
X99613273Y-110876144D01*
X99492663Y-110852153D01*
X99476751Y-110847889D01*
X99245705Y-110769456D01*
X99230488Y-110763152D01*
X99041791Y-110670093D01*
X99022289Y-110657644D01*
X99019279Y-110655857D01*
X99012290Y-110650227D01*
X98982877Y-110638012D01*
X98968214Y-110630773D01*
X94307126Y-107939694D01*
X101811931Y-107939694D01*
X101827989Y-108103468D01*
X101879932Y-108259615D01*
X101965179Y-108400373D01*
X102079491Y-108518747D01*
X102217189Y-108608854D01*
X102371428Y-108666215D01*
X102378409Y-108667146D01*
X102378411Y-108667147D01*
X102527561Y-108687048D01*
X102527565Y-108687048D01*
X102534542Y-108687979D01*
X102541553Y-108687341D01*
X102541557Y-108687341D01*
X102691403Y-108673704D01*
X102691404Y-108673704D01*
X102698424Y-108673065D01*
X102727062Y-108663760D01*
X102848230Y-108624390D01*
X102848233Y-108624389D01*
X102854929Y-108622213D01*
X102996279Y-108537951D01*
X103115449Y-108424468D01*
X103131458Y-108400373D01*
X103202614Y-108293275D01*
X103202615Y-108293273D01*
X103206515Y-108287403D01*
X103217998Y-108257174D01*
X103260884Y-108200598D01*
X103327552Y-108176187D01*
X103352444Y-108177025D01*
X103401435Y-108183562D01*
X103427562Y-108187048D01*
X103427565Y-108187048D01*
X103434542Y-108187979D01*
X103441553Y-108187341D01*
X103441557Y-108187341D01*
X103591403Y-108173704D01*
X103591404Y-108173704D01*
X103598424Y-108173065D01*
X103638440Y-108160063D01*
X103748230Y-108124390D01*
X103748233Y-108124389D01*
X103754929Y-108122213D01*
X103896279Y-108037951D01*
X104015449Y-107924468D01*
X104106515Y-107787403D01*
X104115586Y-107763524D01*
X104158472Y-107706947D01*
X104225140Y-107682537D01*
X104250037Y-107683375D01*
X104277561Y-107687048D01*
X104277565Y-107687048D01*
X104284542Y-107687979D01*
X104291553Y-107687341D01*
X104291557Y-107687341D01*
X104441403Y-107673704D01*
X104441404Y-107673704D01*
X104448424Y-107673065D01*
X104471455Y-107665582D01*
X104598230Y-107624390D01*
X104598233Y-107624389D01*
X104604929Y-107622213D01*
X104746279Y-107537951D01*
X104865449Y-107424468D01*
X104899468Y-107373266D01*
X104952614Y-107293275D01*
X104952615Y-107293273D01*
X104956515Y-107287403D01*
X104983662Y-107215937D01*
X105026550Y-107159359D01*
X105093219Y-107134949D01*
X105118113Y-107135787D01*
X105121919Y-107136295D01*
X105127562Y-107137048D01*
X105127565Y-107137048D01*
X105134542Y-107137979D01*
X105141553Y-107137341D01*
X105141557Y-107137341D01*
X105291403Y-107123704D01*
X105291404Y-107123704D01*
X105298424Y-107123065D01*
X105321455Y-107115582D01*
X105448230Y-107074390D01*
X105448233Y-107074389D01*
X105454929Y-107072213D01*
X105596279Y-106987951D01*
X105715449Y-106874468D01*
X105719350Y-106868597D01*
X105802614Y-106743275D01*
X105802615Y-106743273D01*
X105806515Y-106737403D01*
X105864951Y-106583568D01*
X105882133Y-106461310D01*
X105887302Y-106424534D01*
X105887303Y-106424527D01*
X105887853Y-106420610D01*
X105888141Y-106400000D01*
X105869798Y-106236466D01*
X105855127Y-106194335D01*
X105837402Y-106143437D01*
X105815680Y-106081060D01*
X105800613Y-106056947D01*
X105732209Y-105947479D01*
X105728476Y-105941505D01*
X105657279Y-105869809D01*
X105617486Y-105829737D01*
X105617482Y-105829734D01*
X105612522Y-105824739D01*
X105473580Y-105736563D01*
X105415467Y-105715870D01*
X105325189Y-105683723D01*
X105325187Y-105683722D01*
X105318555Y-105681361D01*
X105311569Y-105680528D01*
X105311565Y-105680527D01*
X105197071Y-105666875D01*
X105155153Y-105661877D01*
X105148150Y-105662613D01*
X105148149Y-105662613D01*
X105113879Y-105666215D01*
X104991495Y-105679078D01*
X104984827Y-105681348D01*
X104842382Y-105729840D01*
X104842379Y-105729841D01*
X104835715Y-105732110D01*
X104695555Y-105818337D01*
X104688157Y-105825582D01*
X104624468Y-105887951D01*
X104577982Y-105933473D01*
X104488838Y-106071797D01*
X104486427Y-106078420D01*
X104486426Y-106078423D01*
X104466490Y-106133198D01*
X104424396Y-106190370D01*
X104358075Y-106215708D01*
X104333173Y-106215218D01*
X104305153Y-106211877D01*
X104298150Y-106212613D01*
X104298149Y-106212613D01*
X104273365Y-106215218D01*
X104141495Y-106229078D01*
X104134827Y-106231348D01*
X103992382Y-106279840D01*
X103992379Y-106279841D01*
X103985715Y-106282110D01*
X103845555Y-106368337D01*
X103815992Y-106397287D01*
X103743163Y-106468607D01*
X103727982Y-106483473D01*
X103638838Y-106621797D01*
X103636427Y-106628420D01*
X103636426Y-106628423D01*
X103633930Y-106635281D01*
X103591835Y-106692452D01*
X103525513Y-106717788D01*
X103500616Y-106717298D01*
X103455153Y-106711877D01*
X103448150Y-106712613D01*
X103448149Y-106712613D01*
X103404935Y-106717155D01*
X103291495Y-106729078D01*
X103284827Y-106731348D01*
X103142382Y-106779840D01*
X103142379Y-106779841D01*
X103135715Y-106782110D01*
X103038858Y-106841697D01*
X103007740Y-106860841D01*
X102995555Y-106868337D01*
X102877982Y-106983473D01*
X102788838Y-107121797D01*
X102786427Y-107128420D01*
X102786426Y-107128423D01*
X102781852Y-107140991D01*
X102739758Y-107198163D01*
X102673437Y-107223501D01*
X102648533Y-107223011D01*
X102562147Y-107212711D01*
X102555153Y-107211877D01*
X102548150Y-107212613D01*
X102548149Y-107212613D01*
X102516524Y-107215937D01*
X102391495Y-107229078D01*
X102384827Y-107231348D01*
X102242382Y-107279840D01*
X102242379Y-107279841D01*
X102235715Y-107282110D01*
X102095555Y-107368337D01*
X101977982Y-107483473D01*
X101888838Y-107621797D01*
X101886427Y-107628420D01*
X101886426Y-107628423D01*
X101834966Y-107769809D01*
X101834965Y-107769814D01*
X101832556Y-107776432D01*
X101811931Y-107939694D01*
X94307126Y-107939694D01*
X93075028Y-107228342D01*
X91246992Y-106172925D01*
X91230958Y-106161936D01*
X91219257Y-106152512D01*
X91219253Y-106152510D01*
X91212262Y-106146879D01*
X91197090Y-106140579D01*
X91175408Y-106128979D01*
X91041773Y-106039694D01*
X96061931Y-106039694D01*
X96077989Y-106203468D01*
X96129932Y-106359615D01*
X96133581Y-106365640D01*
X96198125Y-106472213D01*
X96215179Y-106500373D01*
X96220070Y-106505438D01*
X96220071Y-106505439D01*
X96286561Y-106574291D01*
X96329491Y-106618747D01*
X96467189Y-106708854D01*
X96621428Y-106766215D01*
X96628409Y-106767146D01*
X96628411Y-106767147D01*
X96777561Y-106787048D01*
X96777565Y-106787048D01*
X96784542Y-106787979D01*
X96791553Y-106787341D01*
X96791557Y-106787341D01*
X96941403Y-106773704D01*
X96941404Y-106773704D01*
X96948424Y-106773065D01*
X96977062Y-106763760D01*
X97098230Y-106724390D01*
X97098233Y-106724389D01*
X97104929Y-106722213D01*
X97246279Y-106637951D01*
X97365449Y-106524468D01*
X97370313Y-106517147D01*
X97452614Y-106393275D01*
X97452615Y-106393273D01*
X97456515Y-106387403D01*
X97514951Y-106233568D01*
X97528020Y-106140579D01*
X97537302Y-106074534D01*
X97537303Y-106074527D01*
X97537853Y-106070610D01*
X97538141Y-106050000D01*
X97519798Y-105886466D01*
X97517114Y-105878757D01*
X97478752Y-105768597D01*
X97465680Y-105731060D01*
X97437662Y-105686221D01*
X97382209Y-105597479D01*
X97378476Y-105591505D01*
X97313612Y-105526187D01*
X97267486Y-105479737D01*
X97267482Y-105479734D01*
X97262522Y-105474739D01*
X97123580Y-105386563D01*
X97074447Y-105369068D01*
X96975189Y-105333723D01*
X96975187Y-105333722D01*
X96968555Y-105331361D01*
X96961569Y-105330528D01*
X96961565Y-105330527D01*
X96847071Y-105316875D01*
X96805153Y-105311877D01*
X96798150Y-105312613D01*
X96798149Y-105312613D01*
X96754935Y-105317155D01*
X96641495Y-105329078D01*
X96634827Y-105331348D01*
X96492382Y-105379840D01*
X96492379Y-105379841D01*
X96485715Y-105382110D01*
X96345555Y-105468337D01*
X96336962Y-105476752D01*
X96274468Y-105537951D01*
X96227982Y-105583473D01*
X96138838Y-105721797D01*
X96136427Y-105728420D01*
X96136426Y-105728423D01*
X96084966Y-105869809D01*
X96084965Y-105869814D01*
X96082556Y-105876432D01*
X96061931Y-106039694D01*
X91041773Y-106039694D01*
X90994502Y-106008111D01*
X90981425Y-105998077D01*
X90797982Y-105837209D01*
X90786326Y-105825553D01*
X90785613Y-105824739D01*
X90625466Y-105642130D01*
X90615432Y-105629054D01*
X90554151Y-105537341D01*
X90479880Y-105426186D01*
X90471643Y-105411918D01*
X90363735Y-105193093D01*
X90357428Y-105177866D01*
X90345687Y-105143275D01*
X90279010Y-104946833D01*
X90274748Y-104930928D01*
X90227157Y-104691620D01*
X90225007Y-104675287D01*
X90222180Y-104632110D01*
X90211251Y-104465238D01*
X90212261Y-104442597D01*
X90212308Y-104438734D01*
X90213690Y-104429863D01*
X90209562Y-104398280D01*
X90208499Y-104381951D01*
X90208499Y-101539694D01*
X92311931Y-101539694D01*
X92327989Y-101703468D01*
X92379932Y-101859615D01*
X92383581Y-101865640D01*
X92458627Y-101989554D01*
X92465179Y-102000373D01*
X92470070Y-102005438D01*
X92470071Y-102005439D01*
X92499157Y-102035558D01*
X92579491Y-102118747D01*
X92717189Y-102208854D01*
X92871428Y-102266215D01*
X92878409Y-102267146D01*
X92878411Y-102267147D01*
X93027561Y-102287048D01*
X93027565Y-102287048D01*
X93034542Y-102287979D01*
X93179718Y-102274767D01*
X93249369Y-102288514D01*
X93300533Y-102337735D01*
X93316747Y-102410134D01*
X93306526Y-102540000D01*
X93306914Y-102544930D01*
X93316777Y-102670246D01*
X93302181Y-102739726D01*
X93252339Y-102790285D01*
X93231770Y-102799410D01*
X93142384Y-102829839D01*
X93142379Y-102829841D01*
X93135715Y-102832110D01*
X92995555Y-102918337D01*
X92877982Y-103033473D01*
X92788838Y-103171797D01*
X92786427Y-103178420D01*
X92786426Y-103178423D01*
X92734966Y-103319809D01*
X92734965Y-103319814D01*
X92732556Y-103326432D01*
X92711931Y-103489694D01*
X92727989Y-103653468D01*
X92779932Y-103809615D01*
X92783581Y-103815640D01*
X92856757Y-103936466D01*
X92865179Y-103950373D01*
X92870070Y-103955438D01*
X92870071Y-103955439D01*
X92888447Y-103974468D01*
X92979491Y-104068747D01*
X93117189Y-104158854D01*
X93271428Y-104216215D01*
X93278409Y-104217146D01*
X93278411Y-104217147D01*
X93427561Y-104237048D01*
X93427565Y-104237048D01*
X93434542Y-104237979D01*
X93441553Y-104237341D01*
X93441557Y-104237341D01*
X93591403Y-104223704D01*
X93591404Y-104223704D01*
X93598424Y-104223065D01*
X93634873Y-104211222D01*
X93748230Y-104174390D01*
X93748233Y-104174389D01*
X93754929Y-104172213D01*
X93896279Y-104087951D01*
X94010662Y-103979026D01*
X94073786Y-103946535D01*
X94144457Y-103953328D01*
X94163381Y-103962837D01*
X94187498Y-103977616D01*
X94192068Y-103979509D01*
X94192070Y-103979510D01*
X94414166Y-104071505D01*
X94421409Y-104074505D01*
X94440457Y-104079078D01*
X94451303Y-104081682D01*
X94512873Y-104117035D01*
X94545555Y-104180061D01*
X94538974Y-104250752D01*
X94495220Y-104306664D01*
X94487911Y-104311518D01*
X94401562Y-104364640D01*
X94401553Y-104364647D01*
X94395555Y-104368337D01*
X94345587Y-104417269D01*
X94295958Y-104465870D01*
X94277982Y-104483473D01*
X94188838Y-104621797D01*
X94186427Y-104628420D01*
X94186426Y-104628423D01*
X94134966Y-104769809D01*
X94134965Y-104769814D01*
X94132556Y-104776432D01*
X94111931Y-104939694D01*
X94127989Y-105103468D01*
X94179932Y-105259615D01*
X94183581Y-105265640D01*
X94259839Y-105391555D01*
X94265179Y-105400373D01*
X94270070Y-105405438D01*
X94270071Y-105405439D01*
X94329106Y-105466572D01*
X94379491Y-105518747D01*
X94517189Y-105608854D01*
X94671428Y-105666215D01*
X94678409Y-105667146D01*
X94678411Y-105667147D01*
X94827561Y-105687048D01*
X94827565Y-105687048D01*
X94834542Y-105687979D01*
X94841553Y-105687341D01*
X94841557Y-105687341D01*
X94991403Y-105673704D01*
X94991404Y-105673704D01*
X94998424Y-105673065D01*
X95032857Y-105661877D01*
X95148230Y-105624390D01*
X95148233Y-105624389D01*
X95154929Y-105622213D01*
X95296279Y-105537951D01*
X95415449Y-105424468D01*
X95419350Y-105418597D01*
X95502614Y-105293275D01*
X95502615Y-105293273D01*
X95506515Y-105287403D01*
X95564951Y-105133568D01*
X95576709Y-105049904D01*
X95581506Y-105015774D01*
X98638102Y-105015774D01*
X98638302Y-105021103D01*
X98638302Y-105021105D01*
X98640480Y-105079122D01*
X98646751Y-105246158D01*
X98647846Y-105251377D01*
X98663995Y-105328342D01*
X98694093Y-105471791D01*
X98696051Y-105476750D01*
X98696052Y-105476752D01*
X98769906Y-105663760D01*
X98778776Y-105686221D01*
X98781543Y-105690780D01*
X98781544Y-105690783D01*
X98811616Y-105740340D01*
X98898377Y-105883317D01*
X98901874Y-105887347D01*
X99043017Y-106050000D01*
X99049477Y-106057445D01*
X99078278Y-106081060D01*
X99223627Y-106200240D01*
X99223633Y-106200244D01*
X99227755Y-106203624D01*
X99232391Y-106206263D01*
X99232394Y-106206265D01*
X99299300Y-106244350D01*
X99428114Y-106317675D01*
X99644825Y-106396337D01*
X99650074Y-106397286D01*
X99650077Y-106397287D01*
X99867608Y-106436623D01*
X99867615Y-106436624D01*
X99871692Y-106437361D01*
X99889414Y-106438197D01*
X99894356Y-106438430D01*
X99894363Y-106438430D01*
X99895844Y-106438500D01*
X100057890Y-106438500D01*
X100124809Y-106432822D01*
X100224409Y-106424371D01*
X100224413Y-106424370D01*
X100229720Y-106423920D01*
X100234875Y-106422582D01*
X100234881Y-106422581D01*
X100447703Y-106367343D01*
X100447707Y-106367342D01*
X100452872Y-106366001D01*
X100457738Y-106363809D01*
X100457741Y-106363808D01*
X100658202Y-106273507D01*
X100663075Y-106271312D01*
X100854319Y-106142559D01*
X100858177Y-106138879D01*
X100858184Y-106138873D01*
X101003969Y-105999800D01*
X101067065Y-105967252D01*
X101137742Y-105973983D01*
X101193560Y-106017857D01*
X101210499Y-106051197D01*
X101229932Y-106109615D01*
X101233581Y-106115640D01*
X101306757Y-106236466D01*
X101315179Y-106250373D01*
X101429491Y-106368747D01*
X101567189Y-106458854D01*
X101721428Y-106516215D01*
X101728409Y-106517146D01*
X101728411Y-106517147D01*
X101877561Y-106537048D01*
X101877565Y-106537048D01*
X101884542Y-106537979D01*
X101891553Y-106537341D01*
X101891557Y-106537341D01*
X102041403Y-106523704D01*
X102041404Y-106523704D01*
X102048424Y-106523065D01*
X102102671Y-106505439D01*
X102198230Y-106474390D01*
X102198233Y-106474389D01*
X102204929Y-106472213D01*
X102346279Y-106387951D01*
X102465449Y-106274468D01*
X102481458Y-106250373D01*
X102552614Y-106143275D01*
X102552615Y-106143273D01*
X102556515Y-106137403D01*
X102565586Y-106113524D01*
X102608472Y-106056947D01*
X102675140Y-106032537D01*
X102700037Y-106033375D01*
X102727561Y-106037048D01*
X102727565Y-106037048D01*
X102734542Y-106037979D01*
X102741553Y-106037341D01*
X102741557Y-106037341D01*
X102891403Y-106023704D01*
X102891404Y-106023704D01*
X102898424Y-106023065D01*
X102944447Y-106008111D01*
X103048230Y-105974390D01*
X103048233Y-105974389D01*
X103054929Y-105972213D01*
X103196279Y-105887951D01*
X103315449Y-105774468D01*
X103338124Y-105740340D01*
X103402614Y-105643275D01*
X103402615Y-105643273D01*
X103406515Y-105637403D01*
X103417998Y-105607174D01*
X103460884Y-105550598D01*
X103527552Y-105526187D01*
X103552444Y-105527025D01*
X103597946Y-105533096D01*
X103627562Y-105537048D01*
X103627565Y-105537048D01*
X103634542Y-105537979D01*
X103641553Y-105537341D01*
X103641557Y-105537341D01*
X103791403Y-105523704D01*
X103791404Y-105523704D01*
X103798424Y-105523065D01*
X103838440Y-105510063D01*
X103948230Y-105474390D01*
X103948233Y-105474389D01*
X103954929Y-105472213D01*
X104096279Y-105387951D01*
X104215449Y-105274468D01*
X104219350Y-105268597D01*
X104302614Y-105143275D01*
X104302615Y-105143273D01*
X104306515Y-105137403D01*
X104364951Y-104983568D01*
X104369669Y-104950000D01*
X104372173Y-104932183D01*
X104401462Y-104867509D01*
X104461066Y-104828937D01*
X104485525Y-104824239D01*
X104491403Y-104823704D01*
X104498424Y-104823065D01*
X104505126Y-104820887D01*
X104505128Y-104820887D01*
X104648230Y-104774390D01*
X104648233Y-104774389D01*
X104654929Y-104772213D01*
X104796279Y-104687951D01*
X104915449Y-104574468D01*
X104920377Y-104567051D01*
X105002614Y-104443275D01*
X105002615Y-104443273D01*
X105006515Y-104437403D01*
X105064951Y-104283568D01*
X105075026Y-104211877D01*
X105087302Y-104124534D01*
X105087303Y-104124527D01*
X105087853Y-104120610D01*
X105088049Y-104106588D01*
X105088086Y-104103962D01*
X105088086Y-104103956D01*
X105088141Y-104100000D01*
X105069798Y-103936466D01*
X105063998Y-103919809D01*
X105025624Y-103809615D01*
X105015680Y-103781060D01*
X105004216Y-103762713D01*
X104932209Y-103647479D01*
X104928476Y-103641505D01*
X104870499Y-103583122D01*
X104817486Y-103529737D01*
X104817482Y-103529734D01*
X104812522Y-103524739D01*
X104673580Y-103436563D01*
X104624447Y-103419068D01*
X104525189Y-103383723D01*
X104525187Y-103383722D01*
X104518555Y-103381361D01*
X104511569Y-103380528D01*
X104511565Y-103380527D01*
X104397071Y-103366875D01*
X104355153Y-103361877D01*
X104348150Y-103362613D01*
X104348149Y-103362613D01*
X104304935Y-103367155D01*
X104191495Y-103379078D01*
X104184827Y-103381348D01*
X104042382Y-103429840D01*
X104042379Y-103429841D01*
X104035715Y-103432110D01*
X103895555Y-103518337D01*
X103777982Y-103633473D01*
X103688838Y-103771797D01*
X103686427Y-103778420D01*
X103686426Y-103778423D01*
X103634966Y-103919809D01*
X103634965Y-103919814D01*
X103632556Y-103926432D01*
X103627427Y-103967030D01*
X103599047Y-104032103D01*
X103539988Y-104071505D01*
X103515594Y-104076545D01*
X103507551Y-104077391D01*
X103491495Y-104079078D01*
X103484827Y-104081348D01*
X103342382Y-104129840D01*
X103342379Y-104129841D01*
X103335715Y-104132110D01*
X103269417Y-104172897D01*
X103206056Y-104211877D01*
X103195555Y-104218337D01*
X103077982Y-104333473D01*
X102988838Y-104471797D01*
X102986427Y-104478420D01*
X102986426Y-104478423D01*
X102981852Y-104490991D01*
X102939758Y-104548163D01*
X102873437Y-104573501D01*
X102848533Y-104573011D01*
X102762147Y-104562711D01*
X102755153Y-104561877D01*
X102748150Y-104562613D01*
X102748149Y-104562613D01*
X102705925Y-104567051D01*
X102591495Y-104579078D01*
X102584827Y-104581348D01*
X102442382Y-104629840D01*
X102442379Y-104629841D01*
X102435715Y-104632110D01*
X102295555Y-104718337D01*
X102177982Y-104833473D01*
X102088838Y-104971797D01*
X102086427Y-104978420D01*
X102086426Y-104978423D01*
X102083930Y-104985281D01*
X102041835Y-105042452D01*
X101975513Y-105067788D01*
X101950616Y-105067298D01*
X101905153Y-105061877D01*
X101898150Y-105062613D01*
X101898149Y-105062613D01*
X101854935Y-105067155D01*
X101741495Y-105079078D01*
X101734827Y-105081348D01*
X101592382Y-105129840D01*
X101592379Y-105129841D01*
X101585715Y-105132110D01*
X101572640Y-105140154D01*
X101550343Y-105153871D01*
X101481842Y-105172530D01*
X101414128Y-105151192D01*
X101368699Y-105096632D01*
X101358409Y-105051281D01*
X101354459Y-104946062D01*
X101353249Y-104913842D01*
X101343528Y-104867509D01*
X101307002Y-104693428D01*
X101305907Y-104688209D01*
X101285210Y-104635801D01*
X101223185Y-104478744D01*
X101223184Y-104478742D01*
X101221224Y-104473779D01*
X101204252Y-104445809D01*
X101104390Y-104281243D01*
X101101623Y-104276683D01*
X101050993Y-104218337D01*
X100954023Y-104106588D01*
X100954021Y-104106586D01*
X100950523Y-104102555D01*
X100908970Y-104068484D01*
X100776373Y-103959760D01*
X100776367Y-103959756D01*
X100772245Y-103956376D01*
X100767609Y-103953737D01*
X100767606Y-103953735D01*
X100581697Y-103847910D01*
X100571886Y-103842325D01*
X100355175Y-103763663D01*
X100349926Y-103762714D01*
X100349923Y-103762713D01*
X100132392Y-103723377D01*
X100132385Y-103723376D01*
X100128308Y-103722639D01*
X100110586Y-103721803D01*
X100105644Y-103721570D01*
X100105637Y-103721570D01*
X100104156Y-103721500D01*
X99942110Y-103721500D01*
X99875191Y-103727178D01*
X99775591Y-103735629D01*
X99775587Y-103735630D01*
X99770280Y-103736080D01*
X99765125Y-103737418D01*
X99765119Y-103737419D01*
X99552297Y-103792657D01*
X99552293Y-103792658D01*
X99547128Y-103793999D01*
X99542262Y-103796191D01*
X99542259Y-103796192D01*
X99433980Y-103844968D01*
X99336925Y-103888688D01*
X99145681Y-104017441D01*
X98978865Y-104176576D01*
X98841246Y-104361542D01*
X98838830Y-104366293D01*
X98838828Y-104366297D01*
X98796284Y-104449976D01*
X98736760Y-104567051D01*
X98735178Y-104572145D01*
X98735177Y-104572148D01*
X98683542Y-104738441D01*
X98668393Y-104787227D01*
X98667692Y-104792516D01*
X98641498Y-104990154D01*
X98638102Y-105015774D01*
X95581506Y-105015774D01*
X95587302Y-104974534D01*
X95587303Y-104974527D01*
X95587853Y-104970610D01*
X95588141Y-104950000D01*
X95569798Y-104786466D01*
X95563998Y-104769809D01*
X95536759Y-104691591D01*
X95515680Y-104631060D01*
X95484625Y-104581361D01*
X95432209Y-104497479D01*
X95428476Y-104491505D01*
X95363597Y-104426172D01*
X95317486Y-104379737D01*
X95317482Y-104379734D01*
X95312522Y-104374739D01*
X95306573Y-104370964D01*
X95306571Y-104370962D01*
X95249630Y-104334826D01*
X95202831Y-104281437D01*
X95192326Y-104211222D01*
X95221450Y-104146474D01*
X95287730Y-104105922D01*
X95362584Y-104087951D01*
X95418591Y-104074505D01*
X95425834Y-104071505D01*
X95647928Y-103979511D01*
X95647932Y-103979509D01*
X95652502Y-103977616D01*
X95868376Y-103845328D01*
X96060898Y-103680898D01*
X96225328Y-103488376D01*
X96357616Y-103272502D01*
X96399330Y-103171797D01*
X96452611Y-103043164D01*
X96452612Y-103043162D01*
X96454505Y-103038591D01*
X96484262Y-102914645D01*
X96512454Y-102797216D01*
X96512455Y-102797210D01*
X96513609Y-102792403D01*
X96533474Y-102540000D01*
X96513609Y-102287597D01*
X96511018Y-102276802D01*
X96470746Y-102109059D01*
X96454505Y-102041409D01*
X96452611Y-102036836D01*
X96359511Y-101812072D01*
X96359509Y-101812068D01*
X96357616Y-101807498D01*
X96225328Y-101591624D01*
X96060898Y-101399102D01*
X96042542Y-101383424D01*
X95988242Y-101337048D01*
X95868376Y-101234672D01*
X95652502Y-101102384D01*
X95647932Y-101100491D01*
X95647928Y-101100489D01*
X95423164Y-101007389D01*
X95423162Y-101007388D01*
X95418591Y-101005495D01*
X95333968Y-100985179D01*
X95177216Y-100947546D01*
X95177210Y-100947545D01*
X95172403Y-100946391D01*
X94920000Y-100926526D01*
X94667597Y-100946391D01*
X94662790Y-100947545D01*
X94662784Y-100947546D01*
X94506032Y-100985179D01*
X94421409Y-101005495D01*
X94416838Y-101007388D01*
X94416836Y-101007389D01*
X94192072Y-101100489D01*
X94192068Y-101100491D01*
X94187498Y-101102384D01*
X93971624Y-101234672D01*
X93940435Y-101261310D01*
X93915250Y-101282820D01*
X93850460Y-101311851D01*
X93780260Y-101301246D01*
X93726937Y-101254371D01*
X93719788Y-101241451D01*
X93717996Y-101237711D01*
X93715680Y-101231060D01*
X93628476Y-101091505D01*
X93544945Y-101007389D01*
X93517486Y-100979737D01*
X93517482Y-100979734D01*
X93512522Y-100974739D01*
X93373580Y-100886563D01*
X93253030Y-100843637D01*
X93225189Y-100833723D01*
X93225187Y-100833722D01*
X93218555Y-100831361D01*
X93211569Y-100830528D01*
X93211565Y-100830527D01*
X93097071Y-100816875D01*
X93055153Y-100811877D01*
X93048150Y-100812613D01*
X93048149Y-100812613D01*
X93004935Y-100817155D01*
X92891495Y-100829078D01*
X92884827Y-100831348D01*
X92742382Y-100879840D01*
X92742379Y-100879841D01*
X92735715Y-100882110D01*
X92681213Y-100915640D01*
X92608569Y-100960331D01*
X92595555Y-100968337D01*
X92533066Y-101029531D01*
X92511783Y-101050373D01*
X92477982Y-101083473D01*
X92388838Y-101221797D01*
X92386427Y-101228420D01*
X92386426Y-101228423D01*
X92334966Y-101369809D01*
X92334965Y-101369814D01*
X92332556Y-101376432D01*
X92311931Y-101539694D01*
X90208499Y-101539694D01*
X90208499Y-100157821D01*
X97491500Y-100157821D01*
X97531060Y-100470975D01*
X97609557Y-100776702D01*
X97611010Y-100780371D01*
X97611010Y-100780372D01*
X97721146Y-101058542D01*
X97725753Y-101070179D01*
X97727659Y-101073647D01*
X97727660Y-101073648D01*
X97861526Y-101317147D01*
X97877816Y-101346779D01*
X98063346Y-101602140D01*
X98164777Y-101710153D01*
X98260486Y-101812072D01*
X98279418Y-101832233D01*
X98522625Y-102033432D01*
X98789131Y-102202562D01*
X98792710Y-102204246D01*
X98792717Y-102204250D01*
X99071144Y-102335267D01*
X99071148Y-102335269D01*
X99074734Y-102336956D01*
X99374928Y-102434495D01*
X99684980Y-102493641D01*
X99921162Y-102508500D01*
X100078838Y-102508500D01*
X100315020Y-102493641D01*
X100625072Y-102434495D01*
X100925266Y-102336956D01*
X100928852Y-102335269D01*
X100928856Y-102335267D01*
X101207283Y-102204250D01*
X101207290Y-102204246D01*
X101210869Y-102202562D01*
X101477375Y-102033432D01*
X101720582Y-101832233D01*
X101739515Y-101812072D01*
X101835223Y-101710153D01*
X101936654Y-101602140D01*
X102122184Y-101346779D01*
X102138475Y-101317147D01*
X102272340Y-101073648D01*
X102272341Y-101073647D01*
X102274247Y-101070179D01*
X102278855Y-101058542D01*
X102388990Y-100780372D01*
X102388990Y-100780371D01*
X102390443Y-100776702D01*
X102468940Y-100470975D01*
X102508500Y-100157821D01*
X102508500Y-99842179D01*
X102468940Y-99529025D01*
X102390443Y-99223298D01*
X102331761Y-99075084D01*
X102275702Y-98933495D01*
X102275700Y-98933490D01*
X102274247Y-98929821D01*
X102272340Y-98926352D01*
X102138877Y-98683585D01*
X102950962Y-98683585D01*
X102964536Y-98867146D01*
X103011114Y-99045218D01*
X103013545Y-99050412D01*
X103013546Y-99050413D01*
X103023824Y-99072366D01*
X103067399Y-99165440D01*
X103069923Y-99170832D01*
X103073627Y-99179592D01*
X103081961Y-99201584D01*
X103081962Y-99201585D01*
X103080965Y-99201963D01*
X103091501Y-99249133D01*
X103091501Y-100745106D01*
X103090003Y-100764477D01*
X103087665Y-100779504D01*
X103077277Y-100813556D01*
X103011151Y-100954796D01*
X102964575Y-101132861D01*
X102951002Y-101316415D01*
X102951621Y-101322113D01*
X102951621Y-101322115D01*
X102958612Y-101386466D01*
X102970880Y-101499394D01*
X102972522Y-101504893D01*
X102972523Y-101504896D01*
X102982916Y-101539694D01*
X103023553Y-101675752D01*
X103107281Y-101839661D01*
X103219297Y-101985705D01*
X103223557Y-101989552D01*
X103223559Y-101989554D01*
X103286312Y-102046221D01*
X103355899Y-102109059D01*
X103434236Y-102157353D01*
X103507689Y-102202636D01*
X103507693Y-102202638D01*
X103512574Y-102205647D01*
X103517917Y-102207722D01*
X103517921Y-102207724D01*
X103624071Y-102248947D01*
X103684146Y-102272278D01*
X103689778Y-102273352D01*
X103689782Y-102273353D01*
X103859304Y-102305675D01*
X103859308Y-102305675D01*
X103864944Y-102306750D01*
X103870682Y-102306787D01*
X103870686Y-102306787D01*
X103956241Y-102307332D01*
X104048996Y-102307924D01*
X104230219Y-102275760D01*
X104360135Y-102227204D01*
X104369170Y-102224212D01*
X104387074Y-102219026D01*
X104387086Y-102219021D01*
X104391751Y-102217670D01*
X104394463Y-102216405D01*
X104421216Y-102209727D01*
X104422496Y-102209560D01*
X104438810Y-102208499D01*
X105753455Y-102208499D01*
X105772850Y-102210001D01*
X105788012Y-102212363D01*
X105795952Y-102213600D01*
X105820669Y-102220072D01*
X105969770Y-102275799D01*
X105975420Y-102276802D01*
X105975421Y-102276802D01*
X106145348Y-102306960D01*
X106145351Y-102306960D01*
X106151001Y-102307963D01*
X106243030Y-102307377D01*
X106329318Y-102306827D01*
X106329322Y-102306827D01*
X106335060Y-102306790D01*
X106340696Y-102305715D01*
X106340700Y-102305715D01*
X106510230Y-102273391D01*
X106510234Y-102273390D01*
X106515866Y-102272316D01*
X106687444Y-102205683D01*
X106765785Y-102157387D01*
X106839241Y-102112103D01*
X106839245Y-102112100D01*
X106844126Y-102109091D01*
X106848756Y-102104910D01*
X106976477Y-101989575D01*
X106976481Y-101989571D01*
X106980733Y-101985731D01*
X106984221Y-101981183D01*
X106984225Y-101981179D01*
X107039753Y-101908782D01*
X107092753Y-101839681D01*
X107176484Y-101675765D01*
X107229159Y-101499401D01*
X107239647Y-101402858D01*
X107248419Y-101322114D01*
X107248419Y-101322112D01*
X107249038Y-101316414D01*
X107241603Y-101215870D01*
X107235887Y-101138568D01*
X107235886Y-101138564D01*
X107235464Y-101132853D01*
X107202646Y-101007389D01*
X107190337Y-100960331D01*
X107190336Y-100960328D01*
X107188885Y-100954781D01*
X107154862Y-100882110D01*
X107130079Y-100829174D01*
X107126367Y-100820396D01*
X107118039Y-100798418D01*
X107119036Y-100798040D01*
X107108500Y-100750870D01*
X107108500Y-99254888D01*
X107109999Y-99235513D01*
X107112336Y-99220496D01*
X107122724Y-99186447D01*
X107186414Y-99050405D01*
X107188849Y-99045204D01*
X107235426Y-98867139D01*
X107248999Y-98683584D01*
X107246732Y-98662711D01*
X107229741Y-98506313D01*
X107229740Y-98506307D01*
X107229121Y-98500605D01*
X107220191Y-98470704D01*
X107178088Y-98329742D01*
X107176447Y-98324247D01*
X107092719Y-98160338D01*
X106980703Y-98014294D01*
X106844101Y-97890939D01*
X106839220Y-97887930D01*
X106839216Y-97887927D01*
X106730020Y-97820610D01*
X106687425Y-97794351D01*
X106682082Y-97792276D01*
X106682078Y-97792274D01*
X106521206Y-97729799D01*
X106521207Y-97729799D01*
X106515853Y-97727720D01*
X106335054Y-97693249D01*
X106329315Y-97693212D01*
X106329311Y-97693212D01*
X106243712Y-97692667D01*
X106151002Y-97692076D01*
X106145352Y-97693079D01*
X106145349Y-97693079D01*
X105975434Y-97723235D01*
X105975430Y-97723236D01*
X105969779Y-97724239D01*
X105964406Y-97726247D01*
X105964403Y-97726248D01*
X105839860Y-97772797D01*
X105830811Y-97775794D01*
X105808247Y-97782331D01*
X105805510Y-97783608D01*
X105778739Y-97790287D01*
X105777561Y-97790441D01*
X105761254Y-97791501D01*
X104446545Y-97791501D01*
X104427150Y-97789999D01*
X104404048Y-97786400D01*
X104379333Y-97779928D01*
X104340502Y-97765415D01*
X104230230Y-97724201D01*
X104224579Y-97723198D01*
X104054652Y-97693040D01*
X104054649Y-97693040D01*
X104048999Y-97692037D01*
X103956288Y-97692628D01*
X103870683Y-97693173D01*
X103870679Y-97693173D01*
X103864940Y-97693210D01*
X103684134Y-97727683D01*
X103646629Y-97742249D01*
X103517903Y-97792240D01*
X103517899Y-97792242D01*
X103512556Y-97794317D01*
X103507676Y-97797326D01*
X103507671Y-97797328D01*
X103476331Y-97816649D01*
X103355875Y-97890909D01*
X103219267Y-98014268D01*
X103107247Y-98160319D01*
X103104640Y-98165422D01*
X103104639Y-98165424D01*
X103064322Y-98244350D01*
X103023516Y-98324234D01*
X102970841Y-98500599D01*
X102966780Y-98537979D01*
X102953143Y-98663513D01*
X102950962Y-98683585D01*
X102138877Y-98683585D01*
X102124093Y-98656693D01*
X102124091Y-98656690D01*
X102122184Y-98653221D01*
X101936654Y-98397860D01*
X101720582Y-98167767D01*
X101690977Y-98143275D01*
X101480427Y-97969093D01*
X101477375Y-97966568D01*
X101210869Y-97797438D01*
X101207290Y-97795754D01*
X101207283Y-97795750D01*
X100928856Y-97664733D01*
X100928852Y-97664731D01*
X100925266Y-97663044D01*
X100822989Y-97629812D01*
X100628848Y-97566732D01*
X100628850Y-97566732D01*
X100625072Y-97565505D01*
X100315020Y-97506359D01*
X100078838Y-97491500D01*
X99921162Y-97491500D01*
X99684980Y-97506359D01*
X99374928Y-97565505D01*
X99371150Y-97566732D01*
X99371152Y-97566732D01*
X99177012Y-97629812D01*
X99074734Y-97663044D01*
X99071148Y-97664731D01*
X99071144Y-97664733D01*
X98792717Y-97795750D01*
X98792710Y-97795754D01*
X98789131Y-97797438D01*
X98522625Y-97966568D01*
X98519573Y-97969093D01*
X98309024Y-98143275D01*
X98279418Y-98167767D01*
X98063346Y-98397860D01*
X97877816Y-98653221D01*
X97875909Y-98656690D01*
X97875907Y-98656693D01*
X97727660Y-98926352D01*
X97725753Y-98929821D01*
X97724300Y-98933490D01*
X97724298Y-98933495D01*
X97668239Y-99075084D01*
X97609557Y-99223298D01*
X97531060Y-99529025D01*
X97491500Y-99842179D01*
X97491500Y-100157821D01*
X90208499Y-100157821D01*
X90208499Y-97789694D01*
X91811931Y-97789694D01*
X91827989Y-97953468D01*
X91879932Y-98109615D01*
X91965179Y-98250373D01*
X92079491Y-98368747D01*
X92217189Y-98458854D01*
X92371428Y-98516215D01*
X92378409Y-98517146D01*
X92378411Y-98517147D01*
X92527561Y-98537048D01*
X92527565Y-98537048D01*
X92534542Y-98537979D01*
X92541553Y-98537341D01*
X92541557Y-98537341D01*
X92605989Y-98531477D01*
X92675642Y-98545222D01*
X92726806Y-98594444D01*
X92743237Y-98663513D01*
X92719719Y-98730501D01*
X92683430Y-98764276D01*
X92603044Y-98813730D01*
X92595555Y-98818337D01*
X92533066Y-98879531D01*
X92485254Y-98926352D01*
X92477982Y-98933473D01*
X92388838Y-99071797D01*
X92386427Y-99078420D01*
X92386426Y-99078423D01*
X92334966Y-99219809D01*
X92334965Y-99219814D01*
X92332556Y-99226432D01*
X92311931Y-99389694D01*
X92327989Y-99553468D01*
X92379932Y-99709615D01*
X92465179Y-99850373D01*
X92470070Y-99855438D01*
X92470071Y-99855439D01*
X92482256Y-99868057D01*
X92579491Y-99968747D01*
X92717189Y-100058854D01*
X92871428Y-100116215D01*
X92878409Y-100117146D01*
X92878411Y-100117147D01*
X93027561Y-100137048D01*
X93027565Y-100137048D01*
X93034542Y-100137979D01*
X93041553Y-100137341D01*
X93041557Y-100137341D01*
X93191403Y-100123704D01*
X93191404Y-100123704D01*
X93198424Y-100123065D01*
X93227062Y-100113760D01*
X93348230Y-100074390D01*
X93348233Y-100074389D01*
X93354929Y-100072213D01*
X93496279Y-99987951D01*
X93615449Y-99874468D01*
X93619350Y-99868597D01*
X93702614Y-99743275D01*
X93702615Y-99743273D01*
X93706515Y-99737403D01*
X93764951Y-99583568D01*
X93787853Y-99420610D01*
X93788141Y-99400000D01*
X93769798Y-99236466D01*
X93765213Y-99223298D01*
X93717998Y-99087717D01*
X93715680Y-99081060D01*
X93710248Y-99072366D01*
X93632209Y-98947479D01*
X93628476Y-98941505D01*
X93548950Y-98861422D01*
X93517486Y-98829737D01*
X93517482Y-98829734D01*
X93512522Y-98824739D01*
X93373580Y-98736563D01*
X93240859Y-98689303D01*
X93225189Y-98683723D01*
X93225187Y-98683722D01*
X93218555Y-98681361D01*
X93211569Y-98680528D01*
X93211565Y-98680527D01*
X93097071Y-98666875D01*
X93055153Y-98661877D01*
X93048150Y-98662613D01*
X93048149Y-98662613D01*
X92995743Y-98668121D01*
X92925905Y-98655349D01*
X92874058Y-98606847D01*
X92856664Y-98538014D01*
X92879246Y-98470704D01*
X92918055Y-98434582D01*
X92974282Y-98401064D01*
X92996279Y-98387951D01*
X93115449Y-98274468D01*
X93131458Y-98250373D01*
X93202614Y-98143275D01*
X93202615Y-98143273D01*
X93206515Y-98137403D01*
X93264951Y-97983568D01*
X93273507Y-97922689D01*
X93287302Y-97824534D01*
X93287303Y-97824527D01*
X93287853Y-97820610D01*
X93288141Y-97800000D01*
X93269798Y-97636466D01*
X93263998Y-97619809D01*
X93219359Y-97491626D01*
X93215680Y-97481060D01*
X93128476Y-97341505D01*
X93070499Y-97283122D01*
X93017486Y-97229737D01*
X93017482Y-97229734D01*
X93012522Y-97224739D01*
X92873580Y-97136563D01*
X92824447Y-97119068D01*
X92725189Y-97083723D01*
X92725187Y-97083722D01*
X92718555Y-97081361D01*
X92711569Y-97080528D01*
X92711565Y-97080527D01*
X92597071Y-97066875D01*
X92555153Y-97061877D01*
X92548150Y-97062613D01*
X92548149Y-97062613D01*
X92504935Y-97067155D01*
X92391495Y-97079078D01*
X92384827Y-97081348D01*
X92242382Y-97129840D01*
X92242379Y-97129841D01*
X92235715Y-97132110D01*
X92095555Y-97218337D01*
X91977982Y-97333473D01*
X91888838Y-97471797D01*
X91886427Y-97478420D01*
X91886426Y-97478423D01*
X91834966Y-97619809D01*
X91834965Y-97619814D01*
X91832556Y-97626432D01*
X91811931Y-97789694D01*
X90208499Y-97789694D01*
X90208499Y-95589694D01*
X94661931Y-95589694D01*
X94677989Y-95753468D01*
X94729932Y-95909615D01*
X94733581Y-95915640D01*
X94811092Y-96043624D01*
X94815179Y-96050373D01*
X94929491Y-96168747D01*
X95067189Y-96258854D01*
X95221428Y-96316215D01*
X95228409Y-96317146D01*
X95228411Y-96317147D01*
X95377561Y-96337048D01*
X95377565Y-96337048D01*
X95384542Y-96337979D01*
X95391553Y-96337341D01*
X95391557Y-96337341D01*
X95541403Y-96323704D01*
X95541404Y-96323704D01*
X95548424Y-96323065D01*
X95577062Y-96313760D01*
X95698230Y-96274390D01*
X95698233Y-96274389D01*
X95704929Y-96272213D01*
X95846279Y-96187951D01*
X95965449Y-96074468D01*
X95984187Y-96046265D01*
X96052614Y-95943275D01*
X96052615Y-95943273D01*
X96056515Y-95937403D01*
X96065586Y-95913524D01*
X96108472Y-95856947D01*
X96175140Y-95832537D01*
X96200037Y-95833375D01*
X96227561Y-95837048D01*
X96227565Y-95837048D01*
X96234542Y-95837979D01*
X96241553Y-95837341D01*
X96241557Y-95837341D01*
X96391403Y-95823704D01*
X96391404Y-95823704D01*
X96398424Y-95823065D01*
X96421455Y-95815582D01*
X96548230Y-95774390D01*
X96548233Y-95774389D01*
X96554929Y-95772213D01*
X96696279Y-95687951D01*
X96815449Y-95574468D01*
X96819350Y-95568597D01*
X96902614Y-95443275D01*
X96902615Y-95443273D01*
X96906515Y-95437403D01*
X96917998Y-95407174D01*
X96960884Y-95350598D01*
X97027552Y-95326187D01*
X97052444Y-95327025D01*
X97101435Y-95333562D01*
X97127562Y-95337048D01*
X97127565Y-95337048D01*
X97134542Y-95337979D01*
X97141553Y-95337341D01*
X97141557Y-95337341D01*
X97291403Y-95323704D01*
X97291404Y-95323704D01*
X97298424Y-95323065D01*
X97349184Y-95306572D01*
X97448230Y-95274390D01*
X97448233Y-95274389D01*
X97454929Y-95272213D01*
X97596279Y-95187951D01*
X97715449Y-95074468D01*
X97749468Y-95023266D01*
X97802614Y-94943275D01*
X97802615Y-94943273D01*
X97806515Y-94937403D01*
X97837523Y-94855774D01*
X98638102Y-94855774D01*
X98638302Y-94861103D01*
X98638302Y-94861105D01*
X98639062Y-94881348D01*
X98646751Y-95086158D01*
X98694093Y-95311791D01*
X98696051Y-95316750D01*
X98696052Y-95316752D01*
X98751246Y-95456510D01*
X98778776Y-95526221D01*
X98781543Y-95530780D01*
X98781544Y-95530783D01*
X98813048Y-95582700D01*
X98898377Y-95723317D01*
X98901874Y-95727347D01*
X99014335Y-95856947D01*
X99049477Y-95897445D01*
X99090178Y-95930818D01*
X99223627Y-96040240D01*
X99223633Y-96040244D01*
X99227755Y-96043624D01*
X99232391Y-96046263D01*
X99232394Y-96046265D01*
X99271626Y-96068597D01*
X99428114Y-96157675D01*
X99644825Y-96236337D01*
X99650074Y-96237286D01*
X99650077Y-96237287D01*
X99867608Y-96276623D01*
X99867615Y-96276624D01*
X99871692Y-96277361D01*
X99889414Y-96278197D01*
X99894356Y-96278430D01*
X99894363Y-96278430D01*
X99895844Y-96278500D01*
X100057890Y-96278500D01*
X100124809Y-96272822D01*
X100224409Y-96264371D01*
X100224413Y-96264370D01*
X100229720Y-96263920D01*
X100234875Y-96262582D01*
X100234881Y-96262581D01*
X100447703Y-96207343D01*
X100447707Y-96207342D01*
X100452872Y-96206001D01*
X100457738Y-96203809D01*
X100457741Y-96203808D01*
X100658202Y-96113507D01*
X100663075Y-96111312D01*
X100854319Y-95982559D01*
X101021135Y-95823424D01*
X101158754Y-95638458D01*
X101179982Y-95596707D01*
X101251261Y-95456510D01*
X101263240Y-95432949D01*
X101268226Y-95416894D01*
X101330024Y-95217871D01*
X101331607Y-95212773D01*
X101339006Y-95156950D01*
X101361198Y-94989511D01*
X101361198Y-94989506D01*
X101361898Y-94984226D01*
X101359942Y-94932110D01*
X101353923Y-94771797D01*
X101353249Y-94753842D01*
X101305907Y-94528209D01*
X101303948Y-94523248D01*
X101223185Y-94318744D01*
X101223184Y-94318742D01*
X101221224Y-94313779D01*
X101199770Y-94278423D01*
X101128955Y-94161724D01*
X101101623Y-94116683D01*
X101091480Y-94104994D01*
X100954023Y-93946588D01*
X100954021Y-93946586D01*
X100950523Y-93942555D01*
X100875876Y-93881348D01*
X100776373Y-93799760D01*
X100776367Y-93799756D01*
X100772245Y-93796376D01*
X100767609Y-93793737D01*
X100767606Y-93793735D01*
X100576529Y-93684968D01*
X100571886Y-93682325D01*
X100355175Y-93603663D01*
X100349926Y-93602714D01*
X100349923Y-93602713D01*
X100132392Y-93563377D01*
X100132385Y-93563376D01*
X100128308Y-93562639D01*
X100110586Y-93561803D01*
X100105644Y-93561570D01*
X100105637Y-93561570D01*
X100104156Y-93561500D01*
X99942110Y-93561500D01*
X99875191Y-93567178D01*
X99775591Y-93575629D01*
X99775587Y-93575630D01*
X99770280Y-93576080D01*
X99765125Y-93577418D01*
X99765119Y-93577419D01*
X99552297Y-93632657D01*
X99552293Y-93632658D01*
X99547128Y-93633999D01*
X99542262Y-93636191D01*
X99542259Y-93636192D01*
X99439377Y-93682537D01*
X99336925Y-93728688D01*
X99145681Y-93857441D01*
X99141824Y-93861120D01*
X99141822Y-93861122D01*
X99100677Y-93900373D01*
X98978865Y-94016576D01*
X98975682Y-94020854D01*
X98960280Y-94041555D01*
X98841246Y-94201542D01*
X98838830Y-94206293D01*
X98838828Y-94206297D01*
X98803855Y-94275084D01*
X98736760Y-94407051D01*
X98735178Y-94412145D01*
X98735177Y-94412148D01*
X98678070Y-94596062D01*
X98668393Y-94627227D01*
X98667692Y-94632516D01*
X98639868Y-94842452D01*
X98638102Y-94855774D01*
X97837523Y-94855774D01*
X97864951Y-94783568D01*
X97881952Y-94662601D01*
X97887302Y-94624534D01*
X97887303Y-94624527D01*
X97887853Y-94620610D01*
X97888141Y-94600000D01*
X97869798Y-94436466D01*
X97867042Y-94428550D01*
X97817998Y-94287717D01*
X97815680Y-94281060D01*
X97765992Y-94201542D01*
X97732209Y-94147479D01*
X97728476Y-94141505D01*
X97670499Y-94083122D01*
X97617486Y-94029737D01*
X97617482Y-94029734D01*
X97612522Y-94024739D01*
X97473580Y-93936563D01*
X97423126Y-93918597D01*
X97325189Y-93883723D01*
X97325187Y-93883722D01*
X97318555Y-93881361D01*
X97311569Y-93880528D01*
X97311565Y-93880527D01*
X97197071Y-93866875D01*
X97155153Y-93861877D01*
X97148150Y-93862613D01*
X97148149Y-93862613D01*
X97104935Y-93867155D01*
X96991495Y-93879078D01*
X96984827Y-93881348D01*
X96842382Y-93929840D01*
X96842379Y-93929841D01*
X96835715Y-93932110D01*
X96738858Y-93991697D01*
X96704398Y-94012897D01*
X96695555Y-94018337D01*
X96683914Y-94029737D01*
X96593163Y-94118607D01*
X96577982Y-94133473D01*
X96488838Y-94271797D01*
X96486427Y-94278420D01*
X96486426Y-94278423D01*
X96481852Y-94290991D01*
X96439758Y-94348163D01*
X96373437Y-94373501D01*
X96348533Y-94373011D01*
X96262147Y-94362711D01*
X96255153Y-94361877D01*
X96248150Y-94362613D01*
X96248149Y-94362613D01*
X96204935Y-94367155D01*
X96091495Y-94379078D01*
X96084827Y-94381348D01*
X95942382Y-94429840D01*
X95942379Y-94429841D01*
X95935715Y-94432110D01*
X95795555Y-94518337D01*
X95790522Y-94523266D01*
X95708118Y-94603962D01*
X95677982Y-94633473D01*
X95588838Y-94771797D01*
X95586427Y-94778420D01*
X95586426Y-94778423D01*
X95583930Y-94785281D01*
X95541835Y-94842452D01*
X95475513Y-94867788D01*
X95450616Y-94867298D01*
X95405153Y-94861877D01*
X95398150Y-94862613D01*
X95398149Y-94862613D01*
X95354935Y-94867155D01*
X95241495Y-94879078D01*
X95234827Y-94881348D01*
X95092382Y-94929840D01*
X95092379Y-94929841D01*
X95085715Y-94932110D01*
X94945555Y-95018337D01*
X94827982Y-95133473D01*
X94738838Y-95271797D01*
X94736427Y-95278420D01*
X94736426Y-95278423D01*
X94684966Y-95419809D01*
X94684965Y-95419814D01*
X94682556Y-95426432D01*
X94661931Y-95589694D01*
X90208499Y-95589694D01*
X90208499Y-95466263D01*
X90209999Y-95446878D01*
X90212309Y-95432045D01*
X90212309Y-95432041D01*
X90213690Y-95423172D01*
X90211560Y-95406884D01*
X90210766Y-95382306D01*
X90224997Y-95165197D01*
X90227148Y-95148856D01*
X90274749Y-94909554D01*
X90279015Y-94893635D01*
X90357438Y-94662607D01*
X90363745Y-94647379D01*
X90471660Y-94428550D01*
X90479901Y-94414277D01*
X90615448Y-94211418D01*
X90625481Y-94198342D01*
X90718350Y-94092445D01*
X90786360Y-94014895D01*
X90798012Y-94003244D01*
X90798016Y-94003241D01*
X90981444Y-93842380D01*
X90994519Y-93832347D01*
X91043289Y-93799760D01*
X91169478Y-93715444D01*
X91189914Y-93704829D01*
X91193039Y-93703075D01*
X91201410Y-93699837D01*
X91226683Y-93680480D01*
X91240291Y-93671395D01*
X91641609Y-93439694D01*
X94011931Y-93439694D01*
X94027989Y-93603468D01*
X94079932Y-93759615D01*
X94083581Y-93765640D01*
X94153160Y-93880527D01*
X94165179Y-93900373D01*
X94170070Y-93905438D01*
X94170071Y-93905439D01*
X94209808Y-93946588D01*
X94279491Y-94018747D01*
X94417189Y-94108854D01*
X94571428Y-94166215D01*
X94578409Y-94167146D01*
X94578411Y-94167147D01*
X94727561Y-94187048D01*
X94727565Y-94187048D01*
X94734542Y-94187979D01*
X94741553Y-94187341D01*
X94741557Y-94187341D01*
X94891403Y-94173704D01*
X94891404Y-94173704D01*
X94898424Y-94173065D01*
X95002046Y-94139396D01*
X95048230Y-94124390D01*
X95048233Y-94124389D01*
X95054929Y-94122213D01*
X95196279Y-94037951D01*
X95315449Y-93924468D01*
X95331458Y-93900373D01*
X95402614Y-93793275D01*
X95402615Y-93793273D01*
X95406515Y-93787403D01*
X95415586Y-93763524D01*
X95458472Y-93706947D01*
X95525140Y-93682537D01*
X95550037Y-93683375D01*
X95577561Y-93687048D01*
X95577565Y-93687048D01*
X95584542Y-93687979D01*
X95591553Y-93687341D01*
X95591557Y-93687341D01*
X95741403Y-93673704D01*
X95741404Y-93673704D01*
X95748424Y-93673065D01*
X95831364Y-93646116D01*
X95898230Y-93624390D01*
X95898233Y-93624389D01*
X95904929Y-93622213D01*
X96046279Y-93537951D01*
X96165449Y-93424468D01*
X96256515Y-93287403D01*
X96267998Y-93257174D01*
X96310884Y-93200598D01*
X96377552Y-93176187D01*
X96402444Y-93177025D01*
X96451435Y-93183562D01*
X96477562Y-93187048D01*
X96477565Y-93187048D01*
X96484542Y-93187979D01*
X96491553Y-93187341D01*
X96491557Y-93187341D01*
X96641403Y-93173704D01*
X96641404Y-93173704D01*
X96648424Y-93173065D01*
X96688440Y-93160063D01*
X96798230Y-93124390D01*
X96798233Y-93124389D01*
X96804929Y-93122213D01*
X96946279Y-93037951D01*
X97065449Y-92924468D01*
X97099468Y-92873266D01*
X97152614Y-92793275D01*
X97152615Y-92793273D01*
X97156515Y-92787403D01*
X97214951Y-92633568D01*
X97235213Y-92489396D01*
X97237302Y-92474534D01*
X97237303Y-92474527D01*
X97237853Y-92470610D01*
X97238141Y-92450000D01*
X97219798Y-92286466D01*
X97165680Y-92131060D01*
X97078476Y-91991505D01*
X97020499Y-91933122D01*
X96967486Y-91879737D01*
X96967482Y-91879734D01*
X96962522Y-91874739D01*
X96823580Y-91786563D01*
X96774447Y-91769068D01*
X96675189Y-91733723D01*
X96675187Y-91733722D01*
X96668555Y-91731361D01*
X96661569Y-91730528D01*
X96661565Y-91730527D01*
X96547071Y-91716875D01*
X96505153Y-91711877D01*
X96498150Y-91712613D01*
X96498149Y-91712613D01*
X96454935Y-91717155D01*
X96341495Y-91729078D01*
X96334827Y-91731348D01*
X96192382Y-91779840D01*
X96192379Y-91779841D01*
X96185715Y-91782110D01*
X96045555Y-91868337D01*
X95927982Y-91983473D01*
X95838838Y-92121797D01*
X95836427Y-92128420D01*
X95836426Y-92128423D01*
X95831852Y-92140991D01*
X95789758Y-92198163D01*
X95723437Y-92223501D01*
X95698533Y-92223011D01*
X95612147Y-92212711D01*
X95605153Y-92211877D01*
X95598150Y-92212613D01*
X95598149Y-92212613D01*
X95554935Y-92217155D01*
X95441495Y-92229078D01*
X95434827Y-92231348D01*
X95292382Y-92279840D01*
X95292379Y-92279841D01*
X95285715Y-92282110D01*
X95145555Y-92368337D01*
X95140522Y-92373266D01*
X95058118Y-92453962D01*
X95027982Y-92483473D01*
X94938838Y-92621797D01*
X94936427Y-92628420D01*
X94936426Y-92628423D01*
X94933930Y-92635281D01*
X94891835Y-92692452D01*
X94825513Y-92717788D01*
X94800616Y-92717298D01*
X94755153Y-92711877D01*
X94748150Y-92712613D01*
X94748149Y-92712613D01*
X94704935Y-92717155D01*
X94591495Y-92729078D01*
X94584827Y-92731348D01*
X94442382Y-92779840D01*
X94442379Y-92779841D01*
X94435715Y-92782110D01*
X94295555Y-92868337D01*
X94177982Y-92983473D01*
X94088838Y-93121797D01*
X94086427Y-93128420D01*
X94086426Y-93128423D01*
X94034966Y-93269809D01*
X94034965Y-93269814D01*
X94032556Y-93276432D01*
X94011931Y-93439694D01*
X91641609Y-93439694D01*
X98961498Y-89213552D01*
X98979027Y-89205163D01*
X99001411Y-89196503D01*
X99014456Y-89186511D01*
X99035330Y-89173544D01*
X99230483Y-89077304D01*
X99245711Y-89070997D01*
X99366193Y-89030099D01*
X99476743Y-88992572D01*
X99492657Y-88988308D01*
X99612310Y-88964507D01*
X99731959Y-88940708D01*
X99748299Y-88938557D01*
X99890997Y-88929204D01*
X99991761Y-88922599D01*
X100008239Y-88922599D01*
X100109229Y-88929218D01*
G37*
%TD.AperFunction*%
%TD*%
M02*
