%TF.GenerationSoftware,KiCad,Pcbnew,(6.0.6)*%
%TF.CreationDate,2022-07-10T21:40:21+02:00*%
%TF.ProjectId,GCode_Buttons_Cherry_MX,47436f64-655f-4427-9574-746f6e735f43,rev?*%
%TF.SameCoordinates,Original*%
%TF.FileFunction,Copper,L4,Bot*%
%TF.FilePolarity,Positive*%
%FSLAX46Y46*%
G04 Gerber Fmt 4.6, Leading zero omitted, Abs format (unit mm)*
G04 Created by KiCad (PCBNEW (6.0.6)) date 2022-07-10 21:40:21*
%MOMM*%
%LPD*%
G01*
G04 APERTURE LIST*
%ADD10C,0.200000*%
%TA.AperFunction,NonConductor*%
%ADD11C,0.200000*%
%TD*%
%TA.AperFunction,ComponentPad*%
%ADD12C,2.200000*%
%TD*%
%TA.AperFunction,ViaPad*%
%ADD13C,0.450000*%
%TD*%
%TA.AperFunction,Conductor*%
%ADD14C,0.200000*%
%TD*%
%TA.AperFunction,Conductor*%
%ADD15C,0.250000*%
%TD*%
G04 APERTURE END LIST*
D10*
D11*
X100880952Y-90152380D02*
X100880952Y-90866666D01*
X100928571Y-91009523D01*
X101023809Y-91104761D01*
X101166666Y-91152380D01*
X101261904Y-91152380D01*
X100404761Y-91152380D02*
X100404761Y-90152380D01*
X99833333Y-91152380D01*
X99833333Y-90152380D01*
X99357142Y-91152380D02*
X99357142Y-90152380D01*
X98976190Y-90152380D01*
X98880952Y-90200000D01*
X98833333Y-90247619D01*
X98785714Y-90342857D01*
X98785714Y-90485714D01*
X98833333Y-90580952D01*
X98880952Y-90628571D01*
X98976190Y-90676190D01*
X99357142Y-90676190D01*
D12*
%TO.P,SW1,1,1*%
%TO.N,Net-(JP1-Pad1)*%
X94920000Y-102540000D03*
%TO.P,SW1,2,2*%
%TO.N,GND*%
X97460000Y-96190000D03*
%TD*%
D13*
%TO.N,+5V*%
X103650000Y-104800000D03*
X92550000Y-97800000D03*
X96500000Y-92450000D03*
X109350000Y-100600000D03*
%TO.N,GND*%
X90650000Y-94350000D03*
X109450000Y-94350000D03*
X100000000Y-110850000D03*
X109450000Y-105300000D03*
X97400000Y-91950000D03*
X100000000Y-89000000D03*
X90500000Y-105300000D03*
%TO.N,Net-(J1-Pad4)*%
X95600000Y-92950000D03*
X102750000Y-105300000D03*
X94850000Y-104950000D03*
%TO.N,Net-(J1-Pad1)*%
X102550000Y-107950000D03*
X93050000Y-99400000D03*
X95400000Y-95600000D03*
%TO.N,Net-(J1-Pad2)*%
X93050000Y-101550000D03*
X94750000Y-93450000D03*
X101900000Y-105800000D03*
%TO.N,Net-(J1-Pad3)*%
X93450000Y-103500000D03*
X103450000Y-107450000D03*
X96250000Y-95100000D03*
%TO.N,Net-(J1-Pad5)*%
X104300000Y-106950000D03*
X96800000Y-106050000D03*
X97150000Y-94600000D03*
%TO.N,Dout*%
X105150000Y-106400000D03*
X104350000Y-104100000D03*
%TD*%
D14*
%TO.N,Net-(J1-Pad1)*%
X93050000Y-103900000D02*
X94650000Y-105500000D01*
X93050000Y-99400000D02*
X92100000Y-100350000D01*
X95400000Y-97050000D02*
X93050000Y-99400000D01*
X92100000Y-102965686D02*
X93034314Y-103900000D01*
X94650000Y-105500000D02*
X97015686Y-105500000D01*
X102425000Y-108075000D02*
X102550000Y-107950000D01*
X95400000Y-95600000D02*
X95400000Y-97050000D01*
X92100000Y-100350000D02*
X92100000Y-102965686D01*
X99590686Y-108075000D02*
X102425000Y-108075000D01*
X93034314Y-103900000D02*
X93050000Y-103900000D01*
X97015686Y-105500000D02*
X99590686Y-108075000D01*
%TO.N,Net-(J1-Pad3)*%
X103425000Y-107425000D02*
X102332537Y-107425000D01*
D15*
X93450000Y-103550000D02*
X93500000Y-103600000D01*
D14*
X93200000Y-103500000D02*
X93450000Y-103500000D01*
X96035000Y-97215000D02*
X92500000Y-100750000D01*
X99756372Y-107675000D02*
X97181372Y-105100000D01*
X96035000Y-95315000D02*
X96035000Y-97215000D01*
X94140686Y-104425000D02*
X93450000Y-103734314D01*
X102082537Y-107675000D02*
X99756372Y-107675000D01*
X95742463Y-105100000D02*
X95067463Y-104425000D01*
X97181372Y-105100000D02*
X95742463Y-105100000D01*
X95067463Y-104425000D02*
X94140686Y-104425000D01*
X102332537Y-107425000D02*
X102082537Y-107675000D01*
X103450000Y-107450000D02*
X103425000Y-107425000D01*
X93450000Y-103734314D02*
X93450000Y-103500000D01*
X92500000Y-100750000D02*
X92500000Y-102800000D01*
X96250000Y-95100000D02*
X96035000Y-95315000D01*
X92500000Y-102800000D02*
X93200000Y-103500000D01*
%TO.N,Net-(J1-Pad5)*%
X94875000Y-95382537D02*
X94875000Y-96825000D01*
X104300000Y-107350000D02*
X103175000Y-108475000D01*
X94875000Y-96825000D02*
X91700000Y-100000000D01*
X97150000Y-94600000D02*
X97050000Y-94500000D01*
X91700000Y-100000000D02*
X91700000Y-103131372D01*
X91700000Y-103131372D02*
X94618628Y-106050000D01*
X94618628Y-106050000D02*
X96800000Y-106050000D01*
X104300000Y-106950000D02*
X104300000Y-107350000D01*
X97050000Y-94500000D02*
X95757537Y-94500000D01*
X97000000Y-106050000D02*
X96800000Y-106050000D01*
X95757537Y-94500000D02*
X94875000Y-95382537D01*
X103175000Y-108475000D02*
X99425000Y-108475000D01*
X99425000Y-108475000D02*
X97000000Y-106050000D01*
D15*
%TO.N,Dout*%
X105150000Y-104900000D02*
X105150000Y-106400000D01*
X104350000Y-104100000D02*
X105150000Y-104900000D01*
%TD*%
%TA.AperFunction,Conductor*%
%TO.N,GND*%
G36*
X100139427Y-88618618D02*
G01*
X100393584Y-88648326D01*
X100404913Y-88650324D01*
X100653898Y-88709334D01*
X100664915Y-88712632D01*
X100905375Y-88800152D01*
X100915946Y-88804713D01*
X101120817Y-88907604D01*
X101129014Y-88913302D01*
X101129054Y-88913233D01*
X101138701Y-88918825D01*
X101146860Y-88926420D01*
X101157505Y-88929725D01*
X101157508Y-88929727D01*
X101158606Y-88930068D01*
X101178750Y-88938878D01*
X108920292Y-93408461D01*
X108938241Y-93421730D01*
X108946860Y-93429753D01*
X108957505Y-93433058D01*
X108966872Y-93438488D01*
X108976363Y-93442972D01*
X109168341Y-93569238D01*
X109177573Y-93576110D01*
X109329058Y-93703220D01*
X109373598Y-93740593D01*
X109381969Y-93748491D01*
X109463057Y-93834439D01*
X109557563Y-93934609D01*
X109564963Y-93943428D01*
X109717764Y-94148675D01*
X109724090Y-94158294D01*
X109852026Y-94379885D01*
X109857193Y-94390173D01*
X109958540Y-94625119D01*
X109962478Y-94635937D01*
X110035866Y-94881067D01*
X110038521Y-94892269D01*
X110048441Y-94948528D01*
X110082956Y-95144266D01*
X110084290Y-95155675D01*
X110097622Y-95384559D01*
X110096784Y-95394521D01*
X110096861Y-95394521D01*
X110096841Y-95405669D01*
X110094343Y-95416534D01*
X110096965Y-95428119D01*
X110097058Y-95428531D01*
X110099499Y-95450381D01*
X110099501Y-104389534D01*
X110096983Y-104411722D01*
X110094345Y-104423193D01*
X110096806Y-104434069D01*
X110096787Y-104444886D01*
X110097648Y-104455354D01*
X110092643Y-104541274D01*
X110085730Y-104659934D01*
X110084284Y-104684750D01*
X110082949Y-104696178D01*
X110062109Y-104814359D01*
X110038511Y-104948181D01*
X110035856Y-104959383D01*
X110021951Y-105005830D01*
X109962466Y-105204520D01*
X109958535Y-105215321D01*
X109861592Y-105440066D01*
X109857182Y-105450289D01*
X109852015Y-105460576D01*
X109724087Y-105682163D01*
X109717762Y-105691781D01*
X109564957Y-105897046D01*
X109557565Y-105905856D01*
X109539099Y-105925431D01*
X109381973Y-106091986D01*
X109373613Y-106099875D01*
X109177584Y-106264378D01*
X109168364Y-106271242D01*
X108976953Y-106397149D01*
X108967768Y-106401470D01*
X108967795Y-106401518D01*
X108958131Y-106407076D01*
X108947473Y-106410345D01*
X108938881Y-106418289D01*
X108938450Y-106418687D01*
X108920743Y-106431731D01*
X101179205Y-110901308D01*
X101158731Y-110910220D01*
X101158140Y-110910401D01*
X101158138Y-110910402D01*
X101147479Y-110913671D01*
X101139291Y-110921240D01*
X101129917Y-110926631D01*
X101121282Y-110932612D01*
X100915933Y-111035747D01*
X100905361Y-111040307D01*
X100664922Y-111127824D01*
X100653893Y-111131126D01*
X100404920Y-111190136D01*
X100393582Y-111192136D01*
X100139428Y-111221843D01*
X100127935Y-111222512D01*
X99872065Y-111222512D01*
X99860572Y-111221843D01*
X99606418Y-111192136D01*
X99595080Y-111190136D01*
X99346108Y-111131126D01*
X99335079Y-111127824D01*
X99094640Y-111040307D01*
X99084068Y-111035747D01*
X98879180Y-110932844D01*
X98870991Y-110927150D01*
X98870950Y-110927220D01*
X98861304Y-110921628D01*
X98853143Y-110914031D01*
X98841453Y-110910401D01*
X98841398Y-110910384D01*
X98821254Y-110901574D01*
X98820794Y-110901308D01*
X94920809Y-108649651D01*
X91079701Y-106431986D01*
X91061752Y-106418717D01*
X91061292Y-106418289D01*
X91053131Y-106410693D01*
X91042483Y-106407387D01*
X91033126Y-106401964D01*
X91023631Y-106397478D01*
X90831639Y-106271212D01*
X90822404Y-106264337D01*
X90626390Y-106099870D01*
X90618015Y-106091969D01*
X90589254Y-106061485D01*
X90442413Y-105905847D01*
X90435026Y-105897045D01*
X90282221Y-105691791D01*
X90275895Y-105682173D01*
X90256471Y-105648528D01*
X90191362Y-105535755D01*
X90147960Y-105460579D01*
X90142793Y-105450290D01*
X90041453Y-105215345D01*
X90037515Y-105204526D01*
X89964136Y-104959396D01*
X89961481Y-104948192D01*
X89917059Y-104696203D01*
X89915723Y-104684767D01*
X89902399Y-104455803D01*
X89903229Y-104445943D01*
X89903136Y-104445943D01*
X89903156Y-104434794D01*
X89905655Y-104423929D01*
X89902939Y-104411922D01*
X89900499Y-104390079D01*
X89900499Y-99985066D01*
X91394660Y-99985066D01*
X91398596Y-100013987D01*
X91399500Y-100027337D01*
X91399500Y-103077864D01*
X91399197Y-103081989D01*
X91397575Y-103086714D01*
X91397918Y-103095848D01*
X91399430Y-103136133D01*
X91399500Y-103139846D01*
X91399500Y-103159320D01*
X91400325Y-103163750D01*
X91400661Y-103168943D01*
X91401774Y-103198580D01*
X91405380Y-103206974D01*
X91405381Y-103206977D01*
X91406317Y-103209155D01*
X91412683Y-103230106D01*
X91414791Y-103241425D01*
X91419588Y-103249207D01*
X91428768Y-103264100D01*
X91435451Y-103276967D01*
X91445964Y-103301435D01*
X91449978Y-103306321D01*
X91454342Y-103310685D01*
X91468613Y-103328740D01*
X91473532Y-103336720D01*
X91496769Y-103354390D01*
X91506839Y-103363182D01*
X94368312Y-106224656D01*
X94371009Y-106227781D01*
X94373203Y-106232269D01*
X94379905Y-106238486D01*
X94409436Y-106265880D01*
X94412112Y-106268456D01*
X94425904Y-106282248D01*
X94429615Y-106284793D01*
X94433534Y-106288234D01*
X94455274Y-106308401D01*
X94463762Y-106311787D01*
X94463765Y-106311789D01*
X94465966Y-106312667D01*
X94485282Y-106322981D01*
X94487237Y-106324322D01*
X94487239Y-106324323D01*
X94494774Y-106329492D01*
X94503662Y-106331601D01*
X94503664Y-106331602D01*
X94520686Y-106335641D01*
X94534512Y-106340014D01*
X94552760Y-106347294D01*
X94552762Y-106347294D01*
X94559250Y-106349883D01*
X94565543Y-106350500D01*
X94571712Y-106350500D01*
X94594571Y-106353175D01*
X94594801Y-106353230D01*
X94594803Y-106353230D01*
X94603694Y-106355340D01*
X94632616Y-106351404D01*
X94645965Y-106350500D01*
X96457744Y-106350500D01*
X96515935Y-106369407D01*
X96527748Y-106379496D01*
X96546780Y-106398528D01*
X96553717Y-106402063D01*
X96553719Y-106402064D01*
X96659934Y-106456183D01*
X96666874Y-106459719D01*
X96674568Y-106460938D01*
X96674569Y-106460938D01*
X96792304Y-106479585D01*
X96800000Y-106480804D01*
X96807696Y-106479585D01*
X96807697Y-106479585D01*
X96927867Y-106460552D01*
X96988299Y-106470123D01*
X97013358Y-106488329D01*
X99174680Y-108649651D01*
X99177380Y-108652780D01*
X99179575Y-108657269D01*
X99186278Y-108663487D01*
X99215822Y-108690893D01*
X99218498Y-108693469D01*
X99232277Y-108707248D01*
X99235987Y-108709793D01*
X99239900Y-108713229D01*
X99252605Y-108725014D01*
X99261646Y-108733401D01*
X99270132Y-108736787D01*
X99270134Y-108736788D01*
X99272337Y-108737667D01*
X99291648Y-108747978D01*
X99293607Y-108749322D01*
X99293610Y-108749323D01*
X99301146Y-108754493D01*
X99310038Y-108756603D01*
X99310040Y-108756604D01*
X99327066Y-108760644D01*
X99340885Y-108765014D01*
X99365622Y-108774883D01*
X99371915Y-108775500D01*
X99378085Y-108775500D01*
X99400941Y-108778175D01*
X99410066Y-108780340D01*
X99438988Y-108776404D01*
X99452337Y-108775500D01*
X103121492Y-108775500D01*
X103125617Y-108775803D01*
X103130342Y-108777425D01*
X103179761Y-108775570D01*
X103183474Y-108775500D01*
X103202948Y-108775500D01*
X103207378Y-108774675D01*
X103212571Y-108774339D01*
X103228602Y-108773737D01*
X103233075Y-108773569D01*
X103242208Y-108773226D01*
X103250602Y-108769620D01*
X103250605Y-108769619D01*
X103252783Y-108768683D01*
X103273734Y-108762317D01*
X103285053Y-108760209D01*
X103307729Y-108746232D01*
X103320596Y-108739548D01*
X103338642Y-108731795D01*
X103338643Y-108731794D01*
X103345063Y-108729036D01*
X103349949Y-108725022D01*
X103354313Y-108720658D01*
X103372368Y-108706387D01*
X103380348Y-108701468D01*
X103398018Y-108678231D01*
X103406810Y-108668161D01*
X104474656Y-107600316D01*
X104477781Y-107597619D01*
X104482269Y-107595425D01*
X104515880Y-107559192D01*
X104518456Y-107556516D01*
X104532248Y-107542724D01*
X104534793Y-107539013D01*
X104538234Y-107535094D01*
X104552185Y-107520055D01*
X104552185Y-107520054D01*
X104558401Y-107513354D01*
X104561787Y-107504866D01*
X104561789Y-107504863D01*
X104562667Y-107502662D01*
X104572981Y-107483346D01*
X104574322Y-107481391D01*
X104574323Y-107481389D01*
X104579492Y-107473854D01*
X104585641Y-107447941D01*
X104590014Y-107434116D01*
X104597294Y-107415868D01*
X104597294Y-107415866D01*
X104599883Y-107409378D01*
X104600500Y-107403085D01*
X104600500Y-107396916D01*
X104603175Y-107374057D01*
X104603230Y-107373827D01*
X104603230Y-107373825D01*
X104605340Y-107364934D01*
X104601404Y-107336012D01*
X104600500Y-107322663D01*
X104600500Y-107292256D01*
X104619407Y-107234065D01*
X104629496Y-107222252D01*
X104648528Y-107203220D01*
X104653361Y-107193736D01*
X104706183Y-107090066D01*
X104706183Y-107090065D01*
X104709719Y-107083126D01*
X104719845Y-107019196D01*
X104729585Y-106957696D01*
X104730804Y-106950000D01*
X104709719Y-106816874D01*
X104712320Y-106816462D01*
X104712317Y-106767643D01*
X104748278Y-106718141D01*
X104806468Y-106699230D01*
X104864659Y-106718134D01*
X104876478Y-106728226D01*
X104896780Y-106748528D01*
X104903717Y-106752063D01*
X104903719Y-106752064D01*
X104946253Y-106773736D01*
X105016874Y-106809719D01*
X105024568Y-106810938D01*
X105024569Y-106810938D01*
X105142304Y-106829585D01*
X105150000Y-106830804D01*
X105157696Y-106829585D01*
X105275431Y-106810938D01*
X105275432Y-106810938D01*
X105283126Y-106809719D01*
X105353747Y-106773736D01*
X105396281Y-106752064D01*
X105396283Y-106752063D01*
X105403220Y-106748528D01*
X105498528Y-106653220D01*
X105509409Y-106631866D01*
X105556183Y-106540066D01*
X105556183Y-106540065D01*
X105559719Y-106533126D01*
X105561926Y-106519196D01*
X105576627Y-106426371D01*
X105580804Y-106400000D01*
X105568818Y-106324322D01*
X105560938Y-106274569D01*
X105560938Y-106274568D01*
X105559719Y-106266874D01*
X105498528Y-106146780D01*
X105494155Y-106142407D01*
X105475500Y-106084990D01*
X105475500Y-104918534D01*
X105475877Y-104909905D01*
X105478246Y-104882825D01*
X105479264Y-104871193D01*
X105473000Y-104847815D01*
X105469204Y-104833651D01*
X105467334Y-104825216D01*
X105462092Y-104795483D01*
X105462091Y-104795481D01*
X105460588Y-104786955D01*
X105456258Y-104779456D01*
X105454262Y-104773971D01*
X105451796Y-104768684D01*
X105449554Y-104760316D01*
X105427268Y-104728489D01*
X105422627Y-104721205D01*
X105421979Y-104720082D01*
X105403194Y-104687545D01*
X105373429Y-104662569D01*
X105367061Y-104656735D01*
X104797993Y-104087667D01*
X104770216Y-104033150D01*
X104760938Y-103974569D01*
X104760938Y-103974567D01*
X104759719Y-103966874D01*
X104698528Y-103846780D01*
X104603220Y-103751472D01*
X104596283Y-103747937D01*
X104596281Y-103747936D01*
X104490066Y-103693817D01*
X104490065Y-103693817D01*
X104483126Y-103690281D01*
X104475432Y-103689062D01*
X104475431Y-103689062D01*
X104386978Y-103675053D01*
X104350000Y-103669196D01*
X104313022Y-103675053D01*
X104224569Y-103689062D01*
X104224568Y-103689062D01*
X104216874Y-103690281D01*
X104209935Y-103693817D01*
X104209934Y-103693817D01*
X104103719Y-103747936D01*
X104103717Y-103747937D01*
X104096780Y-103751472D01*
X104001472Y-103846780D01*
X103940281Y-103966874D01*
X103939062Y-103974568D01*
X103939062Y-103974569D01*
X103938238Y-103979770D01*
X103919196Y-104100000D01*
X103940281Y-104233126D01*
X103943817Y-104240065D01*
X103943817Y-104240066D01*
X103965213Y-104282058D01*
X103974784Y-104342490D01*
X103947006Y-104397007D01*
X103892490Y-104424784D01*
X103832058Y-104415213D01*
X103790066Y-104393817D01*
X103790065Y-104393817D01*
X103783126Y-104390281D01*
X103775432Y-104389062D01*
X103775431Y-104389062D01*
X103657696Y-104370415D01*
X103650000Y-104369196D01*
X103642304Y-104370415D01*
X103524569Y-104389062D01*
X103524568Y-104389062D01*
X103516874Y-104390281D01*
X103509935Y-104393817D01*
X103509934Y-104393817D01*
X103403719Y-104447936D01*
X103403717Y-104447937D01*
X103396780Y-104451472D01*
X103301472Y-104546780D01*
X103297937Y-104553717D01*
X103297936Y-104553719D01*
X103243817Y-104659934D01*
X103240281Y-104666874D01*
X103239062Y-104674568D01*
X103239062Y-104674569D01*
X103230522Y-104728489D01*
X103219196Y-104800000D01*
X103222110Y-104818398D01*
X103240281Y-104933126D01*
X103237680Y-104933538D01*
X103237683Y-104982357D01*
X103201722Y-105031859D01*
X103143532Y-105050770D01*
X103085341Y-105031866D01*
X103073522Y-105021774D01*
X103003220Y-104951472D01*
X102996283Y-104947937D01*
X102996281Y-104947936D01*
X102890066Y-104893817D01*
X102890065Y-104893817D01*
X102883126Y-104890281D01*
X102875432Y-104889062D01*
X102875431Y-104889062D01*
X102786978Y-104875053D01*
X102750000Y-104869196D01*
X102713022Y-104875053D01*
X102624569Y-104889062D01*
X102624568Y-104889062D01*
X102616874Y-104890281D01*
X102609935Y-104893817D01*
X102609934Y-104893817D01*
X102503719Y-104947936D01*
X102503717Y-104947937D01*
X102496780Y-104951472D01*
X102401472Y-105046780D01*
X102397937Y-105053717D01*
X102397936Y-105053719D01*
X102352434Y-105143022D01*
X102340281Y-105166874D01*
X102339062Y-105174568D01*
X102339062Y-105174569D01*
X102330115Y-105231059D01*
X102319196Y-105300000D01*
X102320415Y-105307696D01*
X102331273Y-105376249D01*
X102321702Y-105436681D01*
X102278437Y-105479945D01*
X102218005Y-105489517D01*
X102163488Y-105461740D01*
X102153220Y-105451472D01*
X102146283Y-105447937D01*
X102146281Y-105447936D01*
X102040066Y-105393817D01*
X102040065Y-105393817D01*
X102033126Y-105390281D01*
X102025432Y-105389062D01*
X102025431Y-105389062D01*
X101907696Y-105370415D01*
X101900000Y-105369196D01*
X101892304Y-105370415D01*
X101774569Y-105389062D01*
X101774568Y-105389062D01*
X101766874Y-105390281D01*
X101759935Y-105393817D01*
X101759934Y-105393817D01*
X101653719Y-105447936D01*
X101653717Y-105447937D01*
X101646780Y-105451472D01*
X101551472Y-105546780D01*
X101547937Y-105553717D01*
X101547936Y-105553719D01*
X101502434Y-105643022D01*
X101490281Y-105666874D01*
X101489062Y-105674568D01*
X101489062Y-105674569D01*
X101475053Y-105763022D01*
X101469196Y-105800000D01*
X101470415Y-105807696D01*
X101484567Y-105897046D01*
X101490281Y-105933126D01*
X101493817Y-105940065D01*
X101493817Y-105940066D01*
X101530700Y-106012452D01*
X101551472Y-106053220D01*
X101646780Y-106148528D01*
X101653717Y-106152063D01*
X101653719Y-106152064D01*
X101759934Y-106206183D01*
X101766874Y-106209719D01*
X101774568Y-106210938D01*
X101774569Y-106210938D01*
X101892304Y-106229585D01*
X101900000Y-106230804D01*
X101907696Y-106229585D01*
X102025431Y-106210938D01*
X102025432Y-106210938D01*
X102033126Y-106209719D01*
X102040066Y-106206183D01*
X102146281Y-106152064D01*
X102146283Y-106152063D01*
X102153220Y-106148528D01*
X102248528Y-106053220D01*
X102269301Y-106012452D01*
X102306183Y-105940066D01*
X102306183Y-105940065D01*
X102309719Y-105933126D01*
X102315434Y-105897046D01*
X102329585Y-105807696D01*
X102330804Y-105800000D01*
X102318727Y-105723750D01*
X102328298Y-105663319D01*
X102371563Y-105620055D01*
X102431995Y-105610483D01*
X102486512Y-105638260D01*
X102496780Y-105648528D01*
X102503717Y-105652063D01*
X102503719Y-105652064D01*
X102581692Y-105691793D01*
X102616874Y-105709719D01*
X102624568Y-105710938D01*
X102624569Y-105710938D01*
X102694230Y-105721971D01*
X102716708Y-105725531D01*
X102742304Y-105729585D01*
X102750000Y-105730804D01*
X102757696Y-105729585D01*
X102783293Y-105725531D01*
X102805770Y-105721971D01*
X102875431Y-105710938D01*
X102875432Y-105710938D01*
X102883126Y-105709719D01*
X102918308Y-105691793D01*
X102996281Y-105652064D01*
X102996283Y-105652063D01*
X103003220Y-105648528D01*
X103098528Y-105553220D01*
X103130987Y-105489517D01*
X103156183Y-105440066D01*
X103156183Y-105440065D01*
X103159719Y-105433126D01*
X103169845Y-105369196D01*
X103179585Y-105307696D01*
X103180804Y-105300000D01*
X103159719Y-105166874D01*
X103162320Y-105166462D01*
X103162317Y-105117643D01*
X103198278Y-105068141D01*
X103256468Y-105049230D01*
X103314659Y-105068134D01*
X103326478Y-105078226D01*
X103396780Y-105148528D01*
X103403717Y-105152063D01*
X103403719Y-105152064D01*
X103506682Y-105204526D01*
X103516874Y-105209719D01*
X103524568Y-105210938D01*
X103524569Y-105210938D01*
X103642304Y-105229585D01*
X103650000Y-105230804D01*
X103657696Y-105229585D01*
X103775431Y-105210938D01*
X103775432Y-105210938D01*
X103783126Y-105209719D01*
X103793318Y-105204526D01*
X103896281Y-105152064D01*
X103896283Y-105152063D01*
X103903220Y-105148528D01*
X103998528Y-105053220D01*
X104007901Y-105034826D01*
X104056183Y-104940066D01*
X104056183Y-104940065D01*
X104059719Y-104933126D01*
X104062158Y-104917731D01*
X104077890Y-104818398D01*
X104080804Y-104800000D01*
X104069478Y-104728489D01*
X104060938Y-104674569D01*
X104060938Y-104674568D01*
X104059719Y-104666874D01*
X104056183Y-104659934D01*
X104034787Y-104617942D01*
X104025216Y-104557510D01*
X104052994Y-104502993D01*
X104107510Y-104475216D01*
X104167942Y-104484787D01*
X104216874Y-104509719D01*
X104224567Y-104510938D01*
X104224569Y-104510938D01*
X104283150Y-104520216D01*
X104337667Y-104547993D01*
X104795504Y-105005830D01*
X104823281Y-105060347D01*
X104824500Y-105075834D01*
X104824500Y-106084990D01*
X104805845Y-106142407D01*
X104801472Y-106146780D01*
X104740281Y-106266874D01*
X104739062Y-106274568D01*
X104739062Y-106274569D01*
X104731182Y-106324322D01*
X104719196Y-106400000D01*
X104728848Y-106460938D01*
X104740281Y-106533126D01*
X104737680Y-106533538D01*
X104737683Y-106582357D01*
X104701722Y-106631859D01*
X104643532Y-106650770D01*
X104585341Y-106631866D01*
X104573522Y-106621774D01*
X104553220Y-106601472D01*
X104546283Y-106597937D01*
X104546281Y-106597936D01*
X104440066Y-106543817D01*
X104440065Y-106543817D01*
X104433126Y-106540281D01*
X104425432Y-106539062D01*
X104425431Y-106539062D01*
X104307696Y-106520415D01*
X104300000Y-106519196D01*
X104292304Y-106520415D01*
X104174569Y-106539062D01*
X104174568Y-106539062D01*
X104166874Y-106540281D01*
X104159935Y-106543817D01*
X104159934Y-106543817D01*
X104053719Y-106597936D01*
X104053717Y-106597937D01*
X104046780Y-106601472D01*
X103951472Y-106696780D01*
X103947937Y-106703717D01*
X103947936Y-106703719D01*
X103915653Y-106767078D01*
X103890281Y-106816874D01*
X103889062Y-106824568D01*
X103889062Y-106824569D01*
X103875053Y-106913022D01*
X103869196Y-106950000D01*
X103870415Y-106957696D01*
X103881273Y-107026249D01*
X103871702Y-107086681D01*
X103828437Y-107129945D01*
X103768005Y-107139517D01*
X103713488Y-107111740D01*
X103703220Y-107101472D01*
X103696283Y-107097937D01*
X103696281Y-107097936D01*
X103590066Y-107043817D01*
X103590065Y-107043817D01*
X103583126Y-107040281D01*
X103575432Y-107039062D01*
X103575431Y-107039062D01*
X103457696Y-107020415D01*
X103450000Y-107019196D01*
X103442304Y-107020415D01*
X103324569Y-107039062D01*
X103324568Y-107039062D01*
X103316874Y-107040281D01*
X103196780Y-107101472D01*
X103192407Y-107105845D01*
X103134990Y-107124500D01*
X102386045Y-107124500D01*
X102381920Y-107124197D01*
X102377195Y-107122575D01*
X102327775Y-107124430D01*
X102324062Y-107124500D01*
X102304589Y-107124500D01*
X102300159Y-107125325D01*
X102294966Y-107125661D01*
X102275835Y-107126379D01*
X102274463Y-107126431D01*
X102265328Y-107126774D01*
X102256931Y-107130382D01*
X102256930Y-107130382D01*
X102254749Y-107131319D01*
X102233800Y-107137683D01*
X102231473Y-107138116D01*
X102231468Y-107138118D01*
X102222484Y-107139791D01*
X102199809Y-107153768D01*
X102186941Y-107160452D01*
X102168895Y-107168205D01*
X102168894Y-107168206D01*
X102162474Y-107170964D01*
X102157588Y-107174978D01*
X102153224Y-107179342D01*
X102135169Y-107193613D01*
X102127189Y-107198532D01*
X102109519Y-107221769D01*
X102100727Y-107231839D01*
X101987062Y-107345504D01*
X101932545Y-107373281D01*
X101917058Y-107374500D01*
X99921851Y-107374500D01*
X99863660Y-107355593D01*
X99851847Y-107345504D01*
X97532339Y-105025996D01*
X98895814Y-105025996D01*
X98896032Y-105030707D01*
X98896032Y-105030708D01*
X98904333Y-105210046D01*
X98905523Y-105235767D01*
X98911172Y-105259206D01*
X98951233Y-105425431D01*
X98954724Y-105439918D01*
X98956674Y-105444206D01*
X98956674Y-105444207D01*
X98959439Y-105450289D01*
X99041640Y-105631081D01*
X99163137Y-105802360D01*
X99241127Y-105877019D01*
X99311427Y-105944317D01*
X99311431Y-105944320D01*
X99314831Y-105947575D01*
X99491246Y-106061485D01*
X99495623Y-106063249D01*
X99645750Y-106123752D01*
X99686019Y-106139981D01*
X99690643Y-106140884D01*
X99888627Y-106179548D01*
X99888634Y-106179549D01*
X99892122Y-106180230D01*
X99897643Y-106180500D01*
X100052469Y-106180500D01*
X100148540Y-106171334D01*
X100204353Y-106166009D01*
X100204355Y-106166009D01*
X100209046Y-106165561D01*
X100410549Y-106106447D01*
X100597239Y-106010295D01*
X100730196Y-105905856D01*
X100758672Y-105883488D01*
X100758673Y-105883487D01*
X100762379Y-105880576D01*
X100900010Y-105721971D01*
X101005166Y-105540201D01*
X101041114Y-105436681D01*
X101072509Y-105346273D01*
X101072510Y-105346271D01*
X101074053Y-105341826D01*
X101093208Y-105209719D01*
X101103509Y-105138674D01*
X101103509Y-105138673D01*
X101104186Y-105134004D01*
X101097167Y-104982357D01*
X101094695Y-104928941D01*
X101094695Y-104928940D01*
X101094477Y-104924233D01*
X101073534Y-104837334D01*
X101046381Y-104724665D01*
X101046379Y-104724660D01*
X101045276Y-104720082D01*
X100958360Y-104528919D01*
X100836863Y-104357640D01*
X100722392Y-104248058D01*
X100688573Y-104215683D01*
X100688569Y-104215680D01*
X100685169Y-104212425D01*
X100508754Y-104098515D01*
X100481837Y-104087667D01*
X100318356Y-104021782D01*
X100318354Y-104021781D01*
X100313981Y-104020019D01*
X100308687Y-104018985D01*
X100111373Y-103980452D01*
X100111366Y-103980451D01*
X100107878Y-103979770D01*
X100102357Y-103979500D01*
X99947531Y-103979500D01*
X99851460Y-103988666D01*
X99795647Y-103993991D01*
X99795645Y-103993991D01*
X99790954Y-103994439D01*
X99589451Y-104053553D01*
X99402761Y-104149705D01*
X99237621Y-104279424D01*
X99158663Y-104370415D01*
X99104730Y-104432567D01*
X99099990Y-104438029D01*
X98994834Y-104619799D01*
X98993290Y-104624244D01*
X98993290Y-104624245D01*
X98929586Y-104807696D01*
X98925947Y-104818174D01*
X98925271Y-104822836D01*
X98905473Y-104959383D01*
X98895814Y-105025996D01*
X97532339Y-105025996D01*
X97431692Y-104925349D01*
X97428992Y-104922220D01*
X97426797Y-104917731D01*
X97418361Y-104909905D01*
X97390550Y-104884107D01*
X97387874Y-104881531D01*
X97374095Y-104867752D01*
X97370385Y-104865207D01*
X97366472Y-104861771D01*
X97351427Y-104847815D01*
X97344726Y-104841599D01*
X97334036Y-104837334D01*
X97314720Y-104827020D01*
X97312765Y-104825679D01*
X97312762Y-104825678D01*
X97305226Y-104820508D01*
X97279313Y-104814359D01*
X97265488Y-104809986D01*
X97247240Y-104802706D01*
X97247238Y-104802706D01*
X97240750Y-104800117D01*
X97234457Y-104799500D01*
X97228288Y-104799500D01*
X97205429Y-104796825D01*
X97205199Y-104796770D01*
X97205197Y-104796770D01*
X97196306Y-104794660D01*
X97167385Y-104798596D01*
X97154035Y-104799500D01*
X95907942Y-104799500D01*
X95849751Y-104780593D01*
X95837938Y-104770504D01*
X95317783Y-104250349D01*
X95315083Y-104247220D01*
X95312888Y-104242731D01*
X95276641Y-104209107D01*
X95273965Y-104206531D01*
X95260186Y-104192752D01*
X95256476Y-104190207D01*
X95252563Y-104186771D01*
X95237518Y-104172815D01*
X95230817Y-104166599D01*
X95220127Y-104162334D01*
X95200811Y-104152020D01*
X95198856Y-104150679D01*
X95198853Y-104150678D01*
X95191317Y-104145508D01*
X95165404Y-104139359D01*
X95151579Y-104134986D01*
X95133331Y-104127706D01*
X95133329Y-104127706D01*
X95126841Y-104125117D01*
X95120548Y-104124500D01*
X95114379Y-104124500D01*
X95091520Y-104121825D01*
X95091290Y-104121770D01*
X95091288Y-104121770D01*
X95082397Y-104119660D01*
X95053476Y-104123596D01*
X95040126Y-104124500D01*
X94306165Y-104124500D01*
X94247974Y-104105593D01*
X94236161Y-104095504D01*
X93880575Y-103739918D01*
X93852798Y-103685401D01*
X93856399Y-103639642D01*
X93859719Y-103633126D01*
X93872287Y-103553775D01*
X93900064Y-103499258D01*
X93954581Y-103471481D01*
X94015013Y-103481052D01*
X94040072Y-103499258D01*
X94080861Y-103540047D01*
X94084399Y-103542524D01*
X94084401Y-103542526D01*
X94263721Y-103668086D01*
X94267266Y-103670568D01*
X94473504Y-103766739D01*
X94562563Y-103790602D01*
X94689131Y-103824516D01*
X94689133Y-103824516D01*
X94693308Y-103825635D01*
X94920000Y-103845468D01*
X95146692Y-103825635D01*
X95150867Y-103824516D01*
X95150869Y-103824516D01*
X95277437Y-103790602D01*
X95366496Y-103766739D01*
X95572734Y-103670568D01*
X95576279Y-103668086D01*
X95755599Y-103542526D01*
X95755601Y-103542524D01*
X95759139Y-103540047D01*
X95920047Y-103379139D01*
X95955337Y-103328740D01*
X96048086Y-103196279D01*
X96048087Y-103196277D01*
X96050568Y-103192734D01*
X96146739Y-102986496D01*
X96205635Y-102766692D01*
X96225468Y-102540000D01*
X96205635Y-102313308D01*
X96146739Y-102093504D01*
X96050568Y-101887266D01*
X96043793Y-101877590D01*
X95922526Y-101704401D01*
X95922524Y-101704399D01*
X95920047Y-101700861D01*
X95759139Y-101539953D01*
X95743103Y-101528724D01*
X95576279Y-101411914D01*
X95576277Y-101411913D01*
X95572734Y-101409432D01*
X95366496Y-101313261D01*
X95277437Y-101289398D01*
X95150869Y-101255484D01*
X95150867Y-101255484D01*
X95146692Y-101254365D01*
X94920000Y-101234532D01*
X94693308Y-101254365D01*
X94689133Y-101255484D01*
X94689131Y-101255484D01*
X94562563Y-101289398D01*
X94473504Y-101313261D01*
X94267266Y-101409432D01*
X94263723Y-101411913D01*
X94263721Y-101411914D01*
X94096898Y-101528724D01*
X94080861Y-101539953D01*
X93919953Y-101700861D01*
X93917476Y-101704399D01*
X93917474Y-101704401D01*
X93796207Y-101877590D01*
X93789432Y-101887266D01*
X93693261Y-102093504D01*
X93634365Y-102313308D01*
X93614532Y-102540000D01*
X93634365Y-102766692D01*
X93635484Y-102770867D01*
X93635484Y-102770869D01*
X93687728Y-102965846D01*
X93684525Y-103026947D01*
X93646020Y-103074497D01*
X93586920Y-103090333D01*
X93576621Y-103089251D01*
X93450000Y-103069196D01*
X93442304Y-103070415D01*
X93324568Y-103089062D01*
X93324566Y-103089063D01*
X93316874Y-103090281D01*
X93309934Y-103093817D01*
X93302521Y-103096226D01*
X93301737Y-103093815D01*
X93253203Y-103101498D01*
X93198693Y-103073722D01*
X92829496Y-102704525D01*
X92801719Y-102650008D01*
X92800500Y-102634521D01*
X92800500Y-102056887D01*
X92819407Y-101998696D01*
X92868907Y-101962732D01*
X92916397Y-101962731D01*
X92916874Y-101959719D01*
X93050000Y-101980804D01*
X93057696Y-101979585D01*
X93175431Y-101960938D01*
X93175432Y-101960938D01*
X93183126Y-101959719D01*
X93190066Y-101956183D01*
X93296281Y-101902064D01*
X93296283Y-101902063D01*
X93303220Y-101898528D01*
X93398528Y-101803220D01*
X93410750Y-101779234D01*
X93456183Y-101690066D01*
X93456183Y-101690065D01*
X93459719Y-101683126D01*
X93480804Y-101550000D01*
X93459719Y-101416874D01*
X93454995Y-101407602D01*
X93402064Y-101303719D01*
X93402063Y-101303717D01*
X93398528Y-101296780D01*
X93303220Y-101201472D01*
X93296283Y-101197937D01*
X93296281Y-101197936D01*
X93190066Y-101143817D01*
X93190065Y-101143817D01*
X93183126Y-101140281D01*
X93175432Y-101139062D01*
X93175431Y-101139062D01*
X93057696Y-101120415D01*
X93050000Y-101119196D01*
X92916874Y-101140281D01*
X92916397Y-101137268D01*
X92868902Y-101137266D01*
X92819404Y-101101299D01*
X92800500Y-101043113D01*
X92800500Y-100915479D01*
X92819407Y-100857288D01*
X92829496Y-100845475D01*
X93627735Y-100047236D01*
X97744958Y-100047236D01*
X97771014Y-100345065D01*
X97798242Y-100466874D01*
X97816554Y-100548796D01*
X97836232Y-100636832D01*
X97939464Y-100917410D01*
X97944537Y-100927031D01*
X98067679Y-101160591D01*
X98078898Y-101181870D01*
X98080800Y-101184546D01*
X98080801Y-101184548D01*
X98117704Y-101236475D01*
X98252084Y-101425565D01*
X98455979Y-101644216D01*
X98458515Y-101646299D01*
X98458516Y-101646300D01*
X98684461Y-101831894D01*
X98684466Y-101831898D01*
X98687000Y-101833979D01*
X98820114Y-101916513D01*
X98891765Y-101960938D01*
X98941090Y-101991521D01*
X98944087Y-101992868D01*
X98944091Y-101992870D01*
X99086536Y-102056887D01*
X99213783Y-102114074D01*
X99500289Y-102199485D01*
X99503530Y-102199998D01*
X99503533Y-102199999D01*
X99591913Y-102213997D01*
X99795575Y-102246254D01*
X99866545Y-102249477D01*
X99887974Y-102250450D01*
X99887980Y-102250450D01*
X99889078Y-102250500D01*
X100075834Y-102250500D01*
X100298309Y-102235723D01*
X100482681Y-102198547D01*
X100588150Y-102177281D01*
X100588155Y-102177280D01*
X100591377Y-102176630D01*
X100634632Y-102161736D01*
X100870944Y-102080368D01*
X100870950Y-102080365D01*
X100874056Y-102079296D01*
X101141378Y-101945431D01*
X101388647Y-101777387D01*
X101540397Y-101641708D01*
X101609062Y-101580315D01*
X101609064Y-101580313D01*
X101611520Y-101578117D01*
X101613661Y-101575619D01*
X101613665Y-101575615D01*
X101803942Y-101353614D01*
X101803946Y-101353608D01*
X101806079Y-101351120D01*
X101968908Y-101100386D01*
X102065079Y-100897850D01*
X102095738Y-100833283D01*
X102095740Y-100833278D01*
X102097145Y-100830319D01*
X102188538Y-100545664D01*
X102241480Y-100251422D01*
X102255042Y-99952764D01*
X102254531Y-99946915D01*
X102240874Y-99790822D01*
X102228986Y-99654935D01*
X102184147Y-99454336D01*
X102164485Y-99366375D01*
X102164484Y-99366373D01*
X102163768Y-99363168D01*
X102060536Y-99082590D01*
X102038181Y-99040190D01*
X101922632Y-98821031D01*
X101922629Y-98821026D01*
X101921102Y-98818130D01*
X101893555Y-98779367D01*
X101889903Y-98774228D01*
X103262846Y-98774228D01*
X103294018Y-98920240D01*
X103296175Y-98925035D01*
X103347973Y-99040190D01*
X103351957Y-99050715D01*
X103352127Y-99051101D01*
X103353783Y-99056435D01*
X103354144Y-99057056D01*
X103357987Y-99061155D01*
X103361335Y-99065653D01*
X103360577Y-99066218D01*
X103372215Y-99083344D01*
X103377334Y-99094200D01*
X103383350Y-99110555D01*
X103392558Y-99144575D01*
X103395610Y-99161720D01*
X103396653Y-99173533D01*
X103395987Y-99183154D01*
X103396865Y-99183156D01*
X103396845Y-99194303D01*
X103394345Y-99205169D01*
X103397062Y-99217181D01*
X103399501Y-99239022D01*
X103399501Y-100760446D01*
X103396985Y-100782623D01*
X103394344Y-100794113D01*
X103396806Y-100804988D01*
X103396787Y-100816134D01*
X103396047Y-100816133D01*
X103396713Y-100826038D01*
X103395633Y-100838279D01*
X103392577Y-100855443D01*
X103383374Y-100889444D01*
X103377363Y-100905791D01*
X103372481Y-100916143D01*
X103360882Y-100933132D01*
X103361720Y-100933761D01*
X103358355Y-100938249D01*
X103354506Y-100942325D01*
X103354143Y-100942944D01*
X103352463Y-100948288D01*
X103352403Y-100948423D01*
X103348353Y-100959063D01*
X103296215Y-101074975D01*
X103296213Y-101074980D01*
X103294057Y-101079774D01*
X103262887Y-101225776D01*
X103263190Y-101375069D01*
X103294953Y-101520944D01*
X103297127Y-101525725D01*
X103297128Y-101525728D01*
X103304985Y-101543007D01*
X103356749Y-101656847D01*
X103445801Y-101776673D01*
X103449758Y-101780139D01*
X103449761Y-101780142D01*
X103551552Y-101869295D01*
X103558108Y-101875037D01*
X103688624Y-101947521D01*
X103831486Y-101990867D01*
X103836719Y-101991298D01*
X103836723Y-101991299D01*
X103975031Y-102002696D01*
X103975032Y-102002696D01*
X103980275Y-102003128D01*
X104128305Y-101983753D01*
X104148521Y-101976545D01*
X104252176Y-101939586D01*
X104262980Y-101936460D01*
X104263383Y-101936320D01*
X104268843Y-101935094D01*
X104269490Y-101934784D01*
X104273870Y-101931293D01*
X104278618Y-101928317D01*
X104278968Y-101928876D01*
X104297026Y-101918455D01*
X104302024Y-101916494D01*
X104316152Y-101912137D01*
X104341180Y-101906424D01*
X104345316Y-101905480D01*
X104359952Y-101903274D01*
X104364985Y-101902897D01*
X104374801Y-101903640D01*
X104374802Y-101903139D01*
X104385951Y-101903158D01*
X104396816Y-101905655D01*
X104407688Y-101903194D01*
X104407690Y-101903194D01*
X104408801Y-101902942D01*
X104430658Y-101900499D01*
X105768812Y-101900499D01*
X105791006Y-101903019D01*
X105791599Y-101903156D01*
X105791603Y-101903156D01*
X105802466Y-101905655D01*
X105813340Y-101903196D01*
X105824488Y-101903216D01*
X105824487Y-101903607D01*
X105834446Y-101902871D01*
X105835999Y-101902987D01*
X105840047Y-101903291D01*
X105854680Y-101905497D01*
X105883851Y-101912156D01*
X105897975Y-101916511D01*
X105902545Y-101918305D01*
X105920310Y-101928600D01*
X105920721Y-101927948D01*
X105925478Y-101930950D01*
X105929863Y-101934471D01*
X105930176Y-101934622D01*
X105930178Y-101934624D01*
X105930180Y-101934625D01*
X105930510Y-101934784D01*
X105935934Y-101936022D01*
X105936774Y-101936316D01*
X105946375Y-101939113D01*
X106059883Y-101979585D01*
X106071685Y-101983793D01*
X106219724Y-102003169D01*
X106224967Y-102002737D01*
X106224968Y-102002737D01*
X106363285Y-101991339D01*
X106363289Y-101991338D01*
X106368522Y-101990907D01*
X106511392Y-101947558D01*
X106641916Y-101875070D01*
X106754230Y-101776700D01*
X106843287Y-101656868D01*
X106905086Y-101520956D01*
X106936851Y-101375073D01*
X106937154Y-101225771D01*
X106905982Y-101079760D01*
X106874477Y-101009719D01*
X106852025Y-100959804D01*
X106848052Y-100949310D01*
X106847896Y-100948955D01*
X106847887Y-100948943D01*
X106846216Y-100943564D01*
X106846039Y-100943260D01*
X106846035Y-100943247D01*
X106846026Y-100943237D01*
X106845855Y-100942944D01*
X106842048Y-100938883D01*
X106840924Y-100937376D01*
X106840360Y-100936512D01*
X106840121Y-100936300D01*
X106838714Y-100934413D01*
X106838900Y-100934275D01*
X106834171Y-100927031D01*
X106833503Y-100925853D01*
X106833882Y-100925638D01*
X106827777Y-100916656D01*
X106826682Y-100914333D01*
X106822638Y-100905761D01*
X106816620Y-100889410D01*
X106808309Y-100858726D01*
X106807407Y-100855396D01*
X106804350Y-100838242D01*
X106803319Y-100826589D01*
X106803994Y-100816805D01*
X106803140Y-100816804D01*
X106803159Y-100805654D01*
X106805656Y-100794790D01*
X106803195Y-100783919D01*
X106803195Y-100783917D01*
X106802943Y-100782806D01*
X106800500Y-100760947D01*
X106800500Y-100600000D01*
X108919196Y-100600000D01*
X108940281Y-100733126D01*
X108943817Y-100740065D01*
X108943817Y-100740066D01*
X108997526Y-100845475D01*
X109001472Y-100853220D01*
X109096780Y-100948528D01*
X109103717Y-100952063D01*
X109103719Y-100952064D01*
X109118910Y-100959804D01*
X109216874Y-101009719D01*
X109224568Y-101010938D01*
X109224569Y-101010938D01*
X109342304Y-101029585D01*
X109350000Y-101030804D01*
X109357696Y-101029585D01*
X109475431Y-101010938D01*
X109475432Y-101010938D01*
X109483126Y-101009719D01*
X109581090Y-100959804D01*
X109596281Y-100952064D01*
X109596283Y-100952063D01*
X109603220Y-100948528D01*
X109698528Y-100853220D01*
X109702475Y-100845475D01*
X109756183Y-100740066D01*
X109756183Y-100740065D01*
X109759719Y-100733126D01*
X109780804Y-100600000D01*
X109759719Y-100466874D01*
X109698528Y-100346780D01*
X109603220Y-100251472D01*
X109596283Y-100247937D01*
X109596281Y-100247936D01*
X109490066Y-100193817D01*
X109490065Y-100193817D01*
X109483126Y-100190281D01*
X109475432Y-100189062D01*
X109475431Y-100189062D01*
X109357696Y-100170415D01*
X109350000Y-100169196D01*
X109342304Y-100170415D01*
X109224569Y-100189062D01*
X109224568Y-100189062D01*
X109216874Y-100190281D01*
X109209935Y-100193817D01*
X109209934Y-100193817D01*
X109103719Y-100247936D01*
X109103717Y-100247937D01*
X109096780Y-100251472D01*
X109001472Y-100346780D01*
X108940281Y-100466874D01*
X108919196Y-100600000D01*
X106800500Y-100600000D01*
X106800500Y-99239550D01*
X106803016Y-99217374D01*
X106803158Y-99216754D01*
X106805656Y-99205887D01*
X106803194Y-99195012D01*
X106803213Y-99183866D01*
X106803954Y-99183867D01*
X106803287Y-99173964D01*
X106804367Y-99161722D01*
X106807423Y-99144557D01*
X106816626Y-99110556D01*
X106822637Y-99094209D01*
X106827519Y-99083857D01*
X106839118Y-99066868D01*
X106838280Y-99066239D01*
X106841645Y-99061751D01*
X106845494Y-99057675D01*
X106845857Y-99057056D01*
X106847534Y-99051723D01*
X106847595Y-99051585D01*
X106851646Y-99040940D01*
X106851984Y-99040190D01*
X106905944Y-98920227D01*
X106920972Y-98849834D01*
X106936016Y-98779367D01*
X106936016Y-98779365D01*
X106937114Y-98774223D01*
X106936811Y-98624930D01*
X106905048Y-98479055D01*
X106887561Y-98440596D01*
X106880189Y-98424385D01*
X106843252Y-98343152D01*
X106754200Y-98223326D01*
X106750217Y-98219837D01*
X106645853Y-98128431D01*
X106645852Y-98128430D01*
X106641892Y-98124962D01*
X106511375Y-98052478D01*
X106368513Y-98009132D01*
X106363280Y-98008701D01*
X106363276Y-98008700D01*
X106224968Y-97997303D01*
X106224967Y-97997303D01*
X106219724Y-97996871D01*
X106214506Y-97997554D01*
X106077202Y-98015525D01*
X106071693Y-98016246D01*
X106066738Y-98018013D01*
X106066729Y-98018015D01*
X105947817Y-98060415D01*
X105937068Y-98063525D01*
X105936632Y-98063676D01*
X105931156Y-98064906D01*
X105930508Y-98065217D01*
X105926137Y-98068701D01*
X105921407Y-98071668D01*
X105921057Y-98071111D01*
X105902977Y-98081548D01*
X105897986Y-98083506D01*
X105883858Y-98087864D01*
X105854702Y-98094516D01*
X105840074Y-98096720D01*
X105835008Y-98097099D01*
X105825239Y-98096357D01*
X105825238Y-98096866D01*
X105814093Y-98096845D01*
X105803225Y-98094345D01*
X105792176Y-98096844D01*
X105791212Y-98097062D01*
X105769373Y-98099501D01*
X104431188Y-98099501D01*
X104408994Y-98096981D01*
X104408401Y-98096844D01*
X104408397Y-98096844D01*
X104397534Y-98094345D01*
X104386660Y-98096804D01*
X104375512Y-98096784D01*
X104375513Y-98096393D01*
X104365554Y-98097129D01*
X104363578Y-98096981D01*
X104359953Y-98096709D01*
X104345320Y-98094503D01*
X104316149Y-98087844D01*
X104302025Y-98083489D01*
X104297455Y-98081695D01*
X104279690Y-98071400D01*
X104279279Y-98072052D01*
X104274522Y-98069050D01*
X104270137Y-98065529D01*
X104269824Y-98065378D01*
X104269822Y-98065376D01*
X104269820Y-98065375D01*
X104269490Y-98065216D01*
X104264066Y-98063978D01*
X104263226Y-98063684D01*
X104253625Y-98060887D01*
X104133265Y-98017972D01*
X104128315Y-98016207D01*
X103980276Y-97996831D01*
X103975033Y-97997263D01*
X103975032Y-97997263D01*
X103836715Y-98008661D01*
X103836711Y-98008662D01*
X103831478Y-98009093D01*
X103688608Y-98052442D01*
X103558084Y-98124929D01*
X103445770Y-98223299D01*
X103356713Y-98343132D01*
X103294914Y-98479043D01*
X103263149Y-98624927D01*
X103262846Y-98774228D01*
X101889903Y-98774228D01*
X101749822Y-98577117D01*
X101747916Y-98574435D01*
X101544021Y-98355784D01*
X101523482Y-98338913D01*
X101315539Y-98168106D01*
X101315534Y-98168102D01*
X101313000Y-98166021D01*
X101131070Y-98053220D01*
X101061707Y-98010213D01*
X101061705Y-98010212D01*
X101058910Y-98008479D01*
X101055913Y-98007132D01*
X101055909Y-98007130D01*
X100866879Y-97922177D01*
X100786217Y-97885926D01*
X100499711Y-97800515D01*
X100496470Y-97800002D01*
X100496467Y-97800001D01*
X100408087Y-97786003D01*
X100204425Y-97753746D01*
X100133455Y-97750523D01*
X100112026Y-97749550D01*
X100112020Y-97749550D01*
X100110922Y-97749500D01*
X99924166Y-97749500D01*
X99701691Y-97764277D01*
X99562693Y-97792304D01*
X99411850Y-97822719D01*
X99411845Y-97822720D01*
X99408623Y-97823370D01*
X99405506Y-97824443D01*
X99405507Y-97824443D01*
X99129056Y-97919632D01*
X99129050Y-97919635D01*
X99125944Y-97920704D01*
X99123005Y-97922176D01*
X99123002Y-97922177D01*
X99087279Y-97940066D01*
X98858622Y-98054569D01*
X98611353Y-98222613D01*
X98471206Y-98347918D01*
X98408458Y-98404021D01*
X98388480Y-98421883D01*
X98386339Y-98424381D01*
X98386335Y-98424385D01*
X98196058Y-98646386D01*
X98196054Y-98646392D01*
X98193921Y-98648880D01*
X98031092Y-98899614D01*
X98001110Y-98962757D01*
X97910773Y-99153006D01*
X97902855Y-99169681D01*
X97811462Y-99454336D01*
X97758520Y-99748578D01*
X97744958Y-100047236D01*
X93627735Y-100047236D01*
X96209651Y-97465320D01*
X96212780Y-97462620D01*
X96217269Y-97460425D01*
X96250893Y-97424178D01*
X96253469Y-97421502D01*
X96267248Y-97407723D01*
X96269793Y-97404013D01*
X96273229Y-97400100D01*
X96287185Y-97385055D01*
X96293401Y-97378354D01*
X96297666Y-97367664D01*
X96307980Y-97348348D01*
X96309321Y-97346393D01*
X96309322Y-97346390D01*
X96314492Y-97338854D01*
X96320641Y-97312941D01*
X96325014Y-97299116D01*
X96332294Y-97280868D01*
X96332294Y-97280866D01*
X96334883Y-97274378D01*
X96335500Y-97268085D01*
X96335500Y-97261916D01*
X96338175Y-97239057D01*
X96338230Y-97238827D01*
X96338230Y-97238825D01*
X96340340Y-97229934D01*
X96336404Y-97201012D01*
X96335500Y-97187663D01*
X96335500Y-97180747D01*
X96616504Y-97180747D01*
X96617300Y-97185778D01*
X96618130Y-97186608D01*
X96624725Y-97192141D01*
X96803972Y-97317652D01*
X96811442Y-97321964D01*
X97009755Y-97414439D01*
X97017848Y-97417385D01*
X97229218Y-97474022D01*
X97237706Y-97475518D01*
X97455691Y-97494589D01*
X97464309Y-97494589D01*
X97682294Y-97475518D01*
X97690782Y-97474022D01*
X97902152Y-97417385D01*
X97910245Y-97414439D01*
X98108558Y-97321964D01*
X98116028Y-97317652D01*
X98295275Y-97192141D01*
X98298076Y-97189791D01*
X98303496Y-97179153D01*
X98302700Y-97174122D01*
X97471086Y-96342507D01*
X97459203Y-96336453D01*
X97454172Y-96337249D01*
X96622558Y-97168864D01*
X96616504Y-97180747D01*
X96335500Y-97180747D01*
X96335500Y-97126087D01*
X96354407Y-97067896D01*
X96403907Y-97031932D01*
X96465093Y-97031932D01*
X96469417Y-97033723D01*
X96475878Y-97032700D01*
X97317782Y-96190797D01*
X97606453Y-96190797D01*
X97607249Y-96195828D01*
X98438864Y-97027442D01*
X98450747Y-97033496D01*
X98455778Y-97032700D01*
X98456608Y-97031870D01*
X98462141Y-97025275D01*
X98587652Y-96846028D01*
X98591964Y-96838558D01*
X98684439Y-96640245D01*
X98687385Y-96632152D01*
X98744022Y-96420782D01*
X98745518Y-96412294D01*
X98764589Y-96194309D01*
X98764589Y-96185691D01*
X98745518Y-95967706D01*
X98744022Y-95959218D01*
X98687385Y-95747848D01*
X98684439Y-95739755D01*
X98591964Y-95541442D01*
X98587652Y-95533972D01*
X98462141Y-95354725D01*
X98459791Y-95351924D01*
X98449153Y-95346504D01*
X98444122Y-95347300D01*
X97612507Y-96178914D01*
X97606453Y-96190797D01*
X97317782Y-96190797D01*
X97460000Y-96048579D01*
X98297442Y-95211136D01*
X98303496Y-95199253D01*
X98302700Y-95194222D01*
X98301870Y-95193392D01*
X98295275Y-95187859D01*
X98116028Y-95062348D01*
X98108558Y-95058036D01*
X97910245Y-94965561D01*
X97902152Y-94962615D01*
X97690782Y-94905978D01*
X97682295Y-94904482D01*
X97627580Y-94899695D01*
X97571259Y-94875788D01*
X97565375Y-94865996D01*
X98895814Y-94865996D01*
X98896032Y-94870707D01*
X98896032Y-94870708D01*
X98897665Y-94905978D01*
X98905523Y-95075767D01*
X98916732Y-95122277D01*
X98948869Y-95255622D01*
X98954724Y-95279918D01*
X99041640Y-95471081D01*
X99163137Y-95642360D01*
X99241127Y-95717019D01*
X99311427Y-95784317D01*
X99311431Y-95784320D01*
X99314831Y-95787575D01*
X99491246Y-95901485D01*
X99495623Y-95903249D01*
X99634500Y-95959218D01*
X99686019Y-95979981D01*
X99690643Y-95980884D01*
X99888627Y-96019548D01*
X99888634Y-96019549D01*
X99892122Y-96020230D01*
X99897643Y-96020500D01*
X100052469Y-96020500D01*
X100148540Y-96011334D01*
X100204353Y-96006009D01*
X100204355Y-96006009D01*
X100209046Y-96005561D01*
X100410549Y-95946447D01*
X100597239Y-95850295D01*
X100762379Y-95720576D01*
X100900010Y-95561971D01*
X101005166Y-95380201D01*
X101027228Y-95316669D01*
X101072509Y-95186273D01*
X101072510Y-95186271D01*
X101074053Y-95181826D01*
X101104186Y-94974004D01*
X101103007Y-94948528D01*
X101094695Y-94768941D01*
X101094695Y-94768940D01*
X101094477Y-94764233D01*
X101070040Y-94662836D01*
X101046381Y-94564665D01*
X101046379Y-94564660D01*
X101045276Y-94560082D01*
X100958360Y-94368919D01*
X100836863Y-94197640D01*
X100698085Y-94064789D01*
X100688573Y-94055683D01*
X100688569Y-94055680D01*
X100685169Y-94052425D01*
X100508754Y-93938515D01*
X100402539Y-93895709D01*
X100318356Y-93861782D01*
X100318354Y-93861781D01*
X100313981Y-93860019D01*
X100294338Y-93856183D01*
X100111373Y-93820452D01*
X100111366Y-93820451D01*
X100107878Y-93819770D01*
X100102357Y-93819500D01*
X99947531Y-93819500D01*
X99851460Y-93828666D01*
X99795647Y-93833991D01*
X99795645Y-93833991D01*
X99790954Y-93834439D01*
X99589451Y-93893553D01*
X99402761Y-93989705D01*
X99237621Y-94119424D01*
X99169507Y-94197918D01*
X99124325Y-94249986D01*
X99099990Y-94278029D01*
X98994834Y-94459799D01*
X98993290Y-94464244D01*
X98993290Y-94464245D01*
X98937425Y-94625122D01*
X98925947Y-94658174D01*
X98925271Y-94662836D01*
X98901999Y-94823342D01*
X98895814Y-94865996D01*
X97565375Y-94865996D01*
X97539746Y-94823342D01*
X97545079Y-94762390D01*
X97548000Y-94756126D01*
X97556182Y-94740068D01*
X97556182Y-94740067D01*
X97559719Y-94733126D01*
X97580804Y-94600000D01*
X97559719Y-94466874D01*
X97554037Y-94455723D01*
X97502064Y-94353719D01*
X97502063Y-94353717D01*
X97498528Y-94346780D01*
X97403220Y-94251472D01*
X97396283Y-94247937D01*
X97396281Y-94247936D01*
X97290066Y-94193817D01*
X97290065Y-94193817D01*
X97283126Y-94190281D01*
X97275432Y-94189062D01*
X97275431Y-94189062D01*
X97157696Y-94170415D01*
X97150000Y-94169196D01*
X97142304Y-94170415D01*
X97024568Y-94189062D01*
X97024566Y-94189063D01*
X97016874Y-94190281D01*
X97009933Y-94193817D01*
X97007359Y-94194654D01*
X96976766Y-94199500D01*
X95811045Y-94199500D01*
X95806920Y-94199197D01*
X95802195Y-94197575D01*
X95752776Y-94199430D01*
X95749063Y-94199500D01*
X95729589Y-94199500D01*
X95725159Y-94200325D01*
X95719966Y-94200661D01*
X95703935Y-94201263D01*
X95699462Y-94201431D01*
X95690329Y-94201774D01*
X95681935Y-94205380D01*
X95681932Y-94205381D01*
X95679754Y-94206317D01*
X95658803Y-94212683D01*
X95647484Y-94214791D01*
X95639701Y-94219588D01*
X95639702Y-94219588D01*
X95624809Y-94228768D01*
X95611941Y-94235452D01*
X95593895Y-94243205D01*
X95593894Y-94243206D01*
X95587474Y-94245964D01*
X95582588Y-94249978D01*
X95578224Y-94254342D01*
X95560169Y-94268613D01*
X95552189Y-94273532D01*
X95534519Y-94296769D01*
X95525727Y-94306839D01*
X94700349Y-95132217D01*
X94697220Y-95134917D01*
X94692731Y-95137112D01*
X94686513Y-95143815D01*
X94659107Y-95173359D01*
X94656531Y-95176035D01*
X94642752Y-95189814D01*
X94640207Y-95193524D01*
X94636771Y-95197437D01*
X94616599Y-95219183D01*
X94613212Y-95227671D01*
X94613212Y-95227672D01*
X94612334Y-95229873D01*
X94602020Y-95249189D01*
X94600679Y-95251144D01*
X94600678Y-95251147D01*
X94595508Y-95258683D01*
X94590469Y-95279918D01*
X94589359Y-95284595D01*
X94584986Y-95298421D01*
X94584330Y-95300066D01*
X94575117Y-95323159D01*
X94574500Y-95329452D01*
X94574500Y-95335621D01*
X94571825Y-95358480D01*
X94569660Y-95367603D01*
X94573323Y-95394521D01*
X94573596Y-95396524D01*
X94574500Y-95409874D01*
X94574500Y-96659521D01*
X94555593Y-96717712D01*
X94545504Y-96729525D01*
X91525349Y-99749680D01*
X91522220Y-99752380D01*
X91517731Y-99754575D01*
X91511513Y-99761278D01*
X91484107Y-99790822D01*
X91481531Y-99793498D01*
X91467752Y-99807277D01*
X91465207Y-99810987D01*
X91461771Y-99814900D01*
X91441599Y-99836646D01*
X91438212Y-99845134D01*
X91438212Y-99845135D01*
X91437334Y-99847336D01*
X91427020Y-99866652D01*
X91425679Y-99868607D01*
X91425678Y-99868610D01*
X91420508Y-99876146D01*
X91418398Y-99885038D01*
X91414359Y-99902058D01*
X91409986Y-99915884D01*
X91402706Y-99934132D01*
X91400117Y-99940622D01*
X91399500Y-99946915D01*
X91399500Y-99953084D01*
X91396825Y-99975943D01*
X91394660Y-99985066D01*
X89900499Y-99985066D01*
X89900499Y-97800000D01*
X92119196Y-97800000D01*
X92120415Y-97807696D01*
X92138314Y-97920704D01*
X92140281Y-97933126D01*
X92143817Y-97940065D01*
X92143817Y-97940066D01*
X92182633Y-98016246D01*
X92201472Y-98053220D01*
X92296780Y-98148528D01*
X92303717Y-98152063D01*
X92303719Y-98152064D01*
X92409934Y-98206183D01*
X92416874Y-98209719D01*
X92424568Y-98210938D01*
X92424569Y-98210938D01*
X92542304Y-98229585D01*
X92550000Y-98230804D01*
X92557696Y-98229585D01*
X92675431Y-98210938D01*
X92675432Y-98210938D01*
X92683126Y-98209719D01*
X92690066Y-98206183D01*
X92796281Y-98152064D01*
X92796283Y-98152063D01*
X92803220Y-98148528D01*
X92898528Y-98053220D01*
X92917368Y-98016246D01*
X92956183Y-97940066D01*
X92956183Y-97940065D01*
X92959719Y-97933126D01*
X92961687Y-97920704D01*
X92979585Y-97807696D01*
X92980804Y-97800000D01*
X92959719Y-97666874D01*
X92898528Y-97546780D01*
X92803220Y-97451472D01*
X92796283Y-97447937D01*
X92796281Y-97447936D01*
X92690066Y-97393817D01*
X92690065Y-97393817D01*
X92683126Y-97390281D01*
X92675432Y-97389062D01*
X92675431Y-97389062D01*
X92557696Y-97370415D01*
X92550000Y-97369196D01*
X92542304Y-97370415D01*
X92424569Y-97389062D01*
X92424568Y-97389062D01*
X92416874Y-97390281D01*
X92409935Y-97393817D01*
X92409934Y-97393817D01*
X92303719Y-97447936D01*
X92303717Y-97447937D01*
X92296780Y-97451472D01*
X92201472Y-97546780D01*
X92140281Y-97666874D01*
X92119196Y-97800000D01*
X89900499Y-97800000D01*
X89900499Y-95450912D01*
X89903017Y-95428726D01*
X89903062Y-95428531D01*
X89905655Y-95417254D01*
X89903194Y-95406378D01*
X89903213Y-95395560D01*
X89902351Y-95385093D01*
X89902383Y-95384555D01*
X89911392Y-95229873D01*
X89915713Y-95155700D01*
X89917049Y-95144266D01*
X89959065Y-94905978D01*
X89961483Y-94892266D01*
X89964136Y-94881071D01*
X89964138Y-94881067D01*
X89999116Y-94764233D01*
X90037525Y-94635940D01*
X90041463Y-94625122D01*
X90142807Y-94390182D01*
X90147973Y-94379894D01*
X90233024Y-94232581D01*
X90275919Y-94158285D01*
X90282242Y-94148672D01*
X90301369Y-94122981D01*
X90435040Y-93943431D01*
X90442440Y-93934612D01*
X90618035Y-93748493D01*
X90626399Y-93740601D01*
X90822430Y-93576112D01*
X90831656Y-93569245D01*
X91012961Y-93450000D01*
X94319196Y-93450000D01*
X94340281Y-93583126D01*
X94401472Y-93703220D01*
X94496780Y-93798528D01*
X94503717Y-93802063D01*
X94503719Y-93802064D01*
X94609934Y-93856183D01*
X94616874Y-93859719D01*
X94624568Y-93860938D01*
X94624569Y-93860938D01*
X94742304Y-93879585D01*
X94750000Y-93880804D01*
X94757696Y-93879585D01*
X94875431Y-93860938D01*
X94875432Y-93860938D01*
X94883126Y-93859719D01*
X94890066Y-93856183D01*
X94996281Y-93802064D01*
X94996283Y-93802063D01*
X95003220Y-93798528D01*
X95098528Y-93703220D01*
X95159719Y-93583126D01*
X95180804Y-93450000D01*
X95168727Y-93373750D01*
X95178298Y-93313319D01*
X95221563Y-93270055D01*
X95281995Y-93260483D01*
X95336512Y-93288260D01*
X95346780Y-93298528D01*
X95353717Y-93302063D01*
X95353719Y-93302064D01*
X95397888Y-93324569D01*
X95466874Y-93359719D01*
X95474568Y-93360938D01*
X95474569Y-93360938D01*
X95592304Y-93379585D01*
X95600000Y-93380804D01*
X95607696Y-93379585D01*
X95725431Y-93360938D01*
X95725432Y-93360938D01*
X95733126Y-93359719D01*
X95802112Y-93324569D01*
X95846281Y-93302064D01*
X95846283Y-93302063D01*
X95853220Y-93298528D01*
X95948528Y-93203220D01*
X95980987Y-93139517D01*
X96006183Y-93090066D01*
X96006183Y-93090065D01*
X96009719Y-93083126D01*
X96019845Y-93019196D01*
X96029585Y-92957696D01*
X96030804Y-92950000D01*
X96009719Y-92816874D01*
X96012320Y-92816462D01*
X96012317Y-92767643D01*
X96048278Y-92718141D01*
X96106468Y-92699230D01*
X96164659Y-92718134D01*
X96176478Y-92728226D01*
X96246780Y-92798528D01*
X96253717Y-92802063D01*
X96253719Y-92802064D01*
X96297888Y-92824569D01*
X96366874Y-92859719D01*
X96374568Y-92860938D01*
X96374569Y-92860938D01*
X96492304Y-92879585D01*
X96500000Y-92880804D01*
X96507696Y-92879585D01*
X96625431Y-92860938D01*
X96625432Y-92860938D01*
X96633126Y-92859719D01*
X96702112Y-92824569D01*
X96746281Y-92802064D01*
X96746283Y-92802063D01*
X96753220Y-92798528D01*
X96848528Y-92703220D01*
X96859409Y-92681866D01*
X96906183Y-92590066D01*
X96906183Y-92590065D01*
X96909719Y-92583126D01*
X96919845Y-92519196D01*
X96929585Y-92457696D01*
X96930804Y-92450000D01*
X96909719Y-92316874D01*
X96848528Y-92196780D01*
X96753220Y-92101472D01*
X96746283Y-92097937D01*
X96746281Y-92097936D01*
X96640066Y-92043817D01*
X96640065Y-92043817D01*
X96633126Y-92040281D01*
X96625432Y-92039062D01*
X96625431Y-92039062D01*
X96507696Y-92020415D01*
X96500000Y-92019196D01*
X96492304Y-92020415D01*
X96374569Y-92039062D01*
X96374568Y-92039062D01*
X96366874Y-92040281D01*
X96359935Y-92043817D01*
X96359934Y-92043817D01*
X96253719Y-92097936D01*
X96253717Y-92097937D01*
X96246780Y-92101472D01*
X96151472Y-92196780D01*
X96090281Y-92316874D01*
X96069196Y-92450000D01*
X96070415Y-92457696D01*
X96090281Y-92583126D01*
X96087680Y-92583538D01*
X96087683Y-92632357D01*
X96051722Y-92681859D01*
X95993532Y-92700770D01*
X95935341Y-92681866D01*
X95923522Y-92671774D01*
X95853220Y-92601472D01*
X95846283Y-92597937D01*
X95846281Y-92597936D01*
X95740066Y-92543817D01*
X95740065Y-92543817D01*
X95733126Y-92540281D01*
X95725432Y-92539062D01*
X95725431Y-92539062D01*
X95607696Y-92520415D01*
X95600000Y-92519196D01*
X95592304Y-92520415D01*
X95474569Y-92539062D01*
X95474568Y-92539062D01*
X95466874Y-92540281D01*
X95459935Y-92543817D01*
X95459934Y-92543817D01*
X95353719Y-92597936D01*
X95353717Y-92597937D01*
X95346780Y-92601472D01*
X95251472Y-92696780D01*
X95247937Y-92703717D01*
X95247936Y-92703719D01*
X95240588Y-92718141D01*
X95190281Y-92816874D01*
X95189062Y-92824568D01*
X95189062Y-92824569D01*
X95175053Y-92913022D01*
X95169196Y-92950000D01*
X95170415Y-92957696D01*
X95181273Y-93026249D01*
X95171702Y-93086681D01*
X95128437Y-93129945D01*
X95068005Y-93139517D01*
X95013488Y-93111740D01*
X95003220Y-93101472D01*
X94996283Y-93097937D01*
X94996281Y-93097936D01*
X94890066Y-93043817D01*
X94890065Y-93043817D01*
X94883126Y-93040281D01*
X94875432Y-93039062D01*
X94875431Y-93039062D01*
X94757696Y-93020415D01*
X94750000Y-93019196D01*
X94742304Y-93020415D01*
X94624569Y-93039062D01*
X94624568Y-93039062D01*
X94616874Y-93040281D01*
X94609935Y-93043817D01*
X94609934Y-93043817D01*
X94503719Y-93097936D01*
X94503717Y-93097937D01*
X94496780Y-93101472D01*
X94401472Y-93196780D01*
X94397937Y-93203717D01*
X94397936Y-93203719D01*
X94352434Y-93293022D01*
X94340281Y-93316874D01*
X94339062Y-93324568D01*
X94339062Y-93324569D01*
X94325963Y-93407276D01*
X94319196Y-93450000D01*
X91012961Y-93450000D01*
X91023222Y-93443251D01*
X91032236Y-93439010D01*
X91032195Y-93438938D01*
X91041860Y-93433380D01*
X91052518Y-93430112D01*
X91061549Y-93421764D01*
X91079249Y-93408726D01*
X93769514Y-91855500D01*
X98294738Y-91855500D01*
X101705262Y-91855500D01*
X101705262Y-89544500D01*
X98294738Y-89544500D01*
X98294738Y-91855500D01*
X93769514Y-91855500D01*
X98820792Y-88939142D01*
X98841263Y-88930231D01*
X98841859Y-88930048D01*
X98852517Y-88926779D01*
X98860701Y-88919214D01*
X98870077Y-88913823D01*
X98878716Y-88907838D01*
X99084062Y-88804709D01*
X99094633Y-88800149D01*
X99335084Y-88712632D01*
X99346113Y-88709331D01*
X99470596Y-88679828D01*
X99595083Y-88650324D01*
X99606412Y-88648326D01*
X99860573Y-88618618D01*
X99872065Y-88617949D01*
X100127933Y-88617949D01*
X100139427Y-88618618D01*
G37*
%TD.AperFunction*%
%TD*%
M02*
