%TF.GenerationSoftware,KiCad,Pcbnew,(6.0.6)*%
%TF.CreationDate,2022-07-10T21:40:21+02:00*%
%TF.ProjectId,GCode_Buttons_Cherry_MX,47436f64-655f-4427-9574-746f6e735f43,rev?*%
%TF.SameCoordinates,Original*%
%TF.FileFunction,Profile,NP*%
%FSLAX46Y46*%
G04 Gerber Fmt 4.6, Leading zero omitted, Abs format (unit mm)*
G04 Created by KiCad (PCBNEW (6.0.6)) date 2022-07-10 21:40:21*
%MOMM*%
%LPD*%
G01*
G04 APERTURE LIST*
%TA.AperFunction,Profile*%
%ADD10C,0.100000*%
%TD*%
G04 APERTURE END LIST*
D10*
X90950001Y-93251829D02*
X98750000Y-88748496D01*
X89700023Y-104423558D02*
G75*
G03*
X90949999Y-106588621I2499777J-142D01*
G01*
X109050025Y-106588666D02*
G75*
G03*
X110300001Y-104423557I-1250225J2165166D01*
G01*
X110299999Y-95416892D02*
X110300001Y-104423557D01*
X98750000Y-111091953D02*
X90949999Y-106588621D01*
X110300006Y-95416892D02*
G75*
G03*
X109049999Y-93251829I-2500006J-8D01*
G01*
X101249999Y-88748496D02*
X109049999Y-93251829D01*
X90950003Y-93251833D02*
G75*
G03*
X89699999Y-95416895I1249997J-2165067D01*
G01*
X101249999Y-88748496D02*
G75*
G03*
X98750000Y-88748496I-1249999J-2165058D01*
G01*
X98750001Y-111091952D02*
G75*
G03*
X101250000Y-111091952I1249999J2164952D01*
G01*
X109050000Y-106588622D02*
X101250000Y-111091952D01*
X89699999Y-104423558D02*
X89699999Y-95416895D01*
%TO.C,D1*%
X105802842Y-101699999D02*
X104397158Y-101699999D01*
X104397158Y-98300001D02*
X105802842Y-98300001D01*
X103600001Y-100794452D02*
X103600001Y-99205547D01*
X106600000Y-99205548D02*
X106600000Y-100794452D01*
X104180279Y-98250518D02*
G75*
G03*
X103531702Y-98953289I-216879J-450512D01*
G01*
X106019720Y-101749484D02*
G75*
G03*
X106668297Y-101046711I216877J450515D01*
G01*
X103531701Y-101046711D02*
G75*
G03*
X104180280Y-101749484I431701J-252258D01*
G01*
X106600000Y-100794452D02*
G75*
G03*
X106668299Y-101046710I500009J3D01*
G01*
X103531701Y-101046711D02*
G75*
G03*
X103600000Y-100794453I-431710J252261D01*
G01*
X104397158Y-101699999D02*
G75*
G03*
X104180280Y-101749484I-2J-499990D01*
G01*
X104180281Y-98250515D02*
G75*
G03*
X104397157Y-98300001I216879J450505D01*
G01*
X103600001Y-99205547D02*
G75*
G03*
X103531702Y-98953289I-500011J-3D01*
G01*
X105802842Y-98300019D02*
G75*
G03*
X106019720Y-98250516I-42J500019D01*
G01*
X106019720Y-101749484D02*
G75*
G03*
X105802843Y-101699999I-216876J-450505D01*
G01*
X106668300Y-98953290D02*
G75*
G03*
X106019719Y-98250516I-431700J252260D01*
G01*
X106668299Y-98953289D02*
G75*
G03*
X106600000Y-99205548I431711J-252261D01*
G01*
%TD*%
M02*
