%TF.GenerationSoftware,KiCad,Pcbnew,(6.0.6)*%
%TF.CreationDate,2022-07-10T21:40:21+02:00*%
%TF.ProjectId,GCode_Buttons_Cherry_MX,47436f64-655f-4427-9574-746f6e735f43,rev?*%
%TF.SameCoordinates,Original*%
%TF.FileFunction,Legend,Bot*%
%TF.FilePolarity,Positive*%
%FSLAX46Y46*%
G04 Gerber Fmt 4.6, Leading zero omitted, Abs format (unit mm)*
G04 Created by KiCad (PCBNEW (6.0.6)) date 2022-07-10 21:40:21*
%MOMM*%
%LPD*%
G01*
G04 APERTURE LIST*
%ADD10C,0.100000*%
%ADD11C,0.120000*%
%ADD12C,1.700000*%
%ADD13C,4.000000*%
%ADD14C,2.200000*%
%ADD15C,0.450000*%
G04 APERTURE END LIST*
D10*
%TO.C,SW1*%
X92409333Y-99066666D02*
X92442666Y-99166666D01*
X92442666Y-99333333D01*
X92409333Y-99400000D01*
X92376000Y-99433333D01*
X92309333Y-99466666D01*
X92242666Y-99466666D01*
X92176000Y-99433333D01*
X92142666Y-99400000D01*
X92109333Y-99333333D01*
X92076000Y-99200000D01*
X92042666Y-99133333D01*
X92009333Y-99100000D01*
X91942666Y-99066666D01*
X91876000Y-99066666D01*
X91809333Y-99100000D01*
X91776000Y-99133333D01*
X91742666Y-99200000D01*
X91742666Y-99366666D01*
X91776000Y-99466666D01*
X91742666Y-99700000D02*
X92442666Y-99866666D01*
X91942666Y-100000000D01*
X92442666Y-100133333D01*
X91742666Y-100300000D01*
X92442666Y-100933333D02*
X92442666Y-100533333D01*
X92442666Y-100733333D02*
X91742666Y-100733333D01*
X91842666Y-100666666D01*
X91909333Y-100600000D01*
X91942666Y-100533333D01*
D11*
X106985000Y-93015000D02*
X93015000Y-93015000D01*
X93015000Y-106985000D02*
X106985000Y-106985000D01*
X106985000Y-106985000D02*
X106985000Y-93015000D01*
X93015000Y-93015000D02*
X93015000Y-106985000D01*
%TD*%
%LPC*%
D12*
%TO.C,SW1*%
X100000000Y-94920000D03*
X100000000Y-105080000D03*
D13*
X100000000Y-100000000D03*
D14*
X94920000Y-102540000D03*
X97460000Y-96190000D03*
%TD*%
D15*
X103650000Y-104800000D03*
X92550000Y-97800000D03*
X96500000Y-92450000D03*
X109350000Y-100600000D03*
X90650000Y-94350000D03*
X109450000Y-94350000D03*
X100000000Y-110850000D03*
X109450000Y-105300000D03*
X97400000Y-91950000D03*
X100000000Y-89000000D03*
X90500000Y-105300000D03*
X95600000Y-92950000D03*
X102750000Y-105300000D03*
X94850000Y-104950000D03*
X102550000Y-107950000D03*
X93050000Y-99400000D03*
X95400000Y-95600000D03*
X93050000Y-101550000D03*
X94750000Y-93450000D03*
X101900000Y-105800000D03*
X93450000Y-103500000D03*
X103450000Y-107450000D03*
X96250000Y-95100000D03*
X104300000Y-106950000D03*
X96800000Y-106050000D03*
X97150000Y-94600000D03*
X105150000Y-106400000D03*
X104350000Y-104100000D03*
M02*
