%TF.GenerationSoftware,KiCad,Pcbnew,(6.0.6)*%
%TF.CreationDate,2022-07-10T21:40:21+02:00*%
%TF.ProjectId,GCode_Buttons_Cherry_MX,47436f64-655f-4427-9574-746f6e735f43,rev?*%
%TF.SameCoordinates,Original*%
%TF.FileFunction,Copper,L2,Inr*%
%TF.FilePolarity,Positive*%
%FSLAX46Y46*%
G04 Gerber Fmt 4.6, Leading zero omitted, Abs format (unit mm)*
G04 Created by KiCad (PCBNEW (6.0.6)) date 2022-07-10 21:40:21*
%MOMM*%
%LPD*%
G01*
G04 APERTURE LIST*
%TA.AperFunction,ComponentPad*%
%ADD10C,2.200000*%
%TD*%
%TA.AperFunction,ViaPad*%
%ADD11C,0.450000*%
%TD*%
%TA.AperFunction,Conductor*%
%ADD12C,0.250000*%
%TD*%
G04 APERTURE END LIST*
D10*
%TO.N,Net-(JP1-Pad1)*%
%TO.C,SW1*%
X94920000Y-102540000D03*
%TO.N,GND*%
X97460000Y-96190000D03*
%TD*%
D11*
%TO.N,+5V*%
X103650000Y-104800000D03*
X92550000Y-97800000D03*
X96500000Y-92450000D03*
X109350000Y-100600000D03*
%TO.N,GND*%
X90650000Y-94350000D03*
X109450000Y-94350000D03*
X100000000Y-110850000D03*
X109450000Y-105300000D03*
X97400000Y-91950000D03*
X100000000Y-89000000D03*
X90500000Y-105300000D03*
%TO.N,Net-(J1-Pad4)*%
X95600000Y-92950000D03*
X102750000Y-105300000D03*
X94850000Y-104950000D03*
%TO.N,Net-(J1-Pad1)*%
X102550000Y-107950000D03*
X93050000Y-99400000D03*
X95400000Y-95600000D03*
%TO.N,Net-(J1-Pad2)*%
X93050000Y-101550000D03*
X94750000Y-93450000D03*
X101900000Y-105800000D03*
%TO.N,Net-(J1-Pad3)*%
X93450000Y-103500000D03*
X103450000Y-107450000D03*
X96250000Y-95100000D03*
%TO.N,Net-(J1-Pad5)*%
X104300000Y-106950000D03*
X96800000Y-106050000D03*
X97150000Y-94600000D03*
%TO.N,Dout*%
X105150000Y-106400000D03*
X104350000Y-104100000D03*
%TD*%
D12*
%TO.N,Net-(J1-Pad4)*%
X94150000Y-92900000D02*
X95550000Y-92900000D01*
X91400000Y-103222182D02*
X91400000Y-95650000D01*
X95550000Y-92900000D02*
X95600000Y-92950000D01*
X101700000Y-107200000D02*
X102750000Y-106150000D01*
X94850000Y-104950000D02*
X94850000Y-105536396D01*
X102750000Y-106150000D02*
X102750000Y-105300000D01*
X93127818Y-104950000D02*
X91400000Y-103222182D01*
X91400000Y-95650000D02*
X94150000Y-92900000D01*
X96513604Y-107200000D02*
X101700000Y-107200000D01*
X94850000Y-104950000D02*
X93127818Y-104950000D01*
X94850000Y-105536396D02*
X96513604Y-107200000D01*
%TO.N,Net-(J1-Pad2)*%
X101900000Y-105800000D02*
X100950000Y-106750000D01*
X95077818Y-104400000D02*
X93350000Y-104400000D01*
X95400000Y-105450000D02*
X95400000Y-104722182D01*
X96700000Y-106750000D02*
X95400000Y-105450000D01*
X93350000Y-104400000D02*
X91850000Y-102900000D01*
X91850000Y-101550000D02*
X91850000Y-95836396D01*
X91850000Y-95836396D02*
X94236396Y-93450000D01*
X100950000Y-106750000D02*
X96700000Y-106750000D01*
X91850000Y-102900000D02*
X91850000Y-101550000D01*
X95400000Y-104722182D02*
X95077818Y-104400000D01*
X94236396Y-93450000D02*
X94750000Y-93450000D01*
X91850000Y-101550000D02*
X93050000Y-101550000D01*
%TD*%
%TA.AperFunction,Conductor*%
%TO.N,+5V*%
G36*
X99255245Y-89147220D02*
G01*
X99295159Y-89205083D01*
X99329932Y-89309615D01*
X99415179Y-89450373D01*
X99529491Y-89568747D01*
X99667189Y-89658854D01*
X99821428Y-89716215D01*
X99828409Y-89717146D01*
X99828411Y-89717147D01*
X99977561Y-89737048D01*
X99977565Y-89737048D01*
X99984542Y-89737979D01*
X99991553Y-89737341D01*
X99991557Y-89737341D01*
X100141403Y-89723704D01*
X100141404Y-89723704D01*
X100148424Y-89723065D01*
X100177062Y-89713760D01*
X100298230Y-89674390D01*
X100298233Y-89674389D01*
X100304929Y-89672213D01*
X100446279Y-89587951D01*
X100565449Y-89474468D01*
X100581458Y-89450373D01*
X100652614Y-89343275D01*
X100652615Y-89343273D01*
X100656515Y-89337403D01*
X100705413Y-89208678D01*
X100708342Y-89200967D01*
X100751230Y-89144388D01*
X100817899Y-89119979D01*
X100881859Y-89132705D01*
X100958214Y-89170360D01*
X100977743Y-89182824D01*
X100980726Y-89184595D01*
X100987718Y-89190227D01*
X101017122Y-89202437D01*
X101031789Y-89209678D01*
X108753005Y-93667526D01*
X108769036Y-93678513D01*
X108787719Y-93693561D01*
X108796007Y-93697002D01*
X108796011Y-93697005D01*
X108802885Y-93699859D01*
X108824566Y-93711459D01*
X108836349Y-93719332D01*
X108881877Y-93773809D01*
X108890726Y-93844252D01*
X108872259Y-93892353D01*
X108788838Y-94021797D01*
X108786427Y-94028420D01*
X108786426Y-94028423D01*
X108734966Y-94169809D01*
X108734965Y-94169814D01*
X108732556Y-94176432D01*
X108711931Y-94339694D01*
X108727989Y-94503468D01*
X108779932Y-94659615D01*
X108783581Y-94665640D01*
X108859220Y-94790533D01*
X108865179Y-94800373D01*
X108979491Y-94918747D01*
X109117189Y-95008854D01*
X109271428Y-95066215D01*
X109278409Y-95067146D01*
X109278411Y-95067147D01*
X109427561Y-95087048D01*
X109427565Y-95087048D01*
X109434542Y-95087979D01*
X109441553Y-95087341D01*
X109441557Y-95087341D01*
X109591403Y-95073704D01*
X109591404Y-95073704D01*
X109598424Y-95073065D01*
X109611344Y-95068867D01*
X109682312Y-95066841D01*
X109743109Y-95103505D01*
X109774433Y-95167218D01*
X109776008Y-95180460D01*
X109788766Y-95375105D01*
X109787731Y-95398357D01*
X109787690Y-95401745D01*
X109786308Y-95410618D01*
X109787472Y-95419520D01*
X109787472Y-95419523D01*
X109790435Y-95442179D01*
X109791499Y-95458516D01*
X109791501Y-104374186D01*
X109790000Y-104393574D01*
X109786310Y-104417269D01*
X109787957Y-104429863D01*
X109788440Y-104433560D01*
X109789233Y-104458134D01*
X109788507Y-104469217D01*
X109788354Y-104471545D01*
X109763939Y-104538212D01*
X109707358Y-104581096D01*
X109636573Y-104586582D01*
X109632053Y-104585305D01*
X109632047Y-104585332D01*
X109625188Y-104583723D01*
X109618555Y-104581361D01*
X109611569Y-104580528D01*
X109611565Y-104580527D01*
X109484086Y-104565327D01*
X109455153Y-104561877D01*
X109448150Y-104562613D01*
X109448149Y-104562613D01*
X109422328Y-104565327D01*
X109291495Y-104579078D01*
X109284827Y-104581348D01*
X109142382Y-104629840D01*
X109142379Y-104629841D01*
X109135715Y-104632110D01*
X109052591Y-104683248D01*
X109005492Y-104712224D01*
X108995555Y-104718337D01*
X108938316Y-104774390D01*
X108894654Y-104817147D01*
X108877982Y-104833473D01*
X108788838Y-104971797D01*
X108786427Y-104978420D01*
X108786426Y-104978423D01*
X108734966Y-105119809D01*
X108734965Y-105119814D01*
X108732556Y-105126432D01*
X108711931Y-105289694D01*
X108727989Y-105453468D01*
X108779932Y-105609615D01*
X108783581Y-105615640D01*
X108859103Y-105740340D01*
X108865179Y-105750373D01*
X108870070Y-105755438D01*
X108870071Y-105755439D01*
X108966737Y-105855540D01*
X108999669Y-105918437D01*
X108993369Y-105989153D01*
X108946108Y-106047828D01*
X108830735Y-106124927D01*
X108809274Y-106136077D01*
X108806933Y-106137391D01*
X108798564Y-106140629D01*
X108791440Y-106146086D01*
X108773307Y-106159976D01*
X108759686Y-106169069D01*
X105692873Y-107939694D01*
X101209077Y-110528415D01*
X101038499Y-110626898D01*
X101020961Y-110635291D01*
X101009702Y-110639647D01*
X100998580Y-110643950D01*
X100991452Y-110649410D01*
X100985542Y-110653937D01*
X100964654Y-110666914D01*
X100877719Y-110709788D01*
X100807777Y-110721979D01*
X100742347Y-110694421D01*
X100702997Y-110638220D01*
X100667998Y-110537717D01*
X100665680Y-110531060D01*
X100578476Y-110391505D01*
X100520499Y-110333122D01*
X100467486Y-110279737D01*
X100467482Y-110279734D01*
X100462522Y-110274739D01*
X100323580Y-110186563D01*
X100274447Y-110169068D01*
X100175189Y-110133723D01*
X100175187Y-110133722D01*
X100168555Y-110131361D01*
X100161569Y-110130528D01*
X100161565Y-110130527D01*
X100047071Y-110116875D01*
X100005153Y-110111877D01*
X99998150Y-110112613D01*
X99998149Y-110112613D01*
X99954935Y-110117155D01*
X99841495Y-110129078D01*
X99834827Y-110131348D01*
X99692382Y-110179840D01*
X99692379Y-110179841D01*
X99685715Y-110182110D01*
X99545555Y-110268337D01*
X99427982Y-110383473D01*
X99338838Y-110521797D01*
X99295943Y-110639651D01*
X99253851Y-110696818D01*
X99187530Y-110722157D01*
X99121815Y-110709558D01*
X99041788Y-110670092D01*
X99022286Y-110657643D01*
X99019282Y-110655859D01*
X99012290Y-110650227D01*
X98982877Y-110638012D01*
X98968214Y-110630773D01*
X92917410Y-107137341D01*
X91246992Y-106172925D01*
X91230958Y-106161936D01*
X91219257Y-106152512D01*
X91219253Y-106152510D01*
X91212262Y-106146879D01*
X91197090Y-106140579D01*
X91175408Y-106128979D01*
X91103686Y-106081060D01*
X91022902Y-106027086D01*
X90977372Y-105972611D01*
X90968522Y-105902168D01*
X90999160Y-105838123D01*
X91006009Y-105831072D01*
X91060343Y-105779332D01*
X91060350Y-105779324D01*
X91065449Y-105774468D01*
X91081458Y-105750373D01*
X91152614Y-105643275D01*
X91152615Y-105643273D01*
X91156515Y-105637403D01*
X91214951Y-105483568D01*
X91225993Y-105404999D01*
X91237302Y-105324534D01*
X91237303Y-105324527D01*
X91237853Y-105320610D01*
X91238141Y-105300000D01*
X91219798Y-105136466D01*
X91213998Y-105119809D01*
X91167998Y-104987717D01*
X91165680Y-104981060D01*
X91078476Y-104841505D01*
X90976129Y-104738441D01*
X90967486Y-104729737D01*
X90967482Y-104729734D01*
X90962522Y-104724739D01*
X90823580Y-104636563D01*
X90702137Y-104593319D01*
X90675189Y-104583723D01*
X90675187Y-104583722D01*
X90668555Y-104581361D01*
X90661569Y-104580528D01*
X90661565Y-104580527D01*
X90534086Y-104565327D01*
X90505153Y-104561877D01*
X90498150Y-104562613D01*
X90498149Y-104562613D01*
X90350809Y-104578099D01*
X90280971Y-104565327D01*
X90229124Y-104516825D01*
X90211730Y-104447992D01*
X90212262Y-104442482D01*
X90212308Y-104438736D01*
X90213690Y-104429863D01*
X90209562Y-104398280D01*
X90208499Y-104381951D01*
X90208499Y-95466263D01*
X90209999Y-95446878D01*
X90212309Y-95432045D01*
X90212309Y-95432041D01*
X90213690Y-95423172D01*
X90211560Y-95406884D01*
X90210766Y-95382306D01*
X90224997Y-95165197D01*
X90227147Y-95148860D01*
X90229029Y-95139396D01*
X90230422Y-95132397D01*
X90263327Y-95069488D01*
X90325021Y-95034354D01*
X90397921Y-95038878D01*
X90471428Y-95066215D01*
X90478409Y-95067146D01*
X90478411Y-95067147D01*
X90627561Y-95087048D01*
X90627565Y-95087048D01*
X90634542Y-95087979D01*
X90641554Y-95087341D01*
X90641558Y-95087341D01*
X90770977Y-95075563D01*
X90840630Y-95089309D01*
X90891794Y-95138530D01*
X90908225Y-95207599D01*
X90885129Y-95272853D01*
X90883414Y-95274679D01*
X90879595Y-95281625D01*
X90879593Y-95281628D01*
X90873652Y-95292434D01*
X90862801Y-95308953D01*
X90850386Y-95324959D01*
X90847241Y-95332228D01*
X90847238Y-95332232D01*
X90832826Y-95365537D01*
X90827609Y-95376187D01*
X90806305Y-95414940D01*
X90804334Y-95422615D01*
X90804334Y-95422616D01*
X90801267Y-95434562D01*
X90794863Y-95453266D01*
X90792117Y-95459613D01*
X90786819Y-95471855D01*
X90785580Y-95479678D01*
X90785577Y-95479688D01*
X90779901Y-95515524D01*
X90777495Y-95527144D01*
X90766500Y-95569970D01*
X90766500Y-95590224D01*
X90764949Y-95609934D01*
X90761780Y-95629943D01*
X90762526Y-95637835D01*
X90765941Y-95673961D01*
X90766500Y-95685819D01*
X90766500Y-103143415D01*
X90765973Y-103154598D01*
X90764298Y-103162091D01*
X90764547Y-103170017D01*
X90764547Y-103170018D01*
X90766438Y-103230168D01*
X90766500Y-103234127D01*
X90766500Y-103262038D01*
X90766997Y-103265972D01*
X90766997Y-103265973D01*
X90767005Y-103266038D01*
X90767938Y-103277875D01*
X90769327Y-103322071D01*
X90774978Y-103341521D01*
X90778987Y-103360882D01*
X90781526Y-103380979D01*
X90784445Y-103388350D01*
X90784445Y-103388352D01*
X90797804Y-103422094D01*
X90801649Y-103433324D01*
X90813982Y-103475775D01*
X90818015Y-103482594D01*
X90818017Y-103482599D01*
X90824293Y-103493210D01*
X90832988Y-103510958D01*
X90840448Y-103529799D01*
X90845110Y-103536215D01*
X90845110Y-103536216D01*
X90866436Y-103565569D01*
X90872952Y-103575489D01*
X90895458Y-103613544D01*
X90909779Y-103627865D01*
X90922619Y-103642898D01*
X90934528Y-103659289D01*
X90940634Y-103664340D01*
X90968605Y-103687480D01*
X90977384Y-103695470D01*
X92624161Y-105342247D01*
X92631705Y-105350537D01*
X92635818Y-105357018D01*
X92641595Y-105362443D01*
X92685485Y-105403658D01*
X92688327Y-105406413D01*
X92708049Y-105426135D01*
X92711173Y-105428558D01*
X92711177Y-105428562D01*
X92711242Y-105428612D01*
X92720263Y-105436317D01*
X92752497Y-105466586D01*
X92759445Y-105470405D01*
X92759447Y-105470407D01*
X92770250Y-105476346D01*
X92786777Y-105487202D01*
X92796516Y-105494757D01*
X92796518Y-105494758D01*
X92802778Y-105499614D01*
X92843358Y-105517174D01*
X92854006Y-105522391D01*
X92892758Y-105543695D01*
X92900434Y-105545666D01*
X92900437Y-105545667D01*
X92912380Y-105548733D01*
X92931085Y-105555137D01*
X92949673Y-105563181D01*
X92957496Y-105564420D01*
X92957506Y-105564423D01*
X92993342Y-105570099D01*
X93004962Y-105572505D01*
X93040107Y-105581528D01*
X93047788Y-105583500D01*
X93068042Y-105583500D01*
X93087752Y-105585051D01*
X93107761Y-105588220D01*
X93115653Y-105587474D01*
X93151779Y-105584059D01*
X93163637Y-105583500D01*
X94106332Y-105583500D01*
X94174453Y-105603502D01*
X94220946Y-105657158D01*
X94227427Y-105679944D01*
X94228562Y-105679653D01*
X94230532Y-105687326D01*
X94231526Y-105695193D01*
X94234445Y-105702564D01*
X94234445Y-105702566D01*
X94247804Y-105736308D01*
X94251649Y-105747538D01*
X94257767Y-105768597D01*
X94263982Y-105789989D01*
X94268015Y-105796808D01*
X94268017Y-105796813D01*
X94274293Y-105807424D01*
X94282988Y-105825172D01*
X94290448Y-105844013D01*
X94295110Y-105850429D01*
X94295110Y-105850430D01*
X94316436Y-105879783D01*
X94322952Y-105889703D01*
X94339946Y-105918437D01*
X94345458Y-105927758D01*
X94359779Y-105942079D01*
X94372619Y-105957112D01*
X94384528Y-105973503D01*
X94390634Y-105978554D01*
X94418605Y-106001694D01*
X94427384Y-106009684D01*
X96009947Y-107592247D01*
X96017491Y-107600537D01*
X96021604Y-107607018D01*
X96027381Y-107612443D01*
X96071271Y-107653658D01*
X96074113Y-107656413D01*
X96093834Y-107676134D01*
X96097029Y-107678612D01*
X96106051Y-107686318D01*
X96138283Y-107716586D01*
X96145232Y-107720406D01*
X96156036Y-107726346D01*
X96172560Y-107737199D01*
X96188563Y-107749613D01*
X96229147Y-107767176D01*
X96239777Y-107772383D01*
X96278544Y-107793695D01*
X96286221Y-107795666D01*
X96286226Y-107795668D01*
X96298162Y-107798732D01*
X96316870Y-107805137D01*
X96335459Y-107813181D01*
X96343284Y-107814420D01*
X96343286Y-107814421D01*
X96379123Y-107820097D01*
X96390744Y-107822504D01*
X96422563Y-107830673D01*
X96433574Y-107833500D01*
X96453835Y-107833500D01*
X96473544Y-107835051D01*
X96493547Y-107838219D01*
X96501439Y-107837473D01*
X96506666Y-107836979D01*
X96537558Y-107834059D01*
X96549415Y-107833500D01*
X101621233Y-107833500D01*
X101632416Y-107834027D01*
X101639909Y-107835702D01*
X101647834Y-107835453D01*
X101647835Y-107835453D01*
X101658585Y-107835115D01*
X101683385Y-107834335D01*
X101752100Y-107852187D01*
X101800256Y-107904355D01*
X101812743Y-107947977D01*
X101827989Y-108103468D01*
X101879932Y-108259615D01*
X101965179Y-108400373D01*
X102079491Y-108518747D01*
X102217189Y-108608854D01*
X102371428Y-108666215D01*
X102378409Y-108667146D01*
X102378411Y-108667147D01*
X102527561Y-108687048D01*
X102527565Y-108687048D01*
X102534542Y-108687979D01*
X102541553Y-108687341D01*
X102541557Y-108687341D01*
X102691403Y-108673704D01*
X102691404Y-108673704D01*
X102698424Y-108673065D01*
X102727062Y-108663760D01*
X102848230Y-108624390D01*
X102848233Y-108624389D01*
X102854929Y-108622213D01*
X102996279Y-108537951D01*
X103115449Y-108424468D01*
X103131458Y-108400373D01*
X103202614Y-108293275D01*
X103202615Y-108293273D01*
X103206515Y-108287403D01*
X103217998Y-108257174D01*
X103260884Y-108200598D01*
X103327552Y-108176187D01*
X103352444Y-108177025D01*
X103401435Y-108183562D01*
X103427562Y-108187048D01*
X103427565Y-108187048D01*
X103434542Y-108187979D01*
X103441553Y-108187341D01*
X103441557Y-108187341D01*
X103591403Y-108173704D01*
X103591404Y-108173704D01*
X103598424Y-108173065D01*
X103638440Y-108160063D01*
X103748230Y-108124390D01*
X103748233Y-108124389D01*
X103754929Y-108122213D01*
X103896279Y-108037951D01*
X104015449Y-107924468D01*
X104072753Y-107838219D01*
X104102614Y-107793275D01*
X104102615Y-107793273D01*
X104106515Y-107787403D01*
X104115586Y-107763524D01*
X104158472Y-107706947D01*
X104225140Y-107682537D01*
X104250037Y-107683375D01*
X104277561Y-107687048D01*
X104277565Y-107687048D01*
X104284542Y-107687979D01*
X104291553Y-107687341D01*
X104291557Y-107687341D01*
X104441403Y-107673704D01*
X104441404Y-107673704D01*
X104448424Y-107673065D01*
X104508152Y-107653658D01*
X104598230Y-107624390D01*
X104598233Y-107624389D01*
X104604929Y-107622213D01*
X104746279Y-107537951D01*
X104865449Y-107424468D01*
X104956515Y-107287403D01*
X104983662Y-107215937D01*
X105026550Y-107159359D01*
X105093219Y-107134949D01*
X105118113Y-107135787D01*
X105121919Y-107136295D01*
X105127562Y-107137048D01*
X105127565Y-107137048D01*
X105134542Y-107137979D01*
X105141553Y-107137341D01*
X105141557Y-107137341D01*
X105291403Y-107123704D01*
X105291404Y-107123704D01*
X105298424Y-107123065D01*
X105321455Y-107115582D01*
X105448230Y-107074390D01*
X105448233Y-107074389D01*
X105454929Y-107072213D01*
X105596279Y-106987951D01*
X105715449Y-106874468D01*
X105719350Y-106868597D01*
X105802614Y-106743275D01*
X105802615Y-106743273D01*
X105806515Y-106737403D01*
X105864951Y-106583568D01*
X105879711Y-106478546D01*
X105887302Y-106424534D01*
X105887303Y-106424527D01*
X105887853Y-106420610D01*
X105888141Y-106400000D01*
X105869798Y-106236466D01*
X105855127Y-106194335D01*
X105817998Y-106087717D01*
X105815680Y-106081060D01*
X105796272Y-106050000D01*
X105732209Y-105947479D01*
X105728476Y-105941505D01*
X105643109Y-105855540D01*
X105617486Y-105829737D01*
X105617482Y-105829734D01*
X105612522Y-105824739D01*
X105473580Y-105736563D01*
X105399224Y-105710086D01*
X105325189Y-105683723D01*
X105325187Y-105683722D01*
X105318555Y-105681361D01*
X105311569Y-105680528D01*
X105311565Y-105680527D01*
X105183499Y-105665257D01*
X105155153Y-105661877D01*
X105148150Y-105662613D01*
X105148149Y-105662613D01*
X105122994Y-105665257D01*
X104991495Y-105679078D01*
X104984827Y-105681348D01*
X104842382Y-105729840D01*
X104842379Y-105729841D01*
X104835715Y-105732110D01*
X104695555Y-105818337D01*
X104676863Y-105836642D01*
X104609950Y-105902168D01*
X104577982Y-105933473D01*
X104488838Y-106071797D01*
X104486427Y-106078420D01*
X104486426Y-106078423D01*
X104466490Y-106133198D01*
X104424396Y-106190370D01*
X104358075Y-106215708D01*
X104333173Y-106215218D01*
X104305153Y-106211877D01*
X104298150Y-106212613D01*
X104298149Y-106212613D01*
X104273365Y-106215218D01*
X104141495Y-106229078D01*
X104134827Y-106231348D01*
X103992382Y-106279840D01*
X103992379Y-106279841D01*
X103985715Y-106282110D01*
X103845555Y-106368337D01*
X103727982Y-106483473D01*
X103638838Y-106621797D01*
X103636427Y-106628420D01*
X103636426Y-106628423D01*
X103633930Y-106635281D01*
X103591835Y-106692452D01*
X103525513Y-106717788D01*
X103500616Y-106717298D01*
X103455153Y-106711877D01*
X103384368Y-106719317D01*
X103314532Y-106706545D01*
X103262685Y-106658043D01*
X103245290Y-106589211D01*
X103267272Y-106525696D01*
X103266587Y-106525319D01*
X103268789Y-106521314D01*
X103268789Y-106521313D01*
X103276346Y-106507568D01*
X103287199Y-106491045D01*
X103294753Y-106481306D01*
X103299613Y-106475041D01*
X103317176Y-106434457D01*
X103322383Y-106423827D01*
X103343695Y-106385060D01*
X103345666Y-106377383D01*
X103345668Y-106377378D01*
X103348732Y-106365442D01*
X103355138Y-106346730D01*
X103360033Y-106335419D01*
X103363181Y-106328145D01*
X103364421Y-106320317D01*
X103364423Y-106320310D01*
X103370099Y-106284476D01*
X103372505Y-106272856D01*
X103381528Y-106237711D01*
X103381528Y-106237710D01*
X103383500Y-106230030D01*
X103383500Y-106209776D01*
X103385051Y-106190065D01*
X103386980Y-106177886D01*
X103388220Y-106170057D01*
X103384059Y-106126038D01*
X103383500Y-106114181D01*
X103383500Y-105710086D01*
X103401458Y-105650599D01*
X103399396Y-105649539D01*
X103402621Y-105643265D01*
X103406515Y-105637403D01*
X103464951Y-105483568D01*
X103475993Y-105404999D01*
X103487302Y-105324534D01*
X103487303Y-105324527D01*
X103487853Y-105320610D01*
X103488141Y-105300000D01*
X103469798Y-105136466D01*
X103463998Y-105119809D01*
X103417998Y-104987717D01*
X103415680Y-104981060D01*
X103328476Y-104841505D01*
X103226129Y-104738441D01*
X103217486Y-104729737D01*
X103217482Y-104729734D01*
X103212522Y-104724739D01*
X103073580Y-104636563D01*
X102952137Y-104593319D01*
X102925189Y-104583723D01*
X102925187Y-104583722D01*
X102918555Y-104581361D01*
X102911569Y-104580528D01*
X102911565Y-104580527D01*
X102784086Y-104565327D01*
X102755153Y-104561877D01*
X102748150Y-104562613D01*
X102748149Y-104562613D01*
X102722328Y-104565327D01*
X102591495Y-104579078D01*
X102584827Y-104581348D01*
X102442382Y-104629840D01*
X102442379Y-104629841D01*
X102435715Y-104632110D01*
X102352591Y-104683248D01*
X102305492Y-104712224D01*
X102295555Y-104718337D01*
X102238316Y-104774390D01*
X102194654Y-104817147D01*
X102177982Y-104833473D01*
X102088838Y-104971797D01*
X102086427Y-104978420D01*
X102086426Y-104978423D01*
X102083930Y-104985281D01*
X102041835Y-105042452D01*
X101975513Y-105067788D01*
X101950616Y-105067298D01*
X101905153Y-105061877D01*
X101898150Y-105062613D01*
X101898149Y-105062613D01*
X101854935Y-105067155D01*
X101741495Y-105079078D01*
X101734827Y-105081348D01*
X101592382Y-105129840D01*
X101592379Y-105129841D01*
X101585715Y-105132110D01*
X101567258Y-105143465D01*
X101550343Y-105153871D01*
X101481842Y-105172530D01*
X101414128Y-105151192D01*
X101368699Y-105096632D01*
X101358409Y-105051281D01*
X101353449Y-104919173D01*
X101353249Y-104913842D01*
X101305907Y-104688209D01*
X101299745Y-104672605D01*
X101223185Y-104478744D01*
X101223184Y-104478742D01*
X101221224Y-104473779D01*
X101204252Y-104445809D01*
X101104390Y-104281243D01*
X101101623Y-104276683D01*
X101014755Y-104176576D01*
X100954023Y-104106588D01*
X100954021Y-104106586D01*
X100950523Y-104102555D01*
X100934838Y-104089694D01*
X103611931Y-104089694D01*
X103627989Y-104253468D01*
X103679932Y-104409615D01*
X103686802Y-104420958D01*
X103720257Y-104476198D01*
X103765179Y-104550373D01*
X103770070Y-104555438D01*
X103770071Y-104555439D01*
X103792188Y-104578342D01*
X103879491Y-104668747D01*
X104017189Y-104758854D01*
X104171428Y-104816215D01*
X104178409Y-104817146D01*
X104178411Y-104817147D01*
X104327561Y-104837048D01*
X104327565Y-104837048D01*
X104334542Y-104837979D01*
X104341553Y-104837341D01*
X104341557Y-104837341D01*
X104491403Y-104823704D01*
X104491404Y-104823704D01*
X104498424Y-104823065D01*
X104527062Y-104813760D01*
X104648230Y-104774390D01*
X104648233Y-104774389D01*
X104654929Y-104772213D01*
X104796279Y-104687951D01*
X104915449Y-104574468D01*
X104920377Y-104567051D01*
X105002614Y-104443275D01*
X105002615Y-104443273D01*
X105006515Y-104437403D01*
X105064951Y-104283568D01*
X105073507Y-104222689D01*
X105087302Y-104124534D01*
X105087303Y-104124527D01*
X105087853Y-104120610D01*
X105088141Y-104100000D01*
X105069798Y-103936466D01*
X105063998Y-103919809D01*
X105036380Y-103840503D01*
X105015680Y-103781060D01*
X105004216Y-103762713D01*
X104932209Y-103647479D01*
X104928476Y-103641505D01*
X104853068Y-103565569D01*
X104817486Y-103529737D01*
X104817482Y-103529734D01*
X104812522Y-103524739D01*
X104673580Y-103436563D01*
X104624447Y-103419068D01*
X104525189Y-103383723D01*
X104525187Y-103383722D01*
X104518555Y-103381361D01*
X104511569Y-103380528D01*
X104511565Y-103380527D01*
X104397071Y-103366875D01*
X104355153Y-103361877D01*
X104348150Y-103362613D01*
X104348149Y-103362613D01*
X104304935Y-103367155D01*
X104191495Y-103379078D01*
X104184827Y-103381348D01*
X104042382Y-103429840D01*
X104042379Y-103429841D01*
X104035715Y-103432110D01*
X103964739Y-103475775D01*
X103907532Y-103510969D01*
X103895555Y-103518337D01*
X103877298Y-103536216D01*
X103783709Y-103627865D01*
X103777982Y-103633473D01*
X103688838Y-103771797D01*
X103686427Y-103778420D01*
X103686426Y-103778423D01*
X103634966Y-103919809D01*
X103634965Y-103919814D01*
X103632556Y-103926432D01*
X103611931Y-104089694D01*
X100934838Y-104089694D01*
X100906867Y-104066759D01*
X100776373Y-103959760D01*
X100776367Y-103959756D01*
X100772245Y-103956376D01*
X100767609Y-103953737D01*
X100767606Y-103953735D01*
X100581697Y-103847910D01*
X100571886Y-103842325D01*
X100355175Y-103763663D01*
X100349926Y-103762714D01*
X100349923Y-103762713D01*
X100132392Y-103723377D01*
X100132385Y-103723376D01*
X100128308Y-103722639D01*
X100110586Y-103721803D01*
X100105644Y-103721570D01*
X100105637Y-103721570D01*
X100104156Y-103721500D01*
X99942110Y-103721500D01*
X99875191Y-103727178D01*
X99775591Y-103735629D01*
X99775587Y-103735630D01*
X99770280Y-103736080D01*
X99765125Y-103737418D01*
X99765119Y-103737419D01*
X99552297Y-103792657D01*
X99552293Y-103792658D01*
X99547128Y-103793999D01*
X99542262Y-103796191D01*
X99542259Y-103796192D01*
X99433980Y-103844968D01*
X99336925Y-103888688D01*
X99145681Y-104017441D01*
X99141824Y-104021120D01*
X99141822Y-104021122D01*
X99077272Y-104082700D01*
X98978865Y-104176576D01*
X98841246Y-104361542D01*
X98838830Y-104366293D01*
X98838828Y-104366297D01*
X98797293Y-104447992D01*
X98736760Y-104567051D01*
X98735178Y-104572145D01*
X98735177Y-104572148D01*
X98674175Y-104768607D01*
X98668393Y-104787227D01*
X98667692Y-104792516D01*
X98641821Y-104987717D01*
X98638102Y-105015774D01*
X98638302Y-105021103D01*
X98638302Y-105021105D01*
X98640480Y-105079122D01*
X98646751Y-105246158D01*
X98647846Y-105251377D01*
X98663196Y-105324534D01*
X98694093Y-105471791D01*
X98696051Y-105476750D01*
X98696052Y-105476752D01*
X98769453Y-105662613D01*
X98778776Y-105686221D01*
X98781543Y-105690780D01*
X98781544Y-105690783D01*
X98828763Y-105768597D01*
X98898377Y-105883317D01*
X98901874Y-105887347D01*
X98919726Y-105907920D01*
X98949265Y-105972480D01*
X98939210Y-106042761D01*
X98892755Y-106096450D01*
X98824560Y-106116500D01*
X97658257Y-106116500D01*
X97590136Y-106096498D01*
X97543643Y-106042842D01*
X97533042Y-106004544D01*
X97532933Y-106003565D01*
X97519798Y-105886466D01*
X97517114Y-105878757D01*
X97478752Y-105768597D01*
X97465680Y-105731060D01*
X97437662Y-105686221D01*
X97382209Y-105597479D01*
X97378476Y-105591505D01*
X97304655Y-105517167D01*
X97267486Y-105479737D01*
X97267482Y-105479734D01*
X97262522Y-105474739D01*
X97123580Y-105386563D01*
X97040608Y-105357018D01*
X96975189Y-105333723D01*
X96975187Y-105333722D01*
X96968555Y-105331361D01*
X96961569Y-105330528D01*
X96961565Y-105330527D01*
X96845173Y-105316649D01*
X96805153Y-105311877D01*
X96798150Y-105312613D01*
X96798149Y-105312613D01*
X96759750Y-105316649D01*
X96641495Y-105329078D01*
X96634827Y-105331348D01*
X96492382Y-105379840D01*
X96492379Y-105379841D01*
X96485715Y-105382110D01*
X96446211Y-105406413D01*
X96410922Y-105428123D01*
X96342421Y-105446781D01*
X96274707Y-105425442D01*
X96255804Y-105409900D01*
X96179628Y-105333723D01*
X96070404Y-105224499D01*
X96036379Y-105162187D01*
X96033500Y-105135404D01*
X96033500Y-104800949D01*
X96034027Y-104789766D01*
X96035702Y-104782273D01*
X96035273Y-104768607D01*
X96033562Y-104714196D01*
X96033500Y-104710237D01*
X96033500Y-104682326D01*
X96032995Y-104678326D01*
X96032062Y-104666483D01*
X96030922Y-104630211D01*
X96030673Y-104622292D01*
X96025022Y-104602840D01*
X96021014Y-104583488D01*
X96019467Y-104571245D01*
X96018474Y-104563385D01*
X96015328Y-104555439D01*
X96002200Y-104522279D01*
X95998355Y-104511052D01*
X95988968Y-104478744D01*
X95986018Y-104468589D01*
X95979836Y-104458135D01*
X95975707Y-104451154D01*
X95967012Y-104433406D01*
X95959552Y-104414565D01*
X95939562Y-104387050D01*
X95933564Y-104378795D01*
X95927048Y-104368875D01*
X95908578Y-104337645D01*
X95904542Y-104330820D01*
X95898936Y-104325213D01*
X95890220Y-104316497D01*
X95877379Y-104301463D01*
X95870131Y-104291487D01*
X95870130Y-104291486D01*
X95865472Y-104285075D01*
X95831407Y-104256894D01*
X95822627Y-104248904D01*
X95702794Y-104129071D01*
X95668768Y-104066759D01*
X95673833Y-103995944D01*
X95716380Y-103939108D01*
X95726054Y-103932543D01*
X95730511Y-103929812D01*
X95868376Y-103845328D01*
X96048767Y-103691259D01*
X96057142Y-103684106D01*
X96060898Y-103680898D01*
X96225328Y-103488376D01*
X96357616Y-103272502D01*
X96360294Y-103266038D01*
X96452611Y-103043164D01*
X96452612Y-103043162D01*
X96454505Y-103038591D01*
X96484261Y-102914646D01*
X96512454Y-102797216D01*
X96512455Y-102797210D01*
X96513609Y-102792403D01*
X96533474Y-102540000D01*
X96513609Y-102287597D01*
X96511018Y-102276802D01*
X96470746Y-102109059D01*
X96454505Y-102041409D01*
X96452611Y-102036836D01*
X96359511Y-101812072D01*
X96359509Y-101812068D01*
X96357616Y-101807498D01*
X96225328Y-101591624D01*
X96060898Y-101399102D01*
X95868376Y-101234672D01*
X95652502Y-101102384D01*
X95647932Y-101100491D01*
X95647928Y-101100489D01*
X95423164Y-101007389D01*
X95423162Y-101007388D01*
X95418591Y-101005495D01*
X95333968Y-100985179D01*
X95177216Y-100947546D01*
X95177210Y-100947545D01*
X95172403Y-100946391D01*
X94920000Y-100926526D01*
X94667597Y-100946391D01*
X94662790Y-100947545D01*
X94662784Y-100947546D01*
X94506032Y-100985179D01*
X94421409Y-101005495D01*
X94416838Y-101007388D01*
X94416836Y-101007389D01*
X94192072Y-101100489D01*
X94192068Y-101100491D01*
X94187498Y-101102384D01*
X93971624Y-101234672D01*
X93931541Y-101268906D01*
X93915250Y-101282820D01*
X93850460Y-101311851D01*
X93780260Y-101301246D01*
X93726937Y-101254371D01*
X93719788Y-101241451D01*
X93717996Y-101237711D01*
X93715680Y-101231060D01*
X93628476Y-101091505D01*
X93544945Y-101007389D01*
X93517486Y-100979737D01*
X93517482Y-100979734D01*
X93512522Y-100974739D01*
X93373580Y-100886563D01*
X93253030Y-100843637D01*
X93225189Y-100833723D01*
X93225187Y-100833722D01*
X93218555Y-100831361D01*
X93211569Y-100830528D01*
X93211565Y-100830527D01*
X93097071Y-100816875D01*
X93055153Y-100811877D01*
X93048150Y-100812613D01*
X93048149Y-100812613D01*
X93004935Y-100817155D01*
X92891495Y-100829078D01*
X92884827Y-100831348D01*
X92742382Y-100879840D01*
X92742379Y-100879841D01*
X92735715Y-100882110D01*
X92712359Y-100896479D01*
X92710182Y-100897818D01*
X92644160Y-100916500D01*
X92609500Y-100916500D01*
X92541379Y-100896498D01*
X92494886Y-100842842D01*
X92483500Y-100790500D01*
X92483500Y-100157821D01*
X97491500Y-100157821D01*
X97531060Y-100470975D01*
X97609557Y-100776702D01*
X97611010Y-100780371D01*
X97611010Y-100780372D01*
X97721146Y-101058542D01*
X97725753Y-101070179D01*
X97727659Y-101073647D01*
X97727660Y-101073648D01*
X97861123Y-101316414D01*
X97877816Y-101346779D01*
X98063346Y-101602140D01*
X98242577Y-101793001D01*
X98260486Y-101812072D01*
X98279418Y-101832233D01*
X98522625Y-102033432D01*
X98646539Y-102112070D01*
X98777036Y-102194886D01*
X98789131Y-102202562D01*
X98792710Y-102204246D01*
X98792717Y-102204250D01*
X99071144Y-102335267D01*
X99071148Y-102335269D01*
X99074734Y-102336956D01*
X99374928Y-102434495D01*
X99684980Y-102493641D01*
X99921162Y-102508500D01*
X100078838Y-102508500D01*
X100315020Y-102493641D01*
X100625072Y-102434495D01*
X100925266Y-102336956D01*
X100928852Y-102335269D01*
X100928856Y-102335267D01*
X101207283Y-102204250D01*
X101207290Y-102204246D01*
X101210869Y-102202562D01*
X101222965Y-102194886D01*
X101353461Y-102112070D01*
X101477375Y-102033432D01*
X101720582Y-101832233D01*
X101739515Y-101812072D01*
X101757423Y-101793001D01*
X101936654Y-101602140D01*
X102122184Y-101346779D01*
X102138878Y-101316414D01*
X102272340Y-101073648D01*
X102272341Y-101073647D01*
X102274247Y-101070179D01*
X102278855Y-101058542D01*
X102388990Y-100780372D01*
X102388990Y-100780371D01*
X102390443Y-100776702D01*
X102468940Y-100470975D01*
X102508500Y-100157821D01*
X102508500Y-99842179D01*
X102468940Y-99529025D01*
X102390443Y-99223298D01*
X102331761Y-99075084D01*
X102275702Y-98933495D01*
X102275700Y-98933490D01*
X102274247Y-98929821D01*
X102272340Y-98926352D01*
X102138877Y-98683585D01*
X102950962Y-98683585D01*
X102964536Y-98867146D01*
X103011114Y-99045218D01*
X103067399Y-99165440D01*
X103069923Y-99170832D01*
X103073627Y-99179592D01*
X103081961Y-99201584D01*
X103081962Y-99201585D01*
X103080965Y-99201963D01*
X103091501Y-99249133D01*
X103091501Y-100745106D01*
X103090003Y-100764477D01*
X103087665Y-100779504D01*
X103077277Y-100813556D01*
X103011151Y-100954796D01*
X102964575Y-101132861D01*
X102951002Y-101316415D01*
X102951621Y-101322113D01*
X102951621Y-101322115D01*
X102954648Y-101349981D01*
X102970880Y-101499394D01*
X103023553Y-101675752D01*
X103107281Y-101839661D01*
X103219297Y-101985705D01*
X103223557Y-101989552D01*
X103223559Y-101989554D01*
X103286312Y-102046221D01*
X103355899Y-102109059D01*
X103434236Y-102157353D01*
X103507689Y-102202636D01*
X103507693Y-102202638D01*
X103512574Y-102205647D01*
X103517917Y-102207722D01*
X103517921Y-102207724D01*
X103604582Y-102241379D01*
X103684146Y-102272278D01*
X103689778Y-102273352D01*
X103689782Y-102273353D01*
X103859304Y-102305675D01*
X103859308Y-102305675D01*
X103864944Y-102306750D01*
X103870682Y-102306787D01*
X103870686Y-102306787D01*
X103956241Y-102307332D01*
X104048996Y-102307924D01*
X104230219Y-102275760D01*
X104360135Y-102227204D01*
X104369170Y-102224212D01*
X104387074Y-102219026D01*
X104387086Y-102219021D01*
X104391751Y-102217670D01*
X104394463Y-102216405D01*
X104421216Y-102209727D01*
X104422496Y-102209560D01*
X104438810Y-102208499D01*
X105753455Y-102208499D01*
X105772850Y-102210001D01*
X105788012Y-102212363D01*
X105795952Y-102213600D01*
X105820669Y-102220072D01*
X105969770Y-102275799D01*
X105975420Y-102276802D01*
X105975421Y-102276802D01*
X106145348Y-102306960D01*
X106145351Y-102306960D01*
X106151001Y-102307963D01*
X106243030Y-102307377D01*
X106329318Y-102306827D01*
X106329322Y-102306827D01*
X106335060Y-102306790D01*
X106340696Y-102305715D01*
X106340700Y-102305715D01*
X106510230Y-102273391D01*
X106510234Y-102273390D01*
X106515866Y-102272316D01*
X106687444Y-102205683D01*
X106765785Y-102157387D01*
X106839241Y-102112103D01*
X106839245Y-102112100D01*
X106844126Y-102109091D01*
X106848756Y-102104910D01*
X106976477Y-101989575D01*
X106976481Y-101989571D01*
X106980733Y-101985731D01*
X106984221Y-101981183D01*
X106984225Y-101981179D01*
X107039753Y-101908782D01*
X107092753Y-101839681D01*
X107176484Y-101675765D01*
X107229159Y-101499401D01*
X107241428Y-101386466D01*
X107248419Y-101322114D01*
X107248419Y-101322112D01*
X107249038Y-101316414D01*
X107242285Y-101225088D01*
X107235887Y-101138568D01*
X107235886Y-101138564D01*
X107235464Y-101132853D01*
X107202646Y-101007389D01*
X107190337Y-100960331D01*
X107190336Y-100960328D01*
X107188885Y-100954781D01*
X107154862Y-100882110D01*
X107130079Y-100829174D01*
X107126367Y-100820396D01*
X107118039Y-100798418D01*
X107119036Y-100798040D01*
X107108500Y-100750870D01*
X107108500Y-99254888D01*
X107109999Y-99235513D01*
X107112336Y-99220496D01*
X107122724Y-99186447D01*
X107186414Y-99050405D01*
X107188849Y-99045204D01*
X107235426Y-98867139D01*
X107248999Y-98683584D01*
X107246732Y-98662711D01*
X107229741Y-98506313D01*
X107229740Y-98506307D01*
X107229121Y-98500605D01*
X107176447Y-98324247D01*
X107092719Y-98160338D01*
X106980703Y-98014294D01*
X106844101Y-97890939D01*
X106839220Y-97887930D01*
X106839216Y-97887927D01*
X106702223Y-97803474D01*
X106687425Y-97794351D01*
X106682082Y-97792276D01*
X106682078Y-97792274D01*
X106521206Y-97729799D01*
X106521207Y-97729799D01*
X106515853Y-97727720D01*
X106335054Y-97693249D01*
X106329315Y-97693212D01*
X106329311Y-97693212D01*
X106243712Y-97692667D01*
X106151002Y-97692076D01*
X106145352Y-97693079D01*
X106145349Y-97693079D01*
X105975434Y-97723235D01*
X105975430Y-97723236D01*
X105969779Y-97724239D01*
X105964406Y-97726247D01*
X105964403Y-97726248D01*
X105839860Y-97772797D01*
X105830811Y-97775794D01*
X105808247Y-97782331D01*
X105805510Y-97783608D01*
X105778739Y-97790287D01*
X105777561Y-97790441D01*
X105761254Y-97791501D01*
X104446545Y-97791501D01*
X104427150Y-97789999D01*
X104404048Y-97786400D01*
X104379333Y-97779928D01*
X104340502Y-97765415D01*
X104230230Y-97724201D01*
X104224579Y-97723198D01*
X104054652Y-97693040D01*
X104054649Y-97693040D01*
X104048999Y-97692037D01*
X103956288Y-97692628D01*
X103870683Y-97693173D01*
X103870679Y-97693173D01*
X103864940Y-97693210D01*
X103684134Y-97727683D01*
X103646629Y-97742249D01*
X103517903Y-97792240D01*
X103517899Y-97792242D01*
X103512556Y-97794317D01*
X103507676Y-97797326D01*
X103507671Y-97797328D01*
X103434215Y-97842613D01*
X103355875Y-97890909D01*
X103219267Y-98014268D01*
X103107247Y-98160319D01*
X103104640Y-98165422D01*
X103104639Y-98165424D01*
X103063716Y-98245537D01*
X103023516Y-98324234D01*
X102970841Y-98500599D01*
X102970221Y-98506307D01*
X102953230Y-98662711D01*
X102950962Y-98683585D01*
X102138877Y-98683585D01*
X102124093Y-98656693D01*
X102124091Y-98656690D01*
X102122184Y-98653221D01*
X101936654Y-98397860D01*
X101720582Y-98167767D01*
X101477375Y-97966568D01*
X101210869Y-97797438D01*
X101207290Y-97795754D01*
X101207283Y-97795750D01*
X100928856Y-97664733D01*
X100928852Y-97664731D01*
X100925266Y-97663044D01*
X100625072Y-97565505D01*
X100315020Y-97506359D01*
X100078838Y-97491500D01*
X99921162Y-97491500D01*
X99684980Y-97506359D01*
X99374928Y-97565505D01*
X99074734Y-97663044D01*
X99071148Y-97664731D01*
X99071144Y-97664733D01*
X98792717Y-97795750D01*
X98792710Y-97795754D01*
X98789131Y-97797438D01*
X98522625Y-97966568D01*
X98279418Y-98167767D01*
X98063346Y-98397860D01*
X97877816Y-98653221D01*
X97875909Y-98656690D01*
X97875907Y-98656693D01*
X97727660Y-98926352D01*
X97725753Y-98929821D01*
X97724300Y-98933490D01*
X97724298Y-98933495D01*
X97668239Y-99075084D01*
X97609557Y-99223298D01*
X97531060Y-99529025D01*
X97491500Y-99842179D01*
X97491500Y-100157821D01*
X92483500Y-100157821D01*
X92483500Y-100138964D01*
X92503502Y-100070843D01*
X92557158Y-100024350D01*
X92627432Y-100014246D01*
X92678493Y-100033532D01*
X92717189Y-100058854D01*
X92871428Y-100116215D01*
X92878409Y-100117146D01*
X92878411Y-100117147D01*
X93027561Y-100137048D01*
X93027565Y-100137048D01*
X93034542Y-100137979D01*
X93041553Y-100137341D01*
X93041557Y-100137341D01*
X93191403Y-100123704D01*
X93191404Y-100123704D01*
X93198424Y-100123065D01*
X93227062Y-100113760D01*
X93348230Y-100074390D01*
X93348233Y-100074389D01*
X93354929Y-100072213D01*
X93496279Y-99987951D01*
X93615449Y-99874468D01*
X93619350Y-99868597D01*
X93702614Y-99743275D01*
X93702615Y-99743273D01*
X93706515Y-99737403D01*
X93764951Y-99583568D01*
X93787853Y-99420610D01*
X93788141Y-99400000D01*
X93769798Y-99236466D01*
X93765213Y-99223298D01*
X93717998Y-99087717D01*
X93715680Y-99081060D01*
X93710248Y-99072366D01*
X93632209Y-98947479D01*
X93628476Y-98941505D01*
X93548950Y-98861422D01*
X93517486Y-98829737D01*
X93517482Y-98829734D01*
X93512522Y-98824739D01*
X93373580Y-98736563D01*
X93324447Y-98719068D01*
X93225189Y-98683723D01*
X93225187Y-98683722D01*
X93218555Y-98681361D01*
X93211569Y-98680528D01*
X93211565Y-98680527D01*
X93097071Y-98666875D01*
X93055153Y-98661877D01*
X93048150Y-98662613D01*
X93048149Y-98662613D01*
X93004935Y-98667155D01*
X92891495Y-98679078D01*
X92884827Y-98681348D01*
X92742382Y-98729840D01*
X92742379Y-98729841D01*
X92735715Y-98732110D01*
X92679973Y-98766403D01*
X92675522Y-98769141D01*
X92607021Y-98787799D01*
X92539307Y-98766460D01*
X92493879Y-98711900D01*
X92483500Y-98661823D01*
X92483500Y-96150990D01*
X92503502Y-96082869D01*
X92520405Y-96061895D01*
X92992606Y-95589694D01*
X94661931Y-95589694D01*
X94677989Y-95753468D01*
X94729932Y-95909615D01*
X94733581Y-95915640D01*
X94811092Y-96043624D01*
X94815179Y-96050373D01*
X94820070Y-96055438D01*
X94820071Y-96055439D01*
X94846560Y-96082869D01*
X94929491Y-96168747D01*
X95067189Y-96258854D01*
X95221428Y-96316215D01*
X95228409Y-96317146D01*
X95228411Y-96317147D01*
X95377561Y-96337048D01*
X95377565Y-96337048D01*
X95384542Y-96337979D01*
X95391553Y-96337341D01*
X95391557Y-96337341D01*
X95541403Y-96323704D01*
X95541404Y-96323704D01*
X95548424Y-96323065D01*
X95685580Y-96278500D01*
X95697297Y-96274693D01*
X95768264Y-96272665D01*
X95829062Y-96309328D01*
X95860388Y-96373040D01*
X95861845Y-96384637D01*
X95866391Y-96442403D01*
X95925495Y-96688591D01*
X96022384Y-96922502D01*
X96154672Y-97138376D01*
X96319102Y-97330898D01*
X96511624Y-97495328D01*
X96727498Y-97627616D01*
X96732068Y-97629509D01*
X96732072Y-97629511D01*
X96956836Y-97722611D01*
X96961409Y-97724505D01*
X97046032Y-97744821D01*
X97202784Y-97782454D01*
X97202790Y-97782455D01*
X97207597Y-97783609D01*
X97460000Y-97803474D01*
X97712403Y-97783609D01*
X97717210Y-97782455D01*
X97717216Y-97782454D01*
X97873968Y-97744821D01*
X97958591Y-97724505D01*
X97963164Y-97722611D01*
X98187928Y-97629511D01*
X98187932Y-97629509D01*
X98192502Y-97627616D01*
X98408376Y-97495328D01*
X98600898Y-97330898D01*
X98765328Y-97138376D01*
X98897616Y-96922502D01*
X98994505Y-96688591D01*
X99053609Y-96442403D01*
X99073474Y-96190000D01*
X99073086Y-96185070D01*
X99073086Y-96185062D01*
X99072830Y-96181810D01*
X99073086Y-96180591D01*
X99073086Y-96180114D01*
X99073186Y-96180114D01*
X99087424Y-96112329D01*
X99137265Y-96061769D01*
X99206529Y-96046181D01*
X99260773Y-96062419D01*
X99428114Y-96157675D01*
X99644825Y-96236337D01*
X99650074Y-96237286D01*
X99650077Y-96237287D01*
X99867608Y-96276623D01*
X99867615Y-96276624D01*
X99871692Y-96277361D01*
X99889414Y-96278197D01*
X99894356Y-96278430D01*
X99894363Y-96278430D01*
X99895844Y-96278500D01*
X100057890Y-96278500D01*
X100126657Y-96272665D01*
X100224409Y-96264371D01*
X100224413Y-96264370D01*
X100229720Y-96263920D01*
X100234875Y-96262582D01*
X100234881Y-96262581D01*
X100447703Y-96207343D01*
X100447707Y-96207342D01*
X100452872Y-96206001D01*
X100457738Y-96203809D01*
X100457741Y-96203808D01*
X100658202Y-96113507D01*
X100663075Y-96111312D01*
X100854319Y-95982559D01*
X101021135Y-95823424D01*
X101158754Y-95638458D01*
X101163084Y-95629943D01*
X101221257Y-95515524D01*
X101263240Y-95432949D01*
X101268226Y-95416894D01*
X101330024Y-95217871D01*
X101331607Y-95212773D01*
X101337913Y-95165197D01*
X101361198Y-94989511D01*
X101361198Y-94989506D01*
X101361898Y-94984226D01*
X101359942Y-94932110D01*
X101356576Y-94842452D01*
X101353249Y-94753842D01*
X101305907Y-94528209D01*
X101303948Y-94523248D01*
X101223185Y-94318744D01*
X101223184Y-94318742D01*
X101221224Y-94313779D01*
X101199770Y-94278423D01*
X101123236Y-94152300D01*
X101101623Y-94116683D01*
X101098126Y-94112653D01*
X100954023Y-93946588D01*
X100954021Y-93946586D01*
X100950523Y-93942555D01*
X100888263Y-93891505D01*
X100776373Y-93799760D01*
X100776367Y-93799756D01*
X100772245Y-93796376D01*
X100767609Y-93793737D01*
X100767606Y-93793735D01*
X100576529Y-93684968D01*
X100571886Y-93682325D01*
X100355175Y-93603663D01*
X100349926Y-93602714D01*
X100349923Y-93602713D01*
X100132392Y-93563377D01*
X100132385Y-93563376D01*
X100128308Y-93562639D01*
X100110586Y-93561803D01*
X100105644Y-93561570D01*
X100105637Y-93561570D01*
X100104156Y-93561500D01*
X99942110Y-93561500D01*
X99875191Y-93567178D01*
X99775591Y-93575629D01*
X99775587Y-93575630D01*
X99770280Y-93576080D01*
X99765125Y-93577418D01*
X99765119Y-93577419D01*
X99552297Y-93632657D01*
X99552293Y-93632658D01*
X99547128Y-93633999D01*
X99542262Y-93636191D01*
X99542259Y-93636192D01*
X99433980Y-93684968D01*
X99336925Y-93728688D01*
X99145681Y-93857441D01*
X99141824Y-93861120D01*
X99141822Y-93861122D01*
X99118130Y-93883723D01*
X98978865Y-94016576D01*
X98975682Y-94020854D01*
X98960280Y-94041555D01*
X98841246Y-94201542D01*
X98838830Y-94206293D01*
X98838828Y-94206297D01*
X98803855Y-94275084D01*
X98736760Y-94407051D01*
X98735178Y-94412145D01*
X98735177Y-94412148D01*
X98697475Y-94533568D01*
X98668393Y-94627227D01*
X98667692Y-94632516D01*
X98641760Y-94828173D01*
X98612981Y-94893075D01*
X98553682Y-94932115D01*
X98482689Y-94932898D01*
X98435022Y-94907429D01*
X98412142Y-94887887D01*
X98412130Y-94887879D01*
X98408376Y-94884672D01*
X98192502Y-94752384D01*
X98187932Y-94750491D01*
X98187928Y-94750489D01*
X97959944Y-94656055D01*
X97904663Y-94611507D01*
X97882947Y-94553691D01*
X97870583Y-94443465D01*
X97869798Y-94436466D01*
X97815680Y-94281060D01*
X97765992Y-94201542D01*
X97732209Y-94147479D01*
X97728476Y-94141505D01*
X97670499Y-94083122D01*
X97617486Y-94029737D01*
X97617482Y-94029734D01*
X97612522Y-94024739D01*
X97473580Y-93936563D01*
X97423126Y-93918597D01*
X97325189Y-93883723D01*
X97325187Y-93883722D01*
X97318555Y-93881361D01*
X97311569Y-93880528D01*
X97311565Y-93880527D01*
X97197071Y-93866875D01*
X97155153Y-93861877D01*
X97148150Y-93862613D01*
X97148149Y-93862613D01*
X97104935Y-93867155D01*
X96991495Y-93879078D01*
X96984827Y-93881348D01*
X96842382Y-93929840D01*
X96842379Y-93929841D01*
X96835715Y-93932110D01*
X96738858Y-93991697D01*
X96704398Y-94012897D01*
X96695555Y-94018337D01*
X96685256Y-94028423D01*
X96593163Y-94118607D01*
X96577982Y-94133473D01*
X96488838Y-94271797D01*
X96486427Y-94278420D01*
X96486426Y-94278423D01*
X96481852Y-94290991D01*
X96439758Y-94348163D01*
X96373437Y-94373501D01*
X96348533Y-94373011D01*
X96262147Y-94362711D01*
X96255153Y-94361877D01*
X96248150Y-94362613D01*
X96248149Y-94362613D01*
X96209750Y-94366649D01*
X96091495Y-94379078D01*
X96084827Y-94381348D01*
X95942382Y-94429840D01*
X95942379Y-94429841D01*
X95935715Y-94432110D01*
X95795555Y-94518337D01*
X95790522Y-94523266D01*
X95718679Y-94593620D01*
X95677982Y-94633473D01*
X95588838Y-94771797D01*
X95586427Y-94778420D01*
X95586426Y-94778423D01*
X95583930Y-94785281D01*
X95541835Y-94842452D01*
X95475513Y-94867788D01*
X95450616Y-94867298D01*
X95405153Y-94861877D01*
X95398150Y-94862613D01*
X95398149Y-94862613D01*
X95354935Y-94867155D01*
X95241495Y-94879078D01*
X95234827Y-94881348D01*
X95092382Y-94929840D01*
X95092379Y-94929841D01*
X95085715Y-94932110D01*
X94945555Y-95018337D01*
X94827982Y-95133473D01*
X94738838Y-95271797D01*
X94736427Y-95278420D01*
X94736426Y-95278423D01*
X94684966Y-95419809D01*
X94684965Y-95419814D01*
X94682556Y-95426432D01*
X94661931Y-95589694D01*
X92992606Y-95589694D01*
X94400998Y-94181302D01*
X94463310Y-94147276D01*
X94534012Y-94152300D01*
X94571428Y-94166215D01*
X94578413Y-94167147D01*
X94727561Y-94187048D01*
X94727565Y-94187048D01*
X94734542Y-94187979D01*
X94741553Y-94187341D01*
X94741557Y-94187341D01*
X94891403Y-94173704D01*
X94891404Y-94173704D01*
X94898424Y-94173065D01*
X95002046Y-94139396D01*
X95048230Y-94124390D01*
X95048233Y-94124389D01*
X95054929Y-94122213D01*
X95196279Y-94037951D01*
X95315449Y-93924468D01*
X95324679Y-93910576D01*
X95402614Y-93793275D01*
X95402615Y-93793273D01*
X95406515Y-93787403D01*
X95415586Y-93763524D01*
X95458472Y-93706947D01*
X95525140Y-93682537D01*
X95550037Y-93683375D01*
X95577561Y-93687048D01*
X95577565Y-93687048D01*
X95584542Y-93687979D01*
X95591553Y-93687341D01*
X95591557Y-93687341D01*
X95741403Y-93673704D01*
X95741404Y-93673704D01*
X95748424Y-93673065D01*
X95831364Y-93646116D01*
X95898230Y-93624390D01*
X95898233Y-93624389D01*
X95904929Y-93622213D01*
X96046279Y-93537951D01*
X96165449Y-93424468D01*
X96256515Y-93287403D01*
X96314951Y-93133568D01*
X96336586Y-92979628D01*
X96337302Y-92974534D01*
X96337303Y-92974527D01*
X96337853Y-92970610D01*
X96338141Y-92950000D01*
X96319798Y-92786466D01*
X96265680Y-92631060D01*
X96257899Y-92618607D01*
X96182209Y-92497479D01*
X96178476Y-92491505D01*
X96081997Y-92394350D01*
X96067486Y-92379737D01*
X96067482Y-92379734D01*
X96062522Y-92374739D01*
X95923580Y-92286563D01*
X95865667Y-92265941D01*
X95775189Y-92233723D01*
X95775187Y-92233722D01*
X95768555Y-92231361D01*
X95761569Y-92230528D01*
X95761565Y-92230527D01*
X95647071Y-92216875D01*
X95605153Y-92211877D01*
X95598150Y-92212613D01*
X95598149Y-92212613D01*
X95554935Y-92217155D01*
X95441495Y-92229078D01*
X95351794Y-92259615D01*
X95351315Y-92259778D01*
X95310709Y-92266500D01*
X94228767Y-92266500D01*
X94217584Y-92265973D01*
X94210091Y-92264298D01*
X94202165Y-92264547D01*
X94202164Y-92264547D01*
X94148171Y-92266244D01*
X94079456Y-92248391D01*
X94031300Y-92196223D01*
X94018994Y-92126301D01*
X94046444Y-92060826D01*
X94081212Y-92031188D01*
X94239684Y-91939694D01*
X96661931Y-91939694D01*
X96677989Y-92103468D01*
X96729932Y-92259615D01*
X96733581Y-92265640D01*
X96797369Y-92370965D01*
X96815179Y-92400373D01*
X96929491Y-92518747D01*
X97067189Y-92608854D01*
X97221428Y-92666215D01*
X97228409Y-92667146D01*
X97228411Y-92667147D01*
X97377561Y-92687048D01*
X97377565Y-92687048D01*
X97384542Y-92687979D01*
X97391553Y-92687341D01*
X97391557Y-92687341D01*
X97541403Y-92673704D01*
X97541404Y-92673704D01*
X97548424Y-92673065D01*
X97577062Y-92663760D01*
X97698230Y-92624390D01*
X97698233Y-92624389D01*
X97704929Y-92622213D01*
X97846279Y-92537951D01*
X97965449Y-92424468D01*
X97969350Y-92418597D01*
X98052614Y-92293275D01*
X98052615Y-92293273D01*
X98056515Y-92287403D01*
X98114951Y-92133568D01*
X98137853Y-91970610D01*
X98138141Y-91950000D01*
X98119798Y-91786466D01*
X98113998Y-91769809D01*
X98067998Y-91637717D01*
X98065680Y-91631060D01*
X97978476Y-91491505D01*
X97920499Y-91433122D01*
X97867486Y-91379737D01*
X97867482Y-91379734D01*
X97862522Y-91374739D01*
X97723580Y-91286563D01*
X97674447Y-91269068D01*
X97575189Y-91233723D01*
X97575187Y-91233722D01*
X97568555Y-91231361D01*
X97561569Y-91230528D01*
X97561565Y-91230527D01*
X97447071Y-91216875D01*
X97405153Y-91211877D01*
X97398150Y-91212613D01*
X97398149Y-91212613D01*
X97354935Y-91217155D01*
X97241495Y-91229078D01*
X97234827Y-91231348D01*
X97092382Y-91279840D01*
X97092379Y-91279841D01*
X97085715Y-91282110D01*
X96945555Y-91368337D01*
X96827982Y-91483473D01*
X96738838Y-91621797D01*
X96736427Y-91628420D01*
X96736426Y-91628423D01*
X96684966Y-91769809D01*
X96684965Y-91769814D01*
X96682556Y-91776432D01*
X96661931Y-91939694D01*
X94239684Y-91939694D01*
X98961498Y-89213552D01*
X98979027Y-89205163D01*
X99001411Y-89196503D01*
X99014456Y-89186511D01*
X99035330Y-89173544D01*
X99119874Y-89131851D01*
X99189815Y-89119661D01*
X99255245Y-89147220D01*
G37*
%TD.AperFunction*%
%TD*%
M02*
