M48
; DRILL file {KiCad (6.0.6)} date Sun Jul 10 21:22:37 2022
; FORMAT={-:-/ absolute / inch / decimal}
; #@! TF.CreationDate,2022-07-10T21:22:37+02:00
; #@! TF.GenerationSoftware,Kicad,Pcbnew,(6.0.6)
; #@! TF.FileFunction,Plated,1,4,PTH
FMAT,2
INCH
; #@! TA.AperFunction,Plated,PTH,ViaDrill
T1C0.0079
; #@! TA.AperFunction,Plated,PTH,ViaDrill
T2C0.0118
; #@! TA.AperFunction,Plated,PTH,ViaDrill
T3C0.0157
; #@! TA.AperFunction,Plated,PTH,ComponentDrill
T4C0.0236
; #@! TA.AperFunction,Plated,PTH,ComponentDrill
T5C0.0394
%
G90
G05
T1
X4.1102Y-3.6929
X4.1122Y-4.2461
X4.2087Y-3.6535
X4.2402Y-3.8661
X4.2402Y-4.065
X4.2402Y-4.2264
X4.315Y-4.2579
X4.3228Y-3.7953
X4.3228Y-3.8996
X4.3228Y-3.937
X4.3228Y-3.9705
X4.3287Y-4.1299
X4.3307Y-4.2835
X4.3425Y-3.6535
X4.374Y-4.0295
X4.374Y-4.1811
X4.376Y-3.6535
X4.3957Y-4.126
X4.3957Y-4.2126
X4.3976Y-3.8661
X4.4129Y-3.937
X4.4193Y-4.0531
X4.4449Y-3.6398
X4.4606Y-4.2382
X4.4803Y-3.7795
X4.4902Y-4.126
X4.5079Y-4.1535
X4.5118Y-3.6161
X4.5157Y-3.7067
X4.5157Y-3.8484
X4.5295Y-3.876
X4.5295Y-4.0492
X4.5561Y-4.2549
X4.5571Y-4.0945
X4.5586Y-3.8775
X4.5669Y-4.0354
X4.5707Y-4.2325
X4.5818Y-3.8897
X4.5865Y-4.211
X4.5945Y-4.0846
X4.5967Y-3.9114
X4.6024Y-4.1909
X4.6142Y-3.7067
X4.6161Y-3.7402
X4.622Y-4.0846
X4.6358Y-3.8898
X4.6457Y-3.6201
X4.667Y-4.0821
X4.6831Y-4.0551
X4.685Y-3.6417
X4.685Y-3.6673
X4.6909Y-3.9665
X4.7087Y-3.8878
X4.7165Y-4.0945
X4.7205Y-3.9646
X4.7244Y-4.0354
X4.7303Y-3.9016
X4.7343Y-4.185
X4.7618Y-3.8898
X4.7638Y-3.9469
X4.7638Y-4.0768
X4.7854Y-4.1654
X4.8504Y-3.626
X4.8602Y-4.0714
X4.8622Y-3.8858
X4.878Y-4.0531
X4.8858Y-3.8287
X4.8858Y-4.1634
X4.8878Y-3.8602
X4.8898Y-3.626
X4.8937Y-4.0315
X4.9097Y-4.0115
X4.9193Y-3.8602
X4.937Y-3.9744
X4.9705Y-4.2382
X4.9744Y-3.8327
X4.9803Y-3.8976
X4.9902Y-4.1535
X5.0098Y-4.2382
X5.0295Y-4.1535
X5.0492Y-4.2382
X5.0689Y-4.1535
X5.0886Y-4.2382
X5.1083Y-4.1535
X5.1516Y-3.9114
X5.1752Y-3.626
X5.2146Y-3.6398
X5.2539Y-3.6398
X5.2579Y-4.0984
X5.2933Y-3.6398
X5.3327Y-3.6398
X5.376Y-4.1024
X5.4035Y-4.2382
X5.4232Y-4.1535
X5.4429Y-4.2382
X5.4528Y-3.8386
X5.4626Y-4.1535
X5.4823Y-4.2382
X5.502Y-4.1535
X5.5394Y-3.626
X5.5413Y-4.1535
X5.5472Y-4.2992
X5.5787Y-3.6398
X5.5827Y-3.7717
X5.5827Y-4.1024
X5.6181Y-3.6398
T2
X4.2106Y-4.25
X4.2264Y-3.7067
X4.4154Y-3.7067
X4.811Y-3.626
X5.1358Y-3.626
X5.5Y-3.626
T3
X5.5512Y-3.937
X5.6693Y-3.937
T5
X5.4331Y-3.8927
X5.4331Y-3.9927
X5.751Y-3.8878
X5.751Y-3.9862
T4
G00X3.9941Y-3.7669
M15
G01X3.9705Y-3.7669
M16
G05
G00X3.9941Y-4.1071
M15
G01X3.9705Y-4.1071
M16
G05
G00X4.1685Y-3.7669
M15
G01X4.1252Y-3.7669
M16
G05
G00X4.1685Y-4.1071
M15
G01X4.1252Y-4.1071
M16
G05
T0
M30
