%TF.GenerationSoftware,KiCad,Pcbnew,(6.0.6)*%
%TF.CreationDate,2022-07-10T21:22:37+02:00*%
%TF.ProjectId,GCode_Buttons_MCU,47436f64-655f-4427-9574-746f6e735f4d,rev?*%
%TF.SameCoordinates,Original*%
%TF.FileFunction,Soldermask,Top*%
%TF.FilePolarity,Negative*%
%FSLAX46Y46*%
G04 Gerber Fmt 4.6, Leading zero omitted, Abs format (unit mm)*
G04 Created by KiCad (PCBNEW (6.0.6)) date 2022-07-10 21:22:37*
%MOMM*%
%LPD*%
G01*
G04 APERTURE LIST*
G04 Aperture macros list*
%AMRoundRect*
0 Rectangle with rounded corners*
0 $1 Rounding radius*
0 $2 $3 $4 $5 $6 $7 $8 $9 X,Y pos of 4 corners*
0 Add a 4 corners polygon primitive as box body*
4,1,4,$2,$3,$4,$5,$6,$7,$8,$9,$2,$3,0*
0 Add four circle primitives for the rounded corners*
1,1,$1+$1,$2,$3*
1,1,$1+$1,$4,$5*
1,1,$1+$1,$6,$7*
1,1,$1+$1,$8,$9*
0 Add four rect primitives between the rounded corners*
20,1,$1+$1,$2,$3,$4,$5,0*
20,1,$1+$1,$4,$5,$6,$7,0*
20,1,$1+$1,$6,$7,$8,$9,0*
20,1,$1+$1,$8,$9,$2,$3,0*%
%AMFreePoly0*
4,1,22,0.550000,-0.750000,0.000000,-0.750000,0.000000,-0.745033,-0.079941,-0.743568,-0.215256,-0.701293,-0.333266,-0.622738,-0.424486,-0.514219,-0.481581,-0.384460,-0.499164,-0.250000,-0.500000,-0.250000,-0.500000,0.250000,-0.499164,0.250000,-0.499963,0.256109,-0.478152,0.396186,-0.417904,0.524511,-0.324060,0.630769,-0.204165,0.706417,-0.067858,0.745374,0.000000,0.744959,0.000000,0.750000,
0.550000,0.750000,0.550000,-0.750000,0.550000,-0.750000,$1*%
%AMFreePoly1*
4,1,20,0.000000,0.744959,0.073905,0.744508,0.209726,0.703889,0.328688,0.626782,0.421226,0.519385,0.479903,0.390333,0.500000,0.250000,0.500000,-0.250000,0.499851,-0.262216,0.476331,-0.402017,0.414519,-0.529596,0.319384,-0.634700,0.198574,-0.708877,0.061801,-0.746166,0.000000,-0.745033,0.000000,-0.750000,-0.550000,-0.750000,-0.550000,0.750000,0.000000,0.750000,0.000000,0.744959,
0.000000,0.744959,$1*%
G04 Aperture macros list end*
%ADD10RoundRect,0.140000X0.170000X-0.140000X0.170000X0.140000X-0.170000X0.140000X-0.170000X-0.140000X0*%
%ADD11RoundRect,0.140000X-0.170000X0.140000X-0.170000X-0.140000X0.170000X-0.140000X0.170000X0.140000X0*%
%ADD12RoundRect,0.140000X0.140000X0.170000X-0.140000X0.170000X-0.140000X-0.170000X0.140000X-0.170000X0*%
%ADD13RoundRect,0.140000X-0.140000X-0.170000X0.140000X-0.170000X0.140000X0.170000X-0.140000X0.170000X0*%
%ADD14RoundRect,0.150000X-0.587500X-0.150000X0.587500X-0.150000X0.587500X0.150000X-0.587500X0.150000X0*%
%ADD15RoundRect,0.147500X-0.172500X0.147500X-0.172500X-0.147500X0.172500X-0.147500X0.172500X0.147500X0*%
%ADD16RoundRect,0.147500X0.172500X-0.147500X0.172500X0.147500X-0.172500X0.147500X-0.172500X-0.147500X0*%
%ADD17RoundRect,0.147500X0.147500X0.172500X-0.147500X0.172500X-0.147500X-0.172500X0.147500X-0.172500X0*%
%ADD18R,1.000000X0.600000*%
%ADD19RoundRect,0.218750X-0.256250X0.218750X-0.256250X-0.218750X0.256250X-0.218750X0.256250X0.218750X0*%
%ADD20C,2.200000*%
%ADD21C,0.650000*%
%ADD22R,1.450000X0.600000*%
%ADD23R,1.450000X0.300000*%
%ADD24O,2.100000X1.000000*%
%ADD25O,1.600000X1.000000*%
%ADD26RoundRect,0.250000X0.750000X-0.600000X0.750000X0.600000X-0.750000X0.600000X-0.750000X-0.600000X0*%
%ADD27O,2.000000X1.700000*%
%ADD28RoundRect,0.150000X-0.150000X-0.625000X0.150000X-0.625000X0.150000X0.625000X-0.150000X0.625000X0*%
%ADD29RoundRect,0.250000X-0.350000X-0.650000X0.350000X-0.650000X0.350000X0.650000X-0.350000X0.650000X0*%
%ADD30FreePoly0,0.000000*%
%ADD31R,1.000000X1.500000*%
%ADD32FreePoly1,0.000000*%
%ADD33R,1.700000X1.700000*%
%ADD34O,1.700000X1.700000*%
%ADD35RoundRect,0.135000X-0.135000X-0.185000X0.135000X-0.185000X0.135000X0.185000X-0.135000X0.185000X0*%
%ADD36RoundRect,0.135000X0.185000X-0.135000X0.185000X0.135000X-0.185000X0.135000X-0.185000X-0.135000X0*%
%ADD37RoundRect,0.135000X0.135000X0.185000X-0.135000X0.185000X-0.135000X-0.185000X0.135000X-0.185000X0*%
%ADD38RoundRect,0.135000X-0.185000X0.135000X-0.185000X-0.135000X0.185000X-0.135000X0.185000X0.135000X0*%
%ADD39C,0.700000*%
%ADD40R,0.900000X0.800000*%
%ADD41R,0.600000X1.200000*%
%ADD42RoundRect,0.075000X-0.075000X0.662500X-0.075000X-0.662500X0.075000X-0.662500X0.075000X0.662500X0*%
%ADD43RoundRect,0.075000X-0.662500X0.075000X-0.662500X-0.075000X0.662500X-0.075000X0.662500X0.075000X0*%
%ADD44RoundRect,0.150000X-0.825000X-0.150000X0.825000X-0.150000X0.825000X0.150000X-0.825000X0.150000X0*%
%ADD45RoundRect,0.150000X-0.512500X-0.150000X0.512500X-0.150000X0.512500X0.150000X-0.512500X0.150000X0*%
%ADD46R,0.650000X0.400000*%
%ADD47R,2.400000X2.400000*%
%ADD48R,0.400000X1.350000*%
%ADD49C,0.450000*%
%ADD50C,0.800000*%
%ADD51C,0.600000*%
G04 APERTURE END LIST*
D10*
%TO.C,C1*%
X127250000Y-100330000D03*
X127250000Y-99370000D03*
%TD*%
D11*
%TO.C,C2*%
X104450000Y-106170000D03*
X104450000Y-107130000D03*
%TD*%
D10*
%TO.C,C3*%
X106950000Y-107130000D03*
X106950000Y-106170000D03*
%TD*%
D12*
%TO.C,C4*%
X113330000Y-104800000D03*
X112370000Y-104800000D03*
%TD*%
D13*
%TO.C,C5*%
X122270000Y-97300000D03*
X123230000Y-97300000D03*
%TD*%
%TO.C,C6*%
X122270000Y-96250000D03*
X123230000Y-96250000D03*
%TD*%
%TO.C,C7*%
X122270000Y-95200000D03*
X123230000Y-95200000D03*
%TD*%
D12*
%TO.C,C8*%
X116430000Y-95200000D03*
X115470000Y-95200000D03*
%TD*%
%TO.C,C9*%
X116430000Y-94150000D03*
X115470000Y-94150000D03*
%TD*%
D13*
%TO.C,C10*%
X122270000Y-104750000D03*
X123230000Y-104750000D03*
%TD*%
%TO.C,C11*%
X122270000Y-105800000D03*
X123230000Y-105800000D03*
%TD*%
D10*
%TO.C,C12*%
X135650000Y-104180000D03*
X135650000Y-103220000D03*
%TD*%
D12*
%TO.C,C13*%
X110280000Y-102300000D03*
X109320000Y-102300000D03*
%TD*%
D13*
%TO.C,C14*%
X108170000Y-94150000D03*
X109130000Y-94150000D03*
%TD*%
D12*
%TO.C,C15*%
X111330000Y-94150000D03*
X110370000Y-94150000D03*
%TD*%
D10*
%TO.C,C16*%
X112400000Y-97330000D03*
X112400000Y-96370000D03*
%TD*%
D13*
%TO.C,C17*%
X118020000Y-95200000D03*
X118980000Y-95200000D03*
%TD*%
D12*
%TO.C,C18*%
X110280000Y-106200000D03*
X109320000Y-106200000D03*
%TD*%
D13*
%TO.C,C19*%
X113020000Y-106200000D03*
X113980000Y-106200000D03*
%TD*%
D10*
%TO.C,C20*%
X121500000Y-108530000D03*
X121500000Y-107570000D03*
%TD*%
D14*
%TO.C,D1*%
X140562500Y-99050000D03*
X140562500Y-100950000D03*
X142437500Y-100000000D03*
%TD*%
D15*
%TO.C,D2*%
X142900000Y-96565000D03*
X142900000Y-97535000D03*
%TD*%
D16*
%TO.C,D3*%
X142900000Y-103435000D03*
X142900000Y-102465000D03*
%TD*%
D17*
%TO.C,D4*%
X112485000Y-90600000D03*
X111515000Y-90600000D03*
%TD*%
D18*
%TO.C,D5*%
X119950000Y-109200000D03*
X119950000Y-107900000D03*
X117950000Y-107900000D03*
X117950000Y-109200000D03*
%TD*%
D19*
%TO.C,FB1*%
X105700000Y-105862500D03*
X105700000Y-107437500D03*
%TD*%
D20*
%TO.C,H1*%
X102000000Y-92000000D03*
%TD*%
%TO.C,H2*%
X102000000Y-108000000D03*
%TD*%
%TO.C,H3*%
X148000000Y-108000000D03*
%TD*%
%TO.C,H4*%
X148000000Y-92000000D03*
%TD*%
D21*
%TO.C,J1*%
X104800000Y-97110000D03*
X104800000Y-102890000D03*
D22*
X106245000Y-96750000D03*
X106245000Y-97550000D03*
D23*
X106245000Y-98750000D03*
X106245000Y-99750000D03*
X106245000Y-100250000D03*
X106245000Y-101250000D03*
D22*
X106245000Y-102450000D03*
X106245000Y-103250000D03*
X106245000Y-103250000D03*
X106245000Y-102450000D03*
D23*
X106245000Y-101750000D03*
X106245000Y-100750000D03*
X106245000Y-99250000D03*
X106245000Y-98250000D03*
D22*
X106245000Y-97550000D03*
X106245000Y-96750000D03*
D24*
X105330000Y-95680000D03*
X105330000Y-104320000D03*
D25*
X101150000Y-95680000D03*
X101150000Y-104320000D03*
%TD*%
D26*
%TO.C,J4*%
X146075000Y-101250000D03*
D27*
X146075000Y-98750000D03*
%TD*%
D28*
%TO.C,J5*%
X139700000Y-93675000D03*
X140700000Y-93675000D03*
X141700000Y-93675000D03*
X142700000Y-93675000D03*
D29*
X138400000Y-91150000D03*
X144000000Y-91150000D03*
%TD*%
D28*
%TO.C,J6*%
X130450000Y-93675000D03*
X131450000Y-93675000D03*
X132450000Y-93675000D03*
X133450000Y-93675000D03*
X134450000Y-93675000D03*
X135450000Y-93675000D03*
D29*
X136750000Y-91150000D03*
X129150000Y-91150000D03*
%TD*%
D28*
%TO.C,J7*%
X122200000Y-93675000D03*
X123200000Y-93675000D03*
X124200000Y-93675000D03*
X125200000Y-93675000D03*
X126200000Y-93675000D03*
D29*
X120900000Y-91150000D03*
X127500000Y-91150000D03*
%TD*%
D30*
%TO.C,JP1*%
X129700000Y-103850000D03*
D31*
X131000000Y-103850000D03*
D32*
X132300000Y-103850000D03*
%TD*%
D33*
%TO.C,JP2*%
X138000000Y-98875000D03*
D34*
X138000000Y-101415000D03*
%TD*%
D35*
%TO.C,R1*%
X123640000Y-100950000D03*
X124660000Y-100950000D03*
%TD*%
D36*
%TO.C,R2*%
X136050000Y-97910000D03*
X136050000Y-96890000D03*
%TD*%
%TO.C,R3*%
X134600000Y-104210000D03*
X134600000Y-103190000D03*
%TD*%
D37*
%TO.C,R4*%
X119010000Y-94150000D03*
X117990000Y-94150000D03*
%TD*%
D36*
%TO.C,R5*%
X136100000Y-101610000D03*
X136100000Y-100590000D03*
%TD*%
D38*
%TO.C,R6*%
X141800000Y-96540000D03*
X141800000Y-97560000D03*
%TD*%
D36*
%TO.C,R7*%
X141800000Y-103460000D03*
X141800000Y-102440000D03*
%TD*%
D37*
%TO.C,R8*%
X112510000Y-91700000D03*
X111490000Y-91700000D03*
%TD*%
D35*
%TO.C,R9*%
X115590000Y-109300000D03*
X116610000Y-109300000D03*
%TD*%
D39*
%TO.C,SW1*%
X108550000Y-91400000D03*
X106850000Y-91400000D03*
D40*
X106000000Y-92800000D03*
X109400000Y-92800000D03*
D41*
X105400000Y-90800000D03*
X110000000Y-90800000D03*
%TD*%
D39*
%TO.C,SW2*%
X115450000Y-91400000D03*
X117150000Y-91400000D03*
D40*
X114600000Y-92800000D03*
X118000000Y-92800000D03*
D41*
X118600000Y-90800000D03*
X114000000Y-90800000D03*
%TD*%
D42*
%TO.C,U1*%
X120750000Y-96887500D03*
X120250000Y-96887500D03*
X119750000Y-96887500D03*
X119250000Y-96887500D03*
X118750000Y-96887500D03*
X118250000Y-96887500D03*
X117750000Y-96887500D03*
X117250000Y-96887500D03*
X116750000Y-96887500D03*
X116250000Y-96887500D03*
X115750000Y-96887500D03*
X115250000Y-96887500D03*
D43*
X113837500Y-98300000D03*
X113837500Y-98800000D03*
X113837500Y-99300000D03*
X113837500Y-99800000D03*
X113837500Y-100300000D03*
X113837500Y-100800000D03*
X113837500Y-101300000D03*
X113837500Y-101800000D03*
X113837500Y-102300000D03*
X113837500Y-102800000D03*
X113837500Y-103300000D03*
X113837500Y-103800000D03*
D42*
X115250000Y-105212500D03*
X115750000Y-105212500D03*
X116250000Y-105212500D03*
X116750000Y-105212500D03*
X117250000Y-105212500D03*
X117750000Y-105212500D03*
X118250000Y-105212500D03*
X118750000Y-105212500D03*
X119250000Y-105212500D03*
X119750000Y-105212500D03*
X120250000Y-105212500D03*
X120750000Y-105212500D03*
D43*
X122162500Y-103800000D03*
X122162500Y-103300000D03*
X122162500Y-102800000D03*
X122162500Y-102300000D03*
X122162500Y-101800000D03*
X122162500Y-101300000D03*
X122162500Y-100800000D03*
X122162500Y-100300000D03*
X122162500Y-99800000D03*
X122162500Y-99300000D03*
X122162500Y-98800000D03*
X122162500Y-98300000D03*
%TD*%
D44*
%TO.C,U2*%
X129175000Y-98095000D03*
X129175000Y-99365000D03*
X129175000Y-100635000D03*
X129175000Y-101905000D03*
X134125000Y-101905000D03*
X134125000Y-100635000D03*
X134125000Y-99365000D03*
X134125000Y-98095000D03*
%TD*%
D45*
%TO.C,U3*%
X108662500Y-99050000D03*
X108662500Y-100000000D03*
X108662500Y-100950000D03*
X110937500Y-100950000D03*
X110937500Y-100000000D03*
X110937500Y-99050000D03*
%TD*%
D46*
%TO.C,U4*%
X108850000Y-103600000D03*
X108850000Y-104250000D03*
X108850000Y-104900000D03*
X110750000Y-104900000D03*
X110750000Y-103600000D03*
%TD*%
D45*
%TO.C,U5*%
X108662500Y-95450000D03*
X108662500Y-96400000D03*
X108662500Y-97350000D03*
X110937500Y-97350000D03*
X110937500Y-95450000D03*
%TD*%
D46*
%TO.C,U6*%
X108850000Y-107500000D03*
X108850000Y-108150000D03*
X108850000Y-108800000D03*
X110750000Y-108800000D03*
X110750000Y-107500000D03*
%TD*%
%TO.C,U7*%
X112550000Y-107500000D03*
X112550000Y-108150000D03*
X112550000Y-108800000D03*
X114450000Y-108800000D03*
X114450000Y-107500000D03*
%TD*%
D47*
%TO.C,J3*%
X135500000Y-107700000D03*
X142500000Y-107700000D03*
D48*
X140750000Y-106600000D03*
X140250000Y-108800000D03*
X139750000Y-106600000D03*
X139250000Y-108800000D03*
X138750000Y-106600000D03*
X138250000Y-108800000D03*
X137750000Y-106600000D03*
X137250000Y-108800000D03*
%TD*%
D47*
%TO.C,J2*%
X124500000Y-107700000D03*
X131500000Y-107700000D03*
D48*
X129750000Y-106600000D03*
X129250000Y-108800000D03*
X128750000Y-106600000D03*
X128250000Y-108800000D03*
X127750000Y-106600000D03*
X127250000Y-108800000D03*
X126750000Y-106600000D03*
X126250000Y-108800000D03*
%TD*%
D49*
X124150000Y-98050000D03*
X119800000Y-104000000D03*
X129250000Y-107650000D03*
X109950000Y-104900000D03*
X110000000Y-108800000D03*
X140900000Y-109200000D03*
X109800000Y-96400000D03*
X123500000Y-98700000D03*
X107700000Y-103250000D03*
X111650000Y-104800000D03*
X129750000Y-105500000D03*
X114700000Y-94150000D03*
X124100000Y-105750000D03*
X111700000Y-98200000D03*
X120250000Y-106300000D03*
X114700000Y-97750000D03*
X117250000Y-95000000D03*
X124100000Y-97250000D03*
X104450000Y-107850000D03*
X116000000Y-102500000D03*
D50*
X141000000Y-100000000D03*
D49*
X107700000Y-107350000D03*
X123200000Y-92100000D03*
X111650000Y-107000000D03*
X119000000Y-92500000D03*
X117750000Y-98800000D03*
X107700000Y-98200000D03*
X140750000Y-105500000D03*
X126350000Y-97350000D03*
X111150000Y-92800000D03*
X114500000Y-105500000D03*
X120000000Y-102500000D03*
D50*
X144000000Y-100000000D03*
D49*
X114600000Y-91850000D03*
X115750000Y-104000000D03*
X109800000Y-100000000D03*
X126500000Y-99000000D03*
X104400000Y-93800000D03*
X120950000Y-98800000D03*
X138500000Y-97500000D03*
X130850000Y-99350000D03*
X140700000Y-92100000D03*
X125400000Y-100950000D03*
X131450000Y-92100000D03*
X139750000Y-105500000D03*
X111100000Y-102350000D03*
X111100000Y-106200000D03*
D51*
X107350000Y-94150000D03*
D49*
X112087500Y-100000000D03*
X128750000Y-105500000D03*
D51*
X106950000Y-107950000D03*
D49*
X109800000Y-99050000D03*
X118543056Y-103684166D03*
X109800000Y-100850000D03*
X118950000Y-103000000D03*
X119000000Y-93150000D03*
X136550000Y-104200000D03*
D51*
X122200000Y-92100000D03*
X112150000Y-94150000D03*
X130450000Y-92100000D03*
D49*
X110300000Y-92800000D03*
X117200000Y-94150000D03*
X133550000Y-104100000D03*
X114050000Y-104800000D03*
D51*
X139700000Y-92100000D03*
D49*
X121550000Y-105800000D03*
X106900000Y-92800000D03*
X121000000Y-100250500D03*
X112250000Y-102950000D03*
X109600000Y-108150000D03*
X118000000Y-91950000D03*
X124200000Y-92100000D03*
X132450000Y-92450000D03*
X115050000Y-98450000D03*
X133450000Y-92450000D03*
X115788556Y-98488556D03*
X134450000Y-92450000D03*
X116377350Y-98799500D03*
X135450000Y-92450000D03*
X116755536Y-99349000D03*
X141700000Y-92450000D03*
X119150000Y-100750000D03*
X142700000Y-92450000D03*
X119900000Y-100700000D03*
X119600000Y-98750000D03*
X141800000Y-95800000D03*
X120150000Y-99100000D03*
X141800000Y-104200000D03*
X124950000Y-98050000D03*
X121000000Y-103550000D03*
X113800000Y-96000000D03*
X112900000Y-92450000D03*
X126250000Y-107650000D03*
X116096402Y-107505673D03*
X126750000Y-105500000D03*
X116900000Y-106450000D03*
X127250000Y-107650000D03*
X115725765Y-108074235D03*
X127750000Y-105500000D03*
X116497789Y-106959980D03*
X128250000Y-107650000D03*
X115050000Y-102850000D03*
X137250000Y-107650000D03*
X117400000Y-103750000D03*
X137750000Y-105500000D03*
X124705741Y-101892824D03*
X138250000Y-107650000D03*
X123450000Y-103414556D03*
X138750000Y-105500000D03*
X124300000Y-102400000D03*
X139250000Y-107650000D03*
X123901901Y-102948038D03*
X116700000Y-103750000D03*
X113300000Y-107650000D03*
M02*
