%TF.GenerationSoftware,KiCad,Pcbnew,(6.0.6)*%
%TF.CreationDate,2022-07-10T21:22:37+02:00*%
%TF.ProjectId,GCode_Buttons_MCU,47436f64-655f-4427-9574-746f6e735f4d,rev?*%
%TF.SameCoordinates,Original*%
%TF.FileFunction,Copper,L3,Inr*%
%TF.FilePolarity,Positive*%
%FSLAX46Y46*%
G04 Gerber Fmt 4.6, Leading zero omitted, Abs format (unit mm)*
G04 Created by KiCad (PCBNEW (6.0.6)) date 2022-07-10 21:22:37*
%MOMM*%
%LPD*%
G01*
G04 APERTURE LIST*
G04 Aperture macros list*
%AMRoundRect*
0 Rectangle with rounded corners*
0 $1 Rounding radius*
0 $2 $3 $4 $5 $6 $7 $8 $9 X,Y pos of 4 corners*
0 Add a 4 corners polygon primitive as box body*
4,1,4,$2,$3,$4,$5,$6,$7,$8,$9,$2,$3,0*
0 Add four circle primitives for the rounded corners*
1,1,$1+$1,$2,$3*
1,1,$1+$1,$4,$5*
1,1,$1+$1,$6,$7*
1,1,$1+$1,$8,$9*
0 Add four rect primitives between the rounded corners*
20,1,$1+$1,$2,$3,$4,$5,0*
20,1,$1+$1,$4,$5,$6,$7,0*
20,1,$1+$1,$6,$7,$8,$9,0*
20,1,$1+$1,$8,$9,$2,$3,0*%
G04 Aperture macros list end*
%TA.AperFunction,ComponentPad*%
%ADD10O,2.100000X1.000000*%
%TD*%
%TA.AperFunction,ComponentPad*%
%ADD11O,1.600000X1.000000*%
%TD*%
%TA.AperFunction,ComponentPad*%
%ADD12RoundRect,0.250000X0.750000X-0.600000X0.750000X0.600000X-0.750000X0.600000X-0.750000X-0.600000X0*%
%TD*%
%TA.AperFunction,ComponentPad*%
%ADD13O,2.000000X1.700000*%
%TD*%
%TA.AperFunction,ComponentPad*%
%ADD14R,1.700000X1.700000*%
%TD*%
%TA.AperFunction,ComponentPad*%
%ADD15O,1.700000X1.700000*%
%TD*%
%TA.AperFunction,ViaPad*%
%ADD16C,0.450000*%
%TD*%
%TA.AperFunction,ViaPad*%
%ADD17C,0.800000*%
%TD*%
%TA.AperFunction,ViaPad*%
%ADD18C,0.600000*%
%TD*%
G04 APERTURE END LIST*
D10*
%TO.N,GND*%
%TO.C,J1*%
X105330000Y-95680000D03*
X105330000Y-104320000D03*
D11*
X101150000Y-95680000D03*
X101150000Y-104320000D03*
%TD*%
D12*
%TO.N,Net-(D1-Pad2)*%
%TO.C,J4*%
X146075000Y-101250000D03*
D13*
%TO.N,Net-(D1-Pad1)*%
X146075000Y-98750000D03*
%TD*%
D14*
%TO.N,Net-(D1-Pad1)*%
%TO.C,JP2*%
X138000000Y-98875000D03*
D15*
%TO.N,Net-(JP2-Pad2)*%
X138000000Y-101415000D03*
%TD*%
D16*
%TO.N,SWD_IO*%
X124150000Y-98050000D03*
X119800000Y-104000000D03*
%TO.N,Dout_A*%
X129250000Y-107650000D03*
X109950000Y-104900000D03*
%TO.N,Dout_B*%
X110000000Y-108800000D03*
X140900000Y-109200000D03*
%TO.N,GND*%
X109800000Y-96400000D03*
X123500000Y-98700000D03*
X107700000Y-103250000D03*
X111650000Y-104800000D03*
X129750000Y-105500000D03*
X114700000Y-94150000D03*
X124100000Y-105750000D03*
X111700000Y-98200000D03*
X120250000Y-106300000D03*
X114700000Y-97750000D03*
X117250000Y-95000000D03*
X124100000Y-97250000D03*
X104450000Y-107850000D03*
X116000000Y-102500000D03*
D17*
X141000000Y-100000000D03*
D16*
X107700000Y-107350000D03*
X123200000Y-92100000D03*
X111650000Y-107000000D03*
X119000000Y-92500000D03*
X117750000Y-98800000D03*
X107700000Y-98200000D03*
X140750000Y-105500000D03*
X126350000Y-97350000D03*
X111150000Y-92800000D03*
X114500000Y-105500000D03*
X120000000Y-102500000D03*
D17*
X144000000Y-100000000D03*
D16*
X114600000Y-91850000D03*
X115750000Y-104000000D03*
X109800000Y-100000000D03*
X126500000Y-99000000D03*
X104400000Y-93800000D03*
X120950000Y-98800000D03*
X138500000Y-97500000D03*
X130850000Y-99350000D03*
X140700000Y-92100000D03*
X125400000Y-100950000D03*
X131450000Y-92100000D03*
%TO.N,+5V*%
X139750000Y-105500000D03*
X111100000Y-102350000D03*
X111100000Y-106200000D03*
D18*
X107350000Y-94150000D03*
D16*
X112087500Y-100000000D03*
X128750000Y-105500000D03*
D18*
X106950000Y-107950000D03*
D16*
%TO.N,USB_N*%
X109800000Y-99050000D03*
X118543056Y-103684166D03*
%TO.N,USB_P*%
X109800000Y-100850000D03*
X118950000Y-103000000D03*
%TO.N,+3V3*%
X119000000Y-93150000D03*
X136550000Y-104200000D03*
D18*
X122200000Y-92100000D03*
X112150000Y-94150000D03*
X130450000Y-92100000D03*
D16*
X110300000Y-92800000D03*
X117200000Y-94150000D03*
X133550000Y-104100000D03*
X114050000Y-104800000D03*
D18*
X139700000Y-92100000D03*
D16*
X121550000Y-105800000D03*
%TO.N,BOOT0*%
X106900000Y-92800000D03*
X121000000Y-100250500D03*
%TO.N,D_out_B*%
X112250000Y-102950000D03*
X109600000Y-108150000D03*
%TO.N,RESET*%
X118000000Y-91950000D03*
X124200000Y-92100000D03*
%TO.N,CS_SPI1*%
X132450000Y-92450000D03*
X115050000Y-98450000D03*
%TO.N,SCK_SPI1*%
X133450000Y-92450000D03*
X115788556Y-98488556D03*
%TO.N,MISO_SPI1*%
X134450000Y-92450000D03*
X116377350Y-98799500D03*
%TO.N,MOSI_SPI1*%
X135450000Y-92450000D03*
X116755536Y-99349000D03*
%TO.N,SCL_I2C*%
X141700000Y-92450000D03*
X119150000Y-100750000D03*
%TO.N,SDA_I2C*%
X142700000Y-92450000D03*
X119900000Y-100700000D03*
%TO.N,LED_TX*%
X119600000Y-98750000D03*
X141800000Y-95800000D03*
%TO.N,LED_RX*%
X120150000Y-99100000D03*
X141800000Y-104200000D03*
%TO.N,SWD_CLK*%
X124950000Y-98050000D03*
X121000000Y-103550000D03*
%TO.N,PA3*%
X113800000Y-96000000D03*
X112900000Y-92450000D03*
%TO.N,GB_A_1*%
X126250000Y-107650000D03*
X116096402Y-107505673D03*
%TO.N,GB_A_2*%
X126750000Y-105500000D03*
X116900000Y-106450000D03*
%TO.N,GB_A_3*%
X127250000Y-107650000D03*
X115725765Y-108074235D03*
%TO.N,GB_A_4*%
X127750000Y-105500000D03*
X116497789Y-106959980D03*
%TO.N,GB_A_5*%
X128250000Y-107650000D03*
X115050000Y-102850000D03*
%TO.N,GB_B_1*%
X137250000Y-107650000D03*
X117400000Y-103750000D03*
%TO.N,GB_B_2*%
X137750000Y-105500000D03*
X124705741Y-101892824D03*
%TO.N,GB_B_3*%
X138250000Y-107650000D03*
X123450000Y-103414556D03*
%TO.N,GB_B_4*%
X138750000Y-105500000D03*
X124300000Y-102400000D03*
%TO.N,GB_B_5*%
X139250000Y-107650000D03*
X123901901Y-102948038D03*
%TO.N,Dout*%
X116700000Y-103750000D03*
X113300000Y-107650000D03*
%TD*%
%TA.AperFunction,Conductor*%
%TO.N,GND*%
G36*
X148988169Y-90203018D02*
G01*
X148999641Y-90205656D01*
X149010516Y-90203195D01*
X149021663Y-90203215D01*
X149021661Y-90204219D01*
X149031562Y-90203609D01*
X149117698Y-90212092D01*
X149146272Y-90214906D01*
X149165301Y-90218691D01*
X149296626Y-90258528D01*
X149314555Y-90265955D01*
X149435577Y-90330643D01*
X149451713Y-90341424D01*
X149557798Y-90428485D01*
X149571515Y-90442202D01*
X149639113Y-90524571D01*
X149658576Y-90548287D01*
X149669357Y-90564423D01*
X149734045Y-90685445D01*
X149741472Y-90703373D01*
X149781309Y-90834699D01*
X149785094Y-90853728D01*
X149787624Y-90879415D01*
X149796384Y-90968363D01*
X149796861Y-90978239D01*
X149796843Y-90988774D01*
X149794344Y-90999641D01*
X149797059Y-91011638D01*
X149799500Y-91033488D01*
X149799500Y-108965983D01*
X149796982Y-108988169D01*
X149794344Y-108999641D01*
X149796805Y-109010516D01*
X149796785Y-109021663D01*
X149795781Y-109021661D01*
X149796391Y-109031562D01*
X149785094Y-109146270D01*
X149781309Y-109165301D01*
X149748365Y-109273903D01*
X149741472Y-109296626D01*
X149734045Y-109314555D01*
X149669357Y-109435577D01*
X149658576Y-109451713D01*
X149571515Y-109557798D01*
X149557798Y-109571515D01*
X149514980Y-109606655D01*
X149451713Y-109658576D01*
X149435577Y-109669357D01*
X149314555Y-109734045D01*
X149296627Y-109741472D01*
X149165301Y-109781309D01*
X149146272Y-109785094D01*
X149031637Y-109796384D01*
X149021761Y-109796861D01*
X149011226Y-109796843D01*
X149000359Y-109794344D01*
X148988359Y-109797059D01*
X148966512Y-109799500D01*
X141070158Y-109799500D01*
X141011967Y-109780593D01*
X140976003Y-109731093D01*
X140976003Y-109669907D01*
X141011967Y-109620407D01*
X141032862Y-109609761D01*
X141033126Y-109609719D01*
X141108098Y-109571519D01*
X141146281Y-109552064D01*
X141146283Y-109552063D01*
X141153220Y-109548528D01*
X141248528Y-109453220D01*
X141253136Y-109444178D01*
X141306183Y-109340066D01*
X141306183Y-109340065D01*
X141309719Y-109333126D01*
X141312661Y-109314555D01*
X141329585Y-109207696D01*
X141330804Y-109200000D01*
X141309719Y-109066874D01*
X141293703Y-109035441D01*
X141252064Y-108953719D01*
X141252063Y-108953717D01*
X141248528Y-108946780D01*
X141153220Y-108851472D01*
X141146283Y-108847937D01*
X141146281Y-108847936D01*
X141040066Y-108793817D01*
X141040065Y-108793817D01*
X141033126Y-108790281D01*
X141025432Y-108789062D01*
X141025431Y-108789062D01*
X140907696Y-108770415D01*
X140900000Y-108769196D01*
X140892304Y-108770415D01*
X140774569Y-108789062D01*
X140774568Y-108789062D01*
X140766874Y-108790281D01*
X140759935Y-108793817D01*
X140759934Y-108793817D01*
X140653719Y-108847936D01*
X140653717Y-108847937D01*
X140646780Y-108851472D01*
X140551472Y-108946780D01*
X140547937Y-108953717D01*
X140547936Y-108953719D01*
X140506297Y-109035441D01*
X140490281Y-109066874D01*
X140469196Y-109200000D01*
X140470415Y-109207696D01*
X140487340Y-109314555D01*
X140490281Y-109333126D01*
X140493817Y-109340065D01*
X140493817Y-109340066D01*
X140546865Y-109444178D01*
X140551472Y-109453220D01*
X140646780Y-109548528D01*
X140653717Y-109552063D01*
X140653719Y-109552064D01*
X140691902Y-109571519D01*
X140760861Y-109606655D01*
X140766874Y-109609719D01*
X140766389Y-109610671D01*
X140809934Y-109642308D01*
X140828842Y-109700499D01*
X140809935Y-109758690D01*
X140760436Y-109794654D01*
X140729842Y-109799500D01*
X101034017Y-109799500D01*
X101011831Y-109796982D01*
X101011813Y-109796978D01*
X101000359Y-109794344D01*
X100989484Y-109796805D01*
X100978337Y-109796785D01*
X100978339Y-109795781D01*
X100968438Y-109796391D01*
X100882302Y-109787908D01*
X100853728Y-109785094D01*
X100834699Y-109781309D01*
X100703373Y-109741472D01*
X100685445Y-109734045D01*
X100564423Y-109669357D01*
X100548287Y-109658576D01*
X100485020Y-109606655D01*
X100442202Y-109571515D01*
X100428485Y-109557798D01*
X100341424Y-109451713D01*
X100330643Y-109435577D01*
X100265955Y-109314555D01*
X100258528Y-109296626D01*
X100251635Y-109273903D01*
X100218691Y-109165301D01*
X100214906Y-109146270D01*
X100203658Y-109032058D01*
X100203830Y-109011037D01*
X100204389Y-109006180D01*
X100205655Y-109000718D01*
X100205656Y-109000000D01*
X100203096Y-108988776D01*
X100202980Y-108988266D01*
X100200500Y-108966248D01*
X100200500Y-108000000D01*
X100644341Y-108000000D01*
X100664937Y-108235408D01*
X100726097Y-108463663D01*
X100825965Y-108677829D01*
X100961505Y-108871401D01*
X101128599Y-109038495D01*
X101253973Y-109126282D01*
X101309705Y-109165306D01*
X101322171Y-109174035D01*
X101536337Y-109273903D01*
X101764592Y-109335063D01*
X101849431Y-109342486D01*
X101938870Y-109350311D01*
X101938878Y-109350311D01*
X101941034Y-109350500D01*
X102058966Y-109350500D01*
X102061122Y-109350311D01*
X102061130Y-109350311D01*
X102150569Y-109342486D01*
X102235408Y-109335063D01*
X102463663Y-109273903D01*
X102677829Y-109174035D01*
X102690296Y-109165306D01*
X102746027Y-109126282D01*
X102871401Y-109038495D01*
X103038495Y-108871401D01*
X103171554Y-108681374D01*
X103171554Y-108681373D01*
X103174035Y-108677830D01*
X103273903Y-108463663D01*
X103335063Y-108235408D01*
X103355659Y-108000000D01*
X103350744Y-107943823D01*
X106444391Y-107943823D01*
X106445306Y-107950820D01*
X106445306Y-107950821D01*
X106460438Y-108066539D01*
X106462980Y-108085979D01*
X106465821Y-108092435D01*
X106465821Y-108092436D01*
X106513004Y-108199666D01*
X106520720Y-108217203D01*
X106533792Y-108232754D01*
X106608431Y-108321549D01*
X106608434Y-108321551D01*
X106612970Y-108326948D01*
X106618841Y-108330856D01*
X106618842Y-108330857D01*
X106631143Y-108339045D01*
X106732313Y-108406390D01*
X106832920Y-108437821D01*
X106862425Y-108447039D01*
X106862426Y-108447039D01*
X106869157Y-108449142D01*
X106940828Y-108450456D01*
X107005445Y-108451641D01*
X107005447Y-108451641D01*
X107012499Y-108451770D01*
X107019302Y-108449915D01*
X107019304Y-108449915D01*
X107118895Y-108422763D01*
X107150817Y-108414060D01*
X107272991Y-108339045D01*
X107280403Y-108330857D01*
X107364468Y-108237982D01*
X107369200Y-108232754D01*
X107409294Y-108150000D01*
X109169196Y-108150000D01*
X109190281Y-108283126D01*
X109193817Y-108290065D01*
X109193817Y-108290066D01*
X109241719Y-108384078D01*
X109251472Y-108403220D01*
X109346780Y-108498528D01*
X109353717Y-108502063D01*
X109353719Y-108502064D01*
X109455098Y-108553719D01*
X109466874Y-108559719D01*
X109474566Y-108560937D01*
X109474568Y-108560938D01*
X109506037Y-108565922D01*
X109560553Y-108593700D01*
X109588330Y-108648217D01*
X109588330Y-108679190D01*
X109569196Y-108800000D01*
X109590281Y-108933126D01*
X109593817Y-108940065D01*
X109593817Y-108940066D01*
X109640437Y-109031562D01*
X109651472Y-109053220D01*
X109746780Y-109148528D01*
X109753717Y-109152063D01*
X109753719Y-109152064D01*
X109832695Y-109192304D01*
X109866874Y-109209719D01*
X109874568Y-109210938D01*
X109874569Y-109210938D01*
X109992304Y-109229585D01*
X110000000Y-109230804D01*
X110007696Y-109229585D01*
X110125431Y-109210938D01*
X110125432Y-109210938D01*
X110133126Y-109209719D01*
X110167305Y-109192304D01*
X110246281Y-109152064D01*
X110246283Y-109152063D01*
X110253220Y-109148528D01*
X110348528Y-109053220D01*
X110359564Y-109031562D01*
X110406183Y-108940066D01*
X110406183Y-108940065D01*
X110409719Y-108933126D01*
X110430804Y-108800000D01*
X110409719Y-108666874D01*
X110362868Y-108574923D01*
X110352064Y-108553719D01*
X110352063Y-108553717D01*
X110348528Y-108546780D01*
X110253220Y-108451472D01*
X110246283Y-108447937D01*
X110246281Y-108447936D01*
X110140066Y-108393817D01*
X110140065Y-108393817D01*
X110133126Y-108390281D01*
X110125434Y-108389063D01*
X110125432Y-108389062D01*
X110093963Y-108384078D01*
X110039447Y-108356300D01*
X110011670Y-108301783D01*
X110011670Y-108270810D01*
X110029585Y-108157697D01*
X110029585Y-108157696D01*
X110030804Y-108150000D01*
X110020023Y-108081931D01*
X110010938Y-108024569D01*
X110010938Y-108024568D01*
X110009719Y-108016874D01*
X109997566Y-107993022D01*
X109952064Y-107903719D01*
X109952063Y-107903717D01*
X109948528Y-107896780D01*
X109853220Y-107801472D01*
X109846283Y-107797937D01*
X109846281Y-107797936D01*
X109740066Y-107743817D01*
X109740065Y-107743817D01*
X109733126Y-107740281D01*
X109725432Y-107739062D01*
X109725431Y-107739062D01*
X109636978Y-107725053D01*
X109600000Y-107719196D01*
X109563022Y-107725053D01*
X109474569Y-107739062D01*
X109474568Y-107739062D01*
X109466874Y-107740281D01*
X109459935Y-107743817D01*
X109459934Y-107743817D01*
X109353719Y-107797936D01*
X109353717Y-107797937D01*
X109346780Y-107801472D01*
X109251472Y-107896780D01*
X109247937Y-107903717D01*
X109247936Y-107903719D01*
X109202434Y-107993022D01*
X109190281Y-108016874D01*
X109189062Y-108024568D01*
X109189062Y-108024569D01*
X109179977Y-108081931D01*
X109169196Y-108150000D01*
X107409294Y-108150000D01*
X107431710Y-108103733D01*
X107435875Y-108078982D01*
X107454862Y-107966124D01*
X107454862Y-107966120D01*
X107455496Y-107962354D01*
X107455647Y-107950000D01*
X107435323Y-107808082D01*
X107396262Y-107722171D01*
X107378905Y-107683996D01*
X107378904Y-107683995D01*
X107375984Y-107677572D01*
X107352226Y-107650000D01*
X112869196Y-107650000D01*
X112870415Y-107657696D01*
X112887346Y-107764592D01*
X112890281Y-107783126D01*
X112893817Y-107790065D01*
X112893817Y-107790066D01*
X112926496Y-107854201D01*
X112951472Y-107903220D01*
X113046780Y-107998528D01*
X113053717Y-108002063D01*
X113053719Y-108002064D01*
X113159934Y-108056183D01*
X113166874Y-108059719D01*
X113174568Y-108060938D01*
X113174569Y-108060938D01*
X113258525Y-108074235D01*
X113288497Y-108078982D01*
X113292304Y-108079585D01*
X113300000Y-108080804D01*
X113307696Y-108079585D01*
X113311504Y-108078982D01*
X113341475Y-108074235D01*
X115294961Y-108074235D01*
X115316046Y-108207361D01*
X115377237Y-108327455D01*
X115472545Y-108422763D01*
X115479482Y-108426298D01*
X115479484Y-108426299D01*
X115560507Y-108467582D01*
X115592639Y-108483954D01*
X115600333Y-108485173D01*
X115600334Y-108485173D01*
X115718069Y-108503820D01*
X115725765Y-108505039D01*
X115733461Y-108503820D01*
X115851196Y-108485173D01*
X115851197Y-108485173D01*
X115858891Y-108483954D01*
X115891023Y-108467582D01*
X115972046Y-108426299D01*
X115972048Y-108426298D01*
X115978985Y-108422763D01*
X116074293Y-108327455D01*
X116135484Y-108207361D01*
X116156569Y-108074235D01*
X116149247Y-108028006D01*
X116158818Y-107967574D01*
X116202083Y-107924309D01*
X116216437Y-107918364D01*
X116221834Y-107916611D01*
X116229528Y-107915392D01*
X116266056Y-107896780D01*
X116342683Y-107857737D01*
X116342685Y-107857736D01*
X116349622Y-107854201D01*
X116444930Y-107758893D01*
X116453740Y-107741604D01*
X116500414Y-107650000D01*
X125819196Y-107650000D01*
X125820415Y-107657696D01*
X125837346Y-107764592D01*
X125840281Y-107783126D01*
X125843817Y-107790065D01*
X125843817Y-107790066D01*
X125876496Y-107854201D01*
X125901472Y-107903220D01*
X125996780Y-107998528D01*
X126003717Y-108002063D01*
X126003719Y-108002064D01*
X126109934Y-108056183D01*
X126116874Y-108059719D01*
X126124568Y-108060938D01*
X126124569Y-108060938D01*
X126208525Y-108074235D01*
X126238497Y-108078982D01*
X126242304Y-108079585D01*
X126250000Y-108080804D01*
X126257696Y-108079585D01*
X126261504Y-108078982D01*
X126291475Y-108074235D01*
X126375431Y-108060938D01*
X126375432Y-108060938D01*
X126383126Y-108059719D01*
X126390066Y-108056183D01*
X126496281Y-108002064D01*
X126496283Y-108002063D01*
X126503220Y-107998528D01*
X126598528Y-107903220D01*
X126623505Y-107854201D01*
X126659719Y-107783126D01*
X126661123Y-107783841D01*
X126691809Y-107741605D01*
X126749999Y-107722697D01*
X126808190Y-107741604D01*
X126838877Y-107783841D01*
X126840281Y-107783126D01*
X126876496Y-107854201D01*
X126901472Y-107903220D01*
X126996780Y-107998528D01*
X127003717Y-108002063D01*
X127003719Y-108002064D01*
X127109934Y-108056183D01*
X127116874Y-108059719D01*
X127124568Y-108060938D01*
X127124569Y-108060938D01*
X127208525Y-108074235D01*
X127238497Y-108078982D01*
X127242304Y-108079585D01*
X127250000Y-108080804D01*
X127257696Y-108079585D01*
X127261504Y-108078982D01*
X127291475Y-108074235D01*
X127375431Y-108060938D01*
X127375432Y-108060938D01*
X127383126Y-108059719D01*
X127390066Y-108056183D01*
X127496281Y-108002064D01*
X127496283Y-108002063D01*
X127503220Y-107998528D01*
X127598528Y-107903220D01*
X127623505Y-107854201D01*
X127659719Y-107783126D01*
X127661123Y-107783841D01*
X127691809Y-107741605D01*
X127749999Y-107722697D01*
X127808190Y-107741604D01*
X127838877Y-107783841D01*
X127840281Y-107783126D01*
X127876496Y-107854201D01*
X127901472Y-107903220D01*
X127996780Y-107998528D01*
X128003717Y-108002063D01*
X128003719Y-108002064D01*
X128109934Y-108056183D01*
X128116874Y-108059719D01*
X128124568Y-108060938D01*
X128124569Y-108060938D01*
X128208525Y-108074235D01*
X128238497Y-108078982D01*
X128242304Y-108079585D01*
X128250000Y-108080804D01*
X128257696Y-108079585D01*
X128261504Y-108078982D01*
X128291475Y-108074235D01*
X128375431Y-108060938D01*
X128375432Y-108060938D01*
X128383126Y-108059719D01*
X128390066Y-108056183D01*
X128496281Y-108002064D01*
X128496283Y-108002063D01*
X128503220Y-107998528D01*
X128598528Y-107903220D01*
X128623505Y-107854201D01*
X128659719Y-107783126D01*
X128661123Y-107783841D01*
X128691809Y-107741605D01*
X128749999Y-107722697D01*
X128808190Y-107741604D01*
X128838877Y-107783841D01*
X128840281Y-107783126D01*
X128876496Y-107854201D01*
X128901472Y-107903220D01*
X128996780Y-107998528D01*
X129003717Y-108002063D01*
X129003719Y-108002064D01*
X129109934Y-108056183D01*
X129116874Y-108059719D01*
X129124568Y-108060938D01*
X129124569Y-108060938D01*
X129208525Y-108074235D01*
X129238497Y-108078982D01*
X129242304Y-108079585D01*
X129250000Y-108080804D01*
X129257696Y-108079585D01*
X129261504Y-108078982D01*
X129291475Y-108074235D01*
X129375431Y-108060938D01*
X129375432Y-108060938D01*
X129383126Y-108059719D01*
X129390066Y-108056183D01*
X129496281Y-108002064D01*
X129496283Y-108002063D01*
X129503220Y-107998528D01*
X129598528Y-107903220D01*
X129623505Y-107854201D01*
X129656183Y-107790066D01*
X129656183Y-107790065D01*
X129659719Y-107783126D01*
X129662655Y-107764592D01*
X129679585Y-107657696D01*
X129680804Y-107650000D01*
X136819196Y-107650000D01*
X136820415Y-107657696D01*
X136837346Y-107764592D01*
X136840281Y-107783126D01*
X136843817Y-107790065D01*
X136843817Y-107790066D01*
X136876496Y-107854201D01*
X136901472Y-107903220D01*
X136996780Y-107998528D01*
X137003717Y-108002063D01*
X137003719Y-108002064D01*
X137109934Y-108056183D01*
X137116874Y-108059719D01*
X137124568Y-108060938D01*
X137124569Y-108060938D01*
X137208525Y-108074235D01*
X137238497Y-108078982D01*
X137242304Y-108079585D01*
X137250000Y-108080804D01*
X137257696Y-108079585D01*
X137261504Y-108078982D01*
X137291475Y-108074235D01*
X137375431Y-108060938D01*
X137375432Y-108060938D01*
X137383126Y-108059719D01*
X137390066Y-108056183D01*
X137496281Y-108002064D01*
X137496283Y-108002063D01*
X137503220Y-107998528D01*
X137598528Y-107903220D01*
X137623505Y-107854201D01*
X137659719Y-107783126D01*
X137661123Y-107783841D01*
X137691809Y-107741605D01*
X137749999Y-107722697D01*
X137808190Y-107741604D01*
X137838877Y-107783841D01*
X137840281Y-107783126D01*
X137876496Y-107854201D01*
X137901472Y-107903220D01*
X137996780Y-107998528D01*
X138003717Y-108002063D01*
X138003719Y-108002064D01*
X138109934Y-108056183D01*
X138116874Y-108059719D01*
X138124568Y-108060938D01*
X138124569Y-108060938D01*
X138208525Y-108074235D01*
X138238497Y-108078982D01*
X138242304Y-108079585D01*
X138250000Y-108080804D01*
X138257696Y-108079585D01*
X138261504Y-108078982D01*
X138291475Y-108074235D01*
X138375431Y-108060938D01*
X138375432Y-108060938D01*
X138383126Y-108059719D01*
X138390066Y-108056183D01*
X138496281Y-108002064D01*
X138496283Y-108002063D01*
X138503220Y-107998528D01*
X138598528Y-107903220D01*
X138623505Y-107854201D01*
X138659719Y-107783126D01*
X138661123Y-107783841D01*
X138691809Y-107741605D01*
X138749999Y-107722697D01*
X138808190Y-107741604D01*
X138838877Y-107783841D01*
X138840281Y-107783126D01*
X138876496Y-107854201D01*
X138901472Y-107903220D01*
X138996780Y-107998528D01*
X139003717Y-108002063D01*
X139003719Y-108002064D01*
X139109934Y-108056183D01*
X139116874Y-108059719D01*
X139124568Y-108060938D01*
X139124569Y-108060938D01*
X139208525Y-108074235D01*
X139238497Y-108078982D01*
X139242304Y-108079585D01*
X139250000Y-108080804D01*
X139257696Y-108079585D01*
X139261504Y-108078982D01*
X139291475Y-108074235D01*
X139375431Y-108060938D01*
X139375432Y-108060938D01*
X139383126Y-108059719D01*
X139390066Y-108056183D01*
X139496281Y-108002064D01*
X139496283Y-108002063D01*
X139500331Y-108000000D01*
X146644341Y-108000000D01*
X146664937Y-108235408D01*
X146726097Y-108463663D01*
X146825965Y-108677829D01*
X146961505Y-108871401D01*
X147128599Y-109038495D01*
X147253973Y-109126282D01*
X147309705Y-109165306D01*
X147322171Y-109174035D01*
X147536337Y-109273903D01*
X147764592Y-109335063D01*
X147849431Y-109342486D01*
X147938870Y-109350311D01*
X147938878Y-109350311D01*
X147941034Y-109350500D01*
X148058966Y-109350500D01*
X148061122Y-109350311D01*
X148061130Y-109350311D01*
X148150569Y-109342486D01*
X148235408Y-109335063D01*
X148463663Y-109273903D01*
X148677829Y-109174035D01*
X148690296Y-109165306D01*
X148746027Y-109126282D01*
X148871401Y-109038495D01*
X149038495Y-108871401D01*
X149171554Y-108681374D01*
X149171554Y-108681373D01*
X149174035Y-108677830D01*
X149273903Y-108463663D01*
X149335063Y-108235408D01*
X149355659Y-108000000D01*
X149335063Y-107764592D01*
X149273903Y-107536337D01*
X149174035Y-107322171D01*
X149159542Y-107301472D01*
X149040974Y-107132140D01*
X149038495Y-107128599D01*
X148871401Y-106961505D01*
X148720985Y-106856183D01*
X148681374Y-106828447D01*
X148681372Y-106828446D01*
X148677829Y-106825965D01*
X148463663Y-106726097D01*
X148235408Y-106664937D01*
X148150569Y-106657514D01*
X148061130Y-106649689D01*
X148061122Y-106649689D01*
X148058966Y-106649500D01*
X147941034Y-106649500D01*
X147938878Y-106649689D01*
X147938870Y-106649689D01*
X147849431Y-106657514D01*
X147764592Y-106664937D01*
X147536337Y-106726097D01*
X147322171Y-106825965D01*
X147318628Y-106828446D01*
X147318626Y-106828447D01*
X147279015Y-106856183D01*
X147128599Y-106961505D01*
X146961505Y-107128599D01*
X146902267Y-107213200D01*
X146828447Y-107318625D01*
X146828446Y-107318627D01*
X146825965Y-107322170D01*
X146726097Y-107536337D01*
X146664937Y-107764592D01*
X146644341Y-108000000D01*
X139500331Y-108000000D01*
X139503220Y-107998528D01*
X139598528Y-107903220D01*
X139623505Y-107854201D01*
X139656183Y-107790066D01*
X139656183Y-107790065D01*
X139659719Y-107783126D01*
X139662655Y-107764592D01*
X139679585Y-107657696D01*
X139680804Y-107650000D01*
X139669290Y-107577303D01*
X139660938Y-107524569D01*
X139660938Y-107524568D01*
X139659719Y-107516874D01*
X139654012Y-107505673D01*
X139602064Y-107403719D01*
X139602063Y-107403717D01*
X139598528Y-107396780D01*
X139503220Y-107301472D01*
X139496283Y-107297937D01*
X139496281Y-107297936D01*
X139390066Y-107243817D01*
X139390065Y-107243817D01*
X139383126Y-107240281D01*
X139375432Y-107239062D01*
X139375431Y-107239062D01*
X139257696Y-107220415D01*
X139250000Y-107219196D01*
X139242304Y-107220415D01*
X139124569Y-107239062D01*
X139124568Y-107239062D01*
X139116874Y-107240281D01*
X139109935Y-107243817D01*
X139109934Y-107243817D01*
X139003719Y-107297936D01*
X139003717Y-107297937D01*
X138996780Y-107301472D01*
X138901472Y-107396780D01*
X138897937Y-107403717D01*
X138897936Y-107403719D01*
X138845988Y-107505673D01*
X138840281Y-107516874D01*
X138838877Y-107516159D01*
X138808191Y-107558395D01*
X138750001Y-107577303D01*
X138691810Y-107558396D01*
X138661123Y-107516159D01*
X138659719Y-107516874D01*
X138602064Y-107403719D01*
X138602063Y-107403717D01*
X138598528Y-107396780D01*
X138503220Y-107301472D01*
X138496283Y-107297937D01*
X138496281Y-107297936D01*
X138390066Y-107243817D01*
X138390065Y-107243817D01*
X138383126Y-107240281D01*
X138375432Y-107239062D01*
X138375431Y-107239062D01*
X138257696Y-107220415D01*
X138250000Y-107219196D01*
X138242304Y-107220415D01*
X138124569Y-107239062D01*
X138124568Y-107239062D01*
X138116874Y-107240281D01*
X138109935Y-107243817D01*
X138109934Y-107243817D01*
X138003719Y-107297936D01*
X138003717Y-107297937D01*
X137996780Y-107301472D01*
X137901472Y-107396780D01*
X137897937Y-107403717D01*
X137897936Y-107403719D01*
X137845988Y-107505673D01*
X137840281Y-107516874D01*
X137838877Y-107516159D01*
X137808191Y-107558395D01*
X137750001Y-107577303D01*
X137691810Y-107558396D01*
X137661123Y-107516159D01*
X137659719Y-107516874D01*
X137602064Y-107403719D01*
X137602063Y-107403717D01*
X137598528Y-107396780D01*
X137503220Y-107301472D01*
X137496283Y-107297937D01*
X137496281Y-107297936D01*
X137390066Y-107243817D01*
X137390065Y-107243817D01*
X137383126Y-107240281D01*
X137375432Y-107239062D01*
X137375431Y-107239062D01*
X137257696Y-107220415D01*
X137250000Y-107219196D01*
X137242304Y-107220415D01*
X137124569Y-107239062D01*
X137124568Y-107239062D01*
X137116874Y-107240281D01*
X137109935Y-107243817D01*
X137109934Y-107243817D01*
X137003719Y-107297936D01*
X137003717Y-107297937D01*
X136996780Y-107301472D01*
X136901472Y-107396780D01*
X136897937Y-107403717D01*
X136897936Y-107403719D01*
X136845988Y-107505673D01*
X136840281Y-107516874D01*
X136839062Y-107524568D01*
X136839062Y-107524569D01*
X136830710Y-107577303D01*
X136819196Y-107650000D01*
X129680804Y-107650000D01*
X129669290Y-107577303D01*
X129660938Y-107524569D01*
X129660938Y-107524568D01*
X129659719Y-107516874D01*
X129654012Y-107505673D01*
X129602064Y-107403719D01*
X129602063Y-107403717D01*
X129598528Y-107396780D01*
X129503220Y-107301472D01*
X129496283Y-107297937D01*
X129496281Y-107297936D01*
X129390066Y-107243817D01*
X129390065Y-107243817D01*
X129383126Y-107240281D01*
X129375432Y-107239062D01*
X129375431Y-107239062D01*
X129257696Y-107220415D01*
X129250000Y-107219196D01*
X129242304Y-107220415D01*
X129124569Y-107239062D01*
X129124568Y-107239062D01*
X129116874Y-107240281D01*
X129109935Y-107243817D01*
X129109934Y-107243817D01*
X129003719Y-107297936D01*
X129003717Y-107297937D01*
X128996780Y-107301472D01*
X128901472Y-107396780D01*
X128897937Y-107403717D01*
X128897936Y-107403719D01*
X128845988Y-107505673D01*
X128840281Y-107516874D01*
X128838877Y-107516159D01*
X128808191Y-107558395D01*
X128750001Y-107577303D01*
X128691810Y-107558396D01*
X128661123Y-107516159D01*
X128659719Y-107516874D01*
X128602064Y-107403719D01*
X128602063Y-107403717D01*
X128598528Y-107396780D01*
X128503220Y-107301472D01*
X128496283Y-107297937D01*
X128496281Y-107297936D01*
X128390066Y-107243817D01*
X128390065Y-107243817D01*
X128383126Y-107240281D01*
X128375432Y-107239062D01*
X128375431Y-107239062D01*
X128257696Y-107220415D01*
X128250000Y-107219196D01*
X128242304Y-107220415D01*
X128124569Y-107239062D01*
X128124568Y-107239062D01*
X128116874Y-107240281D01*
X128109935Y-107243817D01*
X128109934Y-107243817D01*
X128003719Y-107297936D01*
X128003717Y-107297937D01*
X127996780Y-107301472D01*
X127901472Y-107396780D01*
X127897937Y-107403717D01*
X127897936Y-107403719D01*
X127845988Y-107505673D01*
X127840281Y-107516874D01*
X127838877Y-107516159D01*
X127808191Y-107558395D01*
X127750001Y-107577303D01*
X127691810Y-107558396D01*
X127661123Y-107516159D01*
X127659719Y-107516874D01*
X127602064Y-107403719D01*
X127602063Y-107403717D01*
X127598528Y-107396780D01*
X127503220Y-107301472D01*
X127496283Y-107297937D01*
X127496281Y-107297936D01*
X127390066Y-107243817D01*
X127390065Y-107243817D01*
X127383126Y-107240281D01*
X127375432Y-107239062D01*
X127375431Y-107239062D01*
X127257696Y-107220415D01*
X127250000Y-107219196D01*
X127242304Y-107220415D01*
X127124569Y-107239062D01*
X127124568Y-107239062D01*
X127116874Y-107240281D01*
X127109935Y-107243817D01*
X127109934Y-107243817D01*
X127003719Y-107297936D01*
X127003717Y-107297937D01*
X126996780Y-107301472D01*
X126901472Y-107396780D01*
X126897937Y-107403717D01*
X126897936Y-107403719D01*
X126845988Y-107505673D01*
X126840281Y-107516874D01*
X126838877Y-107516159D01*
X126808191Y-107558395D01*
X126750001Y-107577303D01*
X126691810Y-107558396D01*
X126661123Y-107516159D01*
X126659719Y-107516874D01*
X126602064Y-107403719D01*
X126602063Y-107403717D01*
X126598528Y-107396780D01*
X126503220Y-107301472D01*
X126496283Y-107297937D01*
X126496281Y-107297936D01*
X126390066Y-107243817D01*
X126390065Y-107243817D01*
X126383126Y-107240281D01*
X126375432Y-107239062D01*
X126375431Y-107239062D01*
X126257696Y-107220415D01*
X126250000Y-107219196D01*
X126242304Y-107220415D01*
X126124569Y-107239062D01*
X126124568Y-107239062D01*
X126116874Y-107240281D01*
X126109935Y-107243817D01*
X126109934Y-107243817D01*
X126003719Y-107297936D01*
X126003717Y-107297937D01*
X125996780Y-107301472D01*
X125901472Y-107396780D01*
X125897937Y-107403717D01*
X125897936Y-107403719D01*
X125845988Y-107505673D01*
X125840281Y-107516874D01*
X125839062Y-107524568D01*
X125839062Y-107524569D01*
X125830710Y-107577303D01*
X125819196Y-107650000D01*
X116500414Y-107650000D01*
X116502585Y-107645739D01*
X116502585Y-107645738D01*
X116506121Y-107638799D01*
X116516336Y-107574307D01*
X116525987Y-107513369D01*
X116527206Y-107505673D01*
X116524222Y-107486830D01*
X116533794Y-107426398D01*
X116577059Y-107383134D01*
X116606518Y-107373563D01*
X116623219Y-107370918D01*
X116623220Y-107370918D01*
X116630915Y-107369699D01*
X116716493Y-107326095D01*
X116744070Y-107312044D01*
X116744072Y-107312043D01*
X116751009Y-107308508D01*
X116846317Y-107213200D01*
X116874879Y-107157145D01*
X116903972Y-107100046D01*
X116903972Y-107100045D01*
X116907508Y-107093106D01*
X116928593Y-106959980D01*
X116928304Y-106958158D01*
X116946281Y-106902831D01*
X116995781Y-106866867D01*
X117010886Y-106863242D01*
X117017732Y-106862157D01*
X117025431Y-106860938D01*
X117025432Y-106860938D01*
X117033126Y-106859719D01*
X117094501Y-106828447D01*
X117146281Y-106802064D01*
X117146283Y-106802063D01*
X117153220Y-106798528D01*
X117248528Y-106703220D01*
X117275804Y-106649689D01*
X117306183Y-106590066D01*
X117306183Y-106590065D01*
X117309719Y-106583126D01*
X117315118Y-106549042D01*
X117329585Y-106457696D01*
X117330804Y-106450000D01*
X117312293Y-106333126D01*
X117310938Y-106324569D01*
X117310938Y-106324568D01*
X117309719Y-106316874D01*
X117248528Y-106196780D01*
X117153220Y-106101472D01*
X117146283Y-106097937D01*
X117146281Y-106097936D01*
X117040066Y-106043817D01*
X117040065Y-106043817D01*
X117033126Y-106040281D01*
X117025432Y-106039062D01*
X117025431Y-106039062D01*
X116907696Y-106020415D01*
X116900000Y-106019196D01*
X116892304Y-106020415D01*
X116774569Y-106039062D01*
X116774568Y-106039062D01*
X116766874Y-106040281D01*
X116759935Y-106043817D01*
X116759934Y-106043817D01*
X116653719Y-106097936D01*
X116653717Y-106097937D01*
X116646780Y-106101472D01*
X116551472Y-106196780D01*
X116490281Y-106316874D01*
X116489062Y-106324568D01*
X116489062Y-106324569D01*
X116487707Y-106333126D01*
X116469196Y-106450000D01*
X116469485Y-106451822D01*
X116451508Y-106507149D01*
X116402008Y-106543113D01*
X116386903Y-106546738D01*
X116380057Y-106547823D01*
X116372358Y-106549042D01*
X116372357Y-106549042D01*
X116364663Y-106550261D01*
X116357724Y-106553797D01*
X116357723Y-106553797D01*
X116251508Y-106607916D01*
X116251506Y-106607917D01*
X116244569Y-106611452D01*
X116149261Y-106706760D01*
X116088070Y-106826854D01*
X116086851Y-106834548D01*
X116086851Y-106834549D01*
X116079918Y-106878324D01*
X116066985Y-106959980D01*
X116068204Y-106967676D01*
X116068204Y-106967678D01*
X116069969Y-106978823D01*
X116060397Y-107039255D01*
X116017132Y-107082519D01*
X115987673Y-107092090D01*
X115970972Y-107094735D01*
X115970971Y-107094735D01*
X115963276Y-107095954D01*
X115956337Y-107099490D01*
X115956336Y-107099490D01*
X115850121Y-107153609D01*
X115850119Y-107153610D01*
X115843182Y-107157145D01*
X115747874Y-107252453D01*
X115744339Y-107259390D01*
X115744338Y-107259392D01*
X115714157Y-107318626D01*
X115686683Y-107372547D01*
X115665598Y-107505673D01*
X115666817Y-107513369D01*
X115672920Y-107551902D01*
X115663349Y-107612334D01*
X115620084Y-107655599D01*
X115605730Y-107661544D01*
X115600333Y-107663297D01*
X115592639Y-107664516D01*
X115585700Y-107668052D01*
X115585699Y-107668052D01*
X115479484Y-107722171D01*
X115479482Y-107722172D01*
X115472545Y-107725707D01*
X115377237Y-107821015D01*
X115316046Y-107941109D01*
X115294961Y-108074235D01*
X113341475Y-108074235D01*
X113425431Y-108060938D01*
X113425432Y-108060938D01*
X113433126Y-108059719D01*
X113440066Y-108056183D01*
X113546281Y-108002064D01*
X113546283Y-108002063D01*
X113553220Y-107998528D01*
X113648528Y-107903220D01*
X113673505Y-107854201D01*
X113706183Y-107790066D01*
X113706183Y-107790065D01*
X113709719Y-107783126D01*
X113712655Y-107764592D01*
X113729585Y-107657696D01*
X113730804Y-107650000D01*
X113719290Y-107577303D01*
X113710938Y-107524569D01*
X113710938Y-107524568D01*
X113709719Y-107516874D01*
X113704012Y-107505673D01*
X113652064Y-107403719D01*
X113652063Y-107403717D01*
X113648528Y-107396780D01*
X113553220Y-107301472D01*
X113546283Y-107297937D01*
X113546281Y-107297936D01*
X113440066Y-107243817D01*
X113440065Y-107243817D01*
X113433126Y-107240281D01*
X113425432Y-107239062D01*
X113425431Y-107239062D01*
X113307696Y-107220415D01*
X113300000Y-107219196D01*
X113292304Y-107220415D01*
X113174569Y-107239062D01*
X113174568Y-107239062D01*
X113166874Y-107240281D01*
X113159935Y-107243817D01*
X113159934Y-107243817D01*
X113053719Y-107297936D01*
X113053717Y-107297937D01*
X113046780Y-107301472D01*
X112951472Y-107396780D01*
X112947937Y-107403717D01*
X112947936Y-107403719D01*
X112895988Y-107505673D01*
X112890281Y-107516874D01*
X112889062Y-107524568D01*
X112889062Y-107524569D01*
X112880710Y-107577303D01*
X112869196Y-107650000D01*
X107352226Y-107650000D01*
X107315582Y-107607472D01*
X107287005Y-107574307D01*
X107287004Y-107574306D01*
X107282400Y-107568963D01*
X107162095Y-107490985D01*
X107024739Y-107449907D01*
X106941497Y-107449398D01*
X106888427Y-107449074D01*
X106888426Y-107449074D01*
X106881376Y-107449031D01*
X106874599Y-107450968D01*
X106874598Y-107450968D01*
X106750309Y-107486490D01*
X106750307Y-107486491D01*
X106743529Y-107488428D01*
X106622280Y-107564930D01*
X106617613Y-107570214D01*
X106617611Y-107570216D01*
X106532044Y-107667103D01*
X106532042Y-107667105D01*
X106527377Y-107672388D01*
X106466447Y-107802163D01*
X106465362Y-107809132D01*
X106465361Y-107809135D01*
X106462431Y-107827954D01*
X106444391Y-107943823D01*
X103350744Y-107943823D01*
X103335063Y-107764592D01*
X103273903Y-107536337D01*
X103174035Y-107322171D01*
X103159542Y-107301472D01*
X103040974Y-107132140D01*
X103038495Y-107128599D01*
X102871401Y-106961505D01*
X102720985Y-106856183D01*
X102681374Y-106828447D01*
X102681372Y-106828446D01*
X102677829Y-106825965D01*
X102463663Y-106726097D01*
X102235408Y-106664937D01*
X102150569Y-106657514D01*
X102061130Y-106649689D01*
X102061122Y-106649689D01*
X102058966Y-106649500D01*
X101941034Y-106649500D01*
X101938878Y-106649689D01*
X101938870Y-106649689D01*
X101849431Y-106657514D01*
X101764592Y-106664937D01*
X101536337Y-106726097D01*
X101322171Y-106825965D01*
X101318628Y-106828446D01*
X101318626Y-106828447D01*
X101279015Y-106856183D01*
X101128599Y-106961505D01*
X100961505Y-107128599D01*
X100902267Y-107213200D01*
X100828447Y-107318625D01*
X100828446Y-107318627D01*
X100825965Y-107322170D01*
X100726097Y-107536337D01*
X100664937Y-107764592D01*
X100644341Y-108000000D01*
X100200500Y-108000000D01*
X100200500Y-106200000D01*
X110669196Y-106200000D01*
X110670415Y-106207696D01*
X110688926Y-106324569D01*
X110690281Y-106333126D01*
X110751472Y-106453220D01*
X110846780Y-106548528D01*
X110853717Y-106552063D01*
X110853719Y-106552064D01*
X110959934Y-106606183D01*
X110966874Y-106609719D01*
X110974568Y-106610938D01*
X110974569Y-106610938D01*
X111092304Y-106629585D01*
X111100000Y-106630804D01*
X111107696Y-106629585D01*
X111225431Y-106610938D01*
X111225432Y-106610938D01*
X111233126Y-106609719D01*
X111240066Y-106606183D01*
X111346281Y-106552064D01*
X111346283Y-106552063D01*
X111353220Y-106548528D01*
X111448528Y-106453220D01*
X111509719Y-106333126D01*
X111511075Y-106324569D01*
X111529585Y-106207696D01*
X111530804Y-106200000D01*
X111509719Y-106066874D01*
X111448528Y-105946780D01*
X111353220Y-105851472D01*
X111346283Y-105847937D01*
X111346281Y-105847936D01*
X111252201Y-105800000D01*
X121119196Y-105800000D01*
X121120415Y-105807696D01*
X121136014Y-105906183D01*
X121140281Y-105933126D01*
X121201472Y-106053220D01*
X121296780Y-106148528D01*
X121303717Y-106152063D01*
X121303719Y-106152064D01*
X121397799Y-106200000D01*
X121416874Y-106209719D01*
X121424568Y-106210938D01*
X121424569Y-106210938D01*
X121542304Y-106229585D01*
X121550000Y-106230804D01*
X121557696Y-106229585D01*
X121675431Y-106210938D01*
X121675432Y-106210938D01*
X121683126Y-106209719D01*
X121702201Y-106200000D01*
X121796281Y-106152064D01*
X121796283Y-106152063D01*
X121803220Y-106148528D01*
X121898528Y-106053220D01*
X121959719Y-105933126D01*
X121963987Y-105906183D01*
X121979585Y-105807696D01*
X121980804Y-105800000D01*
X121959719Y-105666874D01*
X121938603Y-105625431D01*
X121902064Y-105553719D01*
X121902063Y-105553717D01*
X121898528Y-105546780D01*
X121851748Y-105500000D01*
X126319196Y-105500000D01*
X126320415Y-105507696D01*
X126333705Y-105591604D01*
X126340281Y-105633126D01*
X126401472Y-105753220D01*
X126496780Y-105848528D01*
X126503717Y-105852063D01*
X126503719Y-105852064D01*
X126609934Y-105906183D01*
X126616874Y-105909719D01*
X126624568Y-105910938D01*
X126624569Y-105910938D01*
X126742304Y-105929585D01*
X126750000Y-105930804D01*
X126757696Y-105929585D01*
X126875431Y-105910938D01*
X126875432Y-105910938D01*
X126883126Y-105909719D01*
X126890066Y-105906183D01*
X126996281Y-105852064D01*
X126996283Y-105852063D01*
X127003220Y-105848528D01*
X127098528Y-105753220D01*
X127159719Y-105633126D01*
X127161123Y-105633841D01*
X127191809Y-105591605D01*
X127249999Y-105572697D01*
X127308190Y-105591604D01*
X127338877Y-105633841D01*
X127340281Y-105633126D01*
X127401472Y-105753220D01*
X127496780Y-105848528D01*
X127503717Y-105852063D01*
X127503719Y-105852064D01*
X127609934Y-105906183D01*
X127616874Y-105909719D01*
X127624568Y-105910938D01*
X127624569Y-105910938D01*
X127742304Y-105929585D01*
X127750000Y-105930804D01*
X127757696Y-105929585D01*
X127875431Y-105910938D01*
X127875432Y-105910938D01*
X127883126Y-105909719D01*
X127890066Y-105906183D01*
X127996281Y-105852064D01*
X127996283Y-105852063D01*
X128003220Y-105848528D01*
X128098528Y-105753220D01*
X128159719Y-105633126D01*
X128161123Y-105633841D01*
X128191809Y-105591605D01*
X128249999Y-105572697D01*
X128308190Y-105591604D01*
X128338877Y-105633841D01*
X128340281Y-105633126D01*
X128401472Y-105753220D01*
X128496780Y-105848528D01*
X128503717Y-105852063D01*
X128503719Y-105852064D01*
X128609934Y-105906183D01*
X128616874Y-105909719D01*
X128624568Y-105910938D01*
X128624569Y-105910938D01*
X128742304Y-105929585D01*
X128750000Y-105930804D01*
X128757696Y-105929585D01*
X128875431Y-105910938D01*
X128875432Y-105910938D01*
X128883126Y-105909719D01*
X128890066Y-105906183D01*
X128996281Y-105852064D01*
X128996283Y-105852063D01*
X129003220Y-105848528D01*
X129098528Y-105753220D01*
X129159719Y-105633126D01*
X129166296Y-105591604D01*
X129179585Y-105507696D01*
X129180804Y-105500000D01*
X137319196Y-105500000D01*
X137320415Y-105507696D01*
X137333705Y-105591604D01*
X137340281Y-105633126D01*
X137401472Y-105753220D01*
X137496780Y-105848528D01*
X137503717Y-105852063D01*
X137503719Y-105852064D01*
X137609934Y-105906183D01*
X137616874Y-105909719D01*
X137624568Y-105910938D01*
X137624569Y-105910938D01*
X137742304Y-105929585D01*
X137750000Y-105930804D01*
X137757696Y-105929585D01*
X137875431Y-105910938D01*
X137875432Y-105910938D01*
X137883126Y-105909719D01*
X137890066Y-105906183D01*
X137996281Y-105852064D01*
X137996283Y-105852063D01*
X138003220Y-105848528D01*
X138098528Y-105753220D01*
X138159719Y-105633126D01*
X138161123Y-105633841D01*
X138191809Y-105591605D01*
X138249999Y-105572697D01*
X138308190Y-105591604D01*
X138338877Y-105633841D01*
X138340281Y-105633126D01*
X138401472Y-105753220D01*
X138496780Y-105848528D01*
X138503717Y-105852063D01*
X138503719Y-105852064D01*
X138609934Y-105906183D01*
X138616874Y-105909719D01*
X138624568Y-105910938D01*
X138624569Y-105910938D01*
X138742304Y-105929585D01*
X138750000Y-105930804D01*
X138757696Y-105929585D01*
X138875431Y-105910938D01*
X138875432Y-105910938D01*
X138883126Y-105909719D01*
X138890066Y-105906183D01*
X138996281Y-105852064D01*
X138996283Y-105852063D01*
X139003220Y-105848528D01*
X139098528Y-105753220D01*
X139159719Y-105633126D01*
X139161123Y-105633841D01*
X139191809Y-105591605D01*
X139249999Y-105572697D01*
X139308190Y-105591604D01*
X139338877Y-105633841D01*
X139340281Y-105633126D01*
X139401472Y-105753220D01*
X139496780Y-105848528D01*
X139503717Y-105852063D01*
X139503719Y-105852064D01*
X139609934Y-105906183D01*
X139616874Y-105909719D01*
X139624568Y-105910938D01*
X139624569Y-105910938D01*
X139742304Y-105929585D01*
X139750000Y-105930804D01*
X139757696Y-105929585D01*
X139875431Y-105910938D01*
X139875432Y-105910938D01*
X139883126Y-105909719D01*
X139890066Y-105906183D01*
X139996281Y-105852064D01*
X139996283Y-105852063D01*
X140003220Y-105848528D01*
X140098528Y-105753220D01*
X140159719Y-105633126D01*
X140166296Y-105591604D01*
X140179585Y-105507696D01*
X140180804Y-105500000D01*
X140169290Y-105427303D01*
X140160938Y-105374569D01*
X140160938Y-105374568D01*
X140159719Y-105366874D01*
X140156183Y-105359934D01*
X140102064Y-105253719D01*
X140102063Y-105253717D01*
X140098528Y-105246780D01*
X140003220Y-105151472D01*
X139996283Y-105147937D01*
X139996281Y-105147936D01*
X139890066Y-105093817D01*
X139890065Y-105093817D01*
X139883126Y-105090281D01*
X139875432Y-105089062D01*
X139875431Y-105089062D01*
X139757696Y-105070415D01*
X139750000Y-105069196D01*
X139742304Y-105070415D01*
X139624569Y-105089062D01*
X139624568Y-105089062D01*
X139616874Y-105090281D01*
X139609935Y-105093817D01*
X139609934Y-105093817D01*
X139503719Y-105147936D01*
X139503717Y-105147937D01*
X139496780Y-105151472D01*
X139401472Y-105246780D01*
X139397937Y-105253717D01*
X139397936Y-105253719D01*
X139343817Y-105359934D01*
X139340281Y-105366874D01*
X139338877Y-105366159D01*
X139308191Y-105408395D01*
X139250001Y-105427303D01*
X139191810Y-105408396D01*
X139161123Y-105366159D01*
X139159719Y-105366874D01*
X139102064Y-105253719D01*
X139102063Y-105253717D01*
X139098528Y-105246780D01*
X139003220Y-105151472D01*
X138996283Y-105147937D01*
X138996281Y-105147936D01*
X138890066Y-105093817D01*
X138890065Y-105093817D01*
X138883126Y-105090281D01*
X138875432Y-105089062D01*
X138875431Y-105089062D01*
X138757696Y-105070415D01*
X138750000Y-105069196D01*
X138742304Y-105070415D01*
X138624569Y-105089062D01*
X138624568Y-105089062D01*
X138616874Y-105090281D01*
X138609935Y-105093817D01*
X138609934Y-105093817D01*
X138503719Y-105147936D01*
X138503717Y-105147937D01*
X138496780Y-105151472D01*
X138401472Y-105246780D01*
X138397937Y-105253717D01*
X138397936Y-105253719D01*
X138343817Y-105359934D01*
X138340281Y-105366874D01*
X138338877Y-105366159D01*
X138308191Y-105408395D01*
X138250001Y-105427303D01*
X138191810Y-105408396D01*
X138161123Y-105366159D01*
X138159719Y-105366874D01*
X138102064Y-105253719D01*
X138102063Y-105253717D01*
X138098528Y-105246780D01*
X138003220Y-105151472D01*
X137996283Y-105147937D01*
X137996281Y-105147936D01*
X137890066Y-105093817D01*
X137890065Y-105093817D01*
X137883126Y-105090281D01*
X137875432Y-105089062D01*
X137875431Y-105089062D01*
X137757696Y-105070415D01*
X137750000Y-105069196D01*
X137742304Y-105070415D01*
X137624569Y-105089062D01*
X137624568Y-105089062D01*
X137616874Y-105090281D01*
X137609935Y-105093817D01*
X137609934Y-105093817D01*
X137503719Y-105147936D01*
X137503717Y-105147937D01*
X137496780Y-105151472D01*
X137401472Y-105246780D01*
X137397937Y-105253717D01*
X137397936Y-105253719D01*
X137343817Y-105359934D01*
X137340281Y-105366874D01*
X137339062Y-105374568D01*
X137339062Y-105374569D01*
X137330710Y-105427303D01*
X137319196Y-105500000D01*
X129180804Y-105500000D01*
X129169290Y-105427303D01*
X129160938Y-105374569D01*
X129160938Y-105374568D01*
X129159719Y-105366874D01*
X129156183Y-105359934D01*
X129102064Y-105253719D01*
X129102063Y-105253717D01*
X129098528Y-105246780D01*
X129003220Y-105151472D01*
X128996283Y-105147937D01*
X128996281Y-105147936D01*
X128890066Y-105093817D01*
X128890065Y-105093817D01*
X128883126Y-105090281D01*
X128875432Y-105089062D01*
X128875431Y-105089062D01*
X128757696Y-105070415D01*
X128750000Y-105069196D01*
X128742304Y-105070415D01*
X128624569Y-105089062D01*
X128624568Y-105089062D01*
X128616874Y-105090281D01*
X128609935Y-105093817D01*
X128609934Y-105093817D01*
X128503719Y-105147936D01*
X128503717Y-105147937D01*
X128496780Y-105151472D01*
X128401472Y-105246780D01*
X128397937Y-105253717D01*
X128397936Y-105253719D01*
X128343817Y-105359934D01*
X128340281Y-105366874D01*
X128338877Y-105366159D01*
X128308191Y-105408395D01*
X128250001Y-105427303D01*
X128191810Y-105408396D01*
X128161123Y-105366159D01*
X128159719Y-105366874D01*
X128102064Y-105253719D01*
X128102063Y-105253717D01*
X128098528Y-105246780D01*
X128003220Y-105151472D01*
X127996283Y-105147937D01*
X127996281Y-105147936D01*
X127890066Y-105093817D01*
X127890065Y-105093817D01*
X127883126Y-105090281D01*
X127875432Y-105089062D01*
X127875431Y-105089062D01*
X127757696Y-105070415D01*
X127750000Y-105069196D01*
X127742304Y-105070415D01*
X127624569Y-105089062D01*
X127624568Y-105089062D01*
X127616874Y-105090281D01*
X127609935Y-105093817D01*
X127609934Y-105093817D01*
X127503719Y-105147936D01*
X127503717Y-105147937D01*
X127496780Y-105151472D01*
X127401472Y-105246780D01*
X127397937Y-105253717D01*
X127397936Y-105253719D01*
X127343817Y-105359934D01*
X127340281Y-105366874D01*
X127338877Y-105366159D01*
X127308191Y-105408395D01*
X127250001Y-105427303D01*
X127191810Y-105408396D01*
X127161123Y-105366159D01*
X127159719Y-105366874D01*
X127102064Y-105253719D01*
X127102063Y-105253717D01*
X127098528Y-105246780D01*
X127003220Y-105151472D01*
X126996283Y-105147937D01*
X126996281Y-105147936D01*
X126890066Y-105093817D01*
X126890065Y-105093817D01*
X126883126Y-105090281D01*
X126875432Y-105089062D01*
X126875431Y-105089062D01*
X126757696Y-105070415D01*
X126750000Y-105069196D01*
X126742304Y-105070415D01*
X126624569Y-105089062D01*
X126624568Y-105089062D01*
X126616874Y-105090281D01*
X126609935Y-105093817D01*
X126609934Y-105093817D01*
X126503719Y-105147936D01*
X126503717Y-105147937D01*
X126496780Y-105151472D01*
X126401472Y-105246780D01*
X126397937Y-105253717D01*
X126397936Y-105253719D01*
X126343817Y-105359934D01*
X126340281Y-105366874D01*
X126339062Y-105374568D01*
X126339062Y-105374569D01*
X126330710Y-105427303D01*
X126319196Y-105500000D01*
X121851748Y-105500000D01*
X121803220Y-105451472D01*
X121796283Y-105447937D01*
X121796281Y-105447936D01*
X121690066Y-105393817D01*
X121690065Y-105393817D01*
X121683126Y-105390281D01*
X121675432Y-105389062D01*
X121675431Y-105389062D01*
X121557696Y-105370415D01*
X121550000Y-105369196D01*
X121542304Y-105370415D01*
X121424569Y-105389062D01*
X121424568Y-105389062D01*
X121416874Y-105390281D01*
X121409935Y-105393817D01*
X121409934Y-105393817D01*
X121303719Y-105447936D01*
X121303717Y-105447937D01*
X121296780Y-105451472D01*
X121201472Y-105546780D01*
X121197937Y-105553717D01*
X121197936Y-105553719D01*
X121161397Y-105625431D01*
X121140281Y-105666874D01*
X121119196Y-105800000D01*
X111252201Y-105800000D01*
X111240066Y-105793817D01*
X111240065Y-105793817D01*
X111233126Y-105790281D01*
X111225432Y-105789062D01*
X111225431Y-105789062D01*
X111107696Y-105770415D01*
X111100000Y-105769196D01*
X111092304Y-105770415D01*
X110974569Y-105789062D01*
X110974568Y-105789062D01*
X110966874Y-105790281D01*
X110959935Y-105793817D01*
X110959934Y-105793817D01*
X110853719Y-105847936D01*
X110853717Y-105847937D01*
X110846780Y-105851472D01*
X110751472Y-105946780D01*
X110690281Y-106066874D01*
X110669196Y-106200000D01*
X100200500Y-106200000D01*
X100200500Y-104900000D01*
X109519196Y-104900000D01*
X109540281Y-105033126D01*
X109543817Y-105040065D01*
X109543817Y-105040066D01*
X109596276Y-105143022D01*
X109601472Y-105153220D01*
X109696780Y-105248528D01*
X109703717Y-105252063D01*
X109703719Y-105252064D01*
X109809934Y-105306183D01*
X109816874Y-105309719D01*
X109824568Y-105310938D01*
X109824569Y-105310938D01*
X109942304Y-105329585D01*
X109950000Y-105330804D01*
X109957696Y-105329585D01*
X110075431Y-105310938D01*
X110075432Y-105310938D01*
X110083126Y-105309719D01*
X110090066Y-105306183D01*
X110196281Y-105252064D01*
X110196283Y-105252063D01*
X110203220Y-105248528D01*
X110298528Y-105153220D01*
X110303725Y-105143022D01*
X110356183Y-105040066D01*
X110356183Y-105040065D01*
X110359719Y-105033126D01*
X110380804Y-104900000D01*
X110364966Y-104800000D01*
X113619196Y-104800000D01*
X113640281Y-104933126D01*
X113643817Y-104940065D01*
X113643817Y-104940066D01*
X113694770Y-105040066D01*
X113701472Y-105053220D01*
X113796780Y-105148528D01*
X113803717Y-105152063D01*
X113803719Y-105152064D01*
X113909934Y-105206183D01*
X113916874Y-105209719D01*
X113924568Y-105210938D01*
X113924569Y-105210938D01*
X114042304Y-105229585D01*
X114050000Y-105230804D01*
X114057696Y-105229585D01*
X114175431Y-105210938D01*
X114175432Y-105210938D01*
X114183126Y-105209719D01*
X114190066Y-105206183D01*
X114296281Y-105152064D01*
X114296283Y-105152063D01*
X114303220Y-105148528D01*
X114398528Y-105053220D01*
X114405231Y-105040066D01*
X114456183Y-104940066D01*
X114456183Y-104940065D01*
X114459719Y-104933126D01*
X114480804Y-104800000D01*
X114459719Y-104666874D01*
X114446675Y-104641274D01*
X114402064Y-104553719D01*
X114402063Y-104553717D01*
X114398528Y-104546780D01*
X114303220Y-104451472D01*
X114296283Y-104447937D01*
X114296281Y-104447936D01*
X114190066Y-104393817D01*
X114190065Y-104393817D01*
X114183126Y-104390281D01*
X114175432Y-104389062D01*
X114175431Y-104389062D01*
X114057696Y-104370415D01*
X114050000Y-104369196D01*
X114042304Y-104370415D01*
X113924569Y-104389062D01*
X113924568Y-104389062D01*
X113916874Y-104390281D01*
X113909935Y-104393817D01*
X113909934Y-104393817D01*
X113803719Y-104447936D01*
X113803717Y-104447937D01*
X113796780Y-104451472D01*
X113701472Y-104546780D01*
X113697937Y-104553717D01*
X113697936Y-104553719D01*
X113653325Y-104641274D01*
X113640281Y-104666874D01*
X113619196Y-104800000D01*
X110364966Y-104800000D01*
X110359719Y-104766874D01*
X110356183Y-104759934D01*
X110302064Y-104653719D01*
X110302063Y-104653717D01*
X110298528Y-104646780D01*
X110203220Y-104551472D01*
X110196283Y-104547937D01*
X110196281Y-104547936D01*
X110090066Y-104493817D01*
X110090065Y-104493817D01*
X110083126Y-104490281D01*
X110075432Y-104489062D01*
X110075431Y-104489062D01*
X109957696Y-104470415D01*
X109950000Y-104469196D01*
X109942304Y-104470415D01*
X109824569Y-104489062D01*
X109824568Y-104489062D01*
X109816874Y-104490281D01*
X109809935Y-104493817D01*
X109809934Y-104493817D01*
X109703719Y-104547936D01*
X109703717Y-104547937D01*
X109696780Y-104551472D01*
X109601472Y-104646780D01*
X109597937Y-104653717D01*
X109597936Y-104653719D01*
X109543817Y-104759934D01*
X109540281Y-104766874D01*
X109519196Y-104900000D01*
X100200500Y-104900000D01*
X100200500Y-103750000D01*
X116269196Y-103750000D01*
X116270415Y-103757696D01*
X116288926Y-103874569D01*
X116290281Y-103883126D01*
X116293817Y-103890065D01*
X116293817Y-103890066D01*
X116336874Y-103974569D01*
X116351472Y-104003220D01*
X116446780Y-104098528D01*
X116453717Y-104102063D01*
X116453719Y-104102064D01*
X116559934Y-104156183D01*
X116566874Y-104159719D01*
X116574568Y-104160938D01*
X116574569Y-104160938D01*
X116692304Y-104179585D01*
X116700000Y-104180804D01*
X116707696Y-104179585D01*
X116825431Y-104160938D01*
X116825432Y-104160938D01*
X116833126Y-104159719D01*
X116840066Y-104156183D01*
X116946281Y-104102064D01*
X116946283Y-104102063D01*
X116953220Y-104098528D01*
X116979996Y-104071752D01*
X117034513Y-104043975D01*
X117094945Y-104053546D01*
X117120004Y-104071752D01*
X117146780Y-104098528D01*
X117153717Y-104102063D01*
X117153719Y-104102064D01*
X117259934Y-104156183D01*
X117266874Y-104159719D01*
X117274568Y-104160938D01*
X117274569Y-104160938D01*
X117392304Y-104179585D01*
X117400000Y-104180804D01*
X117407696Y-104179585D01*
X117525431Y-104160938D01*
X117525432Y-104160938D01*
X117533126Y-104159719D01*
X117540066Y-104156183D01*
X117646281Y-104102064D01*
X117646283Y-104102063D01*
X117653220Y-104098528D01*
X117748528Y-104003220D01*
X117763127Y-103974569D01*
X117806183Y-103890066D01*
X117806183Y-103890065D01*
X117809719Y-103883126D01*
X117811075Y-103874569D01*
X117829585Y-103757696D01*
X117830804Y-103750000D01*
X117821596Y-103691862D01*
X117820377Y-103684166D01*
X118112252Y-103684166D01*
X118133337Y-103817292D01*
X118136873Y-103824231D01*
X118136873Y-103824232D01*
X118176531Y-103902064D01*
X118194528Y-103937386D01*
X118289836Y-104032694D01*
X118296773Y-104036229D01*
X118296775Y-104036230D01*
X118372020Y-104074569D01*
X118409930Y-104093885D01*
X118417624Y-104095104D01*
X118417625Y-104095104D01*
X118535360Y-104113751D01*
X118543056Y-104114970D01*
X118550752Y-104113751D01*
X118668487Y-104095104D01*
X118668488Y-104095104D01*
X118676182Y-104093885D01*
X118714092Y-104074569D01*
X118789337Y-104036230D01*
X118789339Y-104036229D01*
X118796276Y-104032694D01*
X118828970Y-104000000D01*
X119369196Y-104000000D01*
X119370415Y-104007696D01*
X119381007Y-104074569D01*
X119390281Y-104133126D01*
X119393817Y-104140065D01*
X119393817Y-104140066D01*
X119444770Y-104240066D01*
X119451472Y-104253220D01*
X119546780Y-104348528D01*
X119553717Y-104352063D01*
X119553719Y-104352064D01*
X119659934Y-104406183D01*
X119666874Y-104409719D01*
X119674568Y-104410938D01*
X119674569Y-104410938D01*
X119792304Y-104429585D01*
X119800000Y-104430804D01*
X119807696Y-104429585D01*
X119925431Y-104410938D01*
X119925432Y-104410938D01*
X119933126Y-104409719D01*
X119940066Y-104406183D01*
X120046281Y-104352064D01*
X120046283Y-104352063D01*
X120053220Y-104348528D01*
X120148528Y-104253220D01*
X120155231Y-104240066D01*
X120206183Y-104140066D01*
X120206183Y-104140065D01*
X120209719Y-104133126D01*
X120214966Y-104100000D01*
X133119196Y-104100000D01*
X133120415Y-104107696D01*
X133128655Y-104159719D01*
X133140281Y-104233126D01*
X133143817Y-104240065D01*
X133143817Y-104240066D01*
X133196276Y-104343022D01*
X133201472Y-104353220D01*
X133296780Y-104448528D01*
X133303717Y-104452063D01*
X133303719Y-104452064D01*
X133409934Y-104506183D01*
X133416874Y-104509719D01*
X133424568Y-104510938D01*
X133424569Y-104510938D01*
X133542304Y-104529585D01*
X133550000Y-104530804D01*
X133557696Y-104529585D01*
X133675431Y-104510938D01*
X133675432Y-104510938D01*
X133683126Y-104509719D01*
X133690066Y-104506183D01*
X133796281Y-104452064D01*
X133796283Y-104452063D01*
X133803220Y-104448528D01*
X133898528Y-104353220D01*
X133903725Y-104343022D01*
X133956183Y-104240066D01*
X133956183Y-104240065D01*
X133959719Y-104233126D01*
X133964966Y-104200000D01*
X136119196Y-104200000D01*
X136140281Y-104333126D01*
X136143817Y-104340065D01*
X136143817Y-104340066D01*
X136196276Y-104443022D01*
X136201472Y-104453220D01*
X136296780Y-104548528D01*
X136303717Y-104552063D01*
X136303719Y-104552064D01*
X136409934Y-104606183D01*
X136416874Y-104609719D01*
X136424568Y-104610938D01*
X136424569Y-104610938D01*
X136542304Y-104629585D01*
X136550000Y-104630804D01*
X136557696Y-104629585D01*
X136675431Y-104610938D01*
X136675432Y-104610938D01*
X136683126Y-104609719D01*
X136690066Y-104606183D01*
X136796281Y-104552064D01*
X136796283Y-104552063D01*
X136803220Y-104548528D01*
X136898528Y-104453220D01*
X136903725Y-104443022D01*
X136956183Y-104340066D01*
X136956183Y-104340065D01*
X136959719Y-104333126D01*
X136980804Y-104200000D01*
X141369196Y-104200000D01*
X141390281Y-104333126D01*
X141393817Y-104340065D01*
X141393817Y-104340066D01*
X141446276Y-104443022D01*
X141451472Y-104453220D01*
X141546780Y-104548528D01*
X141553717Y-104552063D01*
X141553719Y-104552064D01*
X141659934Y-104606183D01*
X141666874Y-104609719D01*
X141674568Y-104610938D01*
X141674569Y-104610938D01*
X141792304Y-104629585D01*
X141800000Y-104630804D01*
X141807696Y-104629585D01*
X141925431Y-104610938D01*
X141925432Y-104610938D01*
X141933126Y-104609719D01*
X141940066Y-104606183D01*
X142046281Y-104552064D01*
X142046283Y-104552063D01*
X142053220Y-104548528D01*
X142148528Y-104453220D01*
X142153725Y-104443022D01*
X142206183Y-104340066D01*
X142206183Y-104340065D01*
X142209719Y-104333126D01*
X142230804Y-104200000D01*
X142220212Y-104133126D01*
X142210938Y-104074569D01*
X142210938Y-104074568D01*
X142209719Y-104066874D01*
X142202928Y-104053546D01*
X142152064Y-103953719D01*
X142152063Y-103953717D01*
X142148528Y-103946780D01*
X142053220Y-103851472D01*
X142046283Y-103847937D01*
X142046281Y-103847936D01*
X141940066Y-103793817D01*
X141940065Y-103793817D01*
X141933126Y-103790281D01*
X141925432Y-103789062D01*
X141925431Y-103789062D01*
X141807696Y-103770415D01*
X141800000Y-103769196D01*
X141792304Y-103770415D01*
X141674569Y-103789062D01*
X141674568Y-103789062D01*
X141666874Y-103790281D01*
X141659935Y-103793817D01*
X141659934Y-103793817D01*
X141553719Y-103847936D01*
X141553717Y-103847937D01*
X141546780Y-103851472D01*
X141451472Y-103946780D01*
X141447937Y-103953717D01*
X141447936Y-103953719D01*
X141397072Y-104053546D01*
X141390281Y-104066874D01*
X141389062Y-104074568D01*
X141389062Y-104074569D01*
X141379788Y-104133126D01*
X141369196Y-104200000D01*
X136980804Y-104200000D01*
X136970212Y-104133126D01*
X136960938Y-104074569D01*
X136960938Y-104074568D01*
X136959719Y-104066874D01*
X136952928Y-104053546D01*
X136902064Y-103953719D01*
X136902063Y-103953717D01*
X136898528Y-103946780D01*
X136803220Y-103851472D01*
X136796283Y-103847937D01*
X136796281Y-103847936D01*
X136690066Y-103793817D01*
X136690065Y-103793817D01*
X136683126Y-103790281D01*
X136675432Y-103789062D01*
X136675431Y-103789062D01*
X136557696Y-103770415D01*
X136550000Y-103769196D01*
X136542304Y-103770415D01*
X136424569Y-103789062D01*
X136424568Y-103789062D01*
X136416874Y-103790281D01*
X136409935Y-103793817D01*
X136409934Y-103793817D01*
X136303719Y-103847936D01*
X136303717Y-103847937D01*
X136296780Y-103851472D01*
X136201472Y-103946780D01*
X136197937Y-103953717D01*
X136197936Y-103953719D01*
X136147072Y-104053546D01*
X136140281Y-104066874D01*
X136139062Y-104074568D01*
X136139062Y-104074569D01*
X136129788Y-104133126D01*
X136119196Y-104200000D01*
X133964966Y-104200000D01*
X133971346Y-104159719D01*
X133979585Y-104107696D01*
X133980804Y-104100000D01*
X133963747Y-103992304D01*
X133960938Y-103974569D01*
X133960938Y-103974568D01*
X133959719Y-103966874D01*
X133924895Y-103898528D01*
X133902064Y-103853719D01*
X133902063Y-103853717D01*
X133898528Y-103846780D01*
X133803220Y-103751472D01*
X133796283Y-103747937D01*
X133796281Y-103747936D01*
X133690066Y-103693817D01*
X133690065Y-103693817D01*
X133683126Y-103690281D01*
X133675432Y-103689062D01*
X133675431Y-103689062D01*
X133557696Y-103670415D01*
X133550000Y-103669196D01*
X133542304Y-103670415D01*
X133424569Y-103689062D01*
X133424568Y-103689062D01*
X133416874Y-103690281D01*
X133409935Y-103693817D01*
X133409934Y-103693817D01*
X133303719Y-103747936D01*
X133303717Y-103747937D01*
X133296780Y-103751472D01*
X133201472Y-103846780D01*
X133197937Y-103853717D01*
X133197936Y-103853719D01*
X133175105Y-103898528D01*
X133140281Y-103966874D01*
X133139062Y-103974568D01*
X133139062Y-103974569D01*
X133136253Y-103992304D01*
X133119196Y-104100000D01*
X120214966Y-104100000D01*
X120218994Y-104074569D01*
X120229585Y-104007696D01*
X120230804Y-104000000D01*
X120215293Y-103902064D01*
X120210938Y-103874569D01*
X120210938Y-103874568D01*
X120209719Y-103866874D01*
X120158637Y-103766620D01*
X120152064Y-103753719D01*
X120152063Y-103753717D01*
X120148528Y-103746780D01*
X120053220Y-103651472D01*
X120046283Y-103647937D01*
X120046281Y-103647936D01*
X119940066Y-103593817D01*
X119940065Y-103593817D01*
X119933126Y-103590281D01*
X119925432Y-103589062D01*
X119925431Y-103589062D01*
X119807696Y-103570415D01*
X119800000Y-103569196D01*
X119792304Y-103570415D01*
X119674569Y-103589062D01*
X119674568Y-103589062D01*
X119666874Y-103590281D01*
X119659935Y-103593817D01*
X119659934Y-103593817D01*
X119553719Y-103647936D01*
X119553717Y-103647937D01*
X119546780Y-103651472D01*
X119451472Y-103746780D01*
X119447937Y-103753717D01*
X119447936Y-103753719D01*
X119441363Y-103766620D01*
X119390281Y-103866874D01*
X119389062Y-103874568D01*
X119389062Y-103874569D01*
X119384707Y-103902064D01*
X119369196Y-104000000D01*
X118828970Y-104000000D01*
X118891584Y-103937386D01*
X118909582Y-103902064D01*
X118949239Y-103824232D01*
X118949239Y-103824231D01*
X118952775Y-103817292D01*
X118973860Y-103684166D01*
X118952775Y-103551040D01*
X118952245Y-103550000D01*
X120569196Y-103550000D01*
X120570580Y-103558736D01*
X120588075Y-103669196D01*
X120590281Y-103683126D01*
X120593817Y-103690065D01*
X120593817Y-103690066D01*
X120631022Y-103763084D01*
X120651472Y-103803220D01*
X120746780Y-103898528D01*
X120753717Y-103902063D01*
X120753719Y-103902064D01*
X120855098Y-103953719D01*
X120866874Y-103959719D01*
X120874568Y-103960938D01*
X120874569Y-103960938D01*
X120992304Y-103979585D01*
X121000000Y-103980804D01*
X121007696Y-103979585D01*
X121125431Y-103960938D01*
X121125432Y-103960938D01*
X121133126Y-103959719D01*
X121144902Y-103953719D01*
X121246281Y-103902064D01*
X121246283Y-103902063D01*
X121253220Y-103898528D01*
X121348528Y-103803220D01*
X121368979Y-103763084D01*
X121406183Y-103690066D01*
X121406183Y-103690065D01*
X121409719Y-103683126D01*
X121411926Y-103669196D01*
X121429420Y-103558736D01*
X121430804Y-103550000D01*
X121415209Y-103451534D01*
X121410938Y-103424569D01*
X121410938Y-103424568D01*
X121409719Y-103416874D01*
X121408538Y-103414556D01*
X123019196Y-103414556D01*
X123020415Y-103422252D01*
X123032677Y-103499669D01*
X123040281Y-103547682D01*
X123043817Y-103554621D01*
X123043817Y-103554622D01*
X123093165Y-103651472D01*
X123101472Y-103667776D01*
X123196780Y-103763084D01*
X123203717Y-103766619D01*
X123203719Y-103766620D01*
X123303169Y-103817292D01*
X123316874Y-103824275D01*
X123324568Y-103825494D01*
X123324569Y-103825494D01*
X123442304Y-103844141D01*
X123450000Y-103845360D01*
X123457696Y-103844141D01*
X123575431Y-103825494D01*
X123575432Y-103825494D01*
X123583126Y-103824275D01*
X123596831Y-103817292D01*
X123696281Y-103766620D01*
X123696283Y-103766619D01*
X123703220Y-103763084D01*
X123798528Y-103667776D01*
X123806836Y-103651472D01*
X123856183Y-103554622D01*
X123856183Y-103554621D01*
X123859719Y-103547682D01*
X123867324Y-103499669D01*
X123874811Y-103452393D01*
X123902588Y-103397877D01*
X123957105Y-103370099D01*
X124027332Y-103358976D01*
X124027333Y-103358976D01*
X124035027Y-103357757D01*
X124108315Y-103320415D01*
X124148182Y-103300102D01*
X124148184Y-103300101D01*
X124155121Y-103296566D01*
X124250429Y-103201258D01*
X124254626Y-103193022D01*
X124308084Y-103088104D01*
X124308084Y-103088103D01*
X124311620Y-103081164D01*
X124314018Y-103066028D01*
X124331486Y-102955734D01*
X124332705Y-102948038D01*
X124329278Y-102926401D01*
X124338849Y-102865969D01*
X124382114Y-102822704D01*
X124411571Y-102813133D01*
X124425432Y-102810938D01*
X124425434Y-102810937D01*
X124433126Y-102809719D01*
X124489875Y-102780804D01*
X124546281Y-102752064D01*
X124546283Y-102752063D01*
X124553220Y-102748528D01*
X124648528Y-102653220D01*
X124672090Y-102606978D01*
X124706183Y-102540066D01*
X124706183Y-102540065D01*
X124709719Y-102533126D01*
X124711926Y-102519196D01*
X124729585Y-102407696D01*
X124730804Y-102400000D01*
X124731006Y-102400032D01*
X124748492Y-102346215D01*
X124797992Y-102310251D01*
X124813096Y-102306625D01*
X124816937Y-102306017D01*
X124838867Y-102302543D01*
X124845807Y-102299007D01*
X124952022Y-102244888D01*
X124952024Y-102244887D01*
X124958961Y-102241352D01*
X125054269Y-102146044D01*
X125079371Y-102096780D01*
X125111924Y-102032890D01*
X125111924Y-102032889D01*
X125115460Y-102025950D01*
X125120550Y-101993817D01*
X125135326Y-101900520D01*
X125136545Y-101892824D01*
X125122411Y-101803586D01*
X125116679Y-101767393D01*
X125116679Y-101767392D01*
X125115460Y-101759698D01*
X125054269Y-101639604D01*
X124958961Y-101544296D01*
X124952024Y-101540761D01*
X124952022Y-101540760D01*
X124845807Y-101486641D01*
X124845806Y-101486641D01*
X124838867Y-101483105D01*
X124831173Y-101481886D01*
X124831172Y-101481886D01*
X124713437Y-101463239D01*
X124705741Y-101462020D01*
X124698045Y-101463239D01*
X124580310Y-101481886D01*
X124580309Y-101481886D01*
X124572615Y-101483105D01*
X124565676Y-101486641D01*
X124565675Y-101486641D01*
X124459460Y-101540760D01*
X124459458Y-101540761D01*
X124452521Y-101544296D01*
X124357213Y-101639604D01*
X124296022Y-101759698D01*
X124294803Y-101767392D01*
X124294803Y-101767393D01*
X124289071Y-101803586D01*
X124274937Y-101892824D01*
X124274735Y-101892792D01*
X124257249Y-101946609D01*
X124207749Y-101982573D01*
X124192645Y-101986199D01*
X124188804Y-101986807D01*
X124166874Y-101990281D01*
X124159935Y-101993817D01*
X124159934Y-101993817D01*
X124053719Y-102047936D01*
X124053717Y-102047937D01*
X124046780Y-102051472D01*
X123951472Y-102146780D01*
X123947937Y-102153717D01*
X123947936Y-102153719D01*
X123897537Y-102252634D01*
X123890281Y-102266874D01*
X123889062Y-102274568D01*
X123889062Y-102274569D01*
X123884439Y-102303761D01*
X123869196Y-102400000D01*
X123870415Y-102407696D01*
X123872623Y-102421637D01*
X123863052Y-102482069D01*
X123819787Y-102525334D01*
X123790330Y-102534905D01*
X123776469Y-102537100D01*
X123776467Y-102537101D01*
X123768775Y-102538319D01*
X123761836Y-102541855D01*
X123761835Y-102541855D01*
X123655620Y-102595974D01*
X123655618Y-102595975D01*
X123648681Y-102599510D01*
X123553373Y-102694818D01*
X123549838Y-102701755D01*
X123549837Y-102701757D01*
X123523361Y-102753719D01*
X123492182Y-102814912D01*
X123490963Y-102822606D01*
X123490963Y-102822607D01*
X123477090Y-102910201D01*
X123449313Y-102964717D01*
X123394796Y-102992495D01*
X123324569Y-103003618D01*
X123324568Y-103003618D01*
X123316874Y-103004837D01*
X123309935Y-103008373D01*
X123309934Y-103008373D01*
X123203719Y-103062492D01*
X123203717Y-103062493D01*
X123196780Y-103066028D01*
X123101472Y-103161336D01*
X123097937Y-103168273D01*
X123097936Y-103168275D01*
X123054655Y-103253220D01*
X123040281Y-103281430D01*
X123039062Y-103289124D01*
X123039062Y-103289125D01*
X123034299Y-103319196D01*
X123019196Y-103414556D01*
X121408538Y-103414556D01*
X121395389Y-103388750D01*
X121352064Y-103303719D01*
X121352063Y-103303717D01*
X121348528Y-103296780D01*
X121253220Y-103201472D01*
X121246283Y-103197937D01*
X121246281Y-103197936D01*
X121140066Y-103143817D01*
X121140065Y-103143817D01*
X121133126Y-103140281D01*
X121125432Y-103139062D01*
X121125431Y-103139062D01*
X121007696Y-103120415D01*
X121000000Y-103119196D01*
X120992304Y-103120415D01*
X120874569Y-103139062D01*
X120874568Y-103139062D01*
X120866874Y-103140281D01*
X120859935Y-103143817D01*
X120859934Y-103143817D01*
X120753719Y-103197936D01*
X120753717Y-103197937D01*
X120746780Y-103201472D01*
X120651472Y-103296780D01*
X120647937Y-103303717D01*
X120647936Y-103303719D01*
X120604611Y-103388750D01*
X120590281Y-103416874D01*
X120589062Y-103424568D01*
X120589062Y-103424569D01*
X120584791Y-103451534D01*
X120569196Y-103550000D01*
X118952245Y-103550000D01*
X118950084Y-103545759D01*
X118950086Y-103485516D01*
X118986052Y-103436017D01*
X119028753Y-103418331D01*
X119075431Y-103410938D01*
X119075432Y-103410938D01*
X119083126Y-103409719D01*
X119099312Y-103401472D01*
X119196281Y-103352064D01*
X119196283Y-103352063D01*
X119203220Y-103348528D01*
X119298528Y-103253220D01*
X119322090Y-103206978D01*
X119356183Y-103140066D01*
X119356183Y-103140065D01*
X119359719Y-103133126D01*
X119361926Y-103119196D01*
X119379585Y-103007696D01*
X119380804Y-103000000D01*
X119359719Y-102866874D01*
X119329707Y-102807972D01*
X119302064Y-102753719D01*
X119302063Y-102753717D01*
X119298528Y-102746780D01*
X119203220Y-102651472D01*
X119196283Y-102647937D01*
X119196281Y-102647936D01*
X119090066Y-102593817D01*
X119090065Y-102593817D01*
X119083126Y-102590281D01*
X119075432Y-102589062D01*
X119075431Y-102589062D01*
X118957696Y-102570415D01*
X118950000Y-102569196D01*
X118942304Y-102570415D01*
X118824569Y-102589062D01*
X118824568Y-102589062D01*
X118816874Y-102590281D01*
X118809935Y-102593817D01*
X118809934Y-102593817D01*
X118703719Y-102647936D01*
X118703717Y-102647937D01*
X118696780Y-102651472D01*
X118601472Y-102746780D01*
X118597937Y-102753717D01*
X118597936Y-102753719D01*
X118570293Y-102807972D01*
X118540281Y-102866874D01*
X118519196Y-103000000D01*
X118540281Y-103133126D01*
X118542972Y-103138407D01*
X118542970Y-103198650D01*
X118507004Y-103248149D01*
X118464303Y-103265835D01*
X118417625Y-103273228D01*
X118417624Y-103273228D01*
X118409930Y-103274447D01*
X118402991Y-103277983D01*
X118402990Y-103277983D01*
X118296775Y-103332102D01*
X118296773Y-103332103D01*
X118289836Y-103335638D01*
X118194528Y-103430946D01*
X118190993Y-103437883D01*
X118190992Y-103437885D01*
X118177137Y-103465077D01*
X118133337Y-103551040D01*
X118112252Y-103684166D01*
X117820377Y-103684166D01*
X117810938Y-103624569D01*
X117810938Y-103624568D01*
X117809719Y-103616874D01*
X117780096Y-103558735D01*
X117752064Y-103503719D01*
X117752063Y-103503717D01*
X117748528Y-103496780D01*
X117653220Y-103401472D01*
X117646283Y-103397937D01*
X117646281Y-103397936D01*
X117540066Y-103343817D01*
X117540065Y-103343817D01*
X117533126Y-103340281D01*
X117525432Y-103339062D01*
X117525431Y-103339062D01*
X117407696Y-103320415D01*
X117400000Y-103319196D01*
X117392304Y-103320415D01*
X117274569Y-103339062D01*
X117274568Y-103339062D01*
X117266874Y-103340281D01*
X117259935Y-103343817D01*
X117259934Y-103343817D01*
X117153719Y-103397936D01*
X117153717Y-103397937D01*
X117146780Y-103401472D01*
X117120004Y-103428248D01*
X117065487Y-103456025D01*
X117005055Y-103446454D01*
X116979996Y-103428248D01*
X116953220Y-103401472D01*
X116946283Y-103397937D01*
X116946281Y-103397936D01*
X116840066Y-103343817D01*
X116840065Y-103343817D01*
X116833126Y-103340281D01*
X116825432Y-103339062D01*
X116825431Y-103339062D01*
X116707696Y-103320415D01*
X116700000Y-103319196D01*
X116692304Y-103320415D01*
X116574569Y-103339062D01*
X116574568Y-103339062D01*
X116566874Y-103340281D01*
X116559935Y-103343817D01*
X116559934Y-103343817D01*
X116453719Y-103397936D01*
X116453717Y-103397937D01*
X116446780Y-103401472D01*
X116351472Y-103496780D01*
X116347937Y-103503717D01*
X116347936Y-103503719D01*
X116319904Y-103558735D01*
X116290281Y-103616874D01*
X116289062Y-103624568D01*
X116289062Y-103624569D01*
X116278404Y-103691862D01*
X116269196Y-103750000D01*
X100200500Y-103750000D01*
X100200500Y-102890000D01*
X104219534Y-102890000D01*
X104239313Y-103040236D01*
X104241797Y-103046233D01*
X104294819Y-103174240D01*
X104294821Y-103174244D01*
X104297302Y-103180233D01*
X104301248Y-103185375D01*
X104301250Y-103185379D01*
X104380858Y-103289125D01*
X104389549Y-103300451D01*
X104394698Y-103304402D01*
X104504621Y-103388750D01*
X104504625Y-103388752D01*
X104509767Y-103392698D01*
X104515756Y-103395179D01*
X104515760Y-103395181D01*
X104618857Y-103437885D01*
X104649764Y-103450687D01*
X104762280Y-103465500D01*
X104837720Y-103465500D01*
X104950236Y-103450687D01*
X104981143Y-103437885D01*
X105084240Y-103395181D01*
X105084244Y-103395179D01*
X105090233Y-103392698D01*
X105095375Y-103388752D01*
X105095379Y-103388750D01*
X105205302Y-103304402D01*
X105210451Y-103300451D01*
X105219142Y-103289125D01*
X105298750Y-103185379D01*
X105298752Y-103185375D01*
X105302698Y-103180233D01*
X105305179Y-103174244D01*
X105305181Y-103174240D01*
X105358203Y-103046233D01*
X105360687Y-103040236D01*
X105372567Y-102950000D01*
X111819196Y-102950000D01*
X111820415Y-102957696D01*
X111832469Y-103033800D01*
X111840281Y-103083126D01*
X111843817Y-103090065D01*
X111843817Y-103090066D01*
X111896937Y-103194319D01*
X111901472Y-103203220D01*
X111996780Y-103298528D01*
X112003717Y-103302063D01*
X112003719Y-103302064D01*
X112109934Y-103356183D01*
X112116874Y-103359719D01*
X112124568Y-103360938D01*
X112124569Y-103360938D01*
X112210173Y-103374496D01*
X112237613Y-103378842D01*
X112242304Y-103379585D01*
X112250000Y-103380804D01*
X112257696Y-103379585D01*
X112262388Y-103378842D01*
X112289827Y-103374496D01*
X112375431Y-103360938D01*
X112375432Y-103360938D01*
X112383126Y-103359719D01*
X112390066Y-103356183D01*
X112496281Y-103302064D01*
X112496283Y-103302063D01*
X112503220Y-103298528D01*
X112598528Y-103203220D01*
X112603064Y-103194319D01*
X112656183Y-103090066D01*
X112656183Y-103090065D01*
X112659719Y-103083126D01*
X112667532Y-103033800D01*
X112679585Y-102957696D01*
X112680804Y-102950000D01*
X112664966Y-102850000D01*
X114619196Y-102850000D01*
X114620415Y-102857696D01*
X114635943Y-102955734D01*
X114640281Y-102983126D01*
X114643817Y-102990065D01*
X114643817Y-102990066D01*
X114694770Y-103090066D01*
X114701472Y-103103220D01*
X114796780Y-103198528D01*
X114803717Y-103202063D01*
X114803719Y-103202064D01*
X114909934Y-103256183D01*
X114916874Y-103259719D01*
X114924568Y-103260938D01*
X114924569Y-103260938D01*
X115042304Y-103279585D01*
X115050000Y-103280804D01*
X115057696Y-103279585D01*
X115175431Y-103260938D01*
X115175432Y-103260938D01*
X115183126Y-103259719D01*
X115190066Y-103256183D01*
X115296281Y-103202064D01*
X115296283Y-103202063D01*
X115303220Y-103198528D01*
X115398528Y-103103220D01*
X115405231Y-103090066D01*
X115456183Y-102990066D01*
X115456183Y-102990065D01*
X115459719Y-102983126D01*
X115464058Y-102955734D01*
X115479585Y-102857696D01*
X115480804Y-102850000D01*
X115473864Y-102806183D01*
X115460938Y-102724569D01*
X115460938Y-102724568D01*
X115459719Y-102716874D01*
X115452173Y-102702064D01*
X115402064Y-102603719D01*
X115402063Y-102603717D01*
X115398528Y-102596780D01*
X115303220Y-102501472D01*
X115296283Y-102497937D01*
X115296281Y-102497936D01*
X115190066Y-102443817D01*
X115190065Y-102443817D01*
X115183126Y-102440281D01*
X115175432Y-102439062D01*
X115175431Y-102439062D01*
X115057696Y-102420415D01*
X115050000Y-102419196D01*
X115042304Y-102420415D01*
X114924569Y-102439062D01*
X114924568Y-102439062D01*
X114916874Y-102440281D01*
X114909935Y-102443817D01*
X114909934Y-102443817D01*
X114803719Y-102497936D01*
X114803717Y-102497937D01*
X114796780Y-102501472D01*
X114701472Y-102596780D01*
X114697937Y-102603717D01*
X114697936Y-102603719D01*
X114647827Y-102702064D01*
X114640281Y-102716874D01*
X114639062Y-102724568D01*
X114639062Y-102724569D01*
X114626136Y-102806183D01*
X114619196Y-102850000D01*
X112664966Y-102850000D01*
X112663747Y-102842304D01*
X112660938Y-102824569D01*
X112660938Y-102824568D01*
X112659719Y-102816874D01*
X112654272Y-102806183D01*
X112602064Y-102703719D01*
X112602063Y-102703717D01*
X112598528Y-102696780D01*
X112503220Y-102601472D01*
X112496283Y-102597937D01*
X112496281Y-102597936D01*
X112390066Y-102543817D01*
X112390065Y-102543817D01*
X112383126Y-102540281D01*
X112375432Y-102539062D01*
X112375431Y-102539062D01*
X112257696Y-102520415D01*
X112250000Y-102519196D01*
X112242304Y-102520415D01*
X112124569Y-102539062D01*
X112124568Y-102539062D01*
X112116874Y-102540281D01*
X112109935Y-102543817D01*
X112109934Y-102543817D01*
X112003719Y-102597936D01*
X112003717Y-102597937D01*
X111996780Y-102601472D01*
X111901472Y-102696780D01*
X111897937Y-102703717D01*
X111897936Y-102703719D01*
X111845728Y-102806183D01*
X111840281Y-102816874D01*
X111839062Y-102824568D01*
X111839062Y-102824569D01*
X111836253Y-102842304D01*
X111819196Y-102950000D01*
X105372567Y-102950000D01*
X105380466Y-102890000D01*
X105360687Y-102739764D01*
X105344944Y-102701757D01*
X105305181Y-102605760D01*
X105305179Y-102605756D01*
X105302698Y-102599767D01*
X105298752Y-102594625D01*
X105298750Y-102594621D01*
X105214402Y-102484698D01*
X105210451Y-102479549D01*
X105166676Y-102445959D01*
X105095379Y-102391250D01*
X105095375Y-102391248D01*
X105090233Y-102387302D01*
X105084244Y-102384821D01*
X105084240Y-102384819D01*
X105000179Y-102350000D01*
X110669196Y-102350000D01*
X110670415Y-102357696D01*
X110688258Y-102470351D01*
X110690281Y-102483126D01*
X110693817Y-102490065D01*
X110693817Y-102490066D01*
X110747091Y-102594621D01*
X110751472Y-102603220D01*
X110846780Y-102698528D01*
X110853717Y-102702063D01*
X110853719Y-102702064D01*
X110944910Y-102748528D01*
X110966874Y-102759719D01*
X110974568Y-102760938D01*
X110974569Y-102760938D01*
X111092304Y-102779585D01*
X111100000Y-102780804D01*
X111107696Y-102779585D01*
X111225431Y-102760938D01*
X111225432Y-102760938D01*
X111233126Y-102759719D01*
X111255090Y-102748528D01*
X111346281Y-102702064D01*
X111346283Y-102702063D01*
X111353220Y-102698528D01*
X111448528Y-102603220D01*
X111452910Y-102594621D01*
X111506183Y-102490066D01*
X111506183Y-102490065D01*
X111509719Y-102483126D01*
X111511743Y-102470351D01*
X111529585Y-102357696D01*
X111530804Y-102350000D01*
X111523876Y-102306258D01*
X111510938Y-102224569D01*
X111510938Y-102224568D01*
X111509719Y-102216874D01*
X111476435Y-102151550D01*
X111452064Y-102103719D01*
X111452063Y-102103717D01*
X111448528Y-102096780D01*
X111353220Y-102001472D01*
X111346283Y-101997937D01*
X111346281Y-101997936D01*
X111240066Y-101943817D01*
X111240065Y-101943817D01*
X111233126Y-101940281D01*
X111225432Y-101939062D01*
X111225431Y-101939062D01*
X111107696Y-101920415D01*
X111100000Y-101919196D01*
X111092304Y-101920415D01*
X110974569Y-101939062D01*
X110974568Y-101939062D01*
X110966874Y-101940281D01*
X110959935Y-101943817D01*
X110959934Y-101943817D01*
X110853719Y-101997936D01*
X110853717Y-101997937D01*
X110846780Y-102001472D01*
X110751472Y-102096780D01*
X110747937Y-102103717D01*
X110747936Y-102103719D01*
X110723565Y-102151550D01*
X110690281Y-102216874D01*
X110689062Y-102224568D01*
X110689062Y-102224569D01*
X110676124Y-102306258D01*
X110669196Y-102350000D01*
X105000179Y-102350000D01*
X104956233Y-102331797D01*
X104950236Y-102329313D01*
X104837720Y-102314500D01*
X104762280Y-102314500D01*
X104649764Y-102329313D01*
X104643767Y-102331797D01*
X104515760Y-102384819D01*
X104515756Y-102384821D01*
X104509767Y-102387302D01*
X104504625Y-102391248D01*
X104504621Y-102391250D01*
X104433324Y-102445959D01*
X104389549Y-102479549D01*
X104385598Y-102484698D01*
X104301250Y-102594621D01*
X104301248Y-102594625D01*
X104297302Y-102599767D01*
X104294821Y-102605756D01*
X104294819Y-102605760D01*
X104255056Y-102701757D01*
X104239313Y-102739764D01*
X104219534Y-102890000D01*
X100200500Y-102890000D01*
X100200500Y-101400262D01*
X136944520Y-101400262D01*
X136961759Y-101605553D01*
X137018544Y-101803586D01*
X137112712Y-101986818D01*
X137240677Y-102148270D01*
X137244357Y-102151402D01*
X137244359Y-102151404D01*
X137330328Y-102224569D01*
X137397564Y-102281791D01*
X137401787Y-102284151D01*
X137401791Y-102284154D01*
X137468838Y-102321625D01*
X137577398Y-102382297D01*
X137581996Y-102383791D01*
X137768724Y-102444463D01*
X137768726Y-102444464D01*
X137773329Y-102445959D01*
X137977894Y-102470351D01*
X137982716Y-102469980D01*
X137982719Y-102469980D01*
X138050541Y-102464761D01*
X138183300Y-102454546D01*
X138381725Y-102399145D01*
X138386038Y-102396966D01*
X138386044Y-102396964D01*
X138561289Y-102308441D01*
X138561291Y-102308440D01*
X138565610Y-102306258D01*
X138574891Y-102299007D01*
X138724135Y-102182406D01*
X138724139Y-102182402D01*
X138727951Y-102179424D01*
X138756129Y-102146780D01*
X138823148Y-102069136D01*
X138862564Y-102023472D01*
X138875062Y-102001472D01*
X138930528Y-101903834D01*
X144874500Y-101903834D01*
X144877481Y-101935369D01*
X144922366Y-102063184D01*
X144926761Y-102069135D01*
X144926762Y-102069136D01*
X144998450Y-102166193D01*
X145002850Y-102172150D01*
X145008807Y-102176550D01*
X145101329Y-102244888D01*
X145111816Y-102252634D01*
X145239631Y-102297519D01*
X145245638Y-102298087D01*
X145245639Y-102298087D01*
X145268855Y-102300282D01*
X145268865Y-102300282D01*
X145271166Y-102300500D01*
X146878834Y-102300500D01*
X146881135Y-102300282D01*
X146881145Y-102300282D01*
X146904361Y-102298087D01*
X146904362Y-102298087D01*
X146910369Y-102297519D01*
X147038184Y-102252634D01*
X147048672Y-102244888D01*
X147141193Y-102176550D01*
X147147150Y-102172150D01*
X147151550Y-102166193D01*
X147223238Y-102069136D01*
X147223239Y-102069135D01*
X147227634Y-102063184D01*
X147272519Y-101935369D01*
X147275500Y-101903834D01*
X147275500Y-100596166D01*
X147275251Y-100593522D01*
X147273087Y-100570639D01*
X147273087Y-100570638D01*
X147272519Y-100564631D01*
X147227634Y-100436816D01*
X147223194Y-100430804D01*
X147151550Y-100333807D01*
X147147150Y-100327850D01*
X147137084Y-100320415D01*
X147044136Y-100251762D01*
X147044135Y-100251761D01*
X147038184Y-100247366D01*
X146910369Y-100202481D01*
X146904362Y-100201913D01*
X146904361Y-100201913D01*
X146881145Y-100199718D01*
X146881135Y-100199718D01*
X146878834Y-100199500D01*
X145271166Y-100199500D01*
X145268865Y-100199718D01*
X145268855Y-100199718D01*
X145245639Y-100201913D01*
X145245638Y-100201913D01*
X145239631Y-100202481D01*
X145111816Y-100247366D01*
X145105865Y-100251761D01*
X145105864Y-100251762D01*
X145012916Y-100320415D01*
X145002850Y-100327850D01*
X144998450Y-100333807D01*
X144926807Y-100430804D01*
X144922366Y-100436816D01*
X144877481Y-100564631D01*
X144876913Y-100570638D01*
X144876913Y-100570639D01*
X144874750Y-100593522D01*
X144874500Y-100596166D01*
X144874500Y-101903834D01*
X138930528Y-101903834D01*
X138961934Y-101848550D01*
X138961935Y-101848547D01*
X138964323Y-101844344D01*
X138977882Y-101803586D01*
X139027824Y-101653454D01*
X139027824Y-101653452D01*
X139029351Y-101648863D01*
X139055171Y-101444474D01*
X139055583Y-101415000D01*
X139053667Y-101395454D01*
X139035952Y-101214780D01*
X139035951Y-101214776D01*
X139035480Y-101209970D01*
X139032026Y-101198528D01*
X138977333Y-101017380D01*
X138975935Y-101012749D01*
X138879218Y-100830849D01*
X138749011Y-100671200D01*
X138667441Y-100603719D01*
X138594002Y-100542965D01*
X138594000Y-100542964D01*
X138590275Y-100539882D01*
X138435184Y-100456025D01*
X138413309Y-100444197D01*
X138413308Y-100444197D01*
X138409055Y-100441897D01*
X138335720Y-100419196D01*
X138216875Y-100382407D01*
X138216871Y-100382406D01*
X138212254Y-100380977D01*
X138207446Y-100380472D01*
X138207443Y-100380471D01*
X138012185Y-100359949D01*
X138012183Y-100359949D01*
X138007369Y-100359443D01*
X137947354Y-100364905D01*
X137807022Y-100377675D01*
X137807017Y-100377676D01*
X137802203Y-100378114D01*
X137604572Y-100436280D01*
X137600288Y-100438519D01*
X137600287Y-100438520D01*
X137532528Y-100473944D01*
X137422002Y-100531726D01*
X137418231Y-100534758D01*
X137265220Y-100657781D01*
X137265217Y-100657783D01*
X137261447Y-100660815D01*
X137258333Y-100664526D01*
X137258332Y-100664527D01*
X137186612Y-100750000D01*
X137129024Y-100818630D01*
X137126689Y-100822878D01*
X137126688Y-100822879D01*
X137121055Y-100833126D01*
X137029776Y-100999162D01*
X137028313Y-101003775D01*
X137028311Y-101003779D01*
X136978458Y-101160938D01*
X136967484Y-101195532D01*
X136966944Y-101200344D01*
X136966944Y-101200345D01*
X136960148Y-101260938D01*
X136944520Y-101400262D01*
X100200500Y-101400262D01*
X100200500Y-100850000D01*
X109369196Y-100850000D01*
X109390281Y-100983126D01*
X109393817Y-100990065D01*
X109393817Y-100990066D01*
X109446276Y-101093022D01*
X109451472Y-101103220D01*
X109546780Y-101198528D01*
X109553717Y-101202063D01*
X109553719Y-101202064D01*
X109578676Y-101214780D01*
X109666874Y-101259719D01*
X109674568Y-101260938D01*
X109674569Y-101260938D01*
X109792304Y-101279585D01*
X109800000Y-101280804D01*
X109807696Y-101279585D01*
X109925431Y-101260938D01*
X109925432Y-101260938D01*
X109933126Y-101259719D01*
X110021324Y-101214780D01*
X110046281Y-101202064D01*
X110046283Y-101202063D01*
X110053220Y-101198528D01*
X110148528Y-101103220D01*
X110153725Y-101093022D01*
X110206183Y-100990066D01*
X110206183Y-100990065D01*
X110209719Y-100983126D01*
X110230804Y-100850000D01*
X110214966Y-100750000D01*
X118719196Y-100750000D01*
X118720415Y-100757696D01*
X118732679Y-100835126D01*
X118740281Y-100883126D01*
X118743817Y-100890065D01*
X118743817Y-100890066D01*
X118794770Y-100990066D01*
X118801472Y-101003220D01*
X118896780Y-101098528D01*
X118903717Y-101102063D01*
X118903719Y-101102064D01*
X118960125Y-101130804D01*
X119016874Y-101159719D01*
X119024568Y-101160938D01*
X119024569Y-101160938D01*
X119142304Y-101179585D01*
X119150000Y-101180804D01*
X119157696Y-101179585D01*
X119275431Y-101160938D01*
X119275432Y-101160938D01*
X119283126Y-101159719D01*
X119339875Y-101130804D01*
X119396281Y-101102064D01*
X119396283Y-101102063D01*
X119403220Y-101098528D01*
X119479996Y-101021752D01*
X119534513Y-100993975D01*
X119594945Y-101003546D01*
X119620004Y-101021752D01*
X119646780Y-101048528D01*
X119653717Y-101052063D01*
X119653719Y-101052064D01*
X119734104Y-101093022D01*
X119766874Y-101109719D01*
X119774568Y-101110938D01*
X119774569Y-101110938D01*
X119892304Y-101129585D01*
X119900000Y-101130804D01*
X119907696Y-101129585D01*
X120025431Y-101110938D01*
X120025432Y-101110938D01*
X120033126Y-101109719D01*
X120065896Y-101093022D01*
X120146281Y-101052064D01*
X120146283Y-101052063D01*
X120153220Y-101048528D01*
X120248528Y-100953220D01*
X120309719Y-100833126D01*
X120312604Y-100814915D01*
X120329585Y-100707696D01*
X120330804Y-100700000D01*
X120314456Y-100596780D01*
X120310938Y-100574569D01*
X120310938Y-100574568D01*
X120309719Y-100566874D01*
X120295966Y-100539882D01*
X120252064Y-100453719D01*
X120252063Y-100453717D01*
X120248528Y-100446780D01*
X120153220Y-100351472D01*
X120146283Y-100347937D01*
X120146281Y-100347936D01*
X120040066Y-100293817D01*
X120040065Y-100293817D01*
X120033126Y-100290281D01*
X120025432Y-100289062D01*
X120025431Y-100289062D01*
X119907696Y-100270415D01*
X119900000Y-100269196D01*
X119892304Y-100270415D01*
X119774569Y-100289062D01*
X119774568Y-100289062D01*
X119766874Y-100290281D01*
X119759935Y-100293817D01*
X119759934Y-100293817D01*
X119653719Y-100347936D01*
X119653717Y-100347937D01*
X119646780Y-100351472D01*
X119570004Y-100428248D01*
X119515487Y-100456025D01*
X119455055Y-100446454D01*
X119429996Y-100428248D01*
X119403220Y-100401472D01*
X119396283Y-100397937D01*
X119396281Y-100397936D01*
X119290066Y-100343817D01*
X119290065Y-100343817D01*
X119283126Y-100340281D01*
X119275432Y-100339062D01*
X119275431Y-100339062D01*
X119157696Y-100320415D01*
X119150000Y-100319196D01*
X119142304Y-100320415D01*
X119024569Y-100339062D01*
X119024568Y-100339062D01*
X119016874Y-100340281D01*
X119009935Y-100343817D01*
X119009934Y-100343817D01*
X118903719Y-100397936D01*
X118903717Y-100397937D01*
X118896780Y-100401472D01*
X118801472Y-100496780D01*
X118797937Y-100503717D01*
X118797936Y-100503719D01*
X118749374Y-100599028D01*
X118740281Y-100616874D01*
X118739062Y-100624568D01*
X118739062Y-100624569D01*
X118732165Y-100668115D01*
X118719196Y-100750000D01*
X110214966Y-100750000D01*
X110209719Y-100716874D01*
X110181473Y-100661438D01*
X110152064Y-100603719D01*
X110152063Y-100603717D01*
X110148528Y-100596780D01*
X110053220Y-100501472D01*
X110046283Y-100497937D01*
X110046281Y-100497936D01*
X109940066Y-100443817D01*
X109940065Y-100443817D01*
X109933126Y-100440281D01*
X109925432Y-100439062D01*
X109925431Y-100439062D01*
X109807696Y-100420415D01*
X109800000Y-100419196D01*
X109792304Y-100420415D01*
X109674569Y-100439062D01*
X109674568Y-100439062D01*
X109666874Y-100440281D01*
X109659935Y-100443817D01*
X109659934Y-100443817D01*
X109553719Y-100497936D01*
X109553717Y-100497937D01*
X109546780Y-100501472D01*
X109451472Y-100596780D01*
X109447937Y-100603717D01*
X109447936Y-100603719D01*
X109418527Y-100661438D01*
X109390281Y-100716874D01*
X109369196Y-100850000D01*
X100200500Y-100850000D01*
X100200500Y-100000000D01*
X111656696Y-100000000D01*
X111677781Y-100133126D01*
X111681317Y-100140065D01*
X111681317Y-100140066D01*
X111733665Y-100242804D01*
X111738972Y-100253220D01*
X111834280Y-100348528D01*
X111841217Y-100352063D01*
X111841219Y-100352064D01*
X111938188Y-100401472D01*
X111954374Y-100409719D01*
X111962068Y-100410938D01*
X111962069Y-100410938D01*
X112079804Y-100429585D01*
X112087500Y-100430804D01*
X112095196Y-100429585D01*
X112212931Y-100410938D01*
X112212932Y-100410938D01*
X112220626Y-100409719D01*
X112236812Y-100401472D01*
X112333781Y-100352064D01*
X112333783Y-100352063D01*
X112340720Y-100348528D01*
X112436028Y-100253220D01*
X112437414Y-100250500D01*
X120569196Y-100250500D01*
X120590281Y-100383626D01*
X120651472Y-100503720D01*
X120746780Y-100599028D01*
X120753717Y-100602563D01*
X120753719Y-100602564D01*
X120859934Y-100656683D01*
X120866874Y-100660219D01*
X120874568Y-100661438D01*
X120874569Y-100661438D01*
X120992304Y-100680085D01*
X121000000Y-100681304D01*
X121007696Y-100680085D01*
X121125431Y-100661438D01*
X121125432Y-100661438D01*
X121133126Y-100660219D01*
X121140066Y-100656683D01*
X121246281Y-100602564D01*
X121246283Y-100602563D01*
X121253220Y-100599028D01*
X121348528Y-100503720D01*
X121409719Y-100383626D01*
X121430804Y-100250500D01*
X121409719Y-100117374D01*
X121406183Y-100110434D01*
X121352064Y-100004219D01*
X121352063Y-100004217D01*
X121348528Y-99997280D01*
X121253220Y-99901972D01*
X121246283Y-99898437D01*
X121246281Y-99898436D01*
X121140066Y-99844317D01*
X121140065Y-99844317D01*
X121133126Y-99840781D01*
X121125432Y-99839562D01*
X121125431Y-99839562D01*
X121007696Y-99820915D01*
X121000000Y-99819696D01*
X120992304Y-99820915D01*
X120874569Y-99839562D01*
X120874568Y-99839562D01*
X120866874Y-99840781D01*
X120859935Y-99844317D01*
X120859934Y-99844317D01*
X120753719Y-99898436D01*
X120753717Y-99898437D01*
X120746780Y-99901972D01*
X120651472Y-99997280D01*
X120647937Y-100004217D01*
X120647936Y-100004219D01*
X120593817Y-100110434D01*
X120590281Y-100117374D01*
X120569196Y-100250500D01*
X112437414Y-100250500D01*
X112441336Y-100242804D01*
X112493683Y-100140066D01*
X112493683Y-100140065D01*
X112497219Y-100133126D01*
X112518304Y-100000000D01*
X112512447Y-99963022D01*
X112498438Y-99874569D01*
X112498438Y-99874568D01*
X112497219Y-99866874D01*
X112468923Y-99811340D01*
X112439564Y-99753719D01*
X112439563Y-99753717D01*
X112436028Y-99746780D01*
X112340720Y-99651472D01*
X112333783Y-99647937D01*
X112333781Y-99647936D01*
X112227566Y-99593817D01*
X112227565Y-99593817D01*
X112220626Y-99590281D01*
X112212932Y-99589062D01*
X112212931Y-99589062D01*
X112095196Y-99570415D01*
X112087500Y-99569196D01*
X112079804Y-99570415D01*
X111962069Y-99589062D01*
X111962068Y-99589062D01*
X111954374Y-99590281D01*
X111947435Y-99593817D01*
X111947434Y-99593817D01*
X111841219Y-99647936D01*
X111841217Y-99647937D01*
X111834280Y-99651472D01*
X111738972Y-99746780D01*
X111735437Y-99753717D01*
X111735436Y-99753719D01*
X111706077Y-99811340D01*
X111677781Y-99866874D01*
X111676562Y-99874568D01*
X111676562Y-99874569D01*
X111662553Y-99963022D01*
X111656696Y-100000000D01*
X100200500Y-100000000D01*
X100200500Y-99050000D01*
X109369196Y-99050000D01*
X109370415Y-99057696D01*
X109386469Y-99159055D01*
X109390281Y-99183126D01*
X109393817Y-99190065D01*
X109393817Y-99190066D01*
X109445701Y-99291893D01*
X109451472Y-99303220D01*
X109546780Y-99398528D01*
X109553717Y-99402063D01*
X109553719Y-99402064D01*
X109634104Y-99443022D01*
X109666874Y-99459719D01*
X109674568Y-99460938D01*
X109674569Y-99460938D01*
X109792304Y-99479585D01*
X109800000Y-99480804D01*
X109807696Y-99479585D01*
X109925431Y-99460938D01*
X109925432Y-99460938D01*
X109933126Y-99459719D01*
X109965896Y-99443022D01*
X110046281Y-99402064D01*
X110046283Y-99402063D01*
X110053220Y-99398528D01*
X110148528Y-99303220D01*
X110154300Y-99291893D01*
X110206183Y-99190066D01*
X110206183Y-99190065D01*
X110209719Y-99183126D01*
X110213532Y-99159055D01*
X110229585Y-99057696D01*
X110230804Y-99050000D01*
X110217638Y-98966874D01*
X110210938Y-98924569D01*
X110210938Y-98924568D01*
X110209719Y-98916874D01*
X110203851Y-98905358D01*
X110152064Y-98803719D01*
X110152063Y-98803717D01*
X110148528Y-98796780D01*
X110053220Y-98701472D01*
X110046283Y-98697937D01*
X110046281Y-98697936D01*
X109940066Y-98643817D01*
X109940065Y-98643817D01*
X109933126Y-98640281D01*
X109925432Y-98639062D01*
X109925431Y-98639062D01*
X109807696Y-98620415D01*
X109800000Y-98619196D01*
X109792304Y-98620415D01*
X109674569Y-98639062D01*
X109674568Y-98639062D01*
X109666874Y-98640281D01*
X109659935Y-98643817D01*
X109659934Y-98643817D01*
X109553719Y-98697936D01*
X109553717Y-98697937D01*
X109546780Y-98701472D01*
X109451472Y-98796780D01*
X109447937Y-98803717D01*
X109447936Y-98803719D01*
X109396149Y-98905358D01*
X109390281Y-98916874D01*
X109389062Y-98924568D01*
X109389062Y-98924569D01*
X109382362Y-98966874D01*
X109369196Y-99050000D01*
X100200500Y-99050000D01*
X100200500Y-98450000D01*
X114619196Y-98450000D01*
X114620415Y-98457696D01*
X114636147Y-98557022D01*
X114640281Y-98583126D01*
X114643817Y-98590065D01*
X114643817Y-98590066D01*
X114690545Y-98681774D01*
X114701472Y-98703220D01*
X114796780Y-98798528D01*
X114803717Y-98802063D01*
X114803719Y-98802064D01*
X114905098Y-98853719D01*
X114916874Y-98859719D01*
X114924568Y-98860938D01*
X114924569Y-98860938D01*
X115013022Y-98874947D01*
X115039722Y-98879176D01*
X115042304Y-98879585D01*
X115050000Y-98880804D01*
X115057696Y-98879585D01*
X115060279Y-98879176D01*
X115086978Y-98874947D01*
X115175431Y-98860938D01*
X115175432Y-98860938D01*
X115183126Y-98859719D01*
X115194902Y-98853719D01*
X115296281Y-98802064D01*
X115296283Y-98802063D01*
X115303220Y-98798528D01*
X115329996Y-98771752D01*
X115384513Y-98743975D01*
X115444945Y-98753546D01*
X115470004Y-98771752D01*
X115535336Y-98837084D01*
X115542273Y-98840619D01*
X115542275Y-98840620D01*
X115621141Y-98880804D01*
X115655430Y-98898275D01*
X115663124Y-98899494D01*
X115663125Y-98899494D01*
X115780860Y-98918141D01*
X115788556Y-98919360D01*
X115796252Y-98918141D01*
X115796253Y-98918141D01*
X115876962Y-98905358D01*
X115937394Y-98914929D01*
X115980658Y-98958193D01*
X115989002Y-98974569D01*
X116023515Y-99042304D01*
X116028822Y-99052720D01*
X116124130Y-99148028D01*
X116131067Y-99151563D01*
X116131069Y-99151564D01*
X116206634Y-99190066D01*
X116244224Y-99209219D01*
X116251919Y-99210438D01*
X116259328Y-99212845D01*
X116258424Y-99215626D01*
X116301099Y-99237374D01*
X116328873Y-99291893D01*
X116328872Y-99322859D01*
X116328058Y-99327998D01*
X116324732Y-99349000D01*
X116330589Y-99385978D01*
X116341056Y-99452064D01*
X116345817Y-99482126D01*
X116349353Y-99489065D01*
X116349353Y-99489066D01*
X116400925Y-99590281D01*
X116407008Y-99602220D01*
X116502316Y-99697528D01*
X116509253Y-99701063D01*
X116509255Y-99701064D01*
X116585456Y-99739890D01*
X116622410Y-99758719D01*
X116630104Y-99759938D01*
X116630105Y-99759938D01*
X116747840Y-99778585D01*
X116755536Y-99779804D01*
X116763232Y-99778585D01*
X116880967Y-99759938D01*
X116880968Y-99759938D01*
X116888662Y-99758719D01*
X116916082Y-99744748D01*
X136949500Y-99744748D01*
X136954721Y-99770995D01*
X136957013Y-99782516D01*
X136961133Y-99803231D01*
X137005448Y-99869552D01*
X137071769Y-99913867D01*
X137081332Y-99915769D01*
X137081334Y-99915770D01*
X137104005Y-99920279D01*
X137130252Y-99925500D01*
X138869748Y-99925500D01*
X138895995Y-99920279D01*
X138918666Y-99915770D01*
X138918668Y-99915769D01*
X138928231Y-99913867D01*
X138994552Y-99869552D01*
X139038867Y-99803231D01*
X139042988Y-99782516D01*
X139045279Y-99770995D01*
X139050500Y-99744748D01*
X139050500Y-98742631D01*
X144869443Y-98742631D01*
X144872093Y-98771752D01*
X144887661Y-98942817D01*
X144888114Y-98947797D01*
X144946280Y-99145428D01*
X144948519Y-99149712D01*
X144948520Y-99149713D01*
X144953404Y-99159055D01*
X145041726Y-99327998D01*
X145056426Y-99346281D01*
X145165648Y-99482126D01*
X145170815Y-99488553D01*
X145174526Y-99491667D01*
X145174527Y-99491668D01*
X145306278Y-99602220D01*
X145328630Y-99620976D01*
X145332878Y-99623311D01*
X145332879Y-99623312D01*
X145377670Y-99647936D01*
X145509162Y-99720224D01*
X145513775Y-99721687D01*
X145513779Y-99721689D01*
X145683689Y-99775587D01*
X145705532Y-99782516D01*
X145710344Y-99783056D01*
X145710345Y-99783056D01*
X145863108Y-99800191D01*
X145863110Y-99800191D01*
X145865864Y-99800500D01*
X146276841Y-99800500D01*
X146279236Y-99800265D01*
X146279240Y-99800265D01*
X146425220Y-99785952D01*
X146425224Y-99785951D01*
X146430030Y-99785480D01*
X146434655Y-99784084D01*
X146434658Y-99784083D01*
X146549161Y-99749512D01*
X146627251Y-99725935D01*
X146809151Y-99629218D01*
X146968800Y-99499011D01*
X147001305Y-99459719D01*
X147097035Y-99344002D01*
X147097036Y-99344000D01*
X147100118Y-99340275D01*
X147172891Y-99205683D01*
X147195803Y-99163309D01*
X147195803Y-99163308D01*
X147198103Y-99159055D01*
X147259023Y-98962254D01*
X147260055Y-98952441D01*
X147280051Y-98762185D01*
X147280051Y-98762183D01*
X147280557Y-98757369D01*
X147274998Y-98696281D01*
X147262325Y-98557022D01*
X147262324Y-98557017D01*
X147261886Y-98552203D01*
X147203720Y-98354572D01*
X147198098Y-98343817D01*
X147118349Y-98191274D01*
X147108274Y-98172002D01*
X147016370Y-98057696D01*
X146982219Y-98015220D01*
X146982217Y-98015217D01*
X146979185Y-98011447D01*
X146892441Y-97938660D01*
X146825085Y-97882141D01*
X146825083Y-97882140D01*
X146821370Y-97879024D01*
X146802242Y-97868508D01*
X146645085Y-97782111D01*
X146640838Y-97779776D01*
X146636225Y-97778313D01*
X146636221Y-97778311D01*
X146449083Y-97718948D01*
X146444468Y-97717484D01*
X146439656Y-97716944D01*
X146439655Y-97716944D01*
X146286892Y-97699809D01*
X146286890Y-97699809D01*
X146284136Y-97699500D01*
X145873159Y-97699500D01*
X145870764Y-97699735D01*
X145870760Y-97699735D01*
X145724780Y-97714048D01*
X145724776Y-97714049D01*
X145719970Y-97714520D01*
X145715345Y-97715916D01*
X145715342Y-97715917D01*
X145602869Y-97749875D01*
X145522749Y-97774065D01*
X145340849Y-97870782D01*
X145181200Y-98000989D01*
X145178116Y-98004717D01*
X145178115Y-98004718D01*
X145134242Y-98057752D01*
X145049882Y-98159725D01*
X145008999Y-98235336D01*
X144957890Y-98329862D01*
X144951897Y-98340945D01*
X144935685Y-98393317D01*
X144915757Y-98457696D01*
X144890977Y-98537746D01*
X144890472Y-98542554D01*
X144890471Y-98542557D01*
X144869949Y-98737815D01*
X144869443Y-98742631D01*
X139050500Y-98742631D01*
X139050500Y-98005252D01*
X139038867Y-97946769D01*
X138994552Y-97880448D01*
X138928231Y-97836133D01*
X138918668Y-97834231D01*
X138918666Y-97834230D01*
X138895995Y-97829721D01*
X138869748Y-97824500D01*
X137130252Y-97824500D01*
X137104005Y-97829721D01*
X137081334Y-97834230D01*
X137081332Y-97834231D01*
X137071769Y-97836133D01*
X137005448Y-97880448D01*
X136961133Y-97946769D01*
X136949500Y-98005252D01*
X136949500Y-99744748D01*
X116916082Y-99744748D01*
X116925616Y-99739890D01*
X117001817Y-99701064D01*
X117001819Y-99701063D01*
X117008756Y-99697528D01*
X117104064Y-99602220D01*
X117110148Y-99590281D01*
X117161719Y-99489066D01*
X117161719Y-99489065D01*
X117165255Y-99482126D01*
X117170017Y-99452064D01*
X117180483Y-99385978D01*
X117186340Y-99349000D01*
X117168660Y-99237374D01*
X117166474Y-99223569D01*
X117166474Y-99223568D01*
X117165255Y-99215874D01*
X117161719Y-99208934D01*
X117107600Y-99102719D01*
X117107599Y-99102717D01*
X117104064Y-99095780D01*
X117008756Y-99000472D01*
X117001819Y-98996937D01*
X117001817Y-98996936D01*
X116895602Y-98942817D01*
X116895601Y-98942817D01*
X116888662Y-98939281D01*
X116880967Y-98938062D01*
X116873558Y-98935655D01*
X116874462Y-98932874D01*
X116831787Y-98911126D01*
X116804013Y-98856607D01*
X116804014Y-98825641D01*
X116806935Y-98807198D01*
X116806935Y-98807197D01*
X116808154Y-98799500D01*
X116800314Y-98750000D01*
X119169196Y-98750000D01*
X119170415Y-98757696D01*
X119186014Y-98856183D01*
X119190281Y-98883126D01*
X119193817Y-98890065D01*
X119193817Y-98890066D01*
X119236874Y-98974569D01*
X119251472Y-99003220D01*
X119346780Y-99098528D01*
X119353717Y-99102063D01*
X119353719Y-99102064D01*
X119433123Y-99142522D01*
X119466874Y-99159719D01*
X119474568Y-99160938D01*
X119474569Y-99160938D01*
X119592304Y-99179585D01*
X119600000Y-99180804D01*
X119634953Y-99175268D01*
X119695384Y-99184839D01*
X119738648Y-99228104D01*
X119740004Y-99231377D01*
X119740281Y-99233126D01*
X119742675Y-99237824D01*
X119792708Y-99336019D01*
X119801472Y-99353220D01*
X119896780Y-99448528D01*
X119903717Y-99452063D01*
X119903719Y-99452064D01*
X119995858Y-99499011D01*
X120016874Y-99509719D01*
X120024568Y-99510938D01*
X120024569Y-99510938D01*
X120142304Y-99529585D01*
X120150000Y-99530804D01*
X120157696Y-99529585D01*
X120275431Y-99510938D01*
X120275432Y-99510938D01*
X120283126Y-99509719D01*
X120304142Y-99499011D01*
X120396281Y-99452064D01*
X120396283Y-99452063D01*
X120403220Y-99448528D01*
X120498528Y-99353220D01*
X120507293Y-99336019D01*
X120556183Y-99240066D01*
X120556183Y-99240065D01*
X120559719Y-99233126D01*
X120562452Y-99215874D01*
X120579585Y-99107696D01*
X120580804Y-99100000D01*
X120566348Y-99008726D01*
X120560938Y-98974569D01*
X120560938Y-98974568D01*
X120559719Y-98966874D01*
X120549999Y-98947797D01*
X120502064Y-98853719D01*
X120502063Y-98853717D01*
X120498528Y-98846780D01*
X120403220Y-98751472D01*
X120396283Y-98747937D01*
X120396281Y-98747936D01*
X120290066Y-98693817D01*
X120290065Y-98693817D01*
X120283126Y-98690281D01*
X120275432Y-98689062D01*
X120275431Y-98689062D01*
X120157696Y-98670415D01*
X120150000Y-98669196D01*
X120115047Y-98674732D01*
X120054616Y-98665161D01*
X120011352Y-98621896D01*
X120009996Y-98618623D01*
X120009719Y-98616874D01*
X119977285Y-98553219D01*
X119952064Y-98503719D01*
X119952063Y-98503717D01*
X119948528Y-98496780D01*
X119853220Y-98401472D01*
X119846283Y-98397937D01*
X119846281Y-98397936D01*
X119740066Y-98343817D01*
X119740065Y-98343817D01*
X119733126Y-98340281D01*
X119725432Y-98339062D01*
X119725431Y-98339062D01*
X119607696Y-98320415D01*
X119600000Y-98319196D01*
X119592304Y-98320415D01*
X119474569Y-98339062D01*
X119474568Y-98339062D01*
X119466874Y-98340281D01*
X119459935Y-98343817D01*
X119459934Y-98343817D01*
X119353719Y-98397936D01*
X119353717Y-98397937D01*
X119346780Y-98401472D01*
X119251472Y-98496780D01*
X119247937Y-98503717D01*
X119247936Y-98503719D01*
X119222715Y-98553219D01*
X119190281Y-98616874D01*
X119189062Y-98624568D01*
X119189062Y-98624569D01*
X119178094Y-98693817D01*
X119169196Y-98750000D01*
X116800314Y-98750000D01*
X116799095Y-98742304D01*
X116788288Y-98674069D01*
X116788288Y-98674068D01*
X116787069Y-98666374D01*
X116765768Y-98624569D01*
X116729414Y-98553219D01*
X116729413Y-98553217D01*
X116725878Y-98546280D01*
X116630570Y-98450972D01*
X116623633Y-98447437D01*
X116623631Y-98447436D01*
X116517416Y-98393317D01*
X116517415Y-98393317D01*
X116510476Y-98389781D01*
X116502782Y-98388562D01*
X116502781Y-98388562D01*
X116385046Y-98369915D01*
X116377350Y-98368696D01*
X116369654Y-98369915D01*
X116369653Y-98369915D01*
X116288944Y-98382698D01*
X116228512Y-98373127D01*
X116185247Y-98329862D01*
X116182551Y-98324569D01*
X116161807Y-98283857D01*
X116140620Y-98242275D01*
X116140619Y-98242273D01*
X116137084Y-98235336D01*
X116041776Y-98140028D01*
X116034839Y-98136493D01*
X116034837Y-98136492D01*
X115928622Y-98082373D01*
X115928621Y-98082373D01*
X115921682Y-98078837D01*
X115913988Y-98077618D01*
X115913987Y-98077618D01*
X115796252Y-98058971D01*
X115788556Y-98057752D01*
X115780860Y-98058971D01*
X115663125Y-98077618D01*
X115663124Y-98077618D01*
X115655430Y-98078837D01*
X115648491Y-98082373D01*
X115648490Y-98082373D01*
X115542275Y-98136492D01*
X115542273Y-98136493D01*
X115535336Y-98140028D01*
X115508560Y-98166804D01*
X115454043Y-98194581D01*
X115393611Y-98185010D01*
X115368552Y-98166804D01*
X115303220Y-98101472D01*
X115296283Y-98097937D01*
X115296281Y-98097936D01*
X115202201Y-98050000D01*
X123719196Y-98050000D01*
X123720415Y-98057696D01*
X123736575Y-98159725D01*
X123740281Y-98183126D01*
X123743817Y-98190065D01*
X123743817Y-98190066D01*
X123777811Y-98256782D01*
X123801472Y-98303220D01*
X123896780Y-98398528D01*
X123903717Y-98402063D01*
X123903719Y-98402064D01*
X123982695Y-98442304D01*
X124016874Y-98459719D01*
X124024568Y-98460938D01*
X124024569Y-98460938D01*
X124142304Y-98479585D01*
X124150000Y-98480804D01*
X124157696Y-98479585D01*
X124275431Y-98460938D01*
X124275432Y-98460938D01*
X124283126Y-98459719D01*
X124317305Y-98442304D01*
X124396281Y-98402064D01*
X124396283Y-98402063D01*
X124403220Y-98398528D01*
X124479996Y-98321752D01*
X124534513Y-98293975D01*
X124594945Y-98303546D01*
X124620004Y-98321752D01*
X124696780Y-98398528D01*
X124703717Y-98402063D01*
X124703719Y-98402064D01*
X124782695Y-98442304D01*
X124816874Y-98459719D01*
X124824568Y-98460938D01*
X124824569Y-98460938D01*
X124942304Y-98479585D01*
X124950000Y-98480804D01*
X124957696Y-98479585D01*
X125075431Y-98460938D01*
X125075432Y-98460938D01*
X125083126Y-98459719D01*
X125117305Y-98442304D01*
X125196281Y-98402064D01*
X125196283Y-98402063D01*
X125203220Y-98398528D01*
X125298528Y-98303220D01*
X125322190Y-98256782D01*
X125356183Y-98190066D01*
X125356183Y-98190065D01*
X125359719Y-98183126D01*
X125363426Y-98159725D01*
X125379585Y-98057696D01*
X125380804Y-98050000D01*
X125359719Y-97916874D01*
X125341159Y-97880448D01*
X125302064Y-97803719D01*
X125302063Y-97803717D01*
X125298528Y-97796780D01*
X125203220Y-97701472D01*
X125196283Y-97697937D01*
X125196281Y-97697936D01*
X125090066Y-97643817D01*
X125090065Y-97643817D01*
X125083126Y-97640281D01*
X125075432Y-97639062D01*
X125075431Y-97639062D01*
X124957696Y-97620415D01*
X124950000Y-97619196D01*
X124942304Y-97620415D01*
X124824569Y-97639062D01*
X124824568Y-97639062D01*
X124816874Y-97640281D01*
X124809935Y-97643817D01*
X124809934Y-97643817D01*
X124703719Y-97697936D01*
X124703717Y-97697937D01*
X124696780Y-97701472D01*
X124620004Y-97778248D01*
X124565487Y-97806025D01*
X124505055Y-97796454D01*
X124479996Y-97778248D01*
X124403220Y-97701472D01*
X124396283Y-97697937D01*
X124396281Y-97697936D01*
X124290066Y-97643817D01*
X124290065Y-97643817D01*
X124283126Y-97640281D01*
X124275432Y-97639062D01*
X124275431Y-97639062D01*
X124157696Y-97620415D01*
X124150000Y-97619196D01*
X124142304Y-97620415D01*
X124024569Y-97639062D01*
X124024568Y-97639062D01*
X124016874Y-97640281D01*
X124009935Y-97643817D01*
X124009934Y-97643817D01*
X123903719Y-97697936D01*
X123903717Y-97697937D01*
X123896780Y-97701472D01*
X123801472Y-97796780D01*
X123797937Y-97803717D01*
X123797936Y-97803719D01*
X123758841Y-97880448D01*
X123740281Y-97916874D01*
X123719196Y-98050000D01*
X115202201Y-98050000D01*
X115190066Y-98043817D01*
X115190065Y-98043817D01*
X115183126Y-98040281D01*
X115175432Y-98039062D01*
X115175431Y-98039062D01*
X115057696Y-98020415D01*
X115050000Y-98019196D01*
X115042304Y-98020415D01*
X114924569Y-98039062D01*
X114924568Y-98039062D01*
X114916874Y-98040281D01*
X114909935Y-98043817D01*
X114909934Y-98043817D01*
X114803719Y-98097936D01*
X114803717Y-98097937D01*
X114796780Y-98101472D01*
X114701472Y-98196780D01*
X114697937Y-98203717D01*
X114697936Y-98203719D01*
X114650774Y-98296281D01*
X114640281Y-98316874D01*
X114639062Y-98324568D01*
X114639062Y-98324569D01*
X114628927Y-98388562D01*
X114619196Y-98450000D01*
X100200500Y-98450000D01*
X100200500Y-97110000D01*
X104219534Y-97110000D01*
X104239313Y-97260236D01*
X104241797Y-97266233D01*
X104294819Y-97394240D01*
X104294821Y-97394244D01*
X104297302Y-97400233D01*
X104301248Y-97405375D01*
X104301250Y-97405379D01*
X104385598Y-97515302D01*
X104389549Y-97520451D01*
X104394698Y-97524402D01*
X104504621Y-97608750D01*
X104504625Y-97608752D01*
X104509767Y-97612698D01*
X104515756Y-97615179D01*
X104515760Y-97615181D01*
X104584894Y-97643817D01*
X104649764Y-97670687D01*
X104762280Y-97685500D01*
X104837720Y-97685500D01*
X104950236Y-97670687D01*
X105015106Y-97643817D01*
X105084240Y-97615181D01*
X105084244Y-97615179D01*
X105090233Y-97612698D01*
X105095375Y-97608752D01*
X105095379Y-97608750D01*
X105205302Y-97524402D01*
X105210451Y-97520451D01*
X105214402Y-97515302D01*
X105298750Y-97405379D01*
X105298752Y-97405375D01*
X105302698Y-97400233D01*
X105305179Y-97394244D01*
X105305181Y-97394240D01*
X105358203Y-97266233D01*
X105360687Y-97260236D01*
X105380466Y-97110000D01*
X105360687Y-96959764D01*
X105358203Y-96953767D01*
X105305181Y-96825760D01*
X105305179Y-96825756D01*
X105302698Y-96819767D01*
X105298752Y-96814625D01*
X105298750Y-96814621D01*
X105214402Y-96704698D01*
X105210451Y-96699549D01*
X105205302Y-96695598D01*
X105095379Y-96611250D01*
X105095375Y-96611248D01*
X105090233Y-96607302D01*
X105084244Y-96604821D01*
X105084240Y-96604819D01*
X104956233Y-96551797D01*
X104950236Y-96549313D01*
X104837720Y-96534500D01*
X104762280Y-96534500D01*
X104649764Y-96549313D01*
X104643767Y-96551797D01*
X104515760Y-96604819D01*
X104515756Y-96604821D01*
X104509767Y-96607302D01*
X104504625Y-96611248D01*
X104504621Y-96611250D01*
X104394698Y-96695598D01*
X104389549Y-96699549D01*
X104385598Y-96704698D01*
X104301250Y-96814621D01*
X104301248Y-96814625D01*
X104297302Y-96819767D01*
X104294821Y-96825756D01*
X104294819Y-96825760D01*
X104241797Y-96953767D01*
X104239313Y-96959764D01*
X104219534Y-97110000D01*
X100200500Y-97110000D01*
X100200500Y-96000000D01*
X113369196Y-96000000D01*
X113390281Y-96133126D01*
X113451472Y-96253220D01*
X113546780Y-96348528D01*
X113553717Y-96352063D01*
X113553719Y-96352064D01*
X113659934Y-96406183D01*
X113666874Y-96409719D01*
X113674568Y-96410938D01*
X113674569Y-96410938D01*
X113792304Y-96429585D01*
X113800000Y-96430804D01*
X113807696Y-96429585D01*
X113925431Y-96410938D01*
X113925432Y-96410938D01*
X113933126Y-96409719D01*
X113940066Y-96406183D01*
X114046281Y-96352064D01*
X114046283Y-96352063D01*
X114053220Y-96348528D01*
X114148528Y-96253220D01*
X114209719Y-96133126D01*
X114230804Y-96000000D01*
X114220212Y-95933126D01*
X114210938Y-95874569D01*
X114210938Y-95874568D01*
X114209719Y-95866874D01*
X114206183Y-95859934D01*
X114175645Y-95800000D01*
X141369196Y-95800000D01*
X141370415Y-95807696D01*
X141381007Y-95874569D01*
X141390281Y-95933126D01*
X141393817Y-95940065D01*
X141393817Y-95940066D01*
X141420434Y-95992304D01*
X141451472Y-96053220D01*
X141546780Y-96148528D01*
X141553717Y-96152063D01*
X141553719Y-96152064D01*
X141659934Y-96206183D01*
X141666874Y-96209719D01*
X141674568Y-96210938D01*
X141674569Y-96210938D01*
X141792304Y-96229585D01*
X141800000Y-96230804D01*
X141807696Y-96229585D01*
X141925431Y-96210938D01*
X141925432Y-96210938D01*
X141933126Y-96209719D01*
X141940066Y-96206183D01*
X142046281Y-96152064D01*
X142046283Y-96152063D01*
X142053220Y-96148528D01*
X142148528Y-96053220D01*
X142179567Y-95992304D01*
X142206183Y-95940066D01*
X142206183Y-95940065D01*
X142209719Y-95933126D01*
X142218994Y-95874569D01*
X142229585Y-95807696D01*
X142230804Y-95800000D01*
X142209719Y-95666874D01*
X142148528Y-95546780D01*
X142053220Y-95451472D01*
X142046283Y-95447937D01*
X142046281Y-95447936D01*
X141940066Y-95393817D01*
X141940065Y-95393817D01*
X141933126Y-95390281D01*
X141925432Y-95389062D01*
X141925431Y-95389062D01*
X141807696Y-95370415D01*
X141800000Y-95369196D01*
X141792304Y-95370415D01*
X141674569Y-95389062D01*
X141674568Y-95389062D01*
X141666874Y-95390281D01*
X141659935Y-95393817D01*
X141659934Y-95393817D01*
X141553719Y-95447936D01*
X141553717Y-95447937D01*
X141546780Y-95451472D01*
X141451472Y-95546780D01*
X141390281Y-95666874D01*
X141369196Y-95800000D01*
X114175645Y-95800000D01*
X114152064Y-95753719D01*
X114152063Y-95753717D01*
X114148528Y-95746780D01*
X114053220Y-95651472D01*
X114046283Y-95647937D01*
X114046281Y-95647936D01*
X113940066Y-95593817D01*
X113940065Y-95593817D01*
X113933126Y-95590281D01*
X113925432Y-95589062D01*
X113925431Y-95589062D01*
X113807696Y-95570415D01*
X113800000Y-95569196D01*
X113792304Y-95570415D01*
X113674569Y-95589062D01*
X113674568Y-95589062D01*
X113666874Y-95590281D01*
X113659935Y-95593817D01*
X113659934Y-95593817D01*
X113553719Y-95647936D01*
X113553717Y-95647937D01*
X113546780Y-95651472D01*
X113451472Y-95746780D01*
X113447937Y-95753717D01*
X113447936Y-95753719D01*
X113393817Y-95859934D01*
X113390281Y-95866874D01*
X113389062Y-95874568D01*
X113389062Y-95874569D01*
X113379788Y-95933126D01*
X113369196Y-96000000D01*
X100200500Y-96000000D01*
X100200500Y-94143823D01*
X106844391Y-94143823D01*
X106845306Y-94150820D01*
X106845306Y-94150821D01*
X106846814Y-94162354D01*
X106862980Y-94285979D01*
X106865821Y-94292435D01*
X106865821Y-94292436D01*
X106873586Y-94310082D01*
X106920720Y-94417203D01*
X106933792Y-94432754D01*
X107008431Y-94521549D01*
X107008434Y-94521551D01*
X107012970Y-94526948D01*
X107018841Y-94530856D01*
X107018842Y-94530857D01*
X107031143Y-94539045D01*
X107132313Y-94606390D01*
X107232920Y-94637821D01*
X107262425Y-94647039D01*
X107262426Y-94647039D01*
X107269157Y-94649142D01*
X107340828Y-94650456D01*
X107405445Y-94651641D01*
X107405447Y-94651641D01*
X107412499Y-94651770D01*
X107419302Y-94649915D01*
X107419304Y-94649915D01*
X107494503Y-94629413D01*
X107550817Y-94614060D01*
X107672991Y-94539045D01*
X107680403Y-94530857D01*
X107764468Y-94437982D01*
X107769200Y-94432754D01*
X107831710Y-94303733D01*
X107834010Y-94290066D01*
X107854862Y-94166124D01*
X107854862Y-94166120D01*
X107855496Y-94162354D01*
X107855647Y-94150000D01*
X107854762Y-94143823D01*
X111644391Y-94143823D01*
X111645306Y-94150820D01*
X111645306Y-94150821D01*
X111646814Y-94162354D01*
X111662980Y-94285979D01*
X111665821Y-94292435D01*
X111665821Y-94292436D01*
X111673586Y-94310082D01*
X111720720Y-94417203D01*
X111733792Y-94432754D01*
X111808431Y-94521549D01*
X111808434Y-94521551D01*
X111812970Y-94526948D01*
X111818841Y-94530856D01*
X111818842Y-94530857D01*
X111831143Y-94539045D01*
X111932313Y-94606390D01*
X112032920Y-94637821D01*
X112062425Y-94647039D01*
X112062426Y-94647039D01*
X112069157Y-94649142D01*
X112140828Y-94650456D01*
X112205445Y-94651641D01*
X112205447Y-94651641D01*
X112212499Y-94651770D01*
X112219302Y-94649915D01*
X112219304Y-94649915D01*
X112294503Y-94629413D01*
X112350817Y-94614060D01*
X112472991Y-94539045D01*
X112480403Y-94530857D01*
X112564468Y-94437982D01*
X112569200Y-94432754D01*
X112631710Y-94303733D01*
X112634010Y-94290066D01*
X112654862Y-94166124D01*
X112654862Y-94166120D01*
X112655496Y-94162354D01*
X112655647Y-94150000D01*
X116769196Y-94150000D01*
X116790281Y-94283126D01*
X116793817Y-94290065D01*
X116793817Y-94290066D01*
X116797236Y-94296775D01*
X116851472Y-94403220D01*
X116946780Y-94498528D01*
X116953717Y-94502063D01*
X116953719Y-94502064D01*
X117026299Y-94539045D01*
X117066874Y-94559719D01*
X117074568Y-94560938D01*
X117074569Y-94560938D01*
X117192304Y-94579585D01*
X117200000Y-94580804D01*
X117207696Y-94579585D01*
X117325431Y-94560938D01*
X117325432Y-94560938D01*
X117333126Y-94559719D01*
X117373701Y-94539045D01*
X117446281Y-94502064D01*
X117446283Y-94502063D01*
X117453220Y-94498528D01*
X117548528Y-94403220D01*
X117602765Y-94296775D01*
X117606183Y-94290066D01*
X117606183Y-94290065D01*
X117609719Y-94283126D01*
X117630804Y-94150000D01*
X117609719Y-94016874D01*
X117548528Y-93896780D01*
X117453220Y-93801472D01*
X117446283Y-93797937D01*
X117446281Y-93797936D01*
X117340066Y-93743817D01*
X117340065Y-93743817D01*
X117333126Y-93740281D01*
X117325432Y-93739062D01*
X117325431Y-93739062D01*
X117207696Y-93720415D01*
X117200000Y-93719196D01*
X117192304Y-93720415D01*
X117074569Y-93739062D01*
X117074568Y-93739062D01*
X117066874Y-93740281D01*
X117059935Y-93743817D01*
X117059934Y-93743817D01*
X116953719Y-93797936D01*
X116953717Y-93797937D01*
X116946780Y-93801472D01*
X116851472Y-93896780D01*
X116790281Y-94016874D01*
X116769196Y-94150000D01*
X112655647Y-94150000D01*
X112635323Y-94008082D01*
X112575984Y-93877572D01*
X112482400Y-93768963D01*
X112362095Y-93690985D01*
X112224739Y-93649907D01*
X112141497Y-93649398D01*
X112088427Y-93649074D01*
X112088426Y-93649074D01*
X112081376Y-93649031D01*
X112074599Y-93650968D01*
X112074598Y-93650968D01*
X111950309Y-93686490D01*
X111950307Y-93686491D01*
X111943529Y-93688428D01*
X111822280Y-93764930D01*
X111817613Y-93770214D01*
X111817611Y-93770216D01*
X111732044Y-93867103D01*
X111732042Y-93867105D01*
X111727377Y-93872388D01*
X111666447Y-94002163D01*
X111665362Y-94009132D01*
X111665361Y-94009135D01*
X111662958Y-94024569D01*
X111644391Y-94143823D01*
X107854762Y-94143823D01*
X107835323Y-94008082D01*
X107775984Y-93877572D01*
X107682400Y-93768963D01*
X107562095Y-93690985D01*
X107424739Y-93649907D01*
X107341497Y-93649398D01*
X107288427Y-93649074D01*
X107288426Y-93649074D01*
X107281376Y-93649031D01*
X107274599Y-93650968D01*
X107274598Y-93650968D01*
X107150309Y-93686490D01*
X107150307Y-93686491D01*
X107143529Y-93688428D01*
X107022280Y-93764930D01*
X107017613Y-93770214D01*
X107017611Y-93770216D01*
X106932044Y-93867103D01*
X106932042Y-93867105D01*
X106927377Y-93872388D01*
X106866447Y-94002163D01*
X106865362Y-94009132D01*
X106865361Y-94009135D01*
X106862958Y-94024569D01*
X106844391Y-94143823D01*
X100200500Y-94143823D01*
X100200500Y-92000000D01*
X100644341Y-92000000D01*
X100664937Y-92235408D01*
X100726097Y-92463663D01*
X100825965Y-92677829D01*
X100961505Y-92871401D01*
X101128599Y-93038495D01*
X101322171Y-93174035D01*
X101536337Y-93273903D01*
X101764592Y-93335063D01*
X101849431Y-93342486D01*
X101938870Y-93350311D01*
X101938878Y-93350311D01*
X101941034Y-93350500D01*
X102058966Y-93350500D01*
X102061122Y-93350311D01*
X102061130Y-93350311D01*
X102150569Y-93342486D01*
X102235408Y-93335063D01*
X102463663Y-93273903D01*
X102677829Y-93174035D01*
X102871401Y-93038495D01*
X103038495Y-92871401D01*
X103088490Y-92800000D01*
X106469196Y-92800000D01*
X106470415Y-92807696D01*
X106478655Y-92859719D01*
X106490281Y-92933126D01*
X106493817Y-92940065D01*
X106493817Y-92940066D01*
X106536874Y-93024569D01*
X106551472Y-93053220D01*
X106646780Y-93148528D01*
X106653717Y-93152063D01*
X106653719Y-93152064D01*
X106759934Y-93206183D01*
X106766874Y-93209719D01*
X106774568Y-93210938D01*
X106774569Y-93210938D01*
X106892304Y-93229585D01*
X106900000Y-93230804D01*
X106907696Y-93229585D01*
X107025431Y-93210938D01*
X107025432Y-93210938D01*
X107033126Y-93209719D01*
X107040066Y-93206183D01*
X107146281Y-93152064D01*
X107146283Y-93152063D01*
X107153220Y-93148528D01*
X107248528Y-93053220D01*
X107263127Y-93024569D01*
X107306183Y-92940066D01*
X107306183Y-92940065D01*
X107309719Y-92933126D01*
X107321346Y-92859719D01*
X107329585Y-92807696D01*
X107330804Y-92800000D01*
X109869196Y-92800000D01*
X109870415Y-92807696D01*
X109878655Y-92859719D01*
X109890281Y-92933126D01*
X109893817Y-92940065D01*
X109893817Y-92940066D01*
X109936874Y-93024569D01*
X109951472Y-93053220D01*
X110046780Y-93148528D01*
X110053717Y-93152063D01*
X110053719Y-93152064D01*
X110159934Y-93206183D01*
X110166874Y-93209719D01*
X110174568Y-93210938D01*
X110174569Y-93210938D01*
X110292304Y-93229585D01*
X110300000Y-93230804D01*
X110307696Y-93229585D01*
X110425431Y-93210938D01*
X110425432Y-93210938D01*
X110433126Y-93209719D01*
X110440066Y-93206183D01*
X110546281Y-93152064D01*
X110546283Y-93152063D01*
X110550331Y-93150000D01*
X118569196Y-93150000D01*
X118570415Y-93157696D01*
X118588531Y-93272075D01*
X118590281Y-93283126D01*
X118651472Y-93403220D01*
X118746780Y-93498528D01*
X118753717Y-93502063D01*
X118753719Y-93502064D01*
X118859934Y-93556183D01*
X118866874Y-93559719D01*
X118874568Y-93560938D01*
X118874569Y-93560938D01*
X118992304Y-93579585D01*
X119000000Y-93580804D01*
X119007696Y-93579585D01*
X119125431Y-93560938D01*
X119125432Y-93560938D01*
X119133126Y-93559719D01*
X119140066Y-93556183D01*
X119246281Y-93502064D01*
X119246283Y-93502063D01*
X119253220Y-93498528D01*
X119348528Y-93403220D01*
X119409719Y-93283126D01*
X119411470Y-93272075D01*
X119429585Y-93157696D01*
X119430804Y-93150000D01*
X119413536Y-93040974D01*
X119410938Y-93024569D01*
X119410938Y-93024568D01*
X119409719Y-93016874D01*
X119406183Y-93009934D01*
X119352064Y-92903719D01*
X119352063Y-92903717D01*
X119348528Y-92896780D01*
X119253220Y-92801472D01*
X119246283Y-92797937D01*
X119246281Y-92797936D01*
X119140066Y-92743817D01*
X119140065Y-92743817D01*
X119133126Y-92740281D01*
X119125432Y-92739062D01*
X119125431Y-92739062D01*
X119007696Y-92720415D01*
X119000000Y-92719196D01*
X118992304Y-92720415D01*
X118874569Y-92739062D01*
X118874568Y-92739062D01*
X118866874Y-92740281D01*
X118859935Y-92743817D01*
X118859934Y-92743817D01*
X118753719Y-92797936D01*
X118753717Y-92797937D01*
X118746780Y-92801472D01*
X118651472Y-92896780D01*
X118647937Y-92903717D01*
X118647936Y-92903719D01*
X118593817Y-93009934D01*
X118590281Y-93016874D01*
X118589062Y-93024568D01*
X118589062Y-93024569D01*
X118586464Y-93040974D01*
X118569196Y-93150000D01*
X110550331Y-93150000D01*
X110553220Y-93148528D01*
X110648528Y-93053220D01*
X110663127Y-93024569D01*
X110706183Y-92940066D01*
X110706183Y-92940065D01*
X110709719Y-92933126D01*
X110721346Y-92859719D01*
X110729585Y-92807696D01*
X110730804Y-92800000D01*
X110721906Y-92743817D01*
X110710938Y-92674569D01*
X110710938Y-92674568D01*
X110709719Y-92666874D01*
X110675208Y-92599142D01*
X110652064Y-92553719D01*
X110652063Y-92553717D01*
X110648528Y-92546780D01*
X110553220Y-92451472D01*
X110550331Y-92450000D01*
X112469196Y-92450000D01*
X112470415Y-92457696D01*
X112483705Y-92541604D01*
X112490281Y-92583126D01*
X112493817Y-92590065D01*
X112493817Y-92590066D01*
X112538535Y-92677829D01*
X112551472Y-92703220D01*
X112646780Y-92798528D01*
X112653717Y-92802063D01*
X112653719Y-92802064D01*
X112759934Y-92856183D01*
X112766874Y-92859719D01*
X112774568Y-92860938D01*
X112774569Y-92860938D01*
X112892304Y-92879585D01*
X112900000Y-92880804D01*
X112907696Y-92879585D01*
X113025431Y-92860938D01*
X113025432Y-92860938D01*
X113033126Y-92859719D01*
X113040066Y-92856183D01*
X113146281Y-92802064D01*
X113146283Y-92802063D01*
X113153220Y-92798528D01*
X113248528Y-92703220D01*
X113261466Y-92677829D01*
X113306183Y-92590066D01*
X113306183Y-92590065D01*
X113309719Y-92583126D01*
X113316296Y-92541604D01*
X113329585Y-92457696D01*
X113330804Y-92450000D01*
X113321906Y-92393817D01*
X113310938Y-92324569D01*
X113310938Y-92324568D01*
X113309719Y-92316874D01*
X113271791Y-92242436D01*
X113252064Y-92203719D01*
X113252063Y-92203717D01*
X113248528Y-92196780D01*
X113153220Y-92101472D01*
X113146283Y-92097937D01*
X113146281Y-92097936D01*
X113040066Y-92043817D01*
X113040065Y-92043817D01*
X113033126Y-92040281D01*
X113025432Y-92039062D01*
X113025431Y-92039062D01*
X112907696Y-92020415D01*
X112900000Y-92019196D01*
X112892304Y-92020415D01*
X112774569Y-92039062D01*
X112774568Y-92039062D01*
X112766874Y-92040281D01*
X112759935Y-92043817D01*
X112759934Y-92043817D01*
X112653719Y-92097936D01*
X112653717Y-92097937D01*
X112646780Y-92101472D01*
X112551472Y-92196780D01*
X112547937Y-92203717D01*
X112547936Y-92203719D01*
X112528209Y-92242436D01*
X112490281Y-92316874D01*
X112489062Y-92324568D01*
X112489062Y-92324569D01*
X112478094Y-92393817D01*
X112469196Y-92450000D01*
X110550331Y-92450000D01*
X110546283Y-92447937D01*
X110546281Y-92447936D01*
X110440066Y-92393817D01*
X110440065Y-92393817D01*
X110433126Y-92390281D01*
X110425432Y-92389062D01*
X110425431Y-92389062D01*
X110336978Y-92375053D01*
X110300000Y-92369196D01*
X110263022Y-92375053D01*
X110174569Y-92389062D01*
X110174568Y-92389062D01*
X110166874Y-92390281D01*
X110159935Y-92393817D01*
X110159934Y-92393817D01*
X110053719Y-92447936D01*
X110053717Y-92447937D01*
X110046780Y-92451472D01*
X109951472Y-92546780D01*
X109947937Y-92553717D01*
X109947936Y-92553719D01*
X109924792Y-92599142D01*
X109890281Y-92666874D01*
X109889062Y-92674568D01*
X109889062Y-92674569D01*
X109878094Y-92743817D01*
X109869196Y-92800000D01*
X107330804Y-92800000D01*
X107321906Y-92743817D01*
X107310938Y-92674569D01*
X107310938Y-92674568D01*
X107309719Y-92666874D01*
X107275208Y-92599142D01*
X107252064Y-92553719D01*
X107252063Y-92553717D01*
X107248528Y-92546780D01*
X107153220Y-92451472D01*
X107146283Y-92447937D01*
X107146281Y-92447936D01*
X107040066Y-92393817D01*
X107040065Y-92393817D01*
X107033126Y-92390281D01*
X107025432Y-92389062D01*
X107025431Y-92389062D01*
X106936978Y-92375053D01*
X106900000Y-92369196D01*
X106863022Y-92375053D01*
X106774569Y-92389062D01*
X106774568Y-92389062D01*
X106766874Y-92390281D01*
X106759935Y-92393817D01*
X106759934Y-92393817D01*
X106653719Y-92447936D01*
X106653717Y-92447937D01*
X106646780Y-92451472D01*
X106551472Y-92546780D01*
X106547937Y-92553717D01*
X106547936Y-92553719D01*
X106524792Y-92599142D01*
X106490281Y-92666874D01*
X106489062Y-92674568D01*
X106489062Y-92674569D01*
X106478094Y-92743817D01*
X106469196Y-92800000D01*
X103088490Y-92800000D01*
X103145070Y-92719196D01*
X103171553Y-92681375D01*
X103171554Y-92681373D01*
X103174035Y-92677830D01*
X103273903Y-92463663D01*
X103335063Y-92235408D01*
X103355659Y-92000000D01*
X103335063Y-91764592D01*
X103273903Y-91536337D01*
X103210328Y-91400000D01*
X106244318Y-91400000D01*
X106264956Y-91556762D01*
X106325464Y-91702841D01*
X106421718Y-91828282D01*
X106547159Y-91924536D01*
X106693238Y-91985044D01*
X106810639Y-92000500D01*
X106889361Y-92000500D01*
X107006762Y-91985044D01*
X107152841Y-91924536D01*
X107278282Y-91828282D01*
X107374536Y-91702841D01*
X107435044Y-91556762D01*
X107455682Y-91400000D01*
X107944318Y-91400000D01*
X107964956Y-91556762D01*
X108025464Y-91702841D01*
X108121718Y-91828282D01*
X108247159Y-91924536D01*
X108393238Y-91985044D01*
X108510639Y-92000500D01*
X108589361Y-92000500D01*
X108706762Y-91985044D01*
X108852841Y-91924536D01*
X108978282Y-91828282D01*
X109074536Y-91702841D01*
X109135044Y-91556762D01*
X109155682Y-91400000D01*
X114844318Y-91400000D01*
X114864956Y-91556762D01*
X114925464Y-91702841D01*
X115021718Y-91828282D01*
X115147159Y-91924536D01*
X115293238Y-91985044D01*
X115410639Y-92000500D01*
X115489361Y-92000500D01*
X115606762Y-91985044D01*
X115752841Y-91924536D01*
X115878282Y-91828282D01*
X115974536Y-91702841D01*
X116035044Y-91556762D01*
X116055682Y-91400000D01*
X116544318Y-91400000D01*
X116564956Y-91556762D01*
X116625464Y-91702841D01*
X116721718Y-91828282D01*
X116847159Y-91924536D01*
X116993238Y-91985044D01*
X117110639Y-92000500D01*
X117189361Y-92000500D01*
X117306762Y-91985044D01*
X117401563Y-91945776D01*
X117442226Y-91928933D01*
X117503223Y-91924132D01*
X117555392Y-91956102D01*
X117577893Y-92004910D01*
X117590281Y-92083126D01*
X117593817Y-92090065D01*
X117593817Y-92090066D01*
X117603227Y-92108533D01*
X117651472Y-92203220D01*
X117746780Y-92298528D01*
X117753717Y-92302063D01*
X117753719Y-92302064D01*
X117797888Y-92324569D01*
X117866874Y-92359719D01*
X117874568Y-92360938D01*
X117874569Y-92360938D01*
X117934406Y-92370415D01*
X117977896Y-92377303D01*
X117992304Y-92379585D01*
X118000000Y-92380804D01*
X118007696Y-92379585D01*
X118022105Y-92377303D01*
X118065594Y-92370415D01*
X118125431Y-92360938D01*
X118125432Y-92360938D01*
X118133126Y-92359719D01*
X118202112Y-92324569D01*
X118246281Y-92302064D01*
X118246283Y-92302063D01*
X118253220Y-92298528D01*
X118348528Y-92203220D01*
X118396774Y-92108533D01*
X118404269Y-92093823D01*
X121694391Y-92093823D01*
X121695306Y-92100820D01*
X121695306Y-92100821D01*
X121709416Y-92208726D01*
X121712980Y-92235979D01*
X121715821Y-92242435D01*
X121715821Y-92242436D01*
X121751961Y-92324569D01*
X121770720Y-92367203D01*
X121816845Y-92422076D01*
X121858431Y-92471549D01*
X121858434Y-92471551D01*
X121862970Y-92476948D01*
X121868841Y-92480856D01*
X121868842Y-92480857D01*
X121881143Y-92489045D01*
X121982313Y-92556390D01*
X122082920Y-92587821D01*
X122112425Y-92597039D01*
X122112426Y-92597039D01*
X122119157Y-92599142D01*
X122190828Y-92600456D01*
X122255445Y-92601641D01*
X122255447Y-92601641D01*
X122262499Y-92601770D01*
X122269302Y-92599915D01*
X122269304Y-92599915D01*
X122359109Y-92575431D01*
X122400817Y-92564060D01*
X122522991Y-92489045D01*
X122530403Y-92480857D01*
X122614468Y-92387982D01*
X122619200Y-92382754D01*
X122681710Y-92253733D01*
X122684010Y-92240066D01*
X122704862Y-92116124D01*
X122704862Y-92116120D01*
X122705496Y-92112354D01*
X122705647Y-92100000D01*
X123769196Y-92100000D01*
X123790281Y-92233126D01*
X123793817Y-92240065D01*
X123793817Y-92240066D01*
X123836874Y-92324569D01*
X123851472Y-92353220D01*
X123946780Y-92448528D01*
X123953717Y-92452063D01*
X123953719Y-92452064D01*
X124026299Y-92489045D01*
X124066874Y-92509719D01*
X124074568Y-92510938D01*
X124074569Y-92510938D01*
X124192304Y-92529585D01*
X124200000Y-92530804D01*
X124207696Y-92529585D01*
X124325431Y-92510938D01*
X124325432Y-92510938D01*
X124333126Y-92509719D01*
X124373701Y-92489045D01*
X124446281Y-92452064D01*
X124446283Y-92452063D01*
X124453220Y-92448528D01*
X124548528Y-92353220D01*
X124563127Y-92324569D01*
X124606183Y-92240066D01*
X124606183Y-92240065D01*
X124609719Y-92233126D01*
X124630804Y-92100000D01*
X124629826Y-92093823D01*
X129944391Y-92093823D01*
X129945306Y-92100820D01*
X129945306Y-92100821D01*
X129959416Y-92208726D01*
X129962980Y-92235979D01*
X129965821Y-92242435D01*
X129965821Y-92242436D01*
X130001961Y-92324569D01*
X130020720Y-92367203D01*
X130066845Y-92422076D01*
X130108431Y-92471549D01*
X130108434Y-92471551D01*
X130112970Y-92476948D01*
X130118841Y-92480856D01*
X130118842Y-92480857D01*
X130131143Y-92489045D01*
X130232313Y-92556390D01*
X130332920Y-92587821D01*
X130362425Y-92597039D01*
X130362426Y-92597039D01*
X130369157Y-92599142D01*
X130440828Y-92600456D01*
X130505445Y-92601641D01*
X130505447Y-92601641D01*
X130512499Y-92601770D01*
X130519302Y-92599915D01*
X130519304Y-92599915D01*
X130609109Y-92575431D01*
X130650817Y-92564060D01*
X130772991Y-92489045D01*
X130780403Y-92480857D01*
X130808333Y-92450000D01*
X132019196Y-92450000D01*
X132020415Y-92457696D01*
X132033705Y-92541604D01*
X132040281Y-92583126D01*
X132043817Y-92590065D01*
X132043817Y-92590066D01*
X132088535Y-92677829D01*
X132101472Y-92703220D01*
X132196780Y-92798528D01*
X132203717Y-92802063D01*
X132203719Y-92802064D01*
X132309934Y-92856183D01*
X132316874Y-92859719D01*
X132324568Y-92860938D01*
X132324569Y-92860938D01*
X132442304Y-92879585D01*
X132450000Y-92880804D01*
X132457696Y-92879585D01*
X132575431Y-92860938D01*
X132575432Y-92860938D01*
X132583126Y-92859719D01*
X132590066Y-92856183D01*
X132696281Y-92802064D01*
X132696283Y-92802063D01*
X132703220Y-92798528D01*
X132798528Y-92703220D01*
X132811466Y-92677829D01*
X132859719Y-92583126D01*
X132861123Y-92583841D01*
X132891809Y-92541605D01*
X132949999Y-92522697D01*
X133008190Y-92541604D01*
X133038877Y-92583841D01*
X133040281Y-92583126D01*
X133088535Y-92677829D01*
X133101472Y-92703220D01*
X133196780Y-92798528D01*
X133203717Y-92802063D01*
X133203719Y-92802064D01*
X133309934Y-92856183D01*
X133316874Y-92859719D01*
X133324568Y-92860938D01*
X133324569Y-92860938D01*
X133442304Y-92879585D01*
X133450000Y-92880804D01*
X133457696Y-92879585D01*
X133575431Y-92860938D01*
X133575432Y-92860938D01*
X133583126Y-92859719D01*
X133590066Y-92856183D01*
X133696281Y-92802064D01*
X133696283Y-92802063D01*
X133703220Y-92798528D01*
X133798528Y-92703220D01*
X133811466Y-92677829D01*
X133859719Y-92583126D01*
X133861123Y-92583841D01*
X133891809Y-92541605D01*
X133949999Y-92522697D01*
X134008190Y-92541604D01*
X134038877Y-92583841D01*
X134040281Y-92583126D01*
X134088535Y-92677829D01*
X134101472Y-92703220D01*
X134196780Y-92798528D01*
X134203717Y-92802063D01*
X134203719Y-92802064D01*
X134309934Y-92856183D01*
X134316874Y-92859719D01*
X134324568Y-92860938D01*
X134324569Y-92860938D01*
X134442304Y-92879585D01*
X134450000Y-92880804D01*
X134457696Y-92879585D01*
X134575431Y-92860938D01*
X134575432Y-92860938D01*
X134583126Y-92859719D01*
X134590066Y-92856183D01*
X134696281Y-92802064D01*
X134696283Y-92802063D01*
X134703220Y-92798528D01*
X134798528Y-92703220D01*
X134811466Y-92677829D01*
X134859719Y-92583126D01*
X134861123Y-92583841D01*
X134891809Y-92541605D01*
X134949999Y-92522697D01*
X135008190Y-92541604D01*
X135038877Y-92583841D01*
X135040281Y-92583126D01*
X135088535Y-92677829D01*
X135101472Y-92703220D01*
X135196780Y-92798528D01*
X135203717Y-92802063D01*
X135203719Y-92802064D01*
X135309934Y-92856183D01*
X135316874Y-92859719D01*
X135324568Y-92860938D01*
X135324569Y-92860938D01*
X135442304Y-92879585D01*
X135450000Y-92880804D01*
X135457696Y-92879585D01*
X135575431Y-92860938D01*
X135575432Y-92860938D01*
X135583126Y-92859719D01*
X135590066Y-92856183D01*
X135696281Y-92802064D01*
X135696283Y-92802063D01*
X135703220Y-92798528D01*
X135798528Y-92703220D01*
X135811466Y-92677829D01*
X135856183Y-92590066D01*
X135856183Y-92590065D01*
X135859719Y-92583126D01*
X135866296Y-92541604D01*
X135879585Y-92457696D01*
X135880804Y-92450000D01*
X135871906Y-92393817D01*
X135860938Y-92324569D01*
X135860938Y-92324568D01*
X135859719Y-92316874D01*
X135821791Y-92242436D01*
X135802064Y-92203719D01*
X135802063Y-92203717D01*
X135798528Y-92196780D01*
X135703220Y-92101472D01*
X135696283Y-92097937D01*
X135696281Y-92097936D01*
X135688209Y-92093823D01*
X139194391Y-92093823D01*
X139195306Y-92100820D01*
X139195306Y-92100821D01*
X139209416Y-92208726D01*
X139212980Y-92235979D01*
X139215821Y-92242435D01*
X139215821Y-92242436D01*
X139251961Y-92324569D01*
X139270720Y-92367203D01*
X139316845Y-92422076D01*
X139358431Y-92471549D01*
X139358434Y-92471551D01*
X139362970Y-92476948D01*
X139368841Y-92480856D01*
X139368842Y-92480857D01*
X139381143Y-92489045D01*
X139482313Y-92556390D01*
X139582920Y-92587821D01*
X139612425Y-92597039D01*
X139612426Y-92597039D01*
X139619157Y-92599142D01*
X139690828Y-92600456D01*
X139755445Y-92601641D01*
X139755447Y-92601641D01*
X139762499Y-92601770D01*
X139769302Y-92599915D01*
X139769304Y-92599915D01*
X139859109Y-92575431D01*
X139900817Y-92564060D01*
X140022991Y-92489045D01*
X140030403Y-92480857D01*
X140058333Y-92450000D01*
X141269196Y-92450000D01*
X141270415Y-92457696D01*
X141283705Y-92541604D01*
X141290281Y-92583126D01*
X141293817Y-92590065D01*
X141293817Y-92590066D01*
X141338535Y-92677829D01*
X141351472Y-92703220D01*
X141446780Y-92798528D01*
X141453717Y-92802063D01*
X141453719Y-92802064D01*
X141559934Y-92856183D01*
X141566874Y-92859719D01*
X141574568Y-92860938D01*
X141574569Y-92860938D01*
X141692304Y-92879585D01*
X141700000Y-92880804D01*
X141707696Y-92879585D01*
X141825431Y-92860938D01*
X141825432Y-92860938D01*
X141833126Y-92859719D01*
X141840066Y-92856183D01*
X141946281Y-92802064D01*
X141946283Y-92802063D01*
X141953220Y-92798528D01*
X142048528Y-92703220D01*
X142061466Y-92677829D01*
X142109719Y-92583126D01*
X142111123Y-92583841D01*
X142141809Y-92541605D01*
X142199999Y-92522697D01*
X142258190Y-92541604D01*
X142288877Y-92583841D01*
X142290281Y-92583126D01*
X142338535Y-92677829D01*
X142351472Y-92703220D01*
X142446780Y-92798528D01*
X142453717Y-92802063D01*
X142453719Y-92802064D01*
X142559934Y-92856183D01*
X142566874Y-92859719D01*
X142574568Y-92860938D01*
X142574569Y-92860938D01*
X142692304Y-92879585D01*
X142700000Y-92880804D01*
X142707696Y-92879585D01*
X142825431Y-92860938D01*
X142825432Y-92860938D01*
X142833126Y-92859719D01*
X142840066Y-92856183D01*
X142946281Y-92802064D01*
X142946283Y-92802063D01*
X142953220Y-92798528D01*
X143048528Y-92703220D01*
X143061466Y-92677829D01*
X143106183Y-92590066D01*
X143106183Y-92590065D01*
X143109719Y-92583126D01*
X143116296Y-92541604D01*
X143129585Y-92457696D01*
X143130804Y-92450000D01*
X143121906Y-92393817D01*
X143110938Y-92324569D01*
X143110938Y-92324568D01*
X143109719Y-92316874D01*
X143071791Y-92242436D01*
X143052064Y-92203719D01*
X143052063Y-92203717D01*
X143048528Y-92196780D01*
X142953220Y-92101472D01*
X142946283Y-92097937D01*
X142946281Y-92097936D01*
X142840066Y-92043817D01*
X142840065Y-92043817D01*
X142833126Y-92040281D01*
X142825432Y-92039062D01*
X142825431Y-92039062D01*
X142707696Y-92020415D01*
X142700000Y-92019196D01*
X142692304Y-92020415D01*
X142574569Y-92039062D01*
X142574568Y-92039062D01*
X142566874Y-92040281D01*
X142559935Y-92043817D01*
X142559934Y-92043817D01*
X142453719Y-92097936D01*
X142453717Y-92097937D01*
X142446780Y-92101472D01*
X142351472Y-92196780D01*
X142347937Y-92203717D01*
X142347936Y-92203719D01*
X142328209Y-92242436D01*
X142290281Y-92316874D01*
X142288877Y-92316159D01*
X142258191Y-92358395D01*
X142200001Y-92377303D01*
X142141810Y-92358396D01*
X142111123Y-92316159D01*
X142109719Y-92316874D01*
X142052064Y-92203719D01*
X142052063Y-92203717D01*
X142048528Y-92196780D01*
X141953220Y-92101472D01*
X141946283Y-92097937D01*
X141946281Y-92097936D01*
X141840066Y-92043817D01*
X141840065Y-92043817D01*
X141833126Y-92040281D01*
X141825432Y-92039062D01*
X141825431Y-92039062D01*
X141707696Y-92020415D01*
X141700000Y-92019196D01*
X141692304Y-92020415D01*
X141574569Y-92039062D01*
X141574568Y-92039062D01*
X141566874Y-92040281D01*
X141559935Y-92043817D01*
X141559934Y-92043817D01*
X141453719Y-92097936D01*
X141453717Y-92097937D01*
X141446780Y-92101472D01*
X141351472Y-92196780D01*
X141347937Y-92203717D01*
X141347936Y-92203719D01*
X141328209Y-92242436D01*
X141290281Y-92316874D01*
X141289062Y-92324568D01*
X141289062Y-92324569D01*
X141278094Y-92393817D01*
X141269196Y-92450000D01*
X140058333Y-92450000D01*
X140114468Y-92387982D01*
X140119200Y-92382754D01*
X140181710Y-92253733D01*
X140184010Y-92240066D01*
X140204862Y-92116124D01*
X140204862Y-92116120D01*
X140205496Y-92112354D01*
X140205647Y-92100000D01*
X140191326Y-92000000D01*
X146644341Y-92000000D01*
X146664937Y-92235408D01*
X146726097Y-92463663D01*
X146825965Y-92677829D01*
X146961505Y-92871401D01*
X147128599Y-93038495D01*
X147322171Y-93174035D01*
X147536337Y-93273903D01*
X147764592Y-93335063D01*
X147849431Y-93342486D01*
X147938870Y-93350311D01*
X147938878Y-93350311D01*
X147941034Y-93350500D01*
X148058966Y-93350500D01*
X148061122Y-93350311D01*
X148061130Y-93350311D01*
X148150569Y-93342486D01*
X148235408Y-93335063D01*
X148463663Y-93273903D01*
X148677829Y-93174035D01*
X148871401Y-93038495D01*
X149038495Y-92871401D01*
X149145070Y-92719196D01*
X149171553Y-92681375D01*
X149171554Y-92681373D01*
X149174035Y-92677830D01*
X149273903Y-92463663D01*
X149335063Y-92235408D01*
X149355659Y-92000000D01*
X149335063Y-91764592D01*
X149273903Y-91536337D01*
X149174035Y-91322171D01*
X149038495Y-91128599D01*
X148871401Y-90961505D01*
X148717482Y-90853730D01*
X148681374Y-90828447D01*
X148681372Y-90828446D01*
X148677829Y-90825965D01*
X148463663Y-90726097D01*
X148235408Y-90664937D01*
X148150569Y-90657514D01*
X148061130Y-90649689D01*
X148061122Y-90649689D01*
X148058966Y-90649500D01*
X147941034Y-90649500D01*
X147938878Y-90649689D01*
X147938870Y-90649689D01*
X147849431Y-90657514D01*
X147764592Y-90664937D01*
X147536337Y-90726097D01*
X147322171Y-90825965D01*
X147318628Y-90828446D01*
X147318626Y-90828447D01*
X147282518Y-90853730D01*
X147128599Y-90961505D01*
X146961505Y-91128599D01*
X146959026Y-91132140D01*
X146828447Y-91318625D01*
X146828446Y-91318627D01*
X146825965Y-91322170D01*
X146726097Y-91536337D01*
X146664937Y-91764592D01*
X146644341Y-92000000D01*
X140191326Y-92000000D01*
X140185323Y-91958082D01*
X140125984Y-91827572D01*
X140032400Y-91718963D01*
X139912095Y-91640985D01*
X139774739Y-91599907D01*
X139691497Y-91599398D01*
X139638427Y-91599074D01*
X139638426Y-91599074D01*
X139631376Y-91599031D01*
X139624599Y-91600968D01*
X139624598Y-91600968D01*
X139500309Y-91636490D01*
X139500307Y-91636491D01*
X139493529Y-91638428D01*
X139372280Y-91714930D01*
X139367613Y-91720214D01*
X139367611Y-91720216D01*
X139282044Y-91817103D01*
X139282042Y-91817105D01*
X139277377Y-91822388D01*
X139216447Y-91952163D01*
X139215362Y-91959132D01*
X139215361Y-91959135D01*
X139209670Y-91995691D01*
X139194391Y-92093823D01*
X135688209Y-92093823D01*
X135590066Y-92043817D01*
X135590065Y-92043817D01*
X135583126Y-92040281D01*
X135575432Y-92039062D01*
X135575431Y-92039062D01*
X135457696Y-92020415D01*
X135450000Y-92019196D01*
X135442304Y-92020415D01*
X135324569Y-92039062D01*
X135324568Y-92039062D01*
X135316874Y-92040281D01*
X135309935Y-92043817D01*
X135309934Y-92043817D01*
X135203719Y-92097936D01*
X135203717Y-92097937D01*
X135196780Y-92101472D01*
X135101472Y-92196780D01*
X135097937Y-92203717D01*
X135097936Y-92203719D01*
X135078209Y-92242436D01*
X135040281Y-92316874D01*
X135038877Y-92316159D01*
X135008191Y-92358395D01*
X134950001Y-92377303D01*
X134891810Y-92358396D01*
X134861123Y-92316159D01*
X134859719Y-92316874D01*
X134802064Y-92203719D01*
X134802063Y-92203717D01*
X134798528Y-92196780D01*
X134703220Y-92101472D01*
X134696283Y-92097937D01*
X134696281Y-92097936D01*
X134590066Y-92043817D01*
X134590065Y-92043817D01*
X134583126Y-92040281D01*
X134575432Y-92039062D01*
X134575431Y-92039062D01*
X134457696Y-92020415D01*
X134450000Y-92019196D01*
X134442304Y-92020415D01*
X134324569Y-92039062D01*
X134324568Y-92039062D01*
X134316874Y-92040281D01*
X134309935Y-92043817D01*
X134309934Y-92043817D01*
X134203719Y-92097936D01*
X134203717Y-92097937D01*
X134196780Y-92101472D01*
X134101472Y-92196780D01*
X134097937Y-92203717D01*
X134097936Y-92203719D01*
X134078209Y-92242436D01*
X134040281Y-92316874D01*
X134038877Y-92316159D01*
X134008191Y-92358395D01*
X133950001Y-92377303D01*
X133891810Y-92358396D01*
X133861123Y-92316159D01*
X133859719Y-92316874D01*
X133802064Y-92203719D01*
X133802063Y-92203717D01*
X133798528Y-92196780D01*
X133703220Y-92101472D01*
X133696283Y-92097937D01*
X133696281Y-92097936D01*
X133590066Y-92043817D01*
X133590065Y-92043817D01*
X133583126Y-92040281D01*
X133575432Y-92039062D01*
X133575431Y-92039062D01*
X133457696Y-92020415D01*
X133450000Y-92019196D01*
X133442304Y-92020415D01*
X133324569Y-92039062D01*
X133324568Y-92039062D01*
X133316874Y-92040281D01*
X133309935Y-92043817D01*
X133309934Y-92043817D01*
X133203719Y-92097936D01*
X133203717Y-92097937D01*
X133196780Y-92101472D01*
X133101472Y-92196780D01*
X133097937Y-92203717D01*
X133097936Y-92203719D01*
X133078209Y-92242436D01*
X133040281Y-92316874D01*
X133038877Y-92316159D01*
X133008191Y-92358395D01*
X132950001Y-92377303D01*
X132891810Y-92358396D01*
X132861123Y-92316159D01*
X132859719Y-92316874D01*
X132802064Y-92203719D01*
X132802063Y-92203717D01*
X132798528Y-92196780D01*
X132703220Y-92101472D01*
X132696283Y-92097937D01*
X132696281Y-92097936D01*
X132590066Y-92043817D01*
X132590065Y-92043817D01*
X132583126Y-92040281D01*
X132575432Y-92039062D01*
X132575431Y-92039062D01*
X132457696Y-92020415D01*
X132450000Y-92019196D01*
X132442304Y-92020415D01*
X132324569Y-92039062D01*
X132324568Y-92039062D01*
X132316874Y-92040281D01*
X132309935Y-92043817D01*
X132309934Y-92043817D01*
X132203719Y-92097936D01*
X132203717Y-92097937D01*
X132196780Y-92101472D01*
X132101472Y-92196780D01*
X132097937Y-92203717D01*
X132097936Y-92203719D01*
X132078209Y-92242436D01*
X132040281Y-92316874D01*
X132039062Y-92324568D01*
X132039062Y-92324569D01*
X132028094Y-92393817D01*
X132019196Y-92450000D01*
X130808333Y-92450000D01*
X130864468Y-92387982D01*
X130869200Y-92382754D01*
X130931710Y-92253733D01*
X130934010Y-92240066D01*
X130954862Y-92116124D01*
X130954862Y-92116120D01*
X130955496Y-92112354D01*
X130955647Y-92100000D01*
X130935323Y-91958082D01*
X130875984Y-91827572D01*
X130782400Y-91718963D01*
X130662095Y-91640985D01*
X130524739Y-91599907D01*
X130441497Y-91599398D01*
X130388427Y-91599074D01*
X130388426Y-91599074D01*
X130381376Y-91599031D01*
X130374599Y-91600968D01*
X130374598Y-91600968D01*
X130250309Y-91636490D01*
X130250307Y-91636491D01*
X130243529Y-91638428D01*
X130122280Y-91714930D01*
X130117613Y-91720214D01*
X130117611Y-91720216D01*
X130032044Y-91817103D01*
X130032042Y-91817105D01*
X130027377Y-91822388D01*
X129966447Y-91952163D01*
X129965362Y-91959132D01*
X129965361Y-91959135D01*
X129959670Y-91995691D01*
X129944391Y-92093823D01*
X124629826Y-92093823D01*
X124621906Y-92043817D01*
X124610938Y-91974569D01*
X124610938Y-91974568D01*
X124609719Y-91966874D01*
X124605043Y-91957696D01*
X124552064Y-91853719D01*
X124552063Y-91853717D01*
X124548528Y-91846780D01*
X124453220Y-91751472D01*
X124446283Y-91747937D01*
X124446281Y-91747936D01*
X124340066Y-91693817D01*
X124340065Y-91693817D01*
X124333126Y-91690281D01*
X124325432Y-91689062D01*
X124325431Y-91689062D01*
X124207696Y-91670415D01*
X124200000Y-91669196D01*
X124192304Y-91670415D01*
X124074569Y-91689062D01*
X124074568Y-91689062D01*
X124066874Y-91690281D01*
X124059935Y-91693817D01*
X124059934Y-91693817D01*
X123953719Y-91747936D01*
X123953717Y-91747937D01*
X123946780Y-91751472D01*
X123851472Y-91846780D01*
X123847937Y-91853717D01*
X123847936Y-91853719D01*
X123794957Y-91957696D01*
X123790281Y-91966874D01*
X123789062Y-91974568D01*
X123789062Y-91974569D01*
X123778094Y-92043817D01*
X123769196Y-92100000D01*
X122705647Y-92100000D01*
X122685323Y-91958082D01*
X122625984Y-91827572D01*
X122532400Y-91718963D01*
X122412095Y-91640985D01*
X122274739Y-91599907D01*
X122191497Y-91599398D01*
X122138427Y-91599074D01*
X122138426Y-91599074D01*
X122131376Y-91599031D01*
X122124599Y-91600968D01*
X122124598Y-91600968D01*
X122000309Y-91636490D01*
X122000307Y-91636491D01*
X121993529Y-91638428D01*
X121872280Y-91714930D01*
X121867613Y-91720214D01*
X121867611Y-91720216D01*
X121782044Y-91817103D01*
X121782042Y-91817105D01*
X121777377Y-91822388D01*
X121716447Y-91952163D01*
X121715362Y-91959132D01*
X121715361Y-91959135D01*
X121709670Y-91995691D01*
X121694391Y-92093823D01*
X118404269Y-92093823D01*
X118406183Y-92090066D01*
X118406183Y-92090065D01*
X118409719Y-92083126D01*
X118419845Y-92019196D01*
X118429585Y-91957696D01*
X118430804Y-91950000D01*
X118412152Y-91832236D01*
X118410938Y-91824569D01*
X118410938Y-91824568D01*
X118409719Y-91816874D01*
X118403305Y-91804285D01*
X118352064Y-91703719D01*
X118352063Y-91703717D01*
X118348528Y-91696780D01*
X118253220Y-91601472D01*
X118246283Y-91597937D01*
X118246281Y-91597936D01*
X118140066Y-91543817D01*
X118140065Y-91543817D01*
X118133126Y-91540281D01*
X118125432Y-91539062D01*
X118125431Y-91539062D01*
X118007696Y-91520415D01*
X118000000Y-91519196D01*
X117866874Y-91540281D01*
X117866377Y-91537145D01*
X117819286Y-91537146D01*
X117769785Y-91501184D01*
X117750876Y-91442994D01*
X117751723Y-91430068D01*
X117754835Y-91406432D01*
X117755682Y-91400000D01*
X117735044Y-91243238D01*
X117674536Y-91097159D01*
X117578282Y-90971718D01*
X117452841Y-90875464D01*
X117306762Y-90814956D01*
X117189361Y-90799500D01*
X117110639Y-90799500D01*
X116993238Y-90814956D01*
X116847159Y-90875464D01*
X116721718Y-90971718D01*
X116625464Y-91097159D01*
X116564956Y-91243238D01*
X116544318Y-91400000D01*
X116055682Y-91400000D01*
X116035044Y-91243238D01*
X115974536Y-91097159D01*
X115878282Y-90971718D01*
X115752841Y-90875464D01*
X115606762Y-90814956D01*
X115489361Y-90799500D01*
X115410639Y-90799500D01*
X115293238Y-90814956D01*
X115147159Y-90875464D01*
X115021718Y-90971718D01*
X114925464Y-91097159D01*
X114864956Y-91243238D01*
X114844318Y-91400000D01*
X109155682Y-91400000D01*
X109135044Y-91243238D01*
X109074536Y-91097159D01*
X108978282Y-90971718D01*
X108852841Y-90875464D01*
X108706762Y-90814956D01*
X108589361Y-90799500D01*
X108510639Y-90799500D01*
X108393238Y-90814956D01*
X108247159Y-90875464D01*
X108121718Y-90971718D01*
X108025464Y-91097159D01*
X107964956Y-91243238D01*
X107944318Y-91400000D01*
X107455682Y-91400000D01*
X107435044Y-91243238D01*
X107374536Y-91097159D01*
X107278282Y-90971718D01*
X107152841Y-90875464D01*
X107006762Y-90814956D01*
X106889361Y-90799500D01*
X106810639Y-90799500D01*
X106693238Y-90814956D01*
X106547159Y-90875464D01*
X106421718Y-90971718D01*
X106325464Y-91097159D01*
X106264956Y-91243238D01*
X106244318Y-91400000D01*
X103210328Y-91400000D01*
X103174035Y-91322171D01*
X103038495Y-91128599D01*
X102871401Y-90961505D01*
X102717482Y-90853730D01*
X102681374Y-90828447D01*
X102681372Y-90828446D01*
X102677829Y-90825965D01*
X102463663Y-90726097D01*
X102235408Y-90664937D01*
X102150569Y-90657514D01*
X102061130Y-90649689D01*
X102061122Y-90649689D01*
X102058966Y-90649500D01*
X101941034Y-90649500D01*
X101938878Y-90649689D01*
X101938870Y-90649689D01*
X101849431Y-90657514D01*
X101764592Y-90664937D01*
X101536337Y-90726097D01*
X101322171Y-90825965D01*
X101318628Y-90828446D01*
X101318626Y-90828447D01*
X101282518Y-90853730D01*
X101128599Y-90961505D01*
X100961505Y-91128599D01*
X100959026Y-91132140D01*
X100828447Y-91318625D01*
X100828446Y-91318627D01*
X100825965Y-91322170D01*
X100726097Y-91536337D01*
X100664937Y-91764592D01*
X100644341Y-92000000D01*
X100200500Y-92000000D01*
X100200500Y-91034281D01*
X100203057Y-91011926D01*
X100203141Y-91011565D01*
X100205655Y-91000718D01*
X100205656Y-91000000D01*
X100204413Y-90994551D01*
X100203791Y-90988993D01*
X100204964Y-90988862D01*
X100203633Y-90968190D01*
X100212376Y-90879415D01*
X100214906Y-90853728D01*
X100218691Y-90834699D01*
X100258528Y-90703373D01*
X100265955Y-90685445D01*
X100330643Y-90564423D01*
X100341424Y-90548287D01*
X100360887Y-90524571D01*
X100428485Y-90442202D01*
X100442202Y-90428485D01*
X100548287Y-90341424D01*
X100564423Y-90330643D01*
X100685445Y-90265955D01*
X100703374Y-90258528D01*
X100834699Y-90218691D01*
X100853728Y-90214906D01*
X100968363Y-90203616D01*
X100978239Y-90203139D01*
X100988774Y-90203157D01*
X100999641Y-90205656D01*
X101011641Y-90202941D01*
X101033488Y-90200500D01*
X148965983Y-90200500D01*
X148988169Y-90203018D01*
G37*
%TD.AperFunction*%
%TD*%
M02*
