%TF.GenerationSoftware,KiCad,Pcbnew,(6.0.6)*%
%TF.CreationDate,2022-07-10T21:22:37+02:00*%
%TF.ProjectId,GCode_Buttons_MCU,47436f64-655f-4427-9574-746f6e735f4d,rev?*%
%TF.SameCoordinates,Original*%
%TF.FileFunction,Copper,L2,Inr*%
%TF.FilePolarity,Positive*%
%FSLAX46Y46*%
G04 Gerber Fmt 4.6, Leading zero omitted, Abs format (unit mm)*
G04 Created by KiCad (PCBNEW (6.0.6)) date 2022-07-10 21:22:37*
%MOMM*%
%LPD*%
G01*
G04 APERTURE LIST*
G04 Aperture macros list*
%AMRoundRect*
0 Rectangle with rounded corners*
0 $1 Rounding radius*
0 $2 $3 $4 $5 $6 $7 $8 $9 X,Y pos of 4 corners*
0 Add a 4 corners polygon primitive as box body*
4,1,4,$2,$3,$4,$5,$6,$7,$8,$9,$2,$3,0*
0 Add four circle primitives for the rounded corners*
1,1,$1+$1,$2,$3*
1,1,$1+$1,$4,$5*
1,1,$1+$1,$6,$7*
1,1,$1+$1,$8,$9*
0 Add four rect primitives between the rounded corners*
20,1,$1+$1,$2,$3,$4,$5,0*
20,1,$1+$1,$4,$5,$6,$7,0*
20,1,$1+$1,$6,$7,$8,$9,0*
20,1,$1+$1,$8,$9,$2,$3,0*%
G04 Aperture macros list end*
%TA.AperFunction,ComponentPad*%
%ADD10O,2.100000X1.000000*%
%TD*%
%TA.AperFunction,ComponentPad*%
%ADD11O,1.600000X1.000000*%
%TD*%
%TA.AperFunction,ComponentPad*%
%ADD12RoundRect,0.250000X0.750000X-0.600000X0.750000X0.600000X-0.750000X0.600000X-0.750000X-0.600000X0*%
%TD*%
%TA.AperFunction,ComponentPad*%
%ADD13O,2.000000X1.700000*%
%TD*%
%TA.AperFunction,ComponentPad*%
%ADD14R,1.700000X1.700000*%
%TD*%
%TA.AperFunction,ComponentPad*%
%ADD15O,1.700000X1.700000*%
%TD*%
%TA.AperFunction,ViaPad*%
%ADD16C,0.450000*%
%TD*%
%TA.AperFunction,ViaPad*%
%ADD17C,0.800000*%
%TD*%
%TA.AperFunction,ViaPad*%
%ADD18C,0.600000*%
%TD*%
%TA.AperFunction,Conductor*%
%ADD19C,0.400000*%
%TD*%
%TA.AperFunction,Conductor*%
%ADD20C,0.250000*%
%TD*%
G04 APERTURE END LIST*
D10*
%TO.N,GND*%
%TO.C,J1*%
X105330000Y-95680000D03*
X105330000Y-104320000D03*
D11*
X101150000Y-95680000D03*
X101150000Y-104320000D03*
%TD*%
D12*
%TO.N,Net-(D1-Pad2)*%
%TO.C,J4*%
X146075000Y-101250000D03*
D13*
%TO.N,Net-(D1-Pad1)*%
X146075000Y-98750000D03*
%TD*%
D14*
%TO.N,Net-(D1-Pad1)*%
%TO.C,JP2*%
X138000000Y-98875000D03*
D15*
%TO.N,Net-(JP2-Pad2)*%
X138000000Y-101415000D03*
%TD*%
D16*
%TO.N,SWD_IO*%
X124150000Y-98050000D03*
X119800000Y-104000000D03*
%TO.N,Dout_A*%
X129250000Y-107650000D03*
X109950000Y-104900000D03*
%TO.N,Dout_B*%
X110000000Y-108800000D03*
X140900000Y-109200000D03*
%TO.N,GND*%
X109800000Y-96400000D03*
X123500000Y-98700000D03*
X107700000Y-103250000D03*
X111650000Y-104800000D03*
X129750000Y-105500000D03*
X114700000Y-94150000D03*
X124100000Y-105750000D03*
X111700000Y-98200000D03*
X120250000Y-106300000D03*
X114700000Y-97750000D03*
X117250000Y-95000000D03*
X124100000Y-97250000D03*
X104450000Y-107850000D03*
X116000000Y-102500000D03*
D17*
X141000000Y-100000000D03*
D16*
X107700000Y-107350000D03*
X123200000Y-92100000D03*
X111650000Y-107000000D03*
X119000000Y-92500000D03*
X117750000Y-98800000D03*
X107700000Y-98200000D03*
X140750000Y-105500000D03*
X126350000Y-97350000D03*
X111150000Y-92800000D03*
X114500000Y-105500000D03*
X120000000Y-102500000D03*
D17*
X144000000Y-100000000D03*
D16*
X114600000Y-91850000D03*
X115750000Y-104000000D03*
X109800000Y-100000000D03*
X126500000Y-99000000D03*
X104400000Y-93800000D03*
X120950000Y-98800000D03*
X138500000Y-97500000D03*
X130850000Y-99350000D03*
X140700000Y-92100000D03*
X125400000Y-100950000D03*
X131450000Y-92100000D03*
%TO.N,+5V*%
X139750000Y-105500000D03*
X111100000Y-102350000D03*
X111100000Y-106200000D03*
D18*
X107350000Y-94150000D03*
D16*
X112087500Y-100000000D03*
X128750000Y-105500000D03*
D18*
X106950000Y-107950000D03*
D16*
%TO.N,USB_N*%
X109800000Y-99050000D03*
X118543056Y-103684166D03*
%TO.N,USB_P*%
X109800000Y-100850000D03*
X118950000Y-103000000D03*
%TO.N,+3V3*%
X119000000Y-93150000D03*
X136550000Y-104200000D03*
D18*
X122200000Y-92100000D03*
X112150000Y-94150000D03*
X130450000Y-92100000D03*
D16*
X110300000Y-92800000D03*
X117200000Y-94150000D03*
X133550000Y-104100000D03*
X114050000Y-104800000D03*
D18*
X139700000Y-92100000D03*
D16*
X121550000Y-105800000D03*
%TO.N,BOOT0*%
X106900000Y-92800000D03*
X121000000Y-100250500D03*
%TO.N,D_out_B*%
X112250000Y-102950000D03*
X109600000Y-108150000D03*
%TO.N,RESET*%
X118000000Y-91950000D03*
X124200000Y-92100000D03*
%TO.N,CS_SPI1*%
X132450000Y-92450000D03*
X115050000Y-98450000D03*
%TO.N,SCK_SPI1*%
X133450000Y-92450000D03*
X115788556Y-98488556D03*
%TO.N,MISO_SPI1*%
X134450000Y-92450000D03*
X116377350Y-98799500D03*
%TO.N,MOSI_SPI1*%
X135450000Y-92450000D03*
X116755536Y-99349000D03*
%TO.N,SCL_I2C*%
X141700000Y-92450000D03*
X119150000Y-100750000D03*
%TO.N,SDA_I2C*%
X142700000Y-92450000D03*
X119900000Y-100700000D03*
%TO.N,LED_TX*%
X119600000Y-98750000D03*
X141800000Y-95800000D03*
%TO.N,LED_RX*%
X120150000Y-99100000D03*
X141800000Y-104200000D03*
%TO.N,SWD_CLK*%
X124950000Y-98050000D03*
X121000000Y-103550000D03*
%TO.N,PA3*%
X113800000Y-96000000D03*
X112900000Y-92450000D03*
%TO.N,GB_A_1*%
X126250000Y-107650000D03*
X116096402Y-107505673D03*
%TO.N,GB_A_2*%
X126750000Y-105500000D03*
X116900000Y-106450000D03*
%TO.N,GB_A_3*%
X127250000Y-107650000D03*
X115725765Y-108074235D03*
%TO.N,GB_A_4*%
X127750000Y-105500000D03*
X116497789Y-106959980D03*
%TO.N,GB_A_5*%
X128250000Y-107650000D03*
X115050000Y-102850000D03*
%TO.N,GB_B_1*%
X137250000Y-107650000D03*
X117400000Y-103750000D03*
%TO.N,GB_B_2*%
X137750000Y-105500000D03*
X124705741Y-101892824D03*
%TO.N,GB_B_3*%
X138250000Y-107650000D03*
X123450000Y-103414556D03*
%TO.N,GB_B_4*%
X138750000Y-105500000D03*
X124300000Y-102400000D03*
%TO.N,GB_B_5*%
X139250000Y-107650000D03*
X123901901Y-102948038D03*
%TO.N,Dout*%
X116700000Y-103750000D03*
X113300000Y-107650000D03*
%TD*%
D19*
%TO.N,+5V*%
X106950000Y-102300000D02*
X106950000Y-94550000D01*
X107000000Y-102350000D02*
X111100000Y-102350000D01*
X140250000Y-106000000D02*
X140250000Y-108700000D01*
X139525000Y-109425000D02*
X130250000Y-109425000D01*
X140250000Y-108700000D02*
X139525000Y-109425000D01*
X106950000Y-102300000D02*
X107000000Y-102350000D01*
X130250000Y-109425000D02*
X130250000Y-107000000D01*
X108425000Y-109425000D02*
X106950000Y-107950000D01*
X106950000Y-94550000D02*
X107350000Y-94150000D01*
X130250000Y-107000000D02*
X128750000Y-105500000D01*
X106950000Y-106200000D02*
X111100000Y-106200000D01*
X112087500Y-101362500D02*
X112087500Y-100000000D01*
X106950000Y-107950000D02*
X106950000Y-106200000D01*
X106950000Y-106200000D02*
X106950000Y-102300000D01*
X130250000Y-109425000D02*
X108425000Y-109425000D01*
X111100000Y-102350000D02*
X112087500Y-101362500D01*
X139750000Y-105500000D02*
X140250000Y-106000000D01*
D20*
%TO.N,Dout*%
X116700000Y-103750000D02*
X116700000Y-104250000D01*
X116700000Y-104250000D02*
X113300000Y-107650000D01*
%TD*%
%TA.AperFunction,Conductor*%
%TO.N,+3V3*%
G36*
X148988169Y-90203018D02*
G01*
X148999641Y-90205656D01*
X149010516Y-90203195D01*
X149021663Y-90203215D01*
X149021661Y-90204219D01*
X149031562Y-90203609D01*
X149117698Y-90212092D01*
X149146272Y-90214906D01*
X149165301Y-90218691D01*
X149296626Y-90258528D01*
X149314555Y-90265955D01*
X149435577Y-90330643D01*
X149451713Y-90341424D01*
X149557798Y-90428485D01*
X149571515Y-90442202D01*
X149639113Y-90524571D01*
X149658576Y-90548287D01*
X149669357Y-90564423D01*
X149734045Y-90685445D01*
X149741472Y-90703373D01*
X149781309Y-90834699D01*
X149785094Y-90853728D01*
X149787624Y-90879415D01*
X149796384Y-90968363D01*
X149796861Y-90978239D01*
X149796843Y-90988774D01*
X149794344Y-90999641D01*
X149797059Y-91011638D01*
X149799500Y-91033488D01*
X149799500Y-108965983D01*
X149796982Y-108988169D01*
X149794344Y-108999641D01*
X149796805Y-109010516D01*
X149796785Y-109021663D01*
X149795781Y-109021661D01*
X149796391Y-109031562D01*
X149785094Y-109146270D01*
X149781309Y-109165301D01*
X149748365Y-109273903D01*
X149741472Y-109296626D01*
X149734045Y-109314555D01*
X149669357Y-109435577D01*
X149658576Y-109451713D01*
X149571515Y-109557798D01*
X149557798Y-109571515D01*
X149514980Y-109606655D01*
X149451713Y-109658576D01*
X149435577Y-109669357D01*
X149314555Y-109734045D01*
X149296627Y-109741472D01*
X149165301Y-109781309D01*
X149146272Y-109785094D01*
X149033932Y-109796158D01*
X149031637Y-109796384D01*
X149021761Y-109796861D01*
X149011226Y-109796843D01*
X149000359Y-109794344D01*
X148988359Y-109797059D01*
X148966512Y-109799500D01*
X141070158Y-109799500D01*
X141011967Y-109780593D01*
X140976003Y-109731093D01*
X140976003Y-109669907D01*
X141011967Y-109620407D01*
X141032862Y-109609761D01*
X141033126Y-109609719D01*
X141108098Y-109571519D01*
X141146281Y-109552064D01*
X141146283Y-109552063D01*
X141153220Y-109548528D01*
X141248528Y-109453220D01*
X141253136Y-109444178D01*
X141306183Y-109340066D01*
X141306183Y-109340065D01*
X141309719Y-109333126D01*
X141312661Y-109314555D01*
X141329585Y-109207696D01*
X141330804Y-109200000D01*
X141309719Y-109066874D01*
X141293703Y-109035441D01*
X141252064Y-108953719D01*
X141252063Y-108953717D01*
X141248528Y-108946780D01*
X141153220Y-108851472D01*
X141146283Y-108847937D01*
X141146281Y-108847936D01*
X141040066Y-108793817D01*
X141040065Y-108793817D01*
X141033126Y-108790281D01*
X141025432Y-108789062D01*
X141025431Y-108789062D01*
X140907696Y-108770415D01*
X140900000Y-108769196D01*
X140766874Y-108790281D01*
X140766397Y-108787268D01*
X140718902Y-108787266D01*
X140669404Y-108751299D01*
X140650500Y-108693113D01*
X140650500Y-108000000D01*
X146644341Y-108000000D01*
X146664937Y-108235408D01*
X146726097Y-108463663D01*
X146825965Y-108677829D01*
X146961505Y-108871401D01*
X147128599Y-109038495D01*
X147253973Y-109126282D01*
X147309705Y-109165306D01*
X147322171Y-109174035D01*
X147536337Y-109273903D01*
X147764592Y-109335063D01*
X147849431Y-109342486D01*
X147938870Y-109350311D01*
X147938878Y-109350311D01*
X147941034Y-109350500D01*
X148058966Y-109350500D01*
X148061122Y-109350311D01*
X148061130Y-109350311D01*
X148150569Y-109342486D01*
X148235408Y-109335063D01*
X148463663Y-109273903D01*
X148677829Y-109174035D01*
X148690296Y-109165306D01*
X148746027Y-109126282D01*
X148871401Y-109038495D01*
X149038495Y-108871401D01*
X149171554Y-108681374D01*
X149171554Y-108681373D01*
X149174035Y-108677830D01*
X149273903Y-108463663D01*
X149335063Y-108235408D01*
X149355659Y-108000000D01*
X149335063Y-107764592D01*
X149273903Y-107536337D01*
X149174035Y-107322171D01*
X149159542Y-107301472D01*
X149101588Y-107218706D01*
X149038495Y-107128599D01*
X148871401Y-106961505D01*
X148716733Y-106853206D01*
X148681374Y-106828447D01*
X148681372Y-106828446D01*
X148677829Y-106825965D01*
X148463663Y-106726097D01*
X148235408Y-106664937D01*
X148144438Y-106656978D01*
X148061130Y-106649689D01*
X148061122Y-106649689D01*
X148058966Y-106649500D01*
X147941034Y-106649500D01*
X147938878Y-106649689D01*
X147938870Y-106649689D01*
X147855562Y-106656978D01*
X147764592Y-106664937D01*
X147536337Y-106726097D01*
X147322171Y-106825965D01*
X147318628Y-106828446D01*
X147318626Y-106828447D01*
X147283267Y-106853206D01*
X147128599Y-106961505D01*
X146961505Y-107128599D01*
X146884158Y-107239062D01*
X146828447Y-107318625D01*
X146828446Y-107318627D01*
X146825965Y-107322170D01*
X146726097Y-107536337D01*
X146664937Y-107764592D01*
X146644341Y-108000000D01*
X140650500Y-108000000D01*
X140650500Y-106028585D01*
X140669407Y-105970394D01*
X140718907Y-105934430D01*
X140745902Y-105930155D01*
X140750000Y-105930804D01*
X140757696Y-105929585D01*
X140875431Y-105910938D01*
X140875432Y-105910938D01*
X140883126Y-105909719D01*
X140909378Y-105896343D01*
X140996281Y-105852064D01*
X140996283Y-105852063D01*
X141003220Y-105848528D01*
X141098528Y-105753220D01*
X141109803Y-105731093D01*
X141156183Y-105640066D01*
X141156183Y-105640065D01*
X141159719Y-105633126D01*
X141161075Y-105624569D01*
X141179585Y-105507696D01*
X141180804Y-105500000D01*
X141167251Y-105414431D01*
X141160938Y-105374569D01*
X141160938Y-105374568D01*
X141159719Y-105366874D01*
X141145548Y-105339062D01*
X141102064Y-105253719D01*
X141102063Y-105253717D01*
X141098528Y-105246780D01*
X141003220Y-105151472D01*
X140996283Y-105147937D01*
X140996281Y-105147936D01*
X140890066Y-105093817D01*
X140890065Y-105093817D01*
X140883126Y-105090281D01*
X140875432Y-105089062D01*
X140875431Y-105089062D01*
X140757696Y-105070415D01*
X140750000Y-105069196D01*
X140742304Y-105070415D01*
X140624569Y-105089062D01*
X140624568Y-105089062D01*
X140616874Y-105090281D01*
X140609935Y-105093817D01*
X140609934Y-105093817D01*
X140503719Y-105147936D01*
X140503717Y-105147937D01*
X140496780Y-105151472D01*
X140401472Y-105246780D01*
X140397937Y-105253718D01*
X140397934Y-105253722D01*
X140349143Y-105349479D01*
X140305879Y-105392743D01*
X140245446Y-105402314D01*
X140190930Y-105374537D01*
X140146343Y-105329950D01*
X140128137Y-105304891D01*
X140102064Y-105253719D01*
X140102063Y-105253717D01*
X140098528Y-105246780D01*
X140003220Y-105151472D01*
X139996283Y-105147937D01*
X139996281Y-105147936D01*
X139890066Y-105093817D01*
X139890065Y-105093817D01*
X139883126Y-105090281D01*
X139875432Y-105089062D01*
X139875431Y-105089062D01*
X139757696Y-105070415D01*
X139750000Y-105069196D01*
X139742304Y-105070415D01*
X139624569Y-105089062D01*
X139624568Y-105089062D01*
X139616874Y-105090281D01*
X139609935Y-105093817D01*
X139609934Y-105093817D01*
X139503719Y-105147936D01*
X139503717Y-105147937D01*
X139496780Y-105151472D01*
X139401472Y-105246780D01*
X139397937Y-105253717D01*
X139397936Y-105253719D01*
X139354452Y-105339062D01*
X139340281Y-105366874D01*
X139338877Y-105366159D01*
X139308191Y-105408395D01*
X139250001Y-105427303D01*
X139191810Y-105408396D01*
X139161123Y-105366159D01*
X139159719Y-105366874D01*
X139102064Y-105253719D01*
X139102063Y-105253717D01*
X139098528Y-105246780D01*
X139003220Y-105151472D01*
X138996283Y-105147937D01*
X138996281Y-105147936D01*
X138890066Y-105093817D01*
X138890065Y-105093817D01*
X138883126Y-105090281D01*
X138875432Y-105089062D01*
X138875431Y-105089062D01*
X138757696Y-105070415D01*
X138750000Y-105069196D01*
X138742304Y-105070415D01*
X138624569Y-105089062D01*
X138624568Y-105089062D01*
X138616874Y-105090281D01*
X138609935Y-105093817D01*
X138609934Y-105093817D01*
X138503719Y-105147936D01*
X138503717Y-105147937D01*
X138496780Y-105151472D01*
X138401472Y-105246780D01*
X138397937Y-105253717D01*
X138397936Y-105253719D01*
X138354452Y-105339062D01*
X138340281Y-105366874D01*
X138338877Y-105366159D01*
X138308191Y-105408395D01*
X138250001Y-105427303D01*
X138191810Y-105408396D01*
X138161123Y-105366159D01*
X138159719Y-105366874D01*
X138102064Y-105253719D01*
X138102063Y-105253717D01*
X138098528Y-105246780D01*
X138003220Y-105151472D01*
X137996283Y-105147937D01*
X137996281Y-105147936D01*
X137890066Y-105093817D01*
X137890065Y-105093817D01*
X137883126Y-105090281D01*
X137875432Y-105089062D01*
X137875431Y-105089062D01*
X137757696Y-105070415D01*
X137750000Y-105069196D01*
X137742304Y-105070415D01*
X137624569Y-105089062D01*
X137624568Y-105089062D01*
X137616874Y-105090281D01*
X137609935Y-105093817D01*
X137609934Y-105093817D01*
X137503719Y-105147936D01*
X137503717Y-105147937D01*
X137496780Y-105151472D01*
X137401472Y-105246780D01*
X137397937Y-105253717D01*
X137397936Y-105253719D01*
X137354452Y-105339062D01*
X137340281Y-105366874D01*
X137339062Y-105374568D01*
X137339062Y-105374569D01*
X137332749Y-105414431D01*
X137319196Y-105500000D01*
X137320415Y-105507696D01*
X137338926Y-105624569D01*
X137340281Y-105633126D01*
X137343817Y-105640065D01*
X137343817Y-105640066D01*
X137390198Y-105731093D01*
X137401472Y-105753220D01*
X137496780Y-105848528D01*
X137503717Y-105852063D01*
X137503719Y-105852064D01*
X137590622Y-105896343D01*
X137616874Y-105909719D01*
X137624568Y-105910938D01*
X137624569Y-105910938D01*
X137742304Y-105929585D01*
X137750000Y-105930804D01*
X137757696Y-105929585D01*
X137875431Y-105910938D01*
X137875432Y-105910938D01*
X137883126Y-105909719D01*
X137909378Y-105896343D01*
X137996281Y-105852064D01*
X137996283Y-105852063D01*
X138003220Y-105848528D01*
X138098528Y-105753220D01*
X138109803Y-105731093D01*
X138159719Y-105633126D01*
X138161123Y-105633841D01*
X138191809Y-105591605D01*
X138249999Y-105572697D01*
X138308190Y-105591604D01*
X138338877Y-105633841D01*
X138340281Y-105633126D01*
X138390198Y-105731093D01*
X138401472Y-105753220D01*
X138496780Y-105848528D01*
X138503717Y-105852063D01*
X138503719Y-105852064D01*
X138590622Y-105896343D01*
X138616874Y-105909719D01*
X138624568Y-105910938D01*
X138624569Y-105910938D01*
X138742304Y-105929585D01*
X138750000Y-105930804D01*
X138757696Y-105929585D01*
X138875431Y-105910938D01*
X138875432Y-105910938D01*
X138883126Y-105909719D01*
X138909378Y-105896343D01*
X138996281Y-105852064D01*
X138996283Y-105852063D01*
X139003220Y-105848528D01*
X139098528Y-105753220D01*
X139109803Y-105731093D01*
X139159719Y-105633126D01*
X139161123Y-105633841D01*
X139191809Y-105591605D01*
X139249999Y-105572697D01*
X139308190Y-105591604D01*
X139338877Y-105633841D01*
X139340281Y-105633126D01*
X139390198Y-105731093D01*
X139401472Y-105753220D01*
X139496780Y-105848528D01*
X139503717Y-105852063D01*
X139503719Y-105852064D01*
X139554891Y-105878137D01*
X139579950Y-105896343D01*
X139820504Y-106136897D01*
X139848281Y-106191414D01*
X139849500Y-106206901D01*
X139849500Y-107479842D01*
X139830593Y-107538033D01*
X139781093Y-107573997D01*
X139719907Y-107573997D01*
X139670407Y-107538033D01*
X139659761Y-107517138D01*
X139659719Y-107516874D01*
X139651871Y-107501472D01*
X139602064Y-107403719D01*
X139602063Y-107403717D01*
X139598528Y-107396780D01*
X139503220Y-107301472D01*
X139496283Y-107297937D01*
X139496281Y-107297936D01*
X139390066Y-107243817D01*
X139390065Y-107243817D01*
X139383126Y-107240281D01*
X139375432Y-107239062D01*
X139375431Y-107239062D01*
X139257696Y-107220415D01*
X139250000Y-107219196D01*
X139242304Y-107220415D01*
X139124569Y-107239062D01*
X139124568Y-107239062D01*
X139116874Y-107240281D01*
X139109935Y-107243817D01*
X139109934Y-107243817D01*
X139003719Y-107297936D01*
X139003717Y-107297937D01*
X138996780Y-107301472D01*
X138901472Y-107396780D01*
X138897937Y-107403717D01*
X138897936Y-107403719D01*
X138848129Y-107501472D01*
X138840281Y-107516874D01*
X138838877Y-107516159D01*
X138808191Y-107558395D01*
X138750001Y-107577303D01*
X138691810Y-107558396D01*
X138661123Y-107516159D01*
X138659719Y-107516874D01*
X138602064Y-107403719D01*
X138602063Y-107403717D01*
X138598528Y-107396780D01*
X138503220Y-107301472D01*
X138496283Y-107297937D01*
X138496281Y-107297936D01*
X138390066Y-107243817D01*
X138390065Y-107243817D01*
X138383126Y-107240281D01*
X138375432Y-107239062D01*
X138375431Y-107239062D01*
X138257696Y-107220415D01*
X138250000Y-107219196D01*
X138242304Y-107220415D01*
X138124569Y-107239062D01*
X138124568Y-107239062D01*
X138116874Y-107240281D01*
X138109935Y-107243817D01*
X138109934Y-107243817D01*
X138003719Y-107297936D01*
X138003717Y-107297937D01*
X137996780Y-107301472D01*
X137901472Y-107396780D01*
X137897937Y-107403717D01*
X137897936Y-107403719D01*
X137848129Y-107501472D01*
X137840281Y-107516874D01*
X137838877Y-107516159D01*
X137808191Y-107558395D01*
X137750001Y-107577303D01*
X137691810Y-107558396D01*
X137661123Y-107516159D01*
X137659719Y-107516874D01*
X137602064Y-107403719D01*
X137602063Y-107403717D01*
X137598528Y-107396780D01*
X137503220Y-107301472D01*
X137496283Y-107297937D01*
X137496281Y-107297936D01*
X137390066Y-107243817D01*
X137390065Y-107243817D01*
X137383126Y-107240281D01*
X137375432Y-107239062D01*
X137375431Y-107239062D01*
X137257696Y-107220415D01*
X137250000Y-107219196D01*
X137242304Y-107220415D01*
X137124569Y-107239062D01*
X137124568Y-107239062D01*
X137116874Y-107240281D01*
X137109935Y-107243817D01*
X137109934Y-107243817D01*
X137003719Y-107297936D01*
X137003717Y-107297937D01*
X136996780Y-107301472D01*
X136901472Y-107396780D01*
X136897937Y-107403717D01*
X136897936Y-107403719D01*
X136848129Y-107501472D01*
X136840281Y-107516874D01*
X136839062Y-107524568D01*
X136839062Y-107524569D01*
X136831234Y-107573997D01*
X136819196Y-107650000D01*
X136820415Y-107657696D01*
X136838463Y-107771645D01*
X136840281Y-107783126D01*
X136843817Y-107790065D01*
X136843817Y-107790066D01*
X136889183Y-107879101D01*
X136901472Y-107903220D01*
X136996780Y-107998528D01*
X137003717Y-108002063D01*
X137003719Y-108002064D01*
X137109934Y-108056183D01*
X137116874Y-108059719D01*
X137124568Y-108060938D01*
X137124569Y-108060938D01*
X137208525Y-108074235D01*
X137238497Y-108078982D01*
X137242304Y-108079585D01*
X137250000Y-108080804D01*
X137257696Y-108079585D01*
X137261504Y-108078982D01*
X137291475Y-108074235D01*
X137375431Y-108060938D01*
X137375432Y-108060938D01*
X137383126Y-108059719D01*
X137390066Y-108056183D01*
X137496281Y-108002064D01*
X137496283Y-108002063D01*
X137503220Y-107998528D01*
X137598528Y-107903220D01*
X137610818Y-107879101D01*
X137659719Y-107783126D01*
X137661123Y-107783841D01*
X137691809Y-107741605D01*
X137749999Y-107722697D01*
X137808190Y-107741604D01*
X137838877Y-107783841D01*
X137840281Y-107783126D01*
X137889183Y-107879101D01*
X137901472Y-107903220D01*
X137996780Y-107998528D01*
X138003717Y-108002063D01*
X138003719Y-108002064D01*
X138109934Y-108056183D01*
X138116874Y-108059719D01*
X138124568Y-108060938D01*
X138124569Y-108060938D01*
X138208525Y-108074235D01*
X138238497Y-108078982D01*
X138242304Y-108079585D01*
X138250000Y-108080804D01*
X138257696Y-108079585D01*
X138261504Y-108078982D01*
X138291475Y-108074235D01*
X138375431Y-108060938D01*
X138375432Y-108060938D01*
X138383126Y-108059719D01*
X138390066Y-108056183D01*
X138496281Y-108002064D01*
X138496283Y-108002063D01*
X138503220Y-107998528D01*
X138598528Y-107903220D01*
X138610818Y-107879101D01*
X138659719Y-107783126D01*
X138661123Y-107783841D01*
X138691809Y-107741605D01*
X138749999Y-107722697D01*
X138808190Y-107741604D01*
X138838877Y-107783841D01*
X138840281Y-107783126D01*
X138889183Y-107879101D01*
X138901472Y-107903220D01*
X138996780Y-107998528D01*
X139003717Y-108002063D01*
X139003719Y-108002064D01*
X139109934Y-108056183D01*
X139116874Y-108059719D01*
X139124568Y-108060938D01*
X139124569Y-108060938D01*
X139208525Y-108074235D01*
X139238497Y-108078982D01*
X139242304Y-108079585D01*
X139250000Y-108080804D01*
X139257696Y-108079585D01*
X139261504Y-108078982D01*
X139291475Y-108074235D01*
X139375431Y-108060938D01*
X139375432Y-108060938D01*
X139383126Y-108059719D01*
X139390066Y-108056183D01*
X139496281Y-108002064D01*
X139496283Y-108002063D01*
X139503220Y-107998528D01*
X139598528Y-107903220D01*
X139610818Y-107879101D01*
X139656182Y-107790068D01*
X139656183Y-107790066D01*
X139659719Y-107783126D01*
X139660671Y-107783611D01*
X139692308Y-107740066D01*
X139750499Y-107721158D01*
X139808690Y-107740065D01*
X139844654Y-107789564D01*
X139849500Y-107820158D01*
X139849500Y-108493099D01*
X139830593Y-108551290D01*
X139820504Y-108563103D01*
X139388103Y-108995504D01*
X139333586Y-109023281D01*
X139318099Y-109024500D01*
X130749500Y-109024500D01*
X130691309Y-109005593D01*
X130655345Y-108956093D01*
X130650500Y-108925500D01*
X130650500Y-106968481D01*
X130650499Y-106968475D01*
X130650499Y-106936567D01*
X130648093Y-106929160D01*
X130648092Y-106929157D01*
X130643046Y-106913627D01*
X130639420Y-106898524D01*
X130636865Y-106882392D01*
X130635646Y-106874696D01*
X130624695Y-106853204D01*
X130618751Y-106838855D01*
X130613704Y-106823321D01*
X130613704Y-106823320D01*
X130611296Y-106815910D01*
X130597111Y-106796386D01*
X130589004Y-106783156D01*
X130578050Y-106761658D01*
X130488342Y-106671950D01*
X129875461Y-106059068D01*
X129847685Y-106004553D01*
X129857256Y-105944121D01*
X129900521Y-105900856D01*
X129996281Y-105852064D01*
X129996283Y-105852063D01*
X130003220Y-105848528D01*
X130098528Y-105753220D01*
X130109803Y-105731093D01*
X130156183Y-105640066D01*
X130156183Y-105640065D01*
X130159719Y-105633126D01*
X130161075Y-105624569D01*
X130179585Y-105507696D01*
X130180804Y-105500000D01*
X130167251Y-105414431D01*
X130160938Y-105374569D01*
X130160938Y-105374568D01*
X130159719Y-105366874D01*
X130145548Y-105339062D01*
X130102064Y-105253719D01*
X130102063Y-105253717D01*
X130098528Y-105246780D01*
X130003220Y-105151472D01*
X129996283Y-105147937D01*
X129996281Y-105147936D01*
X129890066Y-105093817D01*
X129890065Y-105093817D01*
X129883126Y-105090281D01*
X129875432Y-105089062D01*
X129875431Y-105089062D01*
X129757696Y-105070415D01*
X129750000Y-105069196D01*
X129742304Y-105070415D01*
X129624569Y-105089062D01*
X129624568Y-105089062D01*
X129616874Y-105090281D01*
X129609935Y-105093817D01*
X129609934Y-105093817D01*
X129503719Y-105147936D01*
X129503717Y-105147937D01*
X129496780Y-105151472D01*
X129401472Y-105246780D01*
X129397937Y-105253718D01*
X129397934Y-105253722D01*
X129349143Y-105349479D01*
X129305879Y-105392743D01*
X129245446Y-105402314D01*
X129190930Y-105374537D01*
X129146343Y-105329950D01*
X129128137Y-105304891D01*
X129102064Y-105253719D01*
X129102063Y-105253717D01*
X129098528Y-105246780D01*
X129003220Y-105151472D01*
X128996283Y-105147937D01*
X128996281Y-105147936D01*
X128890066Y-105093817D01*
X128890065Y-105093817D01*
X128883126Y-105090281D01*
X128875432Y-105089062D01*
X128875431Y-105089062D01*
X128757696Y-105070415D01*
X128750000Y-105069196D01*
X128742304Y-105070415D01*
X128624569Y-105089062D01*
X128624568Y-105089062D01*
X128616874Y-105090281D01*
X128609935Y-105093817D01*
X128609934Y-105093817D01*
X128503719Y-105147936D01*
X128503717Y-105147937D01*
X128496780Y-105151472D01*
X128401472Y-105246780D01*
X128397937Y-105253717D01*
X128397936Y-105253719D01*
X128354452Y-105339062D01*
X128340281Y-105366874D01*
X128338877Y-105366159D01*
X128308191Y-105408395D01*
X128250001Y-105427303D01*
X128191810Y-105408396D01*
X128161123Y-105366159D01*
X128159719Y-105366874D01*
X128102064Y-105253719D01*
X128102063Y-105253717D01*
X128098528Y-105246780D01*
X128003220Y-105151472D01*
X127996283Y-105147937D01*
X127996281Y-105147936D01*
X127890066Y-105093817D01*
X127890065Y-105093817D01*
X127883126Y-105090281D01*
X127875432Y-105089062D01*
X127875431Y-105089062D01*
X127757696Y-105070415D01*
X127750000Y-105069196D01*
X127742304Y-105070415D01*
X127624569Y-105089062D01*
X127624568Y-105089062D01*
X127616874Y-105090281D01*
X127609935Y-105093817D01*
X127609934Y-105093817D01*
X127503719Y-105147936D01*
X127503717Y-105147937D01*
X127496780Y-105151472D01*
X127401472Y-105246780D01*
X127397937Y-105253717D01*
X127397936Y-105253719D01*
X127354452Y-105339062D01*
X127340281Y-105366874D01*
X127338877Y-105366159D01*
X127308191Y-105408395D01*
X127250001Y-105427303D01*
X127191810Y-105408396D01*
X127161123Y-105366159D01*
X127159719Y-105366874D01*
X127102064Y-105253719D01*
X127102063Y-105253717D01*
X127098528Y-105246780D01*
X127003220Y-105151472D01*
X126996283Y-105147937D01*
X126996281Y-105147936D01*
X126890066Y-105093817D01*
X126890065Y-105093817D01*
X126883126Y-105090281D01*
X126875432Y-105089062D01*
X126875431Y-105089062D01*
X126757696Y-105070415D01*
X126750000Y-105069196D01*
X126742304Y-105070415D01*
X126624569Y-105089062D01*
X126624568Y-105089062D01*
X126616874Y-105090281D01*
X126609935Y-105093817D01*
X126609934Y-105093817D01*
X126503719Y-105147936D01*
X126503717Y-105147937D01*
X126496780Y-105151472D01*
X126401472Y-105246780D01*
X126397937Y-105253717D01*
X126397936Y-105253719D01*
X126354452Y-105339062D01*
X126340281Y-105366874D01*
X126339062Y-105374568D01*
X126339062Y-105374569D01*
X126332749Y-105414431D01*
X126319196Y-105500000D01*
X126320415Y-105507696D01*
X126338926Y-105624569D01*
X126340281Y-105633126D01*
X126343817Y-105640065D01*
X126343817Y-105640066D01*
X126390198Y-105731093D01*
X126401472Y-105753220D01*
X126496780Y-105848528D01*
X126503717Y-105852063D01*
X126503719Y-105852064D01*
X126590622Y-105896343D01*
X126616874Y-105909719D01*
X126624568Y-105910938D01*
X126624569Y-105910938D01*
X126742304Y-105929585D01*
X126750000Y-105930804D01*
X126757696Y-105929585D01*
X126875431Y-105910938D01*
X126875432Y-105910938D01*
X126883126Y-105909719D01*
X126909378Y-105896343D01*
X126996281Y-105852064D01*
X126996283Y-105852063D01*
X127003220Y-105848528D01*
X127098528Y-105753220D01*
X127109803Y-105731093D01*
X127159719Y-105633126D01*
X127161123Y-105633841D01*
X127191809Y-105591605D01*
X127249999Y-105572697D01*
X127308190Y-105591604D01*
X127338877Y-105633841D01*
X127340281Y-105633126D01*
X127390198Y-105731093D01*
X127401472Y-105753220D01*
X127496780Y-105848528D01*
X127503717Y-105852063D01*
X127503719Y-105852064D01*
X127590622Y-105896343D01*
X127616874Y-105909719D01*
X127624568Y-105910938D01*
X127624569Y-105910938D01*
X127742304Y-105929585D01*
X127750000Y-105930804D01*
X127757696Y-105929585D01*
X127875431Y-105910938D01*
X127875432Y-105910938D01*
X127883126Y-105909719D01*
X127909378Y-105896343D01*
X127996281Y-105852064D01*
X127996283Y-105852063D01*
X128003220Y-105848528D01*
X128098528Y-105753220D01*
X128109803Y-105731093D01*
X128159719Y-105633126D01*
X128161123Y-105633841D01*
X128191809Y-105591605D01*
X128249999Y-105572697D01*
X128308190Y-105591604D01*
X128338877Y-105633841D01*
X128340281Y-105633126D01*
X128390198Y-105731093D01*
X128401472Y-105753220D01*
X128496780Y-105848528D01*
X128503717Y-105852063D01*
X128503719Y-105852064D01*
X128554891Y-105878137D01*
X128579950Y-105896343D01*
X129820504Y-107136896D01*
X129848281Y-107191413D01*
X129849500Y-107206900D01*
X129849500Y-107479842D01*
X129830593Y-107538033D01*
X129781093Y-107573997D01*
X129719907Y-107573997D01*
X129670407Y-107538033D01*
X129659761Y-107517138D01*
X129659719Y-107516874D01*
X129651871Y-107501472D01*
X129602064Y-107403719D01*
X129602063Y-107403717D01*
X129598528Y-107396780D01*
X129503220Y-107301472D01*
X129496283Y-107297937D01*
X129496281Y-107297936D01*
X129390066Y-107243817D01*
X129390065Y-107243817D01*
X129383126Y-107240281D01*
X129375432Y-107239062D01*
X129375431Y-107239062D01*
X129257696Y-107220415D01*
X129250000Y-107219196D01*
X129242304Y-107220415D01*
X129124569Y-107239062D01*
X129124568Y-107239062D01*
X129116874Y-107240281D01*
X129109935Y-107243817D01*
X129109934Y-107243817D01*
X129003719Y-107297936D01*
X129003717Y-107297937D01*
X128996780Y-107301472D01*
X128901472Y-107396780D01*
X128897937Y-107403717D01*
X128897936Y-107403719D01*
X128848129Y-107501472D01*
X128840281Y-107516874D01*
X128838877Y-107516159D01*
X128808191Y-107558395D01*
X128750001Y-107577303D01*
X128691810Y-107558396D01*
X128661123Y-107516159D01*
X128659719Y-107516874D01*
X128602064Y-107403719D01*
X128602063Y-107403717D01*
X128598528Y-107396780D01*
X128503220Y-107301472D01*
X128496283Y-107297937D01*
X128496281Y-107297936D01*
X128390066Y-107243817D01*
X128390065Y-107243817D01*
X128383126Y-107240281D01*
X128375432Y-107239062D01*
X128375431Y-107239062D01*
X128257696Y-107220415D01*
X128250000Y-107219196D01*
X128242304Y-107220415D01*
X128124569Y-107239062D01*
X128124568Y-107239062D01*
X128116874Y-107240281D01*
X128109935Y-107243817D01*
X128109934Y-107243817D01*
X128003719Y-107297936D01*
X128003717Y-107297937D01*
X127996780Y-107301472D01*
X127901472Y-107396780D01*
X127897937Y-107403717D01*
X127897936Y-107403719D01*
X127848129Y-107501472D01*
X127840281Y-107516874D01*
X127838877Y-107516159D01*
X127808191Y-107558395D01*
X127750001Y-107577303D01*
X127691810Y-107558396D01*
X127661123Y-107516159D01*
X127659719Y-107516874D01*
X127602064Y-107403719D01*
X127602063Y-107403717D01*
X127598528Y-107396780D01*
X127503220Y-107301472D01*
X127496283Y-107297937D01*
X127496281Y-107297936D01*
X127390066Y-107243817D01*
X127390065Y-107243817D01*
X127383126Y-107240281D01*
X127375432Y-107239062D01*
X127375431Y-107239062D01*
X127257696Y-107220415D01*
X127250000Y-107219196D01*
X127242304Y-107220415D01*
X127124569Y-107239062D01*
X127124568Y-107239062D01*
X127116874Y-107240281D01*
X127109935Y-107243817D01*
X127109934Y-107243817D01*
X127003719Y-107297936D01*
X127003717Y-107297937D01*
X126996780Y-107301472D01*
X126901472Y-107396780D01*
X126897937Y-107403717D01*
X126897936Y-107403719D01*
X126848129Y-107501472D01*
X126840281Y-107516874D01*
X126838877Y-107516159D01*
X126808191Y-107558395D01*
X126750001Y-107577303D01*
X126691810Y-107558396D01*
X126661123Y-107516159D01*
X126659719Y-107516874D01*
X126602064Y-107403719D01*
X126602063Y-107403717D01*
X126598528Y-107396780D01*
X126503220Y-107301472D01*
X126496283Y-107297937D01*
X126496281Y-107297936D01*
X126390066Y-107243817D01*
X126390065Y-107243817D01*
X126383126Y-107240281D01*
X126375432Y-107239062D01*
X126375431Y-107239062D01*
X126257696Y-107220415D01*
X126250000Y-107219196D01*
X126242304Y-107220415D01*
X126124569Y-107239062D01*
X126124568Y-107239062D01*
X126116874Y-107240281D01*
X126109935Y-107243817D01*
X126109934Y-107243817D01*
X126003719Y-107297936D01*
X126003717Y-107297937D01*
X125996780Y-107301472D01*
X125901472Y-107396780D01*
X125897937Y-107403717D01*
X125897936Y-107403719D01*
X125848129Y-107501472D01*
X125840281Y-107516874D01*
X125839062Y-107524568D01*
X125839062Y-107524569D01*
X125831234Y-107573997D01*
X125819196Y-107650000D01*
X125820415Y-107657696D01*
X125838463Y-107771645D01*
X125840281Y-107783126D01*
X125843817Y-107790065D01*
X125843817Y-107790066D01*
X125889183Y-107879101D01*
X125901472Y-107903220D01*
X125996780Y-107998528D01*
X126003717Y-108002063D01*
X126003719Y-108002064D01*
X126109934Y-108056183D01*
X126116874Y-108059719D01*
X126124568Y-108060938D01*
X126124569Y-108060938D01*
X126208525Y-108074235D01*
X126238497Y-108078982D01*
X126242304Y-108079585D01*
X126250000Y-108080804D01*
X126257696Y-108079585D01*
X126261504Y-108078982D01*
X126291475Y-108074235D01*
X126375431Y-108060938D01*
X126375432Y-108060938D01*
X126383126Y-108059719D01*
X126390066Y-108056183D01*
X126496281Y-108002064D01*
X126496283Y-108002063D01*
X126503220Y-107998528D01*
X126598528Y-107903220D01*
X126610818Y-107879101D01*
X126659719Y-107783126D01*
X126661123Y-107783841D01*
X126691809Y-107741605D01*
X126749999Y-107722697D01*
X126808190Y-107741604D01*
X126838877Y-107783841D01*
X126840281Y-107783126D01*
X126889183Y-107879101D01*
X126901472Y-107903220D01*
X126996780Y-107998528D01*
X127003717Y-108002063D01*
X127003719Y-108002064D01*
X127109934Y-108056183D01*
X127116874Y-108059719D01*
X127124568Y-108060938D01*
X127124569Y-108060938D01*
X127208525Y-108074235D01*
X127238497Y-108078982D01*
X127242304Y-108079585D01*
X127250000Y-108080804D01*
X127257696Y-108079585D01*
X127261504Y-108078982D01*
X127291475Y-108074235D01*
X127375431Y-108060938D01*
X127375432Y-108060938D01*
X127383126Y-108059719D01*
X127390066Y-108056183D01*
X127496281Y-108002064D01*
X127496283Y-108002063D01*
X127503220Y-107998528D01*
X127598528Y-107903220D01*
X127610818Y-107879101D01*
X127659719Y-107783126D01*
X127661123Y-107783841D01*
X127691809Y-107741605D01*
X127749999Y-107722697D01*
X127808190Y-107741604D01*
X127838877Y-107783841D01*
X127840281Y-107783126D01*
X127889183Y-107879101D01*
X127901472Y-107903220D01*
X127996780Y-107998528D01*
X128003717Y-108002063D01*
X128003719Y-108002064D01*
X128109934Y-108056183D01*
X128116874Y-108059719D01*
X128124568Y-108060938D01*
X128124569Y-108060938D01*
X128208525Y-108074235D01*
X128238497Y-108078982D01*
X128242304Y-108079585D01*
X128250000Y-108080804D01*
X128257696Y-108079585D01*
X128261504Y-108078982D01*
X128291475Y-108074235D01*
X128375431Y-108060938D01*
X128375432Y-108060938D01*
X128383126Y-108059719D01*
X128390066Y-108056183D01*
X128496281Y-108002064D01*
X128496283Y-108002063D01*
X128503220Y-107998528D01*
X128598528Y-107903220D01*
X128610818Y-107879101D01*
X128659719Y-107783126D01*
X128661123Y-107783841D01*
X128691809Y-107741605D01*
X128749999Y-107722697D01*
X128808190Y-107741604D01*
X128838877Y-107783841D01*
X128840281Y-107783126D01*
X128889183Y-107879101D01*
X128901472Y-107903220D01*
X128996780Y-107998528D01*
X129003717Y-108002063D01*
X129003719Y-108002064D01*
X129109934Y-108056183D01*
X129116874Y-108059719D01*
X129124568Y-108060938D01*
X129124569Y-108060938D01*
X129208525Y-108074235D01*
X129238497Y-108078982D01*
X129242304Y-108079585D01*
X129250000Y-108080804D01*
X129257696Y-108079585D01*
X129261504Y-108078982D01*
X129291475Y-108074235D01*
X129375431Y-108060938D01*
X129375432Y-108060938D01*
X129383126Y-108059719D01*
X129390066Y-108056183D01*
X129496281Y-108002064D01*
X129496283Y-108002063D01*
X129503220Y-107998528D01*
X129598528Y-107903220D01*
X129610818Y-107879101D01*
X129656182Y-107790068D01*
X129656183Y-107790066D01*
X129659719Y-107783126D01*
X129660671Y-107783611D01*
X129692308Y-107740066D01*
X129750499Y-107721158D01*
X129808690Y-107740065D01*
X129844654Y-107789564D01*
X129849500Y-107820158D01*
X129849500Y-108925500D01*
X129830593Y-108983691D01*
X129781093Y-109019655D01*
X129750500Y-109024500D01*
X110511161Y-109024500D01*
X110452970Y-109005593D01*
X110417006Y-108956093D01*
X110413380Y-108910013D01*
X110429585Y-108807697D01*
X110429585Y-108807696D01*
X110430804Y-108800000D01*
X110409719Y-108666874D01*
X110362868Y-108574923D01*
X110352064Y-108553719D01*
X110352063Y-108553717D01*
X110348528Y-108546780D01*
X110253220Y-108451472D01*
X110246283Y-108447937D01*
X110246281Y-108447936D01*
X110140066Y-108393817D01*
X110140065Y-108393817D01*
X110133126Y-108390281D01*
X110125434Y-108389063D01*
X110125432Y-108389062D01*
X110093963Y-108384078D01*
X110039447Y-108356300D01*
X110011670Y-108301783D01*
X110011670Y-108270810D01*
X110029585Y-108157697D01*
X110029585Y-108157696D01*
X110030804Y-108150000D01*
X110020023Y-108081931D01*
X110010938Y-108024569D01*
X110010938Y-108024568D01*
X110009719Y-108016874D01*
X109988603Y-107975431D01*
X109952064Y-107903719D01*
X109952063Y-107903717D01*
X109948528Y-107896780D01*
X109853220Y-107801472D01*
X109846283Y-107797937D01*
X109846281Y-107797936D01*
X109740066Y-107743817D01*
X109740065Y-107743817D01*
X109733126Y-107740281D01*
X109725432Y-107739062D01*
X109725431Y-107739062D01*
X109633924Y-107724569D01*
X109600000Y-107719196D01*
X109566076Y-107724569D01*
X109474569Y-107739062D01*
X109474568Y-107739062D01*
X109466874Y-107740281D01*
X109459935Y-107743817D01*
X109459934Y-107743817D01*
X109353719Y-107797936D01*
X109353717Y-107797937D01*
X109346780Y-107801472D01*
X109251472Y-107896780D01*
X109247937Y-107903717D01*
X109247936Y-107903719D01*
X109211397Y-107975431D01*
X109190281Y-108016874D01*
X109189062Y-108024568D01*
X109189062Y-108024569D01*
X109179977Y-108081931D01*
X109169196Y-108150000D01*
X109170415Y-108157696D01*
X109186014Y-108256183D01*
X109190281Y-108283126D01*
X109193817Y-108290065D01*
X109193817Y-108290066D01*
X109241719Y-108384078D01*
X109251472Y-108403220D01*
X109346780Y-108498528D01*
X109353717Y-108502063D01*
X109353719Y-108502064D01*
X109450331Y-108551290D01*
X109466874Y-108559719D01*
X109474566Y-108560937D01*
X109474568Y-108560938D01*
X109506037Y-108565922D01*
X109560553Y-108593700D01*
X109588330Y-108648217D01*
X109588330Y-108679190D01*
X109570928Y-108789062D01*
X109569196Y-108800000D01*
X109570415Y-108807696D01*
X109570415Y-108807697D01*
X109586620Y-108910013D01*
X109577049Y-108970445D01*
X109533784Y-109013710D01*
X109488839Y-109024500D01*
X108631901Y-109024500D01*
X108573710Y-109005593D01*
X108561897Y-108995504D01*
X107496252Y-107929859D01*
X107468475Y-107875342D01*
X107478046Y-107814910D01*
X107521311Y-107771645D01*
X107581743Y-107762074D01*
X107700000Y-107780804D01*
X107707696Y-107779585D01*
X107825431Y-107760938D01*
X107825432Y-107760938D01*
X107833126Y-107759719D01*
X107848366Y-107751954D01*
X107946281Y-107702064D01*
X107946283Y-107702063D01*
X107953220Y-107698528D01*
X108001748Y-107650000D01*
X112869196Y-107650000D01*
X112870415Y-107657696D01*
X112888463Y-107771645D01*
X112890281Y-107783126D01*
X112893817Y-107790065D01*
X112893817Y-107790066D01*
X112939183Y-107879101D01*
X112951472Y-107903220D01*
X113046780Y-107998528D01*
X113053717Y-108002063D01*
X113053719Y-108002064D01*
X113159934Y-108056183D01*
X113166874Y-108059719D01*
X113174568Y-108060938D01*
X113174569Y-108060938D01*
X113258525Y-108074235D01*
X113288497Y-108078982D01*
X113292304Y-108079585D01*
X113300000Y-108080804D01*
X113307696Y-108079585D01*
X113311504Y-108078982D01*
X113341475Y-108074235D01*
X115294961Y-108074235D01*
X115316046Y-108207361D01*
X115377237Y-108327455D01*
X115472545Y-108422763D01*
X115479482Y-108426298D01*
X115479484Y-108426299D01*
X115585699Y-108480418D01*
X115592639Y-108483954D01*
X115600333Y-108485173D01*
X115600334Y-108485173D01*
X115718069Y-108503820D01*
X115725765Y-108505039D01*
X115733461Y-108503820D01*
X115851196Y-108485173D01*
X115851197Y-108485173D01*
X115858891Y-108483954D01*
X115865831Y-108480418D01*
X115972046Y-108426299D01*
X115972048Y-108426298D01*
X115978985Y-108422763D01*
X116074293Y-108327455D01*
X116135484Y-108207361D01*
X116156569Y-108074235D01*
X116149247Y-108028006D01*
X116158818Y-107967574D01*
X116202083Y-107924309D01*
X116216437Y-107918364D01*
X116221834Y-107916611D01*
X116229528Y-107915392D01*
X116266056Y-107896780D01*
X116342683Y-107857737D01*
X116342685Y-107857736D01*
X116349622Y-107854201D01*
X116444930Y-107758893D01*
X116453740Y-107741604D01*
X116502585Y-107645739D01*
X116502585Y-107645738D01*
X116506121Y-107638799D01*
X116527206Y-107505673D01*
X116524222Y-107486830D01*
X116533794Y-107426398D01*
X116577059Y-107383134D01*
X116606518Y-107373563D01*
X116623219Y-107370918D01*
X116623220Y-107370918D01*
X116630915Y-107369699D01*
X116665526Y-107352064D01*
X116744070Y-107312044D01*
X116744072Y-107312043D01*
X116751009Y-107308508D01*
X116846317Y-107213200D01*
X116852021Y-107202007D01*
X116903972Y-107100046D01*
X116903972Y-107100045D01*
X116907508Y-107093106D01*
X116928593Y-106959980D01*
X116928304Y-106958158D01*
X116946281Y-106902831D01*
X116995781Y-106866867D01*
X117010886Y-106863242D01*
X117017732Y-106862157D01*
X117025431Y-106860938D01*
X117025432Y-106860938D01*
X117033126Y-106859719D01*
X117040066Y-106856183D01*
X117146281Y-106802064D01*
X117146283Y-106802063D01*
X117153220Y-106798528D01*
X117248528Y-106703220D01*
X117272090Y-106656978D01*
X117306183Y-106590066D01*
X117306183Y-106590065D01*
X117309719Y-106583126D01*
X117311926Y-106569196D01*
X117329585Y-106457696D01*
X117330804Y-106450000D01*
X117312293Y-106333126D01*
X117310938Y-106324569D01*
X117310938Y-106324568D01*
X117309719Y-106316874D01*
X117301121Y-106300000D01*
X119819196Y-106300000D01*
X119840281Y-106433126D01*
X119843817Y-106440065D01*
X119843817Y-106440066D01*
X119890485Y-106531656D01*
X119901472Y-106553220D01*
X119996780Y-106648528D01*
X120003717Y-106652063D01*
X120003719Y-106652064D01*
X120104119Y-106703220D01*
X120116874Y-106709719D01*
X120124568Y-106710938D01*
X120124569Y-106710938D01*
X120213022Y-106724947D01*
X120242241Y-106729575D01*
X120242304Y-106729585D01*
X120250000Y-106730804D01*
X120257696Y-106729585D01*
X120257760Y-106729575D01*
X120286978Y-106724947D01*
X120375431Y-106710938D01*
X120375432Y-106710938D01*
X120383126Y-106709719D01*
X120395881Y-106703220D01*
X120496281Y-106652064D01*
X120496283Y-106652063D01*
X120503220Y-106648528D01*
X120598528Y-106553220D01*
X120609516Y-106531656D01*
X120656183Y-106440066D01*
X120656183Y-106440065D01*
X120659719Y-106433126D01*
X120680804Y-106300000D01*
X120663584Y-106191274D01*
X120660938Y-106174569D01*
X120660938Y-106174568D01*
X120659719Y-106166874D01*
X120644445Y-106136897D01*
X120602064Y-106053719D01*
X120602063Y-106053717D01*
X120598528Y-106046780D01*
X120503220Y-105951472D01*
X120496283Y-105947937D01*
X120496281Y-105947936D01*
X120390066Y-105893817D01*
X120390065Y-105893817D01*
X120383126Y-105890281D01*
X120375432Y-105889062D01*
X120375431Y-105889062D01*
X120257696Y-105870415D01*
X120250000Y-105869196D01*
X120242304Y-105870415D01*
X120124569Y-105889062D01*
X120124568Y-105889062D01*
X120116874Y-105890281D01*
X120109935Y-105893817D01*
X120109934Y-105893817D01*
X120003719Y-105947936D01*
X120003717Y-105947937D01*
X119996780Y-105951472D01*
X119901472Y-106046780D01*
X119897937Y-106053717D01*
X119897936Y-106053719D01*
X119855555Y-106136897D01*
X119840281Y-106166874D01*
X119839062Y-106174568D01*
X119839062Y-106174569D01*
X119836416Y-106191274D01*
X119819196Y-106300000D01*
X117301121Y-106300000D01*
X117270198Y-106239309D01*
X117252064Y-106203719D01*
X117252063Y-106203717D01*
X117248528Y-106196780D01*
X117153220Y-106101472D01*
X117146283Y-106097937D01*
X117146281Y-106097936D01*
X117040066Y-106043817D01*
X117040065Y-106043817D01*
X117033126Y-106040281D01*
X117025432Y-106039062D01*
X117025431Y-106039062D01*
X116907696Y-106020415D01*
X116900000Y-106019196D01*
X116892304Y-106020415D01*
X116774569Y-106039062D01*
X116774568Y-106039062D01*
X116766874Y-106040281D01*
X116759935Y-106043817D01*
X116759934Y-106043817D01*
X116653719Y-106097936D01*
X116653717Y-106097937D01*
X116646780Y-106101472D01*
X116551472Y-106196780D01*
X116547937Y-106203717D01*
X116547936Y-106203719D01*
X116529802Y-106239309D01*
X116490281Y-106316874D01*
X116489062Y-106324568D01*
X116489062Y-106324569D01*
X116487707Y-106333126D01*
X116469196Y-106450000D01*
X116469485Y-106451822D01*
X116451508Y-106507149D01*
X116402008Y-106543113D01*
X116386903Y-106546738D01*
X116380057Y-106547823D01*
X116372358Y-106549042D01*
X116372357Y-106549042D01*
X116364663Y-106550261D01*
X116357724Y-106553797D01*
X116357723Y-106553797D01*
X116251508Y-106607916D01*
X116251506Y-106607917D01*
X116244569Y-106611452D01*
X116149261Y-106706760D01*
X116145726Y-106713697D01*
X116145725Y-106713699D01*
X116121289Y-106761658D01*
X116088070Y-106826854D01*
X116086851Y-106834548D01*
X116086851Y-106834549D01*
X116079918Y-106878324D01*
X116066985Y-106959980D01*
X116068204Y-106967676D01*
X116068204Y-106967678D01*
X116069969Y-106978823D01*
X116060397Y-107039255D01*
X116017132Y-107082519D01*
X115987673Y-107092090D01*
X115970972Y-107094735D01*
X115970971Y-107094735D01*
X115963276Y-107095954D01*
X115956337Y-107099490D01*
X115956336Y-107099490D01*
X115850121Y-107153609D01*
X115850119Y-107153610D01*
X115843182Y-107157145D01*
X115747874Y-107252453D01*
X115744339Y-107259390D01*
X115744338Y-107259392D01*
X115694250Y-107357696D01*
X115686683Y-107372547D01*
X115685464Y-107380241D01*
X115685464Y-107380242D01*
X115679101Y-107420415D01*
X115665598Y-107505673D01*
X115666817Y-107513369D01*
X115672920Y-107551902D01*
X115663349Y-107612334D01*
X115620084Y-107655599D01*
X115605730Y-107661544D01*
X115600333Y-107663297D01*
X115592639Y-107664516D01*
X115585700Y-107668052D01*
X115585699Y-107668052D01*
X115479484Y-107722171D01*
X115479482Y-107722172D01*
X115472545Y-107725707D01*
X115377237Y-107821015D01*
X115373702Y-107827952D01*
X115373701Y-107827954D01*
X115341438Y-107891274D01*
X115316046Y-107941109D01*
X115294961Y-108074235D01*
X113341475Y-108074235D01*
X113425431Y-108060938D01*
X113425432Y-108060938D01*
X113433126Y-108059719D01*
X113440066Y-108056183D01*
X113546281Y-108002064D01*
X113546283Y-108002063D01*
X113553220Y-107998528D01*
X113648528Y-107903220D01*
X113660818Y-107879101D01*
X113706183Y-107790066D01*
X113706183Y-107790065D01*
X113709719Y-107783126D01*
X113711538Y-107771645D01*
X113720216Y-107716850D01*
X113747993Y-107662333D01*
X115660326Y-105750000D01*
X123669196Y-105750000D01*
X123670415Y-105757696D01*
X123688075Y-105869196D01*
X123690281Y-105883126D01*
X123693817Y-105890065D01*
X123693817Y-105890066D01*
X123727911Y-105956978D01*
X123751472Y-106003220D01*
X123846780Y-106098528D01*
X123853717Y-106102063D01*
X123853719Y-106102064D01*
X123922083Y-106136897D01*
X123966874Y-106159719D01*
X123974568Y-106160938D01*
X123974569Y-106160938D01*
X124022195Y-106168481D01*
X124070793Y-106176178D01*
X124092304Y-106179585D01*
X124100000Y-106180804D01*
X124107696Y-106179585D01*
X124129208Y-106176178D01*
X124177805Y-106168481D01*
X124225431Y-106160938D01*
X124225432Y-106160938D01*
X124233126Y-106159719D01*
X124277917Y-106136897D01*
X124346281Y-106102064D01*
X124346283Y-106102063D01*
X124353220Y-106098528D01*
X124448528Y-106003220D01*
X124472090Y-105956978D01*
X124506183Y-105890066D01*
X124506183Y-105890065D01*
X124509719Y-105883126D01*
X124511926Y-105869196D01*
X124529585Y-105757696D01*
X124530804Y-105750000D01*
X124513392Y-105640066D01*
X124510938Y-105624569D01*
X124510938Y-105624568D01*
X124509719Y-105616874D01*
X124487210Y-105572697D01*
X124452064Y-105503719D01*
X124452063Y-105503717D01*
X124448528Y-105496780D01*
X124353220Y-105401472D01*
X124346283Y-105397937D01*
X124346281Y-105397936D01*
X124240066Y-105343817D01*
X124240065Y-105343817D01*
X124233126Y-105340281D01*
X124225432Y-105339062D01*
X124225431Y-105339062D01*
X124107696Y-105320415D01*
X124100000Y-105319196D01*
X124092304Y-105320415D01*
X123974569Y-105339062D01*
X123974568Y-105339062D01*
X123966874Y-105340281D01*
X123959935Y-105343817D01*
X123959934Y-105343817D01*
X123853719Y-105397936D01*
X123853717Y-105397937D01*
X123846780Y-105401472D01*
X123751472Y-105496780D01*
X123747937Y-105503717D01*
X123747936Y-105503719D01*
X123712790Y-105572697D01*
X123690281Y-105616874D01*
X123689062Y-105624568D01*
X123689062Y-105624569D01*
X123686608Y-105640066D01*
X123669196Y-105750000D01*
X115660326Y-105750000D01*
X116917057Y-104493269D01*
X116923425Y-104487434D01*
X116953194Y-104462455D01*
X116972629Y-104428792D01*
X116977268Y-104421511D01*
X116979729Y-104417996D01*
X116999554Y-104389684D01*
X117001796Y-104381319D01*
X117004258Y-104376039D01*
X117006257Y-104370548D01*
X117010588Y-104363045D01*
X117017337Y-104324771D01*
X117019206Y-104316344D01*
X117027022Y-104287173D01*
X117027022Y-104287170D01*
X117029263Y-104278807D01*
X117025877Y-104240103D01*
X117025500Y-104231475D01*
X117025500Y-104198286D01*
X117044407Y-104140095D01*
X117093907Y-104104131D01*
X117155093Y-104104131D01*
X117169445Y-104110077D01*
X117259928Y-104156181D01*
X117259934Y-104156183D01*
X117266874Y-104159719D01*
X117274568Y-104160938D01*
X117274569Y-104160938D01*
X117392304Y-104179585D01*
X117400000Y-104180804D01*
X117407696Y-104179585D01*
X117525431Y-104160938D01*
X117525432Y-104160938D01*
X117533126Y-104159719D01*
X117540070Y-104156181D01*
X117646281Y-104102064D01*
X117646283Y-104102063D01*
X117653220Y-104098528D01*
X117748528Y-104003220D01*
X117789632Y-103922550D01*
X117806183Y-103890066D01*
X117806183Y-103890065D01*
X117809719Y-103883126D01*
X117811075Y-103874569D01*
X117829585Y-103757696D01*
X117830804Y-103750000D01*
X117820377Y-103684166D01*
X118112252Y-103684166D01*
X118133337Y-103817292D01*
X118136873Y-103824231D01*
X118136873Y-103824232D01*
X118190090Y-103928675D01*
X118194528Y-103937386D01*
X118289836Y-104032694D01*
X118296773Y-104036229D01*
X118296775Y-104036230D01*
X118368762Y-104072909D01*
X118409930Y-104093885D01*
X118417624Y-104095104D01*
X118417625Y-104095104D01*
X118535360Y-104113751D01*
X118543056Y-104114970D01*
X118550752Y-104113751D01*
X118668487Y-104095104D01*
X118668488Y-104095104D01*
X118676182Y-104093885D01*
X118717350Y-104072909D01*
X118789337Y-104036230D01*
X118789339Y-104036229D01*
X118796276Y-104032694D01*
X118828970Y-104000000D01*
X119369196Y-104000000D01*
X119370415Y-104007696D01*
X119387438Y-104115174D01*
X119390281Y-104133126D01*
X119393817Y-104140065D01*
X119393817Y-104140066D01*
X119447213Y-104244861D01*
X119451472Y-104253220D01*
X119546780Y-104348528D01*
X119553717Y-104352063D01*
X119553719Y-104352064D01*
X119638259Y-104395139D01*
X119666874Y-104409719D01*
X119674568Y-104410938D01*
X119674569Y-104410938D01*
X119792304Y-104429585D01*
X119800000Y-104430804D01*
X119807696Y-104429585D01*
X119925431Y-104410938D01*
X119925432Y-104410938D01*
X119933126Y-104409719D01*
X119961741Y-104395139D01*
X120046281Y-104352064D01*
X120046283Y-104352063D01*
X120053220Y-104348528D01*
X120148528Y-104253220D01*
X120152788Y-104244861D01*
X120175646Y-104200000D01*
X141369196Y-104200000D01*
X141390281Y-104333126D01*
X141393817Y-104340065D01*
X141393817Y-104340066D01*
X141439027Y-104428795D01*
X141451472Y-104453220D01*
X141546780Y-104548528D01*
X141553717Y-104552063D01*
X141553719Y-104552064D01*
X141659934Y-104606183D01*
X141666874Y-104609719D01*
X141674568Y-104610938D01*
X141674569Y-104610938D01*
X141792304Y-104629585D01*
X141800000Y-104630804D01*
X141807696Y-104629585D01*
X141925431Y-104610938D01*
X141925432Y-104610938D01*
X141933126Y-104609719D01*
X141940066Y-104606183D01*
X142046281Y-104552064D01*
X142046283Y-104552063D01*
X142053220Y-104548528D01*
X142148528Y-104453220D01*
X142160974Y-104428795D01*
X142206183Y-104340066D01*
X142206183Y-104340065D01*
X142209719Y-104333126D01*
X142230804Y-104200000D01*
X142220212Y-104133126D01*
X142210938Y-104074569D01*
X142210938Y-104074568D01*
X142209719Y-104066874D01*
X142206183Y-104059934D01*
X142152064Y-103953719D01*
X142152063Y-103953717D01*
X142148528Y-103946780D01*
X142053220Y-103851472D01*
X142046283Y-103847937D01*
X142046281Y-103847936D01*
X141940066Y-103793817D01*
X141940065Y-103793817D01*
X141933126Y-103790281D01*
X141925432Y-103789062D01*
X141925431Y-103789062D01*
X141807696Y-103770415D01*
X141800000Y-103769196D01*
X141792304Y-103770415D01*
X141674569Y-103789062D01*
X141674568Y-103789062D01*
X141666874Y-103790281D01*
X141659935Y-103793817D01*
X141659934Y-103793817D01*
X141553719Y-103847936D01*
X141553717Y-103847937D01*
X141546780Y-103851472D01*
X141451472Y-103946780D01*
X141447937Y-103953717D01*
X141447936Y-103953719D01*
X141393817Y-104059934D01*
X141390281Y-104066874D01*
X141389062Y-104074568D01*
X141389062Y-104074569D01*
X141379788Y-104133126D01*
X141369196Y-104200000D01*
X120175646Y-104200000D01*
X120206183Y-104140066D01*
X120206183Y-104140065D01*
X120209719Y-104133126D01*
X120212563Y-104115174D01*
X120229585Y-104007696D01*
X120230804Y-104000000D01*
X120218537Y-103922550D01*
X120210938Y-103874569D01*
X120210938Y-103874568D01*
X120209719Y-103866874D01*
X120177286Y-103803220D01*
X120152064Y-103753719D01*
X120152063Y-103753717D01*
X120148528Y-103746780D01*
X120053220Y-103651472D01*
X120046283Y-103647937D01*
X120046281Y-103647936D01*
X119940066Y-103593817D01*
X119940065Y-103593817D01*
X119933126Y-103590281D01*
X119925432Y-103589062D01*
X119925431Y-103589062D01*
X119807696Y-103570415D01*
X119800000Y-103569196D01*
X119792304Y-103570415D01*
X119674569Y-103589062D01*
X119674568Y-103589062D01*
X119666874Y-103590281D01*
X119659935Y-103593817D01*
X119659934Y-103593817D01*
X119553719Y-103647936D01*
X119553717Y-103647937D01*
X119546780Y-103651472D01*
X119451472Y-103746780D01*
X119447937Y-103753717D01*
X119447936Y-103753719D01*
X119422714Y-103803220D01*
X119390281Y-103866874D01*
X119389062Y-103874568D01*
X119389062Y-103874569D01*
X119381463Y-103922550D01*
X119369196Y-104000000D01*
X118828970Y-104000000D01*
X118891584Y-103937386D01*
X118896023Y-103928675D01*
X118949239Y-103824232D01*
X118949239Y-103824231D01*
X118952775Y-103817292D01*
X118973860Y-103684166D01*
X118952775Y-103551040D01*
X118952245Y-103550000D01*
X120569196Y-103550000D01*
X120570580Y-103558736D01*
X120586140Y-103656978D01*
X120590281Y-103683126D01*
X120593817Y-103690065D01*
X120593817Y-103690066D01*
X120647357Y-103795143D01*
X120651472Y-103803220D01*
X120746780Y-103898528D01*
X120753717Y-103902063D01*
X120753719Y-103902064D01*
X120855098Y-103953719D01*
X120866874Y-103959719D01*
X120874568Y-103960938D01*
X120874569Y-103960938D01*
X120992304Y-103979585D01*
X121000000Y-103980804D01*
X121007696Y-103979585D01*
X121125431Y-103960938D01*
X121125432Y-103960938D01*
X121133126Y-103959719D01*
X121144902Y-103953719D01*
X121246281Y-103902064D01*
X121246283Y-103902063D01*
X121253220Y-103898528D01*
X121348528Y-103803220D01*
X121352644Y-103795143D01*
X121406183Y-103690066D01*
X121406183Y-103690065D01*
X121409719Y-103683126D01*
X121413861Y-103656978D01*
X121429420Y-103558736D01*
X121430804Y-103550000D01*
X121415345Y-103452393D01*
X121410938Y-103424569D01*
X121410938Y-103424568D01*
X121409719Y-103416874D01*
X121408538Y-103414556D01*
X123019196Y-103414556D01*
X123020415Y-103422252D01*
X123032677Y-103499669D01*
X123040281Y-103547682D01*
X123043817Y-103554621D01*
X123043817Y-103554622D01*
X123097367Y-103659719D01*
X123101472Y-103667776D01*
X123196780Y-103763084D01*
X123203717Y-103766619D01*
X123203719Y-103766620D01*
X123303169Y-103817292D01*
X123316874Y-103824275D01*
X123324568Y-103825494D01*
X123324569Y-103825494D01*
X123442304Y-103844141D01*
X123450000Y-103845360D01*
X123457696Y-103844141D01*
X123575431Y-103825494D01*
X123575432Y-103825494D01*
X123583126Y-103824275D01*
X123596831Y-103817292D01*
X123696281Y-103766620D01*
X123696283Y-103766619D01*
X123703220Y-103763084D01*
X123798528Y-103667776D01*
X123802634Y-103659719D01*
X123856183Y-103554622D01*
X123856183Y-103554621D01*
X123859719Y-103547682D01*
X123867324Y-103499669D01*
X123874811Y-103452393D01*
X123902588Y-103397877D01*
X123957105Y-103370099D01*
X124027332Y-103358976D01*
X124027333Y-103358976D01*
X124035027Y-103357757D01*
X124108315Y-103320415D01*
X124148182Y-103300102D01*
X124148184Y-103300101D01*
X124155121Y-103296566D01*
X124250429Y-103201258D01*
X124254626Y-103193022D01*
X124308084Y-103088104D01*
X124308084Y-103088103D01*
X124311620Y-103081164D01*
X124314018Y-103066028D01*
X124331486Y-102955734D01*
X124332705Y-102948038D01*
X124329278Y-102926401D01*
X124338849Y-102865969D01*
X124382114Y-102822704D01*
X124411571Y-102813133D01*
X124425432Y-102810938D01*
X124425434Y-102810937D01*
X124433126Y-102809719D01*
X124489875Y-102780804D01*
X124546281Y-102752064D01*
X124546283Y-102752063D01*
X124553220Y-102748528D01*
X124648528Y-102653220D01*
X124655231Y-102640066D01*
X124706183Y-102540066D01*
X124706183Y-102540065D01*
X124709719Y-102533126D01*
X124711926Y-102519196D01*
X124729585Y-102407696D01*
X124730804Y-102400000D01*
X124731006Y-102400032D01*
X124748492Y-102346215D01*
X124797992Y-102310251D01*
X124813096Y-102306625D01*
X124816937Y-102306017D01*
X124838867Y-102302543D01*
X124845807Y-102299007D01*
X124952022Y-102244888D01*
X124952024Y-102244887D01*
X124958961Y-102241352D01*
X125054269Y-102146044D01*
X125096489Y-102063184D01*
X125111924Y-102032890D01*
X125111924Y-102032889D01*
X125115460Y-102025950D01*
X125120550Y-101993817D01*
X125135326Y-101900520D01*
X125136545Y-101892824D01*
X125122411Y-101803586D01*
X125116679Y-101767393D01*
X125116679Y-101767392D01*
X125115460Y-101759698D01*
X125054269Y-101639604D01*
X124958961Y-101544296D01*
X124952024Y-101540761D01*
X124952022Y-101540760D01*
X124845807Y-101486641D01*
X124845806Y-101486641D01*
X124838867Y-101483105D01*
X124831173Y-101481886D01*
X124831172Y-101481886D01*
X124713437Y-101463239D01*
X124705741Y-101462020D01*
X124698045Y-101463239D01*
X124580310Y-101481886D01*
X124580309Y-101481886D01*
X124572615Y-101483105D01*
X124565676Y-101486641D01*
X124565675Y-101486641D01*
X124459460Y-101540760D01*
X124459458Y-101540761D01*
X124452521Y-101544296D01*
X124357213Y-101639604D01*
X124296022Y-101759698D01*
X124294803Y-101767392D01*
X124294803Y-101767393D01*
X124289071Y-101803586D01*
X124274937Y-101892824D01*
X124274735Y-101892792D01*
X124257249Y-101946609D01*
X124207749Y-101982573D01*
X124192645Y-101986199D01*
X124188804Y-101986807D01*
X124166874Y-101990281D01*
X124159935Y-101993817D01*
X124159934Y-101993817D01*
X124053719Y-102047936D01*
X124053717Y-102047937D01*
X124046780Y-102051472D01*
X123951472Y-102146780D01*
X123947937Y-102153717D01*
X123947936Y-102153719D01*
X123897537Y-102252634D01*
X123890281Y-102266874D01*
X123889062Y-102274568D01*
X123889062Y-102274569D01*
X123884439Y-102303761D01*
X123869196Y-102400000D01*
X123870415Y-102407696D01*
X123872623Y-102421637D01*
X123863052Y-102482069D01*
X123819787Y-102525334D01*
X123790330Y-102534905D01*
X123776469Y-102537100D01*
X123776467Y-102537101D01*
X123768775Y-102538319D01*
X123761836Y-102541855D01*
X123761835Y-102541855D01*
X123655620Y-102595974D01*
X123655618Y-102595975D01*
X123648681Y-102599510D01*
X123553373Y-102694818D01*
X123549838Y-102701755D01*
X123549837Y-102701757D01*
X123520304Y-102759719D01*
X123492182Y-102814912D01*
X123490963Y-102822606D01*
X123490963Y-102822607D01*
X123477090Y-102910201D01*
X123449313Y-102964717D01*
X123394796Y-102992495D01*
X123324569Y-103003618D01*
X123324568Y-103003618D01*
X123316874Y-103004837D01*
X123309935Y-103008373D01*
X123309934Y-103008373D01*
X123203719Y-103062492D01*
X123203717Y-103062493D01*
X123196780Y-103066028D01*
X123101472Y-103161336D01*
X123097937Y-103168273D01*
X123097936Y-103168275D01*
X123056295Y-103250000D01*
X123040281Y-103281430D01*
X123039062Y-103289124D01*
X123039062Y-103289125D01*
X123034299Y-103319196D01*
X123019196Y-103414556D01*
X121408538Y-103414556D01*
X121392524Y-103383126D01*
X121352064Y-103303719D01*
X121352063Y-103303717D01*
X121348528Y-103296780D01*
X121253220Y-103201472D01*
X121246283Y-103197937D01*
X121246281Y-103197936D01*
X121140066Y-103143817D01*
X121140065Y-103143817D01*
X121133126Y-103140281D01*
X121125432Y-103139062D01*
X121125431Y-103139062D01*
X121007696Y-103120415D01*
X121000000Y-103119196D01*
X120992304Y-103120415D01*
X120874569Y-103139062D01*
X120874568Y-103139062D01*
X120866874Y-103140281D01*
X120859935Y-103143817D01*
X120859934Y-103143817D01*
X120753719Y-103197936D01*
X120753717Y-103197937D01*
X120746780Y-103201472D01*
X120651472Y-103296780D01*
X120647937Y-103303717D01*
X120647936Y-103303719D01*
X120607476Y-103383126D01*
X120590281Y-103416874D01*
X120589062Y-103424568D01*
X120589062Y-103424569D01*
X120584655Y-103452393D01*
X120569196Y-103550000D01*
X118952245Y-103550000D01*
X118950084Y-103545759D01*
X118950086Y-103485516D01*
X118986052Y-103436017D01*
X119028753Y-103418331D01*
X119075431Y-103410938D01*
X119075432Y-103410938D01*
X119083126Y-103409719D01*
X119099312Y-103401472D01*
X119196281Y-103352064D01*
X119196283Y-103352063D01*
X119203220Y-103348528D01*
X119298528Y-103253220D01*
X119322090Y-103206978D01*
X119356183Y-103140066D01*
X119356183Y-103140065D01*
X119359719Y-103133126D01*
X119361075Y-103124569D01*
X119379585Y-103007696D01*
X119380804Y-103000000D01*
X119371355Y-102940342D01*
X119360938Y-102874569D01*
X119360938Y-102874568D01*
X119359719Y-102866874D01*
X119346169Y-102840281D01*
X119302064Y-102753719D01*
X119302063Y-102753717D01*
X119298528Y-102746780D01*
X119203220Y-102651472D01*
X119196283Y-102647937D01*
X119196281Y-102647936D01*
X119090066Y-102593817D01*
X119090065Y-102593817D01*
X119083126Y-102590281D01*
X119075432Y-102589062D01*
X119075431Y-102589062D01*
X118957696Y-102570415D01*
X118950000Y-102569196D01*
X118942304Y-102570415D01*
X118824569Y-102589062D01*
X118824568Y-102589062D01*
X118816874Y-102590281D01*
X118809935Y-102593817D01*
X118809934Y-102593817D01*
X118703719Y-102647936D01*
X118703717Y-102647937D01*
X118696780Y-102651472D01*
X118601472Y-102746780D01*
X118597937Y-102753717D01*
X118597936Y-102753719D01*
X118553831Y-102840281D01*
X118540281Y-102866874D01*
X118539062Y-102874568D01*
X118539062Y-102874569D01*
X118528645Y-102940342D01*
X118519196Y-103000000D01*
X118540281Y-103133126D01*
X118542972Y-103138407D01*
X118542970Y-103198650D01*
X118507004Y-103248149D01*
X118464303Y-103265835D01*
X118417625Y-103273228D01*
X118417624Y-103273228D01*
X118409930Y-103274447D01*
X118402991Y-103277983D01*
X118402990Y-103277983D01*
X118296775Y-103332102D01*
X118296773Y-103332103D01*
X118289836Y-103335638D01*
X118194528Y-103430946D01*
X118190993Y-103437883D01*
X118190992Y-103437885D01*
X118157448Y-103503719D01*
X118133337Y-103551040D01*
X118132118Y-103558734D01*
X118132118Y-103558735D01*
X118125424Y-103600998D01*
X118112252Y-103684166D01*
X117820377Y-103684166D01*
X117820212Y-103683126D01*
X117810938Y-103624569D01*
X117810938Y-103624568D01*
X117809719Y-103616874D01*
X117801630Y-103600998D01*
X117752064Y-103503719D01*
X117752063Y-103503717D01*
X117748528Y-103496780D01*
X117653220Y-103401472D01*
X117646283Y-103397937D01*
X117646281Y-103397936D01*
X117540066Y-103343817D01*
X117540065Y-103343817D01*
X117533126Y-103340281D01*
X117525432Y-103339062D01*
X117525431Y-103339062D01*
X117407696Y-103320415D01*
X117400000Y-103319196D01*
X117392304Y-103320415D01*
X117274569Y-103339062D01*
X117274568Y-103339062D01*
X117266874Y-103340281D01*
X117259935Y-103343817D01*
X117259934Y-103343817D01*
X117153719Y-103397936D01*
X117153717Y-103397937D01*
X117146780Y-103401472D01*
X117120004Y-103428248D01*
X117065487Y-103456025D01*
X117005055Y-103446454D01*
X116979996Y-103428248D01*
X116953220Y-103401472D01*
X116946283Y-103397937D01*
X116946281Y-103397936D01*
X116840066Y-103343817D01*
X116840065Y-103343817D01*
X116833126Y-103340281D01*
X116825432Y-103339062D01*
X116825431Y-103339062D01*
X116707696Y-103320415D01*
X116700000Y-103319196D01*
X116692304Y-103320415D01*
X116574569Y-103339062D01*
X116574568Y-103339062D01*
X116566874Y-103340281D01*
X116559935Y-103343817D01*
X116559934Y-103343817D01*
X116453719Y-103397936D01*
X116453717Y-103397937D01*
X116446780Y-103401472D01*
X116351472Y-103496780D01*
X116347937Y-103503717D01*
X116347936Y-103503719D01*
X116298370Y-103600998D01*
X116290281Y-103616874D01*
X116289062Y-103624568D01*
X116289062Y-103624569D01*
X116284055Y-103656183D01*
X116277758Y-103695945D01*
X116276188Y-103705855D01*
X116248411Y-103760371D01*
X116193894Y-103788149D01*
X116133462Y-103778578D01*
X116100297Y-103750252D01*
X116098528Y-103746780D01*
X116003220Y-103651472D01*
X115996283Y-103647937D01*
X115996281Y-103647936D01*
X115890066Y-103593817D01*
X115890065Y-103593817D01*
X115883126Y-103590281D01*
X115875432Y-103589062D01*
X115875431Y-103589062D01*
X115757696Y-103570415D01*
X115750000Y-103569196D01*
X115742304Y-103570415D01*
X115624569Y-103589062D01*
X115624568Y-103589062D01*
X115616874Y-103590281D01*
X115609935Y-103593817D01*
X115609934Y-103593817D01*
X115503719Y-103647936D01*
X115503717Y-103647937D01*
X115496780Y-103651472D01*
X115401472Y-103746780D01*
X115397937Y-103753717D01*
X115397936Y-103753719D01*
X115372714Y-103803220D01*
X115340281Y-103866874D01*
X115339062Y-103874568D01*
X115339062Y-103874569D01*
X115331463Y-103922550D01*
X115319196Y-104000000D01*
X115320415Y-104007696D01*
X115337438Y-104115174D01*
X115340281Y-104133126D01*
X115343817Y-104140065D01*
X115343817Y-104140066D01*
X115397213Y-104244861D01*
X115401472Y-104253220D01*
X115496780Y-104348528D01*
X115503717Y-104352063D01*
X115503719Y-104352064D01*
X115588259Y-104395139D01*
X115616874Y-104409719D01*
X115624568Y-104410938D01*
X115624569Y-104410938D01*
X115742304Y-104429585D01*
X115750000Y-104430804D01*
X115757696Y-104429585D01*
X115757697Y-104429585D01*
X115816056Y-104420342D01*
X115876488Y-104429914D01*
X115919753Y-104473178D01*
X115929324Y-104533610D01*
X115901547Y-104588127D01*
X115075243Y-105414431D01*
X115020726Y-105442208D01*
X114960294Y-105432637D01*
X114917029Y-105389372D01*
X114911084Y-105375020D01*
X114910938Y-105374571D01*
X114909719Y-105366874D01*
X114878137Y-105304891D01*
X114852064Y-105253719D01*
X114852063Y-105253717D01*
X114848528Y-105246780D01*
X114753220Y-105151472D01*
X114746283Y-105147937D01*
X114746281Y-105147936D01*
X114640066Y-105093817D01*
X114640065Y-105093817D01*
X114633126Y-105090281D01*
X114625432Y-105089062D01*
X114625431Y-105089062D01*
X114507696Y-105070415D01*
X114500000Y-105069196D01*
X114492304Y-105070415D01*
X114374569Y-105089062D01*
X114374568Y-105089062D01*
X114366874Y-105090281D01*
X114359935Y-105093817D01*
X114359934Y-105093817D01*
X114253719Y-105147936D01*
X114253717Y-105147937D01*
X114246780Y-105151472D01*
X114151472Y-105246780D01*
X114147937Y-105253717D01*
X114147936Y-105253719D01*
X114104452Y-105339062D01*
X114090281Y-105366874D01*
X114089062Y-105374568D01*
X114089062Y-105374569D01*
X114082749Y-105414431D01*
X114069196Y-105500000D01*
X114070415Y-105507696D01*
X114088926Y-105624569D01*
X114090281Y-105633126D01*
X114093817Y-105640065D01*
X114093817Y-105640066D01*
X114140198Y-105731093D01*
X114151472Y-105753220D01*
X114246780Y-105848528D01*
X114253717Y-105852063D01*
X114253719Y-105852064D01*
X114299580Y-105875431D01*
X114366874Y-105909719D01*
X114374571Y-105910938D01*
X114375020Y-105911084D01*
X114424520Y-105947048D01*
X114443427Y-106005239D01*
X114424520Y-106063430D01*
X114414431Y-106075243D01*
X113287667Y-107202007D01*
X113233150Y-107229784D01*
X113174569Y-107239062D01*
X113174567Y-107239062D01*
X113166874Y-107240281D01*
X113159935Y-107243817D01*
X113159934Y-107243817D01*
X113053719Y-107297936D01*
X113053717Y-107297937D01*
X113046780Y-107301472D01*
X112951472Y-107396780D01*
X112947937Y-107403717D01*
X112947936Y-107403719D01*
X112898129Y-107501472D01*
X112890281Y-107516874D01*
X112889062Y-107524568D01*
X112889062Y-107524569D01*
X112881234Y-107573997D01*
X112869196Y-107650000D01*
X108001748Y-107650000D01*
X108048528Y-107603220D01*
X108061734Y-107577303D01*
X108106183Y-107490066D01*
X108106183Y-107490065D01*
X108109719Y-107483126D01*
X108119845Y-107419196D01*
X108129585Y-107357696D01*
X108130804Y-107350000D01*
X108114377Y-107246281D01*
X108110938Y-107224569D01*
X108110938Y-107224568D01*
X108109719Y-107216874D01*
X108104637Y-107206900D01*
X108052064Y-107103719D01*
X108052063Y-107103717D01*
X108048528Y-107096780D01*
X107953220Y-107001472D01*
X107946283Y-106997937D01*
X107946281Y-106997936D01*
X107840066Y-106943817D01*
X107840065Y-106943817D01*
X107833126Y-106940281D01*
X107825432Y-106939062D01*
X107825431Y-106939062D01*
X107707696Y-106920415D01*
X107700000Y-106919196D01*
X107692304Y-106920415D01*
X107574569Y-106939062D01*
X107574568Y-106939062D01*
X107566874Y-106940281D01*
X107559936Y-106943816D01*
X107559933Y-106943817D01*
X107494445Y-106977185D01*
X107434013Y-106986756D01*
X107379496Y-106958978D01*
X107351719Y-106904462D01*
X107350500Y-106888975D01*
X107350500Y-106699500D01*
X107369407Y-106641309D01*
X107418907Y-106605345D01*
X107449500Y-106600500D01*
X110926766Y-106600500D01*
X110957359Y-106605346D01*
X110959933Y-106606183D01*
X110966874Y-106609719D01*
X110974566Y-106610937D01*
X110974568Y-106610938D01*
X111092304Y-106629585D01*
X111100000Y-106630804D01*
X111107696Y-106629585D01*
X111107697Y-106629585D01*
X111191532Y-106616307D01*
X111251964Y-106625878D01*
X111295229Y-106669143D01*
X111304800Y-106729575D01*
X111295229Y-106759032D01*
X111240281Y-106866874D01*
X111239062Y-106874568D01*
X111239062Y-106874569D01*
X111228094Y-106943817D01*
X111219196Y-107000000D01*
X111220415Y-107007696D01*
X111235042Y-107100046D01*
X111240281Y-107133126D01*
X111243817Y-107140065D01*
X111243817Y-107140066D01*
X111289531Y-107229784D01*
X111301472Y-107253220D01*
X111396780Y-107348528D01*
X111403717Y-107352063D01*
X111403719Y-107352064D01*
X111505098Y-107403719D01*
X111516874Y-107409719D01*
X111524568Y-107410938D01*
X111524569Y-107410938D01*
X111584406Y-107420415D01*
X111622182Y-107426398D01*
X111642304Y-107429585D01*
X111650000Y-107430804D01*
X111657696Y-107429585D01*
X111677819Y-107426398D01*
X111715594Y-107420415D01*
X111775431Y-107410938D01*
X111775432Y-107410938D01*
X111783126Y-107409719D01*
X111794902Y-107403719D01*
X111896281Y-107352064D01*
X111896283Y-107352063D01*
X111903220Y-107348528D01*
X111998528Y-107253220D01*
X112010470Y-107229784D01*
X112056183Y-107140066D01*
X112056183Y-107140065D01*
X112059719Y-107133126D01*
X112064959Y-107100046D01*
X112079585Y-107007696D01*
X112080804Y-107000000D01*
X112071906Y-106943817D01*
X112060938Y-106874569D01*
X112060938Y-106874568D01*
X112059719Y-106866874D01*
X112043249Y-106834549D01*
X112002064Y-106753719D01*
X112002063Y-106753717D01*
X111998528Y-106746780D01*
X111903220Y-106651472D01*
X111896283Y-106647937D01*
X111896281Y-106647936D01*
X111790066Y-106593817D01*
X111790065Y-106593817D01*
X111783126Y-106590281D01*
X111775432Y-106589062D01*
X111775431Y-106589062D01*
X111657696Y-106570415D01*
X111650000Y-106569196D01*
X111642304Y-106570415D01*
X111642303Y-106570415D01*
X111558468Y-106583693D01*
X111498036Y-106574122D01*
X111454771Y-106530857D01*
X111445200Y-106470425D01*
X111454771Y-106440967D01*
X111506183Y-106340066D01*
X111506183Y-106340065D01*
X111509719Y-106333126D01*
X111511075Y-106324569D01*
X111529585Y-106207696D01*
X111530804Y-106200000D01*
X111515199Y-106101472D01*
X111510938Y-106074569D01*
X111510938Y-106074568D01*
X111509719Y-106066874D01*
X111480091Y-106008726D01*
X111452064Y-105953719D01*
X111452063Y-105953717D01*
X111448528Y-105946780D01*
X111353220Y-105851472D01*
X111346283Y-105847937D01*
X111346281Y-105847936D01*
X111240066Y-105793817D01*
X111240065Y-105793817D01*
X111233126Y-105790281D01*
X111225432Y-105789062D01*
X111225431Y-105789062D01*
X111107696Y-105770415D01*
X111100000Y-105769196D01*
X111092304Y-105770415D01*
X110974568Y-105789062D01*
X110974566Y-105789063D01*
X110966874Y-105790281D01*
X110959933Y-105793817D01*
X110957359Y-105794654D01*
X110926766Y-105799500D01*
X107449500Y-105799500D01*
X107391309Y-105780593D01*
X107355345Y-105731093D01*
X107350500Y-105700500D01*
X107350500Y-104900000D01*
X109519196Y-104900000D01*
X109520415Y-104907696D01*
X109535984Y-105005993D01*
X109540281Y-105033126D01*
X109543817Y-105040065D01*
X109543817Y-105040066D01*
X109596276Y-105143022D01*
X109601472Y-105153220D01*
X109696780Y-105248528D01*
X109703717Y-105252063D01*
X109703719Y-105252064D01*
X109809934Y-105306183D01*
X109816874Y-105309719D01*
X109824568Y-105310938D01*
X109824569Y-105310938D01*
X109942304Y-105329585D01*
X109950000Y-105330804D01*
X109957696Y-105329585D01*
X110075431Y-105310938D01*
X110075432Y-105310938D01*
X110083126Y-105309719D01*
X110090066Y-105306183D01*
X110196281Y-105252064D01*
X110196283Y-105252063D01*
X110203220Y-105248528D01*
X110298528Y-105153220D01*
X110303725Y-105143022D01*
X110356183Y-105040066D01*
X110356183Y-105040065D01*
X110359719Y-105033126D01*
X110364017Y-105005993D01*
X110379585Y-104907696D01*
X110380804Y-104900000D01*
X110364966Y-104800000D01*
X111219196Y-104800000D01*
X111240281Y-104933126D01*
X111243817Y-104940065D01*
X111243817Y-104940066D01*
X111294770Y-105040066D01*
X111301472Y-105053220D01*
X111396780Y-105148528D01*
X111403717Y-105152063D01*
X111403719Y-105152064D01*
X111509934Y-105206183D01*
X111516874Y-105209719D01*
X111524568Y-105210938D01*
X111524569Y-105210938D01*
X111642304Y-105229585D01*
X111650000Y-105230804D01*
X111657696Y-105229585D01*
X111775431Y-105210938D01*
X111775432Y-105210938D01*
X111783126Y-105209719D01*
X111790066Y-105206183D01*
X111896281Y-105152064D01*
X111896283Y-105152063D01*
X111903220Y-105148528D01*
X111998528Y-105053220D01*
X112005231Y-105040066D01*
X112056183Y-104940066D01*
X112056183Y-104940065D01*
X112059719Y-104933126D01*
X112080804Y-104800000D01*
X112068312Y-104721129D01*
X112060938Y-104674569D01*
X112060938Y-104674568D01*
X112059719Y-104666874D01*
X112046675Y-104641274D01*
X112002064Y-104553719D01*
X112002063Y-104553717D01*
X111998528Y-104546780D01*
X111903220Y-104451472D01*
X111896283Y-104447937D01*
X111896281Y-104447936D01*
X111790066Y-104393817D01*
X111790065Y-104393817D01*
X111783126Y-104390281D01*
X111775432Y-104389062D01*
X111775431Y-104389062D01*
X111657696Y-104370415D01*
X111650000Y-104369196D01*
X111642304Y-104370415D01*
X111524569Y-104389062D01*
X111524568Y-104389062D01*
X111516874Y-104390281D01*
X111509935Y-104393817D01*
X111509934Y-104393817D01*
X111403719Y-104447936D01*
X111403717Y-104447937D01*
X111396780Y-104451472D01*
X111301472Y-104546780D01*
X111297937Y-104553717D01*
X111297936Y-104553719D01*
X111253325Y-104641274D01*
X111240281Y-104666874D01*
X111239062Y-104674568D01*
X111239062Y-104674569D01*
X111231688Y-104721129D01*
X111219196Y-104800000D01*
X110364966Y-104800000D01*
X110359719Y-104766874D01*
X110334119Y-104716631D01*
X110302064Y-104653719D01*
X110302063Y-104653717D01*
X110298528Y-104646780D01*
X110203220Y-104551472D01*
X110196283Y-104547937D01*
X110196281Y-104547936D01*
X110090066Y-104493817D01*
X110090065Y-104493817D01*
X110083126Y-104490281D01*
X110075432Y-104489062D01*
X110075431Y-104489062D01*
X109957696Y-104470415D01*
X109950000Y-104469196D01*
X109942304Y-104470415D01*
X109824569Y-104489062D01*
X109824568Y-104489062D01*
X109816874Y-104490281D01*
X109809935Y-104493817D01*
X109809934Y-104493817D01*
X109703719Y-104547936D01*
X109703717Y-104547937D01*
X109696780Y-104551472D01*
X109601472Y-104646780D01*
X109597937Y-104653717D01*
X109597936Y-104653719D01*
X109565881Y-104716631D01*
X109540281Y-104766874D01*
X109519196Y-104900000D01*
X107350500Y-104900000D01*
X107350500Y-103711025D01*
X107369407Y-103652834D01*
X107418907Y-103616870D01*
X107480093Y-103616870D01*
X107494445Y-103622815D01*
X107559933Y-103656183D01*
X107559936Y-103656184D01*
X107566874Y-103659719D01*
X107574568Y-103660938D01*
X107574569Y-103660938D01*
X107692304Y-103679585D01*
X107700000Y-103680804D01*
X107707696Y-103679585D01*
X107825431Y-103660938D01*
X107825432Y-103660938D01*
X107833126Y-103659719D01*
X107849312Y-103651472D01*
X107946281Y-103602064D01*
X107946283Y-103602063D01*
X107953220Y-103598528D01*
X108048528Y-103503220D01*
X108055312Y-103489907D01*
X108106183Y-103390066D01*
X108106183Y-103390065D01*
X108109719Y-103383126D01*
X108113987Y-103356183D01*
X108129585Y-103257696D01*
X108130804Y-103250000D01*
X108115889Y-103155830D01*
X108110938Y-103124569D01*
X108110938Y-103124568D01*
X108109719Y-103116874D01*
X108054090Y-103007696D01*
X108052064Y-103003719D01*
X108052063Y-103003717D01*
X108048528Y-102996780D01*
X108001748Y-102950000D01*
X111819196Y-102950000D01*
X111820415Y-102957696D01*
X111832469Y-103033800D01*
X111840281Y-103083126D01*
X111843817Y-103090065D01*
X111843817Y-103090066D01*
X111896937Y-103194319D01*
X111901472Y-103203220D01*
X111996780Y-103298528D01*
X112003717Y-103302063D01*
X112003719Y-103302064D01*
X112109934Y-103356183D01*
X112116874Y-103359719D01*
X112124568Y-103360938D01*
X112124569Y-103360938D01*
X112210173Y-103374496D01*
X112237613Y-103378842D01*
X112242304Y-103379585D01*
X112250000Y-103380804D01*
X112257696Y-103379585D01*
X112262388Y-103378842D01*
X112289827Y-103374496D01*
X112375431Y-103360938D01*
X112375432Y-103360938D01*
X112383126Y-103359719D01*
X112390066Y-103356183D01*
X112496281Y-103302064D01*
X112496283Y-103302063D01*
X112503220Y-103298528D01*
X112598528Y-103203220D01*
X112603064Y-103194319D01*
X112656183Y-103090066D01*
X112656183Y-103090065D01*
X112659719Y-103083126D01*
X112667532Y-103033800D01*
X112679585Y-102957696D01*
X112680804Y-102950000D01*
X112664966Y-102850000D01*
X114619196Y-102850000D01*
X114620415Y-102857696D01*
X114635943Y-102955734D01*
X114640281Y-102983126D01*
X114643817Y-102990065D01*
X114643817Y-102990066D01*
X114694770Y-103090066D01*
X114701472Y-103103220D01*
X114796780Y-103198528D01*
X114803717Y-103202063D01*
X114803719Y-103202064D01*
X114909934Y-103256183D01*
X114916874Y-103259719D01*
X114924568Y-103260938D01*
X114924569Y-103260938D01*
X115042304Y-103279585D01*
X115050000Y-103280804D01*
X115057696Y-103279585D01*
X115175431Y-103260938D01*
X115175432Y-103260938D01*
X115183126Y-103259719D01*
X115190066Y-103256183D01*
X115296281Y-103202064D01*
X115296283Y-103202063D01*
X115303220Y-103198528D01*
X115398528Y-103103220D01*
X115405231Y-103090066D01*
X115456183Y-102990066D01*
X115456183Y-102990065D01*
X115459719Y-102983126D01*
X115464058Y-102955734D01*
X115479585Y-102857696D01*
X115480804Y-102850000D01*
X115477714Y-102830488D01*
X115487286Y-102770056D01*
X115530551Y-102726792D01*
X115590983Y-102717221D01*
X115645499Y-102744999D01*
X115649922Y-102750177D01*
X115651472Y-102753220D01*
X115746780Y-102848528D01*
X115753717Y-102852063D01*
X115753719Y-102852064D01*
X115850688Y-102901472D01*
X115866874Y-102909719D01*
X115874568Y-102910938D01*
X115874569Y-102910938D01*
X115928654Y-102919504D01*
X115972201Y-102926401D01*
X115992304Y-102929585D01*
X116000000Y-102930804D01*
X116007696Y-102929585D01*
X116027800Y-102926401D01*
X116071346Y-102919504D01*
X116125431Y-102910938D01*
X116125432Y-102910938D01*
X116133126Y-102909719D01*
X116149312Y-102901472D01*
X116246281Y-102852064D01*
X116246283Y-102852063D01*
X116253220Y-102848528D01*
X116348528Y-102753220D01*
X116353725Y-102743022D01*
X116406183Y-102640066D01*
X116406183Y-102640065D01*
X116409719Y-102633126D01*
X116413861Y-102606978D01*
X116426776Y-102525431D01*
X116430804Y-102500000D01*
X119569196Y-102500000D01*
X119573224Y-102525431D01*
X119586140Y-102606978D01*
X119590281Y-102633126D01*
X119593817Y-102640065D01*
X119593817Y-102640066D01*
X119646276Y-102743022D01*
X119651472Y-102753220D01*
X119746780Y-102848528D01*
X119753717Y-102852063D01*
X119753719Y-102852064D01*
X119850688Y-102901472D01*
X119866874Y-102909719D01*
X119874568Y-102910938D01*
X119874569Y-102910938D01*
X119928654Y-102919504D01*
X119972201Y-102926401D01*
X119992304Y-102929585D01*
X120000000Y-102930804D01*
X120007696Y-102929585D01*
X120027800Y-102926401D01*
X120071346Y-102919504D01*
X120125431Y-102910938D01*
X120125432Y-102910938D01*
X120133126Y-102909719D01*
X120149312Y-102901472D01*
X120246281Y-102852064D01*
X120246283Y-102852063D01*
X120253220Y-102848528D01*
X120348528Y-102753220D01*
X120353725Y-102743022D01*
X120406183Y-102640066D01*
X120406183Y-102640065D01*
X120409719Y-102633126D01*
X120413861Y-102606978D01*
X120426776Y-102525431D01*
X120430804Y-102500000D01*
X120421906Y-102443817D01*
X120410938Y-102374569D01*
X120410938Y-102374568D01*
X120409719Y-102366874D01*
X120399193Y-102346215D01*
X120352064Y-102253719D01*
X120352063Y-102253717D01*
X120348528Y-102246780D01*
X120253220Y-102151472D01*
X120246283Y-102147937D01*
X120246281Y-102147936D01*
X120140066Y-102093817D01*
X120140065Y-102093817D01*
X120133126Y-102090281D01*
X120125432Y-102089062D01*
X120125431Y-102089062D01*
X120007696Y-102070415D01*
X120000000Y-102069196D01*
X119992304Y-102070415D01*
X119874569Y-102089062D01*
X119874568Y-102089062D01*
X119866874Y-102090281D01*
X119859935Y-102093817D01*
X119859934Y-102093817D01*
X119753719Y-102147936D01*
X119753717Y-102147937D01*
X119746780Y-102151472D01*
X119651472Y-102246780D01*
X119647937Y-102253717D01*
X119647936Y-102253719D01*
X119600807Y-102346215D01*
X119590281Y-102366874D01*
X119589062Y-102374568D01*
X119589062Y-102374569D01*
X119578094Y-102443817D01*
X119569196Y-102500000D01*
X116430804Y-102500000D01*
X116421906Y-102443817D01*
X116410938Y-102374569D01*
X116410938Y-102374568D01*
X116409719Y-102366874D01*
X116399193Y-102346215D01*
X116352064Y-102253719D01*
X116352063Y-102253717D01*
X116348528Y-102246780D01*
X116253220Y-102151472D01*
X116246283Y-102147937D01*
X116246281Y-102147936D01*
X116140066Y-102093817D01*
X116140065Y-102093817D01*
X116133126Y-102090281D01*
X116125432Y-102089062D01*
X116125431Y-102089062D01*
X116007696Y-102070415D01*
X116000000Y-102069196D01*
X115992304Y-102070415D01*
X115874569Y-102089062D01*
X115874568Y-102089062D01*
X115866874Y-102090281D01*
X115859935Y-102093817D01*
X115859934Y-102093817D01*
X115753719Y-102147936D01*
X115753717Y-102147937D01*
X115746780Y-102151472D01*
X115651472Y-102246780D01*
X115647937Y-102253717D01*
X115647936Y-102253719D01*
X115600807Y-102346215D01*
X115590281Y-102366874D01*
X115589062Y-102374568D01*
X115589062Y-102374569D01*
X115578094Y-102443817D01*
X115569196Y-102500000D01*
X115570415Y-102507696D01*
X115570415Y-102507698D01*
X115572286Y-102519512D01*
X115562714Y-102579944D01*
X115519449Y-102623208D01*
X115459017Y-102632779D01*
X115404501Y-102605001D01*
X115400078Y-102599823D01*
X115398528Y-102596780D01*
X115303220Y-102501472D01*
X115296283Y-102497937D01*
X115296281Y-102497936D01*
X115190066Y-102443817D01*
X115190065Y-102443817D01*
X115183126Y-102440281D01*
X115175432Y-102439062D01*
X115175431Y-102439062D01*
X115057696Y-102420415D01*
X115050000Y-102419196D01*
X115042304Y-102420415D01*
X114924569Y-102439062D01*
X114924568Y-102439062D01*
X114916874Y-102440281D01*
X114909935Y-102443817D01*
X114909934Y-102443817D01*
X114803719Y-102497936D01*
X114803717Y-102497937D01*
X114796780Y-102501472D01*
X114701472Y-102596780D01*
X114697937Y-102603717D01*
X114697936Y-102603719D01*
X114647827Y-102702064D01*
X114640281Y-102716874D01*
X114639062Y-102724568D01*
X114639062Y-102724569D01*
X114626394Y-102804555D01*
X114619196Y-102850000D01*
X112664966Y-102850000D01*
X112660938Y-102824569D01*
X112660938Y-102824568D01*
X112659719Y-102816874D01*
X112653442Y-102804555D01*
X112602064Y-102703719D01*
X112602063Y-102703717D01*
X112598528Y-102696780D01*
X112503220Y-102601472D01*
X112496283Y-102597937D01*
X112496281Y-102597936D01*
X112390066Y-102543817D01*
X112390065Y-102543817D01*
X112383126Y-102540281D01*
X112375432Y-102539062D01*
X112375431Y-102539062D01*
X112257696Y-102520415D01*
X112250000Y-102519196D01*
X112242304Y-102520415D01*
X112124569Y-102539062D01*
X112124568Y-102539062D01*
X112116874Y-102540281D01*
X112109935Y-102543817D01*
X112109934Y-102543817D01*
X112003719Y-102597936D01*
X112003717Y-102597937D01*
X111996780Y-102601472D01*
X111901472Y-102696780D01*
X111897937Y-102703717D01*
X111897936Y-102703719D01*
X111846558Y-102804555D01*
X111840281Y-102816874D01*
X111839062Y-102824568D01*
X111839062Y-102824569D01*
X111835034Y-102850000D01*
X111819196Y-102950000D01*
X108001748Y-102950000D01*
X107971252Y-102919504D01*
X107943475Y-102864987D01*
X107953046Y-102804555D01*
X107996311Y-102761290D01*
X108041256Y-102750500D01*
X110926766Y-102750500D01*
X110957359Y-102755346D01*
X110959933Y-102756183D01*
X110966874Y-102759719D01*
X110974566Y-102760937D01*
X110974568Y-102760938D01*
X111092304Y-102779585D01*
X111100000Y-102780804D01*
X111107696Y-102779585D01*
X111225431Y-102760938D01*
X111225432Y-102760938D01*
X111233126Y-102759719D01*
X111240066Y-102756183D01*
X111346281Y-102702064D01*
X111346283Y-102702063D01*
X111353220Y-102698528D01*
X111448528Y-102603220D01*
X111452910Y-102594621D01*
X111478137Y-102545109D01*
X111496343Y-102520050D01*
X112392984Y-101623409D01*
X112392987Y-101623405D01*
X112415550Y-101600842D01*
X112426502Y-101579346D01*
X112434617Y-101566105D01*
X112444215Y-101552895D01*
X112448796Y-101546590D01*
X112456252Y-101523643D01*
X112462195Y-101509297D01*
X112473146Y-101487804D01*
X112476919Y-101463981D01*
X112480545Y-101448875D01*
X112488000Y-101425933D01*
X112488000Y-101400262D01*
X136944520Y-101400262D01*
X136961759Y-101605553D01*
X137018544Y-101803586D01*
X137112712Y-101986818D01*
X137240677Y-102148270D01*
X137244357Y-102151402D01*
X137244359Y-102151404D01*
X137343579Y-102235846D01*
X137397564Y-102281791D01*
X137401787Y-102284151D01*
X137401791Y-102284154D01*
X137468838Y-102321625D01*
X137577398Y-102382297D01*
X137581996Y-102383791D01*
X137768724Y-102444463D01*
X137768726Y-102444464D01*
X137773329Y-102445959D01*
X137977894Y-102470351D01*
X137982716Y-102469980D01*
X137982719Y-102469980D01*
X138050541Y-102464761D01*
X138183300Y-102454546D01*
X138381725Y-102399145D01*
X138386038Y-102396966D01*
X138386044Y-102396964D01*
X138561289Y-102308441D01*
X138561291Y-102308440D01*
X138565610Y-102306258D01*
X138574891Y-102299007D01*
X138724135Y-102182406D01*
X138724139Y-102182402D01*
X138727951Y-102179424D01*
X138752079Y-102151472D01*
X138801844Y-102093817D01*
X138862564Y-102023472D01*
X138865528Y-102018255D01*
X138930528Y-101903834D01*
X144874500Y-101903834D01*
X144877481Y-101935369D01*
X144922366Y-102063184D01*
X144926761Y-102069135D01*
X144926762Y-102069136D01*
X144991644Y-102156978D01*
X145002850Y-102172150D01*
X145008807Y-102176550D01*
X145101329Y-102244888D01*
X145111816Y-102252634D01*
X145239631Y-102297519D01*
X145245638Y-102298087D01*
X145245639Y-102298087D01*
X145268855Y-102300282D01*
X145268865Y-102300282D01*
X145271166Y-102300500D01*
X146878834Y-102300500D01*
X146881135Y-102300282D01*
X146881145Y-102300282D01*
X146904361Y-102298087D01*
X146904362Y-102298087D01*
X146910369Y-102297519D01*
X147038184Y-102252634D01*
X147048672Y-102244888D01*
X147141193Y-102176550D01*
X147147150Y-102172150D01*
X147158356Y-102156978D01*
X147223238Y-102069136D01*
X147223239Y-102069135D01*
X147227634Y-102063184D01*
X147272519Y-101935369D01*
X147275500Y-101903834D01*
X147275500Y-100596166D01*
X147275251Y-100593522D01*
X147273087Y-100570639D01*
X147273087Y-100570638D01*
X147272519Y-100564631D01*
X147227634Y-100436816D01*
X147201529Y-100401472D01*
X147151550Y-100333807D01*
X147147150Y-100327850D01*
X147137084Y-100320415D01*
X147044136Y-100251762D01*
X147044135Y-100251761D01*
X147038184Y-100247366D01*
X146910369Y-100202481D01*
X146904362Y-100201913D01*
X146904361Y-100201913D01*
X146881145Y-100199718D01*
X146881135Y-100199718D01*
X146878834Y-100199500D01*
X145271166Y-100199500D01*
X145268865Y-100199718D01*
X145268855Y-100199718D01*
X145245639Y-100201913D01*
X145245638Y-100201913D01*
X145239631Y-100202481D01*
X145111816Y-100247366D01*
X145105865Y-100251761D01*
X145105864Y-100251762D01*
X145012916Y-100320415D01*
X145002850Y-100327850D01*
X144998450Y-100333807D01*
X144948472Y-100401472D01*
X144922366Y-100436816D01*
X144877481Y-100564631D01*
X144876913Y-100570638D01*
X144876913Y-100570639D01*
X144874750Y-100593522D01*
X144874500Y-100596166D01*
X144874500Y-101903834D01*
X138930528Y-101903834D01*
X138961934Y-101848550D01*
X138961935Y-101848547D01*
X138964323Y-101844344D01*
X138977882Y-101803586D01*
X139027824Y-101653454D01*
X139027824Y-101653452D01*
X139029351Y-101648863D01*
X139035418Y-101600842D01*
X139048017Y-101501101D01*
X139055171Y-101444474D01*
X139055583Y-101415000D01*
X139052111Y-101379585D01*
X139035952Y-101214780D01*
X139035951Y-101214776D01*
X139035480Y-101209970D01*
X139032026Y-101198528D01*
X138977333Y-101017380D01*
X138975935Y-101012749D01*
X138879218Y-100830849D01*
X138749011Y-100671200D01*
X138671380Y-100606978D01*
X138594002Y-100542965D01*
X138594000Y-100542964D01*
X138590275Y-100539882D01*
X138434380Y-100455590D01*
X138413309Y-100444197D01*
X138413308Y-100444197D01*
X138409055Y-100441897D01*
X138278463Y-100401472D01*
X138216875Y-100382407D01*
X138216871Y-100382406D01*
X138212254Y-100380977D01*
X138207446Y-100380472D01*
X138207443Y-100380471D01*
X138012185Y-100359949D01*
X138012183Y-100359949D01*
X138007369Y-100359443D01*
X137947354Y-100364905D01*
X137807022Y-100377675D01*
X137807017Y-100377676D01*
X137802203Y-100378114D01*
X137604572Y-100436280D01*
X137600288Y-100438519D01*
X137600287Y-100438520D01*
X137532528Y-100473944D01*
X137422002Y-100531726D01*
X137418231Y-100534758D01*
X137265220Y-100657781D01*
X137265217Y-100657783D01*
X137261447Y-100660815D01*
X137258333Y-100664526D01*
X137258332Y-100664527D01*
X137186612Y-100750000D01*
X137129024Y-100818630D01*
X137126689Y-100822878D01*
X137126688Y-100822879D01*
X137121055Y-100833126D01*
X137029776Y-100999162D01*
X137028313Y-101003775D01*
X137028311Y-101003779D01*
X136978458Y-101160938D01*
X136967484Y-101195532D01*
X136966944Y-101200344D01*
X136966944Y-101200345D01*
X136946703Y-101380804D01*
X136944520Y-101400262D01*
X112488000Y-101400262D01*
X112488000Y-100750000D01*
X118719196Y-100750000D01*
X118720415Y-100757696D01*
X118732679Y-100835126D01*
X118740281Y-100883126D01*
X118743817Y-100890065D01*
X118743817Y-100890066D01*
X118794770Y-100990066D01*
X118801472Y-101003220D01*
X118896780Y-101098528D01*
X118903717Y-101102063D01*
X118903719Y-101102064D01*
X118960125Y-101130804D01*
X119016874Y-101159719D01*
X119024568Y-101160938D01*
X119024569Y-101160938D01*
X119142304Y-101179585D01*
X119150000Y-101180804D01*
X119157696Y-101179585D01*
X119275431Y-101160938D01*
X119275432Y-101160938D01*
X119283126Y-101159719D01*
X119339875Y-101130804D01*
X119396281Y-101102064D01*
X119396283Y-101102063D01*
X119403220Y-101098528D01*
X119479996Y-101021752D01*
X119534513Y-100993975D01*
X119594945Y-101003546D01*
X119620004Y-101021752D01*
X119646780Y-101048528D01*
X119653717Y-101052063D01*
X119653719Y-101052064D01*
X119734104Y-101093022D01*
X119766874Y-101109719D01*
X119774568Y-101110938D01*
X119774569Y-101110938D01*
X119892304Y-101129585D01*
X119900000Y-101130804D01*
X119907696Y-101129585D01*
X120025431Y-101110938D01*
X120025432Y-101110938D01*
X120033126Y-101109719D01*
X120065896Y-101093022D01*
X120146281Y-101052064D01*
X120146283Y-101052063D01*
X120153220Y-101048528D01*
X120248528Y-100953220D01*
X120250169Y-100950000D01*
X124969196Y-100950000D01*
X124990281Y-101083126D01*
X124993817Y-101090065D01*
X124993817Y-101090066D01*
X125047555Y-101195532D01*
X125051472Y-101203220D01*
X125146780Y-101298528D01*
X125153717Y-101302063D01*
X125153719Y-101302064D01*
X125259934Y-101356183D01*
X125266874Y-101359719D01*
X125274568Y-101360938D01*
X125274569Y-101360938D01*
X125392304Y-101379585D01*
X125400000Y-101380804D01*
X125407696Y-101379585D01*
X125525431Y-101360938D01*
X125525432Y-101360938D01*
X125533126Y-101359719D01*
X125540066Y-101356183D01*
X125646281Y-101302064D01*
X125646283Y-101302063D01*
X125653220Y-101298528D01*
X125748528Y-101203220D01*
X125752446Y-101195532D01*
X125806183Y-101090066D01*
X125806183Y-101090065D01*
X125809719Y-101083126D01*
X125830804Y-100950000D01*
X125820212Y-100883126D01*
X125810938Y-100824569D01*
X125810938Y-100824568D01*
X125809719Y-100816874D01*
X125806183Y-100809934D01*
X125752064Y-100703719D01*
X125752063Y-100703717D01*
X125748528Y-100696780D01*
X125653220Y-100601472D01*
X125646283Y-100597937D01*
X125646281Y-100597936D01*
X125540066Y-100543817D01*
X125540065Y-100543817D01*
X125533126Y-100540281D01*
X125525432Y-100539062D01*
X125525431Y-100539062D01*
X125428652Y-100523734D01*
X125400000Y-100519196D01*
X125371348Y-100523734D01*
X125274569Y-100539062D01*
X125274568Y-100539062D01*
X125266874Y-100540281D01*
X125259935Y-100543817D01*
X125259934Y-100543817D01*
X125153719Y-100597936D01*
X125153717Y-100597937D01*
X125146780Y-100601472D01*
X125051472Y-100696780D01*
X125047937Y-100703717D01*
X125047936Y-100703719D01*
X124993817Y-100809934D01*
X124990281Y-100816874D01*
X124989062Y-100824568D01*
X124989062Y-100824569D01*
X124979788Y-100883126D01*
X124969196Y-100950000D01*
X120250169Y-100950000D01*
X120309719Y-100833126D01*
X120311075Y-100824569D01*
X120329585Y-100707696D01*
X120330804Y-100700000D01*
X120315866Y-100605682D01*
X120310938Y-100574569D01*
X120310938Y-100574568D01*
X120309719Y-100566874D01*
X120295548Y-100539062D01*
X120252064Y-100453719D01*
X120252063Y-100453717D01*
X120248528Y-100446780D01*
X120153220Y-100351472D01*
X120146283Y-100347937D01*
X120146281Y-100347936D01*
X120040066Y-100293817D01*
X120040065Y-100293817D01*
X120033126Y-100290281D01*
X120025432Y-100289062D01*
X120025431Y-100289062D01*
X119907696Y-100270415D01*
X119900000Y-100269196D01*
X119892304Y-100270415D01*
X119774569Y-100289062D01*
X119774568Y-100289062D01*
X119766874Y-100290281D01*
X119759935Y-100293817D01*
X119759934Y-100293817D01*
X119653719Y-100347936D01*
X119653717Y-100347937D01*
X119646780Y-100351472D01*
X119570004Y-100428248D01*
X119515487Y-100456025D01*
X119455055Y-100446454D01*
X119429996Y-100428248D01*
X119403220Y-100401472D01*
X119396283Y-100397937D01*
X119396281Y-100397936D01*
X119290066Y-100343817D01*
X119290065Y-100343817D01*
X119283126Y-100340281D01*
X119275432Y-100339062D01*
X119275431Y-100339062D01*
X119157696Y-100320415D01*
X119150000Y-100319196D01*
X119142304Y-100320415D01*
X119024569Y-100339062D01*
X119024568Y-100339062D01*
X119016874Y-100340281D01*
X119009935Y-100343817D01*
X119009934Y-100343817D01*
X118903719Y-100397936D01*
X118903717Y-100397937D01*
X118896780Y-100401472D01*
X118801472Y-100496780D01*
X118797937Y-100503717D01*
X118797936Y-100503719D01*
X118745323Y-100606978D01*
X118740281Y-100616874D01*
X118739062Y-100624568D01*
X118739062Y-100624569D01*
X118732165Y-100668115D01*
X118719196Y-100750000D01*
X112488000Y-100750000D01*
X112488000Y-100250500D01*
X120569196Y-100250500D01*
X120590281Y-100383626D01*
X120651472Y-100503720D01*
X120746780Y-100599028D01*
X120753717Y-100602563D01*
X120753719Y-100602564D01*
X120859934Y-100656683D01*
X120866874Y-100660219D01*
X120874568Y-100661438D01*
X120874569Y-100661438D01*
X120992304Y-100680085D01*
X121000000Y-100681304D01*
X121007696Y-100680085D01*
X121125431Y-100661438D01*
X121125432Y-100661438D01*
X121133126Y-100660219D01*
X121140066Y-100656683D01*
X121246281Y-100602564D01*
X121246283Y-100602563D01*
X121253220Y-100599028D01*
X121348528Y-100503720D01*
X121409719Y-100383626D01*
X121430804Y-100250500D01*
X121416907Y-100162759D01*
X121410938Y-100125069D01*
X121410938Y-100125068D01*
X121409719Y-100117374D01*
X121406183Y-100110434D01*
X121352064Y-100004219D01*
X121352063Y-100004217D01*
X121349914Y-100000000D01*
X140394318Y-100000000D01*
X140414956Y-100156762D01*
X140475464Y-100302841D01*
X140571718Y-100428282D01*
X140697159Y-100524536D01*
X140843238Y-100585044D01*
X141000000Y-100605682D01*
X141156762Y-100585044D01*
X141302841Y-100524536D01*
X141428282Y-100428282D01*
X141524536Y-100302841D01*
X141585044Y-100156762D01*
X141605682Y-100000000D01*
X143394318Y-100000000D01*
X143414956Y-100156762D01*
X143475464Y-100302841D01*
X143571718Y-100428282D01*
X143697159Y-100524536D01*
X143843238Y-100585044D01*
X144000000Y-100605682D01*
X144156762Y-100585044D01*
X144302841Y-100524536D01*
X144428282Y-100428282D01*
X144524536Y-100302841D01*
X144585044Y-100156762D01*
X144605682Y-100000000D01*
X144585044Y-99843238D01*
X144575798Y-99820915D01*
X144550035Y-99758719D01*
X144524536Y-99697159D01*
X144428282Y-99571718D01*
X144302841Y-99475464D01*
X144156762Y-99414956D01*
X144000000Y-99394318D01*
X143843238Y-99414956D01*
X143697159Y-99475464D01*
X143571718Y-99571718D01*
X143475464Y-99697159D01*
X143449965Y-99758719D01*
X143424203Y-99820915D01*
X143414956Y-99843238D01*
X143394318Y-100000000D01*
X141605682Y-100000000D01*
X141585044Y-99843238D01*
X141575798Y-99820915D01*
X141550035Y-99758719D01*
X141524536Y-99697159D01*
X141428282Y-99571718D01*
X141302841Y-99475464D01*
X141156762Y-99414956D01*
X141000000Y-99394318D01*
X140843238Y-99414956D01*
X140697159Y-99475464D01*
X140571718Y-99571718D01*
X140475464Y-99697159D01*
X140449965Y-99758719D01*
X140424203Y-99820915D01*
X140414956Y-99843238D01*
X140394318Y-100000000D01*
X121349914Y-100000000D01*
X121348528Y-99997280D01*
X121253220Y-99901972D01*
X121246283Y-99898437D01*
X121246281Y-99898436D01*
X121140066Y-99844317D01*
X121140065Y-99844317D01*
X121133126Y-99840781D01*
X121125432Y-99839562D01*
X121125431Y-99839562D01*
X121007696Y-99820915D01*
X121000000Y-99819696D01*
X120992304Y-99820915D01*
X120874569Y-99839562D01*
X120874568Y-99839562D01*
X120866874Y-99840781D01*
X120859935Y-99844317D01*
X120859934Y-99844317D01*
X120753719Y-99898436D01*
X120753717Y-99898437D01*
X120746780Y-99901972D01*
X120651472Y-99997280D01*
X120647937Y-100004217D01*
X120647936Y-100004219D01*
X120593817Y-100110434D01*
X120590281Y-100117374D01*
X120589062Y-100125068D01*
X120589062Y-100125069D01*
X120583093Y-100162759D01*
X120569196Y-100250500D01*
X112488000Y-100250500D01*
X112488000Y-100173234D01*
X112492846Y-100142641D01*
X112493683Y-100140066D01*
X112497219Y-100133126D01*
X112518304Y-100000000D01*
X112512447Y-99963022D01*
X112498438Y-99874569D01*
X112498438Y-99874568D01*
X112497219Y-99866874D01*
X112468923Y-99811340D01*
X112439564Y-99753719D01*
X112439563Y-99753717D01*
X112436028Y-99746780D01*
X112340720Y-99651472D01*
X112333783Y-99647937D01*
X112333781Y-99647936D01*
X112227566Y-99593817D01*
X112227565Y-99593817D01*
X112220626Y-99590281D01*
X112212932Y-99589062D01*
X112212931Y-99589062D01*
X112095196Y-99570415D01*
X112087500Y-99569196D01*
X112079804Y-99570415D01*
X111962069Y-99589062D01*
X111962068Y-99589062D01*
X111954374Y-99590281D01*
X111947435Y-99593817D01*
X111947434Y-99593817D01*
X111841219Y-99647936D01*
X111841217Y-99647937D01*
X111834280Y-99651472D01*
X111738972Y-99746780D01*
X111735437Y-99753717D01*
X111735436Y-99753719D01*
X111706077Y-99811340D01*
X111677781Y-99866874D01*
X111676562Y-99874568D01*
X111676562Y-99874569D01*
X111662553Y-99963022D01*
X111656696Y-100000000D01*
X111677781Y-100133126D01*
X111681317Y-100140066D01*
X111682154Y-100142641D01*
X111687000Y-100173234D01*
X111687000Y-101155599D01*
X111668093Y-101213790D01*
X111658004Y-101225603D01*
X110963103Y-101920504D01*
X110908586Y-101948281D01*
X110893099Y-101949500D01*
X107449500Y-101949500D01*
X107391309Y-101930593D01*
X107355345Y-101881093D01*
X107350500Y-101850500D01*
X107350500Y-100850000D01*
X109369196Y-100850000D01*
X109390281Y-100983126D01*
X109393817Y-100990065D01*
X109393817Y-100990066D01*
X109446276Y-101093022D01*
X109451472Y-101103220D01*
X109546780Y-101198528D01*
X109553717Y-101202063D01*
X109553719Y-101202064D01*
X109659934Y-101256183D01*
X109666874Y-101259719D01*
X109674568Y-101260938D01*
X109674569Y-101260938D01*
X109792304Y-101279585D01*
X109800000Y-101280804D01*
X109807696Y-101279585D01*
X109925431Y-101260938D01*
X109925432Y-101260938D01*
X109933126Y-101259719D01*
X109940066Y-101256183D01*
X110046281Y-101202064D01*
X110046283Y-101202063D01*
X110053220Y-101198528D01*
X110148528Y-101103220D01*
X110153725Y-101093022D01*
X110206183Y-100990066D01*
X110206183Y-100990065D01*
X110209719Y-100983126D01*
X110230804Y-100850000D01*
X110209719Y-100716874D01*
X110181473Y-100661438D01*
X110152064Y-100603719D01*
X110152063Y-100603717D01*
X110148528Y-100596780D01*
X110053220Y-100501472D01*
X110053383Y-100501309D01*
X110020167Y-100455596D01*
X110020165Y-100394410D01*
X110053383Y-100348691D01*
X110053220Y-100348528D01*
X110148528Y-100253220D01*
X110153836Y-100242804D01*
X110206183Y-100140066D01*
X110206183Y-100140065D01*
X110209719Y-100133126D01*
X110230804Y-100000000D01*
X110224947Y-99963022D01*
X110210938Y-99874569D01*
X110210938Y-99874568D01*
X110209719Y-99866874D01*
X110181423Y-99811340D01*
X110152064Y-99753719D01*
X110152063Y-99753717D01*
X110148528Y-99746780D01*
X110053220Y-99651472D01*
X110046283Y-99647937D01*
X110046281Y-99647936D01*
X109978127Y-99613210D01*
X109934862Y-99569945D01*
X109925291Y-99509513D01*
X109953069Y-99454996D01*
X109978127Y-99436790D01*
X110046281Y-99402064D01*
X110046283Y-99402063D01*
X110053220Y-99398528D01*
X110148528Y-99303220D01*
X110154300Y-99291893D01*
X110206183Y-99190066D01*
X110206183Y-99190065D01*
X110209719Y-99183126D01*
X110213532Y-99159055D01*
X110229585Y-99057696D01*
X110230804Y-99050000D01*
X110217638Y-98966875D01*
X110210938Y-98924569D01*
X110210938Y-98924568D01*
X110209719Y-98916874D01*
X110203851Y-98905358D01*
X110152064Y-98803719D01*
X110152063Y-98803717D01*
X110148528Y-98796780D01*
X110053220Y-98701472D01*
X110046283Y-98697937D01*
X110046281Y-98697936D01*
X109940066Y-98643817D01*
X109940065Y-98643817D01*
X109933126Y-98640281D01*
X109925432Y-98639062D01*
X109925431Y-98639062D01*
X109807696Y-98620415D01*
X109800000Y-98619196D01*
X109792304Y-98620415D01*
X109674569Y-98639062D01*
X109674568Y-98639062D01*
X109666874Y-98640281D01*
X109659935Y-98643817D01*
X109659934Y-98643817D01*
X109553719Y-98697936D01*
X109553717Y-98697937D01*
X109546780Y-98701472D01*
X109451472Y-98796780D01*
X109447937Y-98803717D01*
X109447936Y-98803719D01*
X109396149Y-98905358D01*
X109390281Y-98916874D01*
X109389062Y-98924568D01*
X109389062Y-98924569D01*
X109382362Y-98966875D01*
X109369196Y-99050000D01*
X109370415Y-99057696D01*
X109386469Y-99159055D01*
X109390281Y-99183126D01*
X109393817Y-99190065D01*
X109393817Y-99190066D01*
X109445701Y-99291893D01*
X109451472Y-99303220D01*
X109546780Y-99398528D01*
X109553717Y-99402063D01*
X109553719Y-99402064D01*
X109621873Y-99436790D01*
X109665138Y-99480055D01*
X109674709Y-99540487D01*
X109646931Y-99595004D01*
X109621873Y-99613210D01*
X109553719Y-99647936D01*
X109553717Y-99647937D01*
X109546780Y-99651472D01*
X109451472Y-99746780D01*
X109447937Y-99753717D01*
X109447936Y-99753719D01*
X109418577Y-99811340D01*
X109390281Y-99866874D01*
X109389062Y-99874568D01*
X109389062Y-99874569D01*
X109375053Y-99963022D01*
X109369196Y-100000000D01*
X109390281Y-100133126D01*
X109393817Y-100140065D01*
X109393817Y-100140066D01*
X109446165Y-100242804D01*
X109451472Y-100253220D01*
X109546780Y-100348528D01*
X109546617Y-100348691D01*
X109579833Y-100394404D01*
X109579835Y-100455590D01*
X109546617Y-100501309D01*
X109546780Y-100501472D01*
X109451472Y-100596780D01*
X109447937Y-100603717D01*
X109447936Y-100603719D01*
X109418527Y-100661438D01*
X109390281Y-100716874D01*
X109369196Y-100850000D01*
X107350500Y-100850000D01*
X107350500Y-98661025D01*
X107369407Y-98602834D01*
X107418907Y-98566870D01*
X107480093Y-98566870D01*
X107494445Y-98572815D01*
X107559933Y-98606183D01*
X107559936Y-98606184D01*
X107566874Y-98609719D01*
X107574568Y-98610938D01*
X107574569Y-98610938D01*
X107692304Y-98629585D01*
X107700000Y-98630804D01*
X107707696Y-98629585D01*
X107825431Y-98610938D01*
X107825432Y-98610938D01*
X107833126Y-98609719D01*
X107846639Y-98602834D01*
X107946281Y-98552064D01*
X107946283Y-98552063D01*
X107953220Y-98548528D01*
X108048528Y-98453220D01*
X108071121Y-98408880D01*
X108106183Y-98340066D01*
X108106183Y-98340065D01*
X108109719Y-98333126D01*
X108111075Y-98324569D01*
X108129585Y-98207696D01*
X108130804Y-98200000D01*
X111269196Y-98200000D01*
X111270415Y-98207696D01*
X111288926Y-98324569D01*
X111290281Y-98333126D01*
X111293817Y-98340065D01*
X111293817Y-98340066D01*
X111328880Y-98408880D01*
X111351472Y-98453220D01*
X111446780Y-98548528D01*
X111453717Y-98552063D01*
X111453719Y-98552064D01*
X111553361Y-98602834D01*
X111566874Y-98609719D01*
X111574568Y-98610938D01*
X111574569Y-98610938D01*
X111692304Y-98629585D01*
X111700000Y-98630804D01*
X111707696Y-98629585D01*
X111825431Y-98610938D01*
X111825432Y-98610938D01*
X111833126Y-98609719D01*
X111846639Y-98602834D01*
X111946281Y-98552064D01*
X111946283Y-98552063D01*
X111953220Y-98548528D01*
X112048528Y-98453220D01*
X112071121Y-98408880D01*
X112106183Y-98340066D01*
X112106183Y-98340065D01*
X112109719Y-98333126D01*
X112111075Y-98324569D01*
X112129585Y-98207696D01*
X112130804Y-98200000D01*
X112123835Y-98155998D01*
X112110938Y-98074569D01*
X112110938Y-98074568D01*
X112109719Y-98066874D01*
X112081478Y-98011447D01*
X112052064Y-97953719D01*
X112052063Y-97953717D01*
X112048528Y-97946780D01*
X111953220Y-97851472D01*
X111946283Y-97847937D01*
X111946281Y-97847936D01*
X111840066Y-97793817D01*
X111840065Y-97793817D01*
X111833126Y-97790281D01*
X111825432Y-97789062D01*
X111825431Y-97789062D01*
X111707696Y-97770415D01*
X111700000Y-97769196D01*
X111692304Y-97770415D01*
X111574569Y-97789062D01*
X111574568Y-97789062D01*
X111566874Y-97790281D01*
X111559935Y-97793817D01*
X111559934Y-97793817D01*
X111453719Y-97847936D01*
X111453717Y-97847937D01*
X111446780Y-97851472D01*
X111351472Y-97946780D01*
X111347937Y-97953717D01*
X111347936Y-97953719D01*
X111318522Y-98011447D01*
X111290281Y-98066874D01*
X111289062Y-98074568D01*
X111289062Y-98074569D01*
X111276165Y-98155998D01*
X111269196Y-98200000D01*
X108130804Y-98200000D01*
X108123835Y-98155998D01*
X108110938Y-98074569D01*
X108110938Y-98074568D01*
X108109719Y-98066874D01*
X108081478Y-98011447D01*
X108052064Y-97953719D01*
X108052063Y-97953717D01*
X108048528Y-97946780D01*
X107953220Y-97851472D01*
X107946283Y-97847937D01*
X107946281Y-97847936D01*
X107840066Y-97793817D01*
X107840065Y-97793817D01*
X107833126Y-97790281D01*
X107825432Y-97789062D01*
X107825431Y-97789062D01*
X107707696Y-97770415D01*
X107700000Y-97769196D01*
X107692304Y-97770415D01*
X107574569Y-97789062D01*
X107574568Y-97789062D01*
X107566874Y-97790281D01*
X107559936Y-97793816D01*
X107559933Y-97793817D01*
X107494445Y-97827185D01*
X107434013Y-97836756D01*
X107379496Y-97808978D01*
X107351719Y-97754462D01*
X107351368Y-97750000D01*
X114269196Y-97750000D01*
X114270415Y-97757696D01*
X114288999Y-97875029D01*
X114290281Y-97883126D01*
X114293817Y-97890065D01*
X114293817Y-97890066D01*
X114323687Y-97948688D01*
X114351472Y-98003220D01*
X114446780Y-98098528D01*
X114453717Y-98102063D01*
X114453719Y-98102064D01*
X114521288Y-98136492D01*
X114566874Y-98159719D01*
X114574568Y-98160938D01*
X114581978Y-98163345D01*
X114581572Y-98164596D01*
X114628829Y-98188677D01*
X114656605Y-98243194D01*
X114647032Y-98303624D01*
X114640281Y-98316874D01*
X114639062Y-98324568D01*
X114639062Y-98324569D01*
X114628220Y-98393022D01*
X114619196Y-98450000D01*
X114620928Y-98460938D01*
X114638926Y-98574569D01*
X114640281Y-98583126D01*
X114643817Y-98590065D01*
X114643817Y-98590066D01*
X114690649Y-98681978D01*
X114701472Y-98703220D01*
X114796780Y-98798528D01*
X114803717Y-98802063D01*
X114803719Y-98802064D01*
X114909934Y-98856183D01*
X114916874Y-98859719D01*
X114924568Y-98860938D01*
X114924569Y-98860938D01*
X115010634Y-98874569D01*
X115039722Y-98879176D01*
X115042304Y-98879585D01*
X115050000Y-98880804D01*
X115057696Y-98879585D01*
X115060279Y-98879176D01*
X115089366Y-98874569D01*
X115175431Y-98860938D01*
X115175432Y-98860938D01*
X115183126Y-98859719D01*
X115190066Y-98856183D01*
X115296281Y-98802064D01*
X115296283Y-98802063D01*
X115303220Y-98798528D01*
X115329996Y-98771752D01*
X115384513Y-98743975D01*
X115444945Y-98753546D01*
X115470004Y-98771752D01*
X115535336Y-98837084D01*
X115542273Y-98840619D01*
X115542275Y-98840620D01*
X115621141Y-98880804D01*
X115655430Y-98898275D01*
X115663124Y-98899494D01*
X115663125Y-98899494D01*
X115780860Y-98918141D01*
X115788556Y-98919360D01*
X115796252Y-98918141D01*
X115796253Y-98918141D01*
X115876962Y-98905358D01*
X115937394Y-98914929D01*
X115980658Y-98958193D01*
X116000065Y-98996281D01*
X116023881Y-99043022D01*
X116028822Y-99052720D01*
X116124130Y-99148028D01*
X116131067Y-99151563D01*
X116131069Y-99151564D01*
X116206634Y-99190066D01*
X116244224Y-99209219D01*
X116251919Y-99210438D01*
X116259328Y-99212845D01*
X116258424Y-99215626D01*
X116301099Y-99237374D01*
X116328873Y-99291893D01*
X116328872Y-99322859D01*
X116328058Y-99327998D01*
X116324732Y-99349000D01*
X116330589Y-99385978D01*
X116344369Y-99472981D01*
X116345817Y-99482126D01*
X116349353Y-99489065D01*
X116349353Y-99489066D01*
X116400925Y-99590281D01*
X116407008Y-99602220D01*
X116502316Y-99697528D01*
X116509253Y-99701063D01*
X116509255Y-99701064D01*
X116585456Y-99739890D01*
X116622410Y-99758719D01*
X116630104Y-99759938D01*
X116630105Y-99759938D01*
X116747840Y-99778585D01*
X116755536Y-99779804D01*
X116763232Y-99778585D01*
X116880967Y-99759938D01*
X116880968Y-99759938D01*
X116888662Y-99758719D01*
X116925616Y-99739890D01*
X117001817Y-99701064D01*
X117001819Y-99701063D01*
X117008756Y-99697528D01*
X117104064Y-99602220D01*
X117110148Y-99590281D01*
X117161719Y-99489066D01*
X117161719Y-99489065D01*
X117165255Y-99482126D01*
X117166704Y-99472981D01*
X117180483Y-99385978D01*
X117186340Y-99349000D01*
X117168660Y-99237374D01*
X117166474Y-99223569D01*
X117166474Y-99223568D01*
X117165255Y-99215874D01*
X117160317Y-99206183D01*
X117107600Y-99102719D01*
X117107599Y-99102717D01*
X117104064Y-99095780D01*
X117008756Y-99000472D01*
X117001819Y-98996937D01*
X117001817Y-98996936D01*
X116895602Y-98942817D01*
X116895601Y-98942817D01*
X116888662Y-98939281D01*
X116880967Y-98938062D01*
X116873558Y-98935655D01*
X116874462Y-98932874D01*
X116831787Y-98911126D01*
X116804013Y-98856607D01*
X116804014Y-98825641D01*
X116806935Y-98807198D01*
X116806935Y-98807197D01*
X116808075Y-98800000D01*
X117319196Y-98800000D01*
X117320415Y-98807696D01*
X117338926Y-98924569D01*
X117340281Y-98933126D01*
X117343817Y-98940065D01*
X117343817Y-98940066D01*
X117397682Y-99045781D01*
X117401472Y-99053220D01*
X117496780Y-99148528D01*
X117503717Y-99152063D01*
X117503719Y-99152064D01*
X117608953Y-99205683D01*
X117616874Y-99209719D01*
X117624568Y-99210938D01*
X117624569Y-99210938D01*
X117742304Y-99229585D01*
X117750000Y-99230804D01*
X117757696Y-99229585D01*
X117875431Y-99210938D01*
X117875432Y-99210938D01*
X117883126Y-99209719D01*
X117891047Y-99205683D01*
X117996281Y-99152064D01*
X117996283Y-99152063D01*
X118003220Y-99148528D01*
X118098528Y-99053220D01*
X118102319Y-99045781D01*
X118156183Y-98940066D01*
X118156183Y-98940065D01*
X118159719Y-98933126D01*
X118161075Y-98924569D01*
X118179585Y-98807696D01*
X118180804Y-98800000D01*
X118172885Y-98750000D01*
X119169196Y-98750000D01*
X119170415Y-98757696D01*
X119188926Y-98874569D01*
X119190281Y-98883126D01*
X119193817Y-98890065D01*
X119193817Y-98890066D01*
X119236207Y-98973260D01*
X119251472Y-99003220D01*
X119346780Y-99098528D01*
X119353717Y-99102063D01*
X119353719Y-99102064D01*
X119433109Y-99142515D01*
X119466874Y-99159719D01*
X119474568Y-99160938D01*
X119474569Y-99160938D01*
X119592304Y-99179585D01*
X119600000Y-99180804D01*
X119634953Y-99175268D01*
X119695384Y-99184839D01*
X119738648Y-99228104D01*
X119740004Y-99231377D01*
X119740281Y-99233126D01*
X119753325Y-99258726D01*
X119796276Y-99343022D01*
X119801472Y-99353220D01*
X119896780Y-99448528D01*
X119903717Y-99452063D01*
X119903719Y-99452064D01*
X119995858Y-99499011D01*
X120016874Y-99509719D01*
X120024568Y-99510938D01*
X120024569Y-99510938D01*
X120142304Y-99529585D01*
X120150000Y-99530804D01*
X120157696Y-99529585D01*
X120275431Y-99510938D01*
X120275432Y-99510938D01*
X120283126Y-99509719D01*
X120304142Y-99499011D01*
X120396281Y-99452064D01*
X120396283Y-99452063D01*
X120403220Y-99448528D01*
X120498528Y-99353220D01*
X120503725Y-99343022D01*
X120556183Y-99240066D01*
X120556183Y-99240065D01*
X120559719Y-99233126D01*
X120561036Y-99224810D01*
X120561322Y-99224249D01*
X120563345Y-99218022D01*
X120564331Y-99218342D01*
X120588811Y-99170295D01*
X120643327Y-99142515D01*
X120703762Y-99152086D01*
X120808953Y-99205683D01*
X120816874Y-99209719D01*
X120824568Y-99210938D01*
X120824569Y-99210938D01*
X120942304Y-99229585D01*
X120950000Y-99230804D01*
X120957696Y-99229585D01*
X121075431Y-99210938D01*
X121075432Y-99210938D01*
X121083126Y-99209719D01*
X121091047Y-99205683D01*
X121196281Y-99152064D01*
X121196283Y-99152063D01*
X121203220Y-99148528D01*
X121298528Y-99053220D01*
X121302319Y-99045781D01*
X121356183Y-98940066D01*
X121356183Y-98940065D01*
X121359719Y-98933126D01*
X121361075Y-98924569D01*
X121379585Y-98807696D01*
X121380804Y-98800000D01*
X121370955Y-98737815D01*
X121364966Y-98700000D01*
X123069196Y-98700000D01*
X123090281Y-98833126D01*
X123093817Y-98840065D01*
X123093817Y-98840066D01*
X123144770Y-98940066D01*
X123151472Y-98953220D01*
X123246780Y-99048528D01*
X123253717Y-99052063D01*
X123253719Y-99052064D01*
X123355098Y-99103719D01*
X123366874Y-99109719D01*
X123374568Y-99110938D01*
X123374569Y-99110938D01*
X123492304Y-99129585D01*
X123500000Y-99130804D01*
X123507696Y-99129585D01*
X123625431Y-99110938D01*
X123625432Y-99110938D01*
X123633126Y-99109719D01*
X123644902Y-99103719D01*
X123746281Y-99052064D01*
X123746283Y-99052063D01*
X123753220Y-99048528D01*
X123801748Y-99000000D01*
X126069196Y-99000000D01*
X126070415Y-99007696D01*
X126086014Y-99106183D01*
X126090281Y-99133126D01*
X126093817Y-99140065D01*
X126093817Y-99140066D01*
X126144770Y-99240066D01*
X126151472Y-99253220D01*
X126246780Y-99348528D01*
X126253717Y-99352063D01*
X126253719Y-99352064D01*
X126334104Y-99393022D01*
X126366874Y-99409719D01*
X126374568Y-99410938D01*
X126374569Y-99410938D01*
X126492304Y-99429585D01*
X126500000Y-99430804D01*
X126507696Y-99429585D01*
X126625431Y-99410938D01*
X126625432Y-99410938D01*
X126633126Y-99409719D01*
X126665896Y-99393022D01*
X126746281Y-99352064D01*
X126746283Y-99352063D01*
X126750331Y-99350000D01*
X130419196Y-99350000D01*
X130420415Y-99357696D01*
X130435826Y-99454996D01*
X130440281Y-99483126D01*
X130443817Y-99490065D01*
X130443817Y-99490066D01*
X130497427Y-99595281D01*
X130501472Y-99603220D01*
X130596780Y-99698528D01*
X130603717Y-99702063D01*
X130603719Y-99702064D01*
X130709934Y-99756183D01*
X130716874Y-99759719D01*
X130724568Y-99760938D01*
X130724569Y-99760938D01*
X130842304Y-99779585D01*
X130850000Y-99780804D01*
X130857696Y-99779585D01*
X130975431Y-99760938D01*
X130975432Y-99760938D01*
X130983126Y-99759719D01*
X130990066Y-99756183D01*
X131012509Y-99744748D01*
X136949500Y-99744748D01*
X136954721Y-99770995D01*
X136957013Y-99782516D01*
X136961133Y-99803231D01*
X137005448Y-99869552D01*
X137071769Y-99913867D01*
X137081332Y-99915769D01*
X137081334Y-99915770D01*
X137104005Y-99920279D01*
X137130252Y-99925500D01*
X138869748Y-99925500D01*
X138895995Y-99920279D01*
X138918666Y-99915770D01*
X138918668Y-99915769D01*
X138928231Y-99913867D01*
X138994552Y-99869552D01*
X139038867Y-99803231D01*
X139042988Y-99782516D01*
X139045279Y-99770995D01*
X139050500Y-99744748D01*
X139050500Y-98742631D01*
X144869443Y-98742631D01*
X144872093Y-98771752D01*
X144887661Y-98942817D01*
X144888114Y-98947797D01*
X144946280Y-99145428D01*
X144948519Y-99149712D01*
X144948520Y-99149713D01*
X144953404Y-99159055D01*
X145041726Y-99327998D01*
X145056426Y-99346281D01*
X145166452Y-99483126D01*
X145170815Y-99488553D01*
X145174526Y-99491667D01*
X145174527Y-99491668D01*
X145306278Y-99602220D01*
X145328630Y-99620976D01*
X145332878Y-99623311D01*
X145332879Y-99623312D01*
X145377670Y-99647936D01*
X145509162Y-99720224D01*
X145513775Y-99721687D01*
X145513779Y-99721689D01*
X145637509Y-99760938D01*
X145705532Y-99782516D01*
X145710344Y-99783056D01*
X145710345Y-99783056D01*
X145863108Y-99800191D01*
X145863110Y-99800191D01*
X145865864Y-99800500D01*
X146276841Y-99800500D01*
X146279236Y-99800265D01*
X146279240Y-99800265D01*
X146425220Y-99785952D01*
X146425224Y-99785951D01*
X146430030Y-99785480D01*
X146434655Y-99784084D01*
X146434658Y-99784083D01*
X146549161Y-99749512D01*
X146627251Y-99725935D01*
X146809151Y-99629218D01*
X146968800Y-99499011D01*
X147001305Y-99459719D01*
X147097035Y-99344002D01*
X147097036Y-99344000D01*
X147100118Y-99340275D01*
X147172891Y-99205683D01*
X147195803Y-99163309D01*
X147195803Y-99163308D01*
X147198103Y-99159055D01*
X147229479Y-99057696D01*
X147257593Y-98966875D01*
X147257594Y-98966871D01*
X147259023Y-98962254D01*
X147259973Y-98953220D01*
X147280051Y-98762185D01*
X147280051Y-98762183D01*
X147280557Y-98757369D01*
X147274998Y-98696281D01*
X147262325Y-98557022D01*
X147262324Y-98557017D01*
X147261886Y-98552203D01*
X147203720Y-98354572D01*
X147198098Y-98343817D01*
X147152596Y-98256782D01*
X147108274Y-98172002D01*
X147029936Y-98074569D01*
X146982219Y-98015220D01*
X146982217Y-98015217D01*
X146979185Y-98011447D01*
X146971166Y-98004718D01*
X146825085Y-97882141D01*
X146825083Y-97882140D01*
X146821370Y-97879024D01*
X146814835Y-97875431D01*
X146722191Y-97824500D01*
X146640838Y-97779776D01*
X146636225Y-97778313D01*
X146636221Y-97778311D01*
X146449083Y-97718948D01*
X146444468Y-97717484D01*
X146439656Y-97716944D01*
X146439655Y-97716944D01*
X146286892Y-97699809D01*
X146286890Y-97699809D01*
X146284136Y-97699500D01*
X145873159Y-97699500D01*
X145870764Y-97699735D01*
X145870760Y-97699735D01*
X145724780Y-97714048D01*
X145724776Y-97714049D01*
X145719970Y-97714520D01*
X145715345Y-97715916D01*
X145715342Y-97715917D01*
X145622398Y-97743979D01*
X145522749Y-97774065D01*
X145340849Y-97870782D01*
X145181200Y-98000989D01*
X145178116Y-98004717D01*
X145178115Y-98004718D01*
X145100509Y-98098528D01*
X145049882Y-98159725D01*
X145008999Y-98235336D01*
X144957890Y-98329862D01*
X144951897Y-98340945D01*
X144935685Y-98393317D01*
X144911812Y-98470440D01*
X144890977Y-98537746D01*
X144890472Y-98542554D01*
X144890471Y-98542557D01*
X144869949Y-98737815D01*
X144869443Y-98742631D01*
X139050500Y-98742631D01*
X139050500Y-98005252D01*
X139045279Y-97979005D01*
X139040770Y-97956334D01*
X139040769Y-97956332D01*
X139038867Y-97946769D01*
X138994552Y-97880448D01*
X138928231Y-97836133D01*
X138923331Y-97835158D01*
X138879088Y-97797372D01*
X138864804Y-97737877D01*
X138875289Y-97700699D01*
X138906183Y-97640066D01*
X138906183Y-97640065D01*
X138909719Y-97633126D01*
X138911075Y-97624569D01*
X138929585Y-97507696D01*
X138930804Y-97500000D01*
X138914639Y-97397936D01*
X138910938Y-97374569D01*
X138910938Y-97374568D01*
X138909719Y-97366874D01*
X138858440Y-97266233D01*
X138852064Y-97253719D01*
X138852063Y-97253717D01*
X138848528Y-97246780D01*
X138753220Y-97151472D01*
X138746283Y-97147937D01*
X138746281Y-97147936D01*
X138640066Y-97093817D01*
X138640065Y-97093817D01*
X138633126Y-97090281D01*
X138625432Y-97089062D01*
X138625431Y-97089062D01*
X138507696Y-97070415D01*
X138500000Y-97069196D01*
X138492304Y-97070415D01*
X138374569Y-97089062D01*
X138374568Y-97089062D01*
X138366874Y-97090281D01*
X138359935Y-97093817D01*
X138359934Y-97093817D01*
X138253719Y-97147936D01*
X138253717Y-97147937D01*
X138246780Y-97151472D01*
X138151472Y-97246780D01*
X138147937Y-97253717D01*
X138147936Y-97253719D01*
X138141560Y-97266233D01*
X138090281Y-97366874D01*
X138089062Y-97374568D01*
X138089062Y-97374569D01*
X138085361Y-97397936D01*
X138069196Y-97500000D01*
X138070415Y-97507696D01*
X138088926Y-97624569D01*
X138090281Y-97633126D01*
X138093816Y-97640064D01*
X138093817Y-97640067D01*
X138114447Y-97680555D01*
X138124018Y-97740987D01*
X138096240Y-97795504D01*
X138041724Y-97823281D01*
X138026237Y-97824500D01*
X137130252Y-97824500D01*
X137104005Y-97829721D01*
X137081334Y-97834230D01*
X137081332Y-97834231D01*
X137071769Y-97836133D01*
X137005448Y-97880448D01*
X136961133Y-97946769D01*
X136959231Y-97956332D01*
X136959230Y-97956334D01*
X136954721Y-97979005D01*
X136949500Y-98005252D01*
X136949500Y-99744748D01*
X131012509Y-99744748D01*
X131096281Y-99702064D01*
X131096283Y-99702063D01*
X131103220Y-99698528D01*
X131198528Y-99603220D01*
X131202574Y-99595281D01*
X131256183Y-99490066D01*
X131256183Y-99490065D01*
X131259719Y-99483126D01*
X131264175Y-99454996D01*
X131279585Y-99357696D01*
X131280804Y-99350000D01*
X131262293Y-99233126D01*
X131260938Y-99224569D01*
X131260938Y-99224568D01*
X131259719Y-99216874D01*
X131246060Y-99190066D01*
X131202064Y-99103719D01*
X131202063Y-99103717D01*
X131198528Y-99096780D01*
X131103220Y-99001472D01*
X131096283Y-98997937D01*
X131096281Y-98997936D01*
X130990066Y-98943817D01*
X130990065Y-98943817D01*
X130983126Y-98940281D01*
X130975432Y-98939062D01*
X130975431Y-98939062D01*
X130857696Y-98920415D01*
X130850000Y-98919196D01*
X130842304Y-98920415D01*
X130724569Y-98939062D01*
X130724568Y-98939062D01*
X130716874Y-98940281D01*
X130709935Y-98943817D01*
X130709934Y-98943817D01*
X130603719Y-98997936D01*
X130603717Y-98997937D01*
X130596780Y-99001472D01*
X130501472Y-99096780D01*
X130497937Y-99103717D01*
X130497936Y-99103719D01*
X130453940Y-99190066D01*
X130440281Y-99216874D01*
X130439062Y-99224568D01*
X130439062Y-99224569D01*
X130437707Y-99233126D01*
X130419196Y-99350000D01*
X126750331Y-99350000D01*
X126753220Y-99348528D01*
X126848528Y-99253220D01*
X126855231Y-99240066D01*
X126906183Y-99140066D01*
X126906183Y-99140065D01*
X126909719Y-99133126D01*
X126913987Y-99106183D01*
X126929585Y-99007696D01*
X126930804Y-99000000D01*
X126921747Y-98942817D01*
X126910938Y-98874569D01*
X126910938Y-98874568D01*
X126909719Y-98866874D01*
X126888603Y-98825431D01*
X126852064Y-98753719D01*
X126852063Y-98753717D01*
X126848528Y-98746780D01*
X126753220Y-98651472D01*
X126746283Y-98647937D01*
X126746281Y-98647936D01*
X126640066Y-98593817D01*
X126640065Y-98593817D01*
X126633126Y-98590281D01*
X126625432Y-98589062D01*
X126625431Y-98589062D01*
X126531196Y-98574137D01*
X126500000Y-98569196D01*
X126468804Y-98574137D01*
X126374569Y-98589062D01*
X126374568Y-98589062D01*
X126366874Y-98590281D01*
X126359935Y-98593817D01*
X126359934Y-98593817D01*
X126253719Y-98647936D01*
X126253717Y-98647937D01*
X126246780Y-98651472D01*
X126151472Y-98746780D01*
X126147937Y-98753717D01*
X126147936Y-98753719D01*
X126111397Y-98825431D01*
X126090281Y-98866874D01*
X126089062Y-98874568D01*
X126089062Y-98874569D01*
X126078253Y-98942817D01*
X126069196Y-99000000D01*
X123801748Y-99000000D01*
X123848528Y-98953220D01*
X123855231Y-98940066D01*
X123906183Y-98840066D01*
X123906183Y-98840065D01*
X123909719Y-98833126D01*
X123930804Y-98700000D01*
X123910869Y-98574136D01*
X123920440Y-98513705D01*
X123963705Y-98470440D01*
X124024136Y-98460869D01*
X124150000Y-98480804D01*
X124157696Y-98479585D01*
X124275431Y-98460938D01*
X124275432Y-98460938D01*
X124283126Y-98459719D01*
X124302201Y-98450000D01*
X124396281Y-98402064D01*
X124396283Y-98402063D01*
X124403220Y-98398528D01*
X124479996Y-98321752D01*
X124534513Y-98293975D01*
X124594945Y-98303546D01*
X124620004Y-98321752D01*
X124696780Y-98398528D01*
X124703717Y-98402063D01*
X124703719Y-98402064D01*
X124797799Y-98450000D01*
X124816874Y-98459719D01*
X124824568Y-98460938D01*
X124824569Y-98460938D01*
X124942304Y-98479585D01*
X124950000Y-98480804D01*
X124957696Y-98479585D01*
X125075431Y-98460938D01*
X125075432Y-98460938D01*
X125083126Y-98459719D01*
X125102201Y-98450000D01*
X125196281Y-98402064D01*
X125196283Y-98402063D01*
X125203220Y-98398528D01*
X125298528Y-98303220D01*
X125310584Y-98279560D01*
X125356183Y-98190066D01*
X125356183Y-98190065D01*
X125359719Y-98183126D01*
X125363426Y-98159725D01*
X125379585Y-98057696D01*
X125380804Y-98050000D01*
X125359719Y-97916874D01*
X125341159Y-97880448D01*
X125302064Y-97803719D01*
X125302063Y-97803717D01*
X125298528Y-97796780D01*
X125203220Y-97701472D01*
X125196283Y-97697937D01*
X125196281Y-97697936D01*
X125090066Y-97643817D01*
X125090065Y-97643817D01*
X125083126Y-97640281D01*
X125075432Y-97639062D01*
X125075431Y-97639062D01*
X124957696Y-97620415D01*
X124950000Y-97619196D01*
X124942304Y-97620415D01*
X124824569Y-97639062D01*
X124824568Y-97639062D01*
X124816874Y-97640281D01*
X124809935Y-97643817D01*
X124809934Y-97643817D01*
X124703719Y-97697936D01*
X124703717Y-97697937D01*
X124696780Y-97701472D01*
X124620004Y-97778248D01*
X124565487Y-97806025D01*
X124505055Y-97796454D01*
X124479996Y-97778248D01*
X124403220Y-97701472D01*
X124403769Y-97700923D01*
X124371579Y-97656626D01*
X124371574Y-97595440D01*
X124395727Y-97556021D01*
X124448528Y-97503220D01*
X124455231Y-97490066D01*
X124506183Y-97390066D01*
X124506183Y-97390065D01*
X124509719Y-97383126D01*
X124511075Y-97374569D01*
X124514966Y-97350000D01*
X125919196Y-97350000D01*
X125940281Y-97483126D01*
X125943817Y-97490065D01*
X125943817Y-97490066D01*
X125997508Y-97595440D01*
X126001472Y-97603220D01*
X126096780Y-97698528D01*
X126103717Y-97702063D01*
X126103719Y-97702064D01*
X126209934Y-97756183D01*
X126216874Y-97759719D01*
X126224568Y-97760938D01*
X126224569Y-97760938D01*
X126284406Y-97770415D01*
X126321797Y-97776337D01*
X126342304Y-97779585D01*
X126350000Y-97780804D01*
X126357696Y-97779585D01*
X126378204Y-97776337D01*
X126415594Y-97770415D01*
X126475431Y-97760938D01*
X126475432Y-97760938D01*
X126483126Y-97759719D01*
X126490066Y-97756183D01*
X126596281Y-97702064D01*
X126596283Y-97702063D01*
X126603220Y-97698528D01*
X126698528Y-97603220D01*
X126702493Y-97595440D01*
X126756183Y-97490066D01*
X126756183Y-97490065D01*
X126759719Y-97483126D01*
X126780804Y-97350000D01*
X126766185Y-97257696D01*
X126760938Y-97224569D01*
X126760938Y-97224568D01*
X126759719Y-97216874D01*
X126756183Y-97209934D01*
X126702064Y-97103719D01*
X126702063Y-97103717D01*
X126698528Y-97096780D01*
X126603220Y-97001472D01*
X126596283Y-96997937D01*
X126596281Y-96997936D01*
X126490066Y-96943817D01*
X126490065Y-96943817D01*
X126483126Y-96940281D01*
X126475432Y-96939062D01*
X126475431Y-96939062D01*
X126357696Y-96920415D01*
X126350000Y-96919196D01*
X126342304Y-96920415D01*
X126224569Y-96939062D01*
X126224568Y-96939062D01*
X126216874Y-96940281D01*
X126209935Y-96943817D01*
X126209934Y-96943817D01*
X126103719Y-96997936D01*
X126103717Y-96997937D01*
X126096780Y-97001472D01*
X126001472Y-97096780D01*
X125997937Y-97103717D01*
X125997936Y-97103719D01*
X125943817Y-97209934D01*
X125940281Y-97216874D01*
X125939062Y-97224568D01*
X125939062Y-97224569D01*
X125933815Y-97257696D01*
X125919196Y-97350000D01*
X124514966Y-97350000D01*
X124529585Y-97257696D01*
X124530804Y-97250000D01*
X124509719Y-97116874D01*
X124485426Y-97069196D01*
X124452064Y-97003719D01*
X124452063Y-97003717D01*
X124448528Y-96996780D01*
X124353220Y-96901472D01*
X124346283Y-96897937D01*
X124346281Y-96897936D01*
X124240066Y-96843817D01*
X124240065Y-96843817D01*
X124233126Y-96840281D01*
X124225432Y-96839062D01*
X124225431Y-96839062D01*
X124107696Y-96820415D01*
X124100000Y-96819196D01*
X124092304Y-96820415D01*
X123974569Y-96839062D01*
X123974568Y-96839062D01*
X123966874Y-96840281D01*
X123959935Y-96843817D01*
X123959934Y-96843817D01*
X123853719Y-96897936D01*
X123853717Y-96897937D01*
X123846780Y-96901472D01*
X123751472Y-96996780D01*
X123747937Y-97003717D01*
X123747936Y-97003719D01*
X123714574Y-97069196D01*
X123690281Y-97116874D01*
X123669196Y-97250000D01*
X123670415Y-97257696D01*
X123688926Y-97374569D01*
X123690281Y-97383126D01*
X123693817Y-97390065D01*
X123693817Y-97390066D01*
X123744770Y-97490066D01*
X123751472Y-97503220D01*
X123846780Y-97598528D01*
X123846231Y-97599077D01*
X123878421Y-97643374D01*
X123878426Y-97704560D01*
X123854273Y-97743979D01*
X123801472Y-97796780D01*
X123797937Y-97803717D01*
X123797936Y-97803719D01*
X123758841Y-97880448D01*
X123740281Y-97916874D01*
X123719196Y-98050000D01*
X123739063Y-98175431D01*
X123739131Y-98175863D01*
X123729560Y-98236295D01*
X123686295Y-98279560D01*
X123625864Y-98289131D01*
X123500000Y-98269196D01*
X123492304Y-98270415D01*
X123374569Y-98289062D01*
X123374568Y-98289062D01*
X123366874Y-98290281D01*
X123359935Y-98293817D01*
X123359934Y-98293817D01*
X123253719Y-98347936D01*
X123253717Y-98347937D01*
X123246780Y-98351472D01*
X123151472Y-98446780D01*
X123147937Y-98453717D01*
X123147936Y-98453719D01*
X123096984Y-98553719D01*
X123090281Y-98566874D01*
X123089062Y-98574568D01*
X123089062Y-98574569D01*
X123078094Y-98643817D01*
X123069196Y-98700000D01*
X121364966Y-98700000D01*
X121360938Y-98674569D01*
X121360938Y-98674568D01*
X121359719Y-98666874D01*
X121345548Y-98639062D01*
X121302064Y-98553719D01*
X121302063Y-98553717D01*
X121298528Y-98546780D01*
X121203220Y-98451472D01*
X121196283Y-98447937D01*
X121196281Y-98447936D01*
X121090066Y-98393817D01*
X121090065Y-98393817D01*
X121083126Y-98390281D01*
X121075432Y-98389062D01*
X121075431Y-98389062D01*
X120957696Y-98370415D01*
X120950000Y-98369196D01*
X120942304Y-98370415D01*
X120824569Y-98389062D01*
X120824568Y-98389062D01*
X120816874Y-98390281D01*
X120809935Y-98393817D01*
X120809934Y-98393817D01*
X120703719Y-98447936D01*
X120703717Y-98447937D01*
X120696780Y-98451472D01*
X120601472Y-98546780D01*
X120597937Y-98553717D01*
X120597936Y-98553719D01*
X120554452Y-98639062D01*
X120540281Y-98666874D01*
X120538964Y-98675190D01*
X120538678Y-98675751D01*
X120536655Y-98681978D01*
X120535669Y-98681658D01*
X120511189Y-98729705D01*
X120456673Y-98757485D01*
X120396238Y-98747914D01*
X120290066Y-98693817D01*
X120290065Y-98693817D01*
X120283126Y-98690281D01*
X120275432Y-98689062D01*
X120275431Y-98689062D01*
X120157696Y-98670415D01*
X120150000Y-98669196D01*
X120115047Y-98674732D01*
X120054616Y-98665161D01*
X120011352Y-98621896D01*
X120009996Y-98618623D01*
X120009719Y-98616874D01*
X119977285Y-98553219D01*
X119952064Y-98503719D01*
X119952063Y-98503717D01*
X119948528Y-98496780D01*
X119853220Y-98401472D01*
X119846283Y-98397937D01*
X119846281Y-98397936D01*
X119740066Y-98343817D01*
X119740065Y-98343817D01*
X119733126Y-98340281D01*
X119725432Y-98339062D01*
X119725431Y-98339062D01*
X119607696Y-98320415D01*
X119600000Y-98319196D01*
X119592304Y-98320415D01*
X119474569Y-98339062D01*
X119474568Y-98339062D01*
X119466874Y-98340281D01*
X119459935Y-98343817D01*
X119459934Y-98343817D01*
X119353719Y-98397936D01*
X119353717Y-98397937D01*
X119346780Y-98401472D01*
X119251472Y-98496780D01*
X119247937Y-98503717D01*
X119247936Y-98503719D01*
X119211836Y-98574569D01*
X119190281Y-98616874D01*
X119189062Y-98624568D01*
X119189062Y-98624569D01*
X119178334Y-98692304D01*
X119169196Y-98750000D01*
X118172885Y-98750000D01*
X118170955Y-98737815D01*
X118160938Y-98674569D01*
X118160938Y-98674568D01*
X118159719Y-98666874D01*
X118145548Y-98639062D01*
X118102064Y-98553719D01*
X118102063Y-98553717D01*
X118098528Y-98546780D01*
X118003220Y-98451472D01*
X117996283Y-98447937D01*
X117996281Y-98447936D01*
X117890066Y-98393817D01*
X117890065Y-98393817D01*
X117883126Y-98390281D01*
X117875432Y-98389062D01*
X117875431Y-98389062D01*
X117757696Y-98370415D01*
X117750000Y-98369196D01*
X117742304Y-98370415D01*
X117624569Y-98389062D01*
X117624568Y-98389062D01*
X117616874Y-98390281D01*
X117609935Y-98393817D01*
X117609934Y-98393817D01*
X117503719Y-98447936D01*
X117503717Y-98447937D01*
X117496780Y-98451472D01*
X117401472Y-98546780D01*
X117397937Y-98553717D01*
X117397936Y-98553719D01*
X117354452Y-98639062D01*
X117340281Y-98666874D01*
X117339062Y-98674568D01*
X117339062Y-98674569D01*
X117329045Y-98737815D01*
X117319196Y-98800000D01*
X116808075Y-98800000D01*
X116808154Y-98799500D01*
X116799095Y-98742304D01*
X116788288Y-98674069D01*
X116788288Y-98674068D01*
X116787069Y-98666374D01*
X116783533Y-98659434D01*
X116729414Y-98553219D01*
X116729413Y-98553217D01*
X116725878Y-98546280D01*
X116630570Y-98450972D01*
X116623633Y-98447437D01*
X116623631Y-98447436D01*
X116517416Y-98393317D01*
X116517415Y-98393317D01*
X116510476Y-98389781D01*
X116502782Y-98388562D01*
X116502781Y-98388562D01*
X116385046Y-98369915D01*
X116377350Y-98368696D01*
X116369654Y-98369915D01*
X116369653Y-98369915D01*
X116288944Y-98382698D01*
X116228512Y-98373127D01*
X116185247Y-98329862D01*
X116182990Y-98325431D01*
X116154337Y-98269196D01*
X116140620Y-98242275D01*
X116140619Y-98242273D01*
X116137084Y-98235336D01*
X116041776Y-98140028D01*
X116034839Y-98136493D01*
X116034837Y-98136492D01*
X115928622Y-98082373D01*
X115928621Y-98082373D01*
X115921682Y-98078837D01*
X115913988Y-98077618D01*
X115913987Y-98077618D01*
X115825534Y-98063609D01*
X115788556Y-98057752D01*
X115751578Y-98063609D01*
X115663125Y-98077618D01*
X115663124Y-98077618D01*
X115655430Y-98078837D01*
X115648491Y-98082373D01*
X115648490Y-98082373D01*
X115542275Y-98136492D01*
X115542273Y-98136493D01*
X115535336Y-98140028D01*
X115508560Y-98166804D01*
X115454043Y-98194581D01*
X115393611Y-98185010D01*
X115368552Y-98166804D01*
X115303220Y-98101472D01*
X115296283Y-98097937D01*
X115296281Y-98097936D01*
X115190066Y-98043817D01*
X115190065Y-98043817D01*
X115183126Y-98040281D01*
X115175432Y-98039062D01*
X115168022Y-98036655D01*
X115168428Y-98035404D01*
X115121171Y-98011323D01*
X115093395Y-97956806D01*
X115102968Y-97896375D01*
X115109719Y-97883126D01*
X115111002Y-97875029D01*
X115129585Y-97757696D01*
X115130804Y-97750000D01*
X115116015Y-97656626D01*
X115110938Y-97624569D01*
X115110938Y-97624568D01*
X115109719Y-97616874D01*
X115098605Y-97595062D01*
X115052064Y-97503719D01*
X115052063Y-97503717D01*
X115048528Y-97496780D01*
X114953220Y-97401472D01*
X114946283Y-97397937D01*
X114946281Y-97397936D01*
X114840066Y-97343817D01*
X114840065Y-97343817D01*
X114833126Y-97340281D01*
X114825432Y-97339062D01*
X114825431Y-97339062D01*
X114707696Y-97320415D01*
X114700000Y-97319196D01*
X114692304Y-97320415D01*
X114574569Y-97339062D01*
X114574568Y-97339062D01*
X114566874Y-97340281D01*
X114559935Y-97343817D01*
X114559934Y-97343817D01*
X114453719Y-97397936D01*
X114453717Y-97397937D01*
X114446780Y-97401472D01*
X114351472Y-97496780D01*
X114347937Y-97503717D01*
X114347936Y-97503719D01*
X114301395Y-97595062D01*
X114290281Y-97616874D01*
X114289062Y-97624568D01*
X114289062Y-97624569D01*
X114283985Y-97656626D01*
X114269196Y-97750000D01*
X107351368Y-97750000D01*
X107350500Y-97738975D01*
X107350500Y-96400000D01*
X109369196Y-96400000D01*
X109390281Y-96533126D01*
X109393817Y-96540065D01*
X109393817Y-96540066D01*
X109428076Y-96607302D01*
X109451472Y-96653220D01*
X109546780Y-96748528D01*
X109553717Y-96752063D01*
X109553719Y-96752064D01*
X109659934Y-96806183D01*
X109666874Y-96809719D01*
X109674568Y-96810938D01*
X109674569Y-96810938D01*
X109792304Y-96829585D01*
X109800000Y-96830804D01*
X109807696Y-96829585D01*
X109925431Y-96810938D01*
X109925432Y-96810938D01*
X109933126Y-96809719D01*
X109940066Y-96806183D01*
X110046281Y-96752064D01*
X110046283Y-96752063D01*
X110053220Y-96748528D01*
X110148528Y-96653220D01*
X110171925Y-96607302D01*
X110206183Y-96540066D01*
X110206183Y-96540065D01*
X110209719Y-96533126D01*
X110230804Y-96400000D01*
X110215277Y-96301964D01*
X110210938Y-96274569D01*
X110210938Y-96274568D01*
X110209719Y-96266874D01*
X110196829Y-96241575D01*
X110152064Y-96153719D01*
X110152063Y-96153717D01*
X110148528Y-96146780D01*
X110053220Y-96051472D01*
X110046283Y-96047937D01*
X110046281Y-96047936D01*
X109952201Y-96000000D01*
X113369196Y-96000000D01*
X113370415Y-96007696D01*
X113382046Y-96081129D01*
X113390281Y-96133126D01*
X113393817Y-96140065D01*
X113393817Y-96140066D01*
X113445539Y-96241575D01*
X113451472Y-96253220D01*
X113546780Y-96348528D01*
X113553717Y-96352063D01*
X113553719Y-96352064D01*
X113614896Y-96383235D01*
X113666874Y-96409719D01*
X113674568Y-96410938D01*
X113674569Y-96410938D01*
X113792304Y-96429585D01*
X113800000Y-96430804D01*
X113807696Y-96429585D01*
X113925431Y-96410938D01*
X113925432Y-96410938D01*
X113933126Y-96409719D01*
X113985104Y-96383235D01*
X114046281Y-96352064D01*
X114046283Y-96352063D01*
X114053220Y-96348528D01*
X114148528Y-96253220D01*
X114154462Y-96241575D01*
X114206183Y-96140066D01*
X114206183Y-96140065D01*
X114209719Y-96133126D01*
X114217955Y-96081129D01*
X114229585Y-96007696D01*
X114230804Y-96000000D01*
X114220212Y-95933126D01*
X114210938Y-95874569D01*
X114210938Y-95874568D01*
X114209719Y-95866874D01*
X114206183Y-95859934D01*
X114175645Y-95800000D01*
X141369196Y-95800000D01*
X141370415Y-95807696D01*
X141381007Y-95874569D01*
X141390281Y-95933126D01*
X141393817Y-95940065D01*
X141393817Y-95940066D01*
X141421205Y-95993817D01*
X141451472Y-96053220D01*
X141546780Y-96148528D01*
X141553717Y-96152063D01*
X141553719Y-96152064D01*
X141641187Y-96196631D01*
X141666874Y-96209719D01*
X141674568Y-96210938D01*
X141674569Y-96210938D01*
X141792304Y-96229585D01*
X141800000Y-96230804D01*
X141807696Y-96229585D01*
X141925431Y-96210938D01*
X141925432Y-96210938D01*
X141933126Y-96209719D01*
X141958813Y-96196631D01*
X142046281Y-96152064D01*
X142046283Y-96152063D01*
X142053220Y-96148528D01*
X142148528Y-96053220D01*
X142178796Y-95993817D01*
X142206183Y-95940066D01*
X142206183Y-95940065D01*
X142209719Y-95933126D01*
X142218994Y-95874569D01*
X142229585Y-95807696D01*
X142230804Y-95800000D01*
X142209719Y-95666874D01*
X142175082Y-95598895D01*
X142152064Y-95553719D01*
X142152063Y-95553717D01*
X142148528Y-95546780D01*
X142053220Y-95451472D01*
X142046283Y-95447937D01*
X142046281Y-95447936D01*
X141940066Y-95393817D01*
X141940065Y-95393817D01*
X141933126Y-95390281D01*
X141925432Y-95389062D01*
X141925431Y-95389062D01*
X141807696Y-95370415D01*
X141800000Y-95369196D01*
X141792304Y-95370415D01*
X141674569Y-95389062D01*
X141674568Y-95389062D01*
X141666874Y-95390281D01*
X141659935Y-95393817D01*
X141659934Y-95393817D01*
X141553719Y-95447936D01*
X141553717Y-95447937D01*
X141546780Y-95451472D01*
X141451472Y-95546780D01*
X141447937Y-95553717D01*
X141447936Y-95553719D01*
X141424918Y-95598895D01*
X141390281Y-95666874D01*
X141369196Y-95800000D01*
X114175645Y-95800000D01*
X114152064Y-95753719D01*
X114152063Y-95753717D01*
X114148528Y-95746780D01*
X114053220Y-95651472D01*
X114046283Y-95647937D01*
X114046281Y-95647936D01*
X113940066Y-95593817D01*
X113940065Y-95593817D01*
X113933126Y-95590281D01*
X113925432Y-95589062D01*
X113925431Y-95589062D01*
X113807696Y-95570415D01*
X113800000Y-95569196D01*
X113792304Y-95570415D01*
X113674569Y-95589062D01*
X113674568Y-95589062D01*
X113666874Y-95590281D01*
X113659935Y-95593817D01*
X113659934Y-95593817D01*
X113553719Y-95647936D01*
X113553717Y-95647937D01*
X113546780Y-95651472D01*
X113451472Y-95746780D01*
X113447937Y-95753717D01*
X113447936Y-95753719D01*
X113393817Y-95859934D01*
X113390281Y-95866874D01*
X113389062Y-95874568D01*
X113389062Y-95874569D01*
X113379788Y-95933126D01*
X113369196Y-96000000D01*
X109952201Y-96000000D01*
X109940066Y-95993817D01*
X109940065Y-95993817D01*
X109933126Y-95990281D01*
X109925432Y-95989062D01*
X109925431Y-95989062D01*
X109807696Y-95970415D01*
X109800000Y-95969196D01*
X109792304Y-95970415D01*
X109674569Y-95989062D01*
X109674568Y-95989062D01*
X109666874Y-95990281D01*
X109659935Y-95993817D01*
X109659934Y-95993817D01*
X109553719Y-96047936D01*
X109553717Y-96047937D01*
X109546780Y-96051472D01*
X109451472Y-96146780D01*
X109447937Y-96153717D01*
X109447936Y-96153719D01*
X109403171Y-96241575D01*
X109390281Y-96266874D01*
X109389062Y-96274568D01*
X109389062Y-96274569D01*
X109384723Y-96301964D01*
X109369196Y-96400000D01*
X107350500Y-96400000D01*
X107350500Y-95000000D01*
X116819196Y-95000000D01*
X116820415Y-95007696D01*
X116837842Y-95117724D01*
X116840281Y-95133126D01*
X116843817Y-95140065D01*
X116843817Y-95140066D01*
X116880408Y-95211879D01*
X116901472Y-95253220D01*
X116996780Y-95348528D01*
X117003717Y-95352063D01*
X117003719Y-95352064D01*
X117109934Y-95406183D01*
X117116874Y-95409719D01*
X117124568Y-95410938D01*
X117124569Y-95410938D01*
X117242304Y-95429585D01*
X117250000Y-95430804D01*
X117257696Y-95429585D01*
X117375431Y-95410938D01*
X117375432Y-95410938D01*
X117383126Y-95409719D01*
X117390066Y-95406183D01*
X117496281Y-95352064D01*
X117496283Y-95352063D01*
X117503220Y-95348528D01*
X117598528Y-95253220D01*
X117619593Y-95211879D01*
X117656183Y-95140066D01*
X117656183Y-95140065D01*
X117659719Y-95133126D01*
X117662159Y-95117724D01*
X117679585Y-95007696D01*
X117680804Y-95000000D01*
X117659719Y-94866874D01*
X117656183Y-94859934D01*
X117602064Y-94753719D01*
X117602063Y-94753717D01*
X117598528Y-94746780D01*
X117503220Y-94651472D01*
X117496283Y-94647937D01*
X117496281Y-94647936D01*
X117390066Y-94593817D01*
X117390065Y-94593817D01*
X117383126Y-94590281D01*
X117375432Y-94589062D01*
X117375431Y-94589062D01*
X117257696Y-94570415D01*
X117250000Y-94569196D01*
X117242304Y-94570415D01*
X117124569Y-94589062D01*
X117124568Y-94589062D01*
X117116874Y-94590281D01*
X117109935Y-94593817D01*
X117109934Y-94593817D01*
X117003719Y-94647936D01*
X117003717Y-94647937D01*
X116996780Y-94651472D01*
X116901472Y-94746780D01*
X116897937Y-94753717D01*
X116897936Y-94753719D01*
X116843817Y-94859934D01*
X116840281Y-94866874D01*
X116819196Y-95000000D01*
X107350500Y-95000000D01*
X107350500Y-94756900D01*
X107369407Y-94698709D01*
X107379491Y-94686902D01*
X107396825Y-94669567D01*
X107440787Y-94644058D01*
X107550817Y-94614060D01*
X107672991Y-94539045D01*
X107713439Y-94494359D01*
X107764468Y-94437982D01*
X107769200Y-94432754D01*
X107831710Y-94303733D01*
X107834010Y-94290066D01*
X107854862Y-94166124D01*
X107854862Y-94166120D01*
X107855496Y-94162354D01*
X107855647Y-94150000D01*
X114269196Y-94150000D01*
X114271153Y-94162354D01*
X114278655Y-94209719D01*
X114290281Y-94283126D01*
X114293817Y-94290065D01*
X114293817Y-94290066D01*
X114347927Y-94396262D01*
X114351472Y-94403220D01*
X114446780Y-94498528D01*
X114453717Y-94502063D01*
X114453719Y-94502064D01*
X114526299Y-94539045D01*
X114566874Y-94559719D01*
X114574568Y-94560938D01*
X114574569Y-94560938D01*
X114692304Y-94579585D01*
X114700000Y-94580804D01*
X114707696Y-94579585D01*
X114825431Y-94560938D01*
X114825432Y-94560938D01*
X114833126Y-94559719D01*
X114873701Y-94539045D01*
X114946281Y-94502064D01*
X114946283Y-94502063D01*
X114953220Y-94498528D01*
X115048528Y-94403220D01*
X115052074Y-94396262D01*
X115106183Y-94290066D01*
X115106183Y-94290065D01*
X115109719Y-94283126D01*
X115121346Y-94209719D01*
X115128847Y-94162354D01*
X115130804Y-94150000D01*
X115109719Y-94016874D01*
X115098969Y-93995776D01*
X115052064Y-93903719D01*
X115052063Y-93903717D01*
X115048528Y-93896780D01*
X114953220Y-93801472D01*
X114946283Y-93797937D01*
X114946281Y-93797936D01*
X114840066Y-93743817D01*
X114840065Y-93743817D01*
X114833126Y-93740281D01*
X114825432Y-93739062D01*
X114825431Y-93739062D01*
X114707696Y-93720415D01*
X114700000Y-93719196D01*
X114692304Y-93720415D01*
X114574569Y-93739062D01*
X114574568Y-93739062D01*
X114566874Y-93740281D01*
X114559935Y-93743817D01*
X114559934Y-93743817D01*
X114453719Y-93797936D01*
X114453717Y-93797937D01*
X114446780Y-93801472D01*
X114351472Y-93896780D01*
X114347937Y-93903717D01*
X114347936Y-93903719D01*
X114301031Y-93995776D01*
X114290281Y-94016874D01*
X114269196Y-94150000D01*
X107855647Y-94150000D01*
X107835323Y-94008082D01*
X107775984Y-93877572D01*
X107682400Y-93768963D01*
X107562095Y-93690985D01*
X107424739Y-93649907D01*
X107341497Y-93649398D01*
X107288427Y-93649074D01*
X107288426Y-93649074D01*
X107281376Y-93649031D01*
X107274599Y-93650968D01*
X107274598Y-93650968D01*
X107150309Y-93686490D01*
X107150307Y-93686491D01*
X107143529Y-93688428D01*
X107022280Y-93764930D01*
X107017613Y-93770214D01*
X107017611Y-93770216D01*
X106932044Y-93867103D01*
X106932042Y-93867105D01*
X106927377Y-93872388D01*
X106866447Y-94002163D01*
X106859431Y-94047223D01*
X106831614Y-94101994D01*
X106644516Y-94289091D01*
X106627458Y-94306149D01*
X106627455Y-94306153D01*
X106621950Y-94311658D01*
X106610998Y-94333154D01*
X106602884Y-94346393D01*
X106588704Y-94365910D01*
X106586296Y-94373321D01*
X106581248Y-94388857D01*
X106575305Y-94403203D01*
X106564354Y-94424696D01*
X106563136Y-94432389D01*
X106563135Y-94432391D01*
X106560581Y-94448519D01*
X106556956Y-94463620D01*
X106549500Y-94486567D01*
X106549500Y-95117724D01*
X106530593Y-95175915D01*
X106481093Y-95211879D01*
X106419907Y-95211879D01*
X106375897Y-95182804D01*
X106356092Y-95160101D01*
X106352169Y-95155604D01*
X106213453Y-95058113D01*
X106134470Y-95027318D01*
X106061048Y-94998692D01*
X106061047Y-94998692D01*
X106055487Y-94996524D01*
X106049572Y-94995745D01*
X106049571Y-94995745D01*
X105929387Y-94979923D01*
X105926174Y-94979500D01*
X104737484Y-94979500D01*
X104733989Y-94979923D01*
X104617602Y-94994007D01*
X104617599Y-94994008D01*
X104611680Y-94994724D01*
X104453077Y-95054655D01*
X104448160Y-95058035D01*
X104448157Y-95058036D01*
X104350098Y-95125431D01*
X104313349Y-95150688D01*
X104200560Y-95277279D01*
X104197770Y-95282549D01*
X104197769Y-95282550D01*
X104194526Y-95288675D01*
X104121224Y-95427119D01*
X104079919Y-95591559D01*
X104079624Y-95647936D01*
X104079070Y-95753719D01*
X104079031Y-95761105D01*
X104080423Y-95766901D01*
X104080423Y-95766905D01*
X104102758Y-95859934D01*
X104118612Y-95925968D01*
X104156823Y-96000000D01*
X104187134Y-96058726D01*
X104196375Y-96076631D01*
X104307831Y-96204396D01*
X104312713Y-96207827D01*
X104312714Y-96207828D01*
X104385135Y-96258726D01*
X104446547Y-96301887D01*
X104604513Y-96363476D01*
X104610428Y-96364255D01*
X104610429Y-96364255D01*
X104612982Y-96364591D01*
X104614432Y-96365283D01*
X104616213Y-96365740D01*
X104616123Y-96366089D01*
X104668207Y-96390932D01*
X104697402Y-96444703D01*
X104689416Y-96505365D01*
X104647298Y-96549747D01*
X104637946Y-96554208D01*
X104515760Y-96604819D01*
X104515756Y-96604821D01*
X104509767Y-96607302D01*
X104504625Y-96611248D01*
X104504621Y-96611250D01*
X104442750Y-96658726D01*
X104389549Y-96699549D01*
X104385598Y-96704698D01*
X104301250Y-96814621D01*
X104301248Y-96814625D01*
X104297302Y-96819767D01*
X104294821Y-96825756D01*
X104294819Y-96825760D01*
X104241797Y-96953767D01*
X104239313Y-96959764D01*
X104219534Y-97110000D01*
X104239313Y-97260236D01*
X104241797Y-97266233D01*
X104294819Y-97394240D01*
X104294821Y-97394244D01*
X104297302Y-97400233D01*
X104301248Y-97405375D01*
X104301250Y-97405379D01*
X104373856Y-97500000D01*
X104389549Y-97520451D01*
X104394698Y-97524402D01*
X104504621Y-97608750D01*
X104504625Y-97608752D01*
X104509767Y-97612698D01*
X104515756Y-97615179D01*
X104515760Y-97615181D01*
X104584894Y-97643817D01*
X104649764Y-97670687D01*
X104762280Y-97685500D01*
X104837720Y-97685500D01*
X104950236Y-97670687D01*
X105015106Y-97643817D01*
X105084240Y-97615181D01*
X105084244Y-97615179D01*
X105090233Y-97612698D01*
X105095375Y-97608752D01*
X105095379Y-97608750D01*
X105205302Y-97524402D01*
X105210451Y-97520451D01*
X105226144Y-97500000D01*
X105298750Y-97405379D01*
X105298752Y-97405375D01*
X105302698Y-97400233D01*
X105305179Y-97394244D01*
X105305181Y-97394240D01*
X105358203Y-97266233D01*
X105360687Y-97260236D01*
X105380466Y-97110000D01*
X105360687Y-96959764D01*
X105358203Y-96953767D01*
X105305181Y-96825760D01*
X105305179Y-96825756D01*
X105302698Y-96819767D01*
X105298752Y-96814625D01*
X105298750Y-96814621D01*
X105214402Y-96704698D01*
X105210451Y-96699549D01*
X105157250Y-96658726D01*
X105095379Y-96611250D01*
X105095375Y-96611248D01*
X105090233Y-96607302D01*
X105084244Y-96604821D01*
X105084240Y-96604819D01*
X105002506Y-96570964D01*
X104955980Y-96531227D01*
X104941697Y-96471732D01*
X104965112Y-96415204D01*
X105017281Y-96383235D01*
X105040392Y-96380500D01*
X105922516Y-96380500D01*
X105945443Y-96377726D01*
X106042398Y-96365993D01*
X106042401Y-96365992D01*
X106048320Y-96365276D01*
X106206923Y-96305345D01*
X106211840Y-96301965D01*
X106211843Y-96301964D01*
X106341733Y-96212692D01*
X106346651Y-96209312D01*
X106376583Y-96175717D01*
X106429410Y-96144848D01*
X106490293Y-96150924D01*
X106535976Y-96191627D01*
X106549500Y-96241575D01*
X106549500Y-103757724D01*
X106530593Y-103815915D01*
X106481093Y-103851879D01*
X106419907Y-103851879D01*
X106375897Y-103822804D01*
X106356092Y-103800101D01*
X106352169Y-103795604D01*
X106327944Y-103778578D01*
X106218335Y-103701544D01*
X106218334Y-103701544D01*
X106213453Y-103698113D01*
X106117846Y-103660837D01*
X106061048Y-103638692D01*
X106061047Y-103638692D01*
X106055487Y-103636524D01*
X106049572Y-103635745D01*
X106049571Y-103635745D01*
X105929387Y-103619923D01*
X105926174Y-103619500D01*
X105040392Y-103619500D01*
X104982201Y-103600593D01*
X104946237Y-103551093D01*
X104946237Y-103489907D01*
X104982201Y-103440407D01*
X105002506Y-103429036D01*
X105084240Y-103395181D01*
X105084244Y-103395179D01*
X105090233Y-103392698D01*
X105095375Y-103388752D01*
X105095379Y-103388750D01*
X105205302Y-103304402D01*
X105210451Y-103300451D01*
X105219142Y-103289125D01*
X105298750Y-103185379D01*
X105298752Y-103185375D01*
X105302698Y-103180233D01*
X105305179Y-103174244D01*
X105305181Y-103174240D01*
X105358203Y-103046233D01*
X105360687Y-103040236D01*
X105380466Y-102890000D01*
X105360687Y-102739764D01*
X105344944Y-102701757D01*
X105305181Y-102605760D01*
X105305179Y-102605756D01*
X105302698Y-102599767D01*
X105298752Y-102594625D01*
X105298750Y-102594621D01*
X105214402Y-102484698D01*
X105210451Y-102479549D01*
X105166676Y-102445959D01*
X105095379Y-102391250D01*
X105095375Y-102391248D01*
X105090233Y-102387302D01*
X105084244Y-102384821D01*
X105084240Y-102384819D01*
X104956233Y-102331797D01*
X104950236Y-102329313D01*
X104837720Y-102314500D01*
X104762280Y-102314500D01*
X104649764Y-102329313D01*
X104643767Y-102331797D01*
X104515760Y-102384819D01*
X104515756Y-102384821D01*
X104509767Y-102387302D01*
X104504625Y-102391248D01*
X104504621Y-102391250D01*
X104433324Y-102445959D01*
X104389549Y-102479549D01*
X104385598Y-102484698D01*
X104301250Y-102594621D01*
X104301248Y-102594625D01*
X104297302Y-102599767D01*
X104294821Y-102605756D01*
X104294819Y-102605760D01*
X104255056Y-102701757D01*
X104239313Y-102739764D01*
X104219534Y-102890000D01*
X104239313Y-103040236D01*
X104241797Y-103046233D01*
X104294819Y-103174240D01*
X104294821Y-103174244D01*
X104297302Y-103180233D01*
X104301248Y-103185375D01*
X104301250Y-103185379D01*
X104380858Y-103289125D01*
X104389549Y-103300451D01*
X104394698Y-103304402D01*
X104504621Y-103388750D01*
X104504625Y-103388752D01*
X104509767Y-103392698D01*
X104515756Y-103395179D01*
X104515760Y-103395181D01*
X104636609Y-103445238D01*
X104683134Y-103484975D01*
X104697418Y-103544470D01*
X104674003Y-103600998D01*
X104622339Y-103632844D01*
X104617603Y-103634007D01*
X104611680Y-103634724D01*
X104606100Y-103636833D01*
X104606098Y-103636833D01*
X104532378Y-103664690D01*
X104453077Y-103694655D01*
X104448160Y-103698035D01*
X104448157Y-103698036D01*
X104357460Y-103760371D01*
X104313349Y-103790688D01*
X104200560Y-103917279D01*
X104197770Y-103922549D01*
X104197769Y-103922550D01*
X104194526Y-103928675D01*
X104121224Y-104067119D01*
X104100572Y-104149339D01*
X104088277Y-104198286D01*
X104079919Y-104231559D01*
X104079842Y-104246281D01*
X104079088Y-104390281D01*
X104079031Y-104401105D01*
X104080423Y-104406901D01*
X104080423Y-104406905D01*
X104099757Y-104487434D01*
X104118612Y-104565968D01*
X104196375Y-104716631D01*
X104307831Y-104844396D01*
X104312713Y-104847827D01*
X104312714Y-104847828D01*
X104394349Y-104905202D01*
X104446547Y-104941887D01*
X104604513Y-105003476D01*
X104610428Y-105004255D01*
X104610429Y-105004255D01*
X104723624Y-105019157D01*
X104733826Y-105020500D01*
X105922516Y-105020500D01*
X105945443Y-105017726D01*
X106042398Y-105005993D01*
X106042401Y-105005992D01*
X106048320Y-105005276D01*
X106206923Y-104945345D01*
X106211840Y-104941965D01*
X106211843Y-104941964D01*
X106341733Y-104852692D01*
X106346651Y-104849312D01*
X106376583Y-104815717D01*
X106429410Y-104784848D01*
X106490293Y-104790924D01*
X106535976Y-104831627D01*
X106549500Y-104881575D01*
X106549500Y-106160691D01*
X106548281Y-106176177D01*
X106544508Y-106200000D01*
X106545727Y-106207696D01*
X106545727Y-106207697D01*
X106548281Y-106223822D01*
X106549500Y-106239309D01*
X106549500Y-107610923D01*
X106533246Y-107665275D01*
X106532048Y-107667099D01*
X106527377Y-107672388D01*
X106466447Y-107802163D01*
X106465362Y-107809132D01*
X106465361Y-107809135D01*
X106457794Y-107857737D01*
X106444391Y-107943823D01*
X106445306Y-107950820D01*
X106445306Y-107950821D01*
X106460438Y-108066539D01*
X106462980Y-108085979D01*
X106465821Y-108092435D01*
X106465821Y-108092436D01*
X106514059Y-108202064D01*
X106520720Y-108217203D01*
X106536023Y-108235408D01*
X106608431Y-108321549D01*
X106608434Y-108321551D01*
X106612970Y-108326948D01*
X106732313Y-108406390D01*
X106865670Y-108448053D01*
X106906151Y-108472544D01*
X108064103Y-109630496D01*
X108091880Y-109685013D01*
X108082309Y-109745445D01*
X108039044Y-109788710D01*
X107994099Y-109799500D01*
X101034017Y-109799500D01*
X101011831Y-109796982D01*
X101011813Y-109796978D01*
X101000359Y-109794344D01*
X100989484Y-109796805D01*
X100978337Y-109796785D01*
X100978339Y-109795781D01*
X100968438Y-109796391D01*
X100882302Y-109787908D01*
X100853728Y-109785094D01*
X100834699Y-109781309D01*
X100703373Y-109741472D01*
X100685445Y-109734045D01*
X100564423Y-109669357D01*
X100548287Y-109658576D01*
X100485020Y-109606655D01*
X100442202Y-109571515D01*
X100428485Y-109557798D01*
X100341424Y-109451713D01*
X100330643Y-109435577D01*
X100265955Y-109314555D01*
X100258528Y-109296626D01*
X100251635Y-109273903D01*
X100218691Y-109165301D01*
X100214906Y-109146270D01*
X100203658Y-109032058D01*
X100203830Y-109011037D01*
X100204389Y-109006180D01*
X100205655Y-109000718D01*
X100205656Y-109000000D01*
X100203096Y-108988776D01*
X100202980Y-108988266D01*
X100200500Y-108966248D01*
X100200500Y-108000000D01*
X100644341Y-108000000D01*
X100664937Y-108235408D01*
X100726097Y-108463663D01*
X100825965Y-108677829D01*
X100961505Y-108871401D01*
X101128599Y-109038495D01*
X101253973Y-109126282D01*
X101309705Y-109165306D01*
X101322171Y-109174035D01*
X101536337Y-109273903D01*
X101764592Y-109335063D01*
X101849431Y-109342486D01*
X101938870Y-109350311D01*
X101938878Y-109350311D01*
X101941034Y-109350500D01*
X102058966Y-109350500D01*
X102061122Y-109350311D01*
X102061130Y-109350311D01*
X102150569Y-109342486D01*
X102235408Y-109335063D01*
X102463663Y-109273903D01*
X102677829Y-109174035D01*
X102690296Y-109165306D01*
X102746027Y-109126282D01*
X102871401Y-109038495D01*
X103038495Y-108871401D01*
X103171554Y-108681374D01*
X103171554Y-108681373D01*
X103174035Y-108677830D01*
X103273903Y-108463663D01*
X103335063Y-108235408D01*
X103355659Y-108000000D01*
X103342535Y-107850000D01*
X104019196Y-107850000D01*
X104040281Y-107983126D01*
X104043817Y-107990065D01*
X104043817Y-107990066D01*
X104090625Y-108081931D01*
X104101472Y-108103220D01*
X104196780Y-108198528D01*
X104203717Y-108202063D01*
X104203719Y-108202064D01*
X104269161Y-108235408D01*
X104316874Y-108259719D01*
X104324568Y-108260938D01*
X104324569Y-108260938D01*
X104442304Y-108279585D01*
X104450000Y-108280804D01*
X104457696Y-108279585D01*
X104575431Y-108260938D01*
X104575432Y-108260938D01*
X104583126Y-108259719D01*
X104630839Y-108235408D01*
X104696281Y-108202064D01*
X104696283Y-108202063D01*
X104703220Y-108198528D01*
X104798528Y-108103220D01*
X104809376Y-108081931D01*
X104856183Y-107990066D01*
X104856183Y-107990065D01*
X104859719Y-107983126D01*
X104880804Y-107850000D01*
X104871165Y-107789139D01*
X104860938Y-107724569D01*
X104860938Y-107724568D01*
X104859719Y-107716874D01*
X104831527Y-107661544D01*
X104802064Y-107603719D01*
X104802063Y-107603717D01*
X104798528Y-107596780D01*
X104703220Y-107501472D01*
X104696283Y-107497937D01*
X104696281Y-107497936D01*
X104590066Y-107443817D01*
X104590065Y-107443817D01*
X104583126Y-107440281D01*
X104575432Y-107439062D01*
X104575431Y-107439062D01*
X104457696Y-107420415D01*
X104450000Y-107419196D01*
X104442304Y-107420415D01*
X104324569Y-107439062D01*
X104324568Y-107439062D01*
X104316874Y-107440281D01*
X104309935Y-107443817D01*
X104309934Y-107443817D01*
X104203719Y-107497936D01*
X104203717Y-107497937D01*
X104196780Y-107501472D01*
X104101472Y-107596780D01*
X104097937Y-107603717D01*
X104097936Y-107603719D01*
X104068473Y-107661544D01*
X104040281Y-107716874D01*
X104039062Y-107724568D01*
X104039062Y-107724569D01*
X104028835Y-107789139D01*
X104019196Y-107850000D01*
X103342535Y-107850000D01*
X103335063Y-107764592D01*
X103273903Y-107536337D01*
X103174035Y-107322171D01*
X103159542Y-107301472D01*
X103101588Y-107218706D01*
X103038495Y-107128599D01*
X102871401Y-106961505D01*
X102716733Y-106853206D01*
X102681374Y-106828447D01*
X102681372Y-106828446D01*
X102677829Y-106825965D01*
X102463663Y-106726097D01*
X102235408Y-106664937D01*
X102144438Y-106656978D01*
X102061130Y-106649689D01*
X102061122Y-106649689D01*
X102058966Y-106649500D01*
X101941034Y-106649500D01*
X101938878Y-106649689D01*
X101938870Y-106649689D01*
X101855562Y-106656978D01*
X101764592Y-106664937D01*
X101536337Y-106726097D01*
X101322171Y-106825965D01*
X101318628Y-106828446D01*
X101318626Y-106828447D01*
X101283267Y-106853206D01*
X101128599Y-106961505D01*
X100961505Y-107128599D01*
X100884158Y-107239062D01*
X100828447Y-107318625D01*
X100828446Y-107318627D01*
X100825965Y-107322170D01*
X100726097Y-107536337D01*
X100664937Y-107764592D01*
X100644341Y-108000000D01*
X100200500Y-108000000D01*
X100200500Y-104905202D01*
X100219407Y-104847011D01*
X100268907Y-104811047D01*
X100330093Y-104811047D01*
X100368817Y-104836631D01*
X100369471Y-104835904D01*
X100373908Y-104839899D01*
X100377831Y-104844396D01*
X100382713Y-104847827D01*
X100382714Y-104847828D01*
X100464349Y-104905202D01*
X100516547Y-104941887D01*
X100674513Y-105003476D01*
X100680428Y-105004255D01*
X100680429Y-105004255D01*
X100793624Y-105019157D01*
X100803826Y-105020500D01*
X101492516Y-105020500D01*
X101515443Y-105017726D01*
X101612398Y-105005993D01*
X101612401Y-105005992D01*
X101618320Y-105005276D01*
X101776923Y-104945345D01*
X101781840Y-104941965D01*
X101781843Y-104941964D01*
X101911733Y-104852692D01*
X101916651Y-104849312D01*
X102029440Y-104722721D01*
X102032665Y-104716631D01*
X102062684Y-104659934D01*
X102108776Y-104572881D01*
X102135115Y-104468021D01*
X102148627Y-104414231D01*
X102148627Y-104414228D01*
X102150081Y-104408441D01*
X102150529Y-104322841D01*
X102150938Y-104244861D01*
X102150938Y-104244859D01*
X102150969Y-104238895D01*
X102141220Y-104198286D01*
X102123728Y-104125431D01*
X102111388Y-104074032D01*
X102069205Y-103992304D01*
X102036364Y-103928675D01*
X102036362Y-103928673D01*
X102033625Y-103923369D01*
X101928813Y-103803220D01*
X101926092Y-103800101D01*
X101922169Y-103795604D01*
X101897944Y-103778578D01*
X101788335Y-103701544D01*
X101788334Y-103701544D01*
X101783453Y-103698113D01*
X101687846Y-103660837D01*
X101631048Y-103638692D01*
X101631047Y-103638692D01*
X101625487Y-103636524D01*
X101619572Y-103635745D01*
X101619571Y-103635745D01*
X101499387Y-103619923D01*
X101496174Y-103619500D01*
X100807484Y-103619500D01*
X100803989Y-103619923D01*
X100687602Y-103634007D01*
X100687599Y-103634008D01*
X100681680Y-103634724D01*
X100523077Y-103694655D01*
X100518160Y-103698035D01*
X100518157Y-103698036D01*
X100427460Y-103760371D01*
X100383349Y-103790688D01*
X100379381Y-103795142D01*
X100379380Y-103795143D01*
X100373416Y-103801836D01*
X100320588Y-103832705D01*
X100259705Y-103826627D01*
X100214023Y-103785924D01*
X100200500Y-103735977D01*
X100200500Y-96265202D01*
X100219407Y-96207011D01*
X100268907Y-96171047D01*
X100330093Y-96171047D01*
X100368817Y-96196631D01*
X100369471Y-96195904D01*
X100373908Y-96199899D01*
X100377831Y-96204396D01*
X100382713Y-96207827D01*
X100382714Y-96207828D01*
X100455135Y-96258726D01*
X100516547Y-96301887D01*
X100674513Y-96363476D01*
X100680428Y-96364255D01*
X100680429Y-96364255D01*
X100793624Y-96379157D01*
X100803826Y-96380500D01*
X101492516Y-96380500D01*
X101515443Y-96377726D01*
X101612398Y-96365993D01*
X101612401Y-96365992D01*
X101618320Y-96365276D01*
X101776923Y-96305345D01*
X101781840Y-96301965D01*
X101781843Y-96301964D01*
X101911733Y-96212692D01*
X101916651Y-96209312D01*
X102029440Y-96082721D01*
X102032665Y-96076631D01*
X102048734Y-96046281D01*
X102108776Y-95932881D01*
X102150081Y-95768441D01*
X102150969Y-95598895D01*
X102148609Y-95589062D01*
X102112781Y-95439835D01*
X102111388Y-95434032D01*
X102033625Y-95283369D01*
X101939887Y-95175915D01*
X101926092Y-95160101D01*
X101922169Y-95155604D01*
X101783453Y-95058113D01*
X101704470Y-95027318D01*
X101631048Y-94998692D01*
X101631047Y-94998692D01*
X101625487Y-94996524D01*
X101619572Y-94995745D01*
X101619571Y-94995745D01*
X101499387Y-94979923D01*
X101496174Y-94979500D01*
X100807484Y-94979500D01*
X100803989Y-94979923D01*
X100687602Y-94994007D01*
X100687599Y-94994008D01*
X100681680Y-94994724D01*
X100523077Y-95054655D01*
X100518160Y-95058035D01*
X100518157Y-95058036D01*
X100420098Y-95125431D01*
X100383349Y-95150688D01*
X100379381Y-95155142D01*
X100379380Y-95155143D01*
X100373416Y-95161836D01*
X100320588Y-95192705D01*
X100259705Y-95186627D01*
X100214023Y-95145924D01*
X100200500Y-95095977D01*
X100200500Y-93800000D01*
X103969196Y-93800000D01*
X103970415Y-93807696D01*
X103982500Y-93883996D01*
X103990281Y-93933126D01*
X103993817Y-93940065D01*
X103993817Y-93940066D01*
X104036874Y-94024569D01*
X104051472Y-94053220D01*
X104146780Y-94148528D01*
X104153717Y-94152063D01*
X104153719Y-94152064D01*
X104259934Y-94206183D01*
X104266874Y-94209719D01*
X104274568Y-94210938D01*
X104274569Y-94210938D01*
X104392304Y-94229585D01*
X104400000Y-94230804D01*
X104407696Y-94229585D01*
X104525431Y-94210938D01*
X104525432Y-94210938D01*
X104533126Y-94209719D01*
X104540066Y-94206183D01*
X104646281Y-94152064D01*
X104646283Y-94152063D01*
X104653220Y-94148528D01*
X104748528Y-94053220D01*
X104763127Y-94024569D01*
X104806183Y-93940066D01*
X104806183Y-93940065D01*
X104809719Y-93933126D01*
X104817501Y-93883996D01*
X104829585Y-93807696D01*
X104830804Y-93800000D01*
X104821906Y-93743817D01*
X104810938Y-93674569D01*
X104810938Y-93674568D01*
X104809719Y-93666874D01*
X104802104Y-93651929D01*
X104752064Y-93553719D01*
X104752063Y-93553717D01*
X104748528Y-93546780D01*
X104653220Y-93451472D01*
X104646283Y-93447937D01*
X104646281Y-93447936D01*
X104540066Y-93393817D01*
X104540065Y-93393817D01*
X104533126Y-93390281D01*
X104525432Y-93389062D01*
X104525431Y-93389062D01*
X104407696Y-93370415D01*
X104400000Y-93369196D01*
X104392304Y-93370415D01*
X104274569Y-93389062D01*
X104274568Y-93389062D01*
X104266874Y-93390281D01*
X104259935Y-93393817D01*
X104259934Y-93393817D01*
X104153719Y-93447936D01*
X104153717Y-93447937D01*
X104146780Y-93451472D01*
X104051472Y-93546780D01*
X104047937Y-93553717D01*
X104047936Y-93553719D01*
X103997896Y-93651929D01*
X103990281Y-93666874D01*
X103989062Y-93674568D01*
X103989062Y-93674569D01*
X103978094Y-93743817D01*
X103969196Y-93800000D01*
X100200500Y-93800000D01*
X100200500Y-92000000D01*
X100644341Y-92000000D01*
X100664937Y-92235408D01*
X100726097Y-92463663D01*
X100825965Y-92677829D01*
X100961505Y-92871401D01*
X101128599Y-93038495D01*
X101322171Y-93174035D01*
X101536337Y-93273903D01*
X101764592Y-93335063D01*
X101849431Y-93342486D01*
X101938870Y-93350311D01*
X101938878Y-93350311D01*
X101941034Y-93350500D01*
X102058966Y-93350500D01*
X102061122Y-93350311D01*
X102061130Y-93350311D01*
X102150569Y-93342486D01*
X102235408Y-93335063D01*
X102463663Y-93273903D01*
X102677829Y-93174035D01*
X102871401Y-93038495D01*
X103038495Y-92871401D01*
X103088491Y-92800000D01*
X106469196Y-92800000D01*
X106470415Y-92807696D01*
X106486014Y-92906183D01*
X106490281Y-92933126D01*
X106551472Y-93053220D01*
X106646780Y-93148528D01*
X106653717Y-93152063D01*
X106653719Y-93152064D01*
X106759934Y-93206183D01*
X106766874Y-93209719D01*
X106774568Y-93210938D01*
X106774569Y-93210938D01*
X106892304Y-93229585D01*
X106900000Y-93230804D01*
X106907696Y-93229585D01*
X107025431Y-93210938D01*
X107025432Y-93210938D01*
X107033126Y-93209719D01*
X107040066Y-93206183D01*
X107146281Y-93152064D01*
X107146283Y-93152063D01*
X107153220Y-93148528D01*
X107248528Y-93053220D01*
X107309719Y-92933126D01*
X107313987Y-92906183D01*
X107329585Y-92807696D01*
X107330804Y-92800000D01*
X110719196Y-92800000D01*
X110720415Y-92807696D01*
X110736014Y-92906183D01*
X110740281Y-92933126D01*
X110801472Y-93053220D01*
X110896780Y-93148528D01*
X110903717Y-93152063D01*
X110903719Y-93152064D01*
X111009934Y-93206183D01*
X111016874Y-93209719D01*
X111024568Y-93210938D01*
X111024569Y-93210938D01*
X111142304Y-93229585D01*
X111150000Y-93230804D01*
X111157696Y-93229585D01*
X111275431Y-93210938D01*
X111275432Y-93210938D01*
X111283126Y-93209719D01*
X111290066Y-93206183D01*
X111396281Y-93152064D01*
X111396283Y-93152063D01*
X111403220Y-93148528D01*
X111498528Y-93053220D01*
X111559719Y-92933126D01*
X111563987Y-92906183D01*
X111579585Y-92807696D01*
X111580804Y-92800000D01*
X111559719Y-92666874D01*
X111538603Y-92625431D01*
X111502064Y-92553719D01*
X111502063Y-92553717D01*
X111498528Y-92546780D01*
X111403220Y-92451472D01*
X111400331Y-92450000D01*
X112469196Y-92450000D01*
X112470415Y-92457696D01*
X112483705Y-92541604D01*
X112490281Y-92583126D01*
X112493817Y-92590065D01*
X112493817Y-92590066D01*
X112538535Y-92677829D01*
X112551472Y-92703220D01*
X112646780Y-92798528D01*
X112653717Y-92802063D01*
X112653719Y-92802064D01*
X112734104Y-92843022D01*
X112766874Y-92859719D01*
X112774568Y-92860938D01*
X112774569Y-92860938D01*
X112892304Y-92879585D01*
X112900000Y-92880804D01*
X112907696Y-92879585D01*
X113025431Y-92860938D01*
X113025432Y-92860938D01*
X113033126Y-92859719D01*
X113065896Y-92843022D01*
X113146281Y-92802064D01*
X113146283Y-92802063D01*
X113153220Y-92798528D01*
X113248528Y-92703220D01*
X113261466Y-92677829D01*
X113306183Y-92590066D01*
X113306183Y-92590065D01*
X113309719Y-92583126D01*
X113316296Y-92541604D01*
X113322885Y-92500000D01*
X118569196Y-92500000D01*
X118590281Y-92633126D01*
X118593817Y-92640065D01*
X118593817Y-92640066D01*
X118625996Y-92703220D01*
X118651472Y-92753220D01*
X118746780Y-92848528D01*
X118753717Y-92852063D01*
X118753719Y-92852064D01*
X118810125Y-92880804D01*
X118866874Y-92909719D01*
X118874568Y-92910938D01*
X118874569Y-92910938D01*
X118992304Y-92929585D01*
X119000000Y-92930804D01*
X119007696Y-92929585D01*
X119125431Y-92910938D01*
X119125432Y-92910938D01*
X119133126Y-92909719D01*
X119189875Y-92880804D01*
X119246281Y-92852064D01*
X119246283Y-92852063D01*
X119253220Y-92848528D01*
X119348528Y-92753220D01*
X119374005Y-92703220D01*
X119406183Y-92640066D01*
X119406183Y-92640065D01*
X119409719Y-92633126D01*
X119430804Y-92500000D01*
X119421666Y-92442304D01*
X119410938Y-92374569D01*
X119410938Y-92374568D01*
X119409719Y-92366874D01*
X119384243Y-92316874D01*
X119352064Y-92253719D01*
X119352063Y-92253717D01*
X119348528Y-92246780D01*
X119253220Y-92151472D01*
X119246283Y-92147937D01*
X119246281Y-92147936D01*
X119152201Y-92100000D01*
X122769196Y-92100000D01*
X122770415Y-92107696D01*
X122783705Y-92191604D01*
X122790281Y-92233126D01*
X122793817Y-92240065D01*
X122793817Y-92240066D01*
X122836874Y-92324569D01*
X122851472Y-92353220D01*
X122946780Y-92448528D01*
X122953717Y-92452063D01*
X122953719Y-92452064D01*
X123032695Y-92492304D01*
X123066874Y-92509719D01*
X123074568Y-92510938D01*
X123074569Y-92510938D01*
X123192304Y-92529585D01*
X123200000Y-92530804D01*
X123207696Y-92529585D01*
X123325431Y-92510938D01*
X123325432Y-92510938D01*
X123333126Y-92509719D01*
X123367305Y-92492304D01*
X123446281Y-92452064D01*
X123446283Y-92452063D01*
X123453220Y-92448528D01*
X123548528Y-92353220D01*
X123563127Y-92324569D01*
X123609719Y-92233126D01*
X123611123Y-92233841D01*
X123641809Y-92191605D01*
X123699999Y-92172697D01*
X123758190Y-92191604D01*
X123788877Y-92233841D01*
X123790281Y-92233126D01*
X123836874Y-92324569D01*
X123851472Y-92353220D01*
X123946780Y-92448528D01*
X123953717Y-92452063D01*
X123953719Y-92452064D01*
X124032695Y-92492304D01*
X124066874Y-92509719D01*
X124074568Y-92510938D01*
X124074569Y-92510938D01*
X124192304Y-92529585D01*
X124200000Y-92530804D01*
X124207696Y-92529585D01*
X124325431Y-92510938D01*
X124325432Y-92510938D01*
X124333126Y-92509719D01*
X124367305Y-92492304D01*
X124446281Y-92452064D01*
X124446283Y-92452063D01*
X124453220Y-92448528D01*
X124548528Y-92353220D01*
X124563127Y-92324569D01*
X124606183Y-92240066D01*
X124606183Y-92240065D01*
X124609719Y-92233126D01*
X124616296Y-92191604D01*
X124629585Y-92107696D01*
X124630804Y-92100000D01*
X131019196Y-92100000D01*
X131020415Y-92107696D01*
X131033705Y-92191604D01*
X131040281Y-92233126D01*
X131043817Y-92240065D01*
X131043817Y-92240066D01*
X131086874Y-92324569D01*
X131101472Y-92353220D01*
X131196780Y-92448528D01*
X131203717Y-92452063D01*
X131203719Y-92452064D01*
X131282695Y-92492304D01*
X131316874Y-92509719D01*
X131324568Y-92510938D01*
X131324569Y-92510938D01*
X131442304Y-92529585D01*
X131450000Y-92530804D01*
X131457696Y-92529585D01*
X131575431Y-92510938D01*
X131575432Y-92510938D01*
X131583126Y-92509719D01*
X131617305Y-92492304D01*
X131696281Y-92452064D01*
X131696283Y-92452063D01*
X131700331Y-92450000D01*
X132019196Y-92450000D01*
X132020415Y-92457696D01*
X132033705Y-92541604D01*
X132040281Y-92583126D01*
X132043817Y-92590065D01*
X132043817Y-92590066D01*
X132088535Y-92677829D01*
X132101472Y-92703220D01*
X132196780Y-92798528D01*
X132203717Y-92802063D01*
X132203719Y-92802064D01*
X132284104Y-92843022D01*
X132316874Y-92859719D01*
X132324568Y-92860938D01*
X132324569Y-92860938D01*
X132442304Y-92879585D01*
X132450000Y-92880804D01*
X132457696Y-92879585D01*
X132575431Y-92860938D01*
X132575432Y-92860938D01*
X132583126Y-92859719D01*
X132615896Y-92843022D01*
X132696281Y-92802064D01*
X132696283Y-92802063D01*
X132703220Y-92798528D01*
X132798528Y-92703220D01*
X132811466Y-92677829D01*
X132859719Y-92583126D01*
X132861123Y-92583841D01*
X132891809Y-92541605D01*
X132949999Y-92522697D01*
X133008190Y-92541604D01*
X133038877Y-92583841D01*
X133040281Y-92583126D01*
X133088535Y-92677829D01*
X133101472Y-92703220D01*
X133196780Y-92798528D01*
X133203717Y-92802063D01*
X133203719Y-92802064D01*
X133284104Y-92843022D01*
X133316874Y-92859719D01*
X133324568Y-92860938D01*
X133324569Y-92860938D01*
X133442304Y-92879585D01*
X133450000Y-92880804D01*
X133457696Y-92879585D01*
X133575431Y-92860938D01*
X133575432Y-92860938D01*
X133583126Y-92859719D01*
X133615896Y-92843022D01*
X133696281Y-92802064D01*
X133696283Y-92802063D01*
X133703220Y-92798528D01*
X133798528Y-92703220D01*
X133811466Y-92677829D01*
X133859719Y-92583126D01*
X133861123Y-92583841D01*
X133891809Y-92541605D01*
X133949999Y-92522697D01*
X134008190Y-92541604D01*
X134038877Y-92583841D01*
X134040281Y-92583126D01*
X134088535Y-92677829D01*
X134101472Y-92703220D01*
X134196780Y-92798528D01*
X134203717Y-92802063D01*
X134203719Y-92802064D01*
X134284104Y-92843022D01*
X134316874Y-92859719D01*
X134324568Y-92860938D01*
X134324569Y-92860938D01*
X134442304Y-92879585D01*
X134450000Y-92880804D01*
X134457696Y-92879585D01*
X134575431Y-92860938D01*
X134575432Y-92860938D01*
X134583126Y-92859719D01*
X134615896Y-92843022D01*
X134696281Y-92802064D01*
X134696283Y-92802063D01*
X134703220Y-92798528D01*
X134798528Y-92703220D01*
X134811466Y-92677829D01*
X134859719Y-92583126D01*
X134861123Y-92583841D01*
X134891809Y-92541605D01*
X134949999Y-92522697D01*
X135008190Y-92541604D01*
X135038877Y-92583841D01*
X135040281Y-92583126D01*
X135088535Y-92677829D01*
X135101472Y-92703220D01*
X135196780Y-92798528D01*
X135203717Y-92802063D01*
X135203719Y-92802064D01*
X135284104Y-92843022D01*
X135316874Y-92859719D01*
X135324568Y-92860938D01*
X135324569Y-92860938D01*
X135442304Y-92879585D01*
X135450000Y-92880804D01*
X135457696Y-92879585D01*
X135575431Y-92860938D01*
X135575432Y-92860938D01*
X135583126Y-92859719D01*
X135615896Y-92843022D01*
X135696281Y-92802064D01*
X135696283Y-92802063D01*
X135703220Y-92798528D01*
X135798528Y-92703220D01*
X135811466Y-92677829D01*
X135856183Y-92590066D01*
X135856183Y-92590065D01*
X135859719Y-92583126D01*
X135866296Y-92541604D01*
X135879585Y-92457696D01*
X135880804Y-92450000D01*
X135871906Y-92393817D01*
X135860938Y-92324569D01*
X135860938Y-92324568D01*
X135859719Y-92316874D01*
X135847566Y-92293022D01*
X135802064Y-92203719D01*
X135802063Y-92203717D01*
X135798528Y-92196780D01*
X135703220Y-92101472D01*
X135700331Y-92100000D01*
X140269196Y-92100000D01*
X140270415Y-92107696D01*
X140283705Y-92191604D01*
X140290281Y-92233126D01*
X140293817Y-92240065D01*
X140293817Y-92240066D01*
X140336874Y-92324569D01*
X140351472Y-92353220D01*
X140446780Y-92448528D01*
X140453717Y-92452063D01*
X140453719Y-92452064D01*
X140532695Y-92492304D01*
X140566874Y-92509719D01*
X140574568Y-92510938D01*
X140574569Y-92510938D01*
X140692304Y-92529585D01*
X140700000Y-92530804D01*
X140707696Y-92529585D01*
X140825431Y-92510938D01*
X140825432Y-92510938D01*
X140833126Y-92509719D01*
X140867305Y-92492304D01*
X140946281Y-92452064D01*
X140946283Y-92452063D01*
X140950331Y-92450000D01*
X141269196Y-92450000D01*
X141270415Y-92457696D01*
X141283705Y-92541604D01*
X141290281Y-92583126D01*
X141293817Y-92590065D01*
X141293817Y-92590066D01*
X141338535Y-92677829D01*
X141351472Y-92703220D01*
X141446780Y-92798528D01*
X141453717Y-92802063D01*
X141453719Y-92802064D01*
X141534104Y-92843022D01*
X141566874Y-92859719D01*
X141574568Y-92860938D01*
X141574569Y-92860938D01*
X141692304Y-92879585D01*
X141700000Y-92880804D01*
X141707696Y-92879585D01*
X141825431Y-92860938D01*
X141825432Y-92860938D01*
X141833126Y-92859719D01*
X141865896Y-92843022D01*
X141946281Y-92802064D01*
X141946283Y-92802063D01*
X141953220Y-92798528D01*
X142048528Y-92703220D01*
X142061466Y-92677829D01*
X142109719Y-92583126D01*
X142111123Y-92583841D01*
X142141809Y-92541605D01*
X142199999Y-92522697D01*
X142258190Y-92541604D01*
X142288877Y-92583841D01*
X142290281Y-92583126D01*
X142338535Y-92677829D01*
X142351472Y-92703220D01*
X142446780Y-92798528D01*
X142453717Y-92802063D01*
X142453719Y-92802064D01*
X142534104Y-92843022D01*
X142566874Y-92859719D01*
X142574568Y-92860938D01*
X142574569Y-92860938D01*
X142692304Y-92879585D01*
X142700000Y-92880804D01*
X142707696Y-92879585D01*
X142825431Y-92860938D01*
X142825432Y-92860938D01*
X142833126Y-92859719D01*
X142865896Y-92843022D01*
X142946281Y-92802064D01*
X142946283Y-92802063D01*
X142953220Y-92798528D01*
X143048528Y-92703220D01*
X143061466Y-92677829D01*
X143106183Y-92590066D01*
X143106183Y-92590065D01*
X143109719Y-92583126D01*
X143116296Y-92541604D01*
X143129585Y-92457696D01*
X143130804Y-92450000D01*
X143121906Y-92393817D01*
X143110938Y-92324569D01*
X143110938Y-92324568D01*
X143109719Y-92316874D01*
X143097566Y-92293022D01*
X143052064Y-92203719D01*
X143052063Y-92203717D01*
X143048528Y-92196780D01*
X142953220Y-92101472D01*
X142946283Y-92097937D01*
X142946281Y-92097936D01*
X142840066Y-92043817D01*
X142840065Y-92043817D01*
X142833126Y-92040281D01*
X142825432Y-92039062D01*
X142825431Y-92039062D01*
X142707696Y-92020415D01*
X142700000Y-92019196D01*
X142692304Y-92020415D01*
X142574569Y-92039062D01*
X142574568Y-92039062D01*
X142566874Y-92040281D01*
X142559935Y-92043817D01*
X142559934Y-92043817D01*
X142453719Y-92097936D01*
X142453717Y-92097937D01*
X142446780Y-92101472D01*
X142351472Y-92196780D01*
X142347937Y-92203717D01*
X142347936Y-92203719D01*
X142302434Y-92293022D01*
X142290281Y-92316874D01*
X142288877Y-92316159D01*
X142258191Y-92358395D01*
X142200001Y-92377303D01*
X142141810Y-92358396D01*
X142111123Y-92316159D01*
X142109719Y-92316874D01*
X142052064Y-92203719D01*
X142052063Y-92203717D01*
X142048528Y-92196780D01*
X141953220Y-92101472D01*
X141946283Y-92097937D01*
X141946281Y-92097936D01*
X141840066Y-92043817D01*
X141840065Y-92043817D01*
X141833126Y-92040281D01*
X141825432Y-92039062D01*
X141825431Y-92039062D01*
X141707696Y-92020415D01*
X141700000Y-92019196D01*
X141692304Y-92020415D01*
X141574569Y-92039062D01*
X141574568Y-92039062D01*
X141566874Y-92040281D01*
X141559935Y-92043817D01*
X141559934Y-92043817D01*
X141453719Y-92097936D01*
X141453717Y-92097937D01*
X141446780Y-92101472D01*
X141351472Y-92196780D01*
X141347937Y-92203717D01*
X141347936Y-92203719D01*
X141302434Y-92293022D01*
X141290281Y-92316874D01*
X141289062Y-92324568D01*
X141289062Y-92324569D01*
X141278094Y-92393817D01*
X141269196Y-92450000D01*
X140950331Y-92450000D01*
X140953220Y-92448528D01*
X141048528Y-92353220D01*
X141063127Y-92324569D01*
X141106183Y-92240066D01*
X141106183Y-92240065D01*
X141109719Y-92233126D01*
X141116296Y-92191604D01*
X141129585Y-92107696D01*
X141130804Y-92100000D01*
X141121906Y-92043817D01*
X141114966Y-92000000D01*
X146644341Y-92000000D01*
X146664937Y-92235408D01*
X146726097Y-92463663D01*
X146825965Y-92677829D01*
X146961505Y-92871401D01*
X147128599Y-93038495D01*
X147322171Y-93174035D01*
X147536337Y-93273903D01*
X147764592Y-93335063D01*
X147849431Y-93342486D01*
X147938870Y-93350311D01*
X147938878Y-93350311D01*
X147941034Y-93350500D01*
X148058966Y-93350500D01*
X148061122Y-93350311D01*
X148061130Y-93350311D01*
X148150569Y-93342486D01*
X148235408Y-93335063D01*
X148463663Y-93273903D01*
X148677829Y-93174035D01*
X148871401Y-93038495D01*
X149038495Y-92871401D01*
X149126105Y-92746281D01*
X149171553Y-92681375D01*
X149171554Y-92681373D01*
X149174035Y-92677830D01*
X149273903Y-92463663D01*
X149335063Y-92235408D01*
X149355659Y-92000000D01*
X149335063Y-91764592D01*
X149273903Y-91536337D01*
X149174035Y-91322171D01*
X149038495Y-91128599D01*
X148871401Y-90961505D01*
X148717482Y-90853730D01*
X148681374Y-90828447D01*
X148681372Y-90828446D01*
X148677829Y-90825965D01*
X148463663Y-90726097D01*
X148235408Y-90664937D01*
X148150569Y-90657514D01*
X148061130Y-90649689D01*
X148061122Y-90649689D01*
X148058966Y-90649500D01*
X147941034Y-90649500D01*
X147938878Y-90649689D01*
X147938870Y-90649689D01*
X147849431Y-90657514D01*
X147764592Y-90664937D01*
X147536337Y-90726097D01*
X147322171Y-90825965D01*
X147318628Y-90828446D01*
X147318626Y-90828447D01*
X147282518Y-90853730D01*
X147128599Y-90961505D01*
X146961505Y-91128599D01*
X146959026Y-91132140D01*
X146828447Y-91318625D01*
X146828446Y-91318627D01*
X146825965Y-91322170D01*
X146726097Y-91536337D01*
X146664937Y-91764592D01*
X146644341Y-92000000D01*
X141114966Y-92000000D01*
X141110938Y-91974569D01*
X141110938Y-91974568D01*
X141109719Y-91966874D01*
X141105043Y-91957696D01*
X141052064Y-91853719D01*
X141052063Y-91853717D01*
X141048528Y-91846780D01*
X140953220Y-91751472D01*
X140946283Y-91747937D01*
X140946281Y-91747936D01*
X140840066Y-91693817D01*
X140840065Y-91693817D01*
X140833126Y-91690281D01*
X140825432Y-91689062D01*
X140825431Y-91689062D01*
X140707696Y-91670415D01*
X140700000Y-91669196D01*
X140692304Y-91670415D01*
X140574569Y-91689062D01*
X140574568Y-91689062D01*
X140566874Y-91690281D01*
X140559935Y-91693817D01*
X140559934Y-91693817D01*
X140453719Y-91747936D01*
X140453717Y-91747937D01*
X140446780Y-91751472D01*
X140351472Y-91846780D01*
X140347937Y-91853717D01*
X140347936Y-91853719D01*
X140294957Y-91957696D01*
X140290281Y-91966874D01*
X140289062Y-91974568D01*
X140289062Y-91974569D01*
X140278094Y-92043817D01*
X140269196Y-92100000D01*
X135700331Y-92100000D01*
X135696283Y-92097937D01*
X135696281Y-92097936D01*
X135590066Y-92043817D01*
X135590065Y-92043817D01*
X135583126Y-92040281D01*
X135575432Y-92039062D01*
X135575431Y-92039062D01*
X135457696Y-92020415D01*
X135450000Y-92019196D01*
X135442304Y-92020415D01*
X135324569Y-92039062D01*
X135324568Y-92039062D01*
X135316874Y-92040281D01*
X135309935Y-92043817D01*
X135309934Y-92043817D01*
X135203719Y-92097936D01*
X135203717Y-92097937D01*
X135196780Y-92101472D01*
X135101472Y-92196780D01*
X135097937Y-92203717D01*
X135097936Y-92203719D01*
X135052434Y-92293022D01*
X135040281Y-92316874D01*
X135038877Y-92316159D01*
X135008191Y-92358395D01*
X134950001Y-92377303D01*
X134891810Y-92358396D01*
X134861123Y-92316159D01*
X134859719Y-92316874D01*
X134802064Y-92203719D01*
X134802063Y-92203717D01*
X134798528Y-92196780D01*
X134703220Y-92101472D01*
X134696283Y-92097937D01*
X134696281Y-92097936D01*
X134590066Y-92043817D01*
X134590065Y-92043817D01*
X134583126Y-92040281D01*
X134575432Y-92039062D01*
X134575431Y-92039062D01*
X134457696Y-92020415D01*
X134450000Y-92019196D01*
X134442304Y-92020415D01*
X134324569Y-92039062D01*
X134324568Y-92039062D01*
X134316874Y-92040281D01*
X134309935Y-92043817D01*
X134309934Y-92043817D01*
X134203719Y-92097936D01*
X134203717Y-92097937D01*
X134196780Y-92101472D01*
X134101472Y-92196780D01*
X134097937Y-92203717D01*
X134097936Y-92203719D01*
X134052434Y-92293022D01*
X134040281Y-92316874D01*
X134038877Y-92316159D01*
X134008191Y-92358395D01*
X133950001Y-92377303D01*
X133891810Y-92358396D01*
X133861123Y-92316159D01*
X133859719Y-92316874D01*
X133802064Y-92203719D01*
X133802063Y-92203717D01*
X133798528Y-92196780D01*
X133703220Y-92101472D01*
X133696283Y-92097937D01*
X133696281Y-92097936D01*
X133590066Y-92043817D01*
X133590065Y-92043817D01*
X133583126Y-92040281D01*
X133575432Y-92039062D01*
X133575431Y-92039062D01*
X133457696Y-92020415D01*
X133450000Y-92019196D01*
X133442304Y-92020415D01*
X133324569Y-92039062D01*
X133324568Y-92039062D01*
X133316874Y-92040281D01*
X133309935Y-92043817D01*
X133309934Y-92043817D01*
X133203719Y-92097936D01*
X133203717Y-92097937D01*
X133196780Y-92101472D01*
X133101472Y-92196780D01*
X133097937Y-92203717D01*
X133097936Y-92203719D01*
X133052434Y-92293022D01*
X133040281Y-92316874D01*
X133038877Y-92316159D01*
X133008191Y-92358395D01*
X132950001Y-92377303D01*
X132891810Y-92358396D01*
X132861123Y-92316159D01*
X132859719Y-92316874D01*
X132802064Y-92203719D01*
X132802063Y-92203717D01*
X132798528Y-92196780D01*
X132703220Y-92101472D01*
X132696283Y-92097937D01*
X132696281Y-92097936D01*
X132590066Y-92043817D01*
X132590065Y-92043817D01*
X132583126Y-92040281D01*
X132575432Y-92039062D01*
X132575431Y-92039062D01*
X132457696Y-92020415D01*
X132450000Y-92019196D01*
X132442304Y-92020415D01*
X132324569Y-92039062D01*
X132324568Y-92039062D01*
X132316874Y-92040281D01*
X132309935Y-92043817D01*
X132309934Y-92043817D01*
X132203719Y-92097936D01*
X132203717Y-92097937D01*
X132196780Y-92101472D01*
X132101472Y-92196780D01*
X132097937Y-92203717D01*
X132097936Y-92203719D01*
X132052434Y-92293022D01*
X132040281Y-92316874D01*
X132039062Y-92324568D01*
X132039062Y-92324569D01*
X132028094Y-92393817D01*
X132019196Y-92450000D01*
X131700331Y-92450000D01*
X131703220Y-92448528D01*
X131798528Y-92353220D01*
X131813127Y-92324569D01*
X131856183Y-92240066D01*
X131856183Y-92240065D01*
X131859719Y-92233126D01*
X131866296Y-92191604D01*
X131879585Y-92107696D01*
X131880804Y-92100000D01*
X131871906Y-92043817D01*
X131860938Y-91974569D01*
X131860938Y-91974568D01*
X131859719Y-91966874D01*
X131855043Y-91957696D01*
X131802064Y-91853719D01*
X131802063Y-91853717D01*
X131798528Y-91846780D01*
X131703220Y-91751472D01*
X131696283Y-91747937D01*
X131696281Y-91747936D01*
X131590066Y-91693817D01*
X131590065Y-91693817D01*
X131583126Y-91690281D01*
X131575432Y-91689062D01*
X131575431Y-91689062D01*
X131457696Y-91670415D01*
X131450000Y-91669196D01*
X131442304Y-91670415D01*
X131324569Y-91689062D01*
X131324568Y-91689062D01*
X131316874Y-91690281D01*
X131309935Y-91693817D01*
X131309934Y-91693817D01*
X131203719Y-91747936D01*
X131203717Y-91747937D01*
X131196780Y-91751472D01*
X131101472Y-91846780D01*
X131097937Y-91853717D01*
X131097936Y-91853719D01*
X131044957Y-91957696D01*
X131040281Y-91966874D01*
X131039062Y-91974568D01*
X131039062Y-91974569D01*
X131028094Y-92043817D01*
X131019196Y-92100000D01*
X124630804Y-92100000D01*
X124621906Y-92043817D01*
X124610938Y-91974569D01*
X124610938Y-91974568D01*
X124609719Y-91966874D01*
X124605043Y-91957696D01*
X124552064Y-91853719D01*
X124552063Y-91853717D01*
X124548528Y-91846780D01*
X124453220Y-91751472D01*
X124446283Y-91747937D01*
X124446281Y-91747936D01*
X124340066Y-91693817D01*
X124340065Y-91693817D01*
X124333126Y-91690281D01*
X124325432Y-91689062D01*
X124325431Y-91689062D01*
X124207696Y-91670415D01*
X124200000Y-91669196D01*
X124192304Y-91670415D01*
X124074569Y-91689062D01*
X124074568Y-91689062D01*
X124066874Y-91690281D01*
X124059935Y-91693817D01*
X124059934Y-91693817D01*
X123953719Y-91747936D01*
X123953717Y-91747937D01*
X123946780Y-91751472D01*
X123851472Y-91846780D01*
X123847937Y-91853717D01*
X123847936Y-91853719D01*
X123810589Y-91927017D01*
X123790281Y-91966874D01*
X123788877Y-91966159D01*
X123758191Y-92008395D01*
X123700001Y-92027303D01*
X123641810Y-92008396D01*
X123611123Y-91966159D01*
X123609719Y-91966874D01*
X123552064Y-91853719D01*
X123552063Y-91853717D01*
X123548528Y-91846780D01*
X123453220Y-91751472D01*
X123446283Y-91747937D01*
X123446281Y-91747936D01*
X123340066Y-91693817D01*
X123340065Y-91693817D01*
X123333126Y-91690281D01*
X123325432Y-91689062D01*
X123325431Y-91689062D01*
X123207696Y-91670415D01*
X123200000Y-91669196D01*
X123192304Y-91670415D01*
X123074569Y-91689062D01*
X123074568Y-91689062D01*
X123066874Y-91690281D01*
X123059935Y-91693817D01*
X123059934Y-91693817D01*
X122953719Y-91747936D01*
X122953717Y-91747937D01*
X122946780Y-91751472D01*
X122851472Y-91846780D01*
X122847937Y-91853717D01*
X122847936Y-91853719D01*
X122794957Y-91957696D01*
X122790281Y-91966874D01*
X122789062Y-91974568D01*
X122789062Y-91974569D01*
X122778094Y-92043817D01*
X122769196Y-92100000D01*
X119152201Y-92100000D01*
X119140066Y-92093817D01*
X119140065Y-92093817D01*
X119133126Y-92090281D01*
X119125432Y-92089062D01*
X119125431Y-92089062D01*
X119007696Y-92070415D01*
X119000000Y-92069196D01*
X118992304Y-92070415D01*
X118874569Y-92089062D01*
X118874568Y-92089062D01*
X118866874Y-92090281D01*
X118859935Y-92093817D01*
X118859934Y-92093817D01*
X118753719Y-92147936D01*
X118753717Y-92147937D01*
X118746780Y-92151472D01*
X118651472Y-92246780D01*
X118647937Y-92253717D01*
X118647936Y-92253719D01*
X118615757Y-92316874D01*
X118590281Y-92366874D01*
X118589062Y-92374568D01*
X118589062Y-92374569D01*
X118578334Y-92442304D01*
X118569196Y-92500000D01*
X113322885Y-92500000D01*
X113329585Y-92457696D01*
X113330804Y-92450000D01*
X113321906Y-92393817D01*
X113310938Y-92324569D01*
X113310938Y-92324568D01*
X113309719Y-92316874D01*
X113297566Y-92293022D01*
X113252064Y-92203719D01*
X113252063Y-92203717D01*
X113248528Y-92196780D01*
X113153220Y-92101472D01*
X113146283Y-92097937D01*
X113146281Y-92097936D01*
X113040066Y-92043817D01*
X113040065Y-92043817D01*
X113033126Y-92040281D01*
X113025432Y-92039062D01*
X113025431Y-92039062D01*
X112907696Y-92020415D01*
X112900000Y-92019196D01*
X112892304Y-92020415D01*
X112774569Y-92039062D01*
X112774568Y-92039062D01*
X112766874Y-92040281D01*
X112759935Y-92043817D01*
X112759934Y-92043817D01*
X112653719Y-92097936D01*
X112653717Y-92097937D01*
X112646780Y-92101472D01*
X112551472Y-92196780D01*
X112547937Y-92203717D01*
X112547936Y-92203719D01*
X112502434Y-92293022D01*
X112490281Y-92316874D01*
X112489062Y-92324568D01*
X112489062Y-92324569D01*
X112478094Y-92393817D01*
X112469196Y-92450000D01*
X111400331Y-92450000D01*
X111396283Y-92447937D01*
X111396281Y-92447936D01*
X111290066Y-92393817D01*
X111290065Y-92393817D01*
X111283126Y-92390281D01*
X111275432Y-92389062D01*
X111275431Y-92389062D01*
X111157696Y-92370415D01*
X111150000Y-92369196D01*
X111142304Y-92370415D01*
X111024569Y-92389062D01*
X111024568Y-92389062D01*
X111016874Y-92390281D01*
X111009935Y-92393817D01*
X111009934Y-92393817D01*
X110903719Y-92447936D01*
X110903717Y-92447937D01*
X110896780Y-92451472D01*
X110801472Y-92546780D01*
X110797937Y-92553717D01*
X110797936Y-92553719D01*
X110761397Y-92625431D01*
X110740281Y-92666874D01*
X110719196Y-92800000D01*
X107330804Y-92800000D01*
X107309719Y-92666874D01*
X107288603Y-92625431D01*
X107252064Y-92553719D01*
X107252063Y-92553717D01*
X107248528Y-92546780D01*
X107153220Y-92451472D01*
X107146283Y-92447937D01*
X107146281Y-92447936D01*
X107040066Y-92393817D01*
X107040065Y-92393817D01*
X107033126Y-92390281D01*
X107025432Y-92389062D01*
X107025431Y-92389062D01*
X106907696Y-92370415D01*
X106900000Y-92369196D01*
X106892304Y-92370415D01*
X106774569Y-92389062D01*
X106774568Y-92389062D01*
X106766874Y-92390281D01*
X106759935Y-92393817D01*
X106759934Y-92393817D01*
X106653719Y-92447936D01*
X106653717Y-92447937D01*
X106646780Y-92451472D01*
X106551472Y-92546780D01*
X106547937Y-92553717D01*
X106547936Y-92553719D01*
X106511397Y-92625431D01*
X106490281Y-92666874D01*
X106469196Y-92800000D01*
X103088491Y-92800000D01*
X103126105Y-92746281D01*
X103171553Y-92681375D01*
X103171554Y-92681373D01*
X103174035Y-92677830D01*
X103273903Y-92463663D01*
X103335063Y-92235408D01*
X103355659Y-92000000D01*
X103335063Y-91764592D01*
X103273903Y-91536337D01*
X103210328Y-91400000D01*
X106244318Y-91400000D01*
X106264956Y-91556762D01*
X106325464Y-91702841D01*
X106421718Y-91828282D01*
X106547159Y-91924536D01*
X106693238Y-91985044D01*
X106810639Y-92000500D01*
X106889361Y-92000500D01*
X107006762Y-91985044D01*
X107152841Y-91924536D01*
X107278282Y-91828282D01*
X107374536Y-91702841D01*
X107435044Y-91556762D01*
X107455682Y-91400000D01*
X107944318Y-91400000D01*
X107964956Y-91556762D01*
X108025464Y-91702841D01*
X108121718Y-91828282D01*
X108247159Y-91924536D01*
X108393238Y-91985044D01*
X108510639Y-92000500D01*
X108589361Y-92000500D01*
X108706762Y-91985044D01*
X108852841Y-91924536D01*
X108949978Y-91850000D01*
X114169196Y-91850000D01*
X114170415Y-91857696D01*
X114188926Y-91974569D01*
X114190281Y-91983126D01*
X114193817Y-91990065D01*
X114193817Y-91990066D01*
X114244770Y-92090066D01*
X114251472Y-92103220D01*
X114346780Y-92198528D01*
X114353717Y-92202063D01*
X114353719Y-92202064D01*
X114455098Y-92253719D01*
X114466874Y-92259719D01*
X114474568Y-92260938D01*
X114474569Y-92260938D01*
X114592304Y-92279585D01*
X114600000Y-92280804D01*
X114607696Y-92279585D01*
X114725431Y-92260938D01*
X114725432Y-92260938D01*
X114733126Y-92259719D01*
X114744902Y-92253719D01*
X114846281Y-92202064D01*
X114846283Y-92202063D01*
X114853220Y-92198528D01*
X114948528Y-92103220D01*
X114955231Y-92090066D01*
X114998619Y-92004910D01*
X115009719Y-91983126D01*
X115010224Y-91979935D01*
X115044830Y-91932301D01*
X115103021Y-91913392D01*
X115146905Y-91925149D01*
X115147159Y-91924536D01*
X115153146Y-91927016D01*
X115153148Y-91927017D01*
X115249372Y-91966874D01*
X115293238Y-91985044D01*
X115410639Y-92000500D01*
X115489361Y-92000500D01*
X115606762Y-91985044D01*
X115752841Y-91924536D01*
X115878282Y-91828282D01*
X115974536Y-91702841D01*
X116035044Y-91556762D01*
X116055682Y-91400000D01*
X116544318Y-91400000D01*
X116564956Y-91556762D01*
X116625464Y-91702841D01*
X116721718Y-91828282D01*
X116847159Y-91924536D01*
X116993238Y-91985044D01*
X117110639Y-92000500D01*
X117189361Y-92000500D01*
X117306762Y-91985044D01*
X117350628Y-91966874D01*
X117442226Y-91928933D01*
X117503223Y-91924132D01*
X117555392Y-91956102D01*
X117577893Y-92004910D01*
X117590281Y-92083126D01*
X117593817Y-92090065D01*
X117593817Y-92090066D01*
X117646276Y-92193022D01*
X117651472Y-92203220D01*
X117746780Y-92298528D01*
X117753717Y-92302063D01*
X117753719Y-92302064D01*
X117797888Y-92324569D01*
X117866874Y-92359719D01*
X117874568Y-92360938D01*
X117874569Y-92360938D01*
X117934406Y-92370415D01*
X117977896Y-92377303D01*
X117992304Y-92379585D01*
X118000000Y-92380804D01*
X118007696Y-92379585D01*
X118022105Y-92377303D01*
X118065594Y-92370415D01*
X118125431Y-92360938D01*
X118125432Y-92360938D01*
X118133126Y-92359719D01*
X118202112Y-92324569D01*
X118246281Y-92302064D01*
X118246283Y-92302063D01*
X118253220Y-92298528D01*
X118348528Y-92203220D01*
X118353725Y-92193022D01*
X118406183Y-92090066D01*
X118406183Y-92090065D01*
X118409719Y-92083126D01*
X118411926Y-92069196D01*
X118429585Y-91957696D01*
X118430804Y-91950000D01*
X118409719Y-91816874D01*
X118403305Y-91804285D01*
X118352064Y-91703719D01*
X118352063Y-91703717D01*
X118348528Y-91696780D01*
X118253220Y-91601472D01*
X118246283Y-91597937D01*
X118246281Y-91597936D01*
X118140066Y-91543817D01*
X118140065Y-91543817D01*
X118133126Y-91540281D01*
X118125432Y-91539062D01*
X118125431Y-91539062D01*
X118007696Y-91520415D01*
X118000000Y-91519196D01*
X117866874Y-91540281D01*
X117866377Y-91537145D01*
X117819286Y-91537146D01*
X117769785Y-91501184D01*
X117750876Y-91442994D01*
X117751723Y-91430068D01*
X117753155Y-91419196D01*
X117755682Y-91400000D01*
X117735044Y-91243238D01*
X117674536Y-91097159D01*
X117578282Y-90971718D01*
X117452841Y-90875464D01*
X117306762Y-90814956D01*
X117189361Y-90799500D01*
X117110639Y-90799500D01*
X116993238Y-90814956D01*
X116847159Y-90875464D01*
X116721718Y-90971718D01*
X116625464Y-91097159D01*
X116564956Y-91243238D01*
X116544318Y-91400000D01*
X116055682Y-91400000D01*
X116035044Y-91243238D01*
X115974536Y-91097159D01*
X115878282Y-90971718D01*
X115752841Y-90875464D01*
X115606762Y-90814956D01*
X115489361Y-90799500D01*
X115410639Y-90799500D01*
X115293238Y-90814956D01*
X115147159Y-90875464D01*
X115021718Y-90971718D01*
X114925464Y-91097159D01*
X114864956Y-91243238D01*
X114864109Y-91249674D01*
X114850046Y-91356488D01*
X114823705Y-91411713D01*
X114769934Y-91440908D01*
X114733406Y-91438512D01*
X114733126Y-91440281D01*
X114600000Y-91419196D01*
X114592304Y-91420415D01*
X114474569Y-91439062D01*
X114474568Y-91439062D01*
X114466874Y-91440281D01*
X114459935Y-91443817D01*
X114459934Y-91443817D01*
X114353719Y-91497936D01*
X114353717Y-91497937D01*
X114346780Y-91501472D01*
X114251472Y-91596780D01*
X114247937Y-91603717D01*
X114247936Y-91603719D01*
X114222765Y-91653121D01*
X114190281Y-91716874D01*
X114189062Y-91724568D01*
X114189062Y-91724569D01*
X114175542Y-91809934D01*
X114169196Y-91850000D01*
X108949978Y-91850000D01*
X108978282Y-91828282D01*
X109074536Y-91702841D01*
X109135044Y-91556762D01*
X109155682Y-91400000D01*
X109135044Y-91243238D01*
X109074536Y-91097159D01*
X108978282Y-90971718D01*
X108852841Y-90875464D01*
X108706762Y-90814956D01*
X108589361Y-90799500D01*
X108510639Y-90799500D01*
X108393238Y-90814956D01*
X108247159Y-90875464D01*
X108121718Y-90971718D01*
X108025464Y-91097159D01*
X107964956Y-91243238D01*
X107944318Y-91400000D01*
X107455682Y-91400000D01*
X107435044Y-91243238D01*
X107374536Y-91097159D01*
X107278282Y-90971718D01*
X107152841Y-90875464D01*
X107006762Y-90814956D01*
X106889361Y-90799500D01*
X106810639Y-90799500D01*
X106693238Y-90814956D01*
X106547159Y-90875464D01*
X106421718Y-90971718D01*
X106325464Y-91097159D01*
X106264956Y-91243238D01*
X106244318Y-91400000D01*
X103210328Y-91400000D01*
X103174035Y-91322171D01*
X103038495Y-91128599D01*
X102871401Y-90961505D01*
X102717482Y-90853730D01*
X102681374Y-90828447D01*
X102681372Y-90828446D01*
X102677829Y-90825965D01*
X102463663Y-90726097D01*
X102235408Y-90664937D01*
X102150569Y-90657514D01*
X102061130Y-90649689D01*
X102061122Y-90649689D01*
X102058966Y-90649500D01*
X101941034Y-90649500D01*
X101938878Y-90649689D01*
X101938870Y-90649689D01*
X101849431Y-90657514D01*
X101764592Y-90664937D01*
X101536337Y-90726097D01*
X101322171Y-90825965D01*
X101318628Y-90828446D01*
X101318626Y-90828447D01*
X101282518Y-90853730D01*
X101128599Y-90961505D01*
X100961505Y-91128599D01*
X100959026Y-91132140D01*
X100828447Y-91318625D01*
X100828446Y-91318627D01*
X100825965Y-91322170D01*
X100726097Y-91536337D01*
X100664937Y-91764592D01*
X100644341Y-92000000D01*
X100200500Y-92000000D01*
X100200500Y-91034281D01*
X100203057Y-91011926D01*
X100203141Y-91011565D01*
X100205655Y-91000718D01*
X100205656Y-91000000D01*
X100204413Y-90994551D01*
X100203791Y-90988993D01*
X100204964Y-90988862D01*
X100203633Y-90968190D01*
X100212376Y-90879415D01*
X100214906Y-90853728D01*
X100218691Y-90834699D01*
X100258528Y-90703373D01*
X100265955Y-90685445D01*
X100330643Y-90564423D01*
X100341424Y-90548287D01*
X100360887Y-90524571D01*
X100428485Y-90442202D01*
X100442202Y-90428485D01*
X100548287Y-90341424D01*
X100564423Y-90330643D01*
X100685445Y-90265955D01*
X100703374Y-90258528D01*
X100834699Y-90218691D01*
X100853728Y-90214906D01*
X100968363Y-90203616D01*
X100978239Y-90203139D01*
X100988774Y-90203157D01*
X100999641Y-90205656D01*
X101011641Y-90202941D01*
X101033488Y-90200500D01*
X148965983Y-90200500D01*
X148988169Y-90203018D01*
G37*
%TD.AperFunction*%
%TD*%
M02*
