%TF.GenerationSoftware,KiCad,Pcbnew,(6.0.6)*%
%TF.CreationDate,2022-07-10T21:22:37+02:00*%
%TF.ProjectId,GCode_Buttons_MCU,47436f64-655f-4427-9574-746f6e735f4d,rev?*%
%TF.SameCoordinates,Original*%
%TF.FileFunction,Legend,Top*%
%TF.FilePolarity,Positive*%
%FSLAX46Y46*%
G04 Gerber Fmt 4.6, Leading zero omitted, Abs format (unit mm)*
G04 Created by KiCad (PCBNEW (6.0.6)) date 2022-07-10 21:22:37*
%MOMM*%
%LPD*%
G01*
G04 APERTURE LIST*
G04 Aperture macros list*
%AMRoundRect*
0 Rectangle with rounded corners*
0 $1 Rounding radius*
0 $2 $3 $4 $5 $6 $7 $8 $9 X,Y pos of 4 corners*
0 Add a 4 corners polygon primitive as box body*
4,1,4,$2,$3,$4,$5,$6,$7,$8,$9,$2,$3,0*
0 Add four circle primitives for the rounded corners*
1,1,$1+$1,$2,$3*
1,1,$1+$1,$4,$5*
1,1,$1+$1,$6,$7*
1,1,$1+$1,$8,$9*
0 Add four rect primitives between the rounded corners*
20,1,$1+$1,$2,$3,$4,$5,0*
20,1,$1+$1,$4,$5,$6,$7,0*
20,1,$1+$1,$6,$7,$8,$9,0*
20,1,$1+$1,$8,$9,$2,$3,0*%
%AMFreePoly0*
4,1,22,0.550000,-0.750000,0.000000,-0.750000,0.000000,-0.745033,-0.079941,-0.743568,-0.215256,-0.701293,-0.333266,-0.622738,-0.424486,-0.514219,-0.481581,-0.384460,-0.499164,-0.250000,-0.500000,-0.250000,-0.500000,0.250000,-0.499164,0.250000,-0.499963,0.256109,-0.478152,0.396186,-0.417904,0.524511,-0.324060,0.630769,-0.204165,0.706417,-0.067858,0.745374,0.000000,0.744959,0.000000,0.750000,
0.550000,0.750000,0.550000,-0.750000,0.550000,-0.750000,$1*%
%AMFreePoly1*
4,1,20,0.000000,0.744959,0.073905,0.744508,0.209726,0.703889,0.328688,0.626782,0.421226,0.519385,0.479903,0.390333,0.500000,0.250000,0.500000,-0.250000,0.499851,-0.262216,0.476331,-0.402017,0.414519,-0.529596,0.319384,-0.634700,0.198574,-0.708877,0.061801,-0.746166,0.000000,-0.745033,0.000000,-0.750000,-0.550000,-0.750000,-0.550000,0.750000,0.000000,0.750000,0.000000,0.744959,
0.000000,0.744959,$1*%
G04 Aperture macros list end*
%ADD10C,0.003000*%
%ADD11C,0.150000*%
%ADD12C,0.100000*%
%ADD13C,0.120000*%
%ADD14RoundRect,0.140000X0.170000X-0.140000X0.170000X0.140000X-0.170000X0.140000X-0.170000X-0.140000X0*%
%ADD15RoundRect,0.140000X-0.170000X0.140000X-0.170000X-0.140000X0.170000X-0.140000X0.170000X0.140000X0*%
%ADD16RoundRect,0.140000X0.140000X0.170000X-0.140000X0.170000X-0.140000X-0.170000X0.140000X-0.170000X0*%
%ADD17RoundRect,0.140000X-0.140000X-0.170000X0.140000X-0.170000X0.140000X0.170000X-0.140000X0.170000X0*%
%ADD18RoundRect,0.150000X-0.587500X-0.150000X0.587500X-0.150000X0.587500X0.150000X-0.587500X0.150000X0*%
%ADD19RoundRect,0.147500X-0.172500X0.147500X-0.172500X-0.147500X0.172500X-0.147500X0.172500X0.147500X0*%
%ADD20RoundRect,0.147500X0.172500X-0.147500X0.172500X0.147500X-0.172500X0.147500X-0.172500X-0.147500X0*%
%ADD21RoundRect,0.147500X0.147500X0.172500X-0.147500X0.172500X-0.147500X-0.172500X0.147500X-0.172500X0*%
%ADD22R,1.000000X0.600000*%
%ADD23RoundRect,0.218750X-0.256250X0.218750X-0.256250X-0.218750X0.256250X-0.218750X0.256250X0.218750X0*%
%ADD24C,2.200000*%
%ADD25C,0.650000*%
%ADD26R,1.450000X0.600000*%
%ADD27R,1.450000X0.300000*%
%ADD28O,2.100000X1.000000*%
%ADD29O,1.600000X1.000000*%
%ADD30RoundRect,0.250000X0.750000X-0.600000X0.750000X0.600000X-0.750000X0.600000X-0.750000X-0.600000X0*%
%ADD31O,2.000000X1.700000*%
%ADD32RoundRect,0.150000X-0.150000X-0.625000X0.150000X-0.625000X0.150000X0.625000X-0.150000X0.625000X0*%
%ADD33RoundRect,0.250000X-0.350000X-0.650000X0.350000X-0.650000X0.350000X0.650000X-0.350000X0.650000X0*%
%ADD34FreePoly0,0.000000*%
%ADD35R,1.000000X1.500000*%
%ADD36FreePoly1,0.000000*%
%ADD37R,1.700000X1.700000*%
%ADD38O,1.700000X1.700000*%
%ADD39RoundRect,0.135000X-0.135000X-0.185000X0.135000X-0.185000X0.135000X0.185000X-0.135000X0.185000X0*%
%ADD40RoundRect,0.135000X0.185000X-0.135000X0.185000X0.135000X-0.185000X0.135000X-0.185000X-0.135000X0*%
%ADD41RoundRect,0.135000X0.135000X0.185000X-0.135000X0.185000X-0.135000X-0.185000X0.135000X-0.185000X0*%
%ADD42RoundRect,0.135000X-0.185000X0.135000X-0.185000X-0.135000X0.185000X-0.135000X0.185000X0.135000X0*%
%ADD43C,0.700000*%
%ADD44R,0.900000X0.800000*%
%ADD45R,0.600000X1.200000*%
%ADD46RoundRect,0.075000X-0.075000X0.662500X-0.075000X-0.662500X0.075000X-0.662500X0.075000X0.662500X0*%
%ADD47RoundRect,0.075000X-0.662500X0.075000X-0.662500X-0.075000X0.662500X-0.075000X0.662500X0.075000X0*%
%ADD48RoundRect,0.150000X-0.825000X-0.150000X0.825000X-0.150000X0.825000X0.150000X-0.825000X0.150000X0*%
%ADD49RoundRect,0.150000X-0.512500X-0.150000X0.512500X-0.150000X0.512500X0.150000X-0.512500X0.150000X0*%
%ADD50R,0.650000X0.400000*%
%ADD51R,2.400000X2.400000*%
%ADD52R,0.400000X1.350000*%
%ADD53C,0.450000*%
%ADD54C,0.800000*%
%ADD55C,0.600000*%
G04 APERTURE END LIST*
D10*
G36*
X129901779Y-96197589D02*
G01*
X129959085Y-96258900D01*
X130017545Y-96319094D01*
X130077141Y-96378156D01*
X130137856Y-96436068D01*
X130199672Y-96492813D01*
X130262572Y-96548375D01*
X130326538Y-96602737D01*
X130326538Y-96602745D01*
X130033343Y-97051722D01*
X129240807Y-97050000D01*
X129845644Y-96135179D01*
X129901779Y-96197589D01*
G37*
X129901779Y-96197589D02*
X129959085Y-96258900D01*
X130017545Y-96319094D01*
X130077141Y-96378156D01*
X130137856Y-96436068D01*
X130199672Y-96492813D01*
X130262572Y-96548375D01*
X130326538Y-96602737D01*
X130326538Y-96602745D01*
X130033343Y-97051722D01*
X129240807Y-97050000D01*
X129845644Y-96135179D01*
X129901779Y-96197589D01*
G36*
X128827028Y-94046953D02*
G01*
X128848835Y-94155873D01*
X128873362Y-94264145D01*
X128900534Y-94371570D01*
X128930276Y-94477944D01*
X128962514Y-94583069D01*
X128997173Y-94686743D01*
X129034178Y-94788765D01*
X127550000Y-97050000D01*
X126758354Y-97049166D01*
X128808015Y-93937587D01*
X128827028Y-94046953D01*
G37*
X128827028Y-94046953D02*
X128848835Y-94155873D01*
X128873362Y-94264145D01*
X128900534Y-94371570D01*
X128930276Y-94477944D01*
X128962514Y-94583069D01*
X128997173Y-94686743D01*
X129034178Y-94788765D01*
X127550000Y-97050000D01*
X126758354Y-97049166D01*
X128808015Y-93937587D01*
X128827028Y-94046953D01*
D11*
X113300000Y-91050000D02*
X113100000Y-90850000D01*
D10*
G36*
X129260213Y-95289218D02*
G01*
X129303368Y-95368642D01*
X129348107Y-95447067D01*
X129394409Y-95524470D01*
X129442253Y-95600829D01*
X129491621Y-95676121D01*
X129542491Y-95750325D01*
X129594843Y-95823418D01*
X128790989Y-97051722D01*
X127999580Y-97050595D01*
X129218661Y-95208817D01*
X129260213Y-95289218D01*
G37*
X129260213Y-95289218D02*
X129303368Y-95368642D01*
X129348107Y-95447067D01*
X129394409Y-95524470D01*
X129442253Y-95600829D01*
X129491621Y-95676121D01*
X129542491Y-95750325D01*
X129594843Y-95823418D01*
X128790989Y-97051722D01*
X127999580Y-97050595D01*
X129218661Y-95208817D01*
X129260213Y-95289218D01*
D11*
X113300000Y-91750000D02*
X113300000Y-91050000D01*
X130392857Y-94900000D02*
X130307142Y-94857142D01*
X130178571Y-94857142D01*
X130050000Y-94900000D01*
X129964285Y-94985714D01*
X129921428Y-95071428D01*
X129878571Y-95242857D01*
X129878571Y-95371428D01*
X129921428Y-95542857D01*
X129964285Y-95628571D01*
X130050000Y-95714285D01*
X130178571Y-95757142D01*
X130264285Y-95757142D01*
X130392857Y-95714285D01*
X130435714Y-95671428D01*
X130435714Y-95371428D01*
X130264285Y-95371428D01*
X131335714Y-95671428D02*
X131292857Y-95714285D01*
X131164285Y-95757142D01*
X131078571Y-95757142D01*
X130950000Y-95714285D01*
X130864285Y-95628571D01*
X130821428Y-95542857D01*
X130778571Y-95371428D01*
X130778571Y-95242857D01*
X130821428Y-95071428D01*
X130864285Y-94985714D01*
X130950000Y-94900000D01*
X131078571Y-94857142D01*
X131164285Y-94857142D01*
X131292857Y-94900000D01*
X131335714Y-94942857D01*
X131850000Y-95757142D02*
X131764285Y-95714285D01*
X131721428Y-95671428D01*
X131678571Y-95585714D01*
X131678571Y-95328571D01*
X131721428Y-95242857D01*
X131764285Y-95200000D01*
X131850000Y-95157142D01*
X131978571Y-95157142D01*
X132064285Y-95200000D01*
X132107142Y-95242857D01*
X132150000Y-95328571D01*
X132150000Y-95585714D01*
X132107142Y-95671428D01*
X132064285Y-95714285D01*
X131978571Y-95757142D01*
X131850000Y-95757142D01*
X132921428Y-95757142D02*
X132921428Y-94857142D01*
X132921428Y-95714285D02*
X132835714Y-95757142D01*
X132664285Y-95757142D01*
X132578571Y-95714285D01*
X132535714Y-95671428D01*
X132492857Y-95585714D01*
X132492857Y-95328571D01*
X132535714Y-95242857D01*
X132578571Y-95200000D01*
X132664285Y-95157142D01*
X132835714Y-95157142D01*
X132921428Y-95200000D01*
X133692857Y-95714285D02*
X133607142Y-95757142D01*
X133435714Y-95757142D01*
X133350000Y-95714285D01*
X133307142Y-95628571D01*
X133307142Y-95285714D01*
X133350000Y-95200000D01*
X133435714Y-95157142D01*
X133607142Y-95157142D01*
X133692857Y-95200000D01*
X133735714Y-95285714D01*
X133735714Y-95371428D01*
X133307142Y-95457142D01*
X135107142Y-95285714D02*
X135235714Y-95328571D01*
X135278571Y-95371428D01*
X135321428Y-95457142D01*
X135321428Y-95585714D01*
X135278571Y-95671428D01*
X135235714Y-95714285D01*
X135150000Y-95757142D01*
X134807142Y-95757142D01*
X134807142Y-94857142D01*
X135107142Y-94857142D01*
X135192857Y-94900000D01*
X135235714Y-94942857D01*
X135278571Y-95028571D01*
X135278571Y-95114285D01*
X135235714Y-95200000D01*
X135192857Y-95242857D01*
X135107142Y-95285714D01*
X134807142Y-95285714D01*
X136092857Y-95157142D02*
X136092857Y-95757142D01*
X135707142Y-95157142D02*
X135707142Y-95628571D01*
X135750000Y-95714285D01*
X135835714Y-95757142D01*
X135964285Y-95757142D01*
X136050000Y-95714285D01*
X136092857Y-95671428D01*
X136392857Y-95157142D02*
X136735714Y-95157142D01*
X136521428Y-94857142D02*
X136521428Y-95628571D01*
X136564285Y-95714285D01*
X136650000Y-95757142D01*
X136735714Y-95757142D01*
X136907142Y-95157142D02*
X137250000Y-95157142D01*
X137035714Y-94857142D02*
X137035714Y-95628571D01*
X137078571Y-95714285D01*
X137164285Y-95757142D01*
X137250000Y-95757142D01*
X137678571Y-95757142D02*
X137592857Y-95714285D01*
X137550000Y-95671428D01*
X137507142Y-95585714D01*
X137507142Y-95328571D01*
X137550000Y-95242857D01*
X137592857Y-95200000D01*
X137678571Y-95157142D01*
X137807142Y-95157142D01*
X137892857Y-95200000D01*
X137935714Y-95242857D01*
X137978571Y-95328571D01*
X137978571Y-95585714D01*
X137935714Y-95671428D01*
X137892857Y-95714285D01*
X137807142Y-95757142D01*
X137678571Y-95757142D01*
X138364285Y-95157142D02*
X138364285Y-95757142D01*
X138364285Y-95242857D02*
X138407142Y-95200000D01*
X138492857Y-95157142D01*
X138621428Y-95157142D01*
X138707142Y-95200000D01*
X138750000Y-95285714D01*
X138750000Y-95757142D01*
X139135714Y-95714285D02*
X139221428Y-95757142D01*
X139392857Y-95757142D01*
X139478571Y-95714285D01*
X139521428Y-95628571D01*
X139521428Y-95585714D01*
X139478571Y-95500000D01*
X139392857Y-95457142D01*
X139264285Y-95457142D01*
X139178571Y-95414285D01*
X139135714Y-95328571D01*
X139135714Y-95285714D01*
X139178571Y-95200000D01*
X139264285Y-95157142D01*
X139392857Y-95157142D01*
X139478571Y-95200000D01*
D12*
X101880952Y-94311904D02*
X102147619Y-95111904D01*
X102414285Y-94311904D01*
X103100000Y-95111904D02*
X102642857Y-95111904D01*
X102871428Y-95111904D02*
X102871428Y-94311904D01*
X102795238Y-94426190D01*
X102719047Y-94502380D01*
X102642857Y-94540476D01*
X103442857Y-95035714D02*
X103480952Y-95073809D01*
X103442857Y-95111904D01*
X103404761Y-95073809D01*
X103442857Y-95035714D01*
X103442857Y-95111904D01*
X103976190Y-94311904D02*
X104052380Y-94311904D01*
X104128571Y-94350000D01*
X104166666Y-94388095D01*
X104204761Y-94464285D01*
X104242857Y-94616666D01*
X104242857Y-94807142D01*
X104204761Y-94959523D01*
X104166666Y-95035714D01*
X104128571Y-95073809D01*
X104052380Y-95111904D01*
X103976190Y-95111904D01*
X103900000Y-95073809D01*
X103861904Y-95035714D01*
X103823809Y-94959523D01*
X103785714Y-94807142D01*
X103785714Y-94616666D01*
X103823809Y-94464285D01*
X103861904Y-94388095D01*
X103900000Y-94350000D01*
X103976190Y-94311904D01*
%TO.C,C1*%
X126550000Y-99966666D02*
X126583333Y-100000000D01*
X126616666Y-100100000D01*
X126616666Y-100166666D01*
X126583333Y-100266666D01*
X126516666Y-100333333D01*
X126450000Y-100366666D01*
X126316666Y-100400000D01*
X126216666Y-100400000D01*
X126083333Y-100366666D01*
X126016666Y-100333333D01*
X125950000Y-100266666D01*
X125916666Y-100166666D01*
X125916666Y-100100000D01*
X125950000Y-100000000D01*
X125983333Y-99966666D01*
X126616666Y-99300000D02*
X126616666Y-99700000D01*
X126616666Y-99500000D02*
X125916666Y-99500000D01*
X126016666Y-99566666D01*
X126083333Y-99633333D01*
X126116666Y-99700000D01*
%TO.C,C2*%
X104700000Y-109066666D02*
X104733333Y-109100000D01*
X104766666Y-109200000D01*
X104766666Y-109266666D01*
X104733333Y-109366666D01*
X104666666Y-109433333D01*
X104600000Y-109466666D01*
X104466666Y-109500000D01*
X104366666Y-109500000D01*
X104233333Y-109466666D01*
X104166666Y-109433333D01*
X104100000Y-109366666D01*
X104066666Y-109266666D01*
X104066666Y-109200000D01*
X104100000Y-109100000D01*
X104133333Y-109066666D01*
X104133333Y-108800000D02*
X104100000Y-108766666D01*
X104066666Y-108700000D01*
X104066666Y-108533333D01*
X104100000Y-108466666D01*
X104133333Y-108433333D01*
X104200000Y-108400000D01*
X104266666Y-108400000D01*
X104366666Y-108433333D01*
X104766666Y-108833333D01*
X104766666Y-108400000D01*
%TO.C,C3*%
X107200000Y-109066666D02*
X107233333Y-109100000D01*
X107266666Y-109200000D01*
X107266666Y-109266666D01*
X107233333Y-109366666D01*
X107166666Y-109433333D01*
X107100000Y-109466666D01*
X106966666Y-109500000D01*
X106866666Y-109500000D01*
X106733333Y-109466666D01*
X106666666Y-109433333D01*
X106600000Y-109366666D01*
X106566666Y-109266666D01*
X106566666Y-109200000D01*
X106600000Y-109100000D01*
X106633333Y-109066666D01*
X106566666Y-108833333D02*
X106566666Y-108400000D01*
X106833333Y-108633333D01*
X106833333Y-108533333D01*
X106866666Y-108466666D01*
X106900000Y-108433333D01*
X106966666Y-108400000D01*
X107133333Y-108400000D01*
X107200000Y-108433333D01*
X107233333Y-108466666D01*
X107266666Y-108533333D01*
X107266666Y-108733333D01*
X107233333Y-108800000D01*
X107200000Y-108833333D01*
%TO.C,C4*%
X111983333Y-104100000D02*
X111950000Y-104133333D01*
X111850000Y-104166666D01*
X111783333Y-104166666D01*
X111683333Y-104133333D01*
X111616666Y-104066666D01*
X111583333Y-104000000D01*
X111550000Y-103866666D01*
X111550000Y-103766666D01*
X111583333Y-103633333D01*
X111616666Y-103566666D01*
X111683333Y-103500000D01*
X111783333Y-103466666D01*
X111850000Y-103466666D01*
X111950000Y-103500000D01*
X111983333Y-103533333D01*
X112583333Y-103700000D02*
X112583333Y-104166666D01*
X112416666Y-103433333D02*
X112250000Y-103933333D01*
X112683333Y-103933333D01*
%TO.C,C5*%
X124253333Y-97550000D02*
X124220000Y-97583333D01*
X124120000Y-97616666D01*
X124053333Y-97616666D01*
X123953333Y-97583333D01*
X123886666Y-97516666D01*
X123853333Y-97450000D01*
X123820000Y-97316666D01*
X123820000Y-97216666D01*
X123853333Y-97083333D01*
X123886666Y-97016666D01*
X123953333Y-96950000D01*
X124053333Y-96916666D01*
X124120000Y-96916666D01*
X124220000Y-96950000D01*
X124253333Y-96983333D01*
X124886666Y-96916666D02*
X124553333Y-96916666D01*
X124520000Y-97250000D01*
X124553333Y-97216666D01*
X124620000Y-97183333D01*
X124786666Y-97183333D01*
X124853333Y-97216666D01*
X124886666Y-97250000D01*
X124920000Y-97316666D01*
X124920000Y-97483333D01*
X124886666Y-97550000D01*
X124853333Y-97583333D01*
X124786666Y-97616666D01*
X124620000Y-97616666D01*
X124553333Y-97583333D01*
X124520000Y-97550000D01*
%TO.C,C6*%
X124253333Y-96500000D02*
X124220000Y-96533333D01*
X124120000Y-96566666D01*
X124053333Y-96566666D01*
X123953333Y-96533333D01*
X123886666Y-96466666D01*
X123853333Y-96400000D01*
X123820000Y-96266666D01*
X123820000Y-96166666D01*
X123853333Y-96033333D01*
X123886666Y-95966666D01*
X123953333Y-95900000D01*
X124053333Y-95866666D01*
X124120000Y-95866666D01*
X124220000Y-95900000D01*
X124253333Y-95933333D01*
X124853333Y-95866666D02*
X124720000Y-95866666D01*
X124653333Y-95900000D01*
X124620000Y-95933333D01*
X124553333Y-96033333D01*
X124520000Y-96166666D01*
X124520000Y-96433333D01*
X124553333Y-96500000D01*
X124586666Y-96533333D01*
X124653333Y-96566666D01*
X124786666Y-96566666D01*
X124853333Y-96533333D01*
X124886666Y-96500000D01*
X124920000Y-96433333D01*
X124920000Y-96266666D01*
X124886666Y-96200000D01*
X124853333Y-96166666D01*
X124786666Y-96133333D01*
X124653333Y-96133333D01*
X124586666Y-96166666D01*
X124553333Y-96200000D01*
X124520000Y-96266666D01*
%TO.C,C7*%
X124253333Y-95500000D02*
X124220000Y-95533333D01*
X124120000Y-95566666D01*
X124053333Y-95566666D01*
X123953333Y-95533333D01*
X123886666Y-95466666D01*
X123853333Y-95400000D01*
X123820000Y-95266666D01*
X123820000Y-95166666D01*
X123853333Y-95033333D01*
X123886666Y-94966666D01*
X123953333Y-94900000D01*
X124053333Y-94866666D01*
X124120000Y-94866666D01*
X124220000Y-94900000D01*
X124253333Y-94933333D01*
X124486666Y-94866666D02*
X124953333Y-94866666D01*
X124653333Y-95566666D01*
%TO.C,C8*%
X114183333Y-95450000D02*
X114150000Y-95483333D01*
X114050000Y-95516666D01*
X113983333Y-95516666D01*
X113883333Y-95483333D01*
X113816666Y-95416666D01*
X113783333Y-95350000D01*
X113750000Y-95216666D01*
X113750000Y-95116666D01*
X113783333Y-94983333D01*
X113816666Y-94916666D01*
X113883333Y-94850000D01*
X113983333Y-94816666D01*
X114050000Y-94816666D01*
X114150000Y-94850000D01*
X114183333Y-94883333D01*
X114583333Y-95116666D02*
X114516666Y-95083333D01*
X114483333Y-95050000D01*
X114450000Y-94983333D01*
X114450000Y-94950000D01*
X114483333Y-94883333D01*
X114516666Y-94850000D01*
X114583333Y-94816666D01*
X114716666Y-94816666D01*
X114783333Y-94850000D01*
X114816666Y-94883333D01*
X114850000Y-94950000D01*
X114850000Y-94983333D01*
X114816666Y-95050000D01*
X114783333Y-95083333D01*
X114716666Y-95116666D01*
X114583333Y-95116666D01*
X114516666Y-95150000D01*
X114483333Y-95183333D01*
X114450000Y-95250000D01*
X114450000Y-95383333D01*
X114483333Y-95450000D01*
X114516666Y-95483333D01*
X114583333Y-95516666D01*
X114716666Y-95516666D01*
X114783333Y-95483333D01*
X114816666Y-95450000D01*
X114850000Y-95383333D01*
X114850000Y-95250000D01*
X114816666Y-95183333D01*
X114783333Y-95150000D01*
X114716666Y-95116666D01*
%TO.C,C9*%
X116333333Y-93500000D02*
X116300000Y-93533333D01*
X116200000Y-93566666D01*
X116133333Y-93566666D01*
X116033333Y-93533333D01*
X115966666Y-93466666D01*
X115933333Y-93400000D01*
X115900000Y-93266666D01*
X115900000Y-93166666D01*
X115933333Y-93033333D01*
X115966666Y-92966666D01*
X116033333Y-92900000D01*
X116133333Y-92866666D01*
X116200000Y-92866666D01*
X116300000Y-92900000D01*
X116333333Y-92933333D01*
X116666666Y-93566666D02*
X116800000Y-93566666D01*
X116866666Y-93533333D01*
X116900000Y-93500000D01*
X116966666Y-93400000D01*
X117000000Y-93266666D01*
X117000000Y-93000000D01*
X116966666Y-92933333D01*
X116933333Y-92900000D01*
X116866666Y-92866666D01*
X116733333Y-92866666D01*
X116666666Y-92900000D01*
X116633333Y-92933333D01*
X116600000Y-93000000D01*
X116600000Y-93166666D01*
X116633333Y-93233333D01*
X116666666Y-93266666D01*
X116733333Y-93300000D01*
X116866666Y-93300000D01*
X116933333Y-93266666D01*
X116966666Y-93233333D01*
X117000000Y-93166666D01*
%TO.C,C10*%
X124250000Y-105000000D02*
X124216666Y-105033333D01*
X124116666Y-105066666D01*
X124050000Y-105066666D01*
X123950000Y-105033333D01*
X123883333Y-104966666D01*
X123850000Y-104900000D01*
X123816666Y-104766666D01*
X123816666Y-104666666D01*
X123850000Y-104533333D01*
X123883333Y-104466666D01*
X123950000Y-104400000D01*
X124050000Y-104366666D01*
X124116666Y-104366666D01*
X124216666Y-104400000D01*
X124250000Y-104433333D01*
X124916666Y-105066666D02*
X124516666Y-105066666D01*
X124716666Y-105066666D02*
X124716666Y-104366666D01*
X124650000Y-104466666D01*
X124583333Y-104533333D01*
X124516666Y-104566666D01*
X125350000Y-104366666D02*
X125416666Y-104366666D01*
X125483333Y-104400000D01*
X125516666Y-104433333D01*
X125550000Y-104500000D01*
X125583333Y-104633333D01*
X125583333Y-104800000D01*
X125550000Y-104933333D01*
X125516666Y-105000000D01*
X125483333Y-105033333D01*
X125416666Y-105066666D01*
X125350000Y-105066666D01*
X125283333Y-105033333D01*
X125250000Y-105000000D01*
X125216666Y-104933333D01*
X125183333Y-104800000D01*
X125183333Y-104633333D01*
X125216666Y-104500000D01*
X125250000Y-104433333D01*
X125283333Y-104400000D01*
X125350000Y-104366666D01*
%TO.C,C11*%
X124250000Y-106050000D02*
X124216666Y-106083333D01*
X124116666Y-106116666D01*
X124050000Y-106116666D01*
X123950000Y-106083333D01*
X123883333Y-106016666D01*
X123850000Y-105950000D01*
X123816666Y-105816666D01*
X123816666Y-105716666D01*
X123850000Y-105583333D01*
X123883333Y-105516666D01*
X123950000Y-105450000D01*
X124050000Y-105416666D01*
X124116666Y-105416666D01*
X124216666Y-105450000D01*
X124250000Y-105483333D01*
X124916666Y-106116666D02*
X124516666Y-106116666D01*
X124716666Y-106116666D02*
X124716666Y-105416666D01*
X124650000Y-105516666D01*
X124583333Y-105583333D01*
X124516666Y-105616666D01*
X125583333Y-106116666D02*
X125183333Y-106116666D01*
X125383333Y-106116666D02*
X125383333Y-105416666D01*
X125316666Y-105516666D01*
X125250000Y-105583333D01*
X125183333Y-105616666D01*
%TO.C,C12*%
X136700000Y-104500000D02*
X136666666Y-104533333D01*
X136566666Y-104566666D01*
X136500000Y-104566666D01*
X136400000Y-104533333D01*
X136333333Y-104466666D01*
X136300000Y-104400000D01*
X136266666Y-104266666D01*
X136266666Y-104166666D01*
X136300000Y-104033333D01*
X136333333Y-103966666D01*
X136400000Y-103900000D01*
X136500000Y-103866666D01*
X136566666Y-103866666D01*
X136666666Y-103900000D01*
X136700000Y-103933333D01*
X137366666Y-104566666D02*
X136966666Y-104566666D01*
X137166666Y-104566666D02*
X137166666Y-103866666D01*
X137100000Y-103966666D01*
X137033333Y-104033333D01*
X136966666Y-104066666D01*
X137633333Y-103933333D02*
X137666666Y-103900000D01*
X137733333Y-103866666D01*
X137900000Y-103866666D01*
X137966666Y-103900000D01*
X138000000Y-103933333D01*
X138033333Y-104000000D01*
X138033333Y-104066666D01*
X138000000Y-104166666D01*
X137600000Y-104566666D01*
X138033333Y-104566666D01*
%TO.C,C13*%
X111250000Y-102600000D02*
X111216666Y-102633333D01*
X111116666Y-102666666D01*
X111050000Y-102666666D01*
X110950000Y-102633333D01*
X110883333Y-102566666D01*
X110850000Y-102500000D01*
X110816666Y-102366666D01*
X110816666Y-102266666D01*
X110850000Y-102133333D01*
X110883333Y-102066666D01*
X110950000Y-102000000D01*
X111050000Y-101966666D01*
X111116666Y-101966666D01*
X111216666Y-102000000D01*
X111250000Y-102033333D01*
X111916666Y-102666666D02*
X111516666Y-102666666D01*
X111716666Y-102666666D02*
X111716666Y-101966666D01*
X111650000Y-102066666D01*
X111583333Y-102133333D01*
X111516666Y-102166666D01*
X112150000Y-101966666D02*
X112583333Y-101966666D01*
X112350000Y-102233333D01*
X112450000Y-102233333D01*
X112516666Y-102266666D01*
X112550000Y-102300000D01*
X112583333Y-102366666D01*
X112583333Y-102533333D01*
X112550000Y-102600000D01*
X112516666Y-102633333D01*
X112450000Y-102666666D01*
X112250000Y-102666666D01*
X112183333Y-102633333D01*
X112150000Y-102600000D01*
%TO.C,C14*%
X105550000Y-94400000D02*
X105516666Y-94433333D01*
X105416666Y-94466666D01*
X105350000Y-94466666D01*
X105250000Y-94433333D01*
X105183333Y-94366666D01*
X105150000Y-94300000D01*
X105116666Y-94166666D01*
X105116666Y-94066666D01*
X105150000Y-93933333D01*
X105183333Y-93866666D01*
X105250000Y-93800000D01*
X105350000Y-93766666D01*
X105416666Y-93766666D01*
X105516666Y-93800000D01*
X105550000Y-93833333D01*
X106216666Y-94466666D02*
X105816666Y-94466666D01*
X106016666Y-94466666D02*
X106016666Y-93766666D01*
X105950000Y-93866666D01*
X105883333Y-93933333D01*
X105816666Y-93966666D01*
X106816666Y-94000000D02*
X106816666Y-94466666D01*
X106650000Y-93733333D02*
X106483333Y-94233333D01*
X106916666Y-94233333D01*
%TO.C,C15*%
X113000000Y-94400000D02*
X112966666Y-94433333D01*
X112866666Y-94466666D01*
X112800000Y-94466666D01*
X112700000Y-94433333D01*
X112633333Y-94366666D01*
X112600000Y-94300000D01*
X112566666Y-94166666D01*
X112566666Y-94066666D01*
X112600000Y-93933333D01*
X112633333Y-93866666D01*
X112700000Y-93800000D01*
X112800000Y-93766666D01*
X112866666Y-93766666D01*
X112966666Y-93800000D01*
X113000000Y-93833333D01*
X113666666Y-94466666D02*
X113266666Y-94466666D01*
X113466666Y-94466666D02*
X113466666Y-93766666D01*
X113400000Y-93866666D01*
X113333333Y-93933333D01*
X113266666Y-93966666D01*
X114300000Y-93766666D02*
X113966666Y-93766666D01*
X113933333Y-94100000D01*
X113966666Y-94066666D01*
X114033333Y-94033333D01*
X114200000Y-94033333D01*
X114266666Y-94066666D01*
X114300000Y-94100000D01*
X114333333Y-94166666D01*
X114333333Y-94333333D01*
X114300000Y-94400000D01*
X114266666Y-94433333D01*
X114200000Y-94466666D01*
X114033333Y-94466666D01*
X113966666Y-94433333D01*
X113933333Y-94400000D01*
%TO.C,C16*%
X112674520Y-99225480D02*
X112707853Y-99258813D01*
X112741186Y-99358813D01*
X112741186Y-99425480D01*
X112707853Y-99525480D01*
X112641186Y-99592146D01*
X112574520Y-99625480D01*
X112441186Y-99658813D01*
X112341186Y-99658813D01*
X112207853Y-99625480D01*
X112141186Y-99592146D01*
X112074520Y-99525480D01*
X112041186Y-99425480D01*
X112041186Y-99358813D01*
X112074520Y-99258813D01*
X112107853Y-99225480D01*
X112741186Y-98558813D02*
X112741186Y-98958813D01*
X112741186Y-98758813D02*
X112041186Y-98758813D01*
X112141186Y-98825480D01*
X112207853Y-98892146D01*
X112241186Y-98958813D01*
X112041186Y-97958813D02*
X112041186Y-98092146D01*
X112074520Y-98158813D01*
X112107853Y-98192146D01*
X112207853Y-98258813D01*
X112341186Y-98292146D01*
X112607853Y-98292146D01*
X112674520Y-98258813D01*
X112707853Y-98225480D01*
X112741186Y-98158813D01*
X112741186Y-98025480D01*
X112707853Y-97958813D01*
X112674520Y-97925480D01*
X112607853Y-97892146D01*
X112441186Y-97892146D01*
X112374520Y-97925480D01*
X112341186Y-97958813D01*
X112307853Y-98025480D01*
X112307853Y-98158813D01*
X112341186Y-98225480D01*
X112374520Y-98258813D01*
X112441186Y-98292146D01*
%TO.C,C17*%
X120000000Y-95450000D02*
X119966666Y-95483333D01*
X119866666Y-95516666D01*
X119800000Y-95516666D01*
X119700000Y-95483333D01*
X119633333Y-95416666D01*
X119600000Y-95350000D01*
X119566666Y-95216666D01*
X119566666Y-95116666D01*
X119600000Y-94983333D01*
X119633333Y-94916666D01*
X119700000Y-94850000D01*
X119800000Y-94816666D01*
X119866666Y-94816666D01*
X119966666Y-94850000D01*
X120000000Y-94883333D01*
X120666666Y-95516666D02*
X120266666Y-95516666D01*
X120466666Y-95516666D02*
X120466666Y-94816666D01*
X120400000Y-94916666D01*
X120333333Y-94983333D01*
X120266666Y-95016666D01*
X120900000Y-94816666D02*
X121366666Y-94816666D01*
X121066666Y-95516666D01*
%TO.C,C18*%
X108200000Y-106650000D02*
X108233333Y-106683333D01*
X108266666Y-106783333D01*
X108266666Y-106850000D01*
X108233333Y-106950000D01*
X108166666Y-107016666D01*
X108100000Y-107050000D01*
X107966666Y-107083333D01*
X107866666Y-107083333D01*
X107733333Y-107050000D01*
X107666666Y-107016666D01*
X107600000Y-106950000D01*
X107566666Y-106850000D01*
X107566666Y-106783333D01*
X107600000Y-106683333D01*
X107633333Y-106650000D01*
X108266666Y-105983333D02*
X108266666Y-106383333D01*
X108266666Y-106183333D02*
X107566666Y-106183333D01*
X107666666Y-106250000D01*
X107733333Y-106316666D01*
X107766666Y-106383333D01*
X107866666Y-105583333D02*
X107833333Y-105650000D01*
X107800000Y-105683333D01*
X107733333Y-105716666D01*
X107700000Y-105716666D01*
X107633333Y-105683333D01*
X107600000Y-105650000D01*
X107566666Y-105583333D01*
X107566666Y-105450000D01*
X107600000Y-105383333D01*
X107633333Y-105350000D01*
X107700000Y-105316666D01*
X107733333Y-105316666D01*
X107800000Y-105350000D01*
X107833333Y-105383333D01*
X107866666Y-105450000D01*
X107866666Y-105583333D01*
X107900000Y-105650000D01*
X107933333Y-105683333D01*
X108000000Y-105716666D01*
X108133333Y-105716666D01*
X108200000Y-105683333D01*
X108233333Y-105650000D01*
X108266666Y-105583333D01*
X108266666Y-105450000D01*
X108233333Y-105383333D01*
X108200000Y-105350000D01*
X108133333Y-105316666D01*
X108000000Y-105316666D01*
X107933333Y-105350000D01*
X107900000Y-105383333D01*
X107866666Y-105450000D01*
%TO.C,C19*%
X111200000Y-106500000D02*
X111166666Y-106533333D01*
X111066666Y-106566666D01*
X111000000Y-106566666D01*
X110900000Y-106533333D01*
X110833333Y-106466666D01*
X110800000Y-106400000D01*
X110766666Y-106266666D01*
X110766666Y-106166666D01*
X110800000Y-106033333D01*
X110833333Y-105966666D01*
X110900000Y-105900000D01*
X111000000Y-105866666D01*
X111066666Y-105866666D01*
X111166666Y-105900000D01*
X111200000Y-105933333D01*
X111866666Y-106566666D02*
X111466666Y-106566666D01*
X111666666Y-106566666D02*
X111666666Y-105866666D01*
X111600000Y-105966666D01*
X111533333Y-106033333D01*
X111466666Y-106066666D01*
X112200000Y-106566666D02*
X112333333Y-106566666D01*
X112400000Y-106533333D01*
X112433333Y-106500000D01*
X112500000Y-106400000D01*
X112533333Y-106266666D01*
X112533333Y-106000000D01*
X112500000Y-105933333D01*
X112466666Y-105900000D01*
X112400000Y-105866666D01*
X112266666Y-105866666D01*
X112200000Y-105900000D01*
X112166666Y-105933333D01*
X112133333Y-106000000D01*
X112133333Y-106166666D01*
X112166666Y-106233333D01*
X112200000Y-106266666D01*
X112266666Y-106300000D01*
X112400000Y-106300000D01*
X112466666Y-106266666D01*
X112500000Y-106233333D01*
X112533333Y-106166666D01*
%TO.C,C20*%
X122750000Y-108500000D02*
X122783333Y-108533333D01*
X122816666Y-108633333D01*
X122816666Y-108700000D01*
X122783333Y-108800000D01*
X122716666Y-108866666D01*
X122650000Y-108900000D01*
X122516666Y-108933333D01*
X122416666Y-108933333D01*
X122283333Y-108900000D01*
X122216666Y-108866666D01*
X122150000Y-108800000D01*
X122116666Y-108700000D01*
X122116666Y-108633333D01*
X122150000Y-108533333D01*
X122183333Y-108500000D01*
X122183333Y-108233333D02*
X122150000Y-108200000D01*
X122116666Y-108133333D01*
X122116666Y-107966666D01*
X122150000Y-107900000D01*
X122183333Y-107866666D01*
X122250000Y-107833333D01*
X122316666Y-107833333D01*
X122416666Y-107866666D01*
X122816666Y-108266666D01*
X122816666Y-107833333D01*
X122116666Y-107400000D02*
X122116666Y-107333333D01*
X122150000Y-107266666D01*
X122183333Y-107233333D01*
X122250000Y-107200000D01*
X122383333Y-107166666D01*
X122550000Y-107166666D01*
X122683333Y-107200000D01*
X122750000Y-107233333D01*
X122783333Y-107266666D01*
X122816666Y-107333333D01*
X122816666Y-107400000D01*
X122783333Y-107466666D01*
X122750000Y-107500000D01*
X122683333Y-107533333D01*
X122550000Y-107566666D01*
X122383333Y-107566666D01*
X122250000Y-107533333D01*
X122183333Y-107500000D01*
X122150000Y-107466666D01*
X122116666Y-107400000D01*
%TO.C,D1*%
X142383333Y-99116666D02*
X142383333Y-98416666D01*
X142550000Y-98416666D01*
X142650000Y-98450000D01*
X142716666Y-98516666D01*
X142750000Y-98583333D01*
X142783333Y-98716666D01*
X142783333Y-98816666D01*
X142750000Y-98950000D01*
X142716666Y-99016666D01*
X142650000Y-99083333D01*
X142550000Y-99116666D01*
X142383333Y-99116666D01*
X143450000Y-99116666D02*
X143050000Y-99116666D01*
X143250000Y-99116666D02*
X143250000Y-98416666D01*
X143183333Y-98516666D01*
X143116666Y-98583333D01*
X143050000Y-98616666D01*
%TO.C,D2*%
X142383333Y-95766666D02*
X142383333Y-95066666D01*
X142550000Y-95066666D01*
X142650000Y-95100000D01*
X142716666Y-95166666D01*
X142750000Y-95233333D01*
X142783333Y-95366666D01*
X142783333Y-95466666D01*
X142750000Y-95600000D01*
X142716666Y-95666666D01*
X142650000Y-95733333D01*
X142550000Y-95766666D01*
X142383333Y-95766666D01*
X143050000Y-95133333D02*
X143083333Y-95100000D01*
X143150000Y-95066666D01*
X143316666Y-95066666D01*
X143383333Y-95100000D01*
X143416666Y-95133333D01*
X143450000Y-95200000D01*
X143450000Y-95266666D01*
X143416666Y-95366666D01*
X143016666Y-95766666D01*
X143450000Y-95766666D01*
%TO.C,D3*%
X142383333Y-104966666D02*
X142383333Y-104266666D01*
X142550000Y-104266666D01*
X142650000Y-104300000D01*
X142716666Y-104366666D01*
X142750000Y-104433333D01*
X142783333Y-104566666D01*
X142783333Y-104666666D01*
X142750000Y-104800000D01*
X142716666Y-104866666D01*
X142650000Y-104933333D01*
X142550000Y-104966666D01*
X142383333Y-104966666D01*
X143016666Y-104266666D02*
X143450000Y-104266666D01*
X143216666Y-104533333D01*
X143316666Y-104533333D01*
X143383333Y-104566666D01*
X143416666Y-104600000D01*
X143450000Y-104666666D01*
X143450000Y-104833333D01*
X143416666Y-104900000D01*
X143383333Y-104933333D01*
X143316666Y-104966666D01*
X143116666Y-104966666D01*
X143050000Y-104933333D01*
X143016666Y-104900000D01*
%TO.C,D4*%
X113816666Y-92966666D02*
X113116666Y-92966666D01*
X113116666Y-92800000D01*
X113150000Y-92700000D01*
X113216666Y-92633333D01*
X113283333Y-92600000D01*
X113416666Y-92566666D01*
X113516666Y-92566666D01*
X113650000Y-92600000D01*
X113716666Y-92633333D01*
X113783333Y-92700000D01*
X113816666Y-92800000D01*
X113816666Y-92966666D01*
X113350000Y-91966666D02*
X113816666Y-91966666D01*
X113083333Y-92133333D02*
X113583333Y-92300000D01*
X113583333Y-91866666D01*
%TO.C,D5*%
X118433333Y-106966666D02*
X118433333Y-106266666D01*
X118600000Y-106266666D01*
X118700000Y-106300000D01*
X118766666Y-106366666D01*
X118800000Y-106433333D01*
X118833333Y-106566666D01*
X118833333Y-106666666D01*
X118800000Y-106800000D01*
X118766666Y-106866666D01*
X118700000Y-106933333D01*
X118600000Y-106966666D01*
X118433333Y-106966666D01*
X119466666Y-106266666D02*
X119133333Y-106266666D01*
X119100000Y-106600000D01*
X119133333Y-106566666D01*
X119200000Y-106533333D01*
X119366666Y-106533333D01*
X119433333Y-106566666D01*
X119466666Y-106600000D01*
X119500000Y-106666666D01*
X119500000Y-106833333D01*
X119466666Y-106900000D01*
X119433333Y-106933333D01*
X119366666Y-106966666D01*
X119200000Y-106966666D01*
X119133333Y-106933333D01*
X119100000Y-106900000D01*
%TO.C,FB1*%
X105650000Y-109583333D02*
X105650000Y-109816666D01*
X106016666Y-109816666D02*
X105316666Y-109816666D01*
X105316666Y-109483333D01*
X105650000Y-108983333D02*
X105683333Y-108883333D01*
X105716666Y-108850000D01*
X105783333Y-108816666D01*
X105883333Y-108816666D01*
X105950000Y-108850000D01*
X105983333Y-108883333D01*
X106016666Y-108950000D01*
X106016666Y-109216666D01*
X105316666Y-109216666D01*
X105316666Y-108983333D01*
X105350000Y-108916666D01*
X105383333Y-108883333D01*
X105450000Y-108850000D01*
X105516666Y-108850000D01*
X105583333Y-108883333D01*
X105616666Y-108916666D01*
X105650000Y-108983333D01*
X105650000Y-109216666D01*
X106016666Y-108150000D02*
X106016666Y-108550000D01*
X106016666Y-108350000D02*
X105316666Y-108350000D01*
X105416666Y-108416666D01*
X105483333Y-108483333D01*
X105516666Y-108550000D01*
%TO.C,J1*%
X102266666Y-104966666D02*
X102266666Y-105466666D01*
X102233333Y-105566666D01*
X102166666Y-105633333D01*
X102066666Y-105666666D01*
X102000000Y-105666666D01*
X102966666Y-105666666D02*
X102566666Y-105666666D01*
X102766666Y-105666666D02*
X102766666Y-104966666D01*
X102700000Y-105066666D01*
X102633333Y-105133333D01*
X102566666Y-105166666D01*
%TO.C,J4*%
X148866666Y-104783333D02*
X149366666Y-104783333D01*
X149466666Y-104816666D01*
X149533333Y-104883333D01*
X149566666Y-104983333D01*
X149566666Y-105050000D01*
X149100000Y-104150000D02*
X149566666Y-104150000D01*
X148833333Y-104316666D02*
X149333333Y-104483333D01*
X149333333Y-104050000D01*
%TO.C,J5*%
X143666666Y-93716666D02*
X143666666Y-94216666D01*
X143633333Y-94316666D01*
X143566666Y-94383333D01*
X143466666Y-94416666D01*
X143400000Y-94416666D01*
X144333333Y-93716666D02*
X144000000Y-93716666D01*
X143966666Y-94050000D01*
X144000000Y-94016666D01*
X144066666Y-93983333D01*
X144233333Y-93983333D01*
X144300000Y-94016666D01*
X144333333Y-94050000D01*
X144366666Y-94116666D01*
X144366666Y-94283333D01*
X144333333Y-94350000D01*
X144300000Y-94383333D01*
X144233333Y-94416666D01*
X144066666Y-94416666D01*
X144000000Y-94383333D01*
X143966666Y-94350000D01*
%TO.C,J6*%
X136416666Y-93716666D02*
X136416666Y-94216666D01*
X136383333Y-94316666D01*
X136316666Y-94383333D01*
X136216666Y-94416666D01*
X136150000Y-94416666D01*
X137050000Y-93716666D02*
X136916666Y-93716666D01*
X136850000Y-93750000D01*
X136816666Y-93783333D01*
X136750000Y-93883333D01*
X136716666Y-94016666D01*
X136716666Y-94283333D01*
X136750000Y-94350000D01*
X136783333Y-94383333D01*
X136850000Y-94416666D01*
X136983333Y-94416666D01*
X137050000Y-94383333D01*
X137083333Y-94350000D01*
X137116666Y-94283333D01*
X137116666Y-94116666D01*
X137083333Y-94050000D01*
X137050000Y-94016666D01*
X136983333Y-93983333D01*
X136850000Y-93983333D01*
X136783333Y-94016666D01*
X136750000Y-94050000D01*
X136716666Y-94116666D01*
%TO.C,J7*%
X127066666Y-93716666D02*
X127066666Y-94216666D01*
X127033333Y-94316666D01*
X126966666Y-94383333D01*
X126866666Y-94416666D01*
X126800000Y-94416666D01*
X127333333Y-93716666D02*
X127800000Y-93716666D01*
X127500000Y-94416666D01*
%TO.C,JP1*%
X130416666Y-105116666D02*
X130416666Y-105616666D01*
X130383333Y-105716666D01*
X130316666Y-105783333D01*
X130216666Y-105816666D01*
X130150000Y-105816666D01*
X130750000Y-105816666D02*
X130750000Y-105116666D01*
X131016666Y-105116666D01*
X131083333Y-105150000D01*
X131116666Y-105183333D01*
X131150000Y-105250000D01*
X131150000Y-105350000D01*
X131116666Y-105416666D01*
X131083333Y-105450000D01*
X131016666Y-105483333D01*
X130750000Y-105483333D01*
X131816666Y-105816666D02*
X131416666Y-105816666D01*
X131616666Y-105816666D02*
X131616666Y-105116666D01*
X131550000Y-105216666D01*
X131483333Y-105283333D01*
X131416666Y-105316666D01*
X128066666Y-103983333D02*
X128066666Y-104316666D01*
X128400000Y-104350000D01*
X128366666Y-104316666D01*
X128333333Y-104250000D01*
X128333333Y-104083333D01*
X128366666Y-104016666D01*
X128400000Y-103983333D01*
X128466666Y-103950000D01*
X128633333Y-103950000D01*
X128700000Y-103983333D01*
X128733333Y-104016666D01*
X128766666Y-104083333D01*
X128766666Y-104250000D01*
X128733333Y-104316666D01*
X128700000Y-104350000D01*
X128066666Y-103750000D02*
X128766666Y-103516666D01*
X128066666Y-103283333D01*
X133266666Y-104883333D02*
X133266666Y-104450000D01*
X133533333Y-104683333D01*
X133533333Y-104583333D01*
X133566666Y-104516666D01*
X133600000Y-104483333D01*
X133666666Y-104450000D01*
X133833333Y-104450000D01*
X133900000Y-104483333D01*
X133933333Y-104516666D01*
X133966666Y-104583333D01*
X133966666Y-104783333D01*
X133933333Y-104850000D01*
X133900000Y-104883333D01*
X133900000Y-104150000D02*
X133933333Y-104116666D01*
X133966666Y-104150000D01*
X133933333Y-104183333D01*
X133900000Y-104150000D01*
X133966666Y-104150000D01*
X133266666Y-103883333D02*
X133266666Y-103450000D01*
X133533333Y-103683333D01*
X133533333Y-103583333D01*
X133566666Y-103516666D01*
X133600000Y-103483333D01*
X133666666Y-103450000D01*
X133833333Y-103450000D01*
X133900000Y-103483333D01*
X133933333Y-103516666D01*
X133966666Y-103583333D01*
X133966666Y-103783333D01*
X133933333Y-103850000D01*
X133900000Y-103883333D01*
X133266666Y-103250000D02*
X133966666Y-103016666D01*
X133266666Y-102783333D01*
%TO.C,JP2*%
X137416666Y-102966666D02*
X137416666Y-103466666D01*
X137383333Y-103566666D01*
X137316666Y-103633333D01*
X137216666Y-103666666D01*
X137150000Y-103666666D01*
X137750000Y-103666666D02*
X137750000Y-102966666D01*
X138016666Y-102966666D01*
X138083333Y-103000000D01*
X138116666Y-103033333D01*
X138150000Y-103100000D01*
X138150000Y-103200000D01*
X138116666Y-103266666D01*
X138083333Y-103300000D01*
X138016666Y-103333333D01*
X137750000Y-103333333D01*
X138416666Y-103033333D02*
X138450000Y-103000000D01*
X138516666Y-102966666D01*
X138683333Y-102966666D01*
X138750000Y-103000000D01*
X138783333Y-103033333D01*
X138816666Y-103100000D01*
X138816666Y-103166666D01*
X138783333Y-103266666D01*
X138383333Y-103666666D01*
X138816666Y-103666666D01*
%TO.C,R1*%
X124033333Y-100366666D02*
X123800000Y-100033333D01*
X123633333Y-100366666D02*
X123633333Y-99666666D01*
X123900000Y-99666666D01*
X123966666Y-99700000D01*
X124000000Y-99733333D01*
X124033333Y-99800000D01*
X124033333Y-99900000D01*
X124000000Y-99966666D01*
X123966666Y-100000000D01*
X123900000Y-100033333D01*
X123633333Y-100033333D01*
X124700000Y-100366666D02*
X124300000Y-100366666D01*
X124500000Y-100366666D02*
X124500000Y-99666666D01*
X124433333Y-99766666D01*
X124366666Y-99833333D01*
X124300000Y-99866666D01*
%TO.C,R2*%
X134733333Y-97366666D02*
X134500000Y-97033333D01*
X134333333Y-97366666D02*
X134333333Y-96666666D01*
X134600000Y-96666666D01*
X134666666Y-96700000D01*
X134700000Y-96733333D01*
X134733333Y-96800000D01*
X134733333Y-96900000D01*
X134700000Y-96966666D01*
X134666666Y-97000000D01*
X134600000Y-97033333D01*
X134333333Y-97033333D01*
X135000000Y-96733333D02*
X135033333Y-96700000D01*
X135100000Y-96666666D01*
X135266666Y-96666666D01*
X135333333Y-96700000D01*
X135366666Y-96733333D01*
X135400000Y-96800000D01*
X135400000Y-96866666D01*
X135366666Y-96966666D01*
X134966666Y-97366666D01*
X135400000Y-97366666D01*
%TO.C,R3*%
X134966666Y-105466666D02*
X134633333Y-105700000D01*
X134966666Y-105866666D02*
X134266666Y-105866666D01*
X134266666Y-105600000D01*
X134300000Y-105533333D01*
X134333333Y-105500000D01*
X134400000Y-105466666D01*
X134500000Y-105466666D01*
X134566666Y-105500000D01*
X134600000Y-105533333D01*
X134633333Y-105600000D01*
X134633333Y-105866666D01*
X134266666Y-105233333D02*
X134266666Y-104800000D01*
X134533333Y-105033333D01*
X134533333Y-104933333D01*
X134566666Y-104866666D01*
X134600000Y-104833333D01*
X134666666Y-104800000D01*
X134833333Y-104800000D01*
X134900000Y-104833333D01*
X134933333Y-104866666D01*
X134966666Y-104933333D01*
X134966666Y-105133333D01*
X134933333Y-105200000D01*
X134900000Y-105233333D01*
%TO.C,R4*%
X119983333Y-94466666D02*
X119750000Y-94133333D01*
X119583333Y-94466666D02*
X119583333Y-93766666D01*
X119850000Y-93766666D01*
X119916666Y-93800000D01*
X119950000Y-93833333D01*
X119983333Y-93900000D01*
X119983333Y-94000000D01*
X119950000Y-94066666D01*
X119916666Y-94100000D01*
X119850000Y-94133333D01*
X119583333Y-94133333D01*
X120583333Y-94000000D02*
X120583333Y-94466666D01*
X120416666Y-93733333D02*
X120250000Y-94233333D01*
X120683333Y-94233333D01*
%TO.C,R5*%
X136366666Y-99566666D02*
X136033333Y-99800000D01*
X136366666Y-99966666D02*
X135666666Y-99966666D01*
X135666666Y-99700000D01*
X135700000Y-99633333D01*
X135733333Y-99600000D01*
X135800000Y-99566666D01*
X135900000Y-99566666D01*
X135966666Y-99600000D01*
X136000000Y-99633333D01*
X136033333Y-99700000D01*
X136033333Y-99966666D01*
X135666666Y-98933333D02*
X135666666Y-99266666D01*
X136000000Y-99300000D01*
X135966666Y-99266666D01*
X135933333Y-99200000D01*
X135933333Y-99033333D01*
X135966666Y-98966666D01*
X136000000Y-98933333D01*
X136066666Y-98900000D01*
X136233333Y-98900000D01*
X136300000Y-98933333D01*
X136333333Y-98966666D01*
X136366666Y-99033333D01*
X136366666Y-99200000D01*
X136333333Y-99266666D01*
X136300000Y-99300000D01*
%TO.C,R6*%
X140533333Y-97366666D02*
X140300000Y-97033333D01*
X140133333Y-97366666D02*
X140133333Y-96666666D01*
X140400000Y-96666666D01*
X140466666Y-96700000D01*
X140500000Y-96733333D01*
X140533333Y-96800000D01*
X140533333Y-96900000D01*
X140500000Y-96966666D01*
X140466666Y-97000000D01*
X140400000Y-97033333D01*
X140133333Y-97033333D01*
X141133333Y-96666666D02*
X141000000Y-96666666D01*
X140933333Y-96700000D01*
X140900000Y-96733333D01*
X140833333Y-96833333D01*
X140800000Y-96966666D01*
X140800000Y-97233333D01*
X140833333Y-97300000D01*
X140866666Y-97333333D01*
X140933333Y-97366666D01*
X141066666Y-97366666D01*
X141133333Y-97333333D01*
X141166666Y-97300000D01*
X141200000Y-97233333D01*
X141200000Y-97066666D01*
X141166666Y-97000000D01*
X141133333Y-96966666D01*
X141066666Y-96933333D01*
X140933333Y-96933333D01*
X140866666Y-96966666D01*
X140833333Y-97000000D01*
X140800000Y-97066666D01*
%TO.C,R7*%
X140533333Y-103266666D02*
X140300000Y-102933333D01*
X140133333Y-103266666D02*
X140133333Y-102566666D01*
X140400000Y-102566666D01*
X140466666Y-102600000D01*
X140500000Y-102633333D01*
X140533333Y-102700000D01*
X140533333Y-102800000D01*
X140500000Y-102866666D01*
X140466666Y-102900000D01*
X140400000Y-102933333D01*
X140133333Y-102933333D01*
X140766666Y-102566666D02*
X141233333Y-102566666D01*
X140933333Y-103266666D01*
%TO.C,R8*%
X111883333Y-93016666D02*
X111650000Y-92683333D01*
X111483333Y-93016666D02*
X111483333Y-92316666D01*
X111750000Y-92316666D01*
X111816666Y-92350000D01*
X111850000Y-92383333D01*
X111883333Y-92450000D01*
X111883333Y-92550000D01*
X111850000Y-92616666D01*
X111816666Y-92650000D01*
X111750000Y-92683333D01*
X111483333Y-92683333D01*
X112283333Y-92616666D02*
X112216666Y-92583333D01*
X112183333Y-92550000D01*
X112150000Y-92483333D01*
X112150000Y-92450000D01*
X112183333Y-92383333D01*
X112216666Y-92350000D01*
X112283333Y-92316666D01*
X112416666Y-92316666D01*
X112483333Y-92350000D01*
X112516666Y-92383333D01*
X112550000Y-92450000D01*
X112550000Y-92483333D01*
X112516666Y-92550000D01*
X112483333Y-92583333D01*
X112416666Y-92616666D01*
X112283333Y-92616666D01*
X112216666Y-92650000D01*
X112183333Y-92683333D01*
X112150000Y-92750000D01*
X112150000Y-92883333D01*
X112183333Y-92950000D01*
X112216666Y-92983333D01*
X112283333Y-93016666D01*
X112416666Y-93016666D01*
X112483333Y-92983333D01*
X112516666Y-92950000D01*
X112550000Y-92883333D01*
X112550000Y-92750000D01*
X112516666Y-92683333D01*
X112483333Y-92650000D01*
X112416666Y-92616666D01*
%TO.C,R9*%
X116533333Y-108616666D02*
X116300000Y-108283333D01*
X116133333Y-108616666D02*
X116133333Y-107916666D01*
X116400000Y-107916666D01*
X116466666Y-107950000D01*
X116500000Y-107983333D01*
X116533333Y-108050000D01*
X116533333Y-108150000D01*
X116500000Y-108216666D01*
X116466666Y-108250000D01*
X116400000Y-108283333D01*
X116133333Y-108283333D01*
X116866666Y-108616666D02*
X117000000Y-108616666D01*
X117066666Y-108583333D01*
X117100000Y-108550000D01*
X117166666Y-108450000D01*
X117200000Y-108316666D01*
X117200000Y-108050000D01*
X117166666Y-107983333D01*
X117133333Y-107950000D01*
X117066666Y-107916666D01*
X116933333Y-107916666D01*
X116866666Y-107950000D01*
X116833333Y-107983333D01*
X116800000Y-108050000D01*
X116800000Y-108216666D01*
X116833333Y-108283333D01*
X116866666Y-108316666D01*
X116933333Y-108350000D01*
X117066666Y-108350000D01*
X117133333Y-108316666D01*
X117166666Y-108283333D01*
X117200000Y-108216666D01*
%TO.C,SW1*%
X104633333Y-92033333D02*
X104666666Y-91933333D01*
X104666666Y-91766666D01*
X104633333Y-91700000D01*
X104600000Y-91666666D01*
X104533333Y-91633333D01*
X104466666Y-91633333D01*
X104400000Y-91666666D01*
X104366666Y-91700000D01*
X104333333Y-91766666D01*
X104300000Y-91900000D01*
X104266666Y-91966666D01*
X104233333Y-92000000D01*
X104166666Y-92033333D01*
X104100000Y-92033333D01*
X104033333Y-92000000D01*
X104000000Y-91966666D01*
X103966666Y-91900000D01*
X103966666Y-91733333D01*
X104000000Y-91633333D01*
X103966666Y-91400000D02*
X104666666Y-91233333D01*
X104166666Y-91100000D01*
X104666666Y-90966666D01*
X103966666Y-90800000D01*
X104666666Y-90166666D02*
X104666666Y-90566666D01*
X104666666Y-90366666D02*
X103966666Y-90366666D01*
X104066666Y-90433333D01*
X104133333Y-90500000D01*
X104166666Y-90566666D01*
%TO.C,SW2*%
X119883333Y-92033333D02*
X119916666Y-91933333D01*
X119916666Y-91766666D01*
X119883333Y-91700000D01*
X119850000Y-91666666D01*
X119783333Y-91633333D01*
X119716666Y-91633333D01*
X119650000Y-91666666D01*
X119616666Y-91700000D01*
X119583333Y-91766666D01*
X119550000Y-91900000D01*
X119516666Y-91966666D01*
X119483333Y-92000000D01*
X119416666Y-92033333D01*
X119350000Y-92033333D01*
X119283333Y-92000000D01*
X119250000Y-91966666D01*
X119216666Y-91900000D01*
X119216666Y-91733333D01*
X119250000Y-91633333D01*
X119216666Y-91400000D02*
X119916666Y-91233333D01*
X119416666Y-91100000D01*
X119916666Y-90966666D01*
X119216666Y-90800000D01*
X119283333Y-90566666D02*
X119250000Y-90533333D01*
X119216666Y-90466666D01*
X119216666Y-90300000D01*
X119250000Y-90233333D01*
X119283333Y-90200000D01*
X119350000Y-90166666D01*
X119416666Y-90166666D01*
X119516666Y-90200000D01*
X119916666Y-90600000D01*
X119916666Y-90166666D01*
%TO.C,U1*%
X113616666Y-96466666D02*
X113616666Y-97033333D01*
X113650000Y-97100000D01*
X113683333Y-97133333D01*
X113750000Y-97166666D01*
X113883333Y-97166666D01*
X113950000Y-97133333D01*
X113983333Y-97100000D01*
X114016666Y-97033333D01*
X114016666Y-96466666D01*
X114716666Y-97166666D02*
X114316666Y-97166666D01*
X114516666Y-97166666D02*
X114516666Y-96466666D01*
X114450000Y-96566666D01*
X114383333Y-96633333D01*
X114316666Y-96666666D01*
%TO.C,U2*%
X126666666Y-97716666D02*
X126666666Y-98283333D01*
X126700000Y-98350000D01*
X126733333Y-98383333D01*
X126800000Y-98416666D01*
X126933333Y-98416666D01*
X127000000Y-98383333D01*
X127033333Y-98350000D01*
X127066666Y-98283333D01*
X127066666Y-97716666D01*
X127366666Y-97783333D02*
X127400000Y-97750000D01*
X127466666Y-97716666D01*
X127633333Y-97716666D01*
X127700000Y-97750000D01*
X127733333Y-97783333D01*
X127766666Y-97850000D01*
X127766666Y-97916666D01*
X127733333Y-98016666D01*
X127333333Y-98416666D01*
X127766666Y-98416666D01*
%TO.C,U3*%
X112016666Y-101633333D02*
X112583333Y-101633333D01*
X112650000Y-101600000D01*
X112683333Y-101566666D01*
X112716666Y-101500000D01*
X112716666Y-101366666D01*
X112683333Y-101300000D01*
X112650000Y-101266666D01*
X112583333Y-101233333D01*
X112016666Y-101233333D01*
X112016666Y-100966666D02*
X112016666Y-100533333D01*
X112283333Y-100766666D01*
X112283333Y-100666666D01*
X112316666Y-100600000D01*
X112350000Y-100566666D01*
X112416666Y-100533333D01*
X112583333Y-100533333D01*
X112650000Y-100566666D01*
X112683333Y-100600000D01*
X112716666Y-100666666D01*
X112716666Y-100866666D01*
X112683333Y-100933333D01*
X112650000Y-100966666D01*
%TO.C,U4*%
X107516666Y-104783333D02*
X108083333Y-104783333D01*
X108150000Y-104750000D01*
X108183333Y-104716666D01*
X108216666Y-104650000D01*
X108216666Y-104516666D01*
X108183333Y-104450000D01*
X108150000Y-104416666D01*
X108083333Y-104383333D01*
X107516666Y-104383333D01*
X107750000Y-103750000D02*
X108216666Y-103750000D01*
X107483333Y-103916666D02*
X107983333Y-104083333D01*
X107983333Y-103650000D01*
%TO.C,U5*%
X111866666Y-94866666D02*
X111866666Y-95433333D01*
X111900000Y-95500000D01*
X111933333Y-95533333D01*
X112000000Y-95566666D01*
X112133333Y-95566666D01*
X112200000Y-95533333D01*
X112233333Y-95500000D01*
X112266666Y-95433333D01*
X112266666Y-94866666D01*
X112933333Y-94866666D02*
X112600000Y-94866666D01*
X112566666Y-95200000D01*
X112600000Y-95166666D01*
X112666666Y-95133333D01*
X112833333Y-95133333D01*
X112900000Y-95166666D01*
X112933333Y-95200000D01*
X112966666Y-95266666D01*
X112966666Y-95433333D01*
X112933333Y-95500000D01*
X112900000Y-95533333D01*
X112833333Y-95566666D01*
X112666666Y-95566666D01*
X112600000Y-95533333D01*
X112566666Y-95500000D01*
%TO.C,U6*%
X107466666Y-108683333D02*
X108033333Y-108683333D01*
X108100000Y-108650000D01*
X108133333Y-108616666D01*
X108166666Y-108550000D01*
X108166666Y-108416666D01*
X108133333Y-108350000D01*
X108100000Y-108316666D01*
X108033333Y-108283333D01*
X107466666Y-108283333D01*
X107466666Y-107650000D02*
X107466666Y-107783333D01*
X107500000Y-107850000D01*
X107533333Y-107883333D01*
X107633333Y-107950000D01*
X107766666Y-107983333D01*
X108033333Y-107983333D01*
X108100000Y-107950000D01*
X108133333Y-107916666D01*
X108166666Y-107850000D01*
X108166666Y-107716666D01*
X108133333Y-107650000D01*
X108100000Y-107616666D01*
X108033333Y-107583333D01*
X107866666Y-107583333D01*
X107800000Y-107616666D01*
X107766666Y-107650000D01*
X107733333Y-107716666D01*
X107733333Y-107850000D01*
X107766666Y-107916666D01*
X107800000Y-107950000D01*
X107866666Y-107983333D01*
%TO.C,U7*%
X111316666Y-108683333D02*
X111883333Y-108683333D01*
X111950000Y-108650000D01*
X111983333Y-108616666D01*
X112016666Y-108550000D01*
X112016666Y-108416666D01*
X111983333Y-108350000D01*
X111950000Y-108316666D01*
X111883333Y-108283333D01*
X111316666Y-108283333D01*
X111316666Y-108016666D02*
X111316666Y-107550000D01*
X112016666Y-107850000D01*
%TO.C,J3*%
X144316666Y-107316666D02*
X144316666Y-107816666D01*
X144283333Y-107916666D01*
X144216666Y-107983333D01*
X144116666Y-108016666D01*
X144050000Y-108016666D01*
X144583333Y-107316666D02*
X145016666Y-107316666D01*
X144783333Y-107583333D01*
X144883333Y-107583333D01*
X144950000Y-107616666D01*
X144983333Y-107650000D01*
X145016666Y-107716666D01*
X145016666Y-107883333D01*
X144983333Y-107950000D01*
X144950000Y-107983333D01*
X144883333Y-108016666D01*
X144683333Y-108016666D01*
X144616666Y-107983333D01*
X144583333Y-107950000D01*
%TO.C,J2*%
X133266666Y-107316666D02*
X133266666Y-107816666D01*
X133233333Y-107916666D01*
X133166666Y-107983333D01*
X133066666Y-108016666D01*
X133000000Y-108016666D01*
X133566666Y-107383333D02*
X133600000Y-107350000D01*
X133666666Y-107316666D01*
X133833333Y-107316666D01*
X133900000Y-107350000D01*
X133933333Y-107383333D01*
X133966666Y-107450000D01*
X133966666Y-107516666D01*
X133933333Y-107616666D01*
X133533333Y-108016666D01*
X133966666Y-108016666D01*
D13*
%TO.C,C1*%
X127610000Y-99957836D02*
X127610000Y-99742164D01*
X126890000Y-99957836D02*
X126890000Y-99742164D01*
%TO.C,C2*%
X104810000Y-106542164D02*
X104810000Y-106757836D01*
X104090000Y-106542164D02*
X104090000Y-106757836D01*
%TO.C,C3*%
X107310000Y-106757836D02*
X107310000Y-106542164D01*
X106590000Y-106757836D02*
X106590000Y-106542164D01*
%TO.C,C4*%
X112957836Y-105160000D02*
X112742164Y-105160000D01*
X112957836Y-104440000D02*
X112742164Y-104440000D01*
%TO.C,C5*%
X122642164Y-96940000D02*
X122857836Y-96940000D01*
X122642164Y-97660000D02*
X122857836Y-97660000D01*
%TO.C,C6*%
X122642164Y-96610000D02*
X122857836Y-96610000D01*
X122642164Y-95890000D02*
X122857836Y-95890000D01*
%TO.C,C7*%
X122642164Y-94840000D02*
X122857836Y-94840000D01*
X122642164Y-95560000D02*
X122857836Y-95560000D01*
%TO.C,C8*%
X116057836Y-94840000D02*
X115842164Y-94840000D01*
X116057836Y-95560000D02*
X115842164Y-95560000D01*
%TO.C,C9*%
X116057836Y-93790000D02*
X115842164Y-93790000D01*
X116057836Y-94510000D02*
X115842164Y-94510000D01*
%TO.C,C10*%
X122642164Y-104390000D02*
X122857836Y-104390000D01*
X122642164Y-105110000D02*
X122857836Y-105110000D01*
%TO.C,C11*%
X122642164Y-106160000D02*
X122857836Y-106160000D01*
X122642164Y-105440000D02*
X122857836Y-105440000D01*
%TO.C,C12*%
X135290000Y-103807836D02*
X135290000Y-103592164D01*
X136010000Y-103807836D02*
X136010000Y-103592164D01*
%TO.C,C13*%
X109907836Y-102660000D02*
X109692164Y-102660000D01*
X109907836Y-101940000D02*
X109692164Y-101940000D01*
%TO.C,C14*%
X108542164Y-93790000D02*
X108757836Y-93790000D01*
X108542164Y-94510000D02*
X108757836Y-94510000D01*
%TO.C,C15*%
X110957836Y-93790000D02*
X110742164Y-93790000D01*
X110957836Y-94510000D02*
X110742164Y-94510000D01*
%TO.C,C16*%
X112760000Y-96957836D02*
X112760000Y-96742164D01*
X112040000Y-96957836D02*
X112040000Y-96742164D01*
%TO.C,C17*%
X118392164Y-95560000D02*
X118607836Y-95560000D01*
X118392164Y-94840000D02*
X118607836Y-94840000D01*
%TO.C,C18*%
X109907836Y-106560000D02*
X109692164Y-106560000D01*
X109907836Y-105840000D02*
X109692164Y-105840000D01*
%TO.C,C19*%
X113392164Y-106560000D02*
X113607836Y-106560000D01*
X113392164Y-105840000D02*
X113607836Y-105840000D01*
%TO.C,C20*%
X121140000Y-108157836D02*
X121140000Y-107942164D01*
X121860000Y-108157836D02*
X121860000Y-107942164D01*
%TO.C,D1*%
X141500000Y-98440000D02*
X139825000Y-98440000D01*
X141500000Y-98440000D02*
X142150000Y-98440000D01*
X141500000Y-101560000D02*
X142150000Y-101560000D01*
X141500000Y-101560000D02*
X140850000Y-101560000D01*
D12*
%TO.C,D2*%
X142950000Y-95960000D02*
G75*
G03*
X142950000Y-95960000I-50000J0D01*
G01*
%TO.C,D3*%
X142950000Y-104040000D02*
G75*
G03*
X142950000Y-104040000I-50000J0D01*
G01*
%TO.C,D4*%
X113140000Y-90600000D02*
G75*
G03*
X113140000Y-90600000I-50000J0D01*
G01*
D13*
%TO.C,D5*%
X120850000Y-107150000D02*
X120850000Y-107900000D01*
X120850000Y-107150000D02*
X117050000Y-107150000D01*
X120850000Y-109950000D02*
X117050000Y-109950000D01*
%TO.C,FB1*%
X105190000Y-106487221D02*
X105190000Y-106812779D01*
X106210000Y-106487221D02*
X106210000Y-106812779D01*
%TO.C,J1*%
X100200000Y-104700000D02*
X98300000Y-104700000D01*
X100200000Y-95300000D02*
X98300000Y-95300000D01*
X104100000Y-104700000D02*
X102100000Y-104700000D01*
X104100000Y-95300000D02*
X102100000Y-95300000D01*
X98300000Y-95300000D02*
X98300000Y-104700000D01*
%TO.C,J4*%
X144375000Y-99500000D02*
X143625000Y-99500000D01*
X143625000Y-102000000D02*
X143625000Y-103800000D01*
X149585000Y-96190000D02*
X143615000Y-96190000D01*
X145875000Y-96200000D02*
X145875000Y-96950000D01*
X149585000Y-103810000D02*
X149585000Y-96190000D01*
X144375000Y-102000000D02*
X143625000Y-102000000D01*
X144375000Y-100500000D02*
X144375000Y-99500000D01*
X143615000Y-96190000D02*
X143615000Y-103810000D01*
X144375000Y-98000000D02*
X144375000Y-96200000D01*
X143615000Y-103810000D02*
X149585000Y-103810000D01*
X144375000Y-103800000D02*
X144375000Y-102000000D01*
X143625000Y-96200000D02*
X143625000Y-98000000D01*
X144375000Y-96200000D02*
X143625000Y-96200000D01*
X145875000Y-103050000D02*
X148825000Y-103050000D01*
X143625000Y-98000000D02*
X144375000Y-98000000D01*
X145875000Y-96950000D02*
X148825000Y-96950000D01*
X143625000Y-103800000D02*
X144375000Y-103800000D01*
X145875000Y-103800000D02*
X145875000Y-103050000D01*
X143625000Y-99500000D02*
X143625000Y-100500000D01*
X143625000Y-100500000D02*
X144375000Y-100500000D01*
X148825000Y-103050000D02*
X148825000Y-100000000D01*
X148825000Y-96950000D02*
X148825000Y-100000000D01*
%TO.C,J5*%
X138090000Y-93460000D02*
X139140000Y-93460000D01*
X139140000Y-93460000D02*
X139140000Y-94450000D01*
X138090000Y-92310000D02*
X138090000Y-93460000D01*
X144310000Y-93460000D02*
X143260000Y-93460000D01*
X144310000Y-92310000D02*
X144310000Y-93460000D01*
X139260000Y-90340000D02*
X143140000Y-90340000D01*
%TO.C,J6*%
X130010000Y-90340000D02*
X135890000Y-90340000D01*
X137060000Y-92310000D02*
X137060000Y-93460000D01*
X137060000Y-93460000D02*
X136010000Y-93460000D01*
X128840000Y-93460000D02*
X129890000Y-93460000D01*
X129890000Y-93460000D02*
X129890000Y-94450000D01*
X128840000Y-92310000D02*
X128840000Y-93460000D01*
%TO.C,J7*%
X120590000Y-93460000D02*
X121640000Y-93460000D01*
X121640000Y-93460000D02*
X121640000Y-94450000D01*
X127810000Y-92310000D02*
X127810000Y-93460000D01*
X127810000Y-93460000D02*
X126760000Y-93460000D01*
X121760000Y-90340000D02*
X126640000Y-90340000D01*
X120590000Y-92310000D02*
X120590000Y-93460000D01*
%TO.C,JP1*%
X132400000Y-104850000D02*
X129600000Y-104850000D01*
X133050000Y-103550000D02*
X133050000Y-104150000D01*
X128950000Y-104150000D02*
X128950000Y-103550000D01*
X129600000Y-102850000D02*
X132400000Y-102850000D01*
X132350000Y-104850000D02*
G75*
G03*
X133050000Y-104150000I0J700000D01*
G01*
X128950000Y-104150000D02*
G75*
G03*
X129650000Y-104850000I699999J-1D01*
G01*
X129650000Y-102850000D02*
G75*
G03*
X128950000Y-103550000I-1J-699999D01*
G01*
X133050000Y-103550000D02*
G75*
G03*
X132350000Y-102850000I-700000J0D01*
G01*
%TO.C,JP2*%
X136670000Y-97545000D02*
X138000000Y-97545000D01*
X136670000Y-100145000D02*
X136670000Y-102745000D01*
X136670000Y-98875000D02*
X136670000Y-97545000D01*
X136670000Y-102745000D02*
X139330000Y-102745000D01*
X136670000Y-100145000D02*
X139330000Y-100145000D01*
X139330000Y-100145000D02*
X139330000Y-102745000D01*
%TO.C,R1*%
X123996359Y-101330000D02*
X124303641Y-101330000D01*
X123996359Y-100570000D02*
X124303641Y-100570000D01*
%TO.C,R2*%
X136430000Y-97553641D02*
X136430000Y-97246359D01*
X135670000Y-97553641D02*
X135670000Y-97246359D01*
%TO.C,R3*%
X134220000Y-103853641D02*
X134220000Y-103546359D01*
X134980000Y-103853641D02*
X134980000Y-103546359D01*
%TO.C,R4*%
X118653641Y-93770000D02*
X118346359Y-93770000D01*
X118653641Y-94530000D02*
X118346359Y-94530000D01*
%TO.C,R5*%
X135720000Y-101253641D02*
X135720000Y-100946359D01*
X136480000Y-101253641D02*
X136480000Y-100946359D01*
%TO.C,R6*%
X141420000Y-96896359D02*
X141420000Y-97203641D01*
X142180000Y-96896359D02*
X142180000Y-97203641D01*
%TO.C,R7*%
X142180000Y-103103641D02*
X142180000Y-102796359D01*
X141420000Y-103103641D02*
X141420000Y-102796359D01*
%TO.C,R8*%
X112153641Y-92080000D02*
X111846359Y-92080000D01*
X112153641Y-91320000D02*
X111846359Y-91320000D01*
%TO.C,R9*%
X115946359Y-108920000D02*
X116253641Y-108920000D01*
X115946359Y-109680000D02*
X116253641Y-109680000D01*
%TO.C,U1*%
X121610000Y-97890000D02*
X121610000Y-97440000D01*
X121610000Y-97440000D02*
X121160000Y-97440000D01*
X121610000Y-104660000D02*
X121160000Y-104660000D01*
X114390000Y-104210000D02*
X114390000Y-104660000D01*
X121610000Y-104210000D02*
X121610000Y-104660000D01*
X121160000Y-97440000D02*
X121160000Y-96150000D01*
X114390000Y-97440000D02*
X114840000Y-97440000D01*
X114390000Y-97890000D02*
X114390000Y-97440000D01*
X114390000Y-104660000D02*
X114840000Y-104660000D01*
%TO.C,U2*%
X131650000Y-102560000D02*
X129700000Y-102560000D01*
X131650000Y-97440000D02*
X128200000Y-97440000D01*
X131650000Y-97440000D02*
X133600000Y-97440000D01*
X131650000Y-102560000D02*
X133600000Y-102560000D01*
%TO.C,U3*%
X109800000Y-101560000D02*
X110600000Y-101560000D01*
X109800000Y-98440000D02*
X110600000Y-98440000D01*
X109800000Y-98440000D02*
X108000000Y-98440000D01*
X109800000Y-101560000D02*
X109000000Y-101560000D01*
%TO.C,U4*%
X110500000Y-103090000D02*
X108600000Y-103090000D01*
X109100000Y-105410000D02*
X110500000Y-105410000D01*
%TO.C,U5*%
X109800000Y-97960000D02*
X110600000Y-97960000D01*
X109800000Y-94840000D02*
X108000000Y-94840000D01*
X109800000Y-94840000D02*
X110600000Y-94840000D01*
X109800000Y-97960000D02*
X109000000Y-97960000D01*
%TO.C,U6*%
X109100000Y-109310000D02*
X110500000Y-109310000D01*
X110500000Y-106990000D02*
X108600000Y-106990000D01*
%TO.C,U7*%
X114200000Y-106990000D02*
X112300000Y-106990000D01*
X112800000Y-109310000D02*
X114200000Y-109310000D01*
%TO.C,J3*%
X136761803Y-109325000D02*
G75*
G03*
X136761803Y-109325000I-111803J0D01*
G01*
%TO.C,J2*%
X125761803Y-109325000D02*
G75*
G03*
X125761803Y-109325000I-111803J0D01*
G01*
%TD*%
%LPC*%
D14*
%TO.C,C1*%
X127250000Y-100330000D03*
X127250000Y-99370000D03*
%TD*%
D15*
%TO.C,C2*%
X104450000Y-106170000D03*
X104450000Y-107130000D03*
%TD*%
D14*
%TO.C,C3*%
X106950000Y-107130000D03*
X106950000Y-106170000D03*
%TD*%
D16*
%TO.C,C4*%
X113330000Y-104800000D03*
X112370000Y-104800000D03*
%TD*%
D17*
%TO.C,C5*%
X122270000Y-97300000D03*
X123230000Y-97300000D03*
%TD*%
%TO.C,C6*%
X122270000Y-96250000D03*
X123230000Y-96250000D03*
%TD*%
%TO.C,C7*%
X122270000Y-95200000D03*
X123230000Y-95200000D03*
%TD*%
D16*
%TO.C,C8*%
X116430000Y-95200000D03*
X115470000Y-95200000D03*
%TD*%
%TO.C,C9*%
X116430000Y-94150000D03*
X115470000Y-94150000D03*
%TD*%
D17*
%TO.C,C10*%
X122270000Y-104750000D03*
X123230000Y-104750000D03*
%TD*%
%TO.C,C11*%
X122270000Y-105800000D03*
X123230000Y-105800000D03*
%TD*%
D14*
%TO.C,C12*%
X135650000Y-104180000D03*
X135650000Y-103220000D03*
%TD*%
D16*
%TO.C,C13*%
X110280000Y-102300000D03*
X109320000Y-102300000D03*
%TD*%
D17*
%TO.C,C14*%
X108170000Y-94150000D03*
X109130000Y-94150000D03*
%TD*%
D16*
%TO.C,C15*%
X111330000Y-94150000D03*
X110370000Y-94150000D03*
%TD*%
D14*
%TO.C,C16*%
X112400000Y-97330000D03*
X112400000Y-96370000D03*
%TD*%
D17*
%TO.C,C17*%
X118020000Y-95200000D03*
X118980000Y-95200000D03*
%TD*%
D16*
%TO.C,C18*%
X110280000Y-106200000D03*
X109320000Y-106200000D03*
%TD*%
D17*
%TO.C,C19*%
X113020000Y-106200000D03*
X113980000Y-106200000D03*
%TD*%
D14*
%TO.C,C20*%
X121500000Y-108530000D03*
X121500000Y-107570000D03*
%TD*%
D18*
%TO.C,D1*%
X140562500Y-99050000D03*
X140562500Y-100950000D03*
X142437500Y-100000000D03*
%TD*%
D19*
%TO.C,D2*%
X142900000Y-96565000D03*
X142900000Y-97535000D03*
%TD*%
D20*
%TO.C,D3*%
X142900000Y-103435000D03*
X142900000Y-102465000D03*
%TD*%
D21*
%TO.C,D4*%
X112485000Y-90600000D03*
X111515000Y-90600000D03*
%TD*%
D22*
%TO.C,D5*%
X119950000Y-109200000D03*
X119950000Y-107900000D03*
X117950000Y-107900000D03*
X117950000Y-109200000D03*
%TD*%
D23*
%TO.C,FB1*%
X105700000Y-105862500D03*
X105700000Y-107437500D03*
%TD*%
D24*
%TO.C,H1*%
X102000000Y-92000000D03*
%TD*%
%TO.C,H2*%
X102000000Y-108000000D03*
%TD*%
%TO.C,H3*%
X148000000Y-108000000D03*
%TD*%
%TO.C,H4*%
X148000000Y-92000000D03*
%TD*%
D25*
%TO.C,J1*%
X104800000Y-97110000D03*
X104800000Y-102890000D03*
D26*
X106245000Y-96750000D03*
X106245000Y-97550000D03*
D27*
X106245000Y-98750000D03*
X106245000Y-99750000D03*
X106245000Y-100250000D03*
X106245000Y-101250000D03*
D26*
X106245000Y-102450000D03*
X106245000Y-103250000D03*
X106245000Y-103250000D03*
X106245000Y-102450000D03*
D27*
X106245000Y-101750000D03*
X106245000Y-100750000D03*
X106245000Y-99250000D03*
X106245000Y-98250000D03*
D26*
X106245000Y-97550000D03*
X106245000Y-96750000D03*
D28*
X105330000Y-95680000D03*
X105330000Y-104320000D03*
D29*
X101150000Y-95680000D03*
X101150000Y-104320000D03*
%TD*%
D30*
%TO.C,J4*%
X146075000Y-101250000D03*
D31*
X146075000Y-98750000D03*
%TD*%
D32*
%TO.C,J5*%
X139700000Y-93675000D03*
X140700000Y-93675000D03*
X141700000Y-93675000D03*
X142700000Y-93675000D03*
D33*
X138400000Y-91150000D03*
X144000000Y-91150000D03*
%TD*%
D32*
%TO.C,J6*%
X130450000Y-93675000D03*
X131450000Y-93675000D03*
X132450000Y-93675000D03*
X133450000Y-93675000D03*
X134450000Y-93675000D03*
X135450000Y-93675000D03*
D33*
X136750000Y-91150000D03*
X129150000Y-91150000D03*
%TD*%
D32*
%TO.C,J7*%
X122200000Y-93675000D03*
X123200000Y-93675000D03*
X124200000Y-93675000D03*
X125200000Y-93675000D03*
X126200000Y-93675000D03*
D33*
X120900000Y-91150000D03*
X127500000Y-91150000D03*
%TD*%
D34*
%TO.C,JP1*%
X129700000Y-103850000D03*
D35*
X131000000Y-103850000D03*
D36*
X132300000Y-103850000D03*
%TD*%
D37*
%TO.C,JP2*%
X138000000Y-98875000D03*
D38*
X138000000Y-101415000D03*
%TD*%
D39*
%TO.C,R1*%
X123640000Y-100950000D03*
X124660000Y-100950000D03*
%TD*%
D40*
%TO.C,R2*%
X136050000Y-97910000D03*
X136050000Y-96890000D03*
%TD*%
%TO.C,R3*%
X134600000Y-104210000D03*
X134600000Y-103190000D03*
%TD*%
D41*
%TO.C,R4*%
X119010000Y-94150000D03*
X117990000Y-94150000D03*
%TD*%
D40*
%TO.C,R5*%
X136100000Y-101610000D03*
X136100000Y-100590000D03*
%TD*%
D42*
%TO.C,R6*%
X141800000Y-96540000D03*
X141800000Y-97560000D03*
%TD*%
D40*
%TO.C,R7*%
X141800000Y-103460000D03*
X141800000Y-102440000D03*
%TD*%
D41*
%TO.C,R8*%
X112510000Y-91700000D03*
X111490000Y-91700000D03*
%TD*%
D39*
%TO.C,R9*%
X115590000Y-109300000D03*
X116610000Y-109300000D03*
%TD*%
D43*
%TO.C,SW1*%
X108550000Y-91400000D03*
X106850000Y-91400000D03*
D44*
X106000000Y-92800000D03*
X109400000Y-92800000D03*
D45*
X105400000Y-90800000D03*
X110000000Y-90800000D03*
%TD*%
D43*
%TO.C,SW2*%
X115450000Y-91400000D03*
X117150000Y-91400000D03*
D44*
X114600000Y-92800000D03*
X118000000Y-92800000D03*
D45*
X118600000Y-90800000D03*
X114000000Y-90800000D03*
%TD*%
D46*
%TO.C,U1*%
X120750000Y-96887500D03*
X120250000Y-96887500D03*
X119750000Y-96887500D03*
X119250000Y-96887500D03*
X118750000Y-96887500D03*
X118250000Y-96887500D03*
X117750000Y-96887500D03*
X117250000Y-96887500D03*
X116750000Y-96887500D03*
X116250000Y-96887500D03*
X115750000Y-96887500D03*
X115250000Y-96887500D03*
D47*
X113837500Y-98300000D03*
X113837500Y-98800000D03*
X113837500Y-99300000D03*
X113837500Y-99800000D03*
X113837500Y-100300000D03*
X113837500Y-100800000D03*
X113837500Y-101300000D03*
X113837500Y-101800000D03*
X113837500Y-102300000D03*
X113837500Y-102800000D03*
X113837500Y-103300000D03*
X113837500Y-103800000D03*
D46*
X115250000Y-105212500D03*
X115750000Y-105212500D03*
X116250000Y-105212500D03*
X116750000Y-105212500D03*
X117250000Y-105212500D03*
X117750000Y-105212500D03*
X118250000Y-105212500D03*
X118750000Y-105212500D03*
X119250000Y-105212500D03*
X119750000Y-105212500D03*
X120250000Y-105212500D03*
X120750000Y-105212500D03*
D47*
X122162500Y-103800000D03*
X122162500Y-103300000D03*
X122162500Y-102800000D03*
X122162500Y-102300000D03*
X122162500Y-101800000D03*
X122162500Y-101300000D03*
X122162500Y-100800000D03*
X122162500Y-100300000D03*
X122162500Y-99800000D03*
X122162500Y-99300000D03*
X122162500Y-98800000D03*
X122162500Y-98300000D03*
%TD*%
D48*
%TO.C,U2*%
X129175000Y-98095000D03*
X129175000Y-99365000D03*
X129175000Y-100635000D03*
X129175000Y-101905000D03*
X134125000Y-101905000D03*
X134125000Y-100635000D03*
X134125000Y-99365000D03*
X134125000Y-98095000D03*
%TD*%
D49*
%TO.C,U3*%
X108662500Y-99050000D03*
X108662500Y-100000000D03*
X108662500Y-100950000D03*
X110937500Y-100950000D03*
X110937500Y-100000000D03*
X110937500Y-99050000D03*
%TD*%
D50*
%TO.C,U4*%
X108850000Y-103600000D03*
X108850000Y-104250000D03*
X108850000Y-104900000D03*
X110750000Y-104900000D03*
X110750000Y-103600000D03*
%TD*%
D49*
%TO.C,U5*%
X108662500Y-95450000D03*
X108662500Y-96400000D03*
X108662500Y-97350000D03*
X110937500Y-97350000D03*
X110937500Y-95450000D03*
%TD*%
D50*
%TO.C,U6*%
X108850000Y-107500000D03*
X108850000Y-108150000D03*
X108850000Y-108800000D03*
X110750000Y-108800000D03*
X110750000Y-107500000D03*
%TD*%
%TO.C,U7*%
X112550000Y-107500000D03*
X112550000Y-108150000D03*
X112550000Y-108800000D03*
X114450000Y-108800000D03*
X114450000Y-107500000D03*
%TD*%
D51*
%TO.C,J3*%
X135500000Y-107700000D03*
X142500000Y-107700000D03*
D52*
X140750000Y-106600000D03*
X140250000Y-108800000D03*
X139750000Y-106600000D03*
X139250000Y-108800000D03*
X138750000Y-106600000D03*
X138250000Y-108800000D03*
X137750000Y-106600000D03*
X137250000Y-108800000D03*
%TD*%
D51*
%TO.C,J2*%
X124500000Y-107700000D03*
X131500000Y-107700000D03*
D52*
X129750000Y-106600000D03*
X129250000Y-108800000D03*
X128750000Y-106600000D03*
X128250000Y-108800000D03*
X127750000Y-106600000D03*
X127250000Y-108800000D03*
X126750000Y-106600000D03*
X126250000Y-108800000D03*
%TD*%
D53*
X124150000Y-98050000D03*
X119800000Y-104000000D03*
X129250000Y-107650000D03*
X109950000Y-104900000D03*
X110000000Y-108800000D03*
X140900000Y-109200000D03*
X109800000Y-96400000D03*
X123500000Y-98700000D03*
X107700000Y-103250000D03*
X111650000Y-104800000D03*
X129750000Y-105500000D03*
X114700000Y-94150000D03*
X124100000Y-105750000D03*
X111700000Y-98200000D03*
X120250000Y-106300000D03*
X114700000Y-97750000D03*
X117250000Y-95000000D03*
X124100000Y-97250000D03*
X104450000Y-107850000D03*
X116000000Y-102500000D03*
D54*
X141000000Y-100000000D03*
D53*
X107700000Y-107350000D03*
X123200000Y-92100000D03*
X111650000Y-107000000D03*
X119000000Y-92500000D03*
X117750000Y-98800000D03*
X107700000Y-98200000D03*
X140750000Y-105500000D03*
X126350000Y-97350000D03*
X111150000Y-92800000D03*
X114500000Y-105500000D03*
X120000000Y-102500000D03*
D54*
X144000000Y-100000000D03*
D53*
X114600000Y-91850000D03*
X115750000Y-104000000D03*
X109800000Y-100000000D03*
X126500000Y-99000000D03*
X104400000Y-93800000D03*
X120950000Y-98800000D03*
X138500000Y-97500000D03*
X130850000Y-99350000D03*
X140700000Y-92100000D03*
X125400000Y-100950000D03*
X131450000Y-92100000D03*
X139750000Y-105500000D03*
X111100000Y-102350000D03*
X111100000Y-106200000D03*
D55*
X107350000Y-94150000D03*
D53*
X112087500Y-100000000D03*
X128750000Y-105500000D03*
D55*
X106950000Y-107950000D03*
D53*
X109800000Y-99050000D03*
X118543056Y-103684166D03*
X109800000Y-100850000D03*
X118950000Y-103000000D03*
X119000000Y-93150000D03*
X136550000Y-104200000D03*
D55*
X122200000Y-92100000D03*
X112150000Y-94150000D03*
X130450000Y-92100000D03*
D53*
X110300000Y-92800000D03*
X117200000Y-94150000D03*
X133550000Y-104100000D03*
X114050000Y-104800000D03*
D55*
X139700000Y-92100000D03*
D53*
X121550000Y-105800000D03*
X106900000Y-92800000D03*
X121000000Y-100250500D03*
X112250000Y-102950000D03*
X109600000Y-108150000D03*
X118000000Y-91950000D03*
X124200000Y-92100000D03*
X132450000Y-92450000D03*
X115050000Y-98450000D03*
X133450000Y-92450000D03*
X115788556Y-98488556D03*
X134450000Y-92450000D03*
X116377350Y-98799500D03*
X135450000Y-92450000D03*
X116755536Y-99349000D03*
X141700000Y-92450000D03*
X119150000Y-100750000D03*
X142700000Y-92450000D03*
X119900000Y-100700000D03*
X119600000Y-98750000D03*
X141800000Y-95800000D03*
X120150000Y-99100000D03*
X141800000Y-104200000D03*
X124950000Y-98050000D03*
X121000000Y-103550000D03*
X113800000Y-96000000D03*
X112900000Y-92450000D03*
X126250000Y-107650000D03*
X116096402Y-107505673D03*
X126750000Y-105500000D03*
X116900000Y-106450000D03*
X127250000Y-107650000D03*
X115725765Y-108074235D03*
X127750000Y-105500000D03*
X116497789Y-106959980D03*
X128250000Y-107650000D03*
X115050000Y-102850000D03*
X137250000Y-107650000D03*
X117400000Y-103750000D03*
X137750000Y-105500000D03*
X124705741Y-101892824D03*
X138250000Y-107650000D03*
X123450000Y-103414556D03*
X138750000Y-105500000D03*
X124300000Y-102400000D03*
X139250000Y-107650000D03*
X123901901Y-102948038D03*
X116700000Y-103750000D03*
X113300000Y-107650000D03*
M02*
