%TF.GenerationSoftware,KiCad,Pcbnew,(6.0.6)*%
%TF.CreationDate,2022-07-10T21:22:37+02:00*%
%TF.ProjectId,GCode_Buttons_MCU,47436f64-655f-4427-9574-746f6e735f4d,rev?*%
%TF.SameCoordinates,Original*%
%TF.FileFunction,Legend,Bot*%
%TF.FilePolarity,Positive*%
%FSLAX46Y46*%
G04 Gerber Fmt 4.6, Leading zero omitted, Abs format (unit mm)*
G04 Created by KiCad (PCBNEW (6.0.6)) date 2022-07-10 21:22:37*
%MOMM*%
%LPD*%
G01*
G04 APERTURE LIST*
G04 Aperture macros list*
%AMRoundRect*
0 Rectangle with rounded corners*
0 $1 Rounding radius*
0 $2 $3 $4 $5 $6 $7 $8 $9 X,Y pos of 4 corners*
0 Add a 4 corners polygon primitive as box body*
4,1,4,$2,$3,$4,$5,$6,$7,$8,$9,$2,$3,0*
0 Add four circle primitives for the rounded corners*
1,1,$1+$1,$2,$3*
1,1,$1+$1,$4,$5*
1,1,$1+$1,$6,$7*
1,1,$1+$1,$8,$9*
0 Add four rect primitives between the rounded corners*
20,1,$1+$1,$2,$3,$4,$5,0*
20,1,$1+$1,$4,$5,$6,$7,0*
20,1,$1+$1,$6,$7,$8,$9,0*
20,1,$1+$1,$8,$9,$2,$3,0*%
G04 Aperture macros list end*
%ADD10C,0.005000*%
%ADD11C,2.200000*%
%ADD12C,0.650000*%
%ADD13O,2.100000X1.000000*%
%ADD14O,1.600000X1.000000*%
%ADD15RoundRect,0.250000X0.750000X-0.600000X0.750000X0.600000X-0.750000X0.600000X-0.750000X-0.600000X0*%
%ADD16O,2.000000X1.700000*%
%ADD17R,1.700000X1.700000*%
%ADD18O,1.700000X1.700000*%
%ADD19C,0.700000*%
%ADD20C,0.450000*%
%ADD21C,0.800000*%
%ADD22C,0.600000*%
G04 APERTURE END LIST*
D10*
G36*
X137022464Y-102517716D02*
G01*
X135703053Y-102519105D01*
X133229424Y-98750381D01*
X133229424Y-98750380D01*
X133291100Y-98580344D01*
X133348864Y-98407555D01*
X133402594Y-98232347D01*
X133452164Y-98055055D01*
X133497450Y-97876015D01*
X133538328Y-97695561D01*
X133574674Y-97514028D01*
X133606363Y-97331751D01*
X137022464Y-102517716D01*
G37*
X137022464Y-102517716D02*
X135703053Y-102519105D01*
X133229424Y-98750381D01*
X133229424Y-98750380D01*
X133291100Y-98580344D01*
X133348864Y-98407555D01*
X133402594Y-98232347D01*
X133452164Y-98055055D01*
X133497450Y-97876015D01*
X133538328Y-97695561D01*
X133574674Y-97514028D01*
X133606363Y-97331751D01*
X137022464Y-102517716D01*
G36*
X134953753Y-102520097D02*
G01*
X133634739Y-102521976D01*
X132294982Y-100474803D01*
X132382236Y-100352981D01*
X132467019Y-100229308D01*
X132549298Y-100103820D01*
X132629040Y-99976556D01*
X132706209Y-99847551D01*
X132780773Y-99716843D01*
X132852699Y-99584470D01*
X132921952Y-99450468D01*
X134953753Y-102520097D01*
G37*
X134953753Y-102520097D02*
X133634739Y-102521976D01*
X132294982Y-100474803D01*
X132382236Y-100352981D01*
X132467019Y-100229308D01*
X132549298Y-100103820D01*
X132629040Y-99976556D01*
X132706209Y-99847551D01*
X132780773Y-99716843D01*
X132852699Y-99584470D01*
X132921952Y-99450468D01*
X134953753Y-102520097D01*
G36*
X132885042Y-102519105D02*
G01*
X131564149Y-102521976D01*
X131075491Y-101773682D01*
X131075491Y-101773668D01*
X131182101Y-101683065D01*
X131286934Y-101590461D01*
X131389961Y-101495885D01*
X131491153Y-101399366D01*
X131590480Y-101300930D01*
X131687913Y-101200606D01*
X131783423Y-101098421D01*
X131876980Y-100994404D01*
X132885042Y-102519105D01*
G37*
X132885042Y-102519105D02*
X131564149Y-102521976D01*
X131075491Y-101773682D01*
X131075491Y-101773668D01*
X131182101Y-101683065D01*
X131286934Y-101590461D01*
X131389961Y-101495885D01*
X131491153Y-101399366D01*
X131590480Y-101300930D01*
X131687913Y-101200606D01*
X131783423Y-101098421D01*
X131876980Y-100994404D01*
X132885042Y-102519105D01*
%LPC*%
D11*
%TO.C,H1*%
X102000000Y-92000000D03*
%TD*%
%TO.C,H2*%
X102000000Y-108000000D03*
%TD*%
%TO.C,H3*%
X148000000Y-108000000D03*
%TD*%
%TO.C,H4*%
X148000000Y-92000000D03*
%TD*%
D12*
%TO.C,J1*%
X104800000Y-97110000D03*
X104800000Y-102890000D03*
D13*
X105330000Y-95680000D03*
X105330000Y-104320000D03*
D14*
X101150000Y-95680000D03*
X101150000Y-104320000D03*
%TD*%
D15*
%TO.C,J4*%
X146075000Y-101250000D03*
D16*
X146075000Y-98750000D03*
%TD*%
D17*
%TO.C,JP2*%
X138000000Y-98875000D03*
D18*
X138000000Y-101415000D03*
%TD*%
D19*
%TO.C,SW1*%
X108550000Y-91400000D03*
X106850000Y-91400000D03*
%TD*%
%TO.C,SW2*%
X115450000Y-91400000D03*
X117150000Y-91400000D03*
%TD*%
D20*
X124150000Y-98050000D03*
X119800000Y-104000000D03*
X129250000Y-107650000D03*
X109950000Y-104900000D03*
X110000000Y-108800000D03*
X140900000Y-109200000D03*
X109800000Y-96400000D03*
X123500000Y-98700000D03*
X107700000Y-103250000D03*
X111650000Y-104800000D03*
X129750000Y-105500000D03*
X114700000Y-94150000D03*
X124100000Y-105750000D03*
X111700000Y-98200000D03*
X120250000Y-106300000D03*
X114700000Y-97750000D03*
X117250000Y-95000000D03*
X124100000Y-97250000D03*
X104450000Y-107850000D03*
X116000000Y-102500000D03*
D21*
X141000000Y-100000000D03*
D20*
X107700000Y-107350000D03*
X123200000Y-92100000D03*
X111650000Y-107000000D03*
X119000000Y-92500000D03*
X117750000Y-98800000D03*
X107700000Y-98200000D03*
X140750000Y-105500000D03*
X126350000Y-97350000D03*
X111150000Y-92800000D03*
X114500000Y-105500000D03*
X120000000Y-102500000D03*
D21*
X144000000Y-100000000D03*
D20*
X114600000Y-91850000D03*
X115750000Y-104000000D03*
X109800000Y-100000000D03*
X126500000Y-99000000D03*
X104400000Y-93800000D03*
X120950000Y-98800000D03*
X138500000Y-97500000D03*
X130850000Y-99350000D03*
X140700000Y-92100000D03*
X125400000Y-100950000D03*
X131450000Y-92100000D03*
X139750000Y-105500000D03*
X111100000Y-102350000D03*
X111100000Y-106200000D03*
D22*
X107350000Y-94150000D03*
D20*
X112087500Y-100000000D03*
X128750000Y-105500000D03*
D22*
X106950000Y-107950000D03*
D20*
X109800000Y-99050000D03*
X118543056Y-103684166D03*
X109800000Y-100850000D03*
X118950000Y-103000000D03*
X119000000Y-93150000D03*
X136550000Y-104200000D03*
D22*
X122200000Y-92100000D03*
X112150000Y-94150000D03*
X130450000Y-92100000D03*
D20*
X110300000Y-92800000D03*
X117200000Y-94150000D03*
X133550000Y-104100000D03*
X114050000Y-104800000D03*
D22*
X139700000Y-92100000D03*
D20*
X121550000Y-105800000D03*
X106900000Y-92800000D03*
X121000000Y-100250500D03*
X112250000Y-102950000D03*
X109600000Y-108150000D03*
X118000000Y-91950000D03*
X124200000Y-92100000D03*
X132450000Y-92450000D03*
X115050000Y-98450000D03*
X133450000Y-92450000D03*
X115788556Y-98488556D03*
X134450000Y-92450000D03*
X116377350Y-98799500D03*
X135450000Y-92450000D03*
X116755536Y-99349000D03*
X141700000Y-92450000D03*
X119150000Y-100750000D03*
X142700000Y-92450000D03*
X119900000Y-100700000D03*
X119600000Y-98750000D03*
X141800000Y-95800000D03*
X120150000Y-99100000D03*
X141800000Y-104200000D03*
X124950000Y-98050000D03*
X121000000Y-103550000D03*
X113800000Y-96000000D03*
X112900000Y-92450000D03*
X126250000Y-107650000D03*
X116096402Y-107505673D03*
X126750000Y-105500000D03*
X116900000Y-106450000D03*
X127250000Y-107650000D03*
X115725765Y-108074235D03*
X127750000Y-105500000D03*
X116497789Y-106959980D03*
X128250000Y-107650000D03*
X115050000Y-102850000D03*
X137250000Y-107650000D03*
X117400000Y-103750000D03*
X137750000Y-105500000D03*
X124705741Y-101892824D03*
X138250000Y-107650000D03*
X123450000Y-103414556D03*
X138750000Y-105500000D03*
X124300000Y-102400000D03*
X139250000Y-107650000D03*
X123901901Y-102948038D03*
X116700000Y-103750000D03*
X113300000Y-107650000D03*
M02*
