%TF.GenerationSoftware,KiCad,Pcbnew,(6.0.6)*%
%TF.CreationDate,2022-07-10T21:38:46+02:00*%
%TF.ProjectId,GCode_Buttons_B3K-T13L,47436f64-655f-4427-9574-746f6e735f42,rev?*%
%TF.SameCoordinates,Original*%
%TF.FileFunction,Copper,L1,Top*%
%TF.FilePolarity,Positive*%
%FSLAX46Y46*%
G04 Gerber Fmt 4.6, Leading zero omitted, Abs format (unit mm)*
G04 Created by KiCad (PCBNEW (6.0.6)) date 2022-07-10 21:38:46*
%MOMM*%
%LPD*%
G01*
G04 APERTURE LIST*
G04 Aperture macros list*
%AMRoundRect*
0 Rectangle with rounded corners*
0 $1 Rounding radius*
0 $2 $3 $4 $5 $6 $7 $8 $9 X,Y pos of 4 corners*
0 Add a 4 corners polygon primitive as box body*
4,1,4,$2,$3,$4,$5,$6,$7,$8,$9,$2,$3,0*
0 Add four circle primitives for the rounded corners*
1,1,$1+$1,$2,$3*
1,1,$1+$1,$4,$5*
1,1,$1+$1,$6,$7*
1,1,$1+$1,$8,$9*
0 Add four rect primitives between the rounded corners*
20,1,$1+$1,$2,$3,$4,$5,0*
20,1,$1+$1,$4,$5,$6,$7,0*
20,1,$1+$1,$6,$7,$8,$9,0*
20,1,$1+$1,$8,$9,$2,$3,0*%
%AMRotRect*
0 Rectangle, with rotation*
0 The origin of the aperture is its center*
0 $1 length*
0 $2 width*
0 $3 Rotation angle, in degrees counterclockwise*
0 Add horizontal line*
21,1,$1,$2,0,0,$3*%
%AMFreePoly0*
4,1,15,-0.149998,0.780000,0.350000,0.780000,0.353536,0.778536,0.355000,0.775000,0.355000,-0.795000,0.353536,-0.798536,0.350000,-0.800000,-0.450000,-0.800000,-0.453536,-0.798536,-0.455000,-0.795000,-0.455001,0.475000,-0.453536,0.478536,-0.153536,0.778536,-0.150000,0.780001,-0.149998,0.780000,-0.149998,0.780000,$1*%
G04 Aperture macros list end*
%TA.AperFunction,SMDPad,CuDef*%
%ADD10RotRect,1.000000X1.500000X60.000000*%
%TD*%
%TA.AperFunction,SMDPad,CuDef*%
%ADD11RoundRect,0.082000X0.328000X0.718000X-0.328000X0.718000X-0.328000X-0.718000X0.328000X-0.718000X0*%
%TD*%
%TA.AperFunction,SMDPad,CuDef*%
%ADD12FreePoly0,0.000000*%
%TD*%
%TA.AperFunction,SMDPad,CuDef*%
%ADD13RoundRect,0.082000X-0.328000X-0.718000X0.328000X-0.718000X0.328000X0.718000X-0.328000X0.718000X0*%
%TD*%
%TA.AperFunction,SMDPad,CuDef*%
%ADD14RoundRect,0.135000X0.135000X0.185000X-0.135000X0.185000X-0.135000X-0.185000X0.135000X-0.185000X0*%
%TD*%
%TA.AperFunction,SMDPad,CuDef*%
%ADD15R,1.000000X1.500000*%
%TD*%
%TA.AperFunction,SMDPad,CuDef*%
%ADD16RoundRect,0.140000X-0.140000X-0.170000X0.140000X-0.170000X0.140000X0.170000X-0.140000X0.170000X0*%
%TD*%
%TA.AperFunction,SMDPad,CuDef*%
%ADD17RotRect,1.000000X1.500000X30.000000*%
%TD*%
%TA.AperFunction,SMDPad,CuDef*%
%ADD18RotRect,0.400000X1.350000X30.000000*%
%TD*%
%TA.AperFunction,SMDPad,CuDef*%
%ADD19RotRect,2.400000X2.400000X210.000000*%
%TD*%
%TA.AperFunction,ComponentPad*%
%ADD20C,1.800000*%
%TD*%
%TA.AperFunction,ViaPad*%
%ADD21C,0.450000*%
%TD*%
%TA.AperFunction,Conductor*%
%ADD22C,0.300000*%
%TD*%
%TA.AperFunction,Conductor*%
%ADD23C,0.250000*%
%TD*%
G04 APERTURE END LIST*
D10*
%TO.P,JP5,1,A*%
%TO.N,Net-(JP1-Pad1)*%
X95575000Y-108162917D03*
%TO.P,JP5,2,B*%
%TO.N,Net-(J1-Pad5)*%
X96225000Y-107037083D03*
%TD*%
D11*
%TO.P,D1,1,VDD*%
%TO.N,Net-(C1-Pad1)*%
X100750000Y-102850000D03*
%TO.P,D1,2,DOUT*%
%TO.N,Dout*%
X99250000Y-102850000D03*
D12*
%TO.P,D1,3,VSS*%
%TO.N,GND*%
X99250000Y-97150000D03*
D13*
%TO.P,D1,4,DIN*%
%TO.N,Din*%
X100750000Y-97150000D03*
%TD*%
D14*
%TO.P,R1,1*%
%TO.N,+5V*%
X91810000Y-97800000D03*
%TO.P,R1,2*%
%TO.N,Net-(JP1-Pad1)*%
X90790000Y-97800000D03*
%TD*%
D15*
%TO.P,JP2,1,A*%
%TO.N,Net-(JP1-Pad1)*%
X90650000Y-101550000D03*
%TO.P,JP2,2,B*%
%TO.N,Net-(J1-Pad2)*%
X91950000Y-101550000D03*
%TD*%
%TO.P,JP1,1,A*%
%TO.N,Net-(JP1-Pad1)*%
X90650000Y-99400000D03*
%TO.P,JP1,2,B*%
%TO.N,Net-(J1-Pad1)*%
X91950000Y-99400000D03*
%TD*%
D14*
%TO.P,R2,1*%
%TO.N,+5V*%
X103510000Y-101650000D03*
%TO.P,R2,2*%
%TO.N,Net-(C1-Pad1)*%
X102490000Y-101650000D03*
%TD*%
D16*
%TO.P,C1,1*%
%TO.N,Net-(C1-Pad1)*%
X102520000Y-102750000D03*
%TO.P,C1,2*%
%TO.N,GND*%
X103480000Y-102750000D03*
%TD*%
D17*
%TO.P,JP3,1,A*%
%TO.N,Net-(JP1-Pad1)*%
X91387083Y-104725000D03*
%TO.P,JP3,2,B*%
%TO.N,Net-(J1-Pad3)*%
X92512917Y-104075000D03*
%TD*%
D18*
%TO.P,J1,1,Pin_1*%
%TO.N,Net-(J1-Pad1)*%
X94834456Y-94627628D03*
%TO.P,J1,2,Pin_2*%
%TO.N,Net-(J1-Pad2)*%
X94167468Y-92472372D03*
%TO.P,J1,3,Pin_3*%
%TO.N,Net-(J1-Pad3)*%
X95700481Y-94127628D03*
%TO.P,J1,4,Pin_4*%
%TO.N,Net-(J1-Pad4)*%
X95033494Y-91972372D03*
%TO.P,J1,5,Pin_5*%
%TO.N,Net-(J1-Pad5)*%
X96566506Y-93627628D03*
%TO.P,J1,6,Pin_6*%
%TO.N,+5V*%
X95899519Y-91472372D03*
%TO.P,J1,7,Pin_7*%
%TO.N,Din*%
X97432532Y-93127628D03*
%TO.P,J1,8,Pin_8*%
%TO.N,GND*%
X96765544Y-90972372D03*
D19*
%TO.P,J1,MP*%
%TO.N,N/C*%
X98831089Y-91050000D03*
X92768911Y-94550000D03*
%TD*%
D18*
%TO.P,J2,1,Pin_1*%
%TO.N,Net-(J1-Pad1)*%
X103134456Y-108927628D03*
%TO.P,J2,2,Pin_2*%
%TO.N,Net-(J1-Pad2)*%
X102467468Y-106772372D03*
%TO.P,J2,3,Pin_3*%
%TO.N,Net-(J1-Pad3)*%
X104000481Y-108427628D03*
%TO.P,J2,4,Pin_4*%
%TO.N,Net-(J1-Pad4)*%
X103333494Y-106272372D03*
%TO.P,J2,5,Pin_5*%
%TO.N,Net-(J1-Pad5)*%
X104866506Y-107927628D03*
%TO.P,J2,6,Pin_6*%
%TO.N,+5V*%
X104199519Y-105772372D03*
%TO.P,J2,7,Pin_7*%
%TO.N,Dout*%
X105732532Y-107427628D03*
%TO.P,J2,8,Pin_8*%
%TO.N,GND*%
X105065544Y-105272372D03*
D19*
%TO.P,J2,MP*%
%TO.N,N/C*%
X107131089Y-105350000D03*
X101068911Y-108850000D03*
%TD*%
D10*
%TO.P,JP4,1,A*%
%TO.N,Net-(JP1-Pad1)*%
X93675000Y-107062917D03*
%TO.P,JP4,2,B*%
%TO.N,Net-(J1-Pad4)*%
X94325000Y-105937083D03*
%TD*%
D20*
%TO.P,SW1,1,1*%
%TO.N,Net-(JP1-Pad1)*%
X95400000Y-101500000D03*
%TO.P,SW1,2,2*%
%TO.N,GND*%
X104600000Y-98500000D03*
%TD*%
D21*
%TO.N,+5V*%
X103650000Y-104800000D03*
X92550000Y-97800000D03*
X96500000Y-92450000D03*
X104250000Y-101650000D03*
%TO.N,GND*%
X90650000Y-94350000D03*
X109450000Y-94350000D03*
X100000000Y-110850000D03*
X109450000Y-105300000D03*
X97400000Y-91950000D03*
X100000000Y-89000000D03*
X90500000Y-105300000D03*
%TO.N,Net-(J1-Pad4)*%
X95600000Y-92950000D03*
X102750000Y-105300000D03*
X94850000Y-104950000D03*
%TO.N,Net-(J1-Pad1)*%
X102550000Y-107950000D03*
X93050000Y-99400000D03*
X95400000Y-95600000D03*
%TO.N,Net-(J1-Pad2)*%
X93050000Y-101550000D03*
X94750000Y-93450000D03*
X101900000Y-105800000D03*
%TO.N,Net-(J1-Pad3)*%
X93450000Y-103500000D03*
X103450000Y-107450000D03*
X96250000Y-95100000D03*
%TO.N,Net-(J1-Pad5)*%
X104300000Y-106950000D03*
X96800000Y-106050000D03*
X97150000Y-94600000D03*
%TO.N,Dout*%
X105150000Y-106400000D03*
X98350000Y-102850000D03*
%TD*%
D22*
%TO.N,Net-(C1-Pad1)*%
X102520000Y-101680000D02*
X102490000Y-101650000D01*
X100750000Y-102850000D02*
X102420000Y-102850000D01*
X102420000Y-102850000D02*
X102520000Y-102750000D01*
X102520000Y-102750000D02*
X102520000Y-101680000D01*
%TO.N,+5V*%
X103510000Y-101650000D02*
X104250000Y-101650000D01*
D23*
X92550000Y-97800000D02*
X91810000Y-97800000D01*
X96500000Y-92450000D02*
X96500000Y-92082004D01*
X103650000Y-104800000D02*
X103650000Y-105232004D01*
X103650000Y-105232004D02*
X104212019Y-105794023D01*
X96500000Y-92082004D02*
X95912019Y-91494023D01*
%TO.N,Din*%
X101225001Y-96674999D02*
X100750000Y-97150000D01*
X100650000Y-93700000D02*
X101225001Y-94275001D01*
X98000000Y-93700000D02*
X100650000Y-93700000D01*
X101225001Y-94275001D02*
X101225001Y-96674999D01*
X97420032Y-93105977D02*
X97420032Y-93120032D01*
X97420032Y-93120032D02*
X98000000Y-93700000D01*
%TO.N,Net-(J1-Pad4)*%
X94850000Y-104950000D02*
X94850000Y-105412083D01*
X102750000Y-105300000D02*
X102750000Y-105698029D01*
X95600000Y-92548029D02*
X95045994Y-91994023D01*
X102750000Y-105698029D02*
X103345994Y-106294023D01*
X95600000Y-92950000D02*
X95600000Y-92548029D01*
X94850000Y-105412083D02*
X94325000Y-105937083D01*
%TO.N,Net-(J1-Pad1)*%
X102550000Y-107950000D02*
X102550000Y-108334021D01*
X102550000Y-108334021D02*
X103121956Y-108905977D01*
X95400000Y-95600000D02*
X95400000Y-95184021D01*
X95400000Y-95184021D02*
X94821956Y-94605977D01*
X91950000Y-99400000D02*
X93050000Y-99400000D01*
%TO.N,Net-(J1-Pad2)*%
X94750000Y-93064055D02*
X94179968Y-92494023D01*
X101900000Y-105800000D02*
X101900000Y-106214055D01*
X91950000Y-101550000D02*
X93050000Y-101550000D01*
X101900000Y-106214055D02*
X102479968Y-106794023D01*
X94750000Y-93450000D02*
X94750000Y-93064055D01*
%TO.N,Net-(J1-Pad3)*%
X103450000Y-107450000D02*
X103450000Y-107867996D01*
X96250000Y-94667996D02*
X95687981Y-94105977D01*
X103450000Y-107867996D02*
X103987981Y-108405977D01*
X96250000Y-95100000D02*
X96250000Y-94667996D01*
X93450000Y-103500000D02*
X93087917Y-103500000D01*
X93087917Y-103500000D02*
X92512917Y-104075000D01*
%TO.N,Net-(J1-Pad5)*%
X96800000Y-106050000D02*
X96800000Y-106462083D01*
X96800000Y-106462083D02*
X96225000Y-107037083D01*
X104300000Y-107351971D02*
X104854006Y-107905977D01*
X97150000Y-94600000D02*
X97150000Y-94201971D01*
X104300000Y-106950000D02*
X104300000Y-107351971D01*
X97150000Y-94201971D02*
X96554006Y-93605977D01*
%TO.N,Dout*%
X105150000Y-106400000D02*
X105150000Y-106835945D01*
X99250000Y-102850000D02*
X98350000Y-102850000D01*
X105150000Y-106835945D02*
X105720032Y-107405977D01*
%TO.N,Net-(JP1-Pad1)*%
X94775000Y-108162917D02*
X93675000Y-107062917D01*
X94760000Y-102700000D02*
X90650000Y-102700000D01*
X90650000Y-101550000D02*
X90650000Y-102700000D01*
X90650000Y-102700000D02*
X90650000Y-103987917D01*
X95400000Y-101500000D02*
X95400000Y-102060000D01*
X90650000Y-99400000D02*
X90650000Y-97940000D01*
X91387083Y-104775000D02*
X91387083Y-104725000D01*
X90650000Y-97940000D02*
X90790000Y-97800000D01*
X90650000Y-99400000D02*
X90650000Y-101550000D01*
X95575000Y-108162917D02*
X94775000Y-108162917D01*
X90650000Y-103987917D02*
X91387083Y-104725000D01*
X95400000Y-102060000D02*
X94760000Y-102700000D01*
X93675000Y-107062917D02*
X91387083Y-104775000D01*
%TD*%
%TA.AperFunction,Conductor*%
%TO.N,GND*%
G36*
X100139427Y-88618618D02*
G01*
X100393584Y-88648326D01*
X100404913Y-88650324D01*
X100653898Y-88709334D01*
X100664915Y-88712632D01*
X100905375Y-88800152D01*
X100915946Y-88804713D01*
X101120817Y-88907604D01*
X101129014Y-88913302D01*
X101129054Y-88913233D01*
X101138701Y-88918825D01*
X101146860Y-88926420D01*
X101157505Y-88929725D01*
X101157508Y-88929727D01*
X101158606Y-88930068D01*
X101178750Y-88938878D01*
X108920292Y-93408461D01*
X108938241Y-93421730D01*
X108946860Y-93429753D01*
X108957505Y-93433058D01*
X108966872Y-93438488D01*
X108976363Y-93442972D01*
X109168341Y-93569238D01*
X109177573Y-93576110D01*
X109329058Y-93703220D01*
X109373598Y-93740593D01*
X109381969Y-93748491D01*
X109452777Y-93823543D01*
X109557563Y-93934609D01*
X109564963Y-93943428D01*
X109717764Y-94148675D01*
X109724090Y-94158294D01*
X109852026Y-94379885D01*
X109857193Y-94390173D01*
X109958540Y-94625119D01*
X109962478Y-94635937D01*
X110035866Y-94881067D01*
X110038521Y-94892269D01*
X110047609Y-94943805D01*
X110082956Y-95144266D01*
X110084290Y-95155675D01*
X110097622Y-95384559D01*
X110096784Y-95394521D01*
X110096861Y-95394521D01*
X110096841Y-95405669D01*
X110094343Y-95416534D01*
X110096965Y-95428119D01*
X110097058Y-95428531D01*
X110099499Y-95450381D01*
X110099501Y-104389534D01*
X110096983Y-104411722D01*
X110094345Y-104423193D01*
X110096806Y-104434069D01*
X110096787Y-104444886D01*
X110097648Y-104455354D01*
X110092322Y-104546780D01*
X110085003Y-104672414D01*
X110084284Y-104684750D01*
X110082949Y-104696178D01*
X110072571Y-104755031D01*
X110038511Y-104948181D01*
X110035856Y-104959383D01*
X110025517Y-104993917D01*
X109962466Y-105204520D01*
X109958535Y-105215321D01*
X109864958Y-105432262D01*
X109857182Y-105450289D01*
X109852015Y-105460576D01*
X109724087Y-105682163D01*
X109717762Y-105691781D01*
X109564957Y-105897046D01*
X109557565Y-105905856D01*
X109387612Y-106086009D01*
X109381973Y-106091986D01*
X109373613Y-106099875D01*
X109177584Y-106264378D01*
X109168364Y-106271242D01*
X108976953Y-106397149D01*
X108967768Y-106401470D01*
X108967795Y-106401518D01*
X108958131Y-106407076D01*
X108947473Y-106410345D01*
X108938881Y-106418289D01*
X108938450Y-106418687D01*
X108920743Y-106431731D01*
X106530928Y-107811490D01*
X106471080Y-107824211D01*
X106415184Y-107799324D01*
X106395691Y-107775253D01*
X106293317Y-107597936D01*
X105732001Y-106625709D01*
X105728800Y-106622059D01*
X105728798Y-106622056D01*
X105699112Y-106588206D01*
X105692685Y-106580877D01*
X105683944Y-106576566D01*
X105683942Y-106576565D01*
X105627740Y-106548850D01*
X105583912Y-106506155D01*
X105573745Y-106444573D01*
X105579585Y-106407698D01*
X105579585Y-106407696D01*
X105580804Y-106400000D01*
X105565009Y-106300271D01*
X105560938Y-106274569D01*
X105560938Y-106274568D01*
X105559719Y-106266874D01*
X105554482Y-106256596D01*
X105502064Y-106153719D01*
X105502063Y-106153717D01*
X105498528Y-106146780D01*
X105493022Y-106141274D01*
X105488439Y-106134966D01*
X105489738Y-106134022D01*
X105466082Y-106087594D01*
X105467035Y-106081574D01*
X105439754Y-106078706D01*
X105410017Y-106058269D01*
X105404550Y-106052802D01*
X105388817Y-106032298D01*
X105036782Y-105422555D01*
X105026869Y-105413629D01*
X105021803Y-105413097D01*
X104782714Y-105551135D01*
X104773788Y-105561048D01*
X104773256Y-105566114D01*
X104965697Y-105899431D01*
X104978419Y-105959279D01*
X104953532Y-106015175D01*
X104924893Y-106037147D01*
X104923554Y-106037829D01*
X104863120Y-106047392D01*
X104808608Y-106019606D01*
X104792885Y-105999113D01*
X104783726Y-105983249D01*
X104198988Y-104970453D01*
X104195787Y-104966803D01*
X104195785Y-104966800D01*
X104170048Y-104937453D01*
X104159672Y-104925621D01*
X104133466Y-104912698D01*
X104089638Y-104870005D01*
X104080638Y-104815487D01*
X104079585Y-104815487D01*
X104079585Y-104809106D01*
X104079471Y-104808415D01*
X104079585Y-104807695D01*
X104080061Y-104804692D01*
X104353303Y-104804692D01*
X104355799Y-104823655D01*
X104370222Y-104866141D01*
X104374218Y-104874959D01*
X104661294Y-105372190D01*
X104671206Y-105381114D01*
X104676273Y-105381647D01*
X104915361Y-105243610D01*
X104924287Y-105233697D01*
X104924819Y-105228631D01*
X104549281Y-104578180D01*
X104539368Y-104569254D01*
X104534302Y-104568722D01*
X104441995Y-104622015D01*
X104434121Y-104627658D01*
X104400393Y-104657236D01*
X104388746Y-104672414D01*
X104362181Y-104726283D01*
X104357231Y-104744755D01*
X104353303Y-104804692D01*
X104080061Y-104804692D01*
X104080804Y-104800000D01*
X104071012Y-104738174D01*
X104060938Y-104674569D01*
X104060938Y-104674568D01*
X104059719Y-104666874D01*
X104045151Y-104638283D01*
X104002064Y-104553719D01*
X104002063Y-104553717D01*
X103998528Y-104546780D01*
X103923487Y-104471739D01*
X104718769Y-104471739D01*
X105102147Y-105135769D01*
X105565757Y-105938765D01*
X105573212Y-105973835D01*
X105574213Y-105973649D01*
X105596787Y-105976022D01*
X105689093Y-105922729D01*
X105696961Y-105917090D01*
X105702112Y-105912573D01*
X105758328Y-105888420D01*
X105818005Y-105901922D01*
X105853126Y-105937504D01*
X105925336Y-106062576D01*
X106528094Y-107106583D01*
X106531302Y-107110241D01*
X106560980Y-107144083D01*
X106560983Y-107144085D01*
X106567410Y-107151414D01*
X106638949Y-107186692D01*
X106648680Y-107187330D01*
X106661682Y-107188182D01*
X106718542Y-107191910D01*
X106727774Y-107188776D01*
X106727775Y-107188776D01*
X106770402Y-107174306D01*
X106770403Y-107174305D01*
X106775006Y-107172743D01*
X106814066Y-107150192D01*
X107634961Y-106676248D01*
X108887672Y-105952995D01*
X108905336Y-105937504D01*
X108925172Y-105920109D01*
X108925174Y-105920106D01*
X108932503Y-105913679D01*
X108938428Y-105901665D01*
X108963468Y-105850886D01*
X108967781Y-105842140D01*
X108972999Y-105762547D01*
X108968809Y-105750202D01*
X108955395Y-105710687D01*
X108955394Y-105710686D01*
X108953832Y-105706083D01*
X108848398Y-105523465D01*
X108638513Y-105159934D01*
X107734084Y-103593417D01*
X107730876Y-103589759D01*
X107701198Y-103555917D01*
X107701195Y-103555915D01*
X107694768Y-103548586D01*
X107623229Y-103513308D01*
X107613498Y-103512670D01*
X107598961Y-103511717D01*
X107543636Y-103508090D01*
X107534404Y-103511224D01*
X107534403Y-103511224D01*
X107491776Y-103525694D01*
X107487172Y-103527257D01*
X107482964Y-103529687D01*
X107482963Y-103529687D01*
X107086256Y-103758726D01*
X105374506Y-104747005D01*
X105370848Y-104750213D01*
X105365354Y-104755031D01*
X105309137Y-104779184D01*
X105249461Y-104765680D01*
X105214342Y-104730099D01*
X105067036Y-104474957D01*
X105061397Y-104467088D01*
X105031818Y-104433359D01*
X105016640Y-104421712D01*
X104962771Y-104395147D01*
X104944299Y-104390197D01*
X104884362Y-104386269D01*
X104865399Y-104388765D01*
X104822913Y-104403188D01*
X104814095Y-104407184D01*
X104728227Y-104456760D01*
X104719302Y-104466672D01*
X104718769Y-104471739D01*
X103923487Y-104471739D01*
X103903220Y-104451472D01*
X103896283Y-104447937D01*
X103896281Y-104447936D01*
X103790066Y-104393817D01*
X103790065Y-104393817D01*
X103783126Y-104390281D01*
X103775432Y-104389062D01*
X103775431Y-104389062D01*
X103657696Y-104370415D01*
X103650000Y-104369196D01*
X103642304Y-104370415D01*
X103524569Y-104389062D01*
X103524568Y-104389062D01*
X103516874Y-104390281D01*
X103509935Y-104393817D01*
X103509934Y-104393817D01*
X103403719Y-104447936D01*
X103403717Y-104447937D01*
X103396780Y-104451472D01*
X103301472Y-104546780D01*
X103297937Y-104553717D01*
X103297936Y-104553719D01*
X103254849Y-104638283D01*
X103240281Y-104666874D01*
X103239062Y-104674568D01*
X103239062Y-104674569D01*
X103228988Y-104738174D01*
X103219196Y-104800000D01*
X103233302Y-104889062D01*
X103240281Y-104933126D01*
X103237680Y-104933538D01*
X103237683Y-104982357D01*
X103201722Y-105031859D01*
X103143532Y-105050770D01*
X103085341Y-105031866D01*
X103073522Y-105021774D01*
X103003220Y-104951472D01*
X102996283Y-104947937D01*
X102996281Y-104947936D01*
X102890066Y-104893817D01*
X102890065Y-104893817D01*
X102883126Y-104890281D01*
X102875432Y-104889062D01*
X102875431Y-104889062D01*
X102757696Y-104870415D01*
X102750000Y-104869196D01*
X102742304Y-104870415D01*
X102624569Y-104889062D01*
X102624568Y-104889062D01*
X102616874Y-104890281D01*
X102609935Y-104893817D01*
X102609934Y-104893817D01*
X102503719Y-104947936D01*
X102503717Y-104947937D01*
X102496780Y-104951472D01*
X102401472Y-105046780D01*
X102397937Y-105053717D01*
X102397936Y-105053719D01*
X102373219Y-105102230D01*
X102340281Y-105166874D01*
X102339062Y-105174568D01*
X102339062Y-105174569D01*
X102332604Y-105215345D01*
X102319196Y-105300000D01*
X102330551Y-105371688D01*
X102331273Y-105376249D01*
X102321702Y-105436681D01*
X102278437Y-105479945D01*
X102218005Y-105489517D01*
X102163488Y-105461740D01*
X102153220Y-105451472D01*
X102146283Y-105447937D01*
X102146281Y-105447936D01*
X102040066Y-105393817D01*
X102040065Y-105393817D01*
X102033126Y-105390281D01*
X102025432Y-105389062D01*
X102025431Y-105389062D01*
X101907696Y-105370415D01*
X101900000Y-105369196D01*
X101892304Y-105370415D01*
X101774569Y-105389062D01*
X101774568Y-105389062D01*
X101766874Y-105390281D01*
X101759935Y-105393817D01*
X101759934Y-105393817D01*
X101653719Y-105447936D01*
X101653717Y-105447937D01*
X101646780Y-105451472D01*
X101551472Y-105546780D01*
X101547937Y-105553717D01*
X101547936Y-105553719D01*
X101504452Y-105639062D01*
X101490281Y-105666874D01*
X101489062Y-105674568D01*
X101489062Y-105674569D01*
X101481493Y-105722360D01*
X101469196Y-105800000D01*
X101473403Y-105826560D01*
X101488926Y-105924569D01*
X101490281Y-105933126D01*
X101493817Y-105940065D01*
X101493817Y-105940066D01*
X101511023Y-105973835D01*
X101551472Y-106053220D01*
X101555845Y-106057593D01*
X101574500Y-106115010D01*
X101574500Y-106195521D01*
X101574123Y-106204150D01*
X101570736Y-106242862D01*
X101572978Y-106251229D01*
X101580796Y-106280404D01*
X101582666Y-106288839D01*
X101585202Y-106303220D01*
X101589412Y-106327100D01*
X101593742Y-106334599D01*
X101595738Y-106340084D01*
X101598204Y-106345371D01*
X101600446Y-106353739D01*
X101621013Y-106383111D01*
X101622732Y-106385566D01*
X101627371Y-106392847D01*
X101646806Y-106426510D01*
X101668367Y-106444602D01*
X101676571Y-106451486D01*
X101682939Y-106457320D01*
X102005386Y-106779767D01*
X102021114Y-106800265D01*
X102389044Y-107437536D01*
X102401765Y-107497384D01*
X102376878Y-107553280D01*
X102348253Y-107575245D01*
X102337200Y-107580877D01*
X102303719Y-107597936D01*
X102303717Y-107597937D01*
X102296780Y-107601472D01*
X102201472Y-107696780D01*
X102197936Y-107703719D01*
X102193355Y-107710025D01*
X102191597Y-107708748D01*
X102156035Y-107744310D01*
X102095604Y-107753884D01*
X102041086Y-107726107D01*
X102025351Y-107705602D01*
X101744697Y-107219495D01*
X101671906Y-107093417D01*
X101664536Y-107085013D01*
X101639020Y-107055917D01*
X101639017Y-107055915D01*
X101632590Y-107048586D01*
X101621342Y-107043039D01*
X101569797Y-107017621D01*
X101561051Y-107013308D01*
X101551320Y-107012670D01*
X101532923Y-107011464D01*
X101481458Y-107008090D01*
X101472226Y-107011224D01*
X101472225Y-107011224D01*
X101429598Y-107025694D01*
X101424994Y-107027257D01*
X101420786Y-107029687D01*
X101420785Y-107029687D01*
X101332121Y-107080877D01*
X99312328Y-108247005D01*
X99308670Y-108250213D01*
X99274828Y-108279891D01*
X99274826Y-108279894D01*
X99267497Y-108286321D01*
X99232219Y-108357860D01*
X99227001Y-108437453D01*
X99246168Y-108493917D01*
X100465916Y-110606583D01*
X100469124Y-110610241D01*
X100498802Y-110644083D01*
X100498805Y-110644085D01*
X100505232Y-110651414D01*
X100576771Y-110686692D01*
X100586502Y-110687330D01*
X100599504Y-110688182D01*
X100656364Y-110691910D01*
X100665596Y-110688776D01*
X100665597Y-110688776D01*
X100708224Y-110674306D01*
X100708225Y-110674305D01*
X100712828Y-110672743D01*
X102825494Y-109452995D01*
X102829148Y-109449791D01*
X102829153Y-109449787D01*
X102834259Y-109445308D01*
X102890474Y-109421153D01*
X102950151Y-109434654D01*
X102985273Y-109470237D01*
X103103928Y-109675752D01*
X103116650Y-109735600D01*
X103091764Y-109791496D01*
X103067692Y-109810989D01*
X101179205Y-110901308D01*
X101158731Y-110910220D01*
X101158140Y-110910401D01*
X101158138Y-110910402D01*
X101147479Y-110913671D01*
X101139291Y-110921240D01*
X101129917Y-110926631D01*
X101121282Y-110932612D01*
X100915933Y-111035747D01*
X100905361Y-111040307D01*
X100664922Y-111127824D01*
X100653893Y-111131126D01*
X100404920Y-111190136D01*
X100393582Y-111192136D01*
X100139428Y-111221843D01*
X100127935Y-111222512D01*
X99872065Y-111222512D01*
X99860572Y-111221843D01*
X99606418Y-111192136D01*
X99595080Y-111190136D01*
X99346108Y-111131126D01*
X99335079Y-111127824D01*
X99094640Y-111040307D01*
X99084068Y-111035747D01*
X98879180Y-110932844D01*
X98870991Y-110927150D01*
X98870950Y-110927220D01*
X98861304Y-110921628D01*
X98853143Y-110914031D01*
X98841453Y-110910401D01*
X98841398Y-110910384D01*
X98821254Y-110901574D01*
X98820794Y-110901308D01*
X96312242Y-109452995D01*
X96075578Y-109316357D01*
X96034637Y-109270887D01*
X96028241Y-109210037D01*
X96058834Y-109157049D01*
X96081293Y-109141829D01*
X96090223Y-109137426D01*
X96090227Y-109137423D01*
X96098967Y-109133113D01*
X96138283Y-109088282D01*
X96605008Y-108279891D01*
X96655601Y-108192261D01*
X96655601Y-108192260D01*
X96658031Y-108188052D01*
X96677198Y-108131588D01*
X96675879Y-108111464D01*
X96690940Y-108052161D01*
X96730881Y-108016199D01*
X96740220Y-108011593D01*
X96740222Y-108011592D01*
X96748967Y-108007279D01*
X96788283Y-107962448D01*
X97238656Y-107182379D01*
X97305601Y-107066427D01*
X97305601Y-107066426D01*
X97308031Y-107062218D01*
X97312054Y-107050366D01*
X97324064Y-107014987D01*
X97324064Y-107014986D01*
X97327198Y-107005754D01*
X97321981Y-106926161D01*
X97317069Y-106916199D01*
X97291016Y-106863368D01*
X97286703Y-106854622D01*
X97268696Y-106838831D01*
X97245526Y-106818511D01*
X97245524Y-106818510D01*
X97241871Y-106815306D01*
X97127609Y-106749337D01*
X97086671Y-106703870D01*
X97080275Y-106643020D01*
X97091582Y-106617018D01*
X97090925Y-106616712D01*
X97094585Y-106608863D01*
X97099554Y-106601767D01*
X97101796Y-106593400D01*
X97104262Y-106588112D01*
X97106258Y-106582627D01*
X97110588Y-106575128D01*
X97113195Y-106560346D01*
X97117334Y-106536867D01*
X97119204Y-106528432D01*
X97127022Y-106499257D01*
X97129264Y-106490890D01*
X97125877Y-106452174D01*
X97125500Y-106443546D01*
X97125500Y-106365010D01*
X97144155Y-106307593D01*
X97148528Y-106303220D01*
X97201202Y-106199841D01*
X97206183Y-106190066D01*
X97206183Y-106190065D01*
X97209719Y-106183126D01*
X97220508Y-106115010D01*
X97229585Y-106057696D01*
X97230804Y-106050000D01*
X97221570Y-105991698D01*
X97210938Y-105924569D01*
X97210938Y-105924568D01*
X97209719Y-105916874D01*
X97206183Y-105909934D01*
X97152064Y-105803719D01*
X97152063Y-105803717D01*
X97148528Y-105796780D01*
X97053220Y-105701472D01*
X97046283Y-105697937D01*
X97046281Y-105697936D01*
X96940066Y-105643817D01*
X96940065Y-105643817D01*
X96933126Y-105640281D01*
X96925432Y-105639062D01*
X96925431Y-105639062D01*
X96807696Y-105620415D01*
X96800000Y-105619196D01*
X96792304Y-105620415D01*
X96674569Y-105639062D01*
X96674568Y-105639062D01*
X96666874Y-105640281D01*
X96659935Y-105643817D01*
X96659934Y-105643817D01*
X96553719Y-105697936D01*
X96553717Y-105697937D01*
X96546780Y-105701472D01*
X96451472Y-105796780D01*
X96447937Y-105803717D01*
X96447936Y-105803719D01*
X96393817Y-105909934D01*
X96390281Y-105916874D01*
X96389062Y-105924568D01*
X96389062Y-105924569D01*
X96378430Y-105991698D01*
X96369196Y-106050000D01*
X96376508Y-106096163D01*
X96382307Y-106132779D01*
X96372736Y-106193211D01*
X96329471Y-106236476D01*
X96269039Y-106246047D01*
X96235026Y-106234003D01*
X95912840Y-106047989D01*
X95912838Y-106047988D01*
X95908629Y-106045558D01*
X95899043Y-106042304D01*
X95861398Y-106029525D01*
X95861396Y-106029525D01*
X95852164Y-106026391D01*
X95800456Y-106029781D01*
X95782302Y-106030971D01*
X95772571Y-106031609D01*
X95701033Y-106066887D01*
X95661717Y-106111718D01*
X95141969Y-107011948D01*
X95140407Y-107016551D01*
X95140406Y-107016552D01*
X95131637Y-107042386D01*
X95122802Y-107068412D01*
X95123788Y-107083448D01*
X95124121Y-107088536D01*
X95109060Y-107147839D01*
X95069119Y-107183801D01*
X95059780Y-107188407D01*
X95059778Y-107188408D01*
X95051033Y-107192721D01*
X95044605Y-107200051D01*
X95014925Y-107233893D01*
X95014921Y-107233898D01*
X95011717Y-107237552D01*
X95009285Y-107241764D01*
X95009283Y-107241767D01*
X94917288Y-107401107D01*
X94833866Y-107545599D01*
X94819366Y-107570713D01*
X94773897Y-107611654D01*
X94713047Y-107618050D01*
X94663626Y-107591217D01*
X94593020Y-107520611D01*
X94565243Y-107466094D01*
X94577288Y-107401107D01*
X94758031Y-107088052D01*
X94761395Y-107078142D01*
X94774064Y-107040821D01*
X94774064Y-107040820D01*
X94777198Y-107031588D01*
X94775879Y-107011464D01*
X94790940Y-106952161D01*
X94830881Y-106916199D01*
X94840220Y-106911593D01*
X94840222Y-106911592D01*
X94848967Y-106907279D01*
X94888283Y-106862448D01*
X95328194Y-106100500D01*
X95405601Y-105966427D01*
X95405601Y-105966426D01*
X95408031Y-105962218D01*
X95416420Y-105937504D01*
X95424064Y-105914987D01*
X95424064Y-105914986D01*
X95427198Y-105905754D01*
X95421981Y-105826161D01*
X95414542Y-105811074D01*
X95391016Y-105763368D01*
X95386703Y-105754622D01*
X95345533Y-105718517D01*
X95345524Y-105718509D01*
X95345521Y-105718507D01*
X95341871Y-105715306D01*
X95205487Y-105636565D01*
X95164546Y-105591095D01*
X95158150Y-105530245D01*
X95158660Y-105528468D01*
X95160588Y-105525128D01*
X95167337Y-105486854D01*
X95169206Y-105478427D01*
X95177022Y-105449256D01*
X95177022Y-105449253D01*
X95179263Y-105440890D01*
X95175877Y-105402186D01*
X95175500Y-105393558D01*
X95175500Y-105265010D01*
X95194155Y-105207593D01*
X95198528Y-105203220D01*
X95243848Y-105114274D01*
X95256183Y-105090066D01*
X95256183Y-105090065D01*
X95259719Y-105083126D01*
X95264332Y-105054004D01*
X95279585Y-104957696D01*
X95279585Y-104957695D01*
X95280804Y-104950000D01*
X95271355Y-104890343D01*
X95260938Y-104824569D01*
X95260938Y-104824568D01*
X95259719Y-104816874D01*
X95247200Y-104792304D01*
X95202064Y-104703719D01*
X95202063Y-104703717D01*
X95198528Y-104696780D01*
X95103220Y-104601472D01*
X95096283Y-104597937D01*
X95096281Y-104597936D01*
X94990066Y-104543817D01*
X94990065Y-104543817D01*
X94983126Y-104540281D01*
X94975432Y-104539062D01*
X94975431Y-104539062D01*
X94857696Y-104520415D01*
X94850000Y-104519196D01*
X94842304Y-104520415D01*
X94724569Y-104539062D01*
X94724568Y-104539062D01*
X94716874Y-104540281D01*
X94709935Y-104543817D01*
X94709934Y-104543817D01*
X94603719Y-104597936D01*
X94603717Y-104597937D01*
X94596780Y-104601472D01*
X94501472Y-104696780D01*
X94497937Y-104703717D01*
X94497936Y-104703719D01*
X94452800Y-104792304D01*
X94440281Y-104816874D01*
X94439062Y-104824568D01*
X94439062Y-104824569D01*
X94428645Y-104890343D01*
X94419196Y-104950000D01*
X94427275Y-105001007D01*
X94417704Y-105061437D01*
X94374440Y-105104702D01*
X94314008Y-105114274D01*
X94279994Y-105102230D01*
X94012840Y-104947989D01*
X94012838Y-104947988D01*
X94008629Y-104945558D01*
X93996162Y-104941326D01*
X93961398Y-104929525D01*
X93961396Y-104929525D01*
X93952164Y-104926391D01*
X93900456Y-104929781D01*
X93882302Y-104930971D01*
X93872571Y-104931609D01*
X93801033Y-104966887D01*
X93761717Y-105011718D01*
X93395785Y-105645531D01*
X93247758Y-105901922D01*
X93241969Y-105911948D01*
X93240407Y-105916551D01*
X93240406Y-105916552D01*
X93227858Y-105953517D01*
X93191249Y-106002542D01*
X93132816Y-106020686D01*
X93074877Y-106001018D01*
X93064108Y-105991698D01*
X92416853Y-105344444D01*
X92389076Y-105289927D01*
X92398647Y-105229495D01*
X92441912Y-105186230D01*
X92472846Y-105176625D01*
X92481588Y-105177198D01*
X92490820Y-105174064D01*
X92490821Y-105174064D01*
X92533448Y-105159594D01*
X92533449Y-105159593D01*
X92538052Y-105158031D01*
X93438282Y-104638283D01*
X93483113Y-104598967D01*
X93518391Y-104527429D01*
X93523609Y-104447836D01*
X93518212Y-104431935D01*
X93506006Y-104395978D01*
X93506005Y-104395977D01*
X93504442Y-104391371D01*
X93501497Y-104386269D01*
X93321029Y-104073690D01*
X93308308Y-104013842D01*
X93333195Y-103957946D01*
X93386183Y-103927353D01*
X93422251Y-103926409D01*
X93450000Y-103930804D01*
X93457696Y-103929585D01*
X93575431Y-103910938D01*
X93575432Y-103910938D01*
X93583126Y-103909719D01*
X93602652Y-103899770D01*
X93696281Y-103852064D01*
X93696283Y-103852063D01*
X93703220Y-103848528D01*
X93798528Y-103753220D01*
X93802752Y-103744931D01*
X93856183Y-103640066D01*
X93856183Y-103640065D01*
X93859719Y-103633126D01*
X93862925Y-103612888D01*
X93879585Y-103507696D01*
X93880804Y-103500000D01*
X93859719Y-103366874D01*
X93815243Y-103279585D01*
X93802064Y-103253719D01*
X93802063Y-103253717D01*
X93798528Y-103246780D01*
X93746252Y-103194504D01*
X93718475Y-103139987D01*
X93728046Y-103079555D01*
X93771311Y-103036290D01*
X93816256Y-103025500D01*
X94741466Y-103025500D01*
X94750095Y-103025877D01*
X94788807Y-103029264D01*
X94826350Y-103019204D01*
X94834784Y-103017334D01*
X94864517Y-103012092D01*
X94864519Y-103012091D01*
X94873045Y-103010588D01*
X94880544Y-103006258D01*
X94886029Y-103004262D01*
X94891316Y-103001796D01*
X94899684Y-102999554D01*
X94931511Y-102977268D01*
X94938795Y-102972627D01*
X94955378Y-102963053D01*
X94972455Y-102953194D01*
X94997431Y-102923429D01*
X95003265Y-102917061D01*
X95291344Y-102628982D01*
X95345861Y-102601205D01*
X95365234Y-102600062D01*
X95404907Y-102601620D01*
X95457842Y-102603700D01*
X95482933Y-102600062D01*
X95653519Y-102575329D01*
X95653522Y-102575328D01*
X95658007Y-102574678D01*
X95805826Y-102524500D01*
X95845234Y-102511123D01*
X95845237Y-102511121D01*
X95849531Y-102509664D01*
X96011075Y-102419196D01*
X96022039Y-102413056D01*
X96022041Y-102413055D01*
X96026001Y-102410837D01*
X96181505Y-102281505D01*
X96310837Y-102126001D01*
X96317522Y-102114065D01*
X96344503Y-102065885D01*
X96409664Y-101949531D01*
X96411201Y-101945005D01*
X96459330Y-101803220D01*
X96474678Y-101758007D01*
X96488733Y-101661073D01*
X96493492Y-101628249D01*
X96503700Y-101557842D01*
X96504541Y-101525728D01*
X96505139Y-101502913D01*
X96505139Y-101502908D01*
X96505215Y-101500000D01*
X96504696Y-101494344D01*
X96487123Y-101303109D01*
X96486708Y-101298591D01*
X96431807Y-101103926D01*
X96342351Y-100922527D01*
X96246965Y-100794790D01*
X96224051Y-100764104D01*
X96224050Y-100764103D01*
X96221335Y-100760467D01*
X96072812Y-100623174D01*
X96064774Y-100618102D01*
X95905594Y-100517667D01*
X95901757Y-100515246D01*
X95713898Y-100440298D01*
X95515526Y-100400839D01*
X95415930Y-100399535D01*
X95317826Y-100398251D01*
X95317821Y-100398251D01*
X95313286Y-100398192D01*
X95308813Y-100398961D01*
X95308808Y-100398961D01*
X95210245Y-100415898D01*
X95113949Y-100432444D01*
X94924193Y-100502449D01*
X94750371Y-100605862D01*
X94746956Y-100608857D01*
X94746953Y-100608859D01*
X94712265Y-100639280D01*
X94598305Y-100739220D01*
X94595497Y-100742782D01*
X94479906Y-100889410D01*
X94473089Y-100898057D01*
X94378914Y-101077053D01*
X94377569Y-101081384D01*
X94377568Y-101081387D01*
X94321030Y-101263473D01*
X94318937Y-101270213D01*
X94307196Y-101369410D01*
X94302845Y-101406177D01*
X94295164Y-101471069D01*
X94298748Y-101525748D01*
X94307342Y-101656868D01*
X94308392Y-101672894D01*
X94309508Y-101677287D01*
X94309508Y-101677289D01*
X94312753Y-101690066D01*
X94358178Y-101868928D01*
X94442856Y-102052607D01*
X94522271Y-102164977D01*
X94559588Y-102217780D01*
X94557772Y-102219063D01*
X94577932Y-102267726D01*
X94563653Y-102327221D01*
X94517130Y-102366961D01*
X94479238Y-102374500D01*
X92749500Y-102374500D01*
X92691309Y-102355593D01*
X92655345Y-102306093D01*
X92650500Y-102275500D01*
X92650500Y-101985042D01*
X92669407Y-101926851D01*
X92718907Y-101890887D01*
X92780093Y-101890887D01*
X92796432Y-101899211D01*
X92796780Y-101898528D01*
X92892960Y-101947534D01*
X92916874Y-101959719D01*
X92924568Y-101960938D01*
X92924569Y-101960938D01*
X93042304Y-101979585D01*
X93050000Y-101980804D01*
X93057696Y-101979585D01*
X93175431Y-101960938D01*
X93175432Y-101960938D01*
X93183126Y-101959719D01*
X93203121Y-101949531D01*
X93296281Y-101902064D01*
X93296283Y-101902063D01*
X93303220Y-101898528D01*
X93398528Y-101803220D01*
X93405231Y-101790066D01*
X93456183Y-101690066D01*
X93456183Y-101690065D01*
X93459719Y-101683126D01*
X93462057Y-101668368D01*
X93479107Y-101560717D01*
X93480804Y-101550000D01*
X93462616Y-101435162D01*
X93460938Y-101424569D01*
X93460938Y-101424568D01*
X93459719Y-101416874D01*
X93446675Y-101391274D01*
X93402064Y-101303719D01*
X93402063Y-101303717D01*
X93398528Y-101296780D01*
X93303220Y-101201472D01*
X93296283Y-101197937D01*
X93296281Y-101197936D01*
X93190066Y-101143817D01*
X93190065Y-101143817D01*
X93183126Y-101140281D01*
X93175432Y-101139062D01*
X93175431Y-101139062D01*
X93057696Y-101120415D01*
X93050000Y-101119196D01*
X93042304Y-101120415D01*
X92924569Y-101139062D01*
X92924568Y-101139062D01*
X92916874Y-101140281D01*
X92909935Y-101143817D01*
X92909934Y-101143817D01*
X92877386Y-101160401D01*
X92796780Y-101201472D01*
X92795524Y-101199006D01*
X92749487Y-101213958D01*
X92691299Y-101195043D01*
X92655341Y-101145538D01*
X92650500Y-101114958D01*
X92650500Y-100780252D01*
X92638867Y-100721769D01*
X92594552Y-100655448D01*
X92528231Y-100611133D01*
X92518668Y-100609231D01*
X92518666Y-100609230D01*
X92490048Y-100603538D01*
X92469748Y-100599500D01*
X91430252Y-100599500D01*
X91409952Y-100603538D01*
X91381334Y-100609230D01*
X91381332Y-100609231D01*
X91371769Y-100611133D01*
X91355002Y-100622337D01*
X91296116Y-100638946D01*
X91244998Y-100622337D01*
X91228231Y-100611133D01*
X91218668Y-100609231D01*
X91218666Y-100609230D01*
X91190048Y-100603538D01*
X91169748Y-100599500D01*
X91074500Y-100599500D01*
X91016309Y-100580593D01*
X90980345Y-100531093D01*
X90975500Y-100500500D01*
X90975500Y-100449500D01*
X90994407Y-100391309D01*
X91043907Y-100355345D01*
X91074500Y-100350500D01*
X91169748Y-100350500D01*
X91195995Y-100345279D01*
X91218666Y-100340770D01*
X91218668Y-100340769D01*
X91228231Y-100338867D01*
X91244998Y-100327663D01*
X91303884Y-100311054D01*
X91355002Y-100327663D01*
X91371769Y-100338867D01*
X91381332Y-100340769D01*
X91381334Y-100340770D01*
X91404005Y-100345279D01*
X91430252Y-100350500D01*
X92469748Y-100350500D01*
X92495995Y-100345279D01*
X92518666Y-100340770D01*
X92518668Y-100340769D01*
X92528231Y-100338867D01*
X92594552Y-100294552D01*
X92638867Y-100228231D01*
X92650500Y-100169748D01*
X92650500Y-99835042D01*
X92669407Y-99776851D01*
X92718907Y-99740887D01*
X92780093Y-99740887D01*
X92796432Y-99749211D01*
X92796780Y-99748528D01*
X92916874Y-99809719D01*
X92924568Y-99810938D01*
X92924569Y-99810938D01*
X93042304Y-99829585D01*
X93050000Y-99830804D01*
X93057696Y-99829585D01*
X93175431Y-99810938D01*
X93175432Y-99810938D01*
X93183126Y-99809719D01*
X93190066Y-99806183D01*
X93296281Y-99752064D01*
X93296283Y-99752063D01*
X93303220Y-99748528D01*
X93398528Y-99653220D01*
X93427969Y-99595440D01*
X93456183Y-99540066D01*
X93456183Y-99540065D01*
X93459719Y-99533126D01*
X93480804Y-99400000D01*
X93471022Y-99338237D01*
X93460938Y-99274569D01*
X93460938Y-99274568D01*
X93459719Y-99266874D01*
X93439994Y-99228161D01*
X93402064Y-99153719D01*
X93402063Y-99153717D01*
X93398528Y-99146780D01*
X93303220Y-99051472D01*
X93296283Y-99047937D01*
X93296281Y-99047936D01*
X93190066Y-98993817D01*
X93190065Y-98993817D01*
X93183126Y-98990281D01*
X93175432Y-98989062D01*
X93175431Y-98989062D01*
X93057696Y-98970415D01*
X93050000Y-98969196D01*
X93042304Y-98970415D01*
X92924569Y-98989062D01*
X92924568Y-98989062D01*
X92916874Y-98990281D01*
X92909935Y-98993817D01*
X92909934Y-98993817D01*
X92818922Y-99040190D01*
X92796780Y-99051472D01*
X92795524Y-99049006D01*
X92749487Y-99063958D01*
X92691299Y-99045043D01*
X92655341Y-98995538D01*
X92650500Y-98964958D01*
X92650500Y-98630252D01*
X92638867Y-98571769D01*
X92594552Y-98505448D01*
X92528231Y-98461133D01*
X92518668Y-98459231D01*
X92518666Y-98459230D01*
X92495995Y-98454721D01*
X92469748Y-98449500D01*
X92186940Y-98449500D01*
X92128749Y-98430593D01*
X92092785Y-98381093D01*
X92092785Y-98319907D01*
X92130159Y-98269402D01*
X92132552Y-98267726D01*
X92140404Y-98264065D01*
X92218865Y-98185604D01*
X92273382Y-98157827D01*
X92333814Y-98167398D01*
X92371357Y-98186527D01*
X92416874Y-98209719D01*
X92424568Y-98210938D01*
X92424569Y-98210938D01*
X92542304Y-98229585D01*
X92550000Y-98230804D01*
X92557696Y-98229585D01*
X92675431Y-98210938D01*
X92675432Y-98210938D01*
X92683126Y-98209719D01*
X92728643Y-98186527D01*
X92796281Y-98152064D01*
X92796283Y-98152063D01*
X92803220Y-98148528D01*
X92898528Y-98053220D01*
X92909962Y-98030781D01*
X92956183Y-97940066D01*
X92956183Y-97940065D01*
X92959719Y-97933126D01*
X92962925Y-97912888D01*
X92979585Y-97807696D01*
X92980804Y-97800000D01*
X92959719Y-97666874D01*
X92953926Y-97655505D01*
X92902064Y-97553719D01*
X92902063Y-97553717D01*
X92898528Y-97546780D01*
X92803220Y-97451472D01*
X92796283Y-97447937D01*
X92796281Y-97447936D01*
X92690066Y-97393817D01*
X92690065Y-97393817D01*
X92683126Y-97390281D01*
X92675432Y-97389062D01*
X92675431Y-97389062D01*
X92557696Y-97370415D01*
X92550000Y-97369196D01*
X92542304Y-97370415D01*
X92424569Y-97389062D01*
X92424568Y-97389062D01*
X92416874Y-97390281D01*
X92409935Y-97393817D01*
X92409934Y-97393817D01*
X92333814Y-97432602D01*
X92273382Y-97442173D01*
X92218865Y-97414396D01*
X92140404Y-97335935D01*
X92132556Y-97332275D01*
X92132554Y-97332274D01*
X92040042Y-97289135D01*
X92040041Y-97289135D01*
X92033173Y-97285932D01*
X91984316Y-97279500D01*
X91635684Y-97279500D01*
X91586827Y-97285932D01*
X91579959Y-97289135D01*
X91579958Y-97289135D01*
X91487446Y-97332274D01*
X91487444Y-97332275D01*
X91479596Y-97335935D01*
X91395935Y-97419596D01*
X91389723Y-97432919D01*
X91347995Y-97477664D01*
X91287933Y-97489338D01*
X91232481Y-97463479D01*
X91210278Y-97432920D01*
X91204065Y-97419596D01*
X91120404Y-97335935D01*
X91112556Y-97332275D01*
X91112554Y-97332274D01*
X91020042Y-97289135D01*
X91020041Y-97289135D01*
X91013173Y-97285932D01*
X90964316Y-97279500D01*
X90615684Y-97279500D01*
X90566827Y-97285932D01*
X90559959Y-97289135D01*
X90559958Y-97289135D01*
X90467446Y-97332274D01*
X90467444Y-97332275D01*
X90459596Y-97335935D01*
X90375935Y-97419596D01*
X90372276Y-97427443D01*
X90372274Y-97427446D01*
X90329135Y-97519958D01*
X90325932Y-97526827D01*
X90319500Y-97575684D01*
X90319500Y-98024316D01*
X90323208Y-98052478D01*
X90323653Y-98055862D01*
X90324500Y-98068784D01*
X90324500Y-98350500D01*
X90305593Y-98408691D01*
X90256093Y-98444655D01*
X90225500Y-98449500D01*
X90130252Y-98449500D01*
X90104005Y-98454721D01*
X90081334Y-98459230D01*
X90081332Y-98459231D01*
X90071769Y-98461133D01*
X90063661Y-98466550D01*
X90063660Y-98466551D01*
X90054500Y-98472672D01*
X89995612Y-98489280D01*
X89938208Y-98468102D01*
X89904216Y-98417228D01*
X89900499Y-98390356D01*
X89900499Y-97034320D01*
X98591082Y-97034320D01*
X98595204Y-97047005D01*
X98599325Y-97050000D01*
X99134320Y-97050000D01*
X99147005Y-97045878D01*
X99150000Y-97041757D01*
X99150000Y-96181762D01*
X99145878Y-96169077D01*
X99141757Y-96166082D01*
X99111498Y-96166082D01*
X99102087Y-96167572D01*
X99090462Y-96167571D01*
X99026763Y-96180234D01*
X99020168Y-96182233D01*
X99014090Y-96185482D01*
X98960073Y-96221580D01*
X98951852Y-96229802D01*
X98947551Y-96231994D01*
X98660379Y-96519166D01*
X98654777Y-96526877D01*
X98646547Y-96535108D01*
X98610464Y-96589124D01*
X98607236Y-96595163D01*
X98605242Y-96601737D01*
X98592572Y-96665415D01*
X98592571Y-96677057D01*
X98591082Y-96681638D01*
X98591082Y-97034320D01*
X89900499Y-97034320D01*
X89900499Y-95450912D01*
X89903017Y-95428726D01*
X89903062Y-95428531D01*
X89905655Y-95417254D01*
X89903194Y-95406378D01*
X89903213Y-95395560D01*
X89902351Y-95385093D01*
X89902383Y-95384555D01*
X89915713Y-95155699D01*
X89917049Y-95144266D01*
X89961481Y-94892274D01*
X89964136Y-94881071D01*
X89964138Y-94881067D01*
X90008429Y-94733126D01*
X90037525Y-94635940D01*
X90041463Y-94625122D01*
X90142807Y-94390182D01*
X90147973Y-94379894D01*
X90220184Y-94254821D01*
X90275919Y-94158285D01*
X90282242Y-94148672D01*
X90286166Y-94143402D01*
X90394957Y-93997271D01*
X90435040Y-93943431D01*
X90442440Y-93934612D01*
X90618035Y-93748493D01*
X90626399Y-93740601D01*
X90822430Y-93576112D01*
X90831656Y-93569245D01*
X91023222Y-93443251D01*
X91032236Y-93439010D01*
X91032195Y-93438938D01*
X91041860Y-93433380D01*
X91052518Y-93430112D01*
X91061549Y-93421764D01*
X91079249Y-93408726D01*
X93368286Y-92087149D01*
X93428134Y-92074428D01*
X93484030Y-92099315D01*
X93503522Y-92123386D01*
X94165564Y-93270076D01*
X94165572Y-93270087D01*
X94167999Y-93274291D01*
X94171200Y-93277941D01*
X94171202Y-93277944D01*
X94189254Y-93298528D01*
X94207315Y-93319123D01*
X94216056Y-93323434D01*
X94216058Y-93323435D01*
X94265201Y-93347669D01*
X94309029Y-93390364D01*
X94320415Y-93436460D01*
X94320415Y-93442303D01*
X94319196Y-93450000D01*
X94340281Y-93583126D01*
X94343817Y-93590065D01*
X94343817Y-93590066D01*
X94359190Y-93620236D01*
X94401472Y-93703220D01*
X94413866Y-93715614D01*
X94441643Y-93770131D01*
X94432072Y-93830563D01*
X94393365Y-93871352D01*
X94206399Y-93979297D01*
X94202741Y-93982504D01*
X94202738Y-93982507D01*
X94197629Y-93986987D01*
X94141412Y-94011139D01*
X94081736Y-93997635D01*
X94046618Y-93962054D01*
X94046446Y-93961755D01*
X93371906Y-92793417D01*
X93355133Y-92774291D01*
X93339020Y-92755917D01*
X93339017Y-92755915D01*
X93332590Y-92748586D01*
X93261051Y-92713308D01*
X93251320Y-92712670D01*
X93238318Y-92711818D01*
X93181458Y-92708090D01*
X93172226Y-92711224D01*
X93172225Y-92711224D01*
X93129598Y-92725694D01*
X93124994Y-92727257D01*
X93120786Y-92729687D01*
X93120785Y-92729687D01*
X92878935Y-92869319D01*
X91012328Y-93947005D01*
X91008670Y-93950213D01*
X90974828Y-93979891D01*
X90974826Y-93979894D01*
X90967497Y-93986321D01*
X90963184Y-93995067D01*
X90955102Y-94011457D01*
X90932219Y-94057860D01*
X90927001Y-94137453D01*
X90930135Y-94146685D01*
X90930135Y-94146686D01*
X90936284Y-94164799D01*
X90946168Y-94193917D01*
X92165916Y-96306583D01*
X92169124Y-96310241D01*
X92198802Y-96344083D01*
X92198805Y-96344085D01*
X92205232Y-96351414D01*
X92276771Y-96386692D01*
X92286502Y-96387330D01*
X92299504Y-96388182D01*
X92356364Y-96391910D01*
X92365596Y-96388776D01*
X92365597Y-96388776D01*
X92408224Y-96374306D01*
X92408225Y-96374305D01*
X92412828Y-96372743D01*
X92424707Y-96365885D01*
X93157127Y-95943022D01*
X94525494Y-95152995D01*
X94529148Y-95149791D01*
X94529153Y-95149787D01*
X94534259Y-95145308D01*
X94590474Y-95121153D01*
X94650151Y-95134654D01*
X94685273Y-95170237D01*
X94832552Y-95425332D01*
X94832560Y-95425343D01*
X94834987Y-95429547D01*
X94838188Y-95433197D01*
X94838190Y-95433200D01*
X94858269Y-95456095D01*
X94874303Y-95474379D01*
X94883043Y-95478689D01*
X94883047Y-95478692D01*
X94915373Y-95494632D01*
X94959201Y-95537325D01*
X94966984Y-95584513D01*
X94970415Y-95584513D01*
X94970415Y-95592304D01*
X94969196Y-95600000D01*
X94990281Y-95733126D01*
X94993817Y-95740065D01*
X94993817Y-95740066D01*
X95024649Y-95800576D01*
X95051472Y-95853220D01*
X95146780Y-95948528D01*
X95153717Y-95952063D01*
X95153719Y-95952064D01*
X95212898Y-95982217D01*
X95266874Y-96009719D01*
X95274568Y-96010938D01*
X95274569Y-96010938D01*
X95392304Y-96029585D01*
X95400000Y-96030804D01*
X95407696Y-96029585D01*
X95525431Y-96010938D01*
X95525432Y-96010938D01*
X95533126Y-96009719D01*
X95587102Y-95982217D01*
X95646281Y-95952064D01*
X95646283Y-95952063D01*
X95653220Y-95948528D01*
X95748528Y-95853220D01*
X95775352Y-95800576D01*
X95806183Y-95740066D01*
X95806183Y-95740065D01*
X95809719Y-95733126D01*
X95830804Y-95600000D01*
X95818727Y-95523750D01*
X95828298Y-95463319D01*
X95871563Y-95420055D01*
X95931995Y-95410483D01*
X95986512Y-95438260D01*
X95996780Y-95448528D01*
X96003717Y-95452063D01*
X96003719Y-95452064D01*
X96033131Y-95467050D01*
X96116874Y-95509719D01*
X96124568Y-95510938D01*
X96124569Y-95510938D01*
X96242304Y-95529585D01*
X96250000Y-95530804D01*
X96257696Y-95529585D01*
X96375431Y-95510938D01*
X96375432Y-95510938D01*
X96383126Y-95509719D01*
X96466869Y-95467050D01*
X96496281Y-95452064D01*
X96496283Y-95452063D01*
X96503220Y-95448528D01*
X96598528Y-95353220D01*
X96659719Y-95233126D01*
X96680804Y-95100000D01*
X96659719Y-94966874D01*
X96662320Y-94966462D01*
X96662317Y-94917643D01*
X96698278Y-94868141D01*
X96756468Y-94849230D01*
X96814659Y-94868134D01*
X96826478Y-94878226D01*
X96896780Y-94948528D01*
X96903717Y-94952063D01*
X96903719Y-94952064D01*
X96947515Y-94974379D01*
X97016874Y-95009719D01*
X97024568Y-95010938D01*
X97024569Y-95010938D01*
X97142304Y-95029585D01*
X97150000Y-95030804D01*
X97157696Y-95029585D01*
X97275431Y-95010938D01*
X97275432Y-95010938D01*
X97283126Y-95009719D01*
X97352485Y-94974379D01*
X97396281Y-94952064D01*
X97396283Y-94952063D01*
X97403220Y-94948528D01*
X97498528Y-94853220D01*
X97559719Y-94733126D01*
X97572917Y-94649800D01*
X97579585Y-94607696D01*
X97580804Y-94600000D01*
X97559719Y-94466874D01*
X97498528Y-94346780D01*
X97494155Y-94342407D01*
X97475500Y-94284990D01*
X97475500Y-94220505D01*
X97475877Y-94211876D01*
X97478509Y-94181793D01*
X97479264Y-94173164D01*
X97469270Y-94135869D01*
X97472471Y-94074769D01*
X97510974Y-94027218D01*
X97571370Y-94011457D01*
X97603894Y-94013588D01*
X97623510Y-94014874D01*
X97632742Y-94011740D01*
X97632744Y-94011740D01*
X97674295Y-93997635D01*
X97679975Y-93995707D01*
X97721079Y-93971975D01*
X97780924Y-93959254D01*
X97820117Y-93971999D01*
X97821248Y-93972652D01*
X97828489Y-93977268D01*
X97860316Y-93999554D01*
X97868684Y-94001796D01*
X97873971Y-94004262D01*
X97879456Y-94006258D01*
X97886955Y-94010588D01*
X97895481Y-94012091D01*
X97895483Y-94012092D01*
X97925216Y-94017334D01*
X97933650Y-94019204D01*
X97971193Y-94029264D01*
X98009908Y-94025877D01*
X98018537Y-94025500D01*
X99173391Y-94025500D01*
X99231582Y-94044407D01*
X99267546Y-94093907D01*
X99267546Y-94155093D01*
X99241660Y-94196196D01*
X99241328Y-94196512D01*
X99237621Y-94199424D01*
X99234536Y-94202979D01*
X99234534Y-94202981D01*
X99129734Y-94323752D01*
X99099990Y-94358029D01*
X98994834Y-94539799D01*
X98925947Y-94738174D01*
X98925271Y-94742836D01*
X98907103Y-94868141D01*
X98895814Y-94945996D01*
X98896032Y-94950707D01*
X98896032Y-94950708D01*
X98904991Y-95144263D01*
X98905523Y-95155767D01*
X98915758Y-95198235D01*
X98953110Y-95353220D01*
X98954724Y-95359918D01*
X99041640Y-95551081D01*
X99163137Y-95722360D01*
X99241427Y-95797306D01*
X99311427Y-95864317D01*
X99311431Y-95864320D01*
X99314831Y-95867575D01*
X99487960Y-95979363D01*
X99491246Y-95981485D01*
X99490774Y-95982217D01*
X99530750Y-96022755D01*
X99539899Y-96083252D01*
X99511741Y-96137573D01*
X99457031Y-96164969D01*
X99442228Y-96166082D01*
X99365680Y-96166082D01*
X99352995Y-96170204D01*
X99350000Y-96174325D01*
X99350000Y-97034320D01*
X99354122Y-97047005D01*
X99358243Y-97050000D01*
X99793238Y-97050000D01*
X99805923Y-97045878D01*
X99808918Y-97041757D01*
X99808918Y-96386483D01*
X99807429Y-96377081D01*
X99807429Y-96365450D01*
X99794759Y-96301737D01*
X99792766Y-96295167D01*
X99789522Y-96289097D01*
X99761122Y-96246593D01*
X99744514Y-96187705D01*
X99765693Y-96130301D01*
X99816567Y-96096310D01*
X99862414Y-96094429D01*
X99888617Y-96099546D01*
X99888623Y-96099547D01*
X99892122Y-96100230D01*
X99897643Y-96100500D01*
X100052469Y-96100500D01*
X100111676Y-96094851D01*
X100171399Y-96108145D01*
X100211902Y-96154006D01*
X100217714Y-96214915D01*
X100195684Y-96255069D01*
X100196490Y-96255621D01*
X100191326Y-96263163D01*
X100184868Y-96269632D01*
X100181172Y-96277992D01*
X100148713Y-96351414D01*
X100142315Y-96365885D01*
X100139500Y-96390031D01*
X100139501Y-97909968D01*
X100139848Y-97912883D01*
X100139848Y-97912888D01*
X100141340Y-97925431D01*
X100142431Y-97934603D01*
X100146136Y-97942943D01*
X100153851Y-97960313D01*
X100160194Y-98021169D01*
X100129555Y-98074130D01*
X100073638Y-98098968D01*
X100063375Y-98099501D01*
X99899235Y-98099501D01*
X99841044Y-98080594D01*
X99805080Y-98031094D01*
X99802137Y-97981187D01*
X99807429Y-97954583D01*
X99807430Y-97942943D01*
X99808918Y-97938365D01*
X99808918Y-97265680D01*
X99804796Y-97252995D01*
X99800675Y-97250000D01*
X98606762Y-97250000D01*
X98594077Y-97254122D01*
X98591082Y-97258243D01*
X98591082Y-97933502D01*
X98592572Y-97942913D01*
X98592571Y-97954539D01*
X98595629Y-97969924D01*
X98588430Y-98030684D01*
X98546595Y-98075774D01*
X98458084Y-98124929D01*
X98345770Y-98223299D01*
X98320024Y-98257942D01*
X98273533Y-98320500D01*
X98256713Y-98343132D01*
X98194914Y-98479043D01*
X98163149Y-98624927D01*
X98163138Y-98630188D01*
X98163138Y-98630191D01*
X98163093Y-98652507D01*
X98162846Y-98774228D01*
X98194018Y-98920240D01*
X98213143Y-98962757D01*
X98247973Y-99040190D01*
X98251957Y-99050715D01*
X98252127Y-99051101D01*
X98253783Y-99056435D01*
X98254144Y-99057056D01*
X98257987Y-99061155D01*
X98261335Y-99065653D01*
X98260577Y-99066218D01*
X98272215Y-99083344D01*
X98277334Y-99094200D01*
X98283350Y-99110555D01*
X98292558Y-99144575D01*
X98295610Y-99161720D01*
X98296653Y-99173533D01*
X98295987Y-99183154D01*
X98296865Y-99183156D01*
X98296845Y-99194303D01*
X98294345Y-99205169D01*
X98297062Y-99217181D01*
X98299501Y-99239022D01*
X98299501Y-100760446D01*
X98296985Y-100782623D01*
X98294344Y-100794113D01*
X98296806Y-100804988D01*
X98296787Y-100816134D01*
X98296047Y-100816133D01*
X98296713Y-100826038D01*
X98295633Y-100838279D01*
X98292577Y-100855443D01*
X98283374Y-100889444D01*
X98277363Y-100905791D01*
X98272481Y-100916143D01*
X98260882Y-100933132D01*
X98261720Y-100933761D01*
X98258355Y-100938249D01*
X98254506Y-100942325D01*
X98254143Y-100942944D01*
X98252463Y-100948288D01*
X98252403Y-100948423D01*
X98248353Y-100959063D01*
X98196215Y-101074975D01*
X98196213Y-101074980D01*
X98194057Y-101079774D01*
X98162887Y-101225776D01*
X98162976Y-101269596D01*
X98163179Y-101369410D01*
X98163190Y-101375069D01*
X98194953Y-101520944D01*
X98197127Y-101525725D01*
X98197128Y-101525728D01*
X98208165Y-101550000D01*
X98256749Y-101656847D01*
X98345801Y-101776673D01*
X98349758Y-101780139D01*
X98349761Y-101780142D01*
X98382397Y-101808726D01*
X98458108Y-101875037D01*
X98462705Y-101877590D01*
X98544783Y-101923173D01*
X98588563Y-101947487D01*
X98588564Y-101947488D01*
X98588624Y-101947521D01*
X98588617Y-101947534D01*
X98633424Y-101986429D01*
X98647229Y-102046037D01*
X98644623Y-102060665D01*
X98642315Y-102065885D01*
X98639500Y-102090031D01*
X98639500Y-102358404D01*
X98620593Y-102416595D01*
X98571093Y-102452559D01*
X98509907Y-102452559D01*
X98495554Y-102446613D01*
X98490069Y-102443818D01*
X98490066Y-102443817D01*
X98483126Y-102440281D01*
X98475432Y-102439062D01*
X98475431Y-102439062D01*
X98357696Y-102420415D01*
X98350000Y-102419196D01*
X98342304Y-102420415D01*
X98224569Y-102439062D01*
X98224568Y-102439062D01*
X98216874Y-102440281D01*
X98209935Y-102443817D01*
X98209934Y-102443817D01*
X98103719Y-102497936D01*
X98103717Y-102497937D01*
X98096780Y-102501472D01*
X98001472Y-102596780D01*
X97940281Y-102716874D01*
X97919196Y-102850000D01*
X97925053Y-102886978D01*
X97936603Y-102959901D01*
X97940281Y-102983126D01*
X97943817Y-102990065D01*
X97943817Y-102990066D01*
X97996727Y-103093907D01*
X98001472Y-103103220D01*
X98096780Y-103198528D01*
X98103717Y-103202063D01*
X98103719Y-103202064D01*
X98209932Y-103256182D01*
X98216874Y-103259719D01*
X98224568Y-103260938D01*
X98224569Y-103260938D01*
X98342304Y-103279585D01*
X98350000Y-103280804D01*
X98357696Y-103279585D01*
X98475431Y-103260938D01*
X98475432Y-103260938D01*
X98483126Y-103259719D01*
X98490068Y-103256182D01*
X98495558Y-103253385D01*
X98555991Y-103243815D01*
X98610506Y-103271594D01*
X98638283Y-103326111D01*
X98639501Y-103341596D01*
X98639501Y-103609968D01*
X98639848Y-103612883D01*
X98639848Y-103612888D01*
X98641553Y-103627223D01*
X98642431Y-103634603D01*
X98685152Y-103730781D01*
X98691622Y-103737239D01*
X98691622Y-103737240D01*
X98700679Y-103746281D01*
X98759632Y-103805132D01*
X98767992Y-103808828D01*
X98849076Y-103844675D01*
X98849077Y-103844675D01*
X98855885Y-103847685D01*
X98880031Y-103850500D01*
X98890486Y-103850500D01*
X99419938Y-103850499D01*
X99478128Y-103869406D01*
X99514092Y-103918906D01*
X99514092Y-103980092D01*
X99478128Y-104029592D01*
X99465267Y-104037512D01*
X99424629Y-104058442D01*
X99402761Y-104069705D01*
X99237621Y-104199424D01*
X99099990Y-104358029D01*
X98994834Y-104539799D01*
X98993290Y-104544244D01*
X98993290Y-104544245D01*
X98937912Y-104703719D01*
X98925947Y-104738174D01*
X98925271Y-104742836D01*
X98897706Y-104932950D01*
X98895814Y-104945996D01*
X98896032Y-104950707D01*
X98896032Y-104950708D01*
X98903603Y-105114274D01*
X98905523Y-105155767D01*
X98920471Y-105217790D01*
X98951141Y-105345049D01*
X98954724Y-105359918D01*
X98956674Y-105364206D01*
X98956674Y-105364207D01*
X98993162Y-105444459D01*
X99041640Y-105551081D01*
X99163137Y-105722360D01*
X99222694Y-105779373D01*
X99311427Y-105864317D01*
X99311431Y-105864320D01*
X99314831Y-105867575D01*
X99491246Y-105981485D01*
X99495623Y-105983249D01*
X99669243Y-106053220D01*
X99686019Y-106059981D01*
X99690643Y-106060884D01*
X99888627Y-106099548D01*
X99888634Y-106099549D01*
X99892122Y-106100230D01*
X99897643Y-106100500D01*
X100052469Y-106100500D01*
X100148540Y-106091334D01*
X100204353Y-106086009D01*
X100204355Y-106086009D01*
X100209046Y-106085561D01*
X100410549Y-106026447D01*
X100559393Y-105949787D01*
X100593051Y-105932452D01*
X100597239Y-105930295D01*
X100740943Y-105817414D01*
X100758672Y-105803488D01*
X100758673Y-105803487D01*
X100762379Y-105800576D01*
X100883217Y-105661323D01*
X100896921Y-105645531D01*
X100896922Y-105645530D01*
X100900010Y-105641971D01*
X101005166Y-105460201D01*
X101011872Y-105440890D01*
X101072509Y-105266273D01*
X101072510Y-105266271D01*
X101074053Y-105261826D01*
X101074729Y-105257164D01*
X101103509Y-105058674D01*
X101103509Y-105058673D01*
X101104186Y-105054004D01*
X101099807Y-104959383D01*
X101094695Y-104848941D01*
X101094695Y-104848940D01*
X101094477Y-104844233D01*
X101077680Y-104774536D01*
X101046381Y-104644665D01*
X101046379Y-104644660D01*
X101045276Y-104640082D01*
X101043000Y-104635075D01*
X100970199Y-104474957D01*
X100958360Y-104448919D01*
X100947323Y-104433359D01*
X100839589Y-104281483D01*
X100836863Y-104277640D01*
X100713377Y-104159428D01*
X100688573Y-104135683D01*
X100688569Y-104135680D01*
X100685169Y-104132425D01*
X100530673Y-104032668D01*
X100492045Y-103985220D01*
X100488683Y-103924127D01*
X100521872Y-103872726D01*
X100584376Y-103850500D01*
X101109477Y-103850499D01*
X101119968Y-103850499D01*
X101122883Y-103850152D01*
X101122888Y-103850152D01*
X101137223Y-103848447D01*
X101137225Y-103848447D01*
X101144603Y-103847569D01*
X101240781Y-103804848D01*
X101315132Y-103730368D01*
X101357685Y-103634115D01*
X101360500Y-103609969D01*
X101360500Y-103299500D01*
X101379407Y-103241309D01*
X101428907Y-103205345D01*
X101459500Y-103200500D01*
X102153896Y-103200500D01*
X102195735Y-103209776D01*
X102228839Y-103225213D01*
X102275146Y-103246806D01*
X102290513Y-103253972D01*
X102340099Y-103260500D01*
X102519972Y-103260500D01*
X102699900Y-103260499D01*
X102703110Y-103260076D01*
X102703117Y-103260076D01*
X102741975Y-103254961D01*
X102741976Y-103254961D01*
X102749487Y-103253972D01*
X102811161Y-103225213D01*
X102850466Y-103206885D01*
X102850468Y-103206884D01*
X102858316Y-103203224D01*
X102930350Y-103131190D01*
X102984867Y-103103413D01*
X103045299Y-103112984D01*
X103070358Y-103131190D01*
X103135853Y-103196685D01*
X103149826Y-103206469D01*
X103243775Y-103250278D01*
X103258157Y-103254470D01*
X103296947Y-103259577D01*
X103303401Y-103260000D01*
X103364320Y-103260000D01*
X103377005Y-103255878D01*
X103380000Y-103251757D01*
X103380000Y-103244320D01*
X103580000Y-103244320D01*
X103584122Y-103257005D01*
X103588243Y-103260000D01*
X103656599Y-103260000D01*
X103663053Y-103259577D01*
X103701843Y-103254470D01*
X103716225Y-103250278D01*
X103810174Y-103206469D01*
X103824147Y-103196685D01*
X103896685Y-103124147D01*
X103906469Y-103110174D01*
X103950278Y-103016225D01*
X103954470Y-103001843D01*
X103959577Y-102963053D01*
X103960000Y-102956599D01*
X103960000Y-102865680D01*
X103955878Y-102852995D01*
X103951757Y-102850000D01*
X103595680Y-102850000D01*
X103582995Y-102854122D01*
X103580000Y-102858243D01*
X103580000Y-103244320D01*
X103380000Y-103244320D01*
X103380000Y-102749000D01*
X103398907Y-102690809D01*
X103448407Y-102654845D01*
X103479000Y-102650000D01*
X103944320Y-102650000D01*
X103957005Y-102645878D01*
X103960000Y-102641757D01*
X103960000Y-102543401D01*
X103959577Y-102536947D01*
X103954470Y-102498157D01*
X103950278Y-102483775D01*
X103906469Y-102389826D01*
X103896685Y-102375853D01*
X103824149Y-102303317D01*
X103808874Y-102292622D01*
X103772051Y-102243758D01*
X103770981Y-102182582D01*
X103806074Y-102132461D01*
X103823810Y-102121803D01*
X103840404Y-102114065D01*
X103918865Y-102035604D01*
X103973382Y-102007827D01*
X104033814Y-102017398D01*
X104094822Y-102048483D01*
X104116874Y-102059719D01*
X104124568Y-102060938D01*
X104124569Y-102060938D01*
X104242304Y-102079585D01*
X104250000Y-102080804D01*
X104257696Y-102079585D01*
X104375431Y-102060938D01*
X104375432Y-102060938D01*
X104383126Y-102059719D01*
X104405178Y-102048483D01*
X104496281Y-102002064D01*
X104496283Y-102002063D01*
X104503220Y-101998528D01*
X104598528Y-101903220D01*
X104603725Y-101893022D01*
X104656183Y-101790066D01*
X104656183Y-101790065D01*
X104659719Y-101783126D01*
X104663698Y-101758007D01*
X104677895Y-101668368D01*
X104680804Y-101650000D01*
X104666683Y-101560842D01*
X104660938Y-101524569D01*
X104660938Y-101524568D01*
X104659719Y-101516874D01*
X104653865Y-101505385D01*
X104602064Y-101403719D01*
X104602063Y-101403717D01*
X104598528Y-101396780D01*
X104503220Y-101301472D01*
X104496283Y-101297937D01*
X104496281Y-101297936D01*
X104390066Y-101243817D01*
X104390065Y-101243817D01*
X104383126Y-101240281D01*
X104375432Y-101239062D01*
X104375431Y-101239062D01*
X104259079Y-101220634D01*
X104250000Y-101219196D01*
X104240921Y-101220634D01*
X104124569Y-101239062D01*
X104124568Y-101239062D01*
X104116874Y-101240281D01*
X104109935Y-101243817D01*
X104109934Y-101243817D01*
X104033814Y-101282602D01*
X103973382Y-101292173D01*
X103918865Y-101264396D01*
X103840404Y-101185935D01*
X103832556Y-101182275D01*
X103832554Y-101182274D01*
X103740042Y-101139135D01*
X103740041Y-101139135D01*
X103733173Y-101135932D01*
X103684316Y-101129500D01*
X103335684Y-101129500D01*
X103286827Y-101135932D01*
X103279959Y-101139135D01*
X103279958Y-101139135D01*
X103187446Y-101182274D01*
X103187444Y-101182275D01*
X103179596Y-101185935D01*
X103095935Y-101269596D01*
X103089723Y-101282919D01*
X103047995Y-101327664D01*
X102987933Y-101339338D01*
X102932481Y-101313479D01*
X102910278Y-101282920D01*
X102904065Y-101269596D01*
X102820404Y-101185935D01*
X102812556Y-101182275D01*
X102812554Y-101182274D01*
X102720042Y-101139135D01*
X102720041Y-101139135D01*
X102713173Y-101135932D01*
X102664316Y-101129500D01*
X102315684Y-101129500D01*
X102266827Y-101135932D01*
X102259959Y-101139135D01*
X102259958Y-101139135D01*
X102167446Y-101182274D01*
X102167444Y-101182275D01*
X102159596Y-101185935D01*
X102075935Y-101269596D01*
X102072276Y-101277443D01*
X102072274Y-101277446D01*
X102029391Y-101369410D01*
X102025932Y-101376827D01*
X102022944Y-101375433D01*
X102002019Y-101406177D01*
X102011139Y-101416407D01*
X102019500Y-101456225D01*
X102019500Y-101874316D01*
X102025932Y-101923173D01*
X102029135Y-101930041D01*
X102029135Y-101930042D01*
X102062720Y-102002064D01*
X102075935Y-102030404D01*
X102140504Y-102094973D01*
X102168281Y-102149490D01*
X102169500Y-102164977D01*
X102169500Y-102267952D01*
X102150593Y-102326143D01*
X102140504Y-102337956D01*
X102096776Y-102381684D01*
X102093116Y-102389532D01*
X102093115Y-102389534D01*
X102068492Y-102442339D01*
X102026764Y-102487087D01*
X101978768Y-102499500D01*
X101459499Y-102499500D01*
X101401308Y-102480593D01*
X101365344Y-102431093D01*
X101360499Y-102400500D01*
X101360499Y-102090032D01*
X101360152Y-102087112D01*
X101358447Y-102072776D01*
X101358446Y-102072774D01*
X101357569Y-102065397D01*
X101356046Y-102061968D01*
X101358778Y-102002620D01*
X101396980Y-101954826D01*
X101409462Y-101948143D01*
X101411392Y-101947558D01*
X101541916Y-101875070D01*
X101654230Y-101776700D01*
X101743287Y-101656868D01*
X101805086Y-101520956D01*
X101823767Y-101435162D01*
X101853824Y-101383693D01*
X101842761Y-101369410D01*
X101836931Y-101335738D01*
X101837065Y-101269596D01*
X101837154Y-101225771D01*
X101805982Y-101079760D01*
X101752025Y-100959804D01*
X101748052Y-100949310D01*
X101747896Y-100948955D01*
X101747887Y-100948943D01*
X101746216Y-100943564D01*
X101746039Y-100943260D01*
X101746035Y-100943247D01*
X101746026Y-100943237D01*
X101745855Y-100942944D01*
X101742048Y-100938883D01*
X101740924Y-100937376D01*
X101740360Y-100936512D01*
X101740121Y-100936300D01*
X101738714Y-100934413D01*
X101738900Y-100934275D01*
X101734171Y-100927031D01*
X101733503Y-100925853D01*
X101733882Y-100925638D01*
X101727777Y-100916656D01*
X101722639Y-100905764D01*
X101716620Y-100889410D01*
X101707408Y-100855400D01*
X101704350Y-100838242D01*
X101703319Y-100826589D01*
X101703994Y-100816805D01*
X101703140Y-100816804D01*
X101703159Y-100805654D01*
X101705656Y-100794790D01*
X101703195Y-100783919D01*
X101703195Y-100783917D01*
X101702943Y-100782806D01*
X101700500Y-100760947D01*
X101700500Y-99348521D01*
X103898729Y-99348521D01*
X103899496Y-99353368D01*
X103899511Y-99353388D01*
X103901532Y-99355357D01*
X103908554Y-99361044D01*
X104069099Y-99468317D01*
X104077054Y-99472635D01*
X104254446Y-99548849D01*
X104263058Y-99551647D01*
X104451380Y-99594261D01*
X104460339Y-99595440D01*
X104653289Y-99603021D01*
X104662299Y-99602549D01*
X104853399Y-99574841D01*
X104862191Y-99572730D01*
X105045026Y-99510666D01*
X105053288Y-99506988D01*
X105221757Y-99412640D01*
X105229205Y-99407521D01*
X105291888Y-99355388D01*
X105299004Y-99344110D01*
X105298818Y-99341277D01*
X105296816Y-99338237D01*
X104611086Y-98652507D01*
X104599203Y-98646453D01*
X104594172Y-98647249D01*
X103904783Y-99336638D01*
X103898729Y-99348521D01*
X101700500Y-99348521D01*
X101700500Y-99239550D01*
X101703016Y-99217374D01*
X101703158Y-99216754D01*
X101705656Y-99205887D01*
X101703194Y-99195012D01*
X101703213Y-99183866D01*
X101703954Y-99183867D01*
X101703287Y-99173964D01*
X101704367Y-99161722D01*
X101707423Y-99144557D01*
X101716626Y-99110556D01*
X101722637Y-99094209D01*
X101727519Y-99083857D01*
X101739118Y-99066868D01*
X101738280Y-99066239D01*
X101741645Y-99061751D01*
X101745494Y-99057675D01*
X101745857Y-99057056D01*
X101747534Y-99051723D01*
X101747595Y-99051585D01*
X101751646Y-99040940D01*
X101751984Y-99040190D01*
X101805944Y-98920227D01*
X101807042Y-98915084D01*
X101836016Y-98779367D01*
X101836016Y-98779365D01*
X101837114Y-98774223D01*
X101836867Y-98652507D01*
X101836822Y-98630194D01*
X101836822Y-98630191D01*
X101836811Y-98624930D01*
X101805048Y-98479055D01*
X101803482Y-98475610D01*
X103495963Y-98475610D01*
X103508591Y-98668289D01*
X103510004Y-98677210D01*
X103557534Y-98864359D01*
X103560554Y-98872887D01*
X103641389Y-99048232D01*
X103645910Y-99056063D01*
X103743117Y-99193607D01*
X103753804Y-99201587D01*
X103754553Y-99201597D01*
X103760684Y-99197895D01*
X104447493Y-98511086D01*
X104452735Y-98500797D01*
X104746453Y-98500797D01*
X104747249Y-98505828D01*
X105434277Y-99192856D01*
X105446160Y-99198910D01*
X105448962Y-99198467D01*
X105451808Y-99196193D01*
X105507521Y-99129205D01*
X105512640Y-99121757D01*
X105606988Y-98953288D01*
X105610666Y-98945026D01*
X105672730Y-98762191D01*
X105674841Y-98753399D01*
X105702782Y-98560691D01*
X105703275Y-98554907D01*
X105704637Y-98502914D01*
X105704447Y-98497101D01*
X105686629Y-98303200D01*
X105684982Y-98294314D01*
X105632570Y-98108473D01*
X105629332Y-98100038D01*
X105543928Y-97926855D01*
X105539209Y-97919154D01*
X105455848Y-97807521D01*
X105444954Y-97799822D01*
X105443505Y-97799841D01*
X105438414Y-97803007D01*
X104752507Y-98488914D01*
X104746453Y-98500797D01*
X104452735Y-98500797D01*
X104453547Y-98499203D01*
X104452751Y-98494172D01*
X103765442Y-97806863D01*
X103753559Y-97800809D01*
X103751442Y-97801144D01*
X103747711Y-97804206D01*
X103676322Y-97894763D01*
X103671397Y-97902346D01*
X103581490Y-98073231D01*
X103578032Y-98081579D01*
X103520773Y-98265984D01*
X103518895Y-98274821D01*
X103496199Y-98466578D01*
X103495963Y-98475610D01*
X101803482Y-98475610D01*
X101799363Y-98466551D01*
X101770947Y-98404060D01*
X101743252Y-98343152D01*
X101654200Y-98223326D01*
X101650217Y-98219837D01*
X101545853Y-98128431D01*
X101545852Y-98128430D01*
X101541892Y-98124962D01*
X101411375Y-98052478D01*
X101411382Y-98052466D01*
X101366574Y-98013566D01*
X101352771Y-97953958D01*
X101355378Y-97939334D01*
X101357685Y-97934115D01*
X101358698Y-97925431D01*
X101360168Y-97912817D01*
X101360500Y-97909969D01*
X101360500Y-97655505D01*
X103900772Y-97655505D01*
X103901096Y-97659023D01*
X103902467Y-97661046D01*
X104588914Y-98347493D01*
X104600797Y-98353547D01*
X104605828Y-98352751D01*
X105293899Y-97664680D01*
X105299953Y-97652797D01*
X105299293Y-97648630D01*
X105298545Y-97647641D01*
X105275837Y-97626650D01*
X105268670Y-97621151D01*
X105105369Y-97518117D01*
X105097315Y-97514013D01*
X104917969Y-97442460D01*
X104909306Y-97439894D01*
X104719928Y-97402225D01*
X104710935Y-97401280D01*
X104517864Y-97398751D01*
X104508849Y-97399461D01*
X104318555Y-97432160D01*
X104309819Y-97434501D01*
X104128668Y-97501331D01*
X104120506Y-97505224D01*
X103954562Y-97603950D01*
X103947260Y-97609255D01*
X103907591Y-97644044D01*
X103900772Y-97655505D01*
X101360500Y-97655505D01*
X101360499Y-97040835D01*
X101379406Y-96982644D01*
X101389495Y-96970831D01*
X101442058Y-96918268D01*
X101448426Y-96912433D01*
X101478195Y-96887454D01*
X101497630Y-96853791D01*
X101502269Y-96846510D01*
X101503988Y-96844055D01*
X101524555Y-96814683D01*
X101526797Y-96806315D01*
X101529263Y-96801028D01*
X101531259Y-96795543D01*
X101535589Y-96788044D01*
X101542335Y-96749782D01*
X101544205Y-96741348D01*
X101552023Y-96712173D01*
X101554265Y-96703806D01*
X101550878Y-96665090D01*
X101550501Y-96656462D01*
X101550501Y-94293527D01*
X101550878Y-94284899D01*
X101553509Y-94254821D01*
X101554264Y-94246194D01*
X101552023Y-94237831D01*
X101552023Y-94237828D01*
X101544207Y-94208657D01*
X101542338Y-94200229D01*
X101537093Y-94170486D01*
X101535589Y-94161956D01*
X101531258Y-94154455D01*
X101529259Y-94148961D01*
X101526796Y-94143679D01*
X101524555Y-94135317D01*
X101519239Y-94127724D01*
X101502262Y-94103479D01*
X101497637Y-94096220D01*
X101478195Y-94062546D01*
X101448436Y-94037575D01*
X101442068Y-94031741D01*
X100893269Y-93482943D01*
X100887434Y-93476575D01*
X100885122Y-93473819D01*
X100862455Y-93446806D01*
X100828792Y-93427371D01*
X100821511Y-93422732D01*
X100816912Y-93419512D01*
X100789684Y-93400446D01*
X100781316Y-93398204D01*
X100776029Y-93395738D01*
X100770544Y-93393742D01*
X100763045Y-93389412D01*
X100754519Y-93387909D01*
X100754517Y-93387908D01*
X100724784Y-93382666D01*
X100716349Y-93380796D01*
X100687174Y-93372978D01*
X100678807Y-93370736D01*
X100670178Y-93371491D01*
X100640095Y-93374123D01*
X100631466Y-93374500D01*
X98175834Y-93374500D01*
X98117643Y-93355593D01*
X98105830Y-93345504D01*
X97913816Y-93153490D01*
X97898084Y-93132986D01*
X97434436Y-92329924D01*
X97434428Y-92329913D01*
X97432001Y-92325709D01*
X97428800Y-92322059D01*
X97428798Y-92322056D01*
X97399112Y-92288206D01*
X97392685Y-92280877D01*
X97321147Y-92245599D01*
X97311418Y-92244961D01*
X97311417Y-92244961D01*
X97281351Y-92242991D01*
X97241554Y-92240382D01*
X97232322Y-92243516D01*
X97232320Y-92243516D01*
X97213482Y-92249911D01*
X97185089Y-92259549D01*
X97040090Y-92343264D01*
X96980243Y-92355986D01*
X96924347Y-92331099D01*
X96902381Y-92302473D01*
X96891378Y-92280877D01*
X96848528Y-92196780D01*
X96844155Y-92192407D01*
X96825500Y-92134990D01*
X96825500Y-92100538D01*
X96825877Y-92091909D01*
X96828509Y-92061826D01*
X96829264Y-92053197D01*
X96819204Y-92015654D01*
X96817334Y-92007220D01*
X96811192Y-91972384D01*
X96819708Y-91911794D01*
X96862212Y-91867782D01*
X96915164Y-91856406D01*
X96946727Y-91858475D01*
X96965689Y-91855979D01*
X97008175Y-91841556D01*
X97016993Y-91837560D01*
X97102861Y-91787984D01*
X97111786Y-91778072D01*
X97112319Y-91773005D01*
X96736782Y-91122555D01*
X96726869Y-91113629D01*
X96721803Y-91113097D01*
X96482714Y-91251135D01*
X96473788Y-91261048D01*
X96473256Y-91266114D01*
X96546442Y-91392876D01*
X96559164Y-91452724D01*
X96534277Y-91508620D01*
X96481289Y-91539213D01*
X96420439Y-91532817D01*
X96390702Y-91512380D01*
X96386602Y-91508280D01*
X96370870Y-91487776D01*
X96326363Y-91410687D01*
X95929260Y-90722885D01*
X95916538Y-90663038D01*
X95941425Y-90607142D01*
X95965474Y-90587662D01*
X95966774Y-90586911D01*
X96026619Y-90574175D01*
X96082521Y-90599047D01*
X96102033Y-90623135D01*
X96361296Y-91072191D01*
X96371206Y-91081114D01*
X96376273Y-91081647D01*
X96628941Y-90935769D01*
X96716410Y-90885269D01*
X96776258Y-90872547D01*
X96832154Y-90897434D01*
X96851647Y-90921505D01*
X97281807Y-91666564D01*
X97291720Y-91675490D01*
X97296786Y-91676022D01*
X97389093Y-91622729D01*
X97396961Y-91617090D01*
X97402112Y-91612573D01*
X97458328Y-91588420D01*
X97518005Y-91601922D01*
X97553126Y-91637504D01*
X97569904Y-91666564D01*
X98228094Y-92806583D01*
X98231302Y-92810241D01*
X98260980Y-92844083D01*
X98260983Y-92844085D01*
X98267410Y-92851414D01*
X98276156Y-92855727D01*
X98284251Y-92859719D01*
X98338949Y-92886692D01*
X98348680Y-92887330D01*
X98361682Y-92888182D01*
X98418542Y-92891910D01*
X98427774Y-92888776D01*
X98427775Y-92888776D01*
X98470402Y-92874306D01*
X98470403Y-92874305D01*
X98475006Y-92872743D01*
X98633032Y-92781507D01*
X99204866Y-92451358D01*
X100587672Y-91652995D01*
X100591330Y-91649787D01*
X100625172Y-91620109D01*
X100625174Y-91620106D01*
X100632503Y-91613679D01*
X100667781Y-91542140D01*
X100672999Y-91462547D01*
X100653832Y-91406083D01*
X100484677Y-91113097D01*
X100187890Y-90599047D01*
X99434084Y-89293417D01*
X99430876Y-89289759D01*
X99401198Y-89255917D01*
X99401195Y-89255915D01*
X99394768Y-89248586D01*
X99323229Y-89213308D01*
X99313498Y-89212670D01*
X99300496Y-89211818D01*
X99243636Y-89208090D01*
X99234404Y-89211224D01*
X99234403Y-89211224D01*
X99191776Y-89225694D01*
X99187172Y-89227257D01*
X97074506Y-90447005D01*
X97070848Y-90450213D01*
X97065354Y-90455031D01*
X97009137Y-90479184D01*
X96949461Y-90465680D01*
X96914342Y-90430099D01*
X96794852Y-90223135D01*
X96782131Y-90163286D01*
X96807018Y-90107391D01*
X96831089Y-90087898D01*
X98820792Y-88939142D01*
X98841263Y-88930231D01*
X98841859Y-88930048D01*
X98852517Y-88926779D01*
X98860701Y-88919214D01*
X98870077Y-88913823D01*
X98878716Y-88907838D01*
X99084062Y-88804709D01*
X99094633Y-88800149D01*
X99335084Y-88712632D01*
X99346113Y-88709331D01*
X99470596Y-88679828D01*
X99595083Y-88650324D01*
X99606412Y-88648326D01*
X99860573Y-88618618D01*
X99872065Y-88617949D01*
X100127933Y-88617949D01*
X100139427Y-88618618D01*
G37*
%TD.AperFunction*%
%TA.AperFunction,Conductor*%
G36*
X90054500Y-102477328D02*
G01*
X90063660Y-102483449D01*
X90063661Y-102483450D01*
X90071769Y-102488867D01*
X90081332Y-102490769D01*
X90081334Y-102490770D01*
X90104005Y-102495279D01*
X90130252Y-102500500D01*
X90225500Y-102500500D01*
X90283691Y-102519407D01*
X90319655Y-102568907D01*
X90324500Y-102599500D01*
X90324500Y-103969383D01*
X90324123Y-103978012D01*
X90320736Y-104016724D01*
X90322978Y-104025091D01*
X90330796Y-104054266D01*
X90332666Y-104062700D01*
X90339412Y-104100962D01*
X90343742Y-104108461D01*
X90345738Y-104113946D01*
X90348204Y-104119233D01*
X90350446Y-104127601D01*
X90371013Y-104156973D01*
X90372732Y-104159428D01*
X90377369Y-104166706D01*
X90381351Y-104173602D01*
X90394076Y-104233450D01*
X90388048Y-104254302D01*
X90388445Y-104254408D01*
X90385922Y-104263826D01*
X90381609Y-104272571D01*
X90376391Y-104352164D01*
X90379525Y-104361396D01*
X90379525Y-104361398D01*
X90392891Y-104400773D01*
X90395558Y-104408629D01*
X90397988Y-104412838D01*
X90397989Y-104412840D01*
X90590920Y-104747005D01*
X91165306Y-105741871D01*
X91168507Y-105745521D01*
X91168509Y-105745524D01*
X91170851Y-105748194D01*
X91204622Y-105786703D01*
X91213368Y-105791016D01*
X91267414Y-105817668D01*
X91267416Y-105817668D01*
X91276161Y-105821981D01*
X91285891Y-105822619D01*
X91285892Y-105822619D01*
X91307940Y-105824064D01*
X91355754Y-105827198D01*
X91364986Y-105824064D01*
X91364987Y-105824064D01*
X91407614Y-105809594D01*
X91407615Y-105809593D01*
X91412218Y-105808031D01*
X91420087Y-105803488D01*
X91693575Y-105645590D01*
X91753423Y-105632869D01*
X91813079Y-105661323D01*
X92756980Y-106605223D01*
X92784757Y-106659740D01*
X92772712Y-106724726D01*
X92591969Y-107037782D01*
X92590407Y-107042385D01*
X92590406Y-107042386D01*
X92578269Y-107078142D01*
X92572802Y-107094246D01*
X92573851Y-107110241D01*
X92574298Y-107117065D01*
X92559238Y-107176368D01*
X92512196Y-107215493D01*
X92451142Y-107219495D01*
X92426010Y-107209278D01*
X91079701Y-106431986D01*
X91061752Y-106418717D01*
X91061292Y-106418289D01*
X91053131Y-106410693D01*
X91042483Y-106407387D01*
X91033126Y-106401964D01*
X91023631Y-106397478D01*
X90831639Y-106271212D01*
X90822404Y-106264337D01*
X90626390Y-106099870D01*
X90618015Y-106091969D01*
X90610718Y-106084235D01*
X90442413Y-105905847D01*
X90435026Y-105897045D01*
X90282221Y-105691791D01*
X90275895Y-105682173D01*
X90263858Y-105661323D01*
X90214740Y-105576248D01*
X90147960Y-105460579D01*
X90142793Y-105450290D01*
X90041453Y-105215345D01*
X90037515Y-105204526D01*
X89964136Y-104959396D01*
X89961481Y-104948192D01*
X89917059Y-104696203D01*
X89915723Y-104684767D01*
X89902399Y-104455803D01*
X89903229Y-104445943D01*
X89903136Y-104445943D01*
X89903156Y-104434794D01*
X89905655Y-104423929D01*
X89902939Y-104411922D01*
X89900499Y-104390079D01*
X89900499Y-102559644D01*
X89919406Y-102501453D01*
X89968906Y-102465489D01*
X90030092Y-102465489D01*
X90054500Y-102477328D01*
G37*
%TD.AperFunction*%
%TD*%
M02*
