M48
; DRILL file {KiCad (6.0.6)} date Sun Jul 10 21:38:46 2022
; FORMAT={-:-/ absolute / inch / decimal}
; #@! TF.CreationDate,2022-07-10T21:38:46+02:00
; #@! TF.GenerationSoftware,Kicad,Pcbnew,(6.0.6)
; #@! TF.FileFunction,Plated,1,4,PTH
FMAT,2
INCH
; #@! TA.AperFunction,Plated,PTH,ViaDrill
T1C0.0079
; #@! TA.AperFunction,Plated,PTH,ComponentDrill
T2C0.0472
%
G90
G05
T1
X3.563Y-4.1457
X3.5689Y-3.7146
X3.6437Y-3.8504
X3.6634Y-3.9134
X3.6634Y-3.998
X3.6791Y-4.0748
X3.7303Y-3.6791
X3.7343Y-4.1319
X3.7559Y-3.7638
X3.7638Y-3.6594
X3.7894Y-3.7441
X3.7992Y-3.6398
X3.811Y-4.1752
X3.8248Y-3.7244
X3.8346Y-3.6201
X3.872Y-4.0492
X3.937Y-3.5039
X3.937Y-4.3642
X4.0118Y-4.1654
X4.0374Y-4.25
X4.0453Y-4.1457
X4.0728Y-4.2303
X4.0807Y-4.126
X4.1043Y-4.002
X4.1063Y-4.2106
X4.1398Y-4.189
X4.3091Y-3.7146
X4.3091Y-4.1457
T2
X3.7559Y-3.9961
X4.1181Y-3.878
T0
M30
